<svg width="114" height="172" viewBox="0 0 114 172" fill="none" xmlns="http://www.w3.org/2000/svg">
<g clip-path="url(#clip0_18_544)">
<path d="M40.2501 161.74L39.4001 162.23V161.25L40.2501 160.77V161.74Z" fill="#4F2E16"/>
<path d="M73.4601 112.83L69.0901 110.3L55.0901 102.19L42.0001 109.72L39.8201 111L39.6001 111.13L37.6001 112.28L23.4001 120.44L36.2301 127.86L37.5201 128.61L37.7401 128.74L39.8201 129.94L41.9001 131.15L55.7301 139.15L69.8601 131L71.9401 129.8L72.1501 129.67L74.2401 128.47L87.3601 120.9L73.4601 112.83Z" fill="#FFDDA8"/>
<path d="M55.7402 139.13L55.7201 171.31L41.9001 163.38L41.8401 163.35L39.4001 161.95L38.5801 161.48L37.5201 160.88L36.2301 160.14L23.4001 152.78L23.4101 120.45L37.5201 128.61L38.5901 129.22L39.4101 129.7L41.9101 131.14L55.7402 139.13Z" fill="#BC7C46"/>
<path d="M74.23 128.45L73.09 129.1L72.28 129.58L72.11 129.68L71.9 129.8L69.85 131L55.74 139.15V171.33L69.86 163.23L72.28 161.84L73.11 161.36L74.24 160.72L87.38 153.19V120.88L74.23 128.45Z" fill="#DDA866"/>
<path d="M58.48 164.47L58.26 164.6V160.83L58.48 160.7V164.47Z" fill="#9E1D22"/>
<path d="M59.25 161.09L59.1 161.35L58.37 160.86L57.65 162.19L57.48 162.11L58.37 160.5L59.25 161.09Z" fill="#9E1D22"/>
<path d="M60.6402 163.22L60.4302 163.35V159.58L60.6402 159.46V163.22Z" fill="#9E1D22"/>
<path d="M61.4201 159.84L61.2601 160.1L60.5401 159.61L59.8101 160.94L59.6501 160.86L60.5401 159.25L61.4201 159.84Z" fill="#9E1D22"/>
<path d="M61.4702 162.87L57.4702 165.2C57.4102 165.2 57.3702 165.2 57.3702 165.14C57.3682 165.102 57.3764 165.065 57.394 165.031C57.4116 164.998 57.4379 164.97 57.4702 164.95L61.4702 162.62C61.5302 162.62 61.5802 162.62 61.5802 162.68C61.5783 162.718 61.5673 162.755 61.5482 162.788C61.529 162.821 61.5023 162.849 61.4702 162.87Z" fill="#9E1D22"/>
<path d="M61.4402 163.89L57.4402 166.18C57.0202 166.42 56.6802 166.18 56.6802 165.74V161.16C56.6947 160.897 56.7711 160.642 56.9031 160.414C57.0352 160.186 57.2192 159.993 57.4402 159.85L61.4402 157.55C61.8602 157.31 62.2002 157.55 62.2002 157.99V162.58C62.1834 162.842 62.106 163.097 61.9741 163.324C61.8422 163.552 61.6595 163.745 61.4402 163.89V163.89ZM57.4402 160.1C57.2832 160.202 57.152 160.34 57.0566 160.501C56.9612 160.662 56.9043 160.843 56.8902 161.03V165.62C56.8902 165.96 57.1402 166.1 57.4402 165.93L61.4402 163.64C61.5982 163.537 61.7296 163.398 61.8234 163.235C61.9173 163.072 61.971 162.888 61.9802 162.7V158.12C61.9802 157.77 61.7402 157.63 61.4402 157.8L57.4402 160.1Z" fill="#9E1D22"/>
<path d="M68.4501 159.9L64.3701 162.26C63.9401 162.51 63.5901 162.31 63.5901 161.81V157.09C63.6061 156.82 63.685 156.557 63.8204 156.323C63.9558 156.088 64.144 155.889 64.3701 155.74L68.4601 153.39C68.8901 153.14 69.2301 153.39 69.2301 153.84V158.55C69.2156 158.821 69.1374 159.084 69.0018 159.318C68.8663 159.553 68.6772 159.752 68.4501 159.9V159.9ZM64.3701 156C64.2026 156.109 64.0641 156.257 63.9665 156.431C63.8689 156.605 63.8152 156.8 63.8101 157V161.72C63.8101 162.07 64.0601 162.22 64.3701 162.05L68.4601 159.69C68.6246 159.579 68.7602 159.43 68.8559 159.256C68.9515 159.083 69.0044 158.888 69.0101 158.69V154C69.0101 153.65 68.7601 153.5 68.4601 153.68L64.3701 156Z" fill="#9E1D22"/>
<path d="M66.41 159.8C66.3978 159.807 66.384 159.811 66.3699 159.811C66.3558 159.811 66.3419 159.807 66.3297 159.8C66.3175 159.793 66.3075 159.783 66.3005 159.77C66.2935 159.758 66.2899 159.744 66.29 159.73V156.35C66.3039 156.274 66.3469 156.205 66.41 156.16C66.4207 156.153 66.4333 156.148 66.4463 156.148C66.4592 156.147 66.4722 156.15 66.4836 156.156C66.495 156.162 66.5045 156.172 66.5109 156.183C66.5174 156.194 66.5205 156.207 66.52 156.22V159.6C66.5174 159.639 66.5062 159.678 66.4872 159.712C66.4682 159.747 66.4419 159.777 66.41 159.8Z" fill="#9E1D22"/>
<path d="M66.91 159.5L65.91 160.09C65.85 160.09 65.8 160.09 65.8 160.03C65.802 159.99 65.8129 159.952 65.8319 159.917C65.851 159.883 65.8777 159.853 65.91 159.83L66.91 159.25C66.98 159.25 67.03 159.25 67.03 159.31C67.0271 159.349 67.0146 159.387 66.9937 159.42C66.9727 159.453 66.944 159.481 66.91 159.5V159.5Z" fill="#9E1D22"/>
<path d="M67.4901 155.23V156.81C67.4767 157.041 67.4091 157.265 67.2927 157.465C67.1763 157.665 67.0144 157.835 66.8201 157.96L66.0001 158.43C65.6301 158.65 65.3401 158.43 65.3401 158.05V156.47L65.7401 156.24V157.93C65.7401 158 65.7901 158.03 65.8501 157.99C65.8822 157.969 65.909 157.941 65.9281 157.908C65.9472 157.875 65.9582 157.838 65.9601 157.8V156.11L67.4901 155.23Z" fill="#9E1D22"/>
<path d="M55 102.68L24.25 120.45L55.73 138.45L86.51 120.82L55 102.68Z" fill="#F9C98A"/>
<path d="M87.36 121.2V121.45L55.73 139.7V139.45L87.36 121.2Z" fill="#BC7C46"/>
<path d="M72.1501 129.65L71.9401 129.78L39.6001 111.1L39.8201 110.97L72.1501 129.65Z" fill="#BC7C46"/>
<path d="M72.1101 129.68V130.2H71.8901V129.8L72.1101 129.68Z" fill="#BC7C46"/>
<path d="M74.2301 128.42L74.2201 160.7L69.8401 163.21L69.8501 130.95L74.2301 128.42Z" fill="#9E1D22"/>
<path d="M74.2401 128.45L72.1501 129.65L71.9401 129.78L69.8601 130.98L37.6201 112.25L39.6001 111.1L39.8201 110.97L41.9801 109.72L74.2401 128.45Z" fill="#9E1D22"/>
<path d="M41.91 131.12L41.9 163.38L41.84 163.35L37.51 160.88L37.52 128.59L41.91 131.12Z" fill="#9E1D22"/>
<path d="M73.46 112.83L41.9 131.15L39.83 129.94L39.6 129.81L37.75 128.74L37.52 128.61L64.05 113.23L66.04 112.07L69.09 110.31L70.79 111.28L71.9 111.93L73.46 112.83Z" fill="#9E1D22"/>
<path d="M85.65 133.42L76.51 138.7V130.84L85.66 125.57L85.65 133.42Z" fill="#D5EEFA"/>
<path d="M84.7801 127.92L77.3801 132.2V131.32L84.7801 127.05V127.92Z" fill="#4F2E16"/>
<path d="M84.7801 129.5L77.3801 133.78V133.39L84.7801 129.12V129.5Z" fill="#B2AEAB"/>
<path d="M84.7801 130.54L77.3801 134.81V134.42L84.7801 130.15V130.54Z" fill="#B2AEAB"/>
<path d="M84.7801 131.65L77.3801 135.92V135.53L84.7801 131.26V131.65Z" fill="#B2AEAB"/>
<path d="M84.7801 132.68L77.3801 136.95V136.56L84.7801 132.29V132.68Z" fill="#B2AEAB"/>
<path d="M71.9001 111.93L64.0501 113.23L55.43 114.66L55.3 113.85L66.0401 112.07L70.7901 111.28L71.9001 111.93Z" fill="#4F2E16"/>
<path d="M55.2043 112.973L53.438 113.993L54.8038 116.357L56.5702 115.336L55.2043 112.973Z" fill="#939899"/>
<path d="M54.59 112.22C54.5619 112.372 54.5451 112.526 54.54 112.68C54.5475 112.999 54.5979 113.315 54.69 113.62C54.8042 113.609 54.9183 113.641 55.01 113.71C55.232 113.855 55.4171 114.05 55.5507 114.279C55.6843 114.508 55.7628 114.765 55.78 115.03C55.7844 115.148 55.7568 115.266 55.7 115.37C55.9118 115.606 56.1579 115.808 56.43 115.97C56.5666 116.045 56.7107 116.105 56.86 116.15C56.9801 116.205 57.1099 116.236 57.2419 116.241C57.374 116.245 57.5056 116.224 57.6293 116.177C57.753 116.131 57.8662 116.06 57.9624 115.97C58.0587 115.879 58.136 115.771 58.19 115.65C58.297 115.401 58.3482 115.131 58.34 114.86C58.3041 114.2 58.1134 113.557 57.7834 112.984C57.4534 112.41 56.9932 111.923 56.44 111.56C56.2105 111.425 55.9549 111.34 55.69 111.31C55.4817 111.294 55.2733 111.34 55.09 111.44C54.9559 111.527 54.8418 111.641 54.7556 111.776C54.6694 111.91 54.6129 112.062 54.59 112.22V112.22Z" fill="#939899"/>
<path d="M53.6802 112.27L55.1002 111.45C55.2834 111.35 55.4918 111.304 55.7002 111.32L58.2002 115.66C58.1077 115.845 57.9658 116.001 57.7902 116.11L56.3702 116.93L55.5602 115.54C55.627 115.505 55.6799 115.449 55.7102 115.38C55.7669 115.276 55.7945 115.159 55.7902 115.04C55.773 114.775 55.6945 114.518 55.5608 114.289C55.4272 114.06 55.2421 113.865 55.0202 113.72C54.9285 113.651 54.8143 113.619 54.7002 113.63C54.6311 113.614 54.5592 113.614 54.4902 113.63L53.6802 112.27Z" fill="#939899"/>
<path d="M55 112.4C54.8694 112.313 54.7235 112.252 54.57 112.22C54.4273 112.154 54.2721 112.12 54.115 112.12C53.9579 112.12 53.8027 112.154 53.66 112.22C53.4637 112.357 53.308 112.545 53.2094 112.763C53.1109 112.981 53.0731 113.222 53.1 113.46C53.1216 114.094 53.3003 114.712 53.62 115.26C53.7533 115.505 53.9108 115.736 54.09 115.95C54.3454 116.267 54.6532 116.537 55 116.75C55.1916 116.889 55.4168 116.974 55.6523 116.997C55.8879 117.02 56.1253 116.98 56.34 116.88C56.4749 116.795 56.5901 116.683 56.6781 116.55C56.766 116.417 56.8246 116.267 56.85 116.11C56.8924 115.961 56.9093 115.805 56.9 115.65C56.8588 114.998 56.6655 114.364 56.3356 113.8C56.0056 113.235 55.5483 112.756 55 112.4V112.4ZM55.77 115.04C55.7743 115.158 55.7467 115.276 55.69 115.38C55.6533 115.442 55.6017 115.493 55.54 115.53C55.4579 115.577 55.3648 115.602 55.27 115.602C55.1752 115.602 55.0821 115.577 55 115.53C54.9305 115.492 54.8665 115.445 54.81 115.39C54.6006 115.201 54.4394 114.964 54.34 114.7C54.2713 114.542 54.2339 114.372 54.23 114.2C54.2264 114.106 54.2455 114.012 54.2855 113.927C54.3255 113.842 54.3853 113.767 54.46 113.71C54.5284 113.689 54.6016 113.689 54.67 113.71V113.71C54.7842 113.699 54.8983 113.731 54.99 113.8C55.058 113.84 55.1216 113.887 55.18 113.94L55.27 113.86L55.83 114.46L55.65 114.62C55.7158 114.739 55.763 114.867 55.79 115L55.77 115.04Z" fill="#D1D1D1"/>
<path d="M39.4101 129.7L39.4001 162.23L38.5801 161.74L38.5901 129.22L39.4101 129.7Z" fill="#4F2E16"/>
<path d="M55.8602 114.38L55.6802 114.54C55.5808 114.279 55.4195 114.045 55.2102 113.86L55.3002 113.78L55.8602 114.38Z" fill="#D1D1D1"/>
<path d="M55.6801 114.54L54.8301 115.34L54.1101 116L39.4101 129.7L38.5901 129.22L53.5901 115.31L54.3101 114.65L55.1601 113.86C55.3876 114.04 55.5665 114.273 55.6801 114.54V114.54Z" fill="#4F2E16"/>
<path d="M55.57 114.31C55.6275 114.403 55.6713 114.504 55.7 114.61V114.61L55.49 114.42L55.57 114.31Z" fill="#4F2E16"/>
<path d="M106.83 55.1L57.3101 112.32C57.4377 112.465 57.5546 112.618 57.6601 112.78L106.83 56V55.1Z" fill="#4F2E16"/>
<path d="M55.3 114.79L5.27002 54.6899L5.71002 54.3199L55.68 114.54L55.3 114.79Z" fill="#4F2E16"/>
<path d="M55.21 114.68L37.05 71.93L37.5801 71.7L55.68 114.54L55.21 114.68Z" fill="#4F2E16"/>
<path d="M55.5702 114.31C55.6277 114.403 55.6715 114.504 55.7002 114.61V114.61L55.4402 114.49L55.5502 114.26L55.5702 114.31Z" fill="#4F2E16"/>
<path d="M76.7902 70.89L57.1702 112.16C57.0327 112.013 56.8821 111.879 56.7202 111.76L76.2702 70.65L76.7902 70.89Z" fill="#4F2E16"/>
<path d="M95.0002 12.6999C73.8802 -1.81006 39.6302 -1.82006 18.5002 12.6699C-2.62982 27.1599 -2.63982 50.6699 18.5002 65.1699C39.6402 79.6699 73.8802 79.6799 95.0102 65.1699C116.14 50.6599 116.13 27.1999 95.0002 12.6999Z" fill="#A20F0F"/>
<path d="M113.05 34.14C111.56 25.83 106.17 17.79 96.8802 11.41C92.6442 8.53889 88.0609 6.217 83.2402 4.5C77.3523 2.38913 71.2257 1.01535 65.0002 0.41C62.2535 0.136667 59.4969 0 56.7302 0H55.7902C53.4702 0 51.1402 0.14 48.7902 0.37C46.4402 0.6 44.4602 0.87 42.3302 1.26H42.1802C39.8402 1.68 37.5402 2.20333 35.2802 2.83C28.6325 4.62911 22.3253 7.50739 16.6102 11.35C14.7353 12.6322 12.9511 14.0422 11.2702 15.57C23.2702 8.75 38.4202 5.84 53.0902 6.85C53.3614 6.74689 53.6386 6.66007 53.9202 6.59C53.9734 6.58437 54.027 6.58437 54.0802 6.59C54.3819 6.50702 54.6894 6.44685 55.0002 6.41C55.2702 6.41 55.5402 6.33 55.8202 6.31H56.2702C56.6002 6.31 56.9202 6.31 57.2702 6.31H57.8502L58.4002 6.38C58.5582 6.39775 58.7152 6.42446 58.8702 6.46C58.9061 6.44972 58.9442 6.44972 58.9802 6.46L59.4002 6.55H59.5302C60.2294 6.72678 60.902 6.99581 61.5302 7.35C61.8609 7.53446 62.1695 7.75588 62.4502 8.01C62.733 8.21998 62.9694 8.48605 63.1446 8.79157C63.3198 9.09709 63.4302 9.43549 63.4686 9.78559C63.5071 10.1357 63.4729 10.49 63.3683 10.8263C63.2636 11.1625 63.0906 11.4736 62.8602 11.74C62.4851 12.1861 62.0308 12.559 61.5202 12.84C60.2864 13.5025 58.9192 13.8785 57.5202 13.94C56.9709 13.98 56.4195 13.98 55.8702 13.94C54.9875 13.8829 54.1165 13.708 53.2802 13.42C52.8298 13.2674 52.3946 13.0733 51.9802 12.84C51.7463 12.7063 51.5224 12.5559 51.3102 12.39C45.934 12.9546 40.6378 14.1185 35.5202 15.86C30.5772 17.6698 25.8885 20.11 21.5702 23.12C8.72019 32 3.32019 44 5.40019 55.51C8.43264 59.8154 12.2369 63.5213 16.6202 66.44C17.6802 67.18 18.7802 67.87 19.9102 68.53C25.9078 72.0106 32.4132 74.5311 39.1902 76C57.1902 80 77.5902 77.69 92.8802 69C94.2502 68.22 95.5802 67.4 96.8802 66.52C109.73 57.65 115.13 45.63 113.05 34.14Z" fill="#D5EEFA"/>
<path d="M16.62 11.3901C14.7451 12.6723 12.9609 14.0823 11.28 15.6101C13 14.6601 14.71 13.7901 16.5 13.0001C17.3725 11.8406 18.3107 10.7322 19.31 9.68005C18.4 10.2201 17.5 10.7901 16.62 11.3901Z" fill="#D5EEFA"/>
<path d="M15.37 41.45C17.37 42.13 20.13 44.17 22.85 42.81C24.85 41.46 26.93 40.81 27.61 38.06C29 42.14 30.33 50.3 36.45 48.94C37.81 48.94 39.85 46.22 40.53 44.18C42.53 52.34 52.7701 55.06 60.93 53.71C65.0001 52.35 70.46 51 71.82 46.91C73.18 43.51 75.9 40.79 75.9 37.39C75.9 38.75 76.58 40.79 77.9 40.11C79.26 40.11 77.9 37.39 78.58 36.03C85.38 40.11 97.58 42.84 101.02 34.03C102.39 29.95 103.02 24.51 99.67 20.42C98.31 19.06 97.67 17.02 96.27 15.66C97.63 16.34 98.27 14.3 98.27 13.66C98.5297 13.4587 98.7737 13.2381 99 13C98.32 12.47 97.62 11.95 96.88 11.45C92.6461 8.56494 88.0627 6.22957 83.24 4.5C77.3521 2.38913 71.2255 1.01535 65 0.41C62.2534 0.136667 59.4967 0 56.73 0H55.7901C53.4701 0 51.1401 0.14 48.7901 0.37C46.4401 0.6 44.46 0.87 42.33 1.26H42.18C39.84 1.68 37.54 2.20333 35.28 2.83C29.6644 4.36469 24.2823 6.6521 19.28 9.63C18.2895 10.6991 17.3613 11.8243 16.5 13C28.0295 8.0446 40.5866 5.95175 53.1 6.9C53.3713 6.79689 53.6485 6.71007 53.93 6.64C53.9832 6.63437 54.0369 6.63437 54.09 6.64C54.3872 6.5406 54.6914 6.46371 55 6.41C55.27 6.41 55.54 6.33 55.82 6.31H56.2701C56.6001 6.31 56.9201 6.31 57.2701 6.31H57.85L58.4001 6.38C58.5581 6.39775 58.715 6.42446 58.87 6.46C58.906 6.44972 58.9441 6.44972 58.98 6.46L59.4001 6.55H59.53C60.2292 6.72678 60.9018 6.99581 61.53 7.35C61.8607 7.53446 62.1694 7.75588 62.4501 8.01C62.7328 8.21998 62.9692 8.48605 63.1445 8.79157C63.3197 9.09709 63.43 9.43549 63.4685 9.78559C63.507 10.1357 63.4728 10.49 63.3681 10.8263C63.2634 11.1625 63.0905 11.4736 62.8601 11.74C62.485 12.1861 62.0307 12.559 61.5201 12.84C60.2863 13.5025 58.9191 13.8785 57.5201 13.94C56.9708 13.98 56.4193 13.98 55.87 13.94C54.9874 13.8829 54.1163 13.708 53.28 13.42C52.8297 13.2674 52.3944 13.0733 51.98 12.84C51.7462 12.7063 51.5222 12.5559 51.3101 12.39C45.9339 12.9546 40.6376 14.1185 35.52 15.86C30.5771 17.6698 25.8884 20.11 21.57 23.12C19.5114 24.5265 17.5656 26.0912 15.75 27.8H16.04C12 30.57 9.25005 38.05 15.37 41.45Z" fill="#EAF5F9"/>
<path d="M51.3301 12.44C47.4817 12.9622 43.673 13.744 39.9301 14.78C33.3785 16.4977 27.1736 19.3362 21.5901 23.17C8.7201 32 3.3201 44 5.4001 55.51C-3.4099 42.69 -1.4399 27.26 11.2801 15.61C23.2801 8.79002 38.4301 5.88002 53.1001 6.89002C52.7227 7.03572 52.3552 7.20609 52.0001 7.40002C49.6301 8.78002 49.4001 10.92 51.3301 12.44Z" fill="#9E1D22"/>
<path d="M62.1201 12.45C65.9685 12.9721 69.7772 13.7539 73.5201 14.79C80.073 16.5088 86.2783 19.3509 91.8601 23.19C104.71 32 110.11 44 108 55.54C116.81 42.73 114.85 27.29 102.13 15.64C90.1601 8.80996 75.0001 5.88996 60.3501 6.88996C60.7304 7.03288 61.0983 7.2068 61.4501 7.40996C63.8201 8.77996 64.0501 10.92 62.1201 12.45Z" fill="#9E1D22"/>
<path d="M39.19 76C32.4159 74.5467 25.9106 72.0431 19.91 68.58C18.958 61.5275 19.6004 54.3512 21.79 47.58C26.45 32.33 41.33 17.81 53.3 13.47C54.1363 13.758 55.0074 13.9329 55.89 13.99C47.51 21.82 35.86 67.93 39.19 76Z" fill="#9E1D22"/>
<path d="M74.18 76C80.9545 74.5474 87.4621 72.0509 93.47 68.6C94.4198 61.5481 93.7809 54.3731 91.6 47.6C87 32.35 72.07 17.82 60.11 13.47C59.2703 13.7579 58.3959 13.9328 57.51 13.99C65.9 21.83 77.52 67.94 74.18 76Z" fill="#9E1D22"/>
<path d="M83.2401 4.50004C74.3101 3.16004 64.3701 4.27004 59.6101 6.63004H59.5301H59.4001C59.2701 6.63004 59.1301 6.57004 58.9801 6.54004C58.9442 6.52976 58.906 6.52976 58.8701 6.54004L58.5701 6.48004H58.4001C58.219 6.44137 58.0351 6.41795 57.8501 6.41004C57.6836 6.40013 57.5166 6.40013 57.3501 6.41004C57.3501 5.41004 60.9401 2.41004 65.0501 0.540039C71.2531 1.10743 77.3626 2.43747 83.2401 4.50004V4.50004Z" fill="#CC0E0E"/>
<path d="M55.7901 6.31C55.5101 6.31 55.2401 6.37 54.9701 6.41C54.6725 6.45207 54.3784 6.51557 54.0901 6.6C50.1501 4.76 42.3501 2.18 35.3101 2.87C37.5701 2.24334 39.8701 1.72 42.2101 1.3H42.3601C44.4901 0.880005 46.6501 0.590005 48.8201 0.380005C51.2401 1.77 55.0801 4.37 55.7901 6.31Z" fill="#CC0E0E"/>
<path d="M52.0002 7.40002C52.3553 7.20609 52.7227 7.03573 53.1002 6.89002C38.4302 5.89002 23.2902 8.79002 11.2802 15.61C10.4202 16.41 9.61019 17.22 8.84019 18.04C7.10019 22.17 7.59019 26.31 12.6502 28.53C13.2364 28.8145 13.8643 29.0036 14.5102 29.09C16.6694 26.8883 19.0409 24.9053 21.5902 23.17C27.1737 19.3362 33.3786 16.4977 39.9302 14.78C43.6731 13.744 47.4818 12.9622 51.3302 12.44C49.4002 10.92 49.6302 8.78002 52.0002 7.40002Z" fill="#E51717"/>
<path d="M107.87 23.8C107.385 22.4256 106.8 21.0887 106.12 19.8C104.888 18.3198 103.551 16.9296 102.12 15.64C90.1601 8.80996 75.0001 5.88996 60.3501 6.88996C60.7304 7.03288 61.0983 7.2068 61.4501 7.40996C63.8201 8.77996 64.0501 10.92 62.1201 12.41C65.9685 12.9321 69.7772 13.7139 73.5201 14.75C80.073 16.4688 86.2783 19.3109 91.8601 23.15C95.9647 25.9066 99.5696 29.3425 102.52 33.31C107.49 33.07 109.11 28.15 107.87 23.8Z" fill="#E51717"/>
<path d="M55.89 14C55.0074 13.9429 54.1363 13.768 53.3 13.48C42.7 17.31 29.82 29.14 23.78 42.36C23.14 43.75 24.62 46.93 25.34 48.06C26.5179 49.9957 28.3934 51.4059 30.58 52C31.7571 52.2088 32.9638 52.1829 34.1308 51.9238C35.2978 51.6646 36.402 51.1774 37.38 50.49C38.83 49.58 42.59 47.07 43.04 45.32C46.59 31.65 51.66 17.94 55.89 14Z" fill="#E51717"/>
<path d="M60.11 13.47C59.2703 13.7579 58.3959 13.9328 57.51 13.99C62.1 18.28 67.65 34 71.2 48.7C74.14 51.56 77.75 53.77 82.02 52.35C87.51 50.35 88.7 45.71 88.73 40.53C82.38 28.07 70.21 17.14 60.11 13.47Z" fill="#E51717"/>
<path d="M65 0.410034C60.89 2.26003 57.32 5.24003 57.3 6.28003C57.4666 6.27013 57.6335 6.27013 57.8 6.28003C57.985 6.28795 58.169 6.31136 58.35 6.35003V6.35003H58.5201L58.82 6.41003C58.856 6.39975 58.8941 6.39975 58.93 6.41003C59.08 6.41003 59.22 6.41003 59.35 6.50003H59.48H59.5601C64.3201 4.14003 74.2601 3.03003 83.1901 4.37003C77.3125 2.30746 71.2031 0.97743 65 0.410034V0.410034Z" fill="#E51717"/>
<path d="M55.7901 6.31C55.5101 6.31 55.2401 6.37 54.9701 6.41C54.6725 6.45207 54.3784 6.51557 54.0901 6.6C50.1501 4.76 42.3501 2.18 35.3101 2.87C37.5701 2.24334 39.8701 1.72 42.2101 1.3H42.3601C44.4901 0.880005 46.6501 0.590005 48.8201 0.380005C51.2401 1.77 55.0801 4.37 55.7901 6.31Z" fill="#E51717"/>
</g>
<defs>
<clipPath id="clip0_18_544">
<rect width="113.49" height="171.31" fill="white"/>
</clipPath>
</defs>
</svg>
