<svg viewBox="0 0 153 99" xmlns="http://www.w3.org/2000/svg"><g fill-rule="nonzero" fill="none"><path d="M.98 33.666a5.948 5.948 0 1011.896 0 5.948 5.948 0 00-11.896 0M4.23 10.019c0 5.523 4.477 10 10 10 5.522 0 10-4.477 10-10 0-5.522-4.478-10-10-10-5.523 0-10 4.478-10 10" fill="#48CFD5"/><path d="M8.7 5.449a2.788 2.788 0 105.575 0 2.788 2.788 0 00-5.575 0" fill="#FFF"/><path d="M78.571 66.437c-6.781 0-12.281 5.519-12.281 12.326 0 6.805 5.5 12.324 12.281 12.324h10.388l-10.388-24.65zM66.737 41.687c-8.67 0-15.7-7.052-15.7-15.751 0-8.701 7.03-15.757 15.7-15.757h23.728L79.263 36.001l-12.526 5.686z" fill="#F7D872"/><path d="M47 28.102l4.115 37.763 34.388-7.774 24.097-2.967.16-10.04c-11.825-11.82-28.114-19.148-46.123-19.148A65.02 65.02 0 0047 28.102z" fill="#336B7F"/><path d="M51.04 27.178c-16.558 3.259-30.88 12.79-40.387 26.035H51.04V27.178z" fill="#336B7F"/><path d="M109.76 53.212H10.65C22.513 69.735 41.834 80.5 63.674 80.5c17.995 0 34.272-7.321 46.086-19.14v-8.148z" fill="#26566C"/><path d="M51.96 46.803c0 7.288-5.884 13.18-13.14 13.18-7.248 0-13.128-5.892-13.128-13.18 0-7.273 5.88-13.18 13.128-13.18 7.256 0 13.14 5.907 13.14 13.18" fill="#FFF"/><path d="M44.88 43.397c0 4.527-3.655 8.186-8.16 8.186-4.502 0-8.154-3.659-8.154-8.186 0-4.517 3.652-8.185 8.154-8.185 4.505 0 8.16 3.668 8.16 8.185" fill="#26566C"/><path d="M130.275 75.986c0 12.42 10.035 22.489 22.407 22.489v-44.98c-12.372 0-22.407 10.073-22.407 22.491M107.729 53.495c0 12.424 10.03 22.491 22.408 22.491V35.304c-12.378 0-22.408 5.776-22.408 18.191" fill="#F7D872"/><path fill="#F8AA61" d="M152.826 53.212h-22.689v22.773h22.689z"/><path d="M107.729 53.212c0-12.526 10.122-22.689 22.613-22.689 12.487 0 22.613 10.163 22.613 22.689h-45.226z" fill="#FF636F"/></g></svg>