<svg width="955" height="200" viewBox="0 0 955 200" fill="none" xmlns="http://www.w3.org/2000/svg">
<path d="M302.905 40.0294H326.316L350.073 129.857L373.161 40.0294H409.059V157.922H386.316V62.7211L362.215 157.922H337.585L313.484 62.7211V157.922H290.77V52.6636C290.77 45.9024 296.144 40.0294 302.905 40.0294Z" fill="white"/>
<path d="M444.76 90.1187H421.694C424.469 73.1237 436.435 64.7987 457.585 64.7987C482.905 64.7987 495.76 73.1237 496.259 90.1187V121.334C496.259 146.646 480.996 157.922 456.205 159.655C434.181 161.387 418.919 151.161 418.919 130.87C419.44 108.846 435.393 102.973 458.628 100.697C468.516 99.4788 473.545 96.5349 473.545 91.5062C473.002 86.2792 468.164 83.7024 458.628 83.7024C450.479 83.7024 445.971 85.78 444.76 90.1187ZM473.89 120.291V111.797C467.964 114.229 461.818 116.085 455.537 117.34C446.346 119.08 441.662 123.411 441.662 130.173C442.183 137.462 446.001 140.927 453.283 140.927C466.086 140.927 473.89 133.3 473.89 120.291V120.291Z" fill="white"/>
<path d="M507.359 110.579C508.049 80.9274 523.832 66.1862 554.526 66.1862H557.822V90.1187H550.011C537.186 90.1187 530.77 96.88 530.77 110.234V157.952H507.359V110.579Z" fill="white"/>
<path d="M591.636 51.2761V102.085L620.076 69.4824H647.819L616.083 103.472L648.164 157.922H620.421L604.124 127.75C601.187 122.547 598.238 119.946 595.278 119.946C594.202 120.079 593.22 120.622 592.536 121.462C591.852 122.302 591.519 123.374 591.607 124.454V157.922H568.57V40.0294H580.536C583.487 40.0886 586.298 41.2971 588.371 43.3976C590.444 45.4982 591.616 48.3249 591.636 51.2761Z" fill="white"/>
<path d="M687.366 160C659.623 159.134 645.749 143.005 645.749 111.797C645.749 80.5898 659.792 64.9749 687.711 64.8134C716.848 64.8134 730.547 82.6747 728.822 118.573H669.497C670.364 132.617 676.435 139.731 687.704 139.731C693.085 139.731 698.114 137.477 702.621 133.124C703.606 132.042 704.813 131.187 706.161 130.618C707.508 130.049 708.963 129.779 710.425 129.827H727.42C722.391 149.252 709.904 160 687.366 160ZM669.85 102.085H704.354C702.966 89.9425 697.247 83.7318 687.359 83.7318C677.47 83.7318 671.575 89.9498 669.843 102.085H669.85Z" fill="white"/>
<path d="M765.044 82.66H762.614V133.469C762.614 137.286 764.875 139.342 769.382 139.342H776.489V156.858C768.41 157.58 760.28 157.524 752.211 156.689C743.541 155.815 739.379 150.442 739.555 140.208V40.0294H751.521C757.585 40.0294 762.614 45.5793 762.614 51.6505V66.1862H776.489V71.215C776.52 72.7265 776.245 74.2286 775.681 75.6312C775.117 77.0338 774.275 78.3078 773.206 79.3768C772.137 80.4458 770.863 81.2877 769.46 81.8519C768.057 82.4161 766.555 82.691 765.044 82.66V82.66Z" fill="white"/>
<path d="M826.255 141.272C835.968 141.272 840.827 138.497 840.827 132.602C840.827 127.919 832.848 124.109 817.064 121.334C796.78 117.663 786.377 108.67 786.231 94.2812C786.231 74.5112 801.838 65.1438 822.819 64.7987C834.609 64.7987 843.974 67.4 850.914 72.6025C857.678 77.9861 861.319 85.4423 861.838 94.9712H847.273C841.892 94.8024 838.464 92.8937 837.039 89.2524C835.476 85.2588 830.799 83.005 823.164 83.005C814.149 83.005 809.642 85.435 809.642 90.1187C809.642 94.8024 815.515 98.4437 827.503 100.697C843.111 103.817 853.337 107.804 858.336 112.487C860.43 114.646 862.075 117.199 863.177 119.998C864.278 122.796 864.814 125.785 864.753 128.792C864.753 151.33 847.067 159.626 822.79 159.626C809.958 159.626 800.245 156.851 794.005 151.477C787.068 146.272 783.602 138.299 783.602 127.721H807.183C807.704 137.807 814.986 141.272 826.255 141.272Z" fill="white"/>
<path d="M877.585 73.6449V66.1862H952.671V85.78L903.933 137.976H954.044V157.922H874.759V139.716L923.835 85.435H889.331C887.775 85.4703 886.228 85.1892 884.784 84.6086C883.34 84.0281 882.029 83.1602 880.931 82.0576C879.832 80.9551 878.969 79.6409 878.394 78.1948C877.819 76.7486 877.544 75.2007 877.585 73.6449V73.6449Z" fill="white"/>
<path d="M377.118 43.979H409.037V40H373.139L351.519 124.211L354.052 133.814L377.118 43.979Z" fill="white"/>
<path d="M306.884 43.9789H327.366L326.316 40.0294H302.905C296.144 40.0294 290.77 45.9024 290.77 52.693V157.922H294.749V56.6132C294.749 49.8813 300.123 43.9789 306.884 43.9789Z" fill="white"/>
<path d="M386.316 82.4177V157.922H390.295V66.7001L386.316 82.4177Z" fill="white"/>
<path d="M317.463 78.4388L337.585 157.922H340.558L317.463 66.7001V78.4388Z" fill="white"/>
<path d="M461.571 68.7777C475.299 68.7777 485.328 71.2517 491.744 76.207C485.959 68.5795 474.609 64.7987 457.585 64.7987C436.435 64.7987 424.469 73.1237 421.694 90.1187H426.561C430.496 75.8179 442.168 68.7777 461.571 68.7777Z" fill="white"/>
<path d="M462.607 104.676C472.495 103.465 477.524 100.514 477.524 95.4851C477.252 92.7469 475.762 90.7427 473.046 89.4433C473.306 90.1046 473.474 90.7988 473.545 91.5062C473.545 96.5349 468.516 99.4788 458.628 100.697C435.393 102.951 419.44 108.846 418.919 130.87C418.919 140.656 422.472 148.093 428.624 152.982C424.953 148.349 422.898 142.278 422.898 134.849C423.419 112.825 439.371 106.93 462.607 104.676Z" fill="white"/>
<path d="M473.89 120.291C473.89 133.3 466.086 140.927 453.254 140.927C451.096 140.997 448.951 140.57 446.984 139.679C448.739 143.196 452.123 144.906 457.262 144.906C470.095 144.906 477.898 137.279 477.898 124.27V115.776C476.621 116.31 475.295 116.824 473.919 117.318L473.89 120.291Z" fill="white"/>
<path d="M557.822 70.1799V66.1862H554.526C523.832 66.1862 508.049 80.9274 507.359 110.579V157.922H511.338V114.558C512.028 85.134 527.584 70.4001 557.822 70.1799Z" fill="white"/>
<path d="M584.515 43.9789C586.454 43.9865 588.354 44.5193 590.014 45.5206C589.039 43.8677 587.655 42.494 585.995 41.5321C584.335 40.5702 582.455 40.0526 580.536 40.0294H568.57V157.922H572.549V43.9789H584.515Z" fill="white"/>
<path d="M624.055 73.4614H644.104L647.819 69.4825H620.076L595.615 97.5187V106.064L624.055 73.4614Z" fill="white"/>
<path d="M602.274 124.857C602.942 125.788 603.559 126.753 604.124 127.75L620.421 157.922H622.249L608.081 131.729C606.157 128.3 604.219 126.025 602.274 124.857Z" fill="white"/>
<path d="M691.683 68.7777C703.184 68.7777 712.275 71.5674 718.955 77.1467C712.104 68.9147 701.686 64.7987 687.704 64.7987C659.807 64.9749 645.741 80.5824 645.741 111.783C645.741 129.95 650.445 142.993 659.851 150.912C653.107 142.875 649.73 131.159 649.72 115.762C649.72 84.5614 663.764 68.9539 691.683 68.7777Z" fill="white"/>
<path d="M691.683 143.695C697.064 143.695 702.093 141.441 706.6 137.088C707.585 136.006 708.792 135.151 710.14 134.582C711.487 134.013 712.942 133.743 714.404 133.792H726.223C726.656 132.507 727.06 131.186 727.42 129.813H710.425C708.963 129.764 707.508 130.034 706.161 130.603C704.813 131.172 703.606 132.027 702.621 133.109C698.114 137.448 693.078 139.716 687.704 139.716C683.659 139.716 680.296 138.784 677.595 136.956C680.644 141.444 685.34 143.69 691.683 143.695Z" fill="white"/>
<path d="M704.354 102.085H674.6C674.291 103.333 674.027 104.654 673.822 106.064H708.325C707.444 98.3335 704.794 93.0038 700.441 90.148C702.467 93.1212 703.781 97.0929 704.354 102.085Z" fill="white"/>
<path d="M776.489 66.1862H766.6V70.1652H776.489V66.1862Z" fill="white"/>
<path d="M773.361 143.35H776.489V139.364H769.382C768.502 139.368 767.624 139.265 766.769 139.055C767.386 141.838 769.537 143.35 773.361 143.35Z" fill="white"/>
<path d="M743.534 43.9789H755.5C757.386 43.9888 759.232 44.517 760.837 45.5059C759.879 43.876 758.52 42.5175 756.89 41.5592C755.26 40.6009 753.412 40.0743 751.521 40.0294H739.555V140.23C739.43 147.461 741.478 152.248 745.744 154.751C744.195 152.123 743.461 148.621 743.541 144.216L743.534 43.9789Z" fill="white"/>
<path d="M836.826 88.8853C836.878 89.0101 836.959 89.1203 837.01 89.2524C837.384 90.2276 837.948 91.1189 838.669 91.875C839.39 92.631 840.253 93.2367 841.209 93.6572C841.136 93.503 841.055 93.3708 840.989 93.2093C840.183 91.3037 838.7 89.7636 836.826 88.8853V88.8853Z" fill="white"/>
<path d="M826.769 68.7777C838.564 68.7777 847.929 71.3789 854.864 76.5814C855.047 76.7282 855.202 76.8971 855.385 77.0439C854.05 75.4165 852.541 73.9395 850.885 72.6392C843.95 67.4318 834.585 64.8305 822.79 64.8354C801.809 65.1805 786.201 74.5479 786.201 94.3179C786.289 101.894 789.248 107.973 794.967 112.568C791.807 108.487 790.121 103.458 790.18 98.2968C790.18 78.4901 805.788 69.1301 826.769 68.7777Z" fill="white"/>
<path d="M831.453 104.676C845.188 107.422 854.754 110.843 860.282 114.815C859.685 113.997 859.035 113.22 858.336 112.487C853.308 107.804 843.081 103.817 827.503 100.697C821.542 99.5742 817.093 98.106 814.127 96.3367C815.735 99.9486 821.476 102.797 831.453 104.676Z" fill="white"/>
<path d="M807.851 131.729C807.471 130.434 807.246 129.098 807.183 127.75H783.602C783.602 138.028 786.869 145.817 793.403 151.022C789.52 146.096 787.581 139.643 787.581 131.729H807.851Z" fill="white"/>
<path d="M830.241 145.251C839.954 145.251 844.806 142.484 844.806 136.581C844.806 134.607 843.338 132.786 840.534 131.127C840.72 131.595 840.819 132.092 840.828 132.595C840.828 138.468 835.968 141.265 826.255 141.265C820.801 141.265 816.293 140.443 813.041 138.461C815.911 143.387 822.005 145.251 830.241 145.251Z" fill="white"/>
<path d="M881.564 70.1652H952.671V66.1862H877.585V73.6449C877.538 75.683 878.034 77.6969 879.02 79.4807C880.007 81.2646 881.45 82.7544 883.201 83.7979C882.115 81.9226 881.55 79.791 881.564 77.6239V70.1652Z" fill="white"/>
<path d="M954.059 141.963V137.984H911.641L907.926 141.963H954.059Z" fill="white"/>
<path d="M927.865 89.4139H920.289L874.81 139.716V157.922H878.796V143.695L927.865 89.4139Z" fill="white"/>
<path fill-rule="evenodd" clip-rule="evenodd" d="M134.444 148.615C132.393 148.613 130.387 149.219 128.681 150.358C126.975 151.496 125.645 153.115 124.859 155.01C124.073 156.904 123.867 158.989 124.267 161.001C124.667 163.013 125.654 164.861 127.105 166.311C128.555 167.761 130.403 168.749 132.414 169.148C134.426 169.548 136.511 169.342 138.406 168.556C140.3 167.771 141.919 166.441 143.058 164.734C144.196 163.028 144.803 161.023 144.801 158.972C144.801 156.225 143.71 153.59 141.767 151.648C139.825 149.706 137.191 148.615 134.444 148.615Z" fill="white"/>
<path fill-rule="evenodd" clip-rule="evenodd" d="M178.63 148.615C176.58 148.615 174.575 149.223 172.87 150.362C171.165 151.502 169.836 153.121 169.052 155.016C168.268 156.911 168.063 158.995 168.464 161.007C168.865 163.018 169.853 164.865 171.303 166.314C172.754 167.764 174.602 168.75 176.613 169.149C178.625 169.548 180.71 169.341 182.604 168.555C184.498 167.769 186.116 166.439 187.254 164.733C188.392 163.028 188.998 161.022 188.997 158.972C188.997 157.611 188.728 156.263 188.207 155.006C187.686 153.749 186.923 152.607 185.96 151.645C184.997 150.683 183.854 149.92 182.597 149.4C181.339 148.88 179.991 148.613 178.63 148.615V148.615Z" fill="white"/>
<path fill-rule="evenodd" clip-rule="evenodd" d="M151.763 200C178.12 199.749 203.311 189.102 221.86 170.376C240.408 151.649 250.814 126.358 250.814 100C250.814 73.6424 240.408 48.3505 221.86 29.6242C203.311 10.8979 178.12 0.251444 151.763 0C150.698 0 149.643 0 148.587 0.0546075C166.856 0.653612 184.552 6.58069 199.496 17.1065C214.44 27.6322 225.981 42.2974 232.698 59.2974C239.416 76.2973 241.017 94.8903 237.304 112.788C233.591 130.686 224.726 147.108 211.801 160.033C198.876 172.959 182.454 181.823 164.556 185.536C146.658 189.249 128.065 187.648 111.065 180.931C94.0653 174.213 79.4001 162.672 68.8743 147.728C58.3486 132.784 52.4215 115.088 51.8225 96.8191C51.8225 97.8749 51.7679 98.9306 51.7679 99.9955C51.7667 113.128 54.3523 126.132 59.377 138.265C64.4017 150.398 71.7671 161.422 81.0527 170.709C90.3382 179.995 101.362 187.362 113.495 192.387C125.627 197.413 138.631 200 151.763 200V200Z" fill="white"/>
<path fill-rule="evenodd" clip-rule="evenodd" d="M145.766 184C146.785 184 147.804 184 148.815 183.945C127.069 183.167 106.474 173.982 91.3656 158.323C76.2569 142.665 67.8137 121.755 67.8134 99.9953C67.8134 97.9021 67.8862 95.8179 68.041 93.761H55.8089V93.9794C55.8077 105.799 58.1348 117.503 62.6575 128.423C67.1801 139.343 73.8095 149.266 82.1673 157.623C90.525 165.981 100.447 172.61 111.367 177.133C122.287 181.656 133.992 183.983 145.811 183.982L145.766 184Z" fill="white"/>
<path fill-rule="evenodd" clip-rule="evenodd" d="M96.6189 36.6419C108.586 26.2162 123.263 19.3951 138.948 16.9689C154.634 14.5428 170.685 16.6109 185.243 22.9336C199.802 29.2563 212.27 39.5748 221.204 52.6934C230.138 65.812 235.172 81.1937 235.722 97.056C235.722 96.0366 235.777 95.0264 235.777 93.9979C235.779 76.2787 230.55 58.9533 220.745 44.1937C210.941 29.4341 196.998 17.8973 180.663 11.0297C164.329 4.16204 146.331 2.26921 128.926 5.58851C111.52 8.9078 95.4817 17.2915 82.8214 29.6885C82.8214 29.6885 92.1956 28.569 96.6189 36.6419Z" fill="white"/>
<path fill-rule="evenodd" clip-rule="evenodd" d="M125.097 124.897L187.895 117.279C190.17 117.005 192.319 116.09 194.092 114.639C195.865 113.189 197.188 111.263 197.907 109.088L215.336 56.7647C215.492 56.2977 215.534 55.8004 215.46 55.3137C215.386 54.827 215.197 54.3649 214.909 53.9657C214.62 53.5665 214.242 53.2415 213.803 53.0177C213.365 52.7938 212.879 52.6775 212.387 52.6783H100.551L94.653 42.5031C93.2143 40.0111 91.1446 37.942 88.6521 36.5041C86.1597 35.0662 83.3325 34.3101 80.4551 34.3119C61.8976 34.3119 43.3493 34.3665 24.7918 34.3119C19.4312 34.3119 14.025 34.6032 8.67349 33.9934C4.55062 33.5292 0 34.5304 0 39.7727C0 41.4165 0.652997 42.993 1.81534 44.1553C2.97768 45.3176 4.55415 45.9706 6.19795 45.9706H72.4095C75.4106 45.9723 78.3297 46.9497 80.7266 48.7556C83.1235 50.5615 84.8681 53.0978 85.6974 55.982C86.6232 59.2077 88.5727 62.0449 91.2519 64.0658C93.9311 66.0866 97.1947 67.1817 100.551 67.1856H170.294C175.936 71.9547 172.523 78.1709 167.736 78.1709H56.4915C50.8487 82.9399 54.2617 89.1925 59.0489 89.1925C96.4277 89.1925 119.618 89.0378 157.57 89.0469C163.222 93.8068 159.809 100.023 155.022 100.023H75.8407C70.1979 104.792 73.6109 111.008 78.3982 111.008H101.397L108.678 136.546C109.408 139.106 110.953 141.358 113.078 142.961C115.203 144.564 117.793 145.43 120.455 145.429H191.445C192.746 145.429 193.994 144.912 194.914 143.992C195.834 143.072 196.35 141.825 196.35 140.524C196.35 139.222 195.834 137.975 194.914 137.055C193.994 136.135 192.746 135.618 191.445 135.618H125.743C124.383 135.605 123.079 135.078 122.094 134.141C121.108 133.205 120.515 131.929 120.433 130.572C120.351 129.215 120.786 127.878 121.652 126.829C122.518 125.781 123.749 125.1 125.097 124.924V124.897Z" fill="white"/>
</svg>
