<svg xmlns="http://www.w3.org/2000/svg" viewBox="0 0 622 372.29"><defs><style>.cls-1,.cls-3{fill:#3a383e;}.cls-2{fill:#2e2d32;}.cls-3,.cls-4{fill-rule:evenodd;}.cls-4{fill:#9e1d22;}</style></defs><g id="Layer_2" data-name="Layer 2"><g id="Layer_1-2" data-name="Layer 1"><g id="Layer_2-2" data-name="Layer 2"><path class="cls-1" d="M11.38,259.76h22L55.61,344l21.63-84.23H110.9V370.34H89.6V281.06L67,370.34H43.91L21.3,281.06v89.28H0V271.63C0,265.29,5,259.76,11.38,259.76Z"/><path class="cls-1" d="M144.4,306.75H122.77C125.38,290.82,136.6,283,156.44,283c23.74,0,35.77,7.81,36.26,23.74V336c0,23.74-14.31,34.31-37.56,35.93-20.66,1.63-35-8-35-27,.49-20.65,15.45-26.18,37.24-28.3,9.27-1.13,14-3.9,14-8.61-.49-4.88-5-7.32-14-7.32C149.77,300.74,145.54,302.69,144.4,306.75Zm27.32,28.3v-8a93.08,93.08,0,0,1-17.23,5.2c-8.62,1.63-13,5.7-13,12,.48,6.83,4.06,10.08,10.89,10.08C164.4,354.4,171.72,347.25,171.72,335.05Z"/><path class="cls-1" d="M203.1,325.94q1-41.7,44.24-41.63h3.09v22.44h-7.32c-12,0-18.05,6.35-18.05,18.87v44.72h-22Z"/><path class="cls-1" d="M282.14,270.33V318L308.8,287.4h26l-29.76,31.88,30.09,51.06h-26L293.84,342q-4.14-7.32-8.29-7.32a3.94,3.94,0,0,0-3.41,4.23v31.39H260.51V259.76h11.22A10.63,10.63,0,0,1,282.14,270.33Z"/><path class="cls-1" d="M371.9,372.29c-26-.81-39-15.94-39-45.21s13.18-43.91,39.36-44.07c27.32,0,40.16,16.75,38.54,50.41H355.15c.81,13.18,6.51,19.84,17.08,19.84,5,0,9.75-2.11,14-6.18a9.49,9.49,0,0,1,7.32-3.09h15.94C404.75,362.21,393,372.29,371.9,372.29ZM355.48,318h32.36c-1.3-11.39-6.67-17.24-15.94-17.24S357.1,306.59,355.48,318Z"/><path class="cls-1" d="M444.75,299.76h-2.28v47.65c0,3.58,2.12,5.53,6.35,5.53h6.66v16.42a119,119,0,0,1-22.76-.16c-8.13-.81-12-5.85-11.87-15.45v-94h11.22c5.69,0,10.4,5.2,10.4,10.89v13.66h13V289A10.51,10.51,0,0,1,444.75,299.76Z"/><path class="cls-1" d="M502.15,354.73c9.11,0,13.66-2.61,13.66-8.13,0-4.4-7.48-8-22.28-10.57-19-3.42-28.78-11.88-28.94-25.37,0-18.54,14.64-27.32,34.31-27.65q16.59,0,26.35,7.32,9.51,7.56,10.24,21H521.83c-5-.17-8.29-1.95-9.59-5.37-1.47-3.74-5.86-5.85-13-5.85-8.46,0-12.69,2.27-12.69,6.66s5.53,7.81,16.75,9.92c14.64,2.93,24.23,6.67,28.95,11.06a21.38,21.38,0,0,1,6,15.29c0,21.14-16.58,28.94-39.35,28.94-12,0-21.14-2.6-27-7.64-6.51-4.88-9.76-12.36-9.76-22.28h22.12C484.75,351.47,491.58,354.73,502.15,354.73Z"/><path class="cls-1" d="M550.29,291.31v-7H620.7v18.38L575,351.64h47v18.7H547.68V353.26l46-50.9H561.35A10.76,10.76,0,0,1,550.29,291.31Z"/><polygon class="cls-2" points="80.98 263.49 110.9 263.49 110.9 259.76 77.24 259.76 56.97 338.73 59.35 347.73 80.98 263.49"/><path class="cls-2" d="M15.12,263.49h19.2l-1-3.73h-22C5,259.76,0,265.29,0,271.63v98.71H3.73v-95C3.73,269,8.77,263.49,15.12,263.49Z"/><polygon class="cls-2" points="89.6 299.54 89.6 370.34 93.33 370.34 93.33 284.79 89.6 299.54"/><polygon class="cls-2" points="25.04 295.81 43.91 370.34 46.69 370.34 25.04 284.79 25.04 295.81"/><path class="cls-2" d="M160.17,286.75c12.88,0,22.28,2.31,28.3,7-5.43-7.15-16.08-10.7-32-10.7-19.84,0-31.06,7.81-33.67,23.74h4.57C131,293.34,142,286.75,160.17,286.75Z"/><path class="cls-2" d="M161.14,320.41c9.27-1.14,14-3.91,14-8.62a6.77,6.77,0,0,0-4.2-5.67,7.07,7.07,0,0,1,.47,1.94c0,4.71-4.72,7.48-14,8.61-21.79,2.12-36.75,7.65-37.24,28.3,0,9.18,3.34,16.15,9.1,20.74-3.44-4.35-5.36-10-5.36-17C124.39,328.05,139.35,322.52,161.14,320.41Z"/><path class="cls-2" d="M171.72,335.05c0,12.2-7.32,19.35-19.35,19.35a13.22,13.22,0,0,1-5.88-1.17c1.65,3.3,4.83,4.9,9.61,4.9,12,0,19.35-7.15,19.35-19.35v-8c-1.19.51-2.44,1-3.73,1.45Z"/><path class="cls-2" d="M250.43,288.06v-3.75h-3.09q-43.18,0-44.24,41.63v44.4h3.74V329.68C207.48,302.08,222.07,288.26,250.43,288.06Z"/><path class="cls-2" d="M275.46,263.49a10,10,0,0,1,5.15,1.44,10.44,10.44,0,0,0-8.88-5.17H260.51V370.34h3.73V263.49Z"/><polygon class="cls-2" points="312.54 291.14 331.34 291.14 334.82 287.4 308.81 287.4 285.87 313.7 285.87 321.71 312.54 291.14"/><path class="cls-2" d="M292.11,339.33a28.35,28.35,0,0,1,1.73,2.71l15.29,28.3h1.72l-13.27-24.56C295.76,342.56,293.94,340.43,292.11,339.33Z"/><path class="cls-2" d="M376,286.75q16.17,0,25.57,7.84Q391.87,283,372.23,283c-26.18.16-39.36,14.8-39.36,44.07q0,25.56,13.24,36.7-9.5-11.31-9.5-33C336.61,301.54,349.78,286.91,376,286.75Z"/><path class="cls-2" d="M376,357c5,0,9.76-2.12,14-6.18a9.48,9.48,0,0,1,7.32-3.09h11.09c.4-1.21.78-2.45,1.12-3.74H393.53a9.49,9.49,0,0,0-7.32,3.09c-4.23,4.07-8.94,6.18-14,6.18a16.59,16.59,0,0,1-9.49-2.58C365.6,354.88,370,357,376,357Z"/><path class="cls-2" d="M387.84,318h-27.9a37.93,37.93,0,0,0-.73,3.73h32.36c-.83-7.25-3.31-12.25-7.4-14.93A24.79,24.79,0,0,1,387.84,318Z"/><rect class="cls-2" x="446.21" y="284.31" width="9.28" height="3.73"/><path class="cls-2" d="M452.55,356.67h2.93v-3.73h-6.66a10,10,0,0,1-2.45-.29C446.92,355.25,449,356.67,452.55,356.67Z"/><path class="cls-2" d="M424.58,263.49H435.8a9.67,9.67,0,0,1,5,1.43,10.44,10.44,0,0,0-8.74-5.16H420.85v94c-.12,6.77,1.8,11.27,5.8,13.62-1.45-2.47-2.14-5.75-2.07-9.89Z"/><path class="cls-2" d="M512.06,305.6c.05.12.13.22.18.34a7.37,7.37,0,0,0,3.93,4.15c-.06-.14-.14-.27-.2-.42A7.87,7.87,0,0,0,512.06,305.6Z"/><path class="cls-2" d="M502.63,286.75q16.59,0,26.35,7.31l.49.43a27.25,27.25,0,0,0-4.22-4.16Q515.49,283,498.9,283c-19.67.33-34.31,9.11-34.31,27.65a21.26,21.26,0,0,0,8.22,17.11,21.51,21.51,0,0,1-4.49-13.38C468.32,295.85,483,287.07,502.63,286.75Z"/><path class="cls-2" d="M507,320.41c12.88,2.57,21.85,5.78,27,9.5a23.1,23.1,0,0,0-1.82-2.18c-4.72-4.39-14.31-8.13-28.95-11.06-5.58-1.05-9.76-2.42-12.54-4.08C492.28,316,497.67,318.64,507,320.41Z"/><path class="cls-2" d="M484.89,345.78a16.14,16.14,0,0,1-.62-3.74H462.15c0,9.62,3.07,16.94,9.19,21.83-3.64-4.62-5.46-10.68-5.46-18.09Z"/><path class="cls-2" d="M505.89,358.46c9.1,0,13.66-2.6,13.66-8.13,0-1.86-1.35-3.56-4-5.12a3.9,3.9,0,0,1,.27,1.39c0,5.52-4.55,8.13-13.66,8.13-5.11,0-9.34-.78-12.41-2.63C492.45,356.71,498.16,358.46,505.89,358.46Z"/><path class="cls-2" d="M554,288.05H620.7v-3.74H550.29v7a10.79,10.79,0,0,0,5.26,9.52A11.41,11.41,0,0,1,554,295Z"/><polygon class="cls-2" points="622 355.37 622 351.64 582.22 351.64 578.74 355.37 622 355.37"/><polygon class="cls-2" points="597.44 306.1 590.33 306.1 547.68 353.26 547.68 370.34 551.42 370.34 551.42 357 597.44 306.1"/><path class="cls-3" d="M302.59,178.07A12.42,12.42,0,1,0,315,190.49a12.42,12.42,0,0,0-12.42-12.42Z"/><path class="cls-3" d="M355.54,178.07A12.42,12.42,0,1,0,368,190.49a12.42,12.42,0,0,0-12.42-12.42Z"/><path class="cls-4" d="M323.35,239.65A119.83,119.83,0,0,0,323.35,0c-1.28,0-2.55,0-3.81.07A112.33,112.33,0,1,1,203.59,116c0,1.27-.07,2.54-.07,3.81A119.83,119.83,0,0,0,323.35,239.65Z"/><path class="cls-3" d="M316.16,220.48c1.22,0,2.44,0,3.66-.07A100.65,100.65,0,0,1,222.7,119.82c0-2.51.09-5,.27-7.48l-14.65,0v.26A107.85,107.85,0,0,0,316.16,220.48Z"/><path class="cls-3" d="M257.27,43.9h0a100.64,100.64,0,0,1,166.66,72.39c0-1.21.07-2.43.07-3.66A107.83,107.83,0,0,0,240.73,35.57S252,34.24,257.27,43.9Z"/><path class="cls-4" d="M291.39,149.66l75.25-9.13a14.46,14.46,0,0,0,12-9.78L399.52,68a3.72,3.72,0,0,0-3.53-4.9H262l-7-12.19a19.64,19.64,0,0,0-17-9.81c-22.23,0-44.46.06-66.69,0-6.43,0-12.91.36-19.31-.37-5-.57-10.43.64-10.43,6.92a7.42,7.42,0,0,0,7.42,7.42h79.34a16.56,16.56,0,0,1,15.92,12A18.52,18.52,0,0,0,262,80.52h83.57c6.76,5.71,2.68,13.16-3.06,13.16H209.19c-6.76,5.71-2.67,13.16,3.07,13.16,44.78,0,72.57-.18,118.05-.18,6.76,5.71,2.68,13.16-3.06,13.16H232.41c-6.76,5.71-2.68,13.16,3.06,13.16H263l8.75,30.61a14.68,14.68,0,0,0,14.11,10.63h85a5.88,5.88,0,0,0,0-11.75H292.17a6.43,6.43,0,0,1-.78-12.81Z"/></g></g></g></svg>