<svg id="Layer_1" data-name="Layer 1" xmlns="http://www.w3.org/2000/svg" xmlns:xlink="http://www.w3.org/1999/xlink" viewBox="0 0 274.85 122.47"><defs><style>.cls-1{fill:none;}.cls-2{fill:#102769;}.cls-3{fill:#0a1239;}.cls-4{fill:#e8e9ea;}.cls-5{fill:#666;}.cls-6{fill:#d7d9dd;}.cls-7{fill:#fff;}.cls-8{fill:#003479;}.cls-9{fill:#b5b7ba;}.cls-10{fill:#afb1bc;}.cls-11{fill:#a2a5b2;}.cls-12{fill:#2d417b;}.cls-13{fill:#080e2e;}.cls-14{fill:#8b95a2;}.cls-15{fill:#0c1e54;}.cls-16{fill:#002861;}.cls-17{fill:#171a49;}.cls-18{fill:#001238;}.cls-19{fill:#0c1035;}.cls-20{fill:#1d215a;}.cls-21{fill:#3b4e84;}.cls-22{fill:#263a77;}.cls-23{fill:#386197;}.cls-24{fill:#0f4181;}.cls-25{fill:#091037;}.cls-26{fill:#90d4e8;}.cls-27{fill:#5dd4e8;}.cls-28{fill:#aedfee;}.cls-29{fill:#8bd4e8;}.cls-30{fill:#00b1d0;}.cls-31{fill:#c0c2cd;}.cls-32{fill:#000e2d;}.cls-33{fill:#2c3b6a;}.cls-34{fill:#1d2c5f;}.cls-35{fill:#11143b;}.cls-36{fill:#161948;}.cls-37{fill:#0d0f30;}.cls-38{fill:#000b24;}.cls-39{fill:#091744;}.cls-40{fill:#262a46;}.cls-41{fill:#020720;}.cls-42{fill:#2c2e34;}.cls-43{fill:#5b5d69;}.cls-44{fill:#25272c;}.cls-45{fill:#82848d;}.cls-46{fill:#a0a1a8;}.cls-47{fill:#454750;}.cls-48{fill:#3c3e46;}.cls-49{fill:#31333a;}.cls-50{fill:#52545f;}.cls-51{fill:#090c2a;}.cls-52{fill:#0c1014;}.cls-53{clip-path:url(#clip-path);}</style><clipPath id="clip-path" transform="translate(-7.23 -3.86)"><path class="cls-1" d="M217.62,109.54a5.69,5.69,0,0,1,.13.81l0,0a6.2,6.2,0,0,0-.12-.71.69.69,0,0,0,0-.13Z"/></clipPath></defs><path class="cls-2" d="M247.66,61.76s7.66,1.29,8.43,3.74,1.09,11-4.68,19.45-5,12.65-12.71,8.1,9-31.29,9-31.29Z" transform="translate(-7.23 -3.86)"/><path class="cls-3" d="M238.7,93.12c7.72,4.55,6.93.34,12.71-8.1a30.09,30.09,0,0,0,3.79-7.73,53.76,53.76,0,0,1-14.24-3c-3.54,7.63-6.38,16.4-2.26,18.83Z" transform="translate(-7.23 -3.86)"/><path class="cls-4" d="M216.25,35.28c3.73-3.47,26.9-23.66,31.39-27.52s15.15-7.54,14.18,6.65c-.5,7.36-2.82,19.32-5,29.7-2,9.71-4,18-3.79,19.51.38,3,2.23,11.35-1.37,15.25,0,0-5.88,4.32-6.76,7.58s-1.21,8.7-7.13,9.15a51.44,51.44,0,0,1-9.76-.75c-4.2-.55-8.76-1.11-13.09-.6-8.09.94-42.43,10.89-63.85,10.78s-51-1.87-77.92-9.26S30.84,80.51,20.3,74.29,6,60.91,8.21,54.65s17.5-9.58,23.53-12.94C38.36,38,48.07,32.83,56.43,26.15s16.8-9.71,31.63-10.29c16.58-.64,89.59,23,98.69,25.59,10.38,2.91,12.2,2.85,16.51,1.8,6.36-1.54,13-8,13-8Z" transform="translate(-7.23 -3.86)"/><path class="cls-5" d="M122.32,22.11C114.21,20,106,17.9,97.77,16.47a58.93,58.93,0,0,0-8.26-1,61.33,61.33,0,0,0-16.35,1.87A42.44,42.44,0,0,0,58.62,24c-2.84,2-5.5,4.24-8.36,6.21-3.06,2.11-6.22,4.05-9.43,5.92a100.4,100.4,0,0,1-14.75,7.62C21.3,45.59,16.26,47.19,11.94,50A10.45,10.45,0,0,0,8,54.07a10.54,10.54,0,0,0-.66,5.85c.78,5.44,5.36,9.66,9.59,12.68a100.31,100.31,0,0,0,12.32,7.09c4.6,2.37,9.31,4.51,14.1,6.48a240.76,240.76,0,0,0,42,12.94,297.59,297.59,0,0,0,44.81,5.67c12.22.7,24.44,1.09,36.6-.56,11.74-1.59,23.31-4.18,34.85-6.81,3.85-.88,7.7-1.82,11.59-2.51,6.11-1.1,12.27.06,18.34.79,2.78.33,5.93.79,8.62-.23a7,7,0,0,0,3.9-4.36c.78-2,.8-4.26,1.94-6.11a22.36,22.36,0,0,1,5.1-5.22c3.58-2.88,3.35-8.06,2.86-12.23a22.83,22.83,0,0,1-.5-5.07c.31-2.59.93-5.15,1.47-7.7,1.59-7.52,3.24-15,4.67-22.57,1.19-6.33,2.57-12.88,2.67-19.35.05-3.53-.89-7.91-4.87-8.81-3-.7-6.38.82-8.82,2.51a81.58,81.58,0,0,0-6.74,5.73q-5.34,4.65-10.68,9.31C226.08,26,220.92,30.41,216,35c-.36.34.19.89.55.55h0c5.75-5.35,11.77-10.43,17.68-15.6q5-4.39,10.09-8.78c2.17-1.89,4.26-3.95,6.87-5.24,2.88-1.44,7-2.2,9,.93,1.42,2.15,1.39,5.09,1.24,7.55-.2,3.14-.67,6.27-1.15,9.38-1.17,7.45-2.71,14.83-4.27,22.2-.77,3.62-1.57,7.24-2.31,10.87a47.19,47.19,0,0,0-1.08,6.23c-.13,1.84.52,3.87.69,5.7.26,2.79.28,5.83-1,8.4-.78,1.59-2.41,2.51-3.69,3.67-1.64,1.49-3.47,3.3-4.13,5.49s-.82,4.2-2,6.1c-1.61,2.72-4.71,2.91-7.55,2.78-6.85-.3-13.58-2.23-20.47-1.32-3.38.45-6.72,1.3-10,2-5.24,1.19-10.48,2.4-15.73,3.52C177,102,165,104.36,152.93,104.63c-6.32.14-12.68-.13-19-.43q-10.93-.49-21.83-1.67A255.62,255.62,0,0,1,65.7,93.22,215.13,215.13,0,0,1,30.92,79.66c-4-2-7.89-4.11-11.66-6.46-5-3.08-10.46-7.73-11.2-13.91a8.52,8.52,0,0,1,1.49-6.21,16.54,16.54,0,0,1,5.57-4c4.63-2.38,9.66-3.85,14.44-5.9a72.5,72.5,0,0,0,6.75-3.57c3-1.69,6-3.43,9-5.26,3.25-2,6.42-4.14,9.47-6.44A84.87,84.87,0,0,1,62,22.73,44.53,44.53,0,0,1,78,17.16a54.9,54.9,0,0,1,13.6-.77c7.27.66,14.48,2.46,21.54,4.19,18.41,4.5,36.59,10,54.71,15.52,5.72,1.75,11.43,3.55,17.17,5.26a74.13,74.13,0,0,0,11.66,2.8,19.54,19.54,0,0,0,11.61-2.57,37.85,37.85,0,0,0,8.19-6c.36-.35-.19-.89-.55-.55a31.7,31.7,0,0,1-12.1,7.69c-3.94,1.21-7.64.77-11.59-.17-5.77-1.38-11.42-3.24-17.08-5" transform="translate(-7.23 -3.86)"/><path class="cls-6" d="M116,37.16c-7.63,0-12.88,1.16-14.15,4C98,49.63,96.37,60,73.12,60.9S54.46,72.81,73.12,76a113.07,113.07,0,0,0,18.35,2c8.5,0,13.91-2.13,14.72-8,1-7.56,6.71-9.16,21.6-9.27A6.19,6.19,0,0,1,130.35,49l.43,0,.43,0a6.19,6.19,0,0,1,2.51,11.85l6,.09c1.73,0,3.7.07,5.85.13a6.18,6.18,0,0,1,4.7-10.21h.86a6.19,6.19,0,0,1,4.47,10.46c2.6.06,5.32.13,8.08.18a6.27,6.27,0,0,1-.31-2,6.19,6.19,0,0,1,6.18-6.19l.43,0,.43,0a6.19,6.19,0,0,1,6.19,6.19,6,6,0,0,1-.38,2.13l4.31,0h2.79a6.19,6.19,0,0,1,5.78-4l.43,0,.43,0a6.19,6.19,0,0,1,5.65,3.68c13.88-.67,20.45-2.64,5.24-7.51C176.46,46.07,137.07,37.16,116,37.16Z" transform="translate(-7.23 -3.86)"/><path class="cls-7" d="M42.54,35.63c-4.13,2.47-8.28,4.67-11.16,6.27-5.66,3.13-19,6.68-22.5,12.21a118.86,118.86,0,0,0,14.63,5.41c29.83,9.72,49.75-12.91,56.86-19.7C72.31,36.1,62,33.33,53,29.22,49.62,31.68,45.9,33.61,42.54,35.63Z" transform="translate(-7.23 -3.86)"/><path class="cls-7" d="M261.82,14.41c.78-14-9.57-10.54-14.06-6.68C245.66,9.54,239.43,15,233,20.55l27,6.8A119.89,119.89,0,0,0,261.82,14.41Z" transform="translate(-7.23 -3.86)"/><path class="cls-7" d="M259.56,30l-28.94-7.3c-3.81,3.33-7.49,6.56-10.23,9l37,9.33C258.15,37.34,258.89,33.58,259.56,30Z" transform="translate(-7.23 -3.86)"/><path class="cls-7" d="M255.89,48.34,213.52,37.66c-2.52,2-6.35,4.65-10.12,5.51-4.66,1-6.13,1.11-16.51-1.8-9.1-2.55-82.1-25.83-98.69-25.59-20.44.29-29.89,8.93-29.89,8.93,8.63,27.64,23.37-.17,74.76,8.59,50.58,8.62,110.24,27.58,115.2,29.18,1,.32,2.6.77,4.76,1.26a2.08,2.08,0,0,1,0-.23C252.91,62.24,254.27,56.14,255.89,48.34Z" transform="translate(-7.23 -3.86)"/><path class="cls-2" d="M228.5,90.07c-7.32-1.48-16.86-.75-31.5,0a574.17,574.17,0,0,1-61,0c-66.64-3.43-96.29-20.19-107.95-30a81.21,81.21,0,0,1-11.67-12c-3.92,1.83-7.2,4-8.12,6.6C6.11,61,9.84,68.13,20.38,74.35s26,14.09,52.85,21.48,56.5,9.15,77.91,9.26S206.9,95.26,215,94.31a53.93,53.93,0,0,1,13.09.61,53.15,53.15,0,0,0,9.76.75,6.27,6.27,0,0,0,5.7-4,75.87,75.87,0,0,1-15-1.57Z" transform="translate(-7.23 -3.86)"/><path class="cls-8" d="M27,43.87C19.93,46.62,10,49.74,8.3,54.68,6.11,60.94,9.84,68.1,20.38,74.32l.82.48a31.81,31.81,0,0,0,7.28-18.68A33.25,33.25,0,0,0,27,43.87Z" transform="translate(-7.23 -3.86)"/><path class="cls-2" d="M247.64,7.76c-4.48,3.86-27.66,24-31.39,27.52,0,0-6.63,6.42-13,8a19.16,19.16,0,0,1-9.69-.1c11.13,2.9,11.76,3.51,21.34,6.4,1.15.34,1.92.6,2.41.78-2-.93-7.09-4.12-2.41-9.14,8.34-8.93,24.7-22.74,32.75-29.83s14-6.81,14.11.9C261.63.62,251.88,4.12,247.64,7.76Z" transform="translate(-7.23 -3.86)"/><path class="cls-9" d="M228.55,54a89.14,89.14,0,0,1-10.76-3.64l24.13,6.29S234.5,55.46,228.55,54Z" transform="translate(-7.23 -3.86)"/><path class="cls-9" d="M251.09,61a12.46,12.46,0,0,0-3.56-2.7c.16.12,5.23,1.7,5.86,6.06A22.63,22.63,0,0,0,251.09,61Z" transform="translate(-7.23 -3.86)"/><path class="cls-10" d="M129.46,60.78h-1.67a6.1,6.1,0,0,0,2.56.55h.86a6.16,6.16,0,0,0,2.51-.52l-4.26,0Z" transform="translate(-7.23 -3.86)"/><path class="cls-11" d="M131.21,49l-.43,0-.43,0a6.19,6.19,0,0,0-2.56,11.82h1.67l4.26,0A6.19,6.19,0,0,0,131.21,49Z" transform="translate(-7.23 -3.86)"/><path class="cls-10" d="M145.54,61a6.18,6.18,0,0,0,4.7,2.16l.43,0,.43,0a6.18,6.18,0,0,0,4.47-1.91l-10-.25Z" transform="translate(-7.23 -3.86)"/><path class="cls-11" d="M151.1,50.82h-.86A6.18,6.18,0,0,0,145.54,61l10,.25a6.19,6.19,0,0,0-4.47-10.46Z" transform="translate(-7.23 -3.86)"/><path class="cls-10" d="M163.65,61.46a6.19,6.19,0,0,0,5.87,4.23h.86a6.18,6.18,0,0,0,5.81-4c-4.16,0-8.4-.09-12.54-.18Z" transform="translate(-7.23 -3.86)"/><path class="cls-11" d="M170.38,53.32l-.43,0-.43,0a6.19,6.19,0,0,0-6.18,6.19,6.27,6.27,0,0,0,.31,2c4.14.09,8.38.15,12.54.18a6,6,0,0,0,.38-2.13,6.19,6.19,0,0,0-6.19-6.19Z" transform="translate(-7.23 -3.86)"/><path class="cls-10" d="M195.58,61.36c-3.67.18-7.86.27-12.29.29a6.3,6.3,0,0,0-.41,2.22,6.18,6.18,0,0,0,6.19,6.18h.86a6.18,6.18,0,0,0,5.65-8.69Z" transform="translate(-7.23 -3.86)"/><path class="cls-11" d="M189.93,57.68l-.43,0-.43,0a6.19,6.19,0,0,0-5.78,4c4.43,0,8.62-.11,12.29-.29a6.19,6.19,0,0,0-5.65-3.68Z" transform="translate(-7.23 -3.86)"/><path class="cls-12" d="M203.26,43.25a19.16,19.16,0,0,1-9.69-.1c11.13,2.9,11.76,3.51,21.34,6.4,1.15.34,1.92.6,2.41.78-2-.93-7.09-4.12-2.41-9.14.75-.81,1.58-1.66,2.45-2.54l-3.89-1C211,39.67,207.06,42.33,203.26,43.25Z" transform="translate(-7.23 -3.86)"/><path class="cls-12" d="M220.34,31.61l3.45.86c3.2-3,6.66-6.07,10-9l-3.25-.82C226.77,25.94,223.09,29.17,220.34,31.61Z" transform="translate(-7.23 -3.86)"/><path class="cls-12" d="M247.64,7.76c-2.1,1.8-8.29,7.18-14.66,12.75l3.24.82c4.39-3.85,8.48-7.36,11.44-10,8.06-7.09,14-6.81,14.11.9C261.63.62,251.88,4.12,247.64,7.76Z" transform="translate(-7.23 -3.86)"/><path class="cls-13" d="M247.65,88.67a3.15,3.15,0,0,0-2.26,1.6,3.38,3.38,0,0,0-.37,1.45V92l-.2-.12c-.3-.16-.59-.33-.88-.5a7.91,7.91,0,0,1-2.27,3.23,5.54,5.54,0,0,0,1.83.38c2.2,0,3.19-2.11,5.22-5.66l-1.08-.65Z" transform="translate(-7.23 -3.86)"/><path class="cls-10" d="M112.26,71.63a131.72,131.72,0,0,0,2.28,15.07c-21.75-3-39-6.1-52.79-9.13C78.75,83.31,102.41,88.26,135,90c-2.39-1.93-4.37-3.61-6-5.05-3.2-1.94-6.1-3.76-8.52-5.37a36.34,36.34,0,0,1-6.55-5.12,8.38,8.38,0,0,1-1.67-2.84Zm97.18-4.56c-.73,3.19,1.28,12.46,3.88,19.24-5.25.24-10.8.41-16.68.5,1.18,1,2.35,2,3.51,3.07,6.95-.36,12.68-.67,17.55-.67a55,55,0,0,1,10.8.86A76.24,76.24,0,0,0,243,91.64c.1-.22.19-.44.27-.67-4.83-2.78-12-6.73-18.51-10.75h0l-.22-.14-.05,0h0c-3-1.87-5.86-3.75-8.26-5.53a30.23,30.23,0,0,1-5.54-5,5.09,5.09,0,0,1-1.23-2.47Z" transform="translate(-7.23 -3.86)"/><path class="cls-14" d="M238.85,95.53a9.47,9.47,0,0,1-1,.14c-.45,0-.92,0-1.4,0h.25a9.23,9.23,0,0,0,2.16-.19Zm-11.71-.74,2.77.37-1.83-.24-.94-.13Zm-7.45-.66c1.69.11,4.78.33,7.12.62-2.32-.29-4.72-.56-7.12-.62ZM243.26,91c-.08.23-.17.45-.27.67h.55a6.86,6.86,0,0,1-2.17,2.84l.31.12A7.91,7.91,0,0,0,244,91.37l-.17-.09-.52-.31ZM8.66,53.84a4.88,4.88,0,0,0-.36.81,10.38,10.38,0,0,0-.6,3.52,10.46,10.46,0,0,1,.6-3.49,5,5,0,0,1,.35-.79.18.18,0,0,0,0,0Z" transform="translate(-7.23 -3.86)"/><path class="cls-15" d="M217.7,89.21c-4.87,0-10.6.31-17.55.67l2.62,2.35h0l0,0c1.36,1.23,2.67,2.44,3.91,3.62,3.69-.83,6.57-1.43,8.28-1.63a32.93,32.93,0,0,1,3.45-.2l1.25.08c2.4.06,4.8.33,7.12.62l.28,0h0l.94.13,1.83.24c2,.24,4.14.49,6,.55h.57c.48,0,.95,0,1.4,0a9.47,9.47,0,0,0,1-.14h0a4.3,4.3,0,0,0,.57-.2,6,6,0,0,0,1.87-.88l.06,0a6.86,6.86,0,0,0,2.17-2.84H243a76.24,76.24,0,0,1-14.49-1.57,55,55,0,0,0-10.8-.86ZM25.9,67.15a29.18,29.18,0,0,1-4.69,7.62c10.53,6.15,25.84,13.8,52,21,17,4.67,35.1,7.1,51.53,8.27a21.63,21.63,0,0,1,.58-2.34,11.55,11.55,0,0,1,2.89-5.1,4.92,4.92,0,0,1,1.62-1c.12-.06.24-.13.36-.18,4.33-3.76,10.25-1,5.57-4.77L135,90c-32.58-1.75-56.24-6.7-73.24-12.44-16.57-3.65-28-7.22-35.85-10.42Z" transform="translate(-7.23 -3.86)"/><path class="cls-16" d="M8.65,53.89a5,5,0,0,0-.35.79,10.46,10.46,0,0,0-.6,3.49c0,5.33,4.07,11,12.68,16.11l.83.49a29.18,29.18,0,0,0,4.69-7.62C8.12,59.89,8.55,54.45,8.65,53.89Z" transform="translate(-7.23 -3.86)"/><path class="cls-17" d="M227.31,76C209.67,66,215.3,63.83,218,63.87c-4-.26-8.17.24-8.41,2.78-.28,3,6.8,8.22,15,13.32,0,0-.32-3.46,2.71-3.94Z" transform="translate(-7.23 -3.86)"/><path class="cls-18" d="M227.31,76l.06-.11a58.86,58.86,0,0,1-9.78-6.6,12.08,12.08,0,0,1-2-2.16,2.85,2.85,0,0,1-.54-1.49,1.2,1.2,0,0,1,.26-.78,2.22,2.22,0,0,1,1.12-.69,5.07,5.07,0,0,1,1.42-.2H218v-.26c-.61,0-1.23-.06-1.84-.06a13.63,13.63,0,0,0-4.51.62,4.05,4.05,0,0,0-1.52.91,2.32,2.32,0,0,0-.68,1.43v.19a4.65,4.65,0,0,0,1.24,2.71,30.23,30.23,0,0,0,5.54,5c2.41,1.79,5.29,3.69,8.32,5.56l.22.14,0-.26s0-.11,0-.28a4.67,4.67,0,0,1,.41-1.94,2.79,2.79,0,0,1,2.21-1.58l.36-.06-.32-.18-.06.11,0-.13a3.05,3.05,0,0,0-2.4,1.73,4.8,4.8,0,0,0-.43,2.05c0,.18,0,.3,0,.31l.13,0,.06-.1a101.37,101.37,0,0,1-10.53-7.3,22.59,22.59,0,0,1-3.26-3.19,4.51,4.51,0,0,1-1.19-2.55.91.91,0,0,1,0-.17,2.05,2.05,0,0,1,.6-1.27,4.91,4.91,0,0,1,2.38-1.13,16.2,16.2,0,0,1,3.47-.32c.6,0,1.22,0,1.82.06v-.26h-.08a4.73,4.73,0,0,0-2,.4,2.21,2.21,0,0,0-.78.59,1.56,1.56,0,0,0-.31.94,3.07,3.07,0,0,0,.59,1.63c1.23,1.89,4.56,4.69,11.82,8.84l.07-.11,0-.13,0,.13Z" transform="translate(-7.23 -3.86)"/><path class="cls-19" d="M281.48,98.39c-.07,1.15-1.21,1.88-4.12,1.86-9.29,0-19.29-5.32-29.72-11.71a3.25,3.25,0,0,0-2.75,3.22c10.67,6.06,24.48,12,34.36,10.72C282.06,102.1,282.45,100.52,281.48,98.39Z" transform="translate(-7.23 -3.86)"/><path class="cls-18" d="M281.48,98.39h-.13a1.42,1.42,0,0,1-.23.71,2.16,2.16,0,0,1-1.2.75,8.74,8.74,0,0,1-2.46.28h-.1c-9.24-.05-19.23-5.3-29.66-11.69l0,0h0a3.43,3.43,0,0,0-2.45,1.75,3.5,3.5,0,0,0-.4,1.56v.12l.06,0c9.66,5.49,21.89,10.92,31.5,10.92a23.45,23.45,0,0,0,2.94-.18,4.09,4.09,0,0,0,2.14-.82,2,2,0,0,0,.67-1.56,4.67,4.67,0,0,0-.48-1.89l-.25,0h.13l-.12,0a4.58,4.58,0,0,1,.47,1.79,1.71,1.71,0,0,1-.59,1.37,3.79,3.79,0,0,1-2,.75,21,21,0,0,1-2.9.19c-9.51,0-21.73-5.41-31.37-10.89l-.07.11H245v0a3.38,3.38,0,0,1,.37-1.45,3.18,3.18,0,0,1,2.27-1.61l0-.12-.07.11C258,95,268,100.32,277.36,100.38h.1a7.12,7.12,0,0,0,3.11-.52,2.09,2.09,0,0,0,.76-.62,1.68,1.68,0,0,0,.28-.84h-.13l-.12,0Z" transform="translate(-7.23 -3.86)"/><path class="cls-20" d="M247.64,88.54C241,84.49,234.27,80,227.39,76.08l-.08,0c-3,.48-2.72,3.92-2.71,3.94,6.79,4.21,14.37,8.37,19.25,11.19l1,.6a3.25,3.25,0,0,1,2.75-3.22Z" transform="translate(-7.23 -3.86)"/><path class="cls-18" d="M247.64,88.54l.06-.11c-6.59-4-13.37-8.54-20.25-12.46l-.08,0,0,0h0a3.05,3.05,0,0,0-2.4,1.73,4.8,4.8,0,0,0-.43,2.05c0,.19,0,.3,0,.31v.06l.06,0c6.79,4.22,14.37,8.37,19.25,11.2l1.05.59.2.12v-.27a3.38,3.38,0,0,1,.37-1.45,3.18,3.18,0,0,1,2.27-1.61l.32-.06-.28-.17-.06.11,0-.13a3.43,3.43,0,0,0-2.45,1.75,3.5,3.5,0,0,0-.4,1.56v0h.13l.07-.11-1.05-.6c-4.88-2.83-12.46-7-19.25-11.18l-.06.1h.12s0-.12,0-.28a4.67,4.67,0,0,1,.41-1.94,2.79,2.79,0,0,1,2.21-1.58l0-.13-.07.11.09,0c6.87,3.92,13.64,8.41,20.24,12.46l.07-.11,0-.13,0,.13Z" transform="translate(-7.23 -3.86)"/><path class="cls-21" d="M273,88.52c-10-1.85-25.35,0-25.36,0,10.41,6.38,20.38,11.62,29.65,11.67,2.91,0,4.05-.71,4.12-1.86-1.27-2.8-4.87-6.54-8.41-9.81Z" transform="translate(-7.23 -3.86)"/><path class="cls-21" d="M273,88.52l0-.12a62.77,62.77,0,0,0-11-.83,136.88,136.88,0,0,0-14.37.82l-.36,0,.31.19C258,95,268,100.26,277.31,100.32h.1a7.12,7.12,0,0,0,3.11-.52,2,2,0,0,0,.76-.63,1.62,1.62,0,0,0,.28-.84v-.06c-1.29-2.83-4.89-6.57-8.44-9.84l0,0h0l0,.12-.09.1c3.54,3.26,7.13,7,8.38,9.76l.12,0h-.13a1.42,1.42,0,0,1-.23.71,2.16,2.16,0,0,1-1.2.75,8.74,8.74,0,0,1-2.46.28h-.09c-9.23,0-19.19-5.27-29.59-11.65l-.07.11,0,.13A135.85,135.85,0,0,1,262,87.83a62.34,62.34,0,0,1,11,.82l0-.13-.09.1.09-.1Z" transform="translate(-7.23 -3.86)"/><path class="cls-2" d="M261.65,78.86h0c-3.49-3-7.83-6.8-10.45-7.69a66.48,66.48,0,0,0-8.64-2.11c-4.11-.87-15-3.25-19-4.37a29.94,29.94,0,0,0-5.65-.89c-2.68-.05-8.31,2.1,9.42,12.21,0,0,20.68-.37,34.31,2.84Z" transform="translate(-7.23 -3.86)"/><path class="cls-2" d="M261.65,78.86V79h0l.37,0-.28-.24c-1.75-1.52-3.71-3.22-5.56-4.65a19.63,19.63,0,0,0-4.94-3.06A64.09,64.09,0,0,0,242.63,69c-4.11-.87-15-3.26-19-4.37a30,30,0,0,0-5.67-.9h-.09a4.73,4.73,0,0,0-2,.4,2.21,2.21,0,0,0-.78.59,1.54,1.54,0,0,0-.31.94,3.07,3.07,0,0,0,.59,1.63c1.24,1.9,4.59,4.72,11.91,8.89l0,0h2c5.48,0,21.25.25,32.32,2.86h0v-.13l0-.12c-11.12-2.62-26.89-2.86-32.38-2.87-1.25,0-2,0-2,0V76l.06-.12a58.4,58.4,0,0,1-9.84-6.63,11.17,11.17,0,0,1-2-2.17,2.8,2.8,0,0,1-.55-1.49,1.18,1.18,0,0,1,.26-.78,2.15,2.15,0,0,1,1.12-.69,5.07,5.07,0,0,1,1.42-.2h.08v0a29.7,29.7,0,0,1,5.63.89c4,1.11,14.92,3.5,19,4.37a65.29,65.29,0,0,1,8.63,2.1,19.47,19.47,0,0,1,4.86,3c1.85,1.43,3.8,3.13,5.55,4.64l.08-.09v-.13h0v.12l0-.12,0,.12Z" transform="translate(-7.23 -3.86)"/><path class="cls-22" d="M273,88.52c-3.58-3.29-7.11-6.1-8.13-6.93s-2-1.68-3.2-2.72h0C248,75.65,227.34,76,227.34,76c6.9,3.93,13.7,8.45,20.32,12.5,0,0,15.39-1.85,25.36,0Z" transform="translate(-7.23 -3.86)"/><path class="cls-22" d="M273,88.52l.09-.09c-3.59-3.3-7.12-6.11-8.14-6.94s-2-1.68-3.19-2.72l0,0h-.08v.12l0-.12c-11.12-2.62-26.89-2.86-32.38-2.87-1.25,0-2,0-2,0h-.47l.41.23c6.89,3.93,13.69,8.44,20.31,12.5l0,0h.05A135.85,135.85,0,0,1,262,87.83a62.34,62.34,0,0,1,11,.82l.43.08-.32-.3-.09.09,0-.12a62.85,62.85,0,0,0-11-.83,136.31,136.31,0,0,0-14.36.82v.13l.07-.11c-6.62-4-13.42-8.57-20.33-12.51l-.06.12v.12h2c5.48,0,21.25.25,32.32,2.86h.07v-.12l-.08.09c1.2,1,2.3,2,3.19,2.73s4.56,3.63,8.13,6.93l.09-.1,0-.12,0,.12Z" transform="translate(-7.23 -3.86)"/><path class="cls-23" d="M28.18,49A32.37,32.37,0,0,0,27,43.87c-6.64,2.58-15.77,5.49-18.29,9.92C9.19,53.29,13.89,48.84,28.18,49Z" transform="translate(-7.23 -3.86)"/><path class="cls-24" d="M28.52,52.65A65.45,65.45,0,0,0,8.68,53.89v0c.27.27,5.1,5.09,19.18,7a34.53,34.53,0,0,0,.63-4.73A31.88,31.88,0,0,0,28.52,52.65Z" transform="translate(-7.23 -3.86)"/><circle class="cls-19" cx="121.68" cy="49.98" r="6.19"/><circle class="cls-2" cx="122.54" cy="49.98" r="6.19"/><circle class="cls-25" cx="122.54" cy="49.98" r="4.88"/><circle class="cls-26" cx="122.54" cy="49.98" r="4.36"/><circle class="cls-27" cx="122.4" cy="49.98" r="3.32"/><path class="cls-19" d="M155,55.69a6.19,6.19,0,1,1-6.18-6.18A6.19,6.19,0,0,1,155,55.69Z" transform="translate(-7.23 -3.86)"/><path class="cls-2" d="M155.84,55.69a6.19,6.19,0,1,1-6.18-6.18A6.19,6.19,0,0,1,155.84,55.69Z" transform="translate(-7.23 -3.86)"/><path class="cls-25" d="M154.53,55.69a4.88,4.88,0,1,1-4.87-4.87A4.87,4.87,0,0,1,154.53,55.69Z" transform="translate(-7.23 -3.86)"/><path class="cls-26" d="M154,55.69a4.36,4.36,0,1,1-4.36-4.36A4.36,4.36,0,0,1,154,55.69Z" transform="translate(-7.23 -3.86)"/><path class="cls-27" d="M153,55.69a3.32,3.32,0,1,1-3.31-3.31A3.32,3.32,0,0,1,153,55.69Z" transform="translate(-7.23 -3.86)"/><path class="cls-19" d="M174.27,58.2A6.19,6.19,0,1,1,168.08,52,6.18,6.18,0,0,1,174.27,58.2Z" transform="translate(-7.23 -3.86)"/><path class="cls-2" d="M175.13,58.2A6.19,6.19,0,1,1,168.94,52,6.18,6.18,0,0,1,175.13,58.2Z" transform="translate(-7.23 -3.86)"/><path class="cls-25" d="M173.82,58.2a4.88,4.88,0,1,1-4.88-4.88A4.87,4.87,0,0,1,173.82,58.2Z" transform="translate(-7.23 -3.86)"/><path class="cls-26" d="M173.31,58.2a4.37,4.37,0,1,1-4.37-4.36A4.37,4.37,0,0,1,173.31,58.2Z" transform="translate(-7.23 -3.86)"/><path class="cls-27" d="M172.31,58.33A3.37,3.37,0,1,1,168.94,55,3.37,3.37,0,0,1,172.31,58.33Z" transform="translate(-7.23 -3.86)"/><path class="cls-19" d="M193.81,62.56a6.19,6.19,0,1,1-6.18-6.19A6.18,6.18,0,0,1,193.81,62.56Z" transform="translate(-7.23 -3.86)"/><path class="cls-2" d="M194.67,62.56a6.19,6.19,0,1,1-6.18-6.19A6.18,6.18,0,0,1,194.67,62.56Z" transform="translate(-7.23 -3.86)"/><path class="cls-25" d="M193.36,62.56a4.88,4.88,0,1,1-4.87-4.88A4.87,4.87,0,0,1,193.36,62.56Z" transform="translate(-7.23 -3.86)"/><path class="cls-26" d="M192.85,62.56a4.36,4.36,0,1,1-4.36-4.36A4.36,4.36,0,0,1,192.85,62.56Z" transform="translate(-7.23 -3.86)"/><path class="cls-27" d="M191.87,62.56a3.39,3.39,0,1,1-3.38-3.39A3.38,3.38,0,0,1,191.87,62.56Z" transform="translate(-7.23 -3.86)"/><path class="cls-28" d="M145.31,55.24l4.8,4.8a4.27,4.27,0,0,0,1.92-.69l-6-6A4.44,4.44,0,0,0,145.31,55.24Z" transform="translate(-7.23 -3.86)"/><path class="cls-28" d="M154,55.71a2.28,2.28,0,0,0,0-.27l-4.07-4.08h-.27a4.31,4.31,0,0,0-1.87.42l5.8,5.8A4.27,4.27,0,0,0,154,55.71Z" transform="translate(-7.23 -3.86)"/><path class="cls-28" d="M164.6,57.75l4.8,4.8a4.44,4.44,0,0,0,1.92-.69l-6-6A4.22,4.22,0,0,0,164.6,57.75Z" transform="translate(-7.23 -3.86)"/><path class="cls-28" d="M173.29,58.21c0-.09,0-.18,0-.27l-4.08-4.07-.27,0a4.35,4.35,0,0,0-1.87.43l5.81,5.8A4.34,4.34,0,0,0,173.29,58.21Z" transform="translate(-7.23 -3.86)"/><path class="cls-28" d="M184.14,62.11l4.8,4.8a4.39,4.39,0,0,0,1.92-.69l-6-6A4.35,4.35,0,0,0,184.14,62.11Z" transform="translate(-7.23 -3.86)"/><path class="cls-28" d="M192.84,62.57a2.45,2.45,0,0,0,0-.27l-4.07-4.07-.27,0a4.32,4.32,0,0,0-1.87.43l5.8,5.8A4.35,4.35,0,0,0,192.84,62.57Z" transform="translate(-7.23 -3.86)"/><path class="cls-28" d="M125.44,53.38l4.8,4.79a4.3,4.3,0,0,0,1.92-.68l-6-6A4.22,4.22,0,0,0,125.44,53.38Z" transform="translate(-7.23 -3.86)"/><path class="cls-28" d="M134.13,53.84c0-.09,0-.18,0-.27L130,49.49h-.27a4.34,4.34,0,0,0-1.87.42l5.81,5.81A4.34,4.34,0,0,0,134.13,53.84Z" transform="translate(-7.23 -3.86)"/><path class="cls-7" d="M81.33,25.42c1.89.49,21,6.5,17.13,7.07s2.07,2.52-.76,7.88S89.32,58.73,77.91,57.16s-11.1-5.5-17.21-1.43-17.17-9-17.17-9S65.47,21.31,81.33,25.42Z" transform="translate(-7.23 -3.86)"/><path class="cls-2" d="M70.44,18.51S68.09,20,73.12,22.59c3.93,2,17.69,8.21,22.06,9.88s3.63,7,.7,11.43S89,56.21,81.41,57.29,39.24,45.13,42.54,35.63c0,0,6.4-3.86,10.5-6.91S60.88,21.55,70.44,18.51Z" transform="translate(-7.23 -3.86)"/><path class="cls-27" d="M46.82,42.93C52.41,47,59.2,50,65.64,52.39S79.82,57.85,86,53.51a27.22,27.22,0,0,0,6.51-6.69,50.4,50.4,0,0,0,2.76-4.57c3.17-5.65,1.2-8.48-1.71-9.68s-13.63-5.92-19.89-8.92-5.24-4.41-2.94-5.23a37.41,37.41,0,0,0-14.47,7.73C52,29.87,42.54,35.63,42.54,35.63,42.23,38.66,44.23,41,46.82,42.93Z" transform="translate(-7.23 -3.86)"/><path class="cls-29" d="M55.58,42.82c19.63,11.06,26.47,6,30.51.63C92.78,34.51,82,32.22,69,27.14c-3.74-1.47-5.74-3.28-6.69-5.13a50.87,50.87,0,0,0-5.11,3.66,116.3,116.3,0,0,1-10.67,7.47C47.13,36.08,49.48,39.39,55.58,42.82Z" transform="translate(-7.23 -3.86)"/><path class="cls-28" d="M63.47,21.47a45.12,45.12,0,0,0-6.86,4.66c-.84.68-1.71,1.34-2.59,2a45.37,45.37,0,0,0-1.7,18.31,80.36,80.36,0,0,0,7.87,3.81C57.62,40.1,60.21,29.52,63.47,21.47Z" transform="translate(-7.23 -3.86)"/><path class="cls-28" d="M82.69,27.85c-2.1-1-4.24-1.93-6.19-2.83-3.19,8.85-5.2,20.09-1,30.43a15.79,15.79,0,0,0,7-.25C78.9,46,80.12,36.12,82.69,27.85Z" transform="translate(-7.23 -3.86)"/><path class="cls-30" d="M78.72,56c-4.37,0-8.9-1.71-12.83-3.19l-.34-.13c-5.66-2.13-12.89-5.19-18.88-9.5s-4.13-7.5-4.13-7.5c-.26,2.51,1.37,4.84,4.43,7.09C52.88,47,60.1,50,65.73,52.15l.34.13c6.16,2.32,13.83,5.21,19.8,1a27,27,0,0,0,6.44-6.63,49.19,49.19,0,0,0,2.62-4.32l.13-.22c1.47-2.64,1.92-4.83,1.34-6.51a4.82,4.82,0,0,0-2.93-2.82c-3.06-1.25-13.81-6-19.9-8.92-3-1.46-4.64-2.68-4.83-3.71s1.66-1.65,1.66-1.65c-.19.21-1.34.54-1.16,1.55.11.59,1,1.64,4.55,3.35,6.09,2.92,16.82,7.65,19.88,8.91a5.35,5.35,0,0,1,3.21,3.12c.64,1.83.18,4.16-1.37,6.93l-.13.22A49.37,49.37,0,0,1,92.73,47a27.49,27.49,0,0,1-6.57,6.75A12.62,12.62,0,0,1,78.72,56Z" transform="translate(-7.23 -3.86)"/><path class="cls-31" d="M256,74v0l.19.15c1.84,1.42,3.79,3.11,5.52,4.62h0l0,0h0l.28.24h0c1.09.95,2.08,1.81,2.91,2.48,1,.83,4.54,3.62,8.11,6.91h0l0,0,.32.3h0l.72.67h0L273,88.34c-3.58-3.3-7.11-6.1-8.13-6.94s-2-1.68-3.2-2.72c-1.78-1.55-3.78-3.28-5.66-4.73Z" transform="translate(-7.23 -3.86)"/><path class="cls-15" d="M254.21,72.62v0c.58.4,1.19.84,1.82,1.32v0c-.62-.48-1.24-.93-1.82-1.33Z" transform="translate(-7.23 -3.86)"/><path class="cls-10" d="M217.84,63.62a5.21,5.21,0,0,0-.85.07l.32,0,.53,0h.09a30,30,0,0,1,5.67.9c4,1.11,14.92,3.5,19,4.37a64.09,64.09,0,0,1,8.65,2.11,10.81,10.81,0,0,1,2.17,1.1v0A11,11,0,0,0,251.24,71a64.51,64.51,0,0,0-8.64-2.1c-4.11-.87-15-3.26-19-4.37a29.86,29.86,0,0,0-5.65-.9Z" transform="translate(-7.23 -3.86)"/><path class="cls-14" d="M253.45,72.12v0c.25.15.5.31.76.49v0l-.76-.5Z" transform="translate(-7.23 -3.86)"/><path class="cls-32" d="M217,63.69l-.51.11h.2a4.58,4.58,0,0,1,.63-.1l-.32,0Z" transform="translate(-7.23 -3.86)"/><path class="cls-33" d="M272.41,88.55l.94.45-.39-.36-.55-.09Z" transform="translate(-7.23 -3.86)"/><path class="cls-33" d="M272.41,88.55h0l.55.09.39.36.8.4-.72-.67-.43-.08-.59-.1Zm.67-.15,0,0h0l0,0Z" transform="translate(-7.23 -3.86)"/><path class="cls-15" d="M217.84,63.94a5.07,5.07,0,0,0-1.42.2,2.15,2.15,0,0,0-1.12.69,1.18,1.18,0,0,0-.26.78,2.8,2.8,0,0,0,.55,1.49,11.17,11.17,0,0,0,2,2.17,51.29,51.29,0,0,0,7.72,5.4c2.2.34,4.56.75,7.05,1.23,6.87.1,19.46.58,28.9,2.73-1.65-1.43-3.46-3-5.17-4.31a19.47,19.47,0,0,0-4.86-3,65.29,65.29,0,0,0-8.63-2.1c-4.11-.87-15-3.26-19-4.37a29.71,29.71,0,0,0-5.62-.89Z" transform="translate(-7.23 -3.86)"/><path class="cls-15" d="M261.78,78.77l.28.24h0l-.28-.24ZM217.85,63.68h0l-.53,0a4.58,4.58,0,0,0-.63.1c.43,0,.86,0,1.29,0h-.08c-2.57,0-7.52,2,7,10.74l.39.07a51.29,51.29,0,0,1-7.72-5.4,11.17,11.17,0,0,1-2-2.17,2.8,2.8,0,0,1-.55-1.49,1.18,1.18,0,0,1,.26-.78,2.15,2.15,0,0,1,1.12-.69,5.07,5.07,0,0,1,1.42-.2h.08a29.71,29.71,0,0,1,5.62.89c4,1.11,14.92,3.5,19,4.37a65.29,65.29,0,0,1,8.63,2.1,19.47,19.47,0,0,1,4.86,3c1.71,1.33,3.52,2.88,5.17,4.31l.44.11h.07c-1.73-1.51-3.68-3.2-5.52-4.62L256,74c-.63-.48-1.24-.92-1.82-1.32-.26-.18-.51-.34-.76-.49a10.81,10.81,0,0,0-2.17-1.1A64.09,64.09,0,0,0,242.63,69c-4.11-.87-15-3.26-19-4.37a30,30,0,0,0-5.67-.9h-.08Z" transform="translate(-7.23 -3.86)"/><path class="cls-34" d="M233.78,76.18c11.29,2.24,25,5.91,37.82,12l1,.16c-3.46-3.16-6.81-5.82-7.81-6.63s-2-1.67-3.16-2.7h0c-8.83-2.08-20.64-2.66-27.84-2.81Z" transform="translate(-7.23 -3.86)"/><path class="cls-34" d="M273,88.52l0-.12,0,.12Zm0-.12ZM232.33,75.9l1.45.28c7.2.15,19,.73,27.84,2.81h0c1.19,1,2.28,2,3.16,2.7s4.35,3.47,7.81,6.63l-1-.16.81.39.59.1.43.08h0l-.32-.3,0,0c-3.57-3.29-7.09-6.08-8.11-6.91-.83-.67-1.82-1.53-2.91-2.48l-.28-.24h0l0,0h-.07l-.44-.11c-9.44-2.15-22-2.63-28.9-2.73Z" transform="translate(-7.23 -3.86)"/><path class="cls-35" d="M216.07,63.94a16.24,16.24,0,0,0-3.4.32,4.91,4.91,0,0,0-2.38,1.13,2.05,2.05,0,0,0-.6,1.27.91.91,0,0,0,0,.17,4.51,4.51,0,0,0,1.19,2.55,22.59,22.59,0,0,0,3.26,3.19,98.1,98.1,0,0,0,10.33,7.17v-.06a4.8,4.8,0,0,1,.43-2.05A3,3,0,0,1,227,76c-2.34-1.34-4.26-2.54-5.83-3.61-8-5.4-7-7.67-5.05-8.42Z" transform="translate(-7.23 -3.86)"/><path class="cls-32" d="M221.12,72.36c1.57,1.07,3.49,2.27,5.83,3.61h0l-.12-.06h0l-2.26-1.34h0c-1.3-.79-2.45-1.52-3.46-2.2Zm-5-8.56c-3.35,0-6.38.69-6.58,2.84-.28,3,6.72,8.17,14.9,13.24v-.14a98.1,98.1,0,0,1-10.33-7.17,22.59,22.59,0,0,1-3.26-3.19,4.51,4.51,0,0,1-1.19-2.55.91.91,0,0,1,0-.17,2.05,2.05,0,0,1,.6-1.27,4.91,4.91,0,0,1,2.38-1.13,16.24,16.24,0,0,1,3.4-.32,2.83,2.83,0,0,1,.41-.14Z" transform="translate(-7.23 -3.86)"/><path class="cls-36" d="M227.28,76.16a2.81,2.81,0,0,0-2.16,1.58,4.67,4.67,0,0,0-.41,1.94c0,.09,0,.17,0,.22,5.3,3.28,11.08,6.53,15.67,9.14a23.11,23.11,0,0,1-2-6.14c-3.65-2.3-7.34-4.59-11.06-6.71l-.05,0Z" transform="translate(-7.23 -3.86)"/><path class="cls-32" d="M227,76h0a3,3,0,0,0-2.06,1.66,4.8,4.8,0,0,0-.43,2.05v.2l.14.09c5.38,3.33,11.25,6.63,15.89,9.26a1.74,1.74,0,0,1-.1-.19c-4.59-2.61-10.37-5.86-15.67-9.14,0-.05,0-.13,0-.22a4.67,4.67,0,0,1,.41-1.94,2.81,2.81,0,0,1,2.16-1.58l.05,0c3.72,2.12,7.41,4.41,11.06,6.71v0c-3.67-2.31-7.38-4.61-11.11-6.74h0L227,76Z" transform="translate(-7.23 -3.86)"/><path class="cls-15" d="M224.61,74.56l2.26,1.34h.21q-1.16-.66-2.19-1.29l-.28,0Z" transform="translate(-7.23 -3.86)"/><path class="cls-34" d="M227.08,75.89h-.21L227,76l.29.17h0c3.73,2.13,7.44,4.43,11.11,6.74l0-.15c-3.62-2.27-7.28-4.55-11-6.65l-.08,0-.23-.13Z" transform="translate(-7.23 -3.86)"/><path class="cls-37" d="M216.14,63.94h-.07c-1.94.75-2.91,3,5.05,8.42a25.56,25.56,0,0,1-5.23-4.42c-.2-.25-.37-.48-.52-.7a3.07,3.07,0,0,1-.59-1.63,1.54,1.54,0,0,1,.31-.94,2.21,2.21,0,0,1,.78-.59l.35-.14Z" transform="translate(-7.23 -3.86)"/><path class="cls-38" d="M215.89,67.94a25.56,25.56,0,0,0,5.23,4.42c1,.68,2.16,1.41,3.46,2.2h0c-4.76-2.88-7.4-5-8.72-6.62Zm.59-4.14a2.83,2.83,0,0,0-.41.14h.15a2.42,2.42,0,0,1,.46-.13Z" transform="translate(-7.23 -3.86)"/><path class="cls-39" d="M216.68,63.81a2.42,2.42,0,0,0-.46.13l-.35.14a2.21,2.21,0,0,0-.78.59,1.54,1.54,0,0,0-.31.94,3.07,3.07,0,0,0,.59,1.63c.15.22.32.45.52.7,1.32,1.59,4,3.74,8.72,6.62l.28,0c-14.52-8.75-9.57-10.74-7-10.74H218c-.43,0-.86,0-1.29,0Z" transform="translate(-7.23 -3.86)"/><path class="cls-40" d="M129,85c1.62,1.44,3.6,3.12,6,5.05l1,.06,1.66.08-5.39-3.21-.21-.13h0L129,85Z" transform="translate(-7.23 -3.86)"/><path class="cls-41" d="M135,90l.79.63c4.68,3.75-1.24,1-5.57,4.77a4.06,4.06,0,0,1,1.4-.35h.21a3.57,3.57,0,0,1,.8.09h0c1.32.1,2.94.19,4.75.27,0-.09.07-.18.11-.28a9.12,9.12,0,0,0,.62-3.53c0-.49,0-.91,0-1.22l-.39-.23L136,90.07,135,90Z" transform="translate(-7.23 -3.86)"/><path class="cls-17" d="M127.16,119.82a4.68,4.68,0,0,0,4.24,4.08c.77.1,1.1,2.21,1.1,2.21a196.58,196.58,0,0,0,31.35-3.67c13.62-2.83,18.34-5.69,14.57-15.58s-12-10.14-16.89-10.48-21.55-.55-28.88-1.11c0,0-6.44,20-5.49,24.55Z" transform="translate(-7.23 -3.86)"/><path class="cls-18" d="M127.16,119.82H127a4.68,4.68,0,0,0,.65,1.88,4.87,4.87,0,0,0,3.7,2.31.41.41,0,0,1,.21.1,1.56,1.56,0,0,1,.34.48,5.31,5.31,0,0,1,.33,1l.09.38c0,.09,0,.15,0,.15l0,.11h.11a195.81,195.81,0,0,0,31.37-3.68c5.31-1.1,9.28-2.21,11.93-3.74a8.45,8.45,0,0,0,3-2.7,6.58,6.58,0,0,0,1-3.66,16.36,16.36,0,0,0-1.26-5.64c-1.9-5-4.94-7.54-8.11-8.89a26.52,26.52,0,0,0-8.89-1.68c-2.43-.17-7.81-.31-13.51-.47s-11.71-.36-15.37-.64h-.11l0,.1s-1.39,4.34-2.79,9.44c-.7,2.55-1.4,5.29-1.92,7.78a35,35,0,0,0-.88,6.23,6.46,6.46,0,0,0,.1,1.17l.13,0h0l.12,0a5.89,5.89,0,0,1-.09-1.12,33.85,33.85,0,0,1,.87-6.18c.79-3.71,2-8,2.94-11.38.49-1.69.93-3.14,1.25-4.17.16-.52.29-.93.38-1.21l.14-.43-.12,0v.13c3.67.28,9.68.47,15.38.64s11.09.3,13.5.47a26.48,26.48,0,0,1,8.81,1.65c3.11,1.34,6.09,3.84,8,8.75a16,16,0,0,1,1.24,5.55,6.33,6.33,0,0,1-1,3.52,10.43,10.43,0,0,1-5.11,3.68,57.4,57.4,0,0,1-9.65,2.65A195.23,195.23,0,0,1,132.5,126v.13l.13,0a8,8,0,0,0-.27-1.09,3.27,3.27,0,0,0-.36-.78,1.05,1.05,0,0,0-.25-.3.71.71,0,0,0-.33-.15,4.61,4.61,0,0,1-3.52-2.19,4.67,4.67,0,0,1-.51-1.23,2.23,2.23,0,0,1-.08-.39.89.89,0,0,1,0-.11v0h0l-.12,0Z" transform="translate(-7.23 -3.86)"/><path class="cls-19" d="M130.48,109.9c-.49-.6-1.17-1.51-1.92-2.57-1.71,5.43.62,8.6,1.06,10.74,0,0-2.62,3.51,1.36,4.08.77.11,3,4,3,4a177.12,177.12,0,0,0,29.88-3.44c10.47-2.18,15.68-4.37,15.82-9.76-6.23,2.67-19.08,3.34-29.64,4.16-15.12,1.16-15.69-2.46-19.55-7.17Z" transform="translate(-7.23 -3.86)"/><path class="cls-18" d="M130.48,109.9l.1-.09c-.49-.59-1.16-1.5-1.92-2.56l-.15-.21-.08.25a12.2,12.2,0,0,0,.1,8c.39,1.13.81,2.07,1,2.83l.12,0-.1-.08a4.78,4.78,0,0,0-.43.72,3.6,3.6,0,0,0-.44,1.58,1.71,1.71,0,0,0,.49,1.24,3.29,3.29,0,0,0,1.82.75.59.59,0,0,1,.28.17,5.56,5.56,0,0,1,.8.91c.43.58.89,1.28,1.24,1.84.17.28.32.52.42.7l.16.27,0,.07H134a177.6,177.6,0,0,0,29.9-3.45c5.24-1.08,9.16-2.18,11.82-3.68a8.82,8.82,0,0,0,3-2.63,6.45,6.45,0,0,0,1.08-3.56v-.2l-.19.08c-3.08,1.32-7.85,2.16-13.15,2.76s-11.16,1-16.44,1.38c-1.94.15-3.64.22-5.13.22-5.08,0-7.81-.82-9.69-2.13s-2.93-3.15-4.62-5.22l-.1.09-.1.08c1.68,2,2.74,3.9,4.68,5.26s4.73,2.18,9.83,2.17c1.5,0,3.2-.07,5.15-.22,5.28-.41,11.13-.78,16.45-1.38s10.09-1.43,13.23-2.78l-.05-.12h-.13a6.23,6.23,0,0,1-1,3.42,10.69,10.69,0,0,1-5.13,3.6,58.13,58.13,0,0,1-9.55,2.61A176.71,176.71,0,0,1,134,126v.13l.11-.07s-.55-1-1.21-1.94a16.87,16.87,0,0,0-1-1.37,4.29,4.29,0,0,0-.46-.48A.86.86,0,0,0,131,122a2.84,2.84,0,0,1-1.67-.68,1.4,1.4,0,0,1-.42-1,3.38,3.38,0,0,1,.4-1.46,5.72,5.72,0,0,1,.29-.5l.09-.14,0,0h0l0,0V118c-.17-.81-.59-1.74-1-2.87a12.25,12.25,0,0,1-.71-4,12.71,12.71,0,0,1,.61-3.79l-.12,0-.11.07c.76,1.06,1.44,2,1.93,2.58l.1-.08Z" transform="translate(-7.23 -3.86)"/><path class="cls-42" d="M139.9,110.28c.48,8.56-2.45,15.69-6.55,15.92s-7.81-6.53-8.28-15.09,2.45-15.69,6.55-15.92,7.8,6.52,8.28,15.09Z" transform="translate(-7.23 -3.86)"/><path class="cls-42" d="M139.9,110.28h-.13c0,.61,0,1.21,0,1.81a24,24,0,0,1-1.86,9.81,9.26,9.26,0,0,1-2.06,3,4.13,4.13,0,0,1-2.56,1.17h-.19a4.42,4.42,0,0,1-2.81-1.15,13,13,0,0,1-3.45-5.39,28.63,28.63,0,0,1-1.7-8.44c0-.61,0-1.22,0-1.81A23.9,23.9,0,0,1,127,99.47a9.32,9.32,0,0,1,2.06-3,4.07,4.07,0,0,1,2.55-1.17h.2a4.43,4.43,0,0,1,2.81,1.14,13.09,13.09,0,0,1,3.45,5.4,28.64,28.64,0,0,1,1.69,8.44H140a26.49,26.49,0,0,0-2.73-10.76,10.76,10.76,0,0,0-2.51-3.25,4.66,4.66,0,0,0-3-1.21h-.21a4.34,4.34,0,0,0-2.72,1.24,11.66,11.66,0,0,0-2.91,5.15,26.66,26.66,0,0,0-1.09,7.84c0,.6,0,1.21,0,1.82a26.43,26.43,0,0,0,2.72,10.77,11.09,11.09,0,0,0,2.51,3.25,4.69,4.69,0,0,0,3,1.2h.21a4.42,4.42,0,0,0,2.71-1.24,11.72,11.72,0,0,0,2.92-5.15,27,27,0,0,0,1.09-7.84c0-.6,0-1.21-.05-1.83Z" transform="translate(-7.23 -3.86)"/><path class="cls-43" d="M139.11,110.43c.48,8.47-2.42,15.52-6.48,15.75s-7.72-6.46-8.19-14.93,2.43-15.52,6.48-15.75,7.72,6.46,8.19,14.93Z" transform="translate(-7.23 -3.86)"/><path class="cls-44" d="M139.11,110.43H139c0,.61,0,1.2,0,1.79a23.72,23.72,0,0,1-1.85,9.71,9,9,0,0,1-2,3,4,4,0,0,1-2.52,1.16h-.2a4.37,4.37,0,0,1-2.77-1.13,12.84,12.84,0,0,1-3.41-5.34,28,28,0,0,1-1.68-8.34c0-.61,0-1.21,0-1.8a23.77,23.77,0,0,1,1.84-9.71,9.41,9.41,0,0,1,2-2.95,4.09,4.09,0,0,1,2.53-1.16h.19a4.34,4.34,0,0,1,2.78,1.13,13,13,0,0,1,3.41,5.33,28.8,28.8,0,0,1,1.68,8.35h.25a26.16,26.16,0,0,0-2.69-10.65,10.85,10.85,0,0,0-2.49-3.22,4.61,4.61,0,0,0-2.94-1.19h-.21a4.32,4.32,0,0,0-2.68,1.22,11.55,11.55,0,0,0-2.89,5.1,26.37,26.37,0,0,0-1.08,7.75c0,.6,0,1.2,0,1.81A26,26,0,0,0,127,121.9a10.87,10.87,0,0,0,2.48,3.22,4.59,4.59,0,0,0,2.94,1.2h.21a4.38,4.38,0,0,0,2.69-1.23,11.54,11.54,0,0,0,2.88-5.09,26.49,26.49,0,0,0,1.08-7.76c0-.59,0-1.19,0-1.8Z" transform="translate(-7.23 -3.86)"/><path class="cls-45" d="M130.68,97.17l.35,0h.17c3.55,0,6.76,5.92,7.21,13.38s-2.11,13.88-5.73,14.07h-.16a3,3,0,0,1-.52,0h.1c3.51,0,6.28-6.73,5.85-14-.43-7-3.67-13.38-7.17-13.38Zm.76-1.11h-.17c-3.62.2-6.19,7-5.73,15.15s3.66,14.42,7.22,14.42h.16c3.62-.21,6.19-7,5.73-15.15S135,96.06,131.44,96.06Z" transform="translate(-7.23 -3.86)"/><path class="cls-46" d="M131.2,97.13H131l-.35,0h.1c3.5,0,6.74,6.36,7.17,13.38.43,7.26-2.34,14-5.85,14H132a3,3,0,0,0,.52,0h.16c3.62-.19,6.19-6.49,5.73-14.07s-3.66-13.38-7.21-13.38Z" transform="translate(-7.23 -3.86)"/><path class="cls-7" d="M133.14,99l-.43,0c-2.44.14-4.13,5.38-3.78,11.7S131.55,122,134,121.87a2.37,2.37,0,0,0,1.67-1,21.6,21.6,0,0,0,1.59-10.23C137,105.25,135.26,100.74,133.14,99Z" transform="translate(-7.23 -3.86)"/><path d="M133.14,99l0-.12a2.2,2.2,0,0,0-.36,0h-.1a2.37,2.37,0,0,0-1.62.88,8.66,8.66,0,0,0-1.69,3.67,23,23,0,0,0-.63,5.61c0,.55,0,1.11.05,1.67a23.64,23.64,0,0,0,1.71,8,8.41,8.41,0,0,0,1.54,2.43,2.58,2.58,0,0,0,1.83.91h.1a2.5,2.5,0,0,0,1.77-1.06h0a20.37,20.37,0,0,0,1.65-8.64c0-.54,0-1.1-.05-1.66a25.87,25.87,0,0,0-1.38-7.21,10.33,10.33,0,0,0-2.78-4.51l0,0h0l0,.12-.09.1a10.19,10.19,0,0,1,2.71,4.4,25.82,25.82,0,0,1,1.36,7.14c0,.56,0,1.11,0,1.65a20.18,20.18,0,0,1-1.62,8.52l.11.06-.1-.08a2.24,2.24,0,0,1-1.58,1h-.09a2.37,2.37,0,0,1-1.65-.83,10.43,10.43,0,0,1-2.1-4,25.85,25.85,0,0,1-1.08-6.25c0-.56,0-1.12,0-1.66a20.67,20.67,0,0,1,1.07-7,6.55,6.55,0,0,1,1.18-2.1,2.13,2.13,0,0,1,1.45-.8h.08a1.63,1.63,0,0,1,.31,0l0-.13-.09.1Z" transform="translate(-7.23 -3.86)"/><path class="cls-42" d="M133.65,110.61a19.72,19.72,0,0,0,3.6,0,26.78,26.78,0,0,0-1.06-6.25s-1.27,2.83-2.57,6.18Z" transform="translate(-7.23 -3.86)"/><path class="cls-42" d="M133.65,110.61v.12c.77.06,1.54.1,2.23.1a9.79,9.79,0,0,0,1.4-.08h.12v-.12a27,27,0,0,0-1.07-6.28l-.1-.34-.14.33.1,0-.1,0h0l.1,0-.1,0s-1.27,2.85-2.57,6.18l0,.06.06.1,0,.06h.06v-.12l.11-.07,0-.05-.11.07.12,0c.65-1.67,1.29-3.22,1.77-4.34.24-.57.44-1,.57-1.34l.17-.37,0-.1v0l-.11-.05-.13,0a26,26,0,0,1,1.06,6.22h.13v-.13a10.94,10.94,0,0,1-1.37.07c-.68,0-1.44,0-2.21-.09v.13l.11-.07Z" transform="translate(-7.23 -3.86)"/><polygon class="cls-7" points="126.37 106.76 126.37 106.74 126.36 106.74 126.37 106.76"/><polygon points="126.37 106.76 126.49 106.8 126.49 106.79 126.56 106.63 126.38 106.61 126.22 106.59 126.24 106.77 126.49 106.8 126.37 106.76 126.5 106.75 126.49 106.73 126.36 106.74 126.35 106.86 126.36 106.87 126.37 106.74 126.25 106.69 126.25 106.71 126.37 106.76 126.5 106.75 126.37 106.76"/><polygon class="cls-7" points="126.37 106.74 126.42 106.74 126.39 106.7 126.37 106.74"/><polygon points="126.37 106.74 126.36 106.87 126.41 106.87 126.66 106.89 126.36 106.41 126.19 106.85 126.36 106.87 126.37 106.74 126.49 106.78 126.51 106.74 126.39 106.7 126.28 106.77 126.31 106.81 126.42 106.74 126.43 106.61 126.38 106.61 126.37 106.74 126.49 106.78 126.37 106.74"/><path class="cls-7" d="M133.59,110.51v.09h0v0Z" transform="translate(-7.23 -3.86)"/><path d="M133.59,110.51h-.13v.2h.21l.05-.13,0-.06-.07-.11-.24.08h.13l-.11.07,0,0,.11-.07-.12,0v0l.12,0v-.13h0v.13h.13v-.09h-.13l-.11.07Z" transform="translate(-7.23 -3.86)"/><path class="cls-42" d="M133.61,110.6v0c.32,4,.6,8.17.61,11.22a2.5,2.5,0,0,0,1.45-1A16.36,16.36,0,0,0,137,116c-.31-.54-1.8-2.91-3.39-5.41Z" transform="translate(-7.23 -3.86)"/><path class="cls-42" d="M133.61,110.6l-.12,0v.08c.33,4,.6,8.17.62,11.21V122l.15,0a2.63,2.63,0,0,0,1.52-1h0a16.73,16.73,0,0,0,1.39-4.88V116l0,0c-.31-.55-1.8-2.92-3.39-5.42l0-.06h-.21l0,.08.12,0v.13h0v-.12l-.11.06c1.59,2.51,3.08,4.88,3.39,5.41L137,116l-.13,0a16.32,16.32,0,0,1-1.36,4.8l.11.06-.1-.08a2.37,2.37,0,0,1-1.37.93l0,.13h.13c0-3.06-.29-7.26-.61-11.23h-.13l.12,0v0l-.12-.05v0Z" transform="translate(-7.23 -3.86)"/><path class="cls-42" d="M132.48,99h0c-1.37.26-2.47,2.15-3.08,4.92,0,0,2.17,3.4,4.19,6.6C133.09,104.46,132.48,99,132.48,99Z" transform="translate(-7.23 -3.86)"/><path class="cls-42" d="M132.48,99l0-.12a3,3,0,0,0-1.91,1.57,11.21,11.21,0,0,0-1.28,3.44v.05l0,0s2.17,3.41,4.19,6.61l.24-.08c-.5-6-1.11-11.52-1.11-11.52l0-.14-.13,0,0,.12-.13,0,.11.95c.19,1.82.63,6,1,10.56h.13l.11-.07-4.19-6.6-.11.07.12,0a11,11,0,0,1,1.24-3.35,2.83,2.83,0,0,1,1.75-1.46l0-.13-.13,0Z" transform="translate(-7.23 -3.86)"/><path class="cls-42" d="M133.6,110.6c-2.35-.17-4.69-.53-4.69-.53,0,.2,0,.4,0,.59a22.5,22.5,0,0,0,2,8.53,49.89,49.89,0,0,1,2.68-8.57Z" transform="translate(-7.23 -3.86)"/><path class="cls-42" d="M133.6,110.6v-.13c-1.17-.08-2.34-.22-3.22-.33l-1.06-.14-.4,0-.16,0v.16c0,.19,0,.39,0,.59a22.49,22.49,0,0,0,2,8.58l.18.36.06-.4a48.93,48.93,0,0,1,2.67-8.54v-.19h-.11v.13h-.13v0h.13l-.12-.05a49,49,0,0,0-2.68,8.6l.12,0,.12,0a22.28,22.28,0,0,1-2-8.48c0-.2,0-.4,0-.59h-.13l0,.13s2.34.35,4.7.53v-.13h0Z" transform="translate(-7.23 -3.86)"/><path class="cls-47" d="M133.59,110.51l0,0c1.3-3.35,2.56-6.17,2.57-6.18A11.46,11.46,0,0,0,133.14,99l-.43,0-.23,0S133.09,104.46,133.59,110.51Z" transform="translate(-7.23 -3.86)"/><path class="cls-44" d="M133.59,110.51l-.11.07,0,0,.14.21.09-.23c.65-1.67,1.29-3.22,1.77-4.34.24-.57.44-1,.57-1.34l.17-.37,0-.1v0l0-.05v0a11.47,11.47,0,0,0-3.09-5.44l0,0h0a2.2,2.2,0,0,0-.36,0h-.1a1,1,0,0,0-.24,0l-.12,0V99l.11.95c.19,1.82.63,6,1,10.56v0l0,0,.11-.07h.13c-.5-6-1.11-11.52-1.11-11.52h-.13l0,.13.21,0h.08a1.63,1.63,0,0,1,.31,0l0-.13-.08.1a11.27,11.27,0,0,1,3,5.32l.13,0-.12,0,.1,0-.1,0h0l.1,0-.1,0s-1.27,2.85-2.57,6.18l.12,0,.11-.07,0,0-.11.07h0Z" transform="translate(-7.23 -3.86)"/><path class="cls-47" d="M133.6,110.6v-.09c-2-3.2-4.18-6.58-4.19-6.6a24.51,24.51,0,0,0-.49,6.16S131.25,110.43,133.6,110.6Z" transform="translate(-7.23 -3.86)"/><path class="cls-44" d="M133.6,110.6h.13v-.12l0,0-4.19-6.6-.17-.26-.07.3a24.08,24.08,0,0,0-.51,5.13c0,.35,0,.71,0,1.07v.1l.11,0s2.34.35,4.7.53h.15v-.15h-.13v-.13c-1.17-.08-2.34-.22-3.22-.33l-1.06-.14-.4,0,0,.12H129c0-.36,0-.71,0-1.06a24.35,24.35,0,0,1,.5-5.08l-.12,0-.11.06s2.17,3.41,4.19,6.61l.11-.07h-.13v.09h.13v0Z" transform="translate(-7.23 -3.86)"/><path class="cls-47" d="M133.65,110.61c1.59,2.5,3.08,4.87,3.39,5.41a27,27,0,0,0,.21-5.39A19.72,19.72,0,0,1,133.65,110.61Z" transform="translate(-7.23 -3.86)"/><path class="cls-44" d="M133.65,110.61l-.11.06c1.59,2.51,3.08,4.88,3.39,5.41l.19.33,0-.37a26.58,26.58,0,0,0,.26-3.77c0-.54,0-1.09-.05-1.65v-.14l-.13,0a10.94,10.94,0,0,1-1.37.07c-.68,0-1.44,0-2.21-.09l-.25,0,.13.21.11-.06v.12c.77.06,1.54.1,2.23.1a9.79,9.79,0,0,0,1.4-.08l0-.12h-.13c0,.56,0,1.1,0,1.64a25.9,25.9,0,0,1-.26,3.73l.13,0,.11-.06c-.31-.55-1.8-2.92-3.39-5.42l-.11.07v0Z" transform="translate(-7.23 -3.86)"/><path class="cls-47" d="M130.92,119.19c.88,1.73,2,2.74,3.07,2.68a1.66,1.66,0,0,0,.22,0c0-3-.29-7.25-.61-11.22A49.89,49.89,0,0,0,130.92,119.19Z" transform="translate(-7.23 -3.86)"/><path class="cls-44" d="M130.92,119.19l-.11.06a7,7,0,0,0,1.42,2,2.47,2.47,0,0,0,1.66.75h.1l.25,0,.1,0v-.11c0-3.06-.29-7.26-.61-11.23l-.25,0a49,49,0,0,0-2.68,8.6v0l0,0,.11-.06.13,0a48.93,48.93,0,0,1,2.67-8.54l-.12,0h-.13c.33,4,.6,8.17.62,11.21h.12l0-.13a.76.76,0,0,1-.21,0h-.09a2.19,2.19,0,0,1-1.48-.68,6.68,6.68,0,0,1-1.37-1.92l-.12,0,.13,0Z" transform="translate(-7.23 -3.86)"/><path class="cls-48" d="M134,121.87c-2.44.13-4.7-4.88-5.06-11.21s1.34-11.56,3.78-11.7l.43,0a3,3,0,0,0-2-.77c-3,.17-5.14,6-4.75,13s3.15,12.58,6.17,12.41c1.24-.07,2.33-1.1,3.15-2.78A2.37,2.37,0,0,1,134,121.87Z" transform="translate(-7.23 -3.86)"/><path class="cls-42" d="M134,121.87v-.13h-.09a2.37,2.37,0,0,1-1.65-.83,10.43,10.43,0,0,1-2.1-4,25.85,25.85,0,0,1-1.08-6.25c0-.56,0-1.12,0-1.66a20.67,20.67,0,0,1,1.07-7,6.55,6.55,0,0,1,1.18-2.1,2.13,2.13,0,0,1,1.45-.8h.08a1.63,1.63,0,0,1,.31,0l.11-.22a3.14,3.14,0,0,0-2-.81h-.14a3.06,3.06,0,0,0-2,1,9.45,9.45,0,0,0-2.12,4.15,23.73,23.73,0,0,0-.79,6.34c0,.54,0,1.1,0,1.66a24,24,0,0,0,2.07,8.85,9,9,0,0,0,1.87,2.68,3.29,3.29,0,0,0,2.22,1h.14a3,3,0,0,0,1.82-.82,6.79,6.79,0,0,0,1.45-2l-.22-.14a2.24,2.24,0,0,1-1.58,1V122a2.5,2.5,0,0,0,1.77-1.06l-.1-.08-.11-.06a6.37,6.37,0,0,1-1.4,2,2.65,2.65,0,0,1-1.65.75h-.13a3,3,0,0,1-2.05-.93,11.08,11.08,0,0,1-2.56-4.42,25.83,25.83,0,0,1-1.29-6.93c0-.56,0-1.11,0-1.65a21.27,21.27,0,0,1,1.35-7.92,7.54,7.54,0,0,1,1.49-2.39,2.81,2.81,0,0,1,1.83-.92h.13a2.92,2.92,0,0,1,1.83.74l.09-.1,0-.12a2.2,2.2,0,0,0-.36,0h-.1a2.35,2.35,0,0,0-1.62.88,8.66,8.66,0,0,0-1.69,3.67,23,23,0,0,0-.63,5.61c0,.55,0,1.11.05,1.67a23.64,23.64,0,0,0,1.71,8,8.41,8.41,0,0,0,1.54,2.43,2.58,2.58,0,0,0,1.83.91h.1Z" transform="translate(-7.23 -3.86)"/><path class="cls-49" d="M127.49,110.83c-.34-6,1.17-11.15,3.51-12.61-3,.28-5,6.06-4.66,13s3.15,12.57,6.17,12.4a2.57,2.57,0,0,0,1.23-.41h-.09C130.64,123.4,127.88,117.85,127.49,110.83Z" transform="translate(-7.23 -3.86)"/><path class="cls-44" d="M129,111.36h3.12l-1.91,6.11A28.29,28.29,0,0,1,129,111.36Z" transform="translate(-7.23 -3.86)"/><path class="cls-44" d="M131.78,99.28l.7,7.55-2.87-3.8A6.82,6.82,0,0,1,131.78,99.28Z" transform="translate(-7.23 -3.86)"/><path class="cls-44" d="M136.69,105.73l-2.12,4.12,2.73-.23A31.48,31.48,0,0,0,136.69,105.73Z" transform="translate(-7.23 -3.86)"/><path class="cls-44" d="M137,117.22,134.57,113l.51,8.44S136.09,121.24,137,117.22Z" transform="translate(-7.23 -3.86)"/><path class="cls-50" d="M133.41,100.72l.62,6.61,1.41-3.31A6.69,6.69,0,0,0,133.41,100.72Z" transform="translate(-7.23 -3.86)"/><path class="cls-50" d="M129.81,106l2.67,3.83-2.87-.55A3.57,3.57,0,0,1,129.81,106Z" transform="translate(-7.23 -3.86)"/><path class="cls-50" d="M133.16,113.31l-1.38,5.51s.19,1.77,1.63,1.86Z" transform="translate(-7.23 -3.86)"/><path class="cls-50" d="M134.57,111.17l2.06.19s.74,2,0,2.6Z" transform="translate(-7.23 -3.86)"/><path class="cls-35" d="M134.91,95.55c5.12,4.33,9.44,10.54,9.44,19.18a23.48,23.48,0,0,1-.12,2.42h.66c1.49,0,3.19-.07,5.13-.22,5.28-.41,11.13-.78,16.44-1.38a61,61,0,0,0,11.7-2.22,107.42,107.42,0,0,1-11.65-6l0,0h0l-.08,0-.1-.06h0c-3.09-1.82-6.73-4-10.63-6.33-1.65.1-3.3.15-4.87.15-2.69,0-5.13-.13-6.92-.3a12,12,0,0,1-3.79-.86,3.84,3.84,0,0,1-1-.65,11.33,11.33,0,0,1-1.42-1.3,1.9,1.9,0,0,1-.53-1.29,3,3,0,0,1,.2-1l-2.41-.12Z" transform="translate(-7.23 -3.86)"/><path class="cls-32" d="M134.87,95.51l0,0,2.41.12v0l-2.45-.13Z" transform="translate(-7.23 -3.86)"/><path class="cls-51" d="M178.51,113.5a60,60,0,0,1-12,2.31c-5.32.6-11.17,1-16.45,1.38-1.95.15-3.65.22-5.15.22h-.69a18,18,0,0,1-3,8.22c4.45-.32,9.65-.88,15-1.7,2.47-.39,4.93-.82,7.27-1.3l.44-.09a58.13,58.13,0,0,0,9.55-2.61,10.69,10.69,0,0,0,5.13-3.6,6,6,0,0,0,.95-2.43l-.94-.4Z" transform="translate(-7.23 -3.86)"/><path class="cls-32" d="M156.11,123.93c-5.3.82-10.5,1.38-15,1.7l-.07.1c4.56-.38,9.83-1,15-1.8Zm23.34-10a6,6,0,0,1-.95,2.43,10.69,10.69,0,0,1-5.13,3.6,58.13,58.13,0,0,1-9.55,2.61l-.44.09.47-.09c9.69-2,14.87-4,15.7-8.6l-.1,0Zm-1.29-.56a61,61,0,0,1-11.7,2.22c-5.31.6-11.16,1-16.44,1.38-1.94.15-3.64.22-5.13.22h-.66l0,.26h.69c1.5,0,3.2-.07,5.15-.22,5.28-.41,11.13-.78,16.45-1.38a60,60,0,0,0,12-2.31l-.35-.16Z" transform="translate(-7.23 -3.86)"/><path class="cls-52" d="M137.85,82.13c-5.34,1.7.31,7.74.31,7.74a11.24,11.24,0,0,1-.52,5.31c-.87,2-.25,2.5,1.52,4s2.16-10.09,2.16-10.09.58-8.23-3.47-6.94Z" transform="translate(-7.23 -3.86)"/><path class="cls-18" d="M137.85,82.13l0-.12A3.66,3.66,0,0,0,136,83.16a2.45,2.45,0,0,0-.53,1.6,6.87,6.87,0,0,0,1.32,3.5,16.93,16.93,0,0,0,1.31,1.7l.1-.09-.13,0a1.13,1.13,0,0,1,0,.12,13.74,13.74,0,0,1,.09,1.59,9.12,9.12,0,0,1-.62,3.53,4.08,4.08,0,0,0-.4,1.53,1.9,1.9,0,0,0,.53,1.29,10.81,10.81,0,0,0,1.43,1.31.61.61,0,0,0,.39.16.52.52,0,0,0,.35-.14,2.11,2.11,0,0,0,.48-.81,14.16,14.16,0,0,0,.57-2.53c.45-3,.58-6.86.58-6.86h0s0-.41,0-1a14.27,14.27,0,0,0-.45-3.8,4.24,4.24,0,0,0-.84-1.67,2,2,0,0,0-1.53-.72,2.77,2.77,0,0,0-.85.15l0,.12,0,.12a2.53,2.53,0,0,1,.77-.13,1.74,1.74,0,0,1,1.34.63,5.43,5.43,0,0,1,1,2.54,17.07,17.07,0,0,1,.21,2.76c0,.31,0,.56,0,.74s0,.27,0,.27h0s0,.16,0,.44c-.05,1-.17,3.42-.46,5.61a19.88,19.88,0,0,1-.54,2.88,4.16,4.16,0,0,1-.36.89.81.81,0,0,1-.19.21.25.25,0,0,1-.16.07.35.35,0,0,1-.22-.11,12.31,12.31,0,0,1-1.41-1.27,1.66,1.66,0,0,1-.46-1.13,3.75,3.75,0,0,1,.38-1.43,9.36,9.36,0,0,0,.64-3.63,13,13,0,0,0-.11-1.75v0l0,0,0,0a13.57,13.57,0,0,1-1.38-1.82,6.46,6.46,0,0,1-1.16-3.17,2.25,2.25,0,0,1,.48-1.44,3.48,3.48,0,0,1,1.73-1.07l0-.12Z" transform="translate(-7.23 -3.86)"/><path class="cls-19" d="M136.93,85.49c.93,2.48,2.31,5,2,8.06s-2.57,6.35,5,7.08,26.83.72,26.66-6.82S135,80.46,136.93,85.49Z" transform="translate(-7.23 -3.86)"/><path class="cls-18" d="M136.93,85.49l-.12.05c.84,2.23,2,4.44,2,7a7.82,7.82,0,0,1-.06,1c-.13,1.21-.57,2.46-.57,3.61a2.81,2.81,0,0,0,1.87,2.75,12,12,0,0,0,3.79.86c1.79.17,4.23.3,6.92.3a53.56,53.56,0,0,0,13.14-1.39,13.62,13.62,0,0,0,4.82-2.17,4.48,4.48,0,0,0,1.92-3.59v-.1a3.44,3.44,0,0,0-.92-2.12,14.21,14.21,0,0,0-4.91-3.26,66.35,66.35,0,0,0-23.07-5,13.51,13.51,0,0,0-3.6.37,2.91,2.91,0,0,0-1,.49,1,1,0,0,0-.4.78,1.25,1.25,0,0,0,.08.42l.12-.05.12,0a1.05,1.05,0,0,1-.06-.33.73.73,0,0,1,.3-.58,3.63,3.63,0,0,1,1.64-.6,16.28,16.28,0,0,1,2.83-.21,67.92,67.92,0,0,1,17.79,3A34.34,34.34,0,0,1,167.22,90a9.89,9.89,0,0,1,2.32,1.88,3.14,3.14,0,0,1,.86,2v.1a4.21,4.21,0,0,1-1.82,3.39c-1.74,1.36-4.57,2.24-7.78,2.78a63.56,63.56,0,0,1-10,.72c-2.68,0-5.11-.13-6.89-.3a9.1,9.1,0,0,1-4.42-1.25,2.34,2.34,0,0,1-.79-1,2.7,2.7,0,0,1-.22-1.14c0-1.08.43-2.34.57-3.58a8.25,8.25,0,0,0,.05-1c0-2.69-1.21-4.94-2-7.14l-.12,0Z" transform="translate(-7.23 -3.86)"/><path class="cls-20" d="M140.19,94.92S138,100,146.4,99C146.4,99,140,99.55,140.19,94.92Z" transform="translate(-7.23 -3.86)"/><path class="cls-7" d="M123.22,73.72c10.41,8.1,27.9,21,44.87,30.47s35.23,15,46.55,10.67c4.18-1.61,3.44-5.25,1.27-9.11-1-1.33-2.33-2.78-3.84-4.39-9.26-9.77-30.48-27.51-36.52-30.73s-20.49-4.5-27.77-5.52c-10.93-1.54-18.95-1.79-24.58-1.18-.4.07-10.19,1.86,0,9.79Z" transform="translate(-7.23 -3.86)"/><path d="M123.22,73.72l-.08.1c10.42,8.1,27.91,21,44.89,30.48,12.95,7.26,26.65,12.21,37.47,12.21a25.34,25.34,0,0,0,9.18-1.53,5.12,5.12,0,0,0,2.39-1.68,3.91,3.91,0,0,0,.72-2.35,11.51,11.51,0,0,0-1.77-5.26h0c-1-1.33-2.33-2.79-3.85-4.39a260.84,260.84,0,0,0-19.48-17.84c-3.6-3-7.11-5.86-10.1-8.12a60.44,60.44,0,0,0-7-4.8c-3.05-1.62-8.18-2.74-13.46-3.6S151.43,65.49,147.8,65a132.84,132.84,0,0,0-18.28-1.49,59.14,59.14,0,0,0-6.33.31h0a10.27,10.27,0,0,0-2.44.8,5.19,5.19,0,0,0-1.57,1.14,2.78,2.78,0,0,0-.71,1.84,4.68,4.68,0,0,0,1,2.68,17.84,17.84,0,0,0,3.64,3.56l.08-.1.08-.1a18.24,18.24,0,0,1-3.6-3.51,4.49,4.49,0,0,1-1-2.53,2.47,2.47,0,0,1,.65-1.67,5.68,5.68,0,0,1,2.3-1.43,10.39,10.39,0,0,1,1.55-.43l0-.12,0,.13a58.55,58.55,0,0,1,6.3-.31,133.69,133.69,0,0,1,18.24,1.48c3.65.52,9.08,1.09,14.35,2s10.39,2,13.38,3.57a60.86,60.86,0,0,1,6.94,4.77c8.94,6.8,22.61,18.61,29.54,25.93q2.28,2.4,3.84,4.38l.1-.08-.11.06a11.33,11.33,0,0,1,1.73,5.14,3.61,3.61,0,0,1-.67,2.2,4.88,4.88,0,0,1-2.27,1.59,25.06,25.06,0,0,1-9.09,1.51c-10.74,0-24.42-4.92-37.34-12.17-17-9.51-34.45-22.36-44.86-30.46l-.08.1Z" transform="translate(-7.23 -3.86)"/><path class="cls-20" d="M167.64,104a351.42,351.42,0,0,1-33.53-22,3.74,3.74,0,0,0-2,4.69c11.33,6.73,25.12,15.08,34.19,20.43h0s-.27-2.26,1.29-3.13Z" transform="translate(-7.23 -3.86)"/><path class="cls-18" d="M167.64,104l.07-.12a347.59,347.59,0,0,1-33.53-22l-.06,0-.07,0a3.88,3.88,0,0,0-1.81,1.65,3.72,3.72,0,0,0-.43,1.78,4.53,4.53,0,0,0,.12,1,2.49,2.49,0,0,0,.07.29.92.92,0,0,1,0,.09v0h0l0,0,0,0c11.32,6.73,25.11,15.07,34.18,20.43l.19.12v-.23h0v0s0-.17,0-.34a4.08,4.08,0,0,1,.21-1.35,2.34,2.34,0,0,1,1-1.3l.2-.11-.2-.12-.07.12-.06-.12a2.57,2.57,0,0,0-1.15,1.44,4.51,4.51,0,0,0-.23,1.44,3.48,3.48,0,0,0,0,.39l.13,0h0l.06-.11c-9.07-5.36-22.85-13.7-34.18-20.43l-.07.11.12,0-.12,0,.12,0h0l-.12,0,.12,0h0a4.31,4.31,0,0,1-.21-1.33,3.4,3.4,0,0,1,.4-1.66,3.68,3.68,0,0,1,1.69-1.54l0-.11-.08.1a350.57,350.57,0,0,0,33.55,22l.06-.11-.06-.12.06.12Z" transform="translate(-7.23 -3.86)"/><path class="cls-17" d="M134.11,82c-4.14-3-7.86-5.86-11-8.27-10.21-7.93-.43-9.72,0-9.79-11.33,1.22-13,5.88-9.11,10.44,2.06,2.42,9.29,7.06,18.13,12.31a3.74,3.74,0,0,1,2-4.69Z" transform="translate(-7.23 -3.86)"/><path class="cls-18" d="M134.11,82l.07-.11c-4.14-3-7.85-5.85-11-8.26a17.87,17.87,0,0,1-3.59-3.51,4.49,4.49,0,0,1-1-2.53,2.43,2.43,0,0,1,.66-1.66,5.61,5.61,0,0,1,2.3-1.43,9.18,9.18,0,0,1,1.55-.43l0-.26c-3.9.42-6.67,1.25-8.47,2.35a6.12,6.12,0,0,0-2,1.85,4,4,0,0,0-.64,2.16,6.88,6.88,0,0,0,1.91,4.29,36.34,36.34,0,0,0,6.55,5.12c3.17,2.12,7.2,4.59,11.62,7.22l.31.19-.13-.34v0a4.29,4.29,0,0,1-.2-1.31,3.4,3.4,0,0,1,.4-1.66,3.68,3.68,0,0,1,1.69-1.54l.2-.09-.18-.13-.07.11-.06-.12a3.88,3.88,0,0,0-1.81,1.65,3.72,3.72,0,0,0-.43,1.78,4.54,4.54,0,0,0,.23,1.43l.12,0,.07-.11c-4.42-2.62-8.44-5.1-11.61-7.21a36.3,36.3,0,0,1-6.49-5.08,6.56,6.56,0,0,1-1.85-4.12,3.64,3.64,0,0,1,.6-2,7.17,7.17,0,0,1,3.41-2.53,25.26,25.26,0,0,1,6.86-1.55V64l0-.13a10,10,0,0,0-2.44.81,5,5,0,0,0-1.57,1.14,2.72,2.72,0,0,0-.71,1.83,4.73,4.73,0,0,0,1,2.68,18.21,18.21,0,0,0,3.65,3.57c3.09,2.4,6.81,5.23,11,8.26l.08-.1-.06-.12.06.12Z" transform="translate(-7.23 -3.86)"/><path class="cls-19" d="M214.57,114.89c-11.31,4.37-29.57-1.16-46.54-10.67l-.39-.22c-1.56.87-1.29,3.13-1.29,3.13h0l.22.14c16.08,9.51,35.59,15.14,45.43,11.73,7.57-2.62,8.11-6,3.85-13.23,2.17,3.87,2.91,7.5-1.28,9.12Z" transform="translate(-7.23 -3.86)"/><path class="cls-18" d="M214.57,114.89l0-.12a25.27,25.27,0,0,1-9.09,1.51c-10.75,0-24.42-4.93-37.35-12.18l-.38-.22-.07,0-.06,0a2.57,2.57,0,0,0-1.15,1.44,4.51,4.51,0,0,0-.23,1.44,3.48,3.48,0,0,0,0,.39l.13,0h-.13v.08l.06,0,.23.14c12.87,7.62,27.94,12.75,38.53,12.75a21.59,21.59,0,0,0,7-1,14.12,14.12,0,0,0,5-2.64,4.69,4.69,0,0,0,1.61-3.61c0-1.91-.95-4.23-2.68-7.16l-.23.13a11.21,11.21,0,0,1,1.74,5.13,3.67,3.67,0,0,1-.67,2.2,5,5,0,0,1-2.27,1.6l0,.12.05.12a5.13,5.13,0,0,0,2.39-1.69,3.84,3.84,0,0,0,.71-2.35,11.49,11.49,0,0,0-1.76-5.26l-.11.06-.11.07c1.72,2.92,2.65,5.2,2.65,7a4.51,4.51,0,0,1-1.53,3.42,13.88,13.88,0,0,1-4.9,2.59,21.22,21.22,0,0,1-6.92,1c-10.51,0-25.56-5.12-38.4-12.72l-.23-.14-.06.11h.12v0s0-.17,0-.34a4.08,4.08,0,0,1,.21-1.35,2.34,2.34,0,0,1,1-1.3l-.07-.11-.06.11.39.22c12.95,7.26,26.65,12.2,37.47,12.21a25.59,25.59,0,0,0,9.18-1.53l-.05-.12Z" transform="translate(-7.23 -3.86)"/><path class="cls-22" d="M212.69,102l-.62-.67C207.79,96.85,201,90.64,194.27,85c-17.86-7.68-56.66-4.6-60.11-3a352.69,352.69,0,0,0,33.53,22c.07,0,25.2-5.33,45-1.94Z" transform="translate(-7.23 -3.86)"/><path class="cls-22" d="M212.69,102l.09-.09-.62-.66c-4.28-4.52-11.1-10.73-17.81-16.43h0c-8.91-3.83-23-5-35.29-5-6.24,0-12,.29-16.47.69-2.22.2-4.11.43-5.55.65-.72.12-1.33.23-1.82.34a5.46,5.46,0,0,0-1.08.33l-.2.09.18.13a351.64,351.64,0,0,0,33.54,22l0,0h.05A165,165,0,0,1,197.83,101a89.68,89.68,0,0,1,14.83,1.12l.38.07-.26-.28-.09.09,0-.13a89.29,89.29,0,0,0-14.88-1.13,165.13,165.13,0,0,0-30.16,3.07l0,.13.07-.12a348.64,348.64,0,0,1-33.52-22l-.08.11.06.11a6.05,6.05,0,0,1,1-.31,74.55,74.55,0,0,1,9.06-1.13c4.16-.32,9.27-.55,14.72-.55,12.3,0,26.34,1.16,35.19,5l.05-.12-.08.1c6.69,5.69,13.51,11.9,17.78,16.4l.62.66.1-.08,0-.13,0,.13Z" transform="translate(-7.23 -3.86)"/><path class="cls-2" d="M194.27,85c-7.82-6.64-15.47-12.59-18.72-14.32-6-3.21-20.49-4.5-27.77-5.52-10.93-1.54-18.95-1.79-24.58-1.18-.4.07-10.19,1.86,0,9.79C126.31,76.12,130,79,134.16,82c3.45-1.63,42.25-4.71,60.11,3Z" transform="translate(-7.23 -3.86)"/><path class="cls-2" d="M194.27,85l.08-.1c-3.91-3.32-7.77-6.47-11.07-9a66.28,66.28,0,0,0-7.67-5.33c-3.05-1.62-8.18-2.74-13.46-3.6S151.43,65.49,147.8,65a132.73,132.73,0,0,0-18.28-1.49,59.14,59.14,0,0,0-6.33.31h0a10.27,10.27,0,0,0-2.44.8,5.19,5.19,0,0,0-1.57,1.14,2.78,2.78,0,0,0-.71,1.84,4.68,4.68,0,0,0,1,2.68,17.84,17.84,0,0,0,3.64,3.56c3.09,2.41,6.81,5.23,11,8.26l.06,0,.07,0a6.05,6.05,0,0,1,1-.31,74.55,74.55,0,0,1,9.06-1.13c4.16-.32,9.27-.55,14.72-.55,12.3,0,26.34,1.16,35.19,5l.13-.22-.08.1,0-.12c-8.91-3.83-23-5-35.29-5-6.24,0-12,.29-16.47.69-2.22.2-4.11.43-5.55.65-.72.12-1.33.23-1.82.34a5.46,5.46,0,0,0-1.08.33l0,.12.08-.11c-4.14-3-7.85-5.85-10.94-8.25a18.24,18.24,0,0,1-3.6-3.51,4.49,4.49,0,0,1-1-2.53,2.47,2.47,0,0,1,.65-1.67,5.68,5.68,0,0,1,2.3-1.43,10.39,10.39,0,0,1,1.55-.43l0-.12,0,.13a58.55,58.55,0,0,1,6.3-.31,133.69,133.69,0,0,1,18.24,1.48c3.65.52,9.08,1.09,14.35,2s10.39,2,13.38,3.57a65.93,65.93,0,0,1,7.63,5.3c3.29,2.53,7.16,5.68,11.07,9l.08-.1,0-.12,0,.12Z" transform="translate(-7.23 -3.86)"/><path class="cls-21" d="M212.69,102c-19.8-3.39-44.93,1.92-45,1.94l.4.22c17,9.52,35.23,15,46.55,10.67,4.18-1.61,3.44-5.25,1.27-9.11q-1.35-1.71-3.22-3.72Z" transform="translate(-7.23 -3.86)"/><path class="cls-21" d="M212.69,102l0-.13a89.29,89.29,0,0,0-14.88-1.13,165.13,165.13,0,0,0-30.16,3.07l-.34.07.3.17.4.22c12.95,7.26,26.65,12.21,37.47,12.21a25.34,25.34,0,0,0,9.18-1.53,5.12,5.12,0,0,0,2.39-1.68,3.91,3.91,0,0,0,.72-2.35,11.51,11.51,0,0,0-1.77-5.26h0q-1.35-1.73-3.23-3.73l0,0h0l0,.13-.1.08c1.25,1.35,2.32,2.58,3.22,3.72l.1-.08-.11.06a11.33,11.33,0,0,1,1.73,5.14,3.61,3.61,0,0,1-.67,2.2,4.88,4.88,0,0,1-2.27,1.59,25.06,25.06,0,0,1-9.09,1.51c-10.74,0-24.42-4.92-37.34-12.17-.14-.07-.27-.15-.4-.23l-.07.12,0,.12A165,165,0,0,1,197.83,101a89.68,89.68,0,0,1,14.83,1.12l0-.12-.1.08.1-.08Z" transform="translate(-7.23 -3.86)"/><g class="cls-53"><rect class="cls-51" x="210.39" y="105.68" width="0.17" height="0.84"/></g><path class="cls-32" d="M217,107.55a10.6,10.6,0,0,1,.67,2,.69.69,0,0,1,0,.13,10.84,10.84,0,0,0-.72-2.12Z" transform="translate(-7.23 -3.86)"/><path class="cls-34" d="M159.05,80.1h0c-3.4,0-6.67.09-9.66.24,15.9,2.78,38.14,8.61,56.54,20.73,2.18.17,4.33.42,6.42.77l-.36-.39c-4.26-4.5-11.08-10.7-17.77-16.39-8.35-3.58-21.31-4.82-33.07-4.94h-2.08Z" transform="translate(-7.23 -3.86)"/><path class="cls-34" d="M161.13,80.12c11.76.12,24.72,1.36,33.07,4.94C200.89,90.75,207.71,97,212,101.45l.36.39.34,0c-.14-.16-.3-.32-.45-.48-4.29-4.53-11.13-10.76-17.85-16.47l-.05,0-.1.17c-8.35-3.59-21.32-4.83-33.09-4.95Zm-.46,0h0Zm-1.62,0h0c-3.4,0-6.67.09-9.66.24h0c3-.15,6.26-.24,9.66-.24Z" transform="translate(-7.23 -3.86)"/><path class="cls-15" d="M129.52,63.75a61.48,61.48,0,0,0-6.3.3,10.75,10.75,0,0,0-1.55.43,5.68,5.68,0,0,0-2.3,1.43,2.47,2.47,0,0,0-.65,1.67,4.49,4.49,0,0,0,1,2.53,18.24,18.24,0,0,0,3.6,3.51c1.67,1.3,3.54,2.73,5.55,4.25a175.87,175.87,0,0,1,19.37,2.27c3.29-.18,7-.29,10.81-.29,12,0,25.59,1.09,34.53,4.66-3.69-3.12-7.32-6.06-10.44-8.46a65.93,65.93,0,0,0-7.63-5.3c-3-1.6-8.11-2.72-13.38-3.57s-10.7-1.43-14.35-2a133.69,133.69,0,0,0-18.24-1.48Z" transform="translate(-7.23 -3.86)"/><path class="cls-15" d="M129.41,63.55a59.55,59.55,0,0,0-6.34.3,11.6,11.6,0,0,0-1.43.38q.72-.11,1.5-.18h0c-.31,0-6.09,1.1-4.26,5.13a14.59,14.59,0,0,0,4.21,4.5c1.65,1.28,3.48,2.69,5.45,4.18h.31c-2-1.52-3.88-3-5.55-4.25a18.24,18.24,0,0,1-3.6-3.51,4.49,4.49,0,0,1-1-2.53,2.47,2.47,0,0,1,.65-1.67,5.68,5.68,0,0,1,2.3-1.43,10.75,10.75,0,0,1,1.55-.43,61.48,61.48,0,0,1,6.3-.3,133.69,133.69,0,0,1,18.24,1.48c3.65.52,9.08,1.09,14.35,2s10.39,2,13.38,3.57a65.93,65.93,0,0,1,7.63,5.3c3.12,2.4,6.75,5.34,10.44,8.46C184.62,80.94,171,79.85,159,79.85c-3.84,0-7.52.11-10.81.29l1.15.2c3-.15,6.26-.24,9.66-.24h2.1c11.77.12,24.74,1.36,33.09,4.95l.1-.17,0,0,0,.07,0-.07c-7.82-6.64-15.46-12.57-18.71-14.3C169.52,67.36,155,66.06,147.73,65a134.85,134.85,0,0,0-18.32-1.48Z" transform="translate(-7.23 -3.86)"/><path class="cls-33" d="M206.36,101.36a88.64,88.64,0,0,1,11.1,8.71,13.21,13.21,0,0,0-1.66-4.25c-.88-1.13-1.94-2.35-3.18-3.68-2-.34-4.14-.6-6.26-.78Z" transform="translate(-7.23 -3.86)"/><path class="cls-33" d="M205.91,101.07l.45.29c2.12.18,4.22.44,6.26.78,1.24,1.33,2.3,2.55,3.18,3.68a13.21,13.21,0,0,1,1.66,4.25,3.83,3.83,0,0,1,.29.28,5.69,5.69,0,0,0-.13-.81,10.6,10.6,0,0,0-.67-2q-.37-.85-.87-1.74c-.9-1.15-2-2.39-3.24-3.74l-.14-.15V102l-.1.08.1-.08v-.11l0,0-.34,0c-2.09-.35-4.24-.6-6.42-.77Z" transform="translate(-7.23 -3.86)"/><path class="cls-36" d="M134.1,82.16a3.65,3.65,0,0,0-1.63,1.5,3.4,3.4,0,0,0-.4,1.66h0a4.58,4.58,0,0,0,.17,1.14.46.46,0,0,0,0,.09l6.43,3.84c4.22,1.53,8.71,3,13.35,4.17-6.41-4.19-12.54-8.5-18-12.46Z" transform="translate(-7.23 -3.86)"/><path class="cls-32" d="M132.27,86.61v0l.1.27,5.26,3.13,1.06.39-6.43-3.84Zm-.2-1.23a4.58,4.58,0,0,0,.17,1.14,4.58,4.58,0,0,1-.17-1.14Zm0,0h0Zm0,0h0Zm0,0h0Zm0,0Zm0,0Zm0,0h0Zm0,0h0Zm2.08-3.19a3.63,3.63,0,0,0-1.68,1.53,3.4,3.4,0,0,0-.4,1.66h0a3.4,3.4,0,0,1,.4-1.66,3.65,3.65,0,0,1,1.63-1.5c5.41,4,11.54,8.27,18,12.46l.15,0c-6.45-4.22-12.61-8.55-18-12.53Z" transform="translate(-7.23 -3.86)"/><path class="cls-35" d="M121.41,64.3a22.56,22.56,0,0,0-5.12,1.33,7.17,7.17,0,0,0-3.41,2.53,3.64,3.64,0,0,0-.6,2,6.56,6.56,0,0,0,1.85,4.12,36.3,36.3,0,0,0,6.49,5.08c3.1,2.07,7,4.48,11.33,7a4.21,4.21,0,0,1-.14-1.1,3.72,3.72,0,0,1,.43-1.78A3.86,3.86,0,0,1,133.86,82c-4.07-3-7.73-5.77-10.78-8.14a18.21,18.21,0,0,1-3.65-3.57,4.73,4.73,0,0,1-1-2.68,2.72,2.72,0,0,1,.71-1.83,5,5,0,0,1,1.57-1.14,5.67,5.67,0,0,1,.72-.32Z" transform="translate(-7.23 -3.86)"/><path class="cls-32" d="M121.57,64.24c-9.91,1.47-11.22,5.91-7.54,10.24,2.06,2.42,9.29,7.06,18.13,12.31l.22.14-.1-.27v0a.46.46,0,0,1,0-.09,4.58,4.58,0,0,1-.17-1.14h0a3.4,3.4,0,0,1,.4-1.66,3.63,3.63,0,0,1,1.68-1.53l0,0c-4.14-3-7.86-5.86-11-8.26-.69-.53-1.28-1-1.8-1.52a13.67,13.67,0,0,1-1.86-2.06,5.57,5.57,0,0,1-1-2c-.46-1.81.74-2.92,2-3.58l.19-.1a6.31,6.31,0,0,1,.66-.29,5.67,5.67,0,0,0-.72.32,5,5,0,0,0-1.57,1.14,2.72,2.72,0,0,0-.71,1.83,4.73,4.73,0,0,0,1,2.68,18.21,18.21,0,0,0,3.65,3.57c3,2.37,6.71,5.15,10.78,8.14a3.86,3.86,0,0,0-1.62,1.55,3.72,3.72,0,0,0-.43,1.78,4.21,4.21,0,0,0,.14,1.1c-4.31-2.56-8.23-5-11.33-7a36.3,36.3,0,0,1-6.49-5.08,6.56,6.56,0,0,1-1.85-4.12,3.64,3.64,0,0,1,.6-2,7.17,7.17,0,0,1,3.41-2.53,22.56,22.56,0,0,1,5.12-1.33l.16-.06Z" transform="translate(-7.23 -3.86)"/><path class="cls-15" d="M118.54,68.28a5.57,5.57,0,0,0,1,2,13.67,13.67,0,0,0,1.86,2.06,10.45,10.45,0,0,1-2.48-3.14,4.4,4.4,0,0,1-.34-.9Zm3.1-4h-.07l-.16.06h0a6.31,6.31,0,0,0-.66.29l-.19.1a9,9,0,0,1,1.09-.47Z" transform="translate(-7.23 -3.86)"/><path class="cls-38" d="M120.55,64.7c-1.27.66-2.47,1.77-2,3.58a2.89,2.89,0,0,1-.08-.7,2.78,2.78,0,0,1,.71-1.84,5.17,5.17,0,0,1,1.38-1Z" transform="translate(-7.23 -3.86)"/><path class="cls-39" d="M123.14,64.05q-.78.08-1.5.18a9,9,0,0,0-1.09.47,5.17,5.17,0,0,0-1.38,1,2.78,2.78,0,0,0-.71,1.84,2.89,2.89,0,0,0,.08.7,4.4,4.4,0,0,0,.34.9c-1.83-4,4-5.08,4.26-5.13Z" transform="translate(-7.23 -3.86)"/></svg>