<svg id="Layer_1" data-name="Layer 1" xmlns="http://www.w3.org/2000/svg" viewBox="0 0 138.89 150.06"><defs><style>.cls-1{fill:#ffdda8;}.cls-2{fill:#bc7c46;}.cls-3{fill:#dda866;}.cls-4{fill:#4f2e16;}.cls-5{fill:#f9c98a;}.cls-6{fill:#373a3f;}.cls-7{fill:#14161a;}.cls-8{fill:#403e3f;}.cls-9{fill:#4c4c4c;}.cls-10{fill:#5b5a5b;}.cls-11{fill:#cad2da;}.cls-12{fill:#fff;}.cls-13{fill:#969696;}.cls-14{fill:#e2e2e2;}.cls-15{fill:#848484;}.cls-16{fill:#a1a5a8;}.cls-17{fill:#11ad00;}.cls-18{fill:#23201d;}.cls-19{fill:#b0b9c1;}</style></defs><path class="cls-1" d="M241.79,154.32l-28.35,16.36-4.69,2.72-.47.28L204,176.17,173.1,194,201,210.07l12.13,7,30.21,17.44L274,216.81l4.51-2.6.47-.28,4.54-2.62L312,194.87l0,0Z" transform="translate(-173.1 -154.32)"/><polygon class="cls-2" points="70.2 80.19 70.2 150.06 40.06 132.8 27.86 125.82 0 109.85 0 39.67 70.2 80.19"/><path class="cls-3" d="M283.48,211.32,278.87,214l-.47.26L274,216.83,243.3,234.52v69.86L274,286.79l9.52-5.47L312,265V194.87Z" transform="translate(-173.1 -154.32)"/><polygon class="cls-4" points="76.19 135.22 75.72 135.49 75.72 127.31 76.19 127.04 76.19 135.22"/><polygon class="cls-4" points="77.87 127.87 77.54 128.44 75.95 127.39 74.38 130.26 74.04 130.08 75.95 126.59 77.87 127.87"/><polygon class="cls-4" points="80.89 132.5 80.42 132.78 80.42 124.6 80.89 124.33 80.89 132.5"/><polygon class="cls-4" points="82.58 125.16 82.22 125.72 80.66 124.67 79.08 127.54 78.73 127.37 80.66 123.88 82.58 125.16"/><path class="cls-4" d="M255.8,286.06,247,291.13c-.13.07-.24,0-.24-.14a.52.52,0,0,1,.24-.41l8.78-5.06c.12-.08.23,0,.23.13A.56.56,0,0,1,255.8,286.06Z" transform="translate(-173.1 -154.32)"/><path class="cls-4" d="M255.72,288.27l-8.62,5c-.92.53-1.66.1-1.66-.95v-9.95a3.61,3.61,0,0,1,1.66-2.85l8.62-5c.9-.52,1.64-.09,1.64,1v10A3.64,3.64,0,0,1,255.72,288.27ZM247.1,280a2.6,2.6,0,0,0-1.18,2V292c0,.75.53,1.05,1.18.68l8.62-5a2.54,2.54,0,0,0,1.16-2l0-10c0-.75-.54-1.06-1.18-.68Z" transform="translate(-173.1 -154.32)"/><path class="cls-4" d="M270.5,280.13l-8.87,5.13c-.94.54-1.69.09-1.69-1V274a3.74,3.74,0,0,1,1.69-2.94L270.5,266c.93-.54,1.68-.1,1.68,1v10.25A3.73,3.73,0,0,1,270.5,280.13Zm-8.87-8.47a2.66,2.66,0,0,0-1.21,2.1V284c0,.77.53,1.08,1.21.7l8.87-5.12a2.7,2.7,0,0,0,1.21-2.1V267.24c0-.77-.55-1.08-1.21-.69Z" transform="translate(-173.1 -154.32)"/><path class="cls-4" d="M266.06,279.91c-.14.07-.25,0-.25-.15v-7.33a.54.54,0,0,1,.25-.42c.13-.08.24,0,.24.14v7.34A.56.56,0,0,1,266.06,279.91Z" transform="translate(-173.1 -154.32)"/><path class="cls-4" d="M267.15,279.27,265,280.54a.15.15,0,0,1-.25-.14A.54.54,0,0,1,265,280l2.19-1.27c.14-.08.24,0,.24.14A.53.53,0,0,1,267.15,279.27Z" transform="translate(-173.1 -154.32)"/><path class="cls-4" d="M268.39,270v3.43a3.2,3.2,0,0,1-1.45,2.51l-1.77,1c-.79.46-1.44.08-1.44-.84v-3.43l.87-.5v3.66c0,.16.11.23.24.15a.57.57,0,0,0,.25-.42V271.9Z" transform="translate(-173.1 -154.32)"/><path class="cls-5" d="M241.79,155.39,175,194l68.34,39.17,66.83-38.3Z" transform="translate(-173.1 -154.32)"/><polygon class="cls-2" points="138.87 41.25 138.87 41.8 70.2 81.44 70.2 80.9 138.87 41.25"/><polygon class="cls-2" points="105.85 59.61 105.39 59.89 35.18 19.36 35.64 19.08 105.85 59.61"/><polygon class="cls-2" points="105.77 59.68 105.77 60.8 105.29 60.8 105.29 59.94 105.77 59.68"/><rect class="cls-6" x="100.44" y="39.93" width="0.54" height="1.37"/><rect class="cls-6" x="0.39" y="30.72" width="0.98" height="1.22"/><path class="cls-6" d="M272.67,193.64c1.89,1.09,1.89,2.87,0,4l-37.35,21.57a7.63,7.63,0,0,1-6.87,0l-53.54-30.92c-1.9-1.09-1.9-2.87,0-4l37.35-21.56a7.54,7.54,0,0,1,6.86,0Z" transform="translate(-173.1 -154.32)"/><path class="cls-7" d="M272.67,192.44c1.89,1.1,1.89,2.88,0,4L235.32,218a7.63,7.63,0,0,1-6.87,0l-53.54-30.92c-1.9-1.09-1.9-2.87,0-4l37.35-21.57a7.6,7.6,0,0,1,6.86,0Z" transform="translate(-173.1 -154.32)"/><path class="cls-8" d="M208.34,169.21a1.33,1.33,0,0,1,0,2.51l-15.79,9.11a4.79,4.79,0,0,1-4.36,0h0a1.33,1.33,0,0,1,0-2.51L204,169.21a4.79,4.79,0,0,1,4.36,0Z" transform="translate(-173.1 -154.32)"/><path class="cls-9" d="M207,170.37c.48.28.48.73,0,1a1.91,1.91,0,0,1-1.74,0c-.48-.27-.48-.72,0-1A1.91,1.91,0,0,1,207,170.37Z" transform="translate(-173.1 -154.32)"/><path class="cls-10" d="M206.84,170.46a.43.43,0,0,1,0,.82,1.59,1.59,0,0,1-1.41,0,.43.43,0,0,1,0-.82A1.59,1.59,0,0,1,206.84,170.46Z" transform="translate(-173.1 -154.32)"/><path class="cls-7" d="M206.51,170.66c.21.11.21.31,0,.43a.83.83,0,0,1-.75,0,.23.23,0,0,1,0-.43A.83.83,0,0,1,206.51,170.66Z" transform="translate(-173.1 -154.32)"/><path class="cls-9" d="M191.83,179.13a.53.53,0,0,1,0,1,2,2,0,0,1-1.74,0,.53.53,0,0,1,0-1A1.91,1.91,0,0,1,191.83,179.13Z" transform="translate(-173.1 -154.32)"/><path class="cls-10" d="M191.66,179.23c.39.23.39.59,0,.81a1.53,1.53,0,0,1-1.41,0c-.39-.22-.39-.58,0-.81A1.59,1.59,0,0,1,191.66,179.23Z" transform="translate(-173.1 -154.32)"/><path class="cls-7" d="M191.33,179.42a.23.23,0,0,1,0,.43.83.83,0,0,1-.75,0,.23.23,0,0,1,0-.43A.83.83,0,0,1,191.33,179.42Z" transform="translate(-173.1 -154.32)"/><path class="cls-10" d="M207,167.85c.33.19.33.48,0,.67l-20,11.56a1.31,1.31,0,0,1-1.16,0h0c-.33-.19-.33-.49,0-.67l20-11.56a1.25,1.25,0,0,1,1.16,0Z" transform="translate(-173.1 -154.32)"/><rect class="cls-10" x="33.92" y="13.44" width="0.24" height="0.43"/><rect class="cls-10" x="12.5" y="25.01" width="0.25" height="0.36"/><polygon class="cls-11" points="95.73 39.64 58.49 61.14 7.22 31.54 7.22 31.28 44.46 10.04 95.73 39.39 95.73 39.64"/><polygon class="cls-12" points="95.73 39.39 58.49 60.88 7.22 31.28 44.46 9.79 95.73 39.39"/><polygon class="cls-13" points="53.9 21.03 28.07 35.95 27.49 35.62 53.33 20.7 53.9 21.03"/><polygon class="cls-13" points="59.66 24.52 33.83 39.44 33.26 39.11 59.09 24.19 59.66 24.52"/><polygon class="cls-13" points="65.44 28.01 39.6 42.93 39.02 42.6 64.86 27.68 65.44 28.01"/><polygon class="cls-13" points="71.2 31.5 45.36 46.42 44.79 46.09 70.63 31.17 71.2 31.5"/><polygon class="cls-14" points="49.24 18.08 23.87 32.74 20.54 30.82 45.92 16.17 49.24 18.08"/><path class="cls-15" d="M186.2,182.67a.81.81,0,0,1-.37-.08,1.85,1.85,0,0,1-1-1.45c0-.94.77-1.87,2.47-2.84l18.4-10.61a5.22,5.22,0,0,1,2.66-.76,4.74,4.74,0,0,1,2.57.74.49.49,0,0,1,.21.57C210.64,170.13,189,182.67,186.2,182.67Zm0-.79h0c2.17,0,22.29-11.49,24.07-13.68a4,4,0,0,0-1.91-.48,4.43,4.43,0,0,0-2.26.66L187.69,179c-1.82,1-2.08,1.77-2.07,2.11A1,1,0,0,0,186.19,181.88Z" transform="translate(-173.1 -154.32)"/><path class="cls-16" d="M207,167.45c.33.19.33.49,0,.67l-20,11.56a1.25,1.25,0,0,1-1.16,0h0a.35.35,0,0,1,0-.67l20-11.56a1.28,1.28,0,0,1,1.16,0Z" transform="translate(-173.1 -154.32)"/><polygon class="cls-17" points="67.63 41.5 80.86 43.09 71.12 30.16 74.64 39.49 67.63 41.5"/><polygon class="cls-18" points="70.03 14.05 68.41 13.35 68.26 13.48 68.21 13.71 69.71 14.74 70.03 14.05"/><polygon class="cls-11" points="70.03 14.05 68.63 13.45 68.39 13.83 69.71 14.74 70.03 14.05"/><polygon class="cls-15" points="75.01 17.36 73.61 18.5 69.33 14.92 69.46 14.16 70.05 13.67 75.3 15.58 75.01 17.36"/><path class="cls-16" d="M247.85,172.06l.75-1.52c-.25-.14-4.15-1.61-5.65-2.38l-.34.28C243.58,169.11,247,171.68,247.85,172.06Z" transform="translate(-173.1 -154.32)"/><path class="cls-7" d="M278.21,187.11,276.52,190l-29.73-17.17a.83.83,0,0,1-.36-.77,2.68,2.68,0,0,1,.51-1.43,2.44,2.44,0,0,1,.69-.64.21.21,0,0,1,.1,0,.79.79,0,0,1,.74-.05Z" transform="translate(-173.1 -154.32)"/><path class="cls-7" d="M278.56,187.89c0-.76-.54-1.07-1.19-.69a2.63,2.63,0,0,0-1.2,2.07c0,.76.54,1.06,1.2.69A2.68,2.68,0,0,0,278.56,187.89Z" transform="translate(-173.1 -154.32)"/><path class="cls-7" d="M283,189.14l-.31.54-1.15,2-.73,1.26-13.32-7.36a1.87,1.87,0,0,1-.44-1,2.83,2.83,0,0,1,.25-1.11,3.27,3.27,0,0,1,1.29-1.55,2,2,0,0,1,.34-.15,1,1,0,0,1,.75,0Z" transform="translate(-173.1 -154.32)"/><path class="cls-6" d="M282.7,189.68l-1.15,2-14.24-8.22a3.27,3.27,0,0,1,1.29-1.55,2,2,0,0,1,.34-.15Z" transform="translate(-173.1 -154.32)"/><path class="cls-6" d="M273.82,185l-.85.66-26-15a2.44,2.44,0,0,1,.69-.64.21.21,0,0,1,.1,0Z" transform="translate(-173.1 -154.32)"/><path class="cls-7" d="M283.46,190.14c0-1-.69-1.38-1.54-.89a3.41,3.41,0,0,0-1.54,2.66c0,1,.68,1.39,1.54.9A3.41,3.41,0,0,0,283.46,190.14Z" transform="translate(-173.1 -154.32)"/><path class="cls-11" d="M283,190.41c0-.69-.48-1-1.07-.62a2.38,2.38,0,0,0-1.08,1.86c0,.68.48,1,1.08.62A2.37,2.37,0,0,0,283,190.41Z" transform="translate(-173.1 -154.32)"/><path class="cls-19" d="M279.06,191.79c0,.26-.18.36-.4.23l-12.83-7.39a.93.93,0,0,1-.4-.71h0c0-.25.18-.36.4-.23l12.83,7.41a.88.88,0,0,1,.4.69Z" transform="translate(-173.1 -154.32)"/><polygon class="cls-19" points="105.46 37.98 105.87 37.7 105.66 37.07 105.12 37.45 105.46 37.98"/><path class="cls-19" d="M265.1,184l.42-.29s.41.24.37.29l-.54.43Z" transform="translate(-173.1 -154.32)"/><path class="cls-11" d="M278.65,192.06c0,.26-.18.37-.4.24l-12.83-7.4a.92.92,0,0,1-.4-.7h0c0-.26.19-.37.4-.23l12.83,7.4a.89.89,0,0,1,.4.69Z" transform="translate(-173.1 -154.32)"/></svg>