<svg width="25" height="19" viewBox="0 0 25 19" fill="none" xmlns="http://www.w3.org/2000/svg">
<path d="M3.3307 11.912L3.51485 11.7429L3.51482 11.7429L3.3307 11.912ZM4.09663 12.2495L4.09689 12.4995L4.09698 12.4995L4.09663 12.2495ZM9.19586 12.2425L9.19621 12.4925L9.19621 12.4925L9.19586 12.2425ZM10.2408 11.9915L10.1277 11.7686L10.1276 11.7686L10.2408 11.9915ZM21.6065 6.22384L21.4934 6.0009L21.4934 6.0009L21.6065 6.22384ZM24.1273 4.03385L23.917 3.89865L23.917 3.89866L24.1273 4.03385ZM24.6242 1.7939L24.4001 1.90477L24.4003 1.90511L24.6242 1.7939ZM22.5566 0.859917L22.5728 0.610445L22.5728 0.610444L22.5566 0.859917ZM0.357326 8.67491L0.165222 8.83533L0.173209 8.84402L0.357326 8.67491ZM0.500371 7.96619L0.387214 7.74326L0.387201 7.74327L0.500371 7.96619ZM2.06789 7.17051L1.95479 6.94755L1.95474 6.94758L2.06789 7.17051ZM2.26887 7.12231L2.26859 6.87231L2.26855 6.87231L2.26887 7.12231ZM2.46998 7.17001L2.35745 7.39325L2.35745 7.39325L2.46998 7.17001ZM5.29616 8.59463L5.18363 8.81787L5.18363 8.81787L5.29616 8.59463ZM5.40908 8.65155L5.29655 8.87479L5.40947 8.93171L5.52223 8.87448L5.40908 8.65155ZM5.52184 8.59432L5.4087 8.37138L5.4087 8.37138L5.52184 8.59432ZM9.55348 6.54822L9.44034 6.32528L9.44034 6.32528L9.55348 6.54822ZM9.94723 6.34839L10.0604 6.57132L10.4541 6.37149L10.0802 6.13667L9.94723 6.34839ZM9.57329 6.11357L9.70625 5.90185L9.70624 5.90185L9.57329 6.11357ZM3.50302 2.30169L3.30759 2.45759L3.33409 2.49081L3.37007 2.5134L3.50302 2.30169ZM3.653 1.60178L3.76606 1.82475L3.76615 1.82471L3.653 1.60178ZM6.22145 0.298218L6.3346 0.52115L6.3346 0.521149L6.22145 0.298218ZM6.45038 0.250849L6.46577 0.00132345L6.46577 0.00132314L6.45038 0.250849ZM6.67175 0.325986L6.53207 0.533325L6.53209 0.533336L6.67175 0.325986ZM6.69611 0.342394L6.55645 0.549744L6.58079 0.566139L6.60826 0.576451L6.69611 0.342394ZM6.7236 0.352712L6.63575 0.586794L6.63921 0.588038L6.7236 0.352712ZM15.4156 3.73533C15.5456 3.78193 15.6887 3.71436 15.7353 3.58439C15.7819 3.45442 15.7144 3.31128 15.5844 3.26467L15.4156 3.73533ZM15.3544 3.32412C15.2312 3.3866 15.1821 3.53706 15.2446 3.66019C15.307 3.78331 15.4575 3.83247 15.5806 3.76999L15.3544 3.32412ZM19.3155 1.59435L19.2024 1.37138L19.2024 1.37141L19.3155 1.59435ZM3.14656 12.0811C3.39182 12.3482 3.73634 12.4999 4.09689 12.4995L4.09638 11.9995C3.87691 11.9997 3.66591 11.9074 3.51485 11.7429L3.14656 12.0811ZM4.09698 12.4995L9.19621 12.4925L9.19552 11.9925L4.09629 11.9995L4.09698 12.4995ZM9.19621 12.4925C9.59863 12.492 9.99526 12.3967 10.354 12.2144L10.1276 11.7686C9.83873 11.9154 9.51944 11.9921 9.19552 11.9925L9.19621 12.4925ZM10.3539 12.2144L21.7196 6.44677L21.4934 6.0009L10.1277 11.7686L10.3539 12.2144ZM21.7196 6.44677C22.7642 5.91669 23.7005 5.16004 24.3376 4.16903L23.917 3.89866C23.3379 4.79959 22.4768 5.50186 21.4934 6.0009L21.7196 6.44677ZM24.3376 4.16904C25.0531 3.05614 25.1305 2.25117 24.8481 1.68268L24.4003 1.90511C24.5677 2.24216 24.5925 2.84793 23.917 3.89865L24.3376 4.16904ZM24.8483 1.68303C24.5668 1.11423 23.8823 0.695642 22.5728 0.610445L22.5404 1.10939C23.7737 1.18963 24.2346 1.57016 24.4001 1.90477L24.8483 1.68303ZM3.51482 11.7429L0.541444 8.50579L0.173209 8.84402L3.14659 12.0811L3.51482 11.7429ZM0.549217 8.51466C0.461268 8.40934 0.496358 8.24859 0.613542 8.1891L0.387201 7.74327C-0.0184652 7.94922 -0.127127 8.48481 0.165436 8.83515L0.549217 8.51466ZM0.613529 8.18911L2.18105 7.39343L1.95474 6.94758L0.387214 7.74326L0.613529 8.18911ZM2.181 7.39346C2.20833 7.37959 2.23855 7.37234 2.2692 7.37231L2.26855 6.87231C2.15952 6.87245 2.05204 6.89822 1.95479 6.94755L2.181 7.39346ZM2.26916 7.37231C2.29983 7.37227 2.33007 7.37944 2.35745 7.39325L2.58252 6.94676C2.48516 6.89769 2.37762 6.87218 2.26859 6.87231L2.26916 7.37231ZM2.35745 7.39325L5.18363 8.81787L5.4087 8.37138L2.58252 6.94676L2.35745 7.39325ZM5.18363 8.81787L5.29655 8.87479L5.52161 8.4283L5.4087 8.37138L5.18363 8.81787ZM5.52223 8.87448L5.63499 8.81725L5.4087 8.37138L5.29594 8.42861L5.52223 8.87448ZM5.63499 8.81725L9.66662 6.77115L9.44034 6.32528L5.4087 8.37138L5.63499 8.81725ZM9.66662 6.77115L10.0604 6.57132L9.83409 6.12545L9.44034 6.32528L9.66662 6.77115ZM10.0802 6.13667L9.70625 5.90185L9.44034 6.32528L9.81428 6.5601L10.0802 6.13667ZM9.70624 5.90185L3.63597 2.08997L3.37007 2.5134L9.44034 6.32528L9.70624 5.90185ZM3.69846 2.14578C3.615 2.04116 3.65029 1.88345 3.76606 1.82475L3.53994 1.3788C3.13715 1.58304 3.02959 2.10911 3.30759 2.45759L3.69846 2.14578ZM3.76615 1.82471L6.3346 0.52115L6.10831 0.0752868L3.53986 1.37884L3.76615 1.82471ZM6.44438 0.18507L6.33123 -0.0378616L5.88538 0.188435L5.99852 0.411367L6.44438 0.18507ZM6.3346 0.521149C6.36562 0.505406 6.40027 0.498235 6.435 0.500376L6.46577 0.00132314C6.34215 -0.00629795 6.21875 0.0192342 6.10831 0.0752876L6.3346 0.521149ZM6.435 0.500375C6.46971 0.502516 6.50323 0.513893 6.53207 0.533325L6.81144 0.118648C6.70872 0.0494494 6.58938 0.00894652 6.46577 0.00132345L6.435 0.500375ZM6.53209 0.533336L6.55645 0.549744L6.83578 0.135045L6.81142 0.118637L6.53209 0.533336ZM6.60826 0.576451L6.63575 0.586769L6.81145 0.118656L6.78396 0.108338L6.60826 0.576451ZM6.63921 0.588038L15.4156 3.73533L15.5844 3.26467L6.80799 0.117386L6.63921 0.588038ZM15.5806 3.76999C16.332 3.3887 17.294 2.90053 18.0682 2.50767C18.4552 2.31124 18.7954 2.13865 19.0387 2.01516C19.1604 1.95341 19.2579 1.90394 19.3249 1.86991C19.3584 1.85291 19.3844 1.83973 19.4019 1.83083C19.4107 1.82637 19.4174 1.82301 19.4219 1.82072C19.424 1.81963 19.4259 1.81867 19.4269 1.81815C19.4274 1.81793 19.428 1.81758 19.4282 1.8175C19.4283 1.81746 19.4283 1.81743 19.4284 1.81741C19.4284 1.81738 19.4285 1.81736 19.4285 1.81734C19.4286 1.81732 19.4286 1.81731 19.4286 1.8173C19.4286 1.81729 19.4286 1.81728 19.3155 1.59435C19.2024 1.37141 19.2024 1.37141 19.2023 1.37142C19.2023 1.37143 19.2023 1.37144 19.2023 1.37146C19.2022 1.37148 19.2022 1.3715 19.2021 1.37153C19.2021 1.37156 19.202 1.37159 19.2019 1.37162C19.2015 1.37184 19.2014 1.37192 19.2007 1.37227C19.1994 1.3729 19.1979 1.37366 19.1956 1.37485C19.1911 1.37711 19.1844 1.38052 19.1757 1.38496C19.1581 1.39387 19.1322 1.40701 19.0987 1.42404C19.0316 1.45807 18.9341 1.50753 18.8124 1.56928C18.5691 1.69277 18.229 1.86537 17.8419 2.0618C17.0677 2.45465 16.1057 2.94283 15.3544 3.32412L15.5806 3.76999ZM19.4286 1.81732C20.4122 1.3185 21.4829 1.04067 22.5404 1.10939L22.5728 0.610444C21.4069 0.534668 20.247 0.841691 19.2024 1.37138L19.4286 1.81732ZM0.625105 16.7503H24.3751V16.2503H0.625105V16.7503ZM24.3751 16.7503C24.4443 16.7503 24.5001 16.8061 24.5001 16.8753H25.0001C25.0001 16.5299 24.7205 16.2503 24.3751 16.2503V16.7503ZM24.5001 16.8753V18.1253H25.0001V16.8753H24.5001ZM24.5001 18.1253C24.5001 18.1945 24.4443 18.2503 24.3751 18.2503V18.7503C24.7205 18.7503 25.0001 18.4705 25.0001 18.1253H24.5001ZM24.3751 18.2503H0.625105V18.7503H24.3751V18.2503ZM0.625105 18.2503C0.555953 18.2503 0.500105 18.1945 0.500105 18.1253H0.000105409C0.000105409 18.4706 0.279775 18.7503 0.625105 18.7503V18.2503ZM0.500105 18.1253V16.8753H0.000105409V18.1253H0.500105ZM0.500105 16.8753C0.500105 16.8061 0.55591 16.7503 0.625105 16.7503V16.2503C0.279819 16.2503 0.000105409 16.5299 0.000105409 16.8753H0.500105Z" fill="black"/>
</svg>
