<svg width="172" height="52" viewBox="0 0 172 52" fill="none" xmlns="http://www.w3.org/2000/svg">
<g opacity="0.3">
<path d="M18.259 49.4729C18.363 49.9768 18.662 50.4193 19.09 50.7045C19.301 50.8476 19.539 50.945 19.79 50.9905C20.041 51.0359 20.299 51.0284 20.546 50.9685L79.675 37.7724L78.795 33.8624L17.809 47.469L18.259 49.4924" fill="white"/>
<path d="M9.37402 43.9403C9.48002 44.4406 9.77802 44.8792 10.205 45.1621C10.413 45.3072 10.649 45.4066 10.899 45.4538C11.148 45.501 11.404 45.4948 11.651 45.4358L78.12 30.6073L77.25 26.6974L8.97302 41.9364L9.42302 43.9598" fill="white"/>
<path d="M0.459 38.4077C0.508 38.6568 0.607 38.8934 0.75 39.1034C0.893 39.3133 1.07601 39.4923 1.29001 39.6296C1.49901 39.773 1.736 39.8707 1.985 39.9162C2.234 39.9617 2.49 39.9539 2.737 39.8935L76.478 23.4424L75.598 19.5325L0 36.4039L0.459 38.4371" fill="white"/>
</g>
<path d="M168.233 7.64725C167.187 7.22877 166.102 6.8492 164.968 6.49884C162.676 5.78165 160.339 5.21599 157.974 4.80547C152.452 3.83227 146.804 3.6863 142.473 4.66924L72.073 20.4449C71.911 20.5264 71.731 20.5665 71.55 20.5617L32.257 29.4081H32.189L31.83 29.4665C31.002 29.6584 30.27 30.1438 29.769 30.8337C29.268 31.5235 29.031 32.3717 29.101 33.2229C29.172 34.074 29.545 34.8711 30.153 35.4681C30.761 36.0651 31.563 36.4221 32.412 36.4736C45.974 39.2862 72.015 39.909 82.613 37.5344L110.368 31.2961L129.608 26.9848L146.532 23.1893C156.511 20.951 165.365 17.3501 168.959 14.9852C169.661 14.6191 170.236 14.0503 170.612 13.3523C170.989 12.6542 171.148 11.8589 171.07 11.0691C170.991 10.2792 170.679 9.53102 170.174 8.92108C169.668 8.31113 168.992 7.86744 168.233 7.64725Z" fill="#CE1C31"/>
<path d="M159 5H158L152.089 6.0934L152.819 9L165.089 6.53074C163.5 6 161.255 5.36019 159 5Z" fill="#3A383E"/>
<path d="M150.91 6.3L148 6.903L148.696 9.8L151.606 9.197L150.91 6.3Z" fill="#3A383E"/>
<path d="M47.089 38.4065C60.095 39.3664 75.126 39.2128 82.569 37.5713L110.344 31.4181L129.591 27.1655L146.522 23.4217C156.504 21.2138 165.362 17.662 168.957 15.3293C169.732 14.9322 170.352 14.2919 170.72 13.5085C171.089 12.7252 171.184 11.843 170.992 11L47.089 38.4065Z" fill="#3A383E"/>
<path d="M51.682 39L171.069 11.5341C171.155 10.6501 170.962 9.76104 170.517 9L43.089 38C45.837 38.2893 48.74 38.8404 51.682 39Z" fill="white"/>
<path d="M106.198 36L119.089 33.282L117.37 26L104.479 28.7087L101.089 30.5918L102.307 35.731L106.198 36Z" fill="#CE1C31"/>
<path d="M111.05 15.0588C110.567 15.1655 110.126 15.4131 109.784 15.7704C109.442 16.1276 109.213 16.5784 109.127 17.0657C109.041 17.553 109.102 18.0548 109.301 18.5076C109.5 18.9604 109.83 19.3439 110.247 19.6094C110.665 19.875 111.152 20.0107 111.646 19.9993C112.141 19.988 112.621 19.8301 113.026 19.5457C113.431 19.2613 113.742 18.8632 113.921 18.4017C114.099 17.9402 114.137 17.4361 114.029 16.9533C113.884 16.3077 113.489 15.7457 112.931 15.3906C112.372 15.0355 111.696 14.9161 111.05 15.0588Z" fill="white"/>
<path d="M103.589 22C104.97 22 106.089 20.8807 106.089 19.5C106.089 18.1193 104.97 17 103.589 17C102.208 17 101.089 18.1193 101.089 19.5C101.089 20.8807 102.208 22 103.589 22Z" fill="white"/>
<path d="M95.05 19.0588C94.567 19.1655 94.126 19.4131 93.784 19.7704C93.442 20.1277 93.2129 20.5785 93.1269 21.0657C93.0409 21.553 93.102 22.0548 93.301 22.5076C93.5 22.9604 93.8299 23.3439 94.2469 23.6094C94.6649 23.875 95.152 24.0107 95.646 23.9993C96.141 23.988 96.621 23.8302 97.026 23.5458C97.431 23.2613 97.742 22.8632 97.921 22.4017C98.099 21.9402 98.137 21.4362 98.028 20.9533C97.884 20.3077 97.489 19.7457 96.931 19.3906C96.372 19.0354 95.696 18.9161 95.05 19.0588Z" fill="white"/>
<path d="M86.041 21.0628C85.558 21.1711 85.119 21.42 84.778 21.7778C84.437 22.1357 84.2099 22.5865 84.1259 23.0734C84.0409 23.5602 84.103 24.0611 84.303 24.5129C84.503 24.9647 84.833 25.347 85.25 25.6116C85.668 25.8761 86.154 26.0111 86.649 25.9993C87.143 25.9875 87.622 25.8296 88.027 25.5455C88.431 25.2613 88.742 24.8637 88.92 24.4029C89.099 23.9421 89.137 23.4388 89.029 22.9566C88.959 22.6353 88.825 22.3312 88.637 22.0618C88.448 21.7924 88.208 21.563 87.93 21.3869C87.652 21.2108 87.3419 21.0915 87.0179 21.0359C86.6929 20.9802 86.361 20.9894 86.041 21.0628Z" fill="white"/>
<path d="M111.589 19C112.417 19 113.089 18.3284 113.089 17.5C113.089 16.6716 112.417 16 111.589 16C110.761 16 110.089 16.6716 110.089 17.5C110.089 18.3284 110.761 19 111.589 19Z" fill="#3A383E"/>
<path d="M103.589 21C104.417 21 105.089 20.3284 105.089 19.5C105.089 18.6716 104.417 18 103.589 18C102.761 18 102.089 18.6716 102.089 19.5C102.089 20.3284 102.761 21 103.589 21Z" fill="#3A383E"/>
<path d="M95.589 23C96.417 23 97.089 22.3284 97.089 21.5C97.089 20.6716 96.417 20 95.589 20C94.761 20 94.089 20.6716 94.089 21.5C94.089 22.3284 94.761 23 95.589 23Z" fill="#3A383E"/>
<path d="M86.589 25C87.417 25 88.089 24.3284 88.089 23.5C88.089 22.6716 87.417 22 86.589 22C85.761 22 85.089 22.6716 85.089 23.5C85.089 24.3284 85.761 25 86.589 25Z" fill="#3A383E"/>
<path d="M102 33.2886L102.605 35.7464L106.406 36L119 33.4373L118.155 30L102 33.2886Z" fill="#3A383E"/>
<path d="M115.047 30.3442C115.15 30.7883 115.062 31.2525 114.801 31.6356C114.541 32.0187 114.13 32.2896 113.657 32.3891L82.313 38.9589C82.079 39.008 81.837 39.0132 81.6 38.9741C81.364 38.935 81.138 38.8525 80.936 38.7313C80.733 38.6101 80.558 38.4525 80.421 38.2677C80.284 38.0829 80.187 37.8744 80.135 37.6542C80.081 37.4348 80.075 37.2076 80.115 36.9857C80.155 36.7638 80.242 36.5516 80.371 36.3614C80.499 36.1712 80.666 36.0068 80.863 35.8777C81.059 35.7486 81.281 35.6574 81.515 35.6093L112.859 29.0395C113.333 28.9427 113.829 29.0254 114.239 29.2697C114.648 29.514 114.939 29.9001 115.047 30.3442Z" fill="white"/>
<mask id="mask0_1_343" style="mask-type:alpha" maskUnits="userSpaceOnUse" x="20" y="0" width="56" height="30">
<path d="M75.649 20.52C74.649 21.26 53.959 19.45 53.959 19.45L27.459 0L20.089 1.64001L34.479 29.73L75.649 20.52Z" fill="white"/>
</mask>
<g mask="url(#mask0_1_343)">
<path d="M68.408 -16.8477L7.08899 -3.0625L15.233 33.1636L76.552 19.3784L68.408 -16.8477Z" fill="white"/>
<path d="M69.639 -11.3776L8.37799 2.39442L9.02199 5.25685L70.282 -8.51513L69.639 -11.3776Z" fill="#CE1C31"/>
<path d="M70.898 -5.77626L9.63699 7.99573L10.28 10.8582L71.541 -2.91383L70.898 -5.77626Z" fill="#CE1C31"/>
<path d="M72.156 -0.177612L10.895 13.5944L11.539 16.4568L72.799 2.68481L72.156 -0.177612Z" fill="#CE1C31"/>
<path d="M73.414 5.42113L12.154 19.1931L12.797 22.0555L74.058 8.28356L73.414 5.42113Z" fill="#CE1C31"/>
<path d="M74.685 11.0317L13.424 24.8037L14.067 27.6661L75.328 13.8942L74.685 11.0317Z" fill="#CE1C31"/>
<path d="M75.943 16.6305L14.682 30.4025L15.326 33.2649L76.587 19.4929L75.943 16.6305Z" fill="#CE1C31"/>
<path d="M37.065 -10.0219L9.46198 -3.81628L13.887 15.8688L41.491 9.6632L37.065 -10.0219Z" fill="#3A383E"/>
<path d="M33.925 -2.23633L33.853 -1.38262L33.012 -1.19024L33.805 -0.841536L33.721 0.0121708L34.286 -0.637127L35.08 -0.288431L34.635 -1.03392L35.2 -1.68322L34.37 -1.49084L33.925 -2.23633Z" fill="white"/>
<path d="M34.815 1.70764L34.743 2.57337L33.901 2.75374L34.695 3.10243L34.611 3.95614L35.176 3.31887L35.97 3.65554L35.525 2.91005L36.09 2.26075L35.26 2.45313L34.815 1.70764Z" fill="white"/>
<path d="M35.705 5.65149L35.621 6.51722L34.791 6.69758L35.573 7.04628L35.501 7.91201L36.066 7.26271L36.847 7.59939L36.414 6.85389L36.98 6.20459L36.138 6.39698L35.705 5.65149Z" fill="white"/>
<path d="M29.32 -1.20227L29.236 -0.348561L28.406 -0.156178L29.188 0.19252L29.116 1.04623L29.681 0.396929L30.462 0.745626L30.03 0.000134468L30.595 -0.649163L29.753 -0.456778L29.32 -1.20227Z" fill="white"/>
<path d="M30.21 2.7417L30.126 3.60743L29.296 3.78779L30.078 4.13649L30.006 5.00222L30.571 4.35292L31.352 4.68959L30.919 3.9441L31.485 3.2948L30.643 3.48719L30.21 2.7417Z" fill="white"/>
<path d="M31.088 6.68555L31.016 7.55128L30.174 7.74366L30.967 8.08034L30.883 8.94607L31.448 8.29677L32.242 8.64547L31.797 7.89997L32.362 7.25068L31.533 7.43104L31.088 6.68555Z" fill="white"/>
<path d="M24.703 -0.168213L24.631 0.697518L23.789 0.877881L24.583 1.22658L24.499 2.09231L25.064 1.44301L25.857 1.77969L25.412 1.03419L25.978 0.396917L25.148 0.57728L24.703 -0.168213Z" fill="white"/>
<path d="M25.593 3.77576L25.521 4.64149L24.679 4.82185L25.472 5.17055L25.388 6.03628L25.953 5.38698L26.747 5.72365L26.302 4.97816L26.867 4.34089L26.038 4.52125L25.593 3.77576Z" fill="white"/>
<path d="M26.482 7.7196L26.398 8.58534L25.569 8.77772L26.35 9.11439L26.278 9.98013L26.843 9.33083L27.625 9.67953L27.192 8.93403L27.757 8.28474L26.915 8.4651L26.482 7.7196Z" fill="white"/>
<path d="M20.098 0.865967L20.014 1.7317L19.184 1.92408L19.965 2.26076L19.893 3.12649L20.458 2.47719L21.24 2.82589L20.807 2.0804L21.372 1.4311L20.531 1.61146L20.098 0.865967Z" fill="white"/>
<path d="M20.988 4.80981L20.903 5.67555L20.074 5.86793L20.855 6.2046L20.783 7.07034L21.348 6.42104L22.13 6.76974L21.697 6.02424L22.262 5.37495L21.42 5.55531L20.988 4.80981Z" fill="white"/>
<path d="M21.865 8.76575L21.793 9.61945L20.951 9.81184L21.745 10.1485L21.661 11.0142L22.226 10.3649L23.02 10.7136L22.575 9.96815L23.14 9.31885L22.31 9.51124L21.865 8.76575Z" fill="white"/>
<path d="M36.631 -0.829468L36.559 0.0362636L35.729 0.228648L36.511 0.565323L36.438 1.43105L37.004 0.781754L37.785 1.13045L37.352 0.38496L37.917 -0.264338L37.076 -0.0839773L36.631 -0.829468Z" fill="white"/>
<path d="M37.521 3.12646L37.448 3.98017L36.607 4.17256L37.4 4.50923L37.316 5.37496L37.881 4.72566L38.675 5.07436L38.23 4.32887L38.795 3.67957L37.965 3.85993L37.521 3.12646Z" fill="white"/>
<path d="M38.41 7.07031L38.338 7.92402L37.496 8.1164L38.2899 8.4651L38.206 9.31881L38.771 8.66951L39.565 9.01821L39.12 8.27272L39.685 7.62342L38.8549 7.8158L38.41 7.07031Z" fill="white"/>
<path d="M32.086 0.192627L32.014 1.05836L31.172 1.25075L31.965 1.58742L31.881 2.45315L32.446 1.80385L33.24 2.15255L32.795 1.40706L33.36 0.757759L32.531 0.938119L32.086 0.192627Z" fill="white"/>
<path d="M32.975 4.14844L32.891 5.00214L32.062 5.19453L32.843 5.5312L32.771 6.39693L33.336 5.74764L34.13 6.09633L33.685 5.35084L34.25 4.70154L33.408 4.89393L32.975 4.14844Z" fill="white"/>
<path d="M33.865 8.09241L33.781 8.94611L32.951 9.1385L33.733 9.4872L33.661 10.3409L34.226 9.69161L35.008 10.0403L34.575 9.29481L35.14 8.64551L34.298 8.8379L33.865 8.09241Z" fill="white"/>
<path d="M27.42 1.25073L27.336 2.10444L26.507 2.29682L27.288 2.64552L27.216 3.49923L27.781 2.84993L28.563 3.19863L28.13 2.45314L28.695 1.80384L27.853 1.99622L27.42 1.25073Z" fill="white"/>
<path d="M28.298 5.19458L28.226 6.06031L27.384 6.24067L28.178 6.58937L28.094 7.44308L28.659 6.79378L29.452 7.14248L29.008 6.39699L29.573 5.74769L28.743 5.94007L28.298 5.19458Z" fill="white"/>
<path d="M29.188 9.13843L29.116 10.0042L28.274 10.1845L29.068 10.5332L28.984 11.399L29.549 10.7497L30.342 11.0863L29.897 10.3408L30.463 9.69154L29.621 9.88392L29.188 9.13843Z" fill="white"/>
<path d="M21.949 -1.67114L21.865 -0.805414L21.036 -0.61303L21.817 -0.276355L21.745 0.589376L22.31 -0.0599215L23.092 0.288774L22.659 -0.456716L23.224 -1.10601L22.382 -0.925653L21.949 -1.67114Z" fill="white"/>
<path d="M22.839 2.27271L22.755 3.13843L21.925 3.33082L22.707 3.6675L22.635 4.53322L23.2 3.88392L23.981 4.23262L23.549 3.48712L24.114 2.83783L23.272 3.01819L22.839 2.27271Z" fill="white"/>
<path d="M23.717 6.21667L23.645 7.08241L22.803 7.27479L23.597 7.61146L23.513 8.4772L24.078 7.8279L24.871 8.17661L24.426 7.4311L24.991 6.78181L24.162 6.9742L23.717 6.21667Z" fill="white"/>
<path d="M24.607 10.1725L24.535 11.0262L23.693 11.2186L24.487 11.5673L24.402 12.421L24.967 11.7717L25.761 12.1204L25.316 11.3749L25.881 10.7256L25.052 10.918L24.607 10.1725Z" fill="white"/>
<path d="M19.136 7.25073L19.064 8.11646L18.222 8.29682L19.016 8.64552L18.943 9.51125L19.497 8.86196L20.29 9.19863L19.845 8.45314L20.41 7.80384L19.581 7.99622L19.136 7.25073Z" fill="white"/>
<path d="M20.026 11.1946L19.953 12.0603L19.112 12.2527L19.905 12.5894L19.821 13.4551L20.386 12.8058L21.18 13.1545L20.735 12.409L21.3 11.7597L20.47 11.9401L20.026 11.1946Z" fill="white"/>
</g>
</svg>
