<svg xmlns="http://www.w3.org/2000/svg" viewBox="0 0 357.94 335.99"><defs><style>.cls-1{isolation:isolate;}.cls-2{fill:#d42a26;}.cls-15,.cls-3{fill:#c6c6c6;}.cls-13,.cls-18,.cls-3,.cls-6,.cls-7{mix-blend-mode:multiply;}.cls-12,.cls-4,.cls-5{fill:#fff;}.cls-12,.cls-4{mix-blend-mode:soft-light;}.cls-6{fill:#dadada;}.cls-7{fill:#9d9d9c;}.cls-8{fill:#00b1c3;}.cls-22,.cls-9{fill:none;stroke:#2c343f;stroke-linecap:round;stroke-linejoin:round;}.cls-9{stroke-width:3.16px;}.cls-10{fill:#745615;}.cls-11{fill:#f7c7ad;}.cls-12{opacity:0.5;}.cls-13{fill:#ededed;}.cls-14{fill:#ab251c;}.cls-16{fill:#dedede;}.cls-17{fill:#dc9f2e;}.cls-19{fill:#be7500;}.cls-20{fill:#464f5b;}.cls-21{fill:#f9b233;}.cls-22{stroke-width:3.6px;}.cls-23{fill:#232a33;}.cls-24{fill:#0d3953;}</style></defs><g class="cls-1"><g id="Capa_1" data-name="Capa 1"><path class="cls-2" d="M216.22,157.62s14.71,24.71,0,45.45c0,0,45.22-9.7,45.51-39.66Z" transform="translate(-33.63 -44.6)"/><path class="cls-3" d="M216.22,157.62s14.71,24.71,0,45.45c0,0,45.22-9.7,45.51-39.66Z" transform="translate(-33.63 -44.6)"/><path class="cls-2" d="M344.93,110.59c0,36.45-41.3,66-92.24,66s-92.24-29.54-92.24-66,41.29-66,92.24-66S344.93,74.15,344.93,110.59Z" transform="translate(-33.63 -44.6)"/><path class="cls-3" d="M344.67,105.86c-3.06,28.34-36.16,50.67-76.57,50.67-42.43,0-76.82-24.6-76.82-55s34.39-54.95,76.82-54.95c3.19,0,6.33.15,9.42.42a126.73,126.73,0,0,0-24.83-2.44c-50.95,0-92.24,29.55-92.24,66s41.29,66,92.24,66,92.24-29.54,92.24-66C344.93,109,344.82,107.42,344.67,105.86Z" transform="translate(-33.63 -44.6)"/><path class="cls-4" d="M315.08,90.83c0,13.57-21.31,24.56-47.61,24.56s-47.62-11-47.62-24.56,21.32-24.55,47.62-24.55S315.08,77.27,315.08,90.83Z" transform="translate(-33.63 -44.6)"/><path class="cls-5" d="M225.3,110.59a10.23,10.23,0,1,1-10.23-10.23A10.23,10.23,0,0,1,225.3,110.59Z" transform="translate(-33.63 -44.6)"/><path class="cls-6" d="M217,100.55a10.42,10.42,0,0,0-2-.19,10.24,10.24,0,1,0,4.78,19.28C213.38,115.83,212.44,106.09,217,100.55Z" transform="translate(-33.63 -44.6)"/><path class="cls-5" d="M262.92,110.59a10.23,10.23,0,1,1-10.23-10.23A10.24,10.24,0,0,1,262.92,110.59Z" transform="translate(-33.63 -44.6)"/><path class="cls-6" d="M254.65,100.55a10.59,10.59,0,0,0-2-.19,10.24,10.24,0,1,0,4.78,19.28C251,115.83,250.06,106.09,254.65,100.55Z" transform="translate(-33.63 -44.6)"/><path class="cls-5" d="M300.53,110.59a10.23,10.23,0,1,1-10.23-10.23A10.24,10.24,0,0,1,300.53,110.59Z" transform="translate(-33.63 -44.6)"/><path class="cls-6" d="M292.26,100.55a10.42,10.42,0,0,0-2-.19,10.24,10.24,0,1,0,4.78,19.28C288.6,115.83,287.67,106.09,292.26,100.55Z" transform="translate(-33.63 -44.6)"/><path class="cls-7" d="M356.67,201.5h0c6.15-19.89-7.74-43.91-32.79-57.56l-.46-.24c-1-.52-1.93-1-2.93-1.5l-.83-.41c-1.16-.55-2.33-1.09-3.54-1.59C284.9,127,252,134.48,242.54,156.82c-7.41,17.58,2,39.14,21.53,54-1.16,5.82-4.1,12.71-11.23,17.13,0,0,21.19,4,32.73-5.42,30.14,11.17,61,3.48,70-18,.23-.55.43-1.09.62-1.64s.3-.88.44-1.31Z" transform="translate(-33.63 -44.6)"/><path class="cls-8" d="M284.57,202.16s3,21.67-13.43,31.85c0,0,34.56,6.57,43.62-14.35Z" transform="translate(-33.63 -44.6)"/><path class="cls-3" d="M284.57,202.16s3,21.67-13.43,31.85c0,0,34.56,6.57,43.62-14.35Z" transform="translate(-33.63 -44.6)"/><path class="cls-8" d="M388.68,207.22c-10.77,25.54-48.44,34.05-84.15,19s-55.93-48-45.16-73.5,48.44-34.06,84.15-19S399.44,181.67,388.68,207.22Z" transform="translate(-33.63 -44.6)"/><path class="cls-3" d="M389.9,203.82c-10.52,19-40.32,24.84-68.64,12.9-29.74-12.53-46.58-39.94-37.62-61.22s40.35-28.36,70.09-15.83c2.23,1,4.39,2,6.47,3.09a95.66,95.66,0,0,0-16.68-9c-35.71-15.05-73.39-6.54-84.15,19s9.45,58.46,45.16,73.5,73.38,6.54,84.15-19C389.15,206.1,389.54,205,389.9,203.82Z" transform="translate(-33.63 -44.6)"/><path class="cls-4" d="M373.6,184.55c-4,9.51-22.2,10.92-40.63,3.15s-30.13-21.77-26.12-31.28,22.2-10.92,40.63-3.15S377.6,175,373.6,184.55Z" transform="translate(-33.63 -44.6)"/><path class="cls-5" d="M303.19,179.72a7.78,7.78,0,1,1-7.68-7.88A7.77,7.77,0,0,1,303.19,179.72Z" transform="translate(-33.63 -44.6)"/><path class="cls-6" d="M297,172a8.09,8.09,0,0,0-1.49-.17A7.79,7.79,0,1,0,299,186.55C294.07,183.59,293.45,176.18,297,172Z" transform="translate(-33.63 -44.6)"/><path class="cls-5" d="M331.81,180.06a7.79,7.79,0,1,1-7.7-7.88A7.79,7.79,0,0,1,331.81,180.06Z" transform="translate(-33.63 -44.6)"/><path class="cls-6" d="M325.61,172.35a8.2,8.2,0,0,0-1.5-.17,7.79,7.79,0,1,0,3.47,14.71C322.68,183.93,322.06,176.52,325.61,172.35Z" transform="translate(-33.63 -44.6)"/><path class="cls-5" d="M360.42,180.4a7.79,7.79,0,1,1-7.7-7.88A7.79,7.79,0,0,1,360.42,180.4Z" transform="translate(-33.63 -44.6)"/><path class="cls-6" d="M354.21,172.69a8,8,0,0,0-1.49-.17,7.79,7.79,0,1,0,3.47,14.71C351.29,184.27,350.67,176.86,354.21,172.69Z" transform="translate(-33.63 -44.6)"/><path class="cls-9" d="M199.61,211l-.11-5.45a9.37,9.37,0,0,0-3.89-6.56s-10.89-6.7-11.77-32.74c0,0-1.48-36.18-43.61-35.4l-19.63.36" transform="translate(-33.63 -44.6)"/><path class="cls-9" d="M53.39,213.71l-.1-5.45a9.35,9.35,0,0,1,3.64-6.7s10.64-7.1,10.56-33.16c0,0,.13-36.21,42.27-37l19.62-.36" transform="translate(-33.63 -44.6)"/><rect class="cls-10" x="81.96" y="208.91" width="84.52" height="92.52" transform="matrix(1, -0.02, 0.02, 1, -38.34, -42.26)"/><path class="cls-11" d="M175.58,291.52c-21.15-2-31.66-8-33.46-9.16l-37.58.69c-1.75,1.2-12,7.63-33.09,10.4,0,0-40.19,2.25-37.71,75.15,0,0,30.52,13.09,91.4,11.85,60.89-1,90.91-15.23,90.91-15.23C215.82,292.28,175.58,291.52,175.58,291.52Z" transform="translate(-33.63 -44.6)"/><path class="cls-5" d="M71.45,293.45S31.26,295.7,33.74,368.6c0,0,30.52,13.09,91.4,11.85,60.89-1,90.91-15.23,90.91-15.23-.23-72.94-40.47-73.7-40.47-73.7s-39.23-2-51.81,14.86C123.77,306.38,111,286.1,71.45,293.45Z" transform="translate(-33.63 -44.6)"/><rect class="cls-11" x="104.03" y="262.43" width="38.38" height="27.91" transform="translate(-38.73 -42.27) rotate(-1.06)"/><path class="cls-6" d="M103.92,270.74h0c.43.49.86,1,1.33,1.44a40.42,40.42,0,0,0,3.85,3.44l.12.1c.44.31.88.61,1.33.9.69.44,1.38.89,2.09,1.29,1,.59,2.09,1.16,3.16,1.66.34.13,1.36.53,1.67.63,1,.33,2.08.66,3.14.91s2.18.53,3.29.72a19.15,19.15,0,0,1,2.14.37,59.62,59.62,0,0,0,7.79.29c1.12,0,2.24-.08,3.35-.19.35,0,2-.32,2.18-.32,1.06-.25,2.1-.57,3.13-.92l-.35-19-38.37.71.15,7.87C104,270.82,104.06,270.89,103.92,270.74Z" transform="translate(-33.63 -44.6)"/><path class="cls-11" d="M165.67,211.18c.62,33-18.43,60.2-42.54,60.65s-44.15-26-44.76-59S96.91,158.67,121,158.23,165.06,178.13,165.67,211.18Z" transform="translate(-33.63 -44.6)"/><path class="cls-12" d="M98.25,185.42c0-.08,0-.15,0-.23a31.17,31.17,0,0,1,23.86-11.72C141,173.12,156.56,189,157,214.84c.32,17.2-6.19,32.36-16.14,40.66C140.9,255.5,83.7,249.75,98.25,185.42Z" transform="translate(-33.63 -44.6)"/><path class="cls-13" d="M116.09,258.79c-15-9.1-23.45-24.86-25.83-42-2.23-16,1.53-33.91,11.5-46.82a44.53,44.53,0,0,1,12.89-11.17c-21,3.72-36.84,23.87-36.28,54,.61,33,20.65,59.47,44.76,59a34.26,34.26,0,0,0,19.37-6.65A46.06,46.06,0,0,1,116.09,258.79Z" transform="translate(-33.63 -44.6)"/><path class="cls-2" d="M102.73,284.17c-4,2.29-14,7-31.28,9.28,0,0-40.19,2.25-37.71,75.15,0,0,30.52,13.09,91.4,11.85,60.89-1,90.91-15.23,90.91-15.23-.23-72.94-40.47-73.7-40.47-73.7-17.31-1.63-27.49-6-31.61-8.11,0,0,22.33,47.39-18.94,91.17C125,374.58,83.6,333.44,102.73,284.17Z" transform="translate(-33.63 -44.6)"/><path class="cls-8" d="M90.54,319.08l.06.28c.17.75.34,1.49.52,2.22l.32-.14C91.13,320.66,90.83,319.88,90.54,319.08Z" transform="translate(-33.63 -44.6)"/><path class="cls-14" d="M175.58,291.52c-17.31-1.63-27.49-6-31.61-8.11,0,0,22.33,47.39-18.94,91.17,0,0-41.43-41.14-22.3-90.41-4,2.29-14,7-31.28,9.28a33.3,33.3,0,0,0,8,32.74s6-3.39,9.33-2.52l-11.5,8.78s3.36,33.11,39.75,48.15l18.29-.34s31-15.82,35.7-56.24c0,0-3-3.23-12-5.87A28.17,28.17,0,0,1,170.91,317S182.64,310.55,175.58,291.52Z" transform="translate(-33.63 -44.6)"/><path class="cls-13" d="M175.58,291.52c-17.31-1.63-27.49-6-31.61-8.11,0,0,22.33,47.39-18.94,91.17,0,0-.4-.4-1.1-1.16h0c-5.16,1.71-10.71-1.12-15-3.84a72.51,72.51,0,0,1-13.89-11.16c-4.06-4.32-8.45-9.72-9.43-15.76-1.33-8.21,1.62-15.1,8.68-19.67a9.57,9.57,0,0,1,4.16-1.45,73.15,73.15,0,0,1,4.27-37.37c-4,2.29-14,7-31.28,9.28,0,0-.09.25-.22.71,4.63-.51,9.16-1.49,13.62,1,8.85,4.92,7.59,15.84,2.21,22.8a24.55,24.55,0,0,1-9,6.7c.43.51.89,1,1.37,1.53,0,0,6-3.39,9.33-2.52l-11.5,8.78s3.36,33.11,39.75,48.15l18.29-.34s31-15.82,35.7-56.24c0,0-3-3.23-12-5.87A28.17,28.17,0,0,1,170.91,317S182.64,310.55,175.58,291.52Z" transform="translate(-33.63 -44.6)"/><path class="cls-13" d="M175.58,291.52a118.6,118.6,0,0,1-12.93-1.91,24.14,24.14,0,0,1,1.69,7.17c.39,5.71-1.36,12.11-5.64,16.15a26.49,26.49,0,0,1-8.78,5.42c0,.26,0,.54,0,.81,16.69,17-2.4,52.5-23.81,54.3-.34.38-.68.75-1,1.12l-.12-.12.11,6,10.32-.19s31-15.82,35.7-56.24c0,0-3-3.23-12-5.87A28.17,28.17,0,0,1,170.91,317S182.64,310.55,175.58,291.52Z" transform="translate(-33.63 -44.6)"/><path class="cls-8" d="M125.14,380.45" transform="translate(-33.63 -44.6)"/><rect class="cls-15" x="123.78" y="306.37" width="1.24" height="67.28" transform="translate(-40.58 -41.98) rotate(-1.18)"/><path class="cls-16" d="M102.73,284.17s-17.36,6.62-8.52,28.15c0,0,1.55-23,30,2,0,0,1.5-19.38-9.24-23.28C114.92,291.07,102.82,289.47,102.73,284.17Z" transform="translate(-33.63 -44.6)"/><path class="cls-16" d="M144.38,283.4s15.83,5.68,7.45,25.27c0,0-9.05-20-27.67,5.68,0,0-3.1-21.23,8.28-23.61C132.44,290.74,144.48,288.7,144.38,283.4Z" transform="translate(-33.63 -44.6)"/><path class="cls-17" d="M95.38,159.2s30.17,41.21,65.44,50.87l-2.67,65s1.15,12.14-12.91,18.49c0,0,25.24,6.24,29.89-11.79l-3.48-79.22S164,120.11,95.38,159.2Z" transform="translate(-33.63 -44.6)"/><path class="cls-17" d="M90.09,294.56l-1.54-83.15c-2.23-35.95,27.37-40.16,27.37-40.16L101.8,156.42S52.26,167.09,69.6,278.69C69.6,278.69,68.71,295.59,90.09,294.56Z" transform="translate(-33.63 -44.6)"/><g class="cls-18"><path class="cls-15" d="M101.36,163.34a28.11,28.11,0,0,1,3-2,40.28,40.28,0,0,1,3.75-2c.74-.35,1.54-.68,2.39-1s1.77-.67,2.75-1,2-.59,3-.87c.53-.15,1.09-.24,1.65-.36s1.12-.22,1.71-.3a35.5,35.5,0,0,1,7.45-.36l2,.15,2,.33a17,17,0,0,1,2,.44l1,.26.51.13.49.18,2,.71c.65.25,1.27.59,1.91.89l.95.46c.32.17.61.36.91.54l1.81,1.11a34,34,0,0,1,6.21,5.6c.45.52.9,1,1.34,1.55l1.16,1.64c.38.55.79,1.08,1.13,1.64s.65,1.13,1,1.68l.95,1.66c.26.57.52,1.13.79,1.69a35.5,35.5,0,0,1,1.42,3.29c.4,1.09.78,2.16,1.16,3.18s.57,2.06.85,3,.56,1.88.71,2.79.34,1.75.49,2.55.32,1.54.41,2.23.15,1.34.22,1.92c.15,1.16.22,2.07.29,2.69s.08.95.08.95l-.34-.9c-.2-.59-.53-1.44-.89-2.54-.19-.54-.39-1.14-.61-1.8s-.52-1.35-.8-2.1c-.58-1.49-1.17-3.18-2-5-.39-.89-.77-1.82-1.2-2.77l-1.44-2.89c-.46-1-1.06-2-1.63-3l-.86-1.51-1-1.47-1-1.48c-.34-.5-.74-1-1.1-1.43l-1.12-1.43-1.24-1.35a34.62,34.62,0,0,0-5.51-4.82l-1.55-1c-.27-.16-.51-.34-.79-.48l-.81-.4-.81-.41a8.76,8.76,0,0,0-.82-.39l-1.68-.67a31.33,31.33,0,0,0-6.9-1.64,38.7,38.7,0,0,0-6.76-.24,49.42,49.42,0,0,0-6.15.68,67.64,67.64,0,0,0-9.13,2.29c-1.08.38-2,.66-2.52.89Z" transform="translate(-33.63 -44.6)"/></g><g class="cls-18"><path class="cls-15" d="M99.88,169.76a24.88,24.88,0,0,1,2.83-2c1-.58,2.11-1.28,3.51-2a37.65,37.65,0,0,1,4.87-2,33.29,33.29,0,0,1,6.12-1.46,28.2,28.2,0,0,1,7.15-.18,25.38,25.38,0,0,1,7.53,1.88l.93.37c.3.14.59.3.89.45.59.32,1.2.62,1.78,1a31.58,31.58,0,0,1,3.28,2.35c.51.43,1,.85,1.53,1.31l1.39,1.43.7.71c.22.25.41.51.62.77l1.22,1.53a16.82,16.82,0,0,1,1.11,1.59l1,1.6.25.4.23.41.44.83.86,1.63c.3.53.53,1.09.77,1.63s.46,1.1.69,1.63.47,1.06.65,1.6.36,1.07.54,1.59l.51,1.55c.16.5.35,1,.46,1.5.25,1,.49,2,.73,2.9.11.46.22.92.33,1.36s.16.89.24,1.32c.15.85.29,1.66.42,2.42.29,1.52.39,2.87.5,4s.17,2,.22,2.55.06.91.06.91-.1-.3-.3-.86-.48-1.38-.81-2.43-.72-2.31-1.26-3.74c-.26-.71-.53-1.47-.81-2.27-.14-.41-.29-.82-.43-1.24l-.52-1.26-1.06-2.69c-.36-.93-.83-1.84-1.26-2.8-.21-.49-.43-1-.65-1.46s-.5-1-.75-1.45-.51-1-.77-1.47a14.25,14.25,0,0,0-.82-1.48l-.89-1.45-.45-.74-.22-.37-.25-.35-1-1.41a15.86,15.86,0,0,0-1-1.4c-.38-.44-.76-.89-1.13-1.34l-.57-.66-.62-.62-1.24-1.24c-.43-.39-.89-.74-1.33-1.12a27.89,27.89,0,0,0-2.8-2c-.49-.29-1-.55-1.49-.84-.25-.14-.49-.28-.75-.41l-.78-.34c-.52-.22-1-.48-1.56-.66l-1.6-.54c-.52-.17-1.08-.27-1.61-.4l-.81-.2-.81-.13c-.54-.07-1.07-.2-1.61-.23l-1.61-.14c-.53,0-1.06,0-1.59,0s-1,0-1.55,0a38.32,38.32,0,0,0-5.81.66,49.83,49.83,0,0,0-4.88,1.15c-1.45.43-2.71.83-3.73,1.21s-1.83.68-2.38.92Z" transform="translate(-33.63 -44.6)"/></g><path class="cls-3" d="M95.29,173.89a8.27,8.27,0,0,0-1.12.77,18.54,18.54,0,0,0-2.71,2.66,26,26,0,0,0-3.17,4.88,35.37,35.37,0,0,0-2.55,7.06,50.84,50.84,0,0,0-1.34,8.79,81.07,81.07,0,0,0,0,10c.21,3.64.32,7.25.41,11s.18,7.53.27,11.32.09,7.58.13,11.32,0,7.41,0,11-.08,7-.12,10.25-.13,6.35-.21,9.19c-.16,5.7-.39,10.44-.58,13.76s-.34,5.23-.34,5.23-.22-1.89-.53-5.21-.72-8.05-1.08-13.73c-.19-2.84-.41-5.92-.56-9.18s-.38-6.69-.49-10.24-.31-7.23-.41-11-.19-7.53-.28-11.32-.1-7.58-.15-11.32,0-7.45-.06-10.92c0-.91,0-1.81,0-2.71s0-1.78.08-2.66c.1-1.75.28-3.47.51-5.13s.54-3.27.89-4.81.82-3,1.33-4.39a31.21,31.21,0,0,1,3.56-7.18,22.84,22.84,0,0,1,4-4.63A15.86,15.86,0,0,1,94,174.44,8.62,8.62,0,0,1,95.29,173.89Z" transform="translate(-33.63 -44.6)"/><path class="cls-3" d="M85.82,178.19a8.2,8.2,0,0,0-1,.71,17.67,17.67,0,0,0-2.51,2.48,24.29,24.29,0,0,0-3,4.54,32.91,32.91,0,0,0-2.37,6.56,47,47,0,0,0-1.25,8.17,75.7,75.7,0,0,0,0,9.28c.18,3.38.29,6.73.37,10.22s.17,7,.26,10.52.08,7.05.12,10.52,0,6.88,0,10.19-.06,6.5-.1,9.53-.13,5.9-.2,8.54c-.15,5.3-.36,9.71-.54,12.8-.07,1.54-.17,2.75-.23,3.58s-.08,1.27-.08,1.27l-.14-1.26c-.08-.83-.23-2-.36-3.58-.29-3.08-.66-7.48-1-12.76-.17-2.64-.37-5.5-.51-8.53s-.35-6.22-.46-9.52-.29-6.72-.38-10.19-.17-7-.26-10.52-.09-7.05-.14-10.52,0-6.92-.06-10.15a58.47,58.47,0,0,1,.55-9.76c.21-1.54.5-3,.82-4.47s.76-2.79,1.23-4.08a29.22,29.22,0,0,1,3.31-6.67,22.26,22.26,0,0,1,3.75-4.31,14.81,14.81,0,0,1,3-2.07A7.46,7.46,0,0,1,85.82,178.19Z" transform="translate(-33.63 -44.6)"/><path class="cls-19" d="M202.19,212.75a3.75,3.75,0,0,1-3.69,3.81h0a3.76,3.76,0,0,1-3.84-3.67h0a3.75,3.75,0,0,1,3.7-3.82h0a3.75,3.75,0,0,1,3.83,3.68Z" transform="translate(-33.63 -44.6)"/><path class="cls-20" d="M168.24,202.59a9.61,9.61,0,0,1,9.46-9.75h0a9.6,9.6,0,0,1,9.8,9.4l.4,21.55a9.61,9.61,0,0,1-9.45,9.76h0a9.61,9.61,0,0,1-9.81-9.4Z" transform="translate(-33.63 -44.6)"/><path class="cls-3" d="M179.86,202.89c4.26,5.07,4.93,11,3.87,17.38-.92,5.43-4.85,11-10.49,11.86a9.63,9.63,0,0,0,14.66-8.34l-.4-21.55a9.64,9.64,0,0,0-18.73-2.94C172.84,198.73,177.09,199.6,179.86,202.89Z" transform="translate(-33.63 -44.6)"/><path class="cls-12" d="M171.65,202.53a1,1,0,0,1,1-1h0a1,1,0,0,1,1,1l.45,24.35a1,1,0,0,1-1,1h0a1,1,0,0,1-1-1Z" transform="translate(-33.63 -44.6)"/><path class="cls-21" d="M186.13,198.36l.55,29.36a15.22,15.22,0,0,0-.55-29.36Z" transform="translate(-33.63 -44.6)"/><path class="cls-6" d="M193.17,218.52c-5-3.05-6.3-7.47-6.9-12.8l.41,22a15.34,15.34,0,0,0,9.42-8A9.87,9.87,0,0,1,193.17,218.52Z" transform="translate(-33.63 -44.6)"/><path class="cls-22" d="M191.34,220.93s6.46,50.22-46.52,49.78" transform="translate(-33.63 -44.6)"/><path class="cls-23" d="M146.73,270.87a4.39,4.39,0,0,1-4.33,4.47l-5.92.11a4.4,4.4,0,0,1-4.5-4.31h0a4.41,4.41,0,0,1,4.33-4.47l5.93-.11a4.41,4.41,0,0,1,4.49,4.31Z" transform="translate(-33.63 -44.6)"/><path class="cls-19" d="M50.87,215.55a3.75,3.75,0,0,0,3.83,3.68h0a3.76,3.76,0,0,0,3.7-3.82h0a3.76,3.76,0,0,0-3.84-3.68h0a3.75,3.75,0,0,0-3.69,3.82Z" transform="translate(-33.63 -44.6)"/><path class="cls-20" d="M84.42,204.15a9.61,9.61,0,0,0-9.81-9.4h0a9.6,9.6,0,0,0-9.45,9.76l.4,21.55a9.61,9.61,0,0,0,9.81,9.4h0a9.61,9.61,0,0,0,9.45-9.76Z" transform="translate(-33.63 -44.6)"/><path class="cls-3" d="M72.82,204.88c-4.06,5.22-4.52,11.21-3.22,17.5,1.11,5.4,5.25,10.79,10.91,11.47a9.62,9.62,0,0,1-15-7.79l-.4-21.55a9.64,9.64,0,0,1,18.61-3.63C79.69,200.45,75.46,201.49,72.82,204.88Z" transform="translate(-33.63 -44.6)"/><path class="cls-12" d="M81,204.21a1,1,0,0,0-1-1h0a1,1,0,0,0-1,1l.45,24.35a1,1,0,0,0,1,1h0a1,1,0,0,0,1-1Z" transform="translate(-33.63 -44.6)"/><path class="cls-21" d="M66.39,200.58l.54,29.36a15.22,15.22,0,0,1-.54-29.36Z" transform="translate(-33.63 -44.6)"/><path class="cls-6" d="M60.1,221c4.84-3.23,6-7.7,6.42-13.05l.41,22a15.38,15.38,0,0,1-9.71-7.63A10.43,10.43,0,0,0,60.1,221Z" transform="translate(-33.63 -44.6)"/><path class="cls-24" d="M254,315.75a9.34,9.34,0,0,1-.55,2.94,13.18,13.18,0,0,1-1.57,3.14,9.83,9.83,0,0,1-2.46,2.52,5.44,5.44,0,0,1-3.18,1h-1a3.5,3.5,0,0,1-1.52-.42,7.52,7.52,0,0,1-1.66-1.15,11.73,11.73,0,0,1-1.54-1.66,7.21,7.21,0,0,1-1.09-2,15.48,15.48,0,0,1-.55-2.12c-.17-.88-.32-1.78-.45-2.72s-.21-1.84-.27-2.7-.1-1.56-.1-2.11,0-1.49.06-2.49a27.54,27.54,0,0,1,.31-3.14,18.7,18.7,0,0,1,.84-3.29,10.73,10.73,0,0,1,1.57-3,7.56,7.56,0,0,1,2.53-2.15,7.93,7.93,0,0,1,3.75-.81,5.63,5.63,0,0,1,2.37.52,6.82,6.82,0,0,1,2,1.37,6.47,6.47,0,0,1,1.39,2,5.21,5.21,0,0,1,.52,2.25,6.86,6.86,0,0,1-.11,1A7,7,0,0,1,253,304a3.82,3.82,0,0,1-.67,1.11,1.27,1.27,0,0,1-1,.46h-1.7l-.26-.25c0-.47.1-1,.15-1.58s.08-1,.08-1.23a6.38,6.38,0,0,0-.19-1.35,6.67,6.67,0,0,0-.57-1.56,4.06,4.06,0,0,0-1-1.27,2.16,2.16,0,0,0-1.46-.52,2.64,2.64,0,0,0-1.78.65,5.37,5.37,0,0,0-1.25,1.66,10.14,10.14,0,0,0-.82,2.27c-.19.84-.34,1.65-.44,2.43s-.17,1.49-.2,2.14-.06,1.14-.06,1.46c0,.1,0,.31,0,.63s0,.68.07,1.09.06.84.1,1.29.05.87.05,1.24,0,.79.07,1.32.13,1.08.23,1.66.21,1.16.35,1.74a10.8,10.8,0,0,0,.46,1.53,8.45,8.45,0,0,0,.67,1.28,10.9,10.9,0,0,0,1,1.38A6.91,6.91,0,0,0,246,322.7a1.73,1.73,0,0,0,1,.45,1.35,1.35,0,0,0,1-.61,8.12,8.12,0,0,0,.85-1.37c.24-.51.45-1,.61-1.44s.25-.73.27-.8a6.45,6.45,0,0,0,.26-1.42,13.41,13.41,0,0,1,.22-1.5.77.77,0,0,1,.39-.52,4,4,0,0,1,.78-.37,5.46,5.46,0,0,1,.81-.22,3.24,3.24,0,0,1,.54-.07,1.52,1.52,0,0,1,.9.27A.8.8,0,0,1,254,315.75Z" transform="translate(-33.63 -44.6)"/><path class="cls-24" d="M269.52,309.72c0,2-.07,3.55-.07,4.64s0,1.92,0,2.44,0,.86,0,1,0,.21,0,.26c-.07.94-.11,1.91-.11,2.91a6.57,6.57,0,0,1-.52,2.68.84.84,0,0,1-.28.29,2,2,0,0,1-.46.26,3.27,3.27,0,0,1-.53.17,3.14,3.14,0,0,1-.43,0h-1.7c0-.27,0-.56,0-.88a2.92,2.92,0,0,0-.15-.93,2.4,2.4,0,0,1-.85.7,8.19,8.19,0,0,1-1.2.52,7.78,7.78,0,0,1-1.28.33,5.56,5.56,0,0,1-1,.11,4.74,4.74,0,0,1-2.22-.46,4.11,4.11,0,0,1-1.42-1.16,4.4,4.4,0,0,1-.76-1.55,6.37,6.37,0,0,1-.22-1.63,8.76,8.76,0,0,1,.64-3.35,10.26,10.26,0,0,1,1.83-2.9,12.48,12.48,0,0,1,2.9-2.37,17.67,17.67,0,0,1,3.91-1.7,13.23,13.23,0,0,0-.32-2.09,11.06,11.06,0,0,0-.83-2.45,7.67,7.67,0,0,0-1.37-2,2.63,2.63,0,0,0-2-.85,1.28,1.28,0,0,0-.87.32,5.37,5.37,0,0,0-.75.9,3.8,3.8,0,0,0-.56,1.35,10.23,10.23,0,0,0-.2,1.5c0,.52-.07,1-.1,1.55a8.68,8.68,0,0,1-.18,1.48,2.56,2.56,0,0,1-1.2.59,10.31,10.31,0,0,1-1.39.08,3.12,3.12,0,0,1-.44,0,1.49,1.49,0,0,0-.37,0v-3.18a4.71,4.71,0,0,1,.74-2.68,6.6,6.6,0,0,1,1.87-1.89,8.36,8.36,0,0,1,2.45-1.11,10,10,0,0,1,2.48-.35,6.84,6.84,0,0,1,3.4.72,5.09,5.09,0,0,1,2,2,9.11,9.11,0,0,1,1,3C269.21,307.11,269.37,308.37,269.52,309.72Zm-3.7,8.95v-6.8a10,10,0,0,0-4.19,2.79,6.13,6.13,0,0,0-1.54,4.12c0,.05,0,.23.08.54a5.11,5.11,0,0,0,.26,1,3.79,3.79,0,0,0,.48.94.88.88,0,0,0,.77.43.89.89,0,0,0,.45-.26,7.47,7.47,0,0,0,.62-.63l.67-.72c.22-.24.41-.43.55-.57a2.1,2.1,0,0,1,.93-.56Z" transform="translate(-33.63 -44.6)"/><path class="cls-24" d="M275.47,295.71l-.37,22.81a11,11,0,0,0,.23,2.19,7.9,7.9,0,0,1,.16,2,2.15,2.15,0,0,1-.59,1.44,2.79,2.79,0,0,1-2,.56l-.54,0a1.24,1.24,0,0,1-.54-.2,16.41,16.41,0,0,1-.2-1.78c0-.61-.11-1.21-.2-1.77l.37-20.15c0-.82,0-1.55,0-2.2a5.48,5.48,0,0,1,.19-1.67,1.85,1.85,0,0,1,.76-1.05,3.17,3.17,0,0,1,1.74-.37,2.27,2.27,0,0,1,.51,0A1.61,1.61,0,0,1,275.47,295.71Z" transform="translate(-33.63 -44.6)"/><path class="cls-24" d="M281.72,295.71l-.37,22.81a11.79,11.79,0,0,0,.22,2.19,7.5,7.5,0,0,1,.17,2,2.2,2.2,0,0,1-.59,1.44,2.8,2.8,0,0,1-2,.56l-.53,0a1.24,1.24,0,0,1-.54-.2,16.41,16.41,0,0,1-.2-1.78,16.18,16.18,0,0,0-.21-1.77l.37-20.15c0-.82,0-1.55,0-2.2a5.48,5.48,0,0,1,.19-1.67,1.85,1.85,0,0,1,.76-1.05,3.11,3.11,0,0,1,1.73-.37,2.37,2.37,0,0,1,.52,0A1.84,1.84,0,0,1,281.72,295.71Z" transform="translate(-33.63 -44.6)"/><path class="cls-24" d="M308.56,315.75a9.34,9.34,0,0,1-.55,2.94,13.18,13.18,0,0,1-1.57,3.14,9.83,9.83,0,0,1-2.46,2.52,5.44,5.44,0,0,1-3.18,1h-1a3.5,3.5,0,0,1-1.52-.42,7.52,7.52,0,0,1-1.66-1.15,11.73,11.73,0,0,1-1.54-1.66,7.21,7.21,0,0,1-1.09-2,15.48,15.48,0,0,1-.55-2.12c-.17-.88-.32-1.78-.45-2.72s-.21-1.84-.27-2.7-.09-1.56-.09-2.11,0-1.49.05-2.49a27.54,27.54,0,0,1,.31-3.14,18.7,18.7,0,0,1,.84-3.29,10.73,10.73,0,0,1,1.57-3,7.56,7.56,0,0,1,2.53-2.15,7.93,7.93,0,0,1,3.75-.81,5.6,5.6,0,0,1,2.37.52,6.82,6.82,0,0,1,2,1.37,6.47,6.47,0,0,1,1.39,2,5.21,5.21,0,0,1,.52,2.25,6.86,6.86,0,0,1-.11,1,7,7,0,0,1-.37,1.29,3.82,3.82,0,0,1-.67,1.11,1.27,1.27,0,0,1-1,.46h-1.7l-.26-.25c.05-.47.1-1,.15-1.58s.08-1,.08-1.23a6.38,6.38,0,0,0-.19-1.35,6.67,6.67,0,0,0-.57-1.56,4.06,4.06,0,0,0-1-1.27,2.16,2.16,0,0,0-1.46-.52,2.6,2.6,0,0,0-1.77.65,5.24,5.24,0,0,0-1.26,1.66,10.14,10.14,0,0,0-.82,2.27c-.19.84-.34,1.65-.44,2.43s-.17,1.49-.2,2.14-.06,1.14-.06,1.46c0,.1,0,.31,0,.63s.05.68.07,1.09.06.84.1,1.29.05.87.05,1.24,0,.79.07,1.32.13,1.08.23,1.66.21,1.16.35,1.74a10.8,10.8,0,0,0,.46,1.53,8.45,8.45,0,0,0,.67,1.28,10.9,10.9,0,0,0,1,1.38,6.91,6.91,0,0,0,1.13,1.11,1.73,1.73,0,0,0,1,.45,1.35,1.35,0,0,0,1-.61,8.12,8.12,0,0,0,.85-1.37c.24-.51.45-1,.61-1.44s.25-.73.27-.8a6.45,6.45,0,0,0,.26-1.42,13.41,13.41,0,0,1,.22-1.5.77.77,0,0,1,.39-.52,4,4,0,0,1,.78-.37,5.46,5.46,0,0,1,.81-.22,3.24,3.24,0,0,1,.54-.07,1.52,1.52,0,0,1,.9.27A.8.8,0,0,1,308.56,315.75Z" transform="translate(-33.63 -44.6)"/><path class="cls-24" d="M322.8,317.12a7.2,7.2,0,0,1-.5,2.48,9.67,9.67,0,0,1-1.39,2.46,7.94,7.94,0,0,1-2.12,1.88,5.1,5.1,0,0,1-2.72.76,5.74,5.74,0,0,1-3.5-1,7,7,0,0,1-2.05-2.4,9.7,9.7,0,0,1-1-3,18.77,18.77,0,0,1-.24-2.79v-6.25a10.4,10.4,0,0,1,.54-3.29,9.34,9.34,0,0,1,1.53-2.88,7.89,7.89,0,0,1,2.44-2,6.85,6.85,0,0,1,3.26-.77,4.1,4.1,0,0,1,2.84.92,6,6,0,0,1,1.56,2.18,9.06,9.06,0,0,1,.64,2.57c.09.88.13,1.57.13,2.09a6.53,6.53,0,0,1-.68,3.2,4.74,4.74,0,0,1-1.89,1.85,8.15,8.15,0,0,1-2.86.85,31.55,31.55,0,0,1-3.66.2c-.1.1-.15.14-.15.13v.35c0,.15,0,.44.07.87s.13.93.24,1.5a16.43,16.43,0,0,0,.45,1.77,9.78,9.78,0,0,0,.68,1.72,4.89,4.89,0,0,0,.94,1.3,1.78,1.78,0,0,0,1.24.5,1.4,1.4,0,0,0,1-.43,3.37,3.37,0,0,0,.68-1,5.94,5.94,0,0,0,.39-1.05c.09-.34.14-.54.17-.61a5.6,5.6,0,0,0,0-1.3,3,3,0,0,1,.11-1.29,1.05,1.05,0,0,1,.5-.61,4.15,4.15,0,0,1,.77-.37,4.54,4.54,0,0,1,1.06-.2,1.57,1.57,0,0,1,.81.18,1.33,1.33,0,0,1,.45.43,1.51,1.51,0,0,1,.18.53C322.78,316.8,322.8,317,322.8,317.12Zm-4.44-8.87v-.52a7.64,7.64,0,0,0,0-.8c0-.28-.05-.56-.07-.85a5.52,5.52,0,0,0-.11-.72,4.51,4.51,0,0,0-.3-.77,6.13,6.13,0,0,0-.55-.95,5,5,0,0,0-.7-.79,1.12,1.12,0,0,0-.71-.33,1.51,1.51,0,0,0-1.29,1,9.25,9.25,0,0,0-.8,2.24,22.68,22.68,0,0,0-.4,2.35c-.09.74-.13,1.18-.13,1.33a8.35,8.35,0,0,0-.08,1.13,4.71,4.71,0,0,1-.14,1.12,1.34,1.34,0,0,0,.61.11l1.16.08,1.63.07a2,2,0,0,0,1.16-.59,2.6,2.6,0,0,0,.56-1,4.09,4.09,0,0,0,.18-1.11C318.35,308.88,318.36,308.54,318.36,308.25Z" transform="translate(-33.63 -44.6)"/><path class="cls-24" d="M337,324.29a4.5,4.5,0,0,1-1.39.69,4.86,4.86,0,0,1-1.27.27,3.43,3.43,0,0,1-.5,0,1.16,1.16,0,0,1-.46-.23,14.5,14.5,0,0,1-.5-3.19,23,23,0,0,1,0-3.13c0-.1,0-.52.11-1.26s.13-1.63.16-2.69.05-2.2,0-3.42a21.49,21.49,0,0,0-.31-3.37,8.38,8.38,0,0,0-.85-2.55,1.75,1.75,0,0,0-1.57-1,1.31,1.31,0,0,0-1.08.65,6.49,6.49,0,0,0-.73,1.44,10.41,10.41,0,0,0-.45,1.5q-.15.71-.15.78c-.05.1-.11.14-.18.14s-.11.13-.11.37v11.11c0,.31,0,.66,0,1.06s0,.8,0,1.22,0,.77-.05,1.07a4,4,0,0,0-.17.39,4,4,0,0,1-.17.39,1.92,1.92,0,0,1-.85.42,3.79,3.79,0,0,1-1,.17h-.84a.7.7,0,0,1-.4-.09.54.54,0,0,1-.19-.3c0-.14-.09-.34-.16-.61l.18-22.41a1.36,1.36,0,0,1,.46-.61,5.92,5.92,0,0,1,.74-.49,4.33,4.33,0,0,1,.74-.34,2.4,2.4,0,0,1,.46-.11c.6,0,1,.21,1.11.61a3.61,3.61,0,0,1,.21,1.33c0,.48,0,.93-.08,1.33s0,.61.24.61a.81.81,0,0,0,.41-.18l.59-.41.72-.46a3,3,0,0,1,.76-.35c.22,0,.56-.11,1-.17a8.49,8.49,0,0,1,1-.09,2.86,2.86,0,0,1,2,.72,6.2,6.2,0,0,1,1.35,1.72,8.76,8.76,0,0,1,1,3.77l-.19,12.9a11.65,11.65,0,0,1,.28,1.43A11.4,11.4,0,0,1,337,324.29Z" transform="translate(-33.63 -44.6)"/><path class="cls-24" d="M353.89,322.85a11,11,0,0,1-2.33,1.22,6.48,6.48,0,0,1-2.29.48,3.11,3.11,0,0,1-2.28-.87,6.49,6.49,0,0,1-1.39-2,9.9,9.9,0,0,1-.71-2.37,11.57,11.57,0,0,1-.21-1.87v-8.26c0-.31,0-.58,0-.83s0-.54-.06-.89-.07-.77-.13-1.27-.13-1.16-.2-1.94c0,0,0-.05,0-.08s-.11,0-.18.08a9.22,9.22,0,0,0-1.67.07,10.62,10.62,0,0,0-1.51.3,1.34,1.34,0,0,0-.78-.08,4.9,4.9,0,0,1-.78.08,1.67,1.67,0,0,1-.85-.28.79.79,0,0,1-.44-.65.82.82,0,0,1,.11-.35,2.41,2.41,0,0,1,.26-.39,1.6,1.6,0,0,1,.33-.31,1.2,1.2,0,0,1,.3-.17,21.16,21.16,0,0,1,2.47-.22c.82,0,1.64-.09,2.48-.19a9.36,9.36,0,0,0,.32-2.2,8.5,8.5,0,0,1,.24-2,2.63,2.63,0,0,1,.84-1.43,3.3,3.3,0,0,1,2.12-.53c.25,0,.39,0,.44.11s.17.11.37.11c-.1.84-.18,1.68-.24,2.51s-.16,1.68-.28,2.52c.1.1.17.14.22.13a1.8,1.8,0,0,1,.41,0h.66l1.21,0,1.44.08c.5,0,1,.06,1.38.11a.35.35,0,0,0,.12.26.65.65,0,0,1,.11.44,1.11,1.11,0,0,1-.74,1.07,4.88,4.88,0,0,1-1.65.41,14.39,14.39,0,0,1-1.72,0l-.92,0a1,1,0,0,0-.15.48v.56c0,.1,0,.29,0,.59s.05.63.07,1,.05.78.07,1.19,0,.77,0,1.09V312c0,1.38,0,2.76.13,4.14a22.23,22.23,0,0,0,.54,3.75,3.59,3.59,0,0,0,1.25,2.24c.28-.1.61-.22,1-.35a3.16,3.16,0,0,1,.91-.21,2.57,2.57,0,0,1,.77.17,3.27,3.27,0,0,1,.89.46Z" transform="translate(-33.63 -44.6)"/><path class="cls-24" d="M368.12,317.12a7.17,7.17,0,0,1-.49,2.48,9.67,9.67,0,0,1-1.39,2.46,7.83,7.83,0,0,1-2.13,1.88,5,5,0,0,1-2.71.76,5.74,5.74,0,0,1-3.5-1,7,7,0,0,1-2-2.4,9.7,9.7,0,0,1-1-3,18.77,18.77,0,0,1-.24-2.79v-6.25a10.4,10.4,0,0,1,.54-3.29,8.94,8.94,0,0,1,1.53-2.88,7.89,7.89,0,0,1,2.44-2,6.84,6.84,0,0,1,3.25-.77,4.11,4.11,0,0,1,2.85.92,5.86,5.86,0,0,1,1.55,2.18,9.08,9.08,0,0,1,.65,2.57c.09.88.13,1.57.13,2.09a6.53,6.53,0,0,1-.68,3.2,4.74,4.74,0,0,1-1.89,1.85,8.2,8.2,0,0,1-2.87.85,31.3,31.3,0,0,1-3.66.2c-.09.1-.14.14-.14.13v.35c0,.15,0,.44.07.87s.13.93.24,1.5.26,1.16.44,1.77a10.64,10.64,0,0,0,.69,1.72,4.68,4.68,0,0,0,.94,1.3,1.78,1.78,0,0,0,1.24.5,1.43,1.43,0,0,0,1-.43,3.37,3.37,0,0,0,.68-1,6.85,6.85,0,0,0,.39-1.05,4.93,4.93,0,0,1,.17-.61,7,7,0,0,0,0-1.3,2.88,2.88,0,0,1,.11-1.29,1.05,1.05,0,0,1,.5-.61,3.62,3.62,0,0,1,.77-.37,4.54,4.54,0,0,1,1.06-.2,1.57,1.57,0,0,1,.81.18,1.3,1.3,0,0,1,.44.43,1.35,1.35,0,0,1,.19.53C368.11,316.8,368.12,317,368.12,317.12Zm-4.43-8.87v-.52a7.64,7.64,0,0,0,0-.8c0-.28,0-.56-.07-.85a5.52,5.52,0,0,0-.11-.72,4.51,4.51,0,0,0-.3-.77,6.13,6.13,0,0,0-.55-.95,5,5,0,0,0-.71-.79,1.07,1.07,0,0,0-.7-.33,1.49,1.49,0,0,0-1.29,1,9.25,9.25,0,0,0-.8,2.24c-.18.83-.32,1.61-.41,2.35s-.12,1.18-.12,1.33a8.35,8.35,0,0,0-.08,1.13,4.26,4.26,0,0,1-.15,1.12,1.38,1.38,0,0,0,.61.11l1.17.08,1.63.07a2,2,0,0,0,1.16-.59,2.58,2.58,0,0,0,.55-1,3.75,3.75,0,0,0,.19-1.11C363.68,308.88,363.69,308.54,363.69,308.25Z" transform="translate(-33.63 -44.6)"/><path class="cls-24" d="M383.54,309.8a1.2,1.2,0,0,1-.35.89,2.33,2.33,0,0,1-.79.49,3.8,3.8,0,0,1-.84.23l-.42,0a2.07,2.07,0,0,1-.32,0,1.19,1.19,0,0,1-.42-.11,2,2,0,0,1-.43-.24.76.76,0,0,1-.27-.44,2.25,2.25,0,0,1,0-.59c0-.32,0-.71-.07-1.17a13.17,13.17,0,0,0-.24-1.42,7.57,7.57,0,0,0-.47-1.39,3.07,3.07,0,0,0-.75-1.05,1.67,1.67,0,0,0-1.13-.41,1.72,1.72,0,0,0-1.28.52,3.7,3.7,0,0,0-.79,1.31,8.21,8.21,0,0,0-.43,1.74c-.08.63-.14,1.22-.16,1.77a14.18,14.18,0,0,0,0,1.43c0,.39,0,.63,0,.7,0,2,.13,3.92.25,5.92a44.83,44.83,0,0,1,0,5.91.61.61,0,0,1-.31.48,3.51,3.51,0,0,1-.72.39,5.08,5.08,0,0,1-.81.26,3.35,3.35,0,0,1-.67.09,4.68,4.68,0,0,1-.55,0,1.45,1.45,0,0,1-.56-.23l-.37-16.67c-.05-.47-.09-1-.13-1.57s-.07-1.14-.11-1.67-.07-1-.09-1.4,0-.67,0-.8a.76.76,0,0,1,.43-.61,5.51,5.51,0,0,1,.94-.48,5.94,5.94,0,0,1,1-.29l.54-.1q.66,0,.81.3a1.14,1.14,0,0,1,.11.63l-.06.63c0,.2.1.29.32.29A2.31,2.31,0,0,0,375,303c.3-.11.63-.24,1-.39s.67-.28,1-.39a2.32,2.32,0,0,1,.64-.17,6.06,6.06,0,0,1,1.91.3,5,5,0,0,1,1.64.91,5.12,5.12,0,0,1,1.24,1.51,6.45,6.45,0,0,1,.68,2.16c0,.18.07.41.13.69s.12.57.17.85.1.55.15.81A3.24,3.24,0,0,1,383.54,309.8Z" transform="translate(-33.63 -44.6)"/></g></g></svg>