<svg width="20" height="19" viewBox="0 0 20 19" fill="none" xmlns="http://www.w3.org/2000/svg">
<path d="M16.4 18.8C17.1732 18.8 17.8 18.1732 17.8 17.4C17.8 16.6268 17.1732 16 16.4 16C15.6268 16 15 16.6268 15 17.4C15 18.1732 15.6268 18.8 16.4 18.8Z" fill="black"/>
<path d="M8.4 18.8C9.1732 18.8 9.8 18.1732 9.8 17.4C9.8 16.6268 9.1732 16 8.4 16C7.6268 16 7 16.6268 7 17.4C7 18.1732 7.6268 18.8 8.4 18.8Z" fill="black"/>
<path d="M0.833374 0.833344H4.16671L6.40004 11.9917C6.47624 12.3753 6.68496 12.72 6.98966 12.9653C7.29436 13.2105 7.67562 13.3408 8.06671 13.3333H16.1667C16.5578 13.3408 16.9391 13.2105 17.2438 12.9653C17.5484 12.72 17.7572 12.3753 17.8334 11.9917L19.1667 5.00001H5.00004" stroke="black" stroke-width="0.5" stroke-linecap="round" stroke-linejoin="round"/>
</svg>
