<svg width="275" height="123" viewBox="0 0 275 123" fill="none" xmlns="http://www.w3.org/2000/svg">
<g clip-path="url(#clip0_19_792)">
<path d="M240.43 57.9C240.43 57.9 248.09 59.19 248.86 61.64C249.63 64.09 249.95 72.64 244.18 81.09C238.41 89.54 239.18 93.74 231.47 89.19C223.76 84.64 240.47 57.9 240.47 57.9H240.43Z" fill="#C11A20"/>
<path d="M231.47 89.2601C239.19 93.8101 238.4 89.6 244.18 81.16C245.807 78.7784 247.084 76.1751 247.97 73.4301C243.109 73.0801 238.319 72.0709 233.73 70.4301C230.19 78.0601 227.35 86.8301 231.47 89.2601Z" fill="#0A1239"/>
<path d="M209.02 31.4201C212.75 27.9501 235.92 7.76006 240.41 3.90006C244.9 0.0400572 255.56 -3.63994 254.59 10.5501C254.09 17.9101 251.77 29.8701 249.59 40.2501C247.59 49.9601 245.59 58.2501 245.8 59.7601C246.18 62.7601 248.03 71.1101 244.43 75.0101C244.43 75.0101 238.55 79.3301 237.67 82.5901C236.79 85.8501 236.46 91.2901 230.54 91.7401C227.27 91.8009 224.002 91.5497 220.78 90.9901C216.58 90.4401 212.02 89.8801 207.69 90.3901C199.6 91.3301 165.26 101.28 143.84 101.17C122.42 101.06 92.8401 99.3001 65.9201 91.9101C39.0001 84.5201 23.6101 76.6501 13.0701 70.4301C2.53012 64.2101 -1.22988 57.0501 0.980121 50.7901C3.19012 44.5301 18.4801 41.2101 24.5101 37.8501C31.1301 34.1401 40.8401 28.9701 49.2001 22.2901C57.5601 15.6101 66.0001 12.5801 80.8301 12.0001C97.4101 11.3601 170.42 35.0001 179.52 37.5901C189.9 40.5001 191.72 40.4401 196.03 39.3901C202.39 37.8501 209.03 31.3901 209.03 31.3901L209.02 31.4201Z" fill="#E8E9EA"/>
<path d="M115.09 18.25C106.98 16.14 98.77 14.04 90.54 12.61C87.8136 12.0824 85.0534 11.7483 82.28 11.61C76.7707 11.496 71.2712 12.125 65.93 13.48C60.705 14.7585 55.7708 17.0186 51.39 20.14C48.55 22.14 45.89 24.38 43.03 26.35C39.97 28.46 36.81 30.4 33.6 32.27C28.9021 35.2128 23.9686 37.7615 18.85 39.89C14.07 41.73 9.02997 43.33 4.70997 46.14C3.04696 47.108 1.68353 48.5164 0.769967 50.21C-0.00120723 52.0577 -0.230138 54.0869 0.109967 56.06C0.889967 61.5 5.46997 65.72 9.69997 68.74C13.6338 71.3917 17.7508 73.761 22.02 75.83C26.62 78.2 31.33 80.34 36.12 82.31C49.6962 87.8947 63.7547 92.2261 78.12 95.25C92.8914 98.2724 107.871 100.168 122.93 100.92C135.15 101.62 147.37 102.01 159.53 100.36C171.27 98.77 182.84 96.18 194.38 93.55C198.23 92.67 202.08 91.73 205.97 91.04C212.08 89.94 218.24 91.1 224.31 91.83C227.09 92.16 230.24 92.62 232.93 91.6C233.856 91.1975 234.684 90.5995 235.357 89.8469C236.03 89.0943 236.533 88.205 236.83 87.24C237.61 85.24 237.63 82.98 238.77 81.13C240.173 79.1224 241.896 77.3589 243.87 75.91C247.45 73.03 247.22 67.85 246.73 63.68C246.375 62.0139 246.207 60.3133 246.23 58.61C246.54 56.02 247.16 53.46 247.7 50.91C249.29 43.39 250.94 35.91 252.37 28.34C253.56 22.01 254.94 15.46 255.04 8.98998C255.09 5.45998 254.15 1.07998 250.17 0.179977C247.17 -0.520023 243.79 0.999977 241.35 2.68998C239.001 4.47667 236.751 6.38948 234.61 8.41998C231.05 11.52 227.49 14.6233 223.93 17.73C218.85 22.14 213.69 26.55 208.77 31.14C208.41 31.48 208.96 32.03 209.32 31.69C215.07 26.34 221.09 21.26 227 16.09C230.333 13.1633 233.697 10.2366 237.09 7.30998C239.26 5.41998 241.35 3.35998 243.96 2.06998C246.84 0.629977 250.96 -0.130023 252.96 2.99998C254.38 5.14998 254.35 8.08998 254.2 10.55C254 13.69 253.53 16.82 253.05 19.93C251.88 27.38 250.34 34.76 248.78 42.13C248.01 45.75 247.21 49.37 246.47 53C245.971 55.0502 245.61 57.1315 245.39 59.23C245.26 61.07 245.91 63.1 246.08 64.93C246.34 67.72 246.36 70.76 245.08 73.33C244.3 74.92 242.67 75.84 241.39 77C239.75 78.49 237.92 80.3 237.26 82.49C236.6 84.68 236.44 86.69 235.26 88.59C233.65 91.31 230.55 91.5 227.71 91.37C220.86 91.07 214.13 89.14 207.24 90.05C203.86 90.5 200.52 91.35 197.24 92.05C192 93.24 186.76 94.45 181.51 95.57C169.77 98.14 157.77 100.5 145.7 100.77C139.38 100.91 133.02 100.64 126.7 100.34C119.413 100.013 112.137 99.4566 104.87 98.67C89.1487 97.0081 73.6155 93.8914 58.47 89.36C46.5056 85.8563 34.8685 81.3192 23.69 75.8C19.69 73.8 15.8 71.69 12.03 69.34C7.02997 66.26 1.56997 61.61 0.829968 55.43C0.502713 53.2451 1.03695 51.0185 2.31997 49.22C3.87681 47.5122 5.77425 46.1496 7.88997 45.22C12.52 42.84 17.55 41.37 22.33 39.32C24.6411 38.2494 26.8942 37.0577 29.08 35.75C32.08 34.06 35.08 32.32 38.08 30.49C41.33 28.49 44.5 26.35 47.55 24.05C49.8645 22.1984 52.2745 20.4694 54.77 18.87C59.6977 16.0065 65.1293 14.1156 70.77 13.3C75.2538 12.4797 79.8222 12.2211 84.37 12.53C91.64 13.19 98.85 14.99 105.91 16.72C124.32 21.22 142.5 26.72 160.62 32.24C166.34 33.99 172.05 35.79 177.79 37.5C181.595 38.7467 185.494 39.683 189.45 40.3C193.493 40.6702 197.551 39.772 201.06 37.73C204.047 36.1069 206.802 34.0887 209.25 31.73C209.61 31.38 209.06 30.84 208.7 31.18C205.307 34.6337 201.168 37.2643 196.6 38.87C192.66 40.08 188.96 39.64 185.01 38.7C179.24 37.32 173.59 35.46 167.93 33.7" fill="#3A383E"/>
<path d="M108.77 33.3C101.14 33.3 95.89 34.46 94.62 37.3C90.77 45.77 89.1401 56.1401 65.8901 57.0401C42.6401 57.9401 47.2301 68.95 65.8901 72.14C71.942 73.3057 78.0791 73.9746 84.2401 74.14C92.7401 74.14 98.1501 72.01 98.9601 66.14C99.9601 58.58 105.67 56.98 120.56 56.87C119.325 56.2563 118.331 55.2478 117.734 54.0045C117.138 52.7612 116.973 51.3544 117.267 50.0071C117.562 48.6599 118.297 47.4494 119.357 46.5677C120.417 45.6859 121.742 45.1835 123.12 45.14H123.55H123.98C125.4 45.1392 126.776 45.6262 127.88 46.5197C128.983 47.4131 129.745 48.6586 130.04 50.0474C130.334 51.4362 130.142 52.8839 129.495 54.1479C128.849 55.4119 127.788 56.4153 126.49 56.99L132.49 57.08C134.22 57.08 136.19 57.15 138.34 57.21C137.568 56.3124 137.07 55.2118 136.905 54.0392C136.741 52.8666 136.916 51.6714 137.412 50.5958C137.907 49.5202 138.7 48.6095 139.698 47.9721C140.696 47.3346 141.856 46.9972 143.04 47H143.9C145.111 47.0023 146.294 47.3594 147.304 48.0273C148.313 48.6952 149.105 49.6444 149.581 50.7576C150.056 51.8708 150.195 53.099 149.98 54.2903C149.765 55.4816 149.205 56.5836 148.37 57.46C150.97 57.52 153.69 57.59 156.45 57.64C156.239 56.9946 156.134 56.3191 156.14 55.64C156.14 54.0001 156.791 52.4272 157.95 51.2666C159.108 50.106 160.68 49.4527 162.32 49.4501H162.75H163.18C164.822 49.4501 166.396 50.1022 167.557 51.2631C168.718 52.4239 169.37 53.9984 169.37 55.64C169.374 56.3672 169.245 57.0889 168.99 57.7701H173.3H176.09C176.534 56.5958 177.325 55.5844 178.357 54.87C179.39 54.1556 180.615 53.772 181.87 53.7701H182.3H182.73C183.927 53.7716 185.097 54.1201 186.1 54.7732C187.103 55.4264 187.895 56.3561 188.38 57.4501C202.26 56.7801 208.83 54.81 193.62 49.94C169.23 42.21 129.84 33.3 108.77 33.3Z" fill="#D7D9DD"/>
<path d="M35.3099 31.77C31.1799 34.24 27.0299 36.44 24.1499 38.04C18.4899 41.17 5.1499 44.72 1.6499 50.25C6.40285 52.3717 11.29 54.1789 16.2799 55.66C46.1099 65.38 66.0299 42.75 73.1399 35.96C65.0799 32.24 54.7699 29.47 45.7699 25.36C42.3899 27.82 38.6699 29.75 35.3099 31.77Z" fill="white"/>
<path d="M254.59 10.55C255.37 -3.44998 245.02 0.0100191 240.53 3.87002C238.43 5.68002 232.2 11.14 225.77 16.69L252.77 23.49C253.611 19.213 254.219 14.8932 254.59 10.55V10.55Z" fill="white"/>
<path d="M252.33 26.14L223.39 18.84C219.58 22.17 215.9 25.4 213.16 27.84L250.16 37.17C250.92 33.48 251.66 29.72 252.33 26.14Z" fill="white"/>
<path d="M248.66 44.4801L206.29 33.8001C203.77 35.8001 199.94 38.4501 196.17 39.3101C191.51 40.3101 190.04 40.4201 179.66 37.5101C170.56 34.9601 97.5601 11.6801 80.9701 11.9201C60.5301 12.2101 51.0801 20.8501 51.0801 20.8501C59.7101 48.4901 74.4501 20.6801 125.84 29.4401C176.42 38.0601 236.08 57.0201 241.04 58.6201C242.04 58.9401 243.64 59.3901 245.8 59.8801C245.796 59.8035 245.796 59.7267 245.8 59.6501C245.68 58.3801 247.04 52.2801 248.66 44.4801Z" fill="white"/>
<path d="M221.27 86.21C213.95 84.73 204.41 85.46 189.77 86.21C169.451 87.2908 149.089 87.2908 128.77 86.21C62.1301 82.78 32.4801 66.02 20.8201 56.21C16.5271 52.6226 12.6164 48.6013 9.15009 44.21C5.23009 46.04 1.95009 48.21 1.03009 50.81C-1.11991 57.14 2.61009 64.27 13.1501 70.49C23.6901 76.71 39.1501 84.58 66.0001 91.97C92.8501 99.36 122.5 101.12 143.91 101.23C165.32 101.34 199.67 91.4 207.77 90.45C212.142 90.1205 216.538 90.3253 220.86 91.06C224.083 91.6097 227.351 91.8607 230.62 91.81C231.859 91.7812 233.062 91.3859 234.076 90.674C235.091 89.9621 235.872 88.9654 236.32 87.81C231.28 87.7861 226.256 87.2602 221.32 86.24L221.27 86.21Z" fill="#E51717"/>
<path d="M19.7701 40.01C12.7001 42.76 2.77011 45.88 1.07011 50.82C-1.11989 57.08 2.61011 64.24 13.1501 70.46L13.9701 70.94C18.3468 65.6608 20.9004 59.1086 21.2501 52.26C21.5254 48.1201 21.0234 43.9652 19.7701 40.01Z" fill="#FF1616"/>
<path d="M240.41 3.90006C235.93 7.76006 212.75 27.9001 209.02 31.4201C209.02 31.4201 202.39 37.8401 196.02 39.4201C192.835 40.2176 189.498 40.1831 186.33 39.3201C197.46 42.2201 198.09 42.8301 207.67 45.7201C208.82 46.0601 209.59 46.3201 210.08 46.5001C208.08 45.5701 202.99 42.3801 207.67 37.3601C216.01 28.4301 232.37 14.6201 240.42 7.53006C248.47 0.440056 254.42 0.720056 254.53 8.43006C254.4 -3.23994 244.65 0.260056 240.41 3.90006Z" fill="#9E1D22"/>
<path d="M221.32 50.14C217.66 49.1567 214.066 47.9409 210.56 46.5L234.69 52.79C234.69 52.79 227.27 51.6 221.32 50.14Z" fill="#B5B7BA"/>
<path d="M243.86 57.1399C242.846 56.0328 241.64 55.1181 240.3 54.4399C240.46 54.5599 245.53 56.1399 246.16 60.4999C245.496 59.3131 244.726 58.1886 243.86 57.1399V57.1399Z" fill="#B5B7BA"/>
<path d="M122.23 56.92H120.56C121.364 57.2865 122.237 57.4742 123.12 57.47H123.98C124.844 57.4746 125.699 57.2975 126.49 56.95H122.23V56.92Z" fill="#AFB1BC"/>
<path d="M123.98 45.14H123.55H123.12C121.708 45.1429 120.339 45.6284 119.241 46.516C118.143 47.4035 117.382 48.6398 117.083 50.0197C116.784 51.3997 116.966 52.8403 117.598 54.1026C118.231 55.365 119.276 56.3732 120.56 56.96H122.23H126.49C127.77 56.3751 128.813 55.3711 129.446 54.1138C130.079 52.8565 130.265 51.4209 129.973 50.0439C129.68 48.6669 128.927 47.4307 127.838 46.5392C126.748 45.6477 125.388 45.1541 123.98 45.14V45.14Z" fill="#A2A5B2"/>
<path d="M138.31 57.14C138.891 57.8182 139.612 58.3625 140.423 58.7354C141.235 59.1083 142.117 59.3009 143.01 59.3H143.44H143.87C144.706 59.3003 145.532 59.1312 146.301 58.803C147.069 58.4747 147.763 57.994 148.34 57.39L138.34 57.14H138.31Z" fill="#AFB1BC"/>
<path d="M143.87 46.9601H143.01C141.831 46.9621 140.678 47.3011 139.686 47.9371C138.694 48.5731 137.904 49.4796 137.41 50.5496C136.916 51.6196 136.738 52.8085 136.898 53.9762C137.057 55.1439 137.547 56.2417 138.31 57.1401L148.31 57.3901C149.145 56.5136 149.705 55.4116 149.92 54.2203C150.135 53.029 149.996 51.8008 149.521 50.6876C149.045 49.5744 148.253 48.6252 147.244 47.9573C146.234 47.2894 145.051 46.9323 143.84 46.9301L143.87 46.9601Z" fill="#A2A5B2"/>
<path d="M156.42 57.6C156.831 58.8316 157.619 59.9028 158.673 60.6619C159.726 61.421 160.991 61.8297 162.29 61.83H163.15C164.411 61.8355 165.643 61.4553 166.682 60.7403C167.72 60.0253 168.515 59.0098 168.96 57.83C164.8 57.83 160.56 57.74 156.42 57.65V57.6Z" fill="#AFB1BC"/>
<path d="M163.15 49.46H162.72H162.29C160.65 49.4626 159.078 50.1159 157.92 51.2765C156.761 52.4371 156.11 54.01 156.11 55.65C156.104 56.329 156.209 57.0045 156.42 57.65C160.56 57.74 164.8 57.8 168.96 57.83C169.215 57.1489 169.344 56.4271 169.34 55.7C169.34 54.0583 168.688 52.4838 167.527 51.323C166.366 50.1621 164.792 49.51 163.15 49.51V49.46Z" fill="#A2A5B2"/>
<path d="M188.35 57.5C184.68 57.68 180.49 57.77 176.06 57.79C175.791 58.4993 175.652 59.2513 175.65 60.01C175.65 60.8224 175.81 61.6269 176.121 62.3773C176.432 63.1277 176.889 63.8095 177.464 64.3835C178.038 64.9575 178.721 65.4125 179.472 65.7225C180.223 66.0324 181.027 66.1913 181.84 66.19H182.7C183.73 66.1904 184.743 65.9335 185.649 65.4425C186.554 64.9515 187.322 64.2421 187.884 63.3787C188.445 62.5152 188.782 61.5252 188.863 60.4985C188.945 59.4718 188.768 58.4411 188.35 57.5V57.5Z" fill="#AFB1BC"/>
<path d="M182.7 53.8199H182.27H181.84C180.585 53.8219 179.36 54.2055 178.327 54.9199C177.295 55.6343 176.504 56.6457 176.06 57.8199C180.49 57.8199 184.68 57.7099 188.35 57.5299C187.865 56.436 187.073 55.5062 186.07 54.8531C185.067 54.2 183.897 53.8515 182.7 53.8499V53.8199Z" fill="#A2A5B2"/>
<path d="M196.03 39.39C192.845 40.1876 189.508 40.1531 186.34 39.29C197.47 42.19 198.1 42.8 207.68 45.69C208.83 46.03 209.6 46.29 210.09 46.47C208.09 45.54 203 42.35 207.68 37.33C208.43 36.52 209.26 35.67 210.13 34.79L206.24 33.79C203.77 35.81 199.83 38.47 196.03 39.39Z" fill="#C11A20"/>
<path d="M213.11 27.75L216.56 28.61C219.76 25.61 223.22 22.54 226.56 19.61L223.31 18.79C219.54 22.08 215.86 25.31 213.11 27.75Z" fill="#C11A20"/>
<path d="M240.41 3.9C238.31 5.7 232.12 11.08 225.75 16.65L228.99 17.47C233.38 13.62 237.47 10.11 240.43 7.47C248.49 0.379996 254.43 0.659996 254.54 8.37C254.4 -3.24 244.65 0.259996 240.41 3.9Z" fill="#C11A20"/>
<path d="M240.42 84.8101C239.946 84.887 239.496 85.0711 239.105 85.3484C238.713 85.6257 238.39 85.9888 238.16 86.4101C237.93 86.8597 237.803 87.3552 237.79 87.8601V88.1401L237.59 88.0201C237.29 87.8601 237 87.6901 236.71 87.5201C236.238 88.7713 235.457 89.8826 234.44 90.7501C235.024 90.9795 235.643 91.1079 236.27 91.1301C238.47 91.1301 239.46 89.0201 241.49 85.4701L240.41 84.8201L240.42 84.8101Z" fill="#C11A20"/>
<path d="M105.03 67.77C105.499 72.8331 106.26 77.8648 107.31 82.84C85.56 79.84 68.31 76.74 54.52 73.71C71.52 79.45 95.18 84.4 127.77 86.14C125.38 84.21 123.4 82.53 121.77 81.09C118.57 79.15 115.67 77.33 113.25 75.72C110.878 74.2695 108.68 72.5516 106.7 70.6C105.961 69.7731 105.393 68.8078 105.03 67.76V67.77ZM202.21 63.21C201.48 66.4 203.49 75.67 206.09 82.45C200.84 82.69 195.29 82.86 189.41 82.95C190.59 83.95 191.76 84.95 192.92 86.02C199.87 85.66 205.6 85.35 210.47 85.35C214.09 85.2805 217.707 85.5686 221.27 86.21C226.042 87.1955 230.898 87.7212 235.77 87.78C235.87 87.56 235.96 87.34 236.04 87.11C231.21 84.33 224.04 80.38 217.53 76.36L217.31 76.22H217.26C214.26 74.35 211.4 72.47 209 70.69C206.954 69.2585 205.093 67.579 203.46 65.69C202.83 64.9956 202.405 64.1408 202.23 63.22L202.21 63.21Z" fill="#AFB1BC"/>
<path d="M231.62 91.67C231.289 91.7344 230.956 91.7811 230.62 91.81C230.17 91.81 229.7 91.81 229.22 91.81H229.47C230.195 91.8317 230.92 91.768 231.63 91.62L231.62 91.67ZM219.91 90.93L222.68 91.3L220.85 91.06L219.91 90.93V90.93ZM212.46 90.27C214.15 90.38 217.24 90.6 219.58 90.89C217.26 90.6 214.86 90.33 212.46 90.27ZM236.03 87.14C235.95 87.37 235.86 87.59 235.76 87.81H236.31C235.85 88.9318 235.102 89.9117 234.14 90.65L234.45 90.77C235.49 89.9001 236.289 88.7775 236.77 87.51L236.6 87.42L236.08 87.11L236.03 87.14ZM1.43006 49.98C1.28573 50.2385 1.16523 50.5096 1.07006 50.79C0.668226 51.9198 0.465222 53.1108 0.470055 54.31C0.470249 53.121 0.673156 51.9408 1.07006 50.82C1.16371 50.547 1.28081 50.2827 1.42005 50.03L1.43006 49.98Z" fill="#3A383E"/>
<path d="M210.49 85.07C205.62 85.07 199.89 85.38 192.94 85.74L195.56 88.09C196.92 89.32 198.23 90.53 199.47 91.71C203.16 90.88 206.04 90.28 207.75 90.08C208.896 89.953 210.047 89.8862 211.2 89.88L212.45 89.96C214.85 90.02 217.25 90.29 219.57 90.58H219.85L220.79 90.71L222.62 90.95C224.62 91.19 226.76 91.44 228.62 91.5H229.19C229.67 91.5 230.14 91.5 230.59 91.5C230.926 91.4712 231.259 91.4244 231.59 91.36C231.784 91.3068 231.975 91.24 232.16 91.16C232.83 90.977 233.462 90.6793 234.03 90.28H234.09C235.052 89.5417 235.8 88.5618 236.26 87.44H235.79C230.921 87.3806 226.069 86.8549 221.3 85.87C217.737 85.2286 214.12 84.9405 210.5 85.01L210.49 85.07ZM18.69 63.01C17.5277 65.776 15.9458 68.3462 14 70.63C24.53 76.78 39.84 84.43 66 91.63C83 96.3 101.1 98.73 117.53 99.9C117.68 99.1098 117.873 98.3286 118.11 97.56C118.619 95.6398 119.614 93.8832 121 92.46C121.47 92.0244 122.02 91.6847 122.62 91.46C122.74 91.4 122.86 91.33 122.98 91.28C127.31 87.52 133.23 90.28 128.55 86.51L127.79 85.86C95.21 84.11 71.55 79.16 54.55 73.42C37.98 69.77 26.55 66.2 18.7 63L18.69 63.01Z" fill="#9E1D22"/>
<path d="M1.41997 50.03C1.28073 50.2828 1.16362 50.5471 1.06997 50.82C0.673072 51.9408 0.470164 53.121 0.469971 54.31C0.469971 59.64 4.53997 65.31 13.15 70.42L13.98 70.91C15.9258 68.6262 17.5077 66.056 18.67 63.29C0.889971 56.03 1.31997 50.59 1.41997 50.03Z" fill="black" fill-opacity="0.2"/>
<path d="M220.08 72.14C202.44 62.14 208.07 59.97 210.77 60.01C206.77 59.75 202.6 60.25 202.36 62.79C202.08 65.79 209.16 71.01 217.36 76.11C217.36 76.11 217.04 72.65 220.07 72.17L220.08 72.14Z" fill="#41353C"/>
<path d="M220.08 72.1399L220.14 72.0299C216.667 70.1631 213.391 67.952 210.36 65.4299C209.608 64.7942 208.936 64.0688 208.36 63.2699C208.043 62.8343 207.855 62.3177 207.82 61.7799C207.812 61.4974 207.904 61.2212 208.08 60.9999C208.375 60.6621 208.765 60.4215 209.2 60.3099C209.661 60.1763 210.14 60.109 210.62 60.1099H210.77V59.8499C210.16 59.8499 209.54 59.7899 208.93 59.7899C207.403 59.7423 205.878 59.9519 204.42 60.4099C203.852 60.5974 203.333 60.9082 202.9 61.3199C202.513 61.7021 202.272 62.2083 202.22 62.7499V62.9399C202.325 63.9549 202.761 64.9071 203.46 65.6499C205.093 67.539 206.954 69.2185 209 70.6499C211.41 72.4399 214.29 74.3399 217.32 76.2099L217.54 76.3499V76.0899C217.54 76.0899 217.54 75.9799 217.54 75.8099C217.536 75.1414 217.676 74.4798 217.95 73.8699C218.153 73.4401 218.463 73.0693 218.85 72.7928C219.236 72.5163 219.687 72.3432 220.16 72.2899L220.52 72.2299L220.2 72.0499L220.14 72.1599V72.0299C219.626 72.091 219.136 72.2818 218.716 72.5845C218.296 72.8871 217.96 73.2916 217.74 73.7599C217.447 74.4033 217.301 75.1033 217.31 75.8099C217.31 75.9899 217.31 76.1099 217.31 76.1199H217.44L217.5 76.0199C213.84 73.8111 210.323 71.3729 206.97 68.7199C205.778 67.7693 204.686 66.7005 203.71 65.5299C203.051 64.8286 202.635 63.9351 202.52 62.9799C202.515 62.9234 202.515 62.8665 202.52 62.8099C202.564 62.3292 202.777 61.8794 203.12 61.5399C203.796 60.9535 204.619 60.5628 205.5 60.4099C206.642 60.1788 207.805 60.0715 208.97 60.0899C209.57 60.0899 210.19 60.0899 210.79 60.1499V59.8899H210.71C210.022 59.8762 209.34 60.0128 208.71 60.2899C208.409 60.4259 208.143 60.6275 207.93 60.8799C207.727 61.1513 207.619 61.4813 207.62 61.8199C207.656 62.4087 207.861 62.9746 208.21 63.4499C209.44 65.3399 212.77 68.1399 220.03 72.2899L220.1 72.1799V72.0499V72.1799L220.08 72.1399Z" fill="#41353C"/>
<path d="M274.25 94.5301C274.18 95.6801 273.04 96.4101 270.13 96.3901C260.84 96.3901 250.84 91.0701 240.41 84.6801C239.642 84.7996 238.943 85.19 238.439 85.7807C237.934 86.3714 237.658 87.1233 237.66 87.9001C248.33 93.9601 262.14 99.9001 272.02 98.6201C274.83 98.2401 275.22 96.6601 274.25 94.5301Z" fill="#F12A2A"/>
<path d="M274.25 94.53H274.12C274.108 94.7829 274.029 95.028 273.89 95.24C273.586 95.6176 273.163 95.8818 272.69 95.99C271.888 96.1995 271.059 96.2938 270.23 96.27H270.13C260.89 96.22 250.9 90.97 240.47 84.58C239.956 84.6661 239.467 84.8685 239.043 85.1718C238.618 85.475 238.268 85.8711 238.02 86.33C237.767 86.8118 237.63 87.3459 237.62 87.89V88.01H237.68C247.34 93.5 259.57 98.93 269.18 98.93C270.163 98.9316 271.145 98.8715 272.12 98.75C272.897 98.6861 273.639 98.4016 274.26 97.93C274.479 97.735 274.653 97.4942 274.769 97.2246C274.885 96.955 274.94 96.6632 274.93 96.37C274.905 95.7132 274.741 95.0692 274.45 94.4799H274.2H274.33H274.21C274.487 95.0384 274.647 95.6475 274.68 96.27C274.692 96.528 274.645 96.7854 274.542 97.0227C274.44 97.26 274.286 97.471 274.09 97.64C273.509 98.0765 272.815 98.3369 272.09 98.39C271.129 98.5202 270.16 98.5837 269.19 98.58C259.68 98.58 247.46 93.17 237.82 87.69L237.75 87.8H237.77C237.784 87.295 237.91 86.7996 238.14 86.35C238.372 85.9271 238.696 85.5624 239.09 85.2834C239.483 85.0045 239.934 84.8187 240.41 84.74V84.62L240.34 84.7299C250.77 91.1399 260.77 96.46 270.13 96.52H270.23C271.293 96.5812 272.355 96.4035 273.34 96C273.639 95.8565 273.9 95.644 274.1 95.38C274.267 95.13 274.364 94.84 274.38 94.54H274.25H274.13L274.25 94.53Z" fill="#41353C"/>
<path d="M240.41 84.68C233.77 80.63 227.04 76.14 220.16 72.22H220.08C217.08 72.7 217.36 76.14 217.37 76.16C224.16 80.37 231.74 84.53 236.62 87.35L237.62 87.95C237.618 87.1732 237.894 86.4213 238.399 85.8306C238.903 85.2399 239.602 84.8495 240.37 84.73L240.41 84.68Z" fill="#DE3434"/>
<path d="M240.41 84.68L240.47 84.57C233.88 80.57 227.1 76.03 220.22 72.11H220.14C219.626 72.171 219.136 72.3618 218.716 72.6645C218.296 72.9671 217.96 73.3717 217.74 73.84C217.447 74.4833 217.301 75.1833 217.31 75.89C217.31 76.08 217.31 76.19 217.31 76.2V76.26H217.37C224.16 80.48 231.74 84.63 236.62 87.46L237.67 88.05L237.87 88.17V87.9C237.883 87.3951 238.01 86.8996 238.24 86.45C238.472 86.0271 238.796 85.6624 239.19 85.3835C239.583 85.1046 240.034 84.9187 240.51 84.84L240.83 84.78L240.55 84.61L240.49 84.72V84.59C239.975 84.6761 239.487 84.8785 239.063 85.1818C238.638 85.485 238.288 85.8812 238.04 86.34C237.787 86.8218 237.65 87.356 237.64 87.9V87.9H237.77L237.84 87.79L236.79 87.19C231.91 84.36 224.33 80.19 217.54 76.01L217.48 76.11H217.6C217.6 76.11 217.6 75.99 217.6 75.83C217.596 75.1614 217.736 74.4998 218.01 73.89C218.213 73.4601 218.523 73.0894 218.91 72.8128C219.296 72.5363 219.748 72.3632 220.22 72.31V72.18L220.15 72.29H220.24C227.11 76.21 233.88 80.7 240.48 84.75L240.55 84.64V84.51V84.64L240.41 84.68Z" fill="#41353C"/>
<path d="M265.77 84.66C255.77 82.81 240.42 84.66 240.41 84.66C250.82 91.04 260.79 96.28 270.06 96.33C272.97 96.33 274.11 95.62 274.18 94.47C272.91 91.67 269.31 87.93 265.77 84.66Z" fill="#F12A2A"/>
<path d="M265.77 84.66V84.54C262.135 83.9411 258.454 83.6633 254.77 83.71C249.969 83.7311 245.172 84.0048 240.4 84.53H240.04L240.35 84.72C250.77 91.14 260.77 96.4 270.08 96.46H270.18C271.243 96.5213 272.305 96.3436 273.29 95.94C273.592 95.7968 273.853 95.5802 274.05 95.31C274.22 95.0614 274.317 94.7706 274.33 94.47V94.41C273.04 91.58 269.44 87.84 265.89 84.57V84.69L265.8 84.79C269.34 88.05 272.93 91.79 274.18 94.55H274.3H274.17C274.158 94.8029 274.079 95.0481 273.94 95.26C273.636 95.6377 273.213 95.9018 272.74 96.01C271.937 96.2196 271.109 96.3139 270.28 96.29H270.19C260.96 96.29 251 91.02 240.6 84.64L240.53 84.75V84.88C245.257 84.3274 250.011 84.0237 254.77 83.97C258.454 83.9178 262.135 84.1922 265.77 84.79V84.66L265.68 84.76L265.77 84.66Z" fill="#41353C"/>
<path d="M254.42 75.0001C250.93 72.0001 246.59 68.2001 243.97 67.3101C241.14 66.4146 238.254 65.7097 235.33 65.2001C231.22 64.3301 220.33 61.9501 216.33 60.8301C214.479 60.3538 212.588 60.0557 210.68 59.9401C208 59.8901 202.37 62.0401 220.1 72.1501C220.1 72.1501 240.78 71.7801 254.41 74.9901L254.42 75.0001Z" fill="#9E1D22"/>
<path d="M254.42 75V75.14H254.79L254.51 74.9C252.76 73.38 250.8 71.68 248.95 70.25C247.464 68.9905 245.799 67.9592 244.01 67.19C241.191 66.309 238.314 65.6241 235.4 65.14C231.29 64.27 220.4 61.88 216.4 60.77C214.543 60.2894 212.645 59.988 210.73 59.87H210.64C209.952 59.8563 209.27 59.9928 208.64 60.27C208.339 60.4059 208.073 60.6075 207.86 60.86C207.656 61.1306 207.547 61.4611 207.55 61.8C207.586 62.3887 207.791 62.9546 208.14 63.43C209.38 65.33 212.73 68.15 220.05 72.32H222.05C227.53 72.32 243.3 72.57 254.37 75.18V75.05V74.93C243.25 72.31 227.48 72.07 221.99 72.06C220.74 72.06 219.99 72.06 219.99 72.06V72.14L220.05 72.02C216.554 70.1498 213.257 67.9283 210.21 65.39C209.45 64.7583 208.778 64.0286 208.21 63.22C207.887 62.7868 207.696 62.2693 207.66 61.73C207.65 61.4472 207.743 61.1704 207.92 60.95C208.212 60.6086 208.604 60.3673 209.04 60.26C209.502 60.1264 209.98 60.059 210.46 60.06H210.54C212.441 60.1754 214.326 60.4735 216.17 60.95C220.17 62.06 231.09 64.45 235.17 65.32C238.091 65.8233 240.974 66.5249 243.8 67.42C245.559 68.1756 247.196 69.1865 248.66 70.42C250.51 71.85 252.46 73.55 254.21 75.06L254.29 74.97V74.84V74.96V74.84V74.96L254.42 75Z" fill="#41353C"/>
<path d="M265.77 84.6599C262.19 81.3699 258.66 78.5599 257.64 77.7299C256.62 76.8999 255.64 76.0499 254.44 75.0099C240.77 71.7899 220.11 72.1399 220.11 72.1399C227.01 76.0699 233.81 80.5899 240.43 84.6399C240.43 84.6399 255.82 82.7899 265.79 84.6399L265.77 84.6599Z" fill="#DE3434"/>
<path d="M265.77 84.66L265.86 84.57C262.27 81.27 258.74 78.46 257.72 77.63C256.7 76.8 255.72 75.95 254.53 74.91H254.45V75.03V74.91C243.33 72.29 227.56 72.05 222.07 72.04C220.82 72.04 220.07 72.04 220.07 72.04H219.6L220.01 72.27C226.9 76.2 233.7 80.71 240.32 84.77H240.37C245.153 84.2486 249.959 83.9815 254.77 83.97C258.454 83.9178 262.135 84.1922 265.77 84.79L266.2 84.87L265.88 84.57L265.79 84.66V84.54C262.155 83.9415 258.474 83.6638 254.79 83.71C249.992 83.7305 245.199 84.0042 240.43 84.53V84.66L240.5 84.55C233.88 80.55 227.08 75.98 220.17 72.04L220.11 72.16V72.28H222.11C227.59 72.28 243.36 72.53 254.43 75.14H254.5V75.02L254.42 75.11C255.62 76.11 256.72 77.11 257.61 77.84C258.5 78.57 262.17 81.47 265.74 84.77L265.83 84.67V84.55V84.67L265.77 84.66Z" fill="#41353C"/>
<path d="M20.95 45.14C20.6966 43.4008 20.3019 41.6851 19.77 40.01C13.13 42.59 3.99998 45.5 1.47998 49.93C1.95998 49.43 6.65998 44.98 20.95 45.14Z" fill="black" fill-opacity="0.2"/>
<path d="M21.29 48.79C14.6521 48.1907 7.96157 48.6089 1.44995 50.03V50.03C1.71995 50.3 6.54995 55.12 20.63 57.03C20.9488 55.4697 21.1593 53.8893 21.26 52.3C21.3344 51.1314 21.3444 49.9597 21.29 48.79V48.79Z" fill="black" fill-opacity="0.2"/>
<path d="M121.68 56.17C125.099 56.17 127.87 53.3987 127.87 49.98C127.87 46.5614 125.099 43.79 121.68 43.79C118.261 43.79 115.49 46.5614 115.49 49.98C115.49 53.3987 118.261 56.17 121.68 56.17Z" fill="#891318"/>
<path d="M122.54 56.17C125.959 56.17 128.73 53.3987 128.73 49.98C128.73 46.5614 125.959 43.79 122.54 43.79C119.121 43.79 116.35 46.5614 116.35 49.98C116.35 53.3987 119.121 56.17 122.54 56.17Z" fill="#CC1212"/>
<path d="M122.54 54.86C125.235 54.86 127.42 52.6751 127.42 49.98C127.42 47.2848 125.235 45.1 122.54 45.1C119.845 45.1 117.66 47.2848 117.66 49.98C117.66 52.6751 119.845 54.86 122.54 54.86Z" fill="#891318"/>
<path d="M122.54 54.34C124.948 54.34 126.9 52.388 126.9 49.98C126.9 47.572 124.948 45.62 122.54 45.62C120.132 45.62 118.18 47.572 118.18 49.98C118.18 52.388 120.132 54.34 122.54 54.34Z" fill="#90D4E8"/>
<path d="M122.4 53.3C124.234 53.3 125.72 51.8136 125.72 49.98C125.72 48.1464 124.234 46.66 122.4 46.66C120.566 46.66 119.08 48.1464 119.08 49.98C119.08 51.8136 120.566 53.3 122.4 53.3Z" fill="#5DD4E8"/>
<path d="M147.77 51.83C147.772 53.0551 147.411 54.2533 146.731 55.2728C146.052 56.2922 145.085 57.0872 143.954 57.5569C142.822 58.0267 141.577 58.1501 140.375 57.9116C139.173 57.673 138.069 57.0833 137.203 56.217C136.337 55.3507 135.747 54.2469 135.509 53.0452C135.27 51.8435 135.393 50.5981 135.863 49.4666C136.333 48.3351 137.128 47.3685 138.147 46.6891C139.167 46.0097 140.365 45.6481 141.59 45.65C143.228 45.6527 144.799 46.3046 145.957 47.463C147.116 48.6214 147.767 50.1918 147.77 51.83V51.83Z" fill="#891318"/>
<path d="M148.61 51.83C148.612 53.0551 148.25 54.2533 147.571 55.2728C146.892 56.2922 145.925 57.0872 144.793 57.5569C143.662 58.0267 142.417 58.1501 141.215 57.9116C140.013 57.673 138.909 57.0833 138.043 56.217C137.177 55.3507 136.587 54.2469 136.348 53.0452C136.11 51.8435 136.233 50.5981 136.703 49.4666C137.173 48.3351 137.968 47.3685 138.987 46.6891C140.007 46.0097 141.205 45.6481 142.43 45.65C144.068 45.6527 145.639 46.3046 146.797 47.463C147.955 48.6214 148.607 50.1918 148.61 51.83V51.83Z" fill="#CC1212"/>
<path d="M147.3 51.83C147.302 52.796 147.017 53.7409 146.482 54.5449C145.946 55.349 145.184 55.976 144.292 56.3466C143.4 56.7172 142.418 56.8147 141.47 56.6267C140.523 56.4387 139.652 55.9737 138.969 55.2906C138.286 54.6076 137.821 53.7371 137.633 52.7896C137.445 51.842 137.543 50.86 137.913 49.9679C138.284 49.0757 138.911 48.3137 139.715 47.7782C140.519 47.2428 141.464 46.958 142.43 46.96C143.722 46.96 144.96 47.4731 145.874 48.3864C146.787 49.2997 147.3 50.5384 147.3 51.83Z" fill="#891318"/>
<path d="M146.77 51.83C146.77 52.6923 146.514 53.5353 146.035 54.2523C145.556 54.9693 144.875 55.5281 144.079 55.8581C143.282 56.1881 142.405 56.2744 141.559 56.1062C140.714 55.938 139.937 55.5227 139.327 54.913C138.717 54.3032 138.302 53.5263 138.134 52.6806C137.966 51.8348 138.052 50.9582 138.382 50.1615C138.712 49.3648 139.271 48.6838 139.988 48.2048C140.705 47.7257 141.548 47.47 142.41 47.47C143.566 47.47 144.675 47.9293 145.493 48.747C146.311 49.5646 146.77 50.6736 146.77 51.83V51.83Z" fill="#90D4E8"/>
<path d="M145.77 51.83C145.772 52.4875 145.579 53.1308 145.215 53.6783C144.851 54.2258 144.332 54.6529 143.725 54.9054C143.118 55.1579 142.45 55.2245 141.805 55.0967C141.16 54.9689 140.567 54.6525 140.103 54.1876C139.638 53.7227 139.321 53.1302 139.193 52.4853C139.066 51.8403 139.132 51.172 139.385 50.5649C139.637 49.9578 140.064 49.4394 140.612 49.0754C141.159 48.7113 141.803 48.5181 142.46 48.52C143.337 48.5227 144.178 48.8722 144.798 49.4924C145.418 50.1126 145.767 50.953 145.77 51.83V51.83Z" fill="#5DD4E8"/>
<path d="M167.04 54.34C167.038 55.5639 166.673 56.7596 165.992 57.7763C165.31 58.7929 164.343 59.5847 163.212 60.0517C162.081 60.5187 160.836 60.6398 159.636 60.3999C158.436 60.1599 157.334 59.5696 156.469 58.7035C155.605 57.8374 155.016 56.7344 154.778 55.534C154.54 54.3335 154.663 53.0894 155.132 51.9589C155.601 50.8284 156.394 49.8623 157.412 49.1825C158.43 48.5028 159.626 48.14 160.85 48.14C161.664 48.1387 162.47 48.2982 163.223 48.6095C163.975 48.9207 164.658 49.3775 165.233 49.9536C165.809 50.5297 166.264 51.2138 166.574 51.9666C166.884 52.7193 167.043 53.5259 167.04 54.34V54.34Z" fill="#891318"/>
<path d="M167.9 54.34C167.898 55.5639 167.533 56.7596 166.852 57.7763C166.171 58.7929 165.203 59.5847 164.072 60.0517C162.941 60.5187 161.696 60.6398 160.496 60.3999C159.296 60.1599 158.194 59.5696 157.329 58.7035C156.465 57.8374 155.876 56.7344 155.638 55.534C155.4 54.3335 155.523 53.0894 155.992 51.9589C156.461 50.8284 157.254 49.8623 158.272 49.1825C159.29 48.5028 160.486 48.14 161.71 48.14C162.524 48.1387 163.33 48.2982 164.083 48.6095C164.835 48.9207 165.518 49.3775 166.093 49.9536C166.669 50.5297 167.124 51.2138 167.434 51.9666C167.744 52.7193 167.903 53.5259 167.9 54.34V54.34Z" fill="#CC1212"/>
<path d="M166.59 54.34C166.59 55.3051 166.304 56.2486 165.768 57.0512C165.231 57.8537 164.469 58.4791 163.578 58.8485C162.686 59.2179 161.705 59.3145 160.758 59.1262C159.811 58.9379 158.942 58.4731 158.259 57.7907C157.577 57.1082 157.112 56.2386 156.924 55.292C156.736 54.3454 156.832 53.3642 157.202 52.4725C157.571 51.5808 158.196 50.8186 158.999 50.2824C159.801 49.7462 160.745 49.46 161.71 49.46C162.351 49.4587 162.986 49.584 163.579 49.8288C164.172 50.0735 164.71 50.4329 165.164 50.8864C165.617 51.3398 165.977 51.8783 166.221 52.4709C166.466 53.0636 166.591 53.6988 166.59 54.34V54.34Z" fill="#891318"/>
<path d="M166.08 54.34C166.082 55.2047 165.827 56.0506 165.348 56.7705C164.869 57.4905 164.188 58.0522 163.389 58.3845C162.591 58.7167 161.712 58.8047 160.864 58.6372C160.015 58.4697 159.236 58.0543 158.624 57.4436C158.011 56.8328 157.594 56.0542 157.425 55.2062C157.255 54.3582 157.341 53.4791 157.672 52.68C158.002 51.8809 158.562 51.1978 159.281 50.7172C160 50.2365 160.845 49.98 161.71 49.98C162.867 49.98 163.977 50.439 164.797 51.2564C165.616 52.0738 166.077 53.1827 166.08 54.34V54.34Z" fill="#90D4E8"/>
<path d="M165.08 54.47C165.088 55.1382 164.897 55.7936 164.532 56.3531C164.166 56.9125 163.643 57.3507 163.028 57.6119C162.413 57.8731 161.734 57.9455 161.077 57.8201C160.421 57.6946 159.817 57.3768 159.342 56.9071C158.866 56.4375 158.541 55.8371 158.408 55.1823C158.275 54.5275 158.339 53.8479 158.593 53.2298C158.847 52.6117 159.279 52.083 159.834 51.7109C160.389 51.3388 161.042 51.1401 161.71 51.14C162.597 51.14 163.448 51.4895 164.079 52.1129C164.71 52.7363 165.07 53.5832 165.08 54.47Z" fill="#5DD4E8"/>
<path d="M186.58 58.7C186.58 59.9247 186.217 61.1219 185.536 62.14C184.855 63.1582 183.888 63.9516 182.756 64.4198C181.625 64.888 180.38 65.01 179.179 64.7703C177.978 64.5307 176.875 63.9401 176.009 63.0735C175.144 62.2068 174.555 61.1029 174.318 59.9015C174.08 58.7001 174.204 57.4552 174.674 56.3243C175.144 55.1934 175.939 54.2273 176.958 53.5484C177.977 52.8694 179.175 52.508 180.4 52.51C181.212 52.51 182.017 52.6702 182.767 52.9814C183.518 53.2926 184.199 53.7487 184.773 54.3236C185.347 54.8986 185.802 55.581 186.112 56.332C186.422 57.0829 186.581 57.8876 186.58 58.7V58.7Z" fill="#891318"/>
<path d="M187.44 58.7C187.44 59.9247 187.077 61.1219 186.396 62.14C185.716 63.1582 184.748 63.9516 183.617 64.4198C182.485 64.888 181.24 65.01 180.039 64.7703C178.838 64.5307 177.735 63.9401 176.87 63.0735C176.004 62.2068 175.415 61.1029 175.178 59.9015C174.94 58.7001 175.064 57.4552 175.534 56.3243C176.004 55.1934 176.799 54.2273 177.818 53.5484C178.838 52.8694 180.035 52.508 181.26 52.51C182.072 52.51 182.877 52.6702 183.627 52.9814C184.378 53.2926 185.06 53.7487 185.634 54.3236C186.208 54.8986 186.663 55.581 186.973 56.332C187.283 57.0829 187.441 57.8876 187.44 58.7Z" fill="#CC1212"/>
<path d="M186.13 58.7C186.13 59.6656 185.844 60.6094 185.307 61.4122C184.77 62.2149 184.008 62.8404 183.115 63.2094C182.223 63.5785 181.241 63.6746 180.294 63.4854C179.347 63.2963 178.478 62.8306 177.796 62.1471C177.114 61.4636 176.65 60.5931 176.463 59.6459C176.276 58.6986 176.374 57.717 176.744 56.8255C177.115 55.934 177.742 55.1725 178.546 54.6375C179.35 54.1025 180.295 53.818 181.26 53.82C181.901 53.82 182.535 53.9463 183.126 54.1916C183.718 54.437 184.255 54.7966 184.707 55.2499C185.16 55.7032 185.518 56.2412 185.762 56.8332C186.006 57.4252 186.131 58.0596 186.13 58.7Z" fill="#891318"/>
<path d="M185.62 58.7C185.62 59.5623 185.364 60.4053 184.885 61.1222C184.406 61.8392 183.725 62.3981 182.928 62.7281C182.132 63.0581 181.255 63.1444 180.409 62.9762C179.564 62.808 178.787 62.3927 178.177 61.7829C177.567 61.1732 177.152 60.3963 176.984 59.5506C176.815 58.7048 176.902 57.8281 177.232 57.0315C177.562 56.2348 178.121 55.5538 178.838 55.0748C179.555 54.5957 180.398 54.34 181.26 54.34C181.832 54.34 182.399 54.4527 182.928 54.6719C183.457 54.891 183.938 55.2121 184.343 55.617C184.748 56.0218 185.069 56.5025 185.288 57.0315C185.507 57.5604 185.62 58.1274 185.62 58.7Z" fill="#90D4E8"/>
<path d="M184.64 58.7C184.64 59.3709 184.441 60.0267 184.068 60.5844C183.695 61.1421 183.165 61.5766 182.545 61.8328C181.925 62.0891 181.243 62.1557 180.585 62.0241C179.927 61.8924 179.323 61.5686 178.849 61.0935C178.376 60.6184 178.054 60.0134 177.924 59.3552C177.794 58.6969 177.863 58.015 178.121 57.3957C178.379 56.7764 178.815 56.2477 179.374 55.8764C179.933 55.5051 180.589 55.308 181.26 55.31C181.705 55.3099 182.145 55.3977 182.556 55.5682C182.967 55.7387 183.34 55.9885 183.654 56.3035C183.968 56.6184 184.216 56.9922 184.386 57.4034C184.555 57.8146 184.641 58.2552 184.64 58.7V58.7Z" fill="#5DD4E8"/>
<path d="M138.08 51.38L142.88 56.18C143.566 56.1085 144.225 55.8718 144.8 55.49L138.8 49.49C138.418 50.0562 138.171 50.703 138.08 51.38V51.38Z" fill="#AEDFEE"/>
<path d="M146.77 51.85C146.775 51.7601 146.775 51.6699 146.77 51.58L142.7 47.5H142.43C141.783 47.4979 141.144 47.6414 140.56 47.92L146.36 53.72C146.637 53.1358 146.777 52.4964 146.77 51.85V51.85Z" fill="#AEDFEE"/>
<path d="M157.37 53.89L162.17 58.69C162.855 58.6122 163.512 58.3759 164.09 58L158.09 52C157.7 52.5623 157.453 53.211 157.37 53.89Z" fill="#AEDFEE"/>
<path d="M166.06 54.35C166.06 54.26 166.06 54.17 166.06 54.08L161.98 50.01H161.71C161.063 50.0124 160.424 50.1593 159.84 50.44L165.65 56.24C165.927 55.6489 166.067 55.0028 166.06 54.35Z" fill="#AEDFEE"/>
<path d="M176.91 58.25L181.71 63.05C182.395 62.974 183.053 62.7376 183.63 62.36L177.63 56.36C177.245 56.9247 176.998 57.5722 176.91 58.25Z" fill="#AEDFEE"/>
<path d="M185.61 58.71C185.615 58.6201 185.615 58.5299 185.61 58.44L181.54 54.37H181.27C180.622 54.3713 179.983 54.5183 179.4 54.8L185.2 60.6C185.477 60.0087 185.617 59.3628 185.61 58.71V58.71Z" fill="#AEDFEE"/>
<path d="M118.21 49.52L123.01 54.31C123.695 54.2404 124.354 54.0072 124.93 53.63L118.93 47.63C118.54 48.1923 118.293 48.841 118.21 49.52Z" fill="#AEDFEE"/>
<path d="M126.9 49.98C126.9 49.89 126.9 49.8 126.9 49.71L122.77 45.63H122.5C121.853 45.6289 121.214 45.7724 120.63 46.05L126.44 51.86C126.733 51.276 126.89 50.6333 126.9 49.98V49.98Z" fill="#AEDFEE"/>
<path d="M74.1001 21.56C75.9901 22.05 95.1 28.06 91.23 28.63C87.36 29.2 93.3 31.15 90.47 36.51C87.64 41.87 82.0901 54.87 70.6801 53.3C59.2701 51.73 59.5801 47.8 53.4701 51.87C47.3601 55.94 36.3 42.87 36.3 42.87C36.3 42.87 58.2401 17.45 74.1001 21.56Z" fill="white"/>
<path d="M63.2099 14.65C63.2099 14.65 60.8599 16.14 65.8899 18.73C69.8199 20.73 83.5799 26.94 87.9499 28.61C92.3199 30.28 91.5799 35.61 88.6499 40.04C85.7199 44.47 81.7699 52.35 74.1799 53.43C66.5899 54.51 32.0099 41.27 35.3099 31.77C35.3099 31.77 41.7099 27.91 45.8099 24.86C49.9099 21.81 53.6499 17.69 63.2099 14.65Z" fill="#9E1D22"/>
<path d="M39.5901 39.0701C45.1801 43.1401 51.9701 46.1401 58.4101 48.5301C64.8501 50.9201 72.5901 53.9901 78.7701 49.6501C81.3091 47.8116 83.5115 45.5483 85.2801 42.9601C86.2802 41.4866 87.2014 39.9611 88.0401 38.3901C91.2101 32.7401 89.2401 29.9101 86.3301 28.7101C83.4201 27.5101 72.7001 22.7901 66.4401 19.7901C60.1801 16.7901 61.2001 15.3801 63.5001 14.5601C58.1642 16.0344 53.2221 18.6745 49.0301 22.2901C44.7701 26.0101 35.3101 31.7701 35.3101 31.7701C35.0001 34.8001 37.0001 37.1401 39.5901 39.0701Z" fill="#5DD4E8"/>
<path d="M48.3501 38.96C67.9801 50.02 74.82 44.96 78.86 39.59C85.55 30.65 74.7701 28.36 61.7701 23.28C58.0301 21.81 56.0301 20 55.0801 18.15C53.3029 19.2635 51.5963 20.4859 49.9701 21.81C46.5557 24.4974 42.9935 26.9913 39.3 29.28C39.9 32.22 42.2501 35.53 48.3501 38.96Z" fill="#8BD4E8"/>
<path d="M56.24 17.61C53.8151 18.9494 51.5188 20.5094 49.38 22.27C48.54 22.95 47.67 23.61 46.79 24.27C44.9795 30.1933 44.4009 36.4246 45.09 42.58C47.6423 43.9919 50.2695 45.2638 52.96 46.39C50.39 36.24 52.98 25.66 56.24 17.61Z" fill="#AEDFEE"/>
<path d="M75.46 23.99C73.36 22.99 71.22 22.06 69.27 21.16C66.08 30.01 64.07 41.25 68.27 51.59C70.5927 52.0318 72.9848 51.9464 75.27 51.34C71.67 42.14 72.89 32.26 75.46 23.99Z" fill="#AEDFEE"/>
<path d="M71.4901 52.14C67.1201 52.14 62.5901 50.43 58.6601 48.95L58.3201 48.82C52.6601 46.69 45.4301 43.63 39.4401 39.32C33.4501 35.01 35.3101 31.82 35.3101 31.82C35.0501 34.33 36.6801 36.66 39.7401 38.91C45.6501 43.14 52.8701 46.14 58.5001 48.29L58.8401 48.42C65.0001 50.74 72.6701 53.63 78.6401 49.42C81.1519 47.5966 83.3305 45.3538 85.0801 42.79C86.0269 41.3958 86.9014 39.9539 87.7001 38.47L87.8301 38.25C89.3001 35.61 89.7501 33.42 89.1701 31.74C88.9167 31.0849 88.5232 30.493 88.0171 30.0059C87.511 29.5188 86.9045 29.1482 86.2401 28.92C83.1801 27.67 72.4301 22.92 66.3401 20C63.3401 18.54 61.7001 17.32 61.5101 16.29C61.3201 15.26 63.1701 14.64 63.1701 14.64C62.9801 14.85 61.8301 15.18 62.0101 16.19C62.1201 16.78 63.0101 17.83 66.5601 19.54C72.6501 22.46 83.3801 27.19 86.4401 28.45C87.1687 28.7074 87.833 29.1195 88.3871 29.6581C88.9412 30.1967 89.3721 30.849 89.6501 31.57C90.2901 33.4 89.8301 35.73 88.2801 38.5L88.1501 38.72C87.3443 40.2385 86.4598 41.7138 85.5001 43.14C83.7148 45.7513 81.4922 48.0348 78.9301 49.89C76.7486 51.4041 74.1451 52.1914 71.4901 52.14V52.14Z" fill="#00B1D0"/>
<path d="M248.77 70.14L248.96 70.29C250.8 71.71 252.75 73.4 254.48 74.91L254.76 75.15C255.85 76.1 256.84 76.96 257.67 77.63C258.67 78.46 262.21 81.25 265.78 84.54L266.1 84.84L266.82 85.51L265.77 84.48C262.19 81.18 258.66 78.38 257.64 77.54C256.62 76.7 255.64 75.86 254.44 74.82C252.66 73.27 250.66 71.54 248.78 70.09L248.77 70.14Z" fill="#41353C"/>
<path d="M246.98 68.76C247.56 69.16 248.17 69.6 248.8 70.08C248.18 69.6 247.56 69.15 246.98 68.75V68.76Z" fill="#0C1E54"/>
<path d="M210.61 59.76C210.325 59.7601 210.041 59.7835 209.76 59.83H210.08H210.61H210.7C212.614 59.9481 214.513 60.2494 216.37 60.73C220.37 61.84 231.29 64.23 235.37 65.1C238.299 65.602 241.189 66.307 244.02 67.21C244.782 67.4939 245.51 67.8629 246.19 68.31C245.51 67.8393 244.778 67.4468 244.01 67.14C241.182 66.2421 238.295 65.5405 235.37 65.04C231.26 64.17 220.37 61.78 216.37 60.67C214.52 60.1899 212.628 59.8885 210.72 59.77L210.61 59.76Z" fill="#AFB1BC"/>
<path d="M246.22 68.26C246.47 68.41 246.72 68.57 246.98 68.75L246.22 68.25V68.26Z" fill="#8B95A2"/>
<path d="M209.77 59.83L209.26 59.94H209.46C209.667 59.892 209.878 59.8586 210.09 59.84H209.77V59.83Z" fill="#41353C"/>
<path d="M265.18 84.6899L266.12 85.1399L265.73 84.7799L265.18 84.6899Z" fill="#41353C"/>
<path d="M265.18 84.6899L265.73 84.7799L266.12 85.1399L266.92 85.5399L266.2 84.8699L265.77 84.7899L265.18 84.6899V84.6899Z" fill="#41353C"/>
<path d="M210.61 60.08C210.13 60.079 209.651 60.1464 209.19 60.28C208.754 60.3873 208.362 60.6286 208.07 60.97C207.893 61.1904 207.8 61.4672 207.81 61.75C207.846 62.2893 208.037 62.8068 208.36 63.24C208.928 64.0486 209.6 64.7783 210.36 65.41C212.762 67.443 215.346 69.2506 218.08 70.81C220.28 71.15 222.64 71.56 225.13 72.04C232 72.14 244.59 72.62 254.03 74.77C252.38 73.34 250.57 71.77 248.86 70.46C247.396 69.2265 245.759 68.2156 244 67.46C241.174 66.5649 238.291 65.8633 235.37 65.36C231.26 64.49 220.37 62.1 216.37 60.99C214.529 60.5142 212.648 60.2161 210.75 60.1L210.61 60.08Z" fill="#9E1D22"/>
<path d="M254.55 74.9099L254.83 75.1499L254.55 74.9099ZM210.62 59.8199H210.09C209.878 59.8386 209.667 59.872 209.46 59.9199C209.89 59.9199 210.32 59.9199 210.75 59.9199H210.67C208.1 59.9199 203.15 61.9199 217.67 70.6599L218.06 70.7299C215.326 69.1706 212.742 67.363 210.34 65.3299C209.58 64.6983 208.908 63.9685 208.34 63.1599C208.017 62.7268 207.826 62.2093 207.79 61.6699C207.78 61.3872 207.873 61.1104 208.05 60.8899C208.342 60.5486 208.734 60.3073 209.17 60.1999C209.631 60.0663 210.11 59.999 210.59 59.9999H210.67C212.567 60.1161 214.449 60.4142 216.29 60.8899C220.29 61.9999 231.21 64.3899 235.29 65.2599C238.211 65.7632 241.094 66.4649 243.92 67.3599C245.679 68.1156 247.316 69.1265 248.78 70.3599C250.49 71.6899 252.3 73.2399 253.95 74.6699L254.39 74.7799H254.46C252.73 73.2699 250.78 71.5799 248.94 70.1599L248.77 70.1399C248.14 69.6599 247.53 69.2199 246.95 68.8199C246.69 68.6399 246.44 68.4799 246.19 68.3299C245.51 67.8828 244.782 67.5138 244.02 67.2299C241.198 66.335 238.318 65.6367 235.4 65.1399C231.29 64.2699 220.4 61.8799 216.4 60.7699C214.543 60.2894 212.644 59.988 210.73 59.8699H210.65L210.62 59.8199Z" fill="#41353C"/>
<path d="M226.55 72.3199C237.84 74.5599 251.55 78.2299 264.37 84.3199L265.37 84.4799C261.91 81.3199 258.56 78.6599 257.56 77.8499C256.56 77.0399 255.56 76.1799 254.4 75.1499C245.57 73.0699 233.76 72.4899 226.56 72.3399L226.55 72.3199Z" fill="#C11A20"/>
<path d="M265.77 84.66V84.54V84.66ZM225.1 72.04L226.55 72.32C233.75 72.47 245.55 73.05 254.39 75.13C255.58 76.13 256.67 77.13 257.55 77.83C258.43 78.53 261.9 81.3 265.36 84.46L264.36 84.3L265.17 84.69L265.76 84.79L266.19 84.87L265.87 84.57C262.3 81.28 258.78 78.49 257.76 77.66C256.93 76.99 255.94 76.13 254.85 75.18L254.57 74.94H254.5L254.06 74.83C244.62 72.68 232.06 72.2 225.16 72.1L225.1 72.04Z" fill="#41353C"/>
<path d="M208.84 60.0801C207.699 60.0669 206.559 60.1742 205.44 60.4001C204.559 60.5529 203.736 60.9436 203.06 61.5301C202.717 61.8695 202.504 62.3193 202.46 62.8001C202.455 62.8566 202.455 62.9135 202.46 62.9701C202.575 63.9252 202.992 64.8187 203.65 65.5201C204.626 66.6906 205.719 67.7594 206.91 68.7101C210.196 71.3185 213.647 73.7134 217.24 75.8801V75.8201C217.231 75.1134 217.378 74.4134 217.67 73.7701C217.871 73.3553 218.165 72.9924 218.53 72.7097C218.894 72.4271 219.318 72.2321 219.77 72.1401C217.43 70.8001 215.51 69.6001 213.94 68.5301C205.94 63.1301 206.94 60.8601 208.89 60.1101L208.84 60.0801Z" fill="#9E1D22"/>
<path d="M213.89 68.4999C215.46 69.5699 217.38 70.7699 219.72 72.1099L219.6 72.0499L217.34 70.7099C216.04 69.9199 214.89 69.1899 213.88 68.5099L213.89 68.4999ZM208.89 59.9399C205.54 59.9399 202.51 60.6299 202.31 62.7799C202.03 65.7799 209.03 70.9499 217.21 76.0199V75.8799C213.617 73.7133 210.166 71.3184 206.88 68.7099C205.688 67.7593 204.596 66.6905 203.62 65.5199C202.961 64.8186 202.544 63.9251 202.43 62.9699C202.425 62.9134 202.425 62.8565 202.43 62.7999C202.474 62.3192 202.687 61.8694 203.03 61.5299C203.705 60.9435 204.528 60.5528 205.41 60.3999C206.529 60.1741 207.668 60.0668 208.81 60.0799C208.943 60.0229 209.08 59.9761 209.22 59.9399H208.89Z" fill="#41353C"/>
<path d="M220.05 72.3C219.587 72.363 219.147 72.5405 218.77 72.8164C218.393 73.0923 218.09 73.4579 217.89 73.88C217.616 74.4899 217.476 75.1515 217.48 75.82C217.48 75.91 217.48 75.99 217.48 76.04C222.78 79.32 228.56 82.57 233.15 85.18C232.199 83.2371 231.526 81.1702 231.15 79.04C227.5 76.74 223.81 74.45 220.09 72.33H220.04L220.05 72.3Z" fill="#DE3434"/>
<path d="M219.77 72.14C219.323 72.2408 218.904 72.4429 218.547 72.7307C218.19 73.0184 217.904 73.3843 217.71 73.8C217.417 74.4434 217.271 75.1434 217.28 75.85V76.05L217.42 76.14C222.8 79.47 228.67 82.77 233.31 85.4C233.273 85.3388 233.239 85.2753 233.21 85.21C228.62 82.6 222.84 79.35 217.54 76.07C217.54 76.02 217.54 75.94 217.54 75.85C217.536 75.1815 217.676 74.5199 217.95 73.91C218.15 73.4878 218.453 73.1222 218.83 72.8464C219.207 72.5705 219.647 72.393 220.11 72.33H220.16C223.88 74.45 227.57 76.74 231.22 79.04C227.55 76.73 223.84 74.43 220.11 72.3L219.77 72.14Z" fill="#41353C"/>
<path d="M217.38 70.7L219.64 72.04H219.85C219.077 71.6 218.347 71.17 217.66 70.75H217.38V70.7Z" fill="#41353C"/>
<path d="M219.85 72.03H219.64L219.77 72.14L220.06 72.31C223.79 74.44 227.5 76.74 231.17 79.05V78.9C227.55 76.63 223.89 74.35 220.17 72.25H220.09L219.86 72.12L219.85 72.03Z" fill="#41353C"/>
<path d="M208.91 60.08H208.84C206.9 60.83 205.93 63.08 213.89 68.5C211.956 67.2679 210.197 65.7812 208.66 64.08C208.46 63.83 208.29 63.6 208.14 63.38C207.791 62.9046 207.586 62.3387 207.55 61.75C207.547 61.411 207.656 61.0806 207.86 60.81C208.073 60.5575 208.339 60.3559 208.64 60.22L208.99 60.08H208.91Z" fill="#41353C"/>
<path d="M208.66 64.0799C210.197 65.7812 211.956 67.2679 213.89 68.4999C214.89 69.1799 216.05 69.9099 217.35 70.6999C212.59 67.8199 209.95 65.6999 208.63 64.0799H208.66ZM209.25 59.9399C209.11 59.9761 208.973 60.0229 208.84 60.0799H208.99C209.139 60.0215 209.293 59.978 209.45 59.9499L209.25 59.9399Z" fill="#41353C"/>
<path d="M209.45 59.95C209.293 59.978 209.139 60.0215 208.99 60.0799L208.64 60.22C208.339 60.3559 208.073 60.5575 207.86 60.8099C207.656 61.0806 207.547 61.411 207.55 61.75C207.586 62.3387 207.791 62.9046 208.14 63.3799C208.29 63.5999 208.46 63.83 208.66 64.08C209.98 65.67 212.66 67.8199 217.38 70.6999H217.66C203.14 61.9499 208.09 59.9599 210.66 59.9599H210.77C210.34 59.9599 209.91 59.9599 209.48 59.9599L209.45 59.95Z" fill="#41353C"/>
<path d="M121.77 81.14C123.39 82.58 125.37 84.26 127.77 86.19L128.77 86.25L130.43 86.33L125.04 83.12L124.83 82.99L121.77 81.14Z" fill="#BB0D14"/>
<path d="M127.77 86.14L128.56 86.77C133.24 90.52 127.32 87.77 122.99 91.54C123.432 91.3407 123.906 91.2221 124.39 91.19H124.6C124.869 91.1898 125.138 91.2199 125.4 91.28V91.28C126.72 91.38 128.34 91.47 130.15 91.55C130.15 91.46 130.22 91.37 130.26 91.27C130.698 90.1459 130.909 88.9461 130.88 87.74C130.88 87.25 130.88 86.83 130.88 86.52L130.49 86.29L128.77 86.21L127.77 86.14Z" fill="#BB0D14"/>
<path d="M119.93 115.96C120.063 117.023 120.557 118.007 121.329 118.75C122.1 119.492 123.103 119.948 124.17 120.04C124.94 120.14 125.27 122.25 125.27 122.25C135.802 121.869 146.285 120.642 156.62 118.58C170.24 115.75 174.96 112.89 171.19 103C167.42 93.11 159.19 92.86 154.3 92.52C149.41 92.18 132.75 91.97 125.42 91.41C125.42 91.41 118.98 111.41 119.93 115.96V115.96Z" fill="#C11A20"/>
<path d="M119.93 115.96H119.77C119.849 116.626 120.071 117.267 120.42 117.84C120.815 118.486 121.355 119.031 121.997 119.432C122.639 119.833 123.366 120.079 124.12 120.15C124.198 120.162 124.271 120.197 124.33 120.25C124.473 120.387 124.588 120.55 124.67 120.73C124.813 121.052 124.923 121.387 125 121.73L125.09 122.11C125.09 122.2 125.09 122.26 125.09 122.26V122.37H125.2C135.739 121.99 146.23 120.759 156.57 118.69C161.88 117.59 165.85 116.48 168.5 114.95C169.703 114.306 170.733 113.379 171.5 112.25C172.185 111.155 172.533 109.882 172.5 108.59C172.418 106.65 171.991 104.74 171.24 102.95C169.34 97.95 166.3 95.41 163.13 94.06C160.285 92.9949 157.278 92.4267 154.24 92.38C151.81 92.21 146.43 92.07 140.73 91.91C135.03 91.75 129.02 91.55 125.36 91.27H125.25V91.37C125.25 91.37 123.86 95.71 122.46 100.81C121.76 103.36 121.06 106.1 120.54 108.59C120.06 110.636 119.766 112.721 119.66 114.82C119.658 115.212 119.691 115.604 119.76 115.99H119.89H120.01C119.944 115.62 119.914 115.245 119.92 114.87C120.019 112.788 120.31 110.719 120.79 108.69C121.58 104.98 122.79 100.69 123.73 97.31C124.22 95.62 124.66 94.17 124.98 93.14C125.14 92.62 125.27 92.21 125.36 91.93L125.5 91.5H125.38V91.63C129.05 91.91 135.06 92.1 140.76 92.27C146.46 92.44 151.85 92.57 154.26 92.74C157.269 92.7854 160.248 93.3434 163.07 94.39C166.18 95.73 169.16 98.23 171.07 103.14C171.811 104.901 172.231 106.781 172.31 108.69C172.33 109.936 171.983 111.161 171.31 112.21C170.027 113.934 168.242 115.219 166.2 115.89C163.067 117.053 159.838 117.939 156.55 118.54C146.237 120.58 135.777 121.784 125.27 122.14V122.27H125.4C125.336 121.901 125.245 121.537 125.13 121.18C125.045 120.905 124.924 120.643 124.77 120.4C124.706 120.285 124.621 120.184 124.52 120.1C124.425 120.022 124.311 119.971 124.19 119.95C123.473 119.885 122.781 119.653 122.17 119.273C121.559 118.893 121.045 118.375 120.67 117.76C120.442 117.376 120.27 116.962 120.16 116.53C120.122 116.403 120.095 116.272 120.08 116.14C120.078 116.103 120.078 116.067 120.08 116.03V116.03H119.96L119.93 115.96Z" fill="#3A383E"/>
<path d="M123.25 106.04C122.76 105.44 122.08 104.53 121.33 103.47C119.62 108.9 121.95 112.07 122.39 114.21C122.39 114.21 119.77 117.72 123.75 118.29C124.52 118.4 126.75 122.29 126.75 122.29C136.789 121.993 146.785 120.842 156.63 118.85C167.1 116.67 172.31 114.48 172.45 109.09C166.22 111.76 153.37 112.43 142.81 113.25C127.69 114.41 127.12 110.79 123.26 106.08L123.25 106.04Z" fill="#DE3434"/>
<path d="M123.25 106.04L123.35 105.95C122.86 105.36 122.19 104.45 121.43 103.39L121.28 103.18L121.2 103.43C120.333 106.032 120.368 108.85 121.3 111.43C121.69 112.56 122.11 113.5 122.3 114.26H122.42L122.32 114.18C122.156 114.407 122.012 114.648 121.89 114.9C121.624 115.386 121.473 115.927 121.45 116.48C121.445 116.709 121.485 116.937 121.569 117.15C121.653 117.363 121.78 117.557 121.94 117.72C122.456 118.15 123.091 118.412 123.76 118.47C123.868 118.499 123.965 118.558 124.04 118.64C124.339 118.913 124.607 119.218 124.84 119.55C125.27 120.13 125.73 120.83 126.08 121.39C126.25 121.67 126.4 121.91 126.5 122.09L126.66 122.36V122.43H126.77C136.816 122.128 146.819 120.974 156.67 118.98C161.91 117.9 165.83 116.8 168.49 115.3C169.678 114.664 170.704 113.764 171.49 112.67C172.192 111.615 172.568 110.377 172.57 109.11V108.91L172.38 108.99C169.3 110.31 164.53 111.15 159.23 111.75C153.93 112.35 148.07 112.75 142.79 113.13C140.85 113.28 139.15 113.35 137.66 113.35C132.58 113.35 129.85 112.53 127.97 111.22C126.09 109.91 125.04 108.07 123.35 106L123.25 106.09L123.15 106.17C124.83 108.17 125.89 110.07 127.83 111.43C129.77 112.79 132.56 113.61 137.66 113.6C139.16 113.6 140.86 113.53 142.81 113.38C148.09 112.97 153.94 112.6 159.26 112C164.58 111.4 169.35 110.57 172.49 109.22L172.44 109.1H172.31C172.317 110.313 171.969 111.502 171.31 112.52C169.998 114.206 168.211 115.46 166.18 116.12C163.077 117.26 159.882 118.133 156.63 118.73C146.792 120.713 136.802 121.853 126.77 122.14V122.27L126.88 122.2C126.88 122.2 126.33 121.2 125.67 120.26C125.36 119.787 125.026 119.33 124.67 118.89C124.529 118.718 124.376 118.558 124.21 118.41C124.095 118.277 123.941 118.183 123.77 118.14C123.154 118.101 122.568 117.862 122.1 117.46C121.967 117.33 121.861 117.174 121.789 117.002C121.717 116.831 121.68 116.646 121.68 116.46C121.701 115.949 121.838 115.45 122.08 115C122.168 114.829 122.265 114.662 122.37 114.5L122.46 114.36V114.14C122.29 113.33 121.87 112.4 121.46 111.27C121.002 109.986 120.762 108.634 120.75 107.27C120.76 105.983 120.966 104.705 121.36 103.48H121.24L121.13 103.55C121.89 104.61 122.57 105.55 123.06 106.13L123.16 106.05L123.25 106.04Z" fill="#3A383E"/>
<path d="M132.67 106.42C133.15 114.98 130.22 122.11 126.12 122.34C122.02 122.57 118.31 115.81 117.84 107.25C117.37 98.69 120.29 91.56 124.39 91.33C128.49 91.1 132.19 97.85 132.67 106.42Z" fill="#2C2E34"/>
<path d="M132.67 106.42H132.54C132.54 107.03 132.54 107.63 132.54 108.23C132.615 111.594 131.981 114.937 130.68 118.04C130.198 119.166 129.498 120.186 128.62 121.04C127.93 121.718 127.024 122.132 126.06 122.21H125.87C124.827 122.17 123.831 121.763 123.06 121.06C121.479 119.579 120.293 117.726 119.61 115.67C118.621 112.958 118.048 110.113 117.91 107.23C117.91 106.62 117.91 106.01 117.91 105.42C117.832 102.055 118.466 98.7125 119.77 95.61C120.253 94.4843 120.953 93.4649 121.83 92.61C122.514 91.9301 123.418 91.5154 124.38 91.44H124.58C125.622 91.4776 126.617 91.8812 127.39 92.58C128.97 94.0663 130.155 95.9219 130.84 97.9799C131.825 100.692 132.395 103.538 132.53 106.42H132.77C132.63 102.681 131.7 99.0135 130.04 95.66C129.42 94.4255 128.567 93.3221 127.53 92.41C126.707 91.6613 125.642 91.2321 124.53 91.2H124.32C123.295 91.2781 122.331 91.7176 121.6 92.44C120.203 93.8779 119.201 95.6517 118.69 97.59C117.939 100.134 117.571 102.777 117.6 105.43C117.6 106.03 117.6 106.64 117.6 107.25C117.733 110.992 118.661 114.663 120.32 118.02C120.947 119.25 121.798 120.352 122.83 121.27C123.656 122.013 124.719 122.438 125.83 122.47H126.04C127.06 122.383 128.017 121.945 128.75 121.23C130.148 119.791 131.153 118.018 131.67 116.08C132.416 113.534 132.784 110.893 132.76 108.24C132.76 107.64 132.76 107.03 132.71 106.41L132.67 106.42Z" fill="#2C2E34"/>
<path d="M131.88 106.57C132.36 115.04 129.46 122.09 125.4 122.32C121.34 122.55 117.68 115.86 117.21 107.39C116.74 98.92 119.64 91.87 123.69 91.64C127.74 91.41 131.41 98.1 131.88 106.57Z" fill="#5B5D69"/>
<path d="M131.88 106.57H131.77C131.77 107.18 131.77 107.77 131.77 108.36C131.842 111.691 131.212 114.999 129.92 118.07C129.463 119.195 128.782 120.215 127.92 121.07C127.245 121.745 126.352 122.156 125.4 122.23H125.2C124.172 122.191 123.192 121.791 122.43 121.1C120.865 119.633 119.693 117.797 119.02 115.76C118.038 113.082 117.472 110.269 117.34 107.42C117.34 106.81 117.34 106.21 117.34 105.62C117.266 102.29 117.893 98.9821 119.18 95.91C119.653 94.8083 120.332 93.807 121.18 92.96C121.862 92.2895 122.757 91.8791 123.71 91.8H123.9C124.932 91.8342 125.917 92.2348 126.68 92.93C128.238 94.3988 129.41 96.2297 130.09 98.26C131.061 100.945 131.627 103.759 131.77 106.61H132.02C131.887 102.91 130.97 99.2797 129.33 95.96C128.711 94.7392 127.866 93.6467 126.84 92.74C126.032 92.0081 124.99 91.5865 123.9 91.55H123.69C122.681 91.6303 121.733 92.0621 121.01 92.77C119.624 94.1932 118.629 95.9498 118.12 97.87C117.377 100.385 117.013 102.997 117.04 105.62C117.04 106.22 117.04 106.82 117.04 107.43C117.186 111.12 118.117 114.737 119.77 118.04C120.387 119.26 121.228 120.352 122.25 121.26C123.056 121.997 124.098 122.423 125.19 122.46H125.4C126.412 122.374 127.363 121.94 128.09 121.23C129.471 119.809 130.463 118.056 130.97 116.14C131.713 113.621 132.077 111.006 132.05 108.38C132.05 107.79 132.05 107.19 132.05 106.58L131.88 106.57Z" fill="#25272C"/>
<path d="M123.45 93.31H123.8H123.97C127.52 93.31 130.73 99.23 131.18 106.69C131.63 114.15 129.07 120.57 125.45 120.76H125.29C125.117 120.775 124.943 120.775 124.77 120.76H124.87C128.38 120.76 131.15 114.03 130.72 106.76C130.29 99.76 127.05 93.38 123.55 93.38L123.45 93.31ZM124.21 92.2H124.04C120.42 92.4 117.85 99.2 118.31 107.35C118.77 115.5 121.97 121.77 125.53 121.77H125.69C129.31 121.56 131.88 114.77 131.42 106.62C130.96 98.47 127.77 92.2 124.21 92.2Z" fill="#82848D"/>
<path d="M123.97 93.27H123.77H123.42H123.52C127.02 93.27 130.26 99.63 130.69 106.65C131.12 113.91 128.35 120.65 124.84 120.65H124.77C124.943 120.665 125.117 120.665 125.29 120.65H125.45C129.07 120.46 131.64 114.16 131.18 106.58C130.72 99 127.52 93.2 123.97 93.2V93.27Z" fill="#A0A1A8"/>
<path d="M125.91 95.14H125.48C123.04 95.28 121.35 100.52 121.7 106.84C122.05 113.16 124.32 118.14 126.77 118.01C127.103 117.971 127.424 117.862 127.712 117.689C128 117.517 128.248 117.285 128.44 117.01C129.791 113.779 130.337 110.268 130.03 106.78C129.77 101.39 128.03 96.88 125.91 95.14Z" fill="white"/>
<path d="M125.91 95.14V95.0199C125.79 95.0101 125.67 95.0101 125.55 95.0199H125.45C125.135 95.051 124.829 95.1448 124.551 95.296C124.273 95.4471 124.028 95.6525 123.83 95.9C122.985 96.9729 122.406 98.2305 122.14 99.57C121.7 101.407 121.489 103.291 121.51 105.18C121.51 105.73 121.51 106.29 121.56 106.85C121.661 109.596 122.239 112.303 123.27 114.85C123.64 115.742 124.161 116.564 124.81 117.28C125.037 117.548 125.316 117.767 125.631 117.924C125.946 118.08 126.289 118.171 126.64 118.19H126.74C127.093 118.149 127.434 118.034 127.739 117.851C128.045 117.668 128.307 117.422 128.51 117.13V117.13C129.683 114.404 130.246 111.456 130.16 108.49C130.16 107.95 130.16 107.39 130.11 106.83C129.995 104.373 129.53 101.945 128.73 99.62C128.211 97.9005 127.253 96.3461 125.95 95.11V95.11V95.2299L125.86 95.33C127.126 96.5394 128.06 98.0548 128.57 99.7299C129.358 102.034 129.816 104.438 129.93 106.87C129.93 107.43 129.93 107.98 129.93 108.52C130.014 111.444 129.461 114.351 128.31 117.04L128.42 117.1L128.32 117.02C128.144 117.291 127.912 117.52 127.639 117.693C127.367 117.865 127.06 117.977 126.74 118.02H126.65C126.333 117.999 126.024 117.915 125.741 117.772C125.457 117.63 125.205 117.432 125 117.19C124.016 116.026 123.299 114.661 122.9 113.19C122.285 111.159 121.922 109.06 121.82 106.94C121.82 106.38 121.82 105.82 121.82 105.28C121.771 102.902 122.133 100.534 122.89 98.28C123.15 97.513 123.55 96.801 124.07 96.18C124.246 95.9565 124.465 95.7707 124.714 95.6333C124.963 95.4959 125.237 95.4097 125.52 95.3799H125.6C125.703 95.3701 125.807 95.3701 125.91 95.3799V95.25L125.82 95.35L125.91 95.14Z" fill="black"/>
<path d="M126.42 106.75C127.617 106.86 128.822 106.86 130.02 106.75C129.915 104.632 129.559 102.534 128.96 100.5C128.96 100.5 127.69 103.33 126.39 106.68L126.42 106.75Z" fill="#2C2E34"/>
<path d="M126.42 106.75V106.87C127.19 106.93 127.96 106.97 128.65 106.97C129.118 106.977 129.586 106.95 130.05 106.89H130.17V106.77C130.062 104.642 129.703 102.534 129.1 100.49L129 100.15L128.86 100.48H128.96H128.86H128.96H128.86C128.86 100.48 127.59 103.33 126.29 106.66V106.72L126.35 106.82V106.88H126.41V106.76L126.52 106.69V106.64L126.41 106.71H126.53C127.18 105.04 127.82 103.49 128.3 102.37C128.54 101.8 128.74 101.37 128.87 101.03L129.04 100.66V100.56L128.93 100.51H128.8C129.405 102.533 129.761 104.621 129.86 106.73H129.99V106.6C129.535 106.652 129.078 106.675 128.62 106.67C127.94 106.67 127.18 106.67 126.41 106.58V106.71L126.52 106.64L126.42 106.75Z" fill="#2C2E34"/>
<path d="M126.37 106.76V106.74H126.36L126.37 106.76Z" fill="white"/>
<path d="M126.37 106.76L126.49 106.8V106.79L126.56 106.63L126.38 106.61L126.22 106.59L126.24 106.77L126.49 106.8L126.37 106.76L126.5 106.75L126.49 106.73L126.36 106.74L126.35 106.86L126.36 106.87L126.37 106.74L126.25 106.69V106.71L126.37 106.76L126.5 106.75L126.37 106.76Z" fill="black"/>
<path d="M126.37 106.74H126.42L126.39 106.7L126.37 106.74Z" fill="white"/>
<path d="M126.37 106.74L126.36 106.87H126.41L126.66 106.89L126.36 106.41L126.19 106.85L126.36 106.87L126.37 106.74L126.49 106.78L126.51 106.74L126.39 106.7L126.28 106.77L126.31 106.81L126.42 106.74L126.43 106.61H126.38L126.37 106.74L126.49 106.78L126.37 106.74Z" fill="black"/>
<path d="M126.36 106.65H126.23V106.85H126.44L126.49 106.72V106.66L126.42 106.55L126.18 106.63H126.31L126.2 106.7L126.31 106.63H126.19H126.31V106.5V106.63H126.44V106.54H126.31L126.2 106.61L126.36 106.65Z" fill="black"/>
<path d="M126.38 106.74C126.7 110.74 126.98 114.91 126.99 117.96C127.579 117.814 128.094 117.458 128.44 116.96C129.128 115.431 129.576 113.805 129.77 112.14C129.46 111.6 127.97 109.23 126.38 106.73V106.74Z" fill="#2C2E34"/>
<path d="M126.38 106.74H126.26V106.82C126.59 110.82 126.86 114.99 126.88 118.03V118.14H127.03C127.64 117.998 128.178 117.644 128.55 117.14C129.259 115.594 129.727 113.948 129.94 112.26V112.14C129.63 111.59 128.14 109.22 126.55 106.72V106.66H126.34V106.74H126.46V106.87V106.75L126.35 106.81C127.94 109.32 129.43 111.69 129.74 112.22L129.77 112.14H129.64C129.435 113.8 128.977 115.419 128.28 116.94L128.39 117L128.29 116.92C127.96 117.385 127.474 117.715 126.92 117.85V117.98H127.05C127.05 114.92 126.76 110.72 126.44 106.75H126.31H126.43L126.31 106.7L126.38 106.74Z" fill="#2C2E34"/>
<path d="M125.25 95.14C123.88 95.4 122.78 97.29 122.17 100.06C122.17 100.06 124.34 103.46 126.36 106.66C125.86 100.6 125.25 95.14 125.25 95.14Z" fill="#2C2E34"/>
<path d="M125.25 95.14V95.02C124.838 95.1309 124.455 95.3283 124.126 95.599C123.796 95.8698 123.529 96.2076 123.34 96.59C122.727 97.6585 122.295 98.8207 122.06 100.03V100.08C122.06 100.08 124.23 103.49 126.25 106.69L126.49 106.61C125.99 100.61 125.38 95.09 125.38 95.09V94.95H125.25V95.07H125.12L125.23 96.02C125.42 97.84 125.86 102.02 126.23 106.58H126.36L126.47 106.51L122.28 99.91L122.17 99.9799H122.29C122.518 98.8032 122.937 97.6716 123.53 96.63C123.705 96.2786 123.95 95.9673 124.252 95.716C124.553 95.4647 124.903 95.2787 125.28 95.17V95.04H125.15L125.25 95.14Z" fill="#2C2E34"/>
<path d="M126.37 106.74C124.02 106.57 121.68 106.21 121.68 106.21C121.68 106.41 121.68 106.61 121.68 106.8C121.781 109.747 122.461 112.645 123.68 115.33C124.314 112.399 125.211 109.53 126.36 106.76L126.37 106.74Z" fill="#2C2E34"/>
<path d="M126.37 106.74V106.61C125.2 106.53 124.03 106.39 123.15 106.28L122.09 106.14H121.69H121.53V106.3C121.53 106.49 121.53 106.69 121.53 106.89C121.625 109.854 122.304 112.77 123.53 115.47L123.71 115.83L123.77 115.43C124.397 112.508 125.291 109.649 126.44 106.89V106.7H126.33V106.83H126.2H126.33L126.21 106.78C125.055 109.558 124.157 112.437 123.53 115.38H123.65H123.77C122.552 112.713 121.872 109.831 121.77 106.9C121.77 106.7 121.77 106.5 121.77 106.31H121.64V106.44C121.64 106.44 123.98 106.79 126.34 106.97V106.84L126.37 106.74Z" fill="#2C2E34"/>
<path d="M126.36 106.65C127.66 103.3 128.92 100.48 128.93 100.47C128.426 98.4522 127.382 96.6097 125.91 95.14H125.48H125.25C125.25 95.14 125.86 100.6 126.36 106.65Z" fill="#454750"/>
<path d="M126.36 106.65L126.25 106.72L126.39 106.93L126.48 106.7C127.13 105.03 127.77 103.48 128.25 102.36C128.49 101.79 128.69 101.36 128.82 101.02L128.99 100.65V100.55V100.5C128.484 98.4354 127.414 96.552 125.9 95.06V95.06C125.78 95.0502 125.66 95.0502 125.54 95.06H125.44C125.36 95.0504 125.28 95.0504 125.2 95.06H125.08V95.14L125.19 96.09C125.38 97.91 125.82 102.09 126.19 106.65L126.3 106.58H126.43C125.93 100.58 125.32 95.06 125.32 95.06H125.19V95.19H125.4H125.48C125.583 95.1801 125.687 95.1801 125.79 95.19V95.06L125.71 95.16C127.181 96.6234 128.219 98.4643 128.71 100.48H128.84H128.72H128.82H128.72H128.82H128.72C128.72 100.48 127.45 103.33 126.15 106.66H126.27L126.38 106.59L126.27 106.66L126.36 106.65Z" fill="#25272C"/>
<path d="M126.37 106.74V106.65C124.37 103.45 122.19 100.07 122.18 100.05C121.757 102.074 121.593 104.144 121.69 106.21C121.69 106.21 124.02 106.57 126.37 106.74Z" fill="#454750"/>
<path d="M126.37 106.74H126.5V106.62L122.31 100.02L122.14 99.76L122.07 100.06C121.717 101.747 121.546 103.467 121.56 105.19C121.56 105.54 121.56 105.9 121.56 106.26V106.36H121.67C121.67 106.36 124.01 106.71 126.37 106.89H126.52V106.74H126.39V106.61C125.22 106.53 124.05 106.39 123.17 106.28L122.11 106.14H121.71V106.26H121.77C121.77 105.9 121.77 105.55 121.77 105.2C121.758 103.494 121.926 101.791 122.27 100.12H122.15L122.04 100.18C122.04 100.18 124.21 103.59 126.23 106.79L126.34 106.72H126.21V106.81H126.34L126.37 106.74Z" fill="#25272C"/>
<path d="M126.42 106.75C128.01 109.25 129.5 111.62 129.81 112.16C130.06 110.375 130.13 108.569 130.02 106.77C128.822 106.873 127.617 106.866 126.42 106.75Z" fill="#454750"/>
<path d="M126.42 106.75L126.31 106.81C127.9 109.32 129.39 111.69 129.7 112.22L129.89 112.55V112.18C130.066 110.931 130.153 109.671 130.15 108.41C130.15 107.87 130.15 107.32 130.1 106.76V106.62H129.97C129.515 106.672 129.058 106.695 128.6 106.69C127.92 106.69 127.16 106.69 126.39 106.6H126.14L126.27 106.81L126.38 106.75V106.87C127.15 106.93 127.92 106.97 128.61 106.97C129.078 106.977 129.546 106.95 130.01 106.89V106.77H129.88C129.88 107.33 129.88 107.87 129.88 108.41C129.883 109.658 129.796 110.905 129.62 112.14H129.75L129.86 112.08C129.55 111.53 128.06 109.16 126.47 106.66L126.36 106.73L126.42 106.75Z" fill="#25272C"/>
<path d="M123.69 115.33C124.57 117.06 125.69 118.07 126.76 118.01C126.833 118.015 126.907 118.015 126.98 118.01C126.98 115.01 126.69 110.76 126.37 106.79C125.223 109.551 124.326 112.409 123.69 115.33V115.33Z" fill="#454750"/>
<path d="M123.69 115.33L123.58 115.39C123.932 116.135 124.413 116.812 125 117.39C125.438 117.842 126.031 118.111 126.66 118.14H126.76H127.01H127.11V118.03C127.11 114.97 126.82 110.77 126.5 106.8H126.25C125.095 109.578 124.197 112.457 123.57 115.4V115.4L123.68 115.34H123.81C124.437 112.418 125.331 109.559 126.48 106.8H126.36H126.23C126.56 110.8 126.83 114.97 126.85 118.01H126.97V117.88C126.9 117.89 126.83 117.89 126.76 117.88H126.67C126.108 117.852 125.578 117.609 125.19 117.2C124.623 116.646 124.159 115.996 123.82 115.28H123.7H123.83L123.69 115.33Z" fill="#25272C"/>
<path d="M126.77 118.01C124.33 118.14 122.07 113.13 121.71 106.8C121.35 100.47 123.05 95.24 125.49 95.1H125.92C125.371 94.6058 124.659 94.3316 123.92 94.33C120.92 94.5 118.78 100.33 119.17 107.33C119.56 114.33 122.32 119.91 125.34 119.74C126.58 119.67 127.67 118.64 128.49 116.96C128.298 117.251 128.044 117.495 127.747 117.677C127.45 117.858 127.116 117.972 126.77 118.01V118.01Z" fill="#3C3E46"/>
<path d="M126.77 118.01V117.88H126.68C126.363 117.859 126.054 117.775 125.771 117.632C125.487 117.49 125.235 117.292 125.03 117.05C124.046 115.886 123.329 114.521 122.93 113.05C122.315 111.019 121.952 108.92 121.85 106.8C121.85 106.24 121.85 105.68 121.85 105.14C121.801 102.762 122.163 100.394 122.92 98.14C123.18 97.373 123.58 96.661 124.1 96.04C124.276 95.8166 124.495 95.6307 124.744 95.4933C124.993 95.3559 125.267 95.2697 125.55 95.24H125.63C125.733 95.2301 125.837 95.2301 125.94 95.24L126.05 95.02C125.5 94.5222 124.791 94.2352 124.05 94.21H123.91C123.141 94.2791 122.427 94.6363 121.91 95.21C120.868 96.3946 120.139 97.8213 119.79 99.36C119.242 101.428 118.976 103.561 119 105.7C119 106.24 119 106.8 119 107.36C119.12 110.415 119.823 113.419 121.07 116.21C121.525 117.21 122.158 118.118 122.94 118.89C123.525 119.495 124.319 119.853 125.16 119.89H125.3C125.982 119.832 126.625 119.543 127.12 119.07C127.722 118.498 128.213 117.82 128.57 117.07L128.35 116.93C128.174 117.201 127.942 117.43 127.669 117.603C127.397 117.775 127.09 117.887 126.77 117.93V118.14C127.123 118.099 127.464 117.984 127.769 117.801C128.075 117.618 128.337 117.372 128.54 117.08L128.44 117L128.33 116.94C127.997 117.691 127.521 118.37 126.93 118.94C126.485 119.376 125.901 119.642 125.28 119.69H125.15C124.372 119.658 123.637 119.324 123.1 118.76C121.914 117.506 121.037 115.993 120.54 114.34C119.795 112.1 119.361 109.768 119.25 107.41C119.25 106.85 119.25 106.3 119.25 105.76C119.193 103.058 119.651 100.37 120.6 97.84C120.942 96.9568 121.448 96.146 122.09 95.45C122.563 94.924 123.216 94.5955 123.92 94.53H124.05C124.727 94.5567 125.374 94.8183 125.88 95.27L125.97 95.17V95.05C125.85 95.0401 125.73 95.0401 125.61 95.05H125.51C125.195 95.0799 124.888 95.1732 124.61 95.3245C124.332 95.4757 124.087 95.6817 123.89 95.93C123.045 97.0029 122.466 98.2605 122.2 99.6C121.76 101.437 121.549 103.321 121.57 105.21C121.57 105.76 121.57 106.32 121.62 106.88C121.721 109.626 122.299 112.333 123.33 114.88C123.7 115.772 124.221 116.594 124.87 117.31C125.097 117.578 125.376 117.797 125.691 117.954C126.006 118.11 126.349 118.201 126.7 118.22H126.8L126.77 118.01Z" fill="#2C2E34"/>
<path d="M120.26 106.97C119.92 100.97 121.43 95.82 123.77 94.36C120.77 94.64 118.77 100.42 119.11 107.36C119.45 114.3 122.26 119.93 125.28 119.76C125.718 119.731 126.142 119.59 126.51 119.35H126.42C123.41 119.54 120.65 113.99 120.26 106.97Z" fill="#31333A"/>
<path d="M121.77 107.5H124.89L122.98 113.61C122.353 111.624 121.947 109.575 121.77 107.5V107.5Z" fill="#25272C"/>
<path d="M124.55 95.42L125.25 102.97L122.38 99.17C122.676 97.7174 123.438 96.4009 124.55 95.42V95.42Z" fill="#25272C"/>
<path d="M129.46 101.87L127.34 105.99L130.07 105.76C129.948 104.452 129.744 103.153 129.46 101.87V101.87Z" fill="#25272C"/>
<path d="M129.77 113.36L127.34 109.14L127.85 117.58C127.85 117.58 128.86 117.38 129.77 113.36Z" fill="#25272C"/>
<path d="M126.18 96.86L126.8 103.47L128.21 100.16C127.874 98.8838 127.167 97.7357 126.18 96.86Z" fill="#52545F"/>
<path d="M122.58 102.14L125.25 105.97L122.38 105.42C122.148 104.897 122.045 104.326 122.08 103.756C122.115 103.185 122.286 102.631 122.58 102.14V102.14Z" fill="#52545F"/>
<path d="M125.93 109.45L124.55 114.96C124.55 114.96 124.74 116.73 126.18 116.82L125.93 109.45Z" fill="#52545F"/>
<path d="M127.34 107.31L129.4 107.5C129.4 107.5 130.14 109.5 129.4 110.1L127.34 107.31Z" fill="#52545F"/>
<path d="M127.68 91.6899C132.8 96.0199 137.12 102.23 137.12 110.87C137.122 111.678 137.082 112.486 137 113.29H137.66C139.15 113.29 140.85 113.22 142.79 113.07C148.07 112.66 153.92 112.29 159.23 111.69C163.193 111.333 167.112 110.59 170.93 109.47C166.928 107.709 163.038 105.705 159.28 103.47H159.2L159.1 103.41C156.01 101.59 152.37 99.4099 148.47 97.0799C146.82 97.1799 145.17 97.2299 143.6 97.2299C140.91 97.2299 138.47 97.0999 136.68 96.9299C135.378 96.8511 134.098 96.5606 132.89 96.0699C132.525 95.9067 132.187 95.6874 131.89 95.4199C131.381 95.0277 130.906 94.5928 130.47 94.1199C130.136 93.7727 129.947 93.3116 129.94 92.8299C129.949 92.4876 130.017 92.1494 130.14 91.8299L127.73 91.7099L127.68 91.6899Z" fill="#DE3434"/>
<path d="M127.64 91.65L130.05 91.77L127.6 91.64L127.64 91.65Z" fill="#000E2D"/>
<path d="M171.28 109.64C167.369 110.816 163.348 111.59 159.28 111.95C153.96 112.55 148.11 112.95 142.83 113.33C140.88 113.48 139.18 113.55 137.68 113.55H136.99C136.681 116.495 135.651 119.318 133.99 121.77C138.44 121.45 143.64 120.89 148.99 120.07C151.46 119.68 153.92 119.25 156.26 118.77L156.7 118.68C159.952 118.083 163.147 117.21 166.25 116.07C168.281 115.409 170.068 114.156 171.38 112.47C171.871 111.74 172.195 110.91 172.33 110.04L171.39 109.64H171.28Z" fill="#BD2026"/>
<path d="M148.88 120.07C143.58 120.89 138.38 121.45 133.88 121.77L133.81 121.87C138.37 121.49 143.64 120.87 148.81 120.07H148.88ZM172.22 110.07C172.085 110.94 171.761 111.769 171.27 112.5C169.958 114.186 168.171 115.439 166.14 116.1C163.037 117.24 159.842 118.113 156.59 118.71L156.15 118.8L156.62 118.71C166.31 116.71 171.49 114.71 172.32 110.11H172.22V110.07ZM170.93 109.51C167.112 110.63 163.193 111.373 159.23 111.73C153.92 112.33 148.07 112.73 142.79 113.11C140.85 113.26 139.15 113.33 137.66 113.33H137V113.59H137.69C139.19 113.59 140.89 113.52 142.84 113.37C148.12 112.96 153.97 112.59 159.29 111.99C163.358 111.63 167.379 110.856 171.29 109.68L170.94 109.52L170.93 109.51Z" fill="#3A383E"/>
<path d="M130.62 78.27C125.28 79.97 130.93 86.0101 130.93 86.0101C131.185 87.7961 131.007 89.6174 130.41 91.3201C129.54 93.3201 130.16 93.8201 131.93 95.3201C133.7 96.8201 134.09 85.23 134.09 85.23C134.09 85.23 134.67 77.0001 130.62 78.2901V78.27Z" fill="#BB0D14"/>
<path d="M130.62 78.27V78.15C129.901 78.3367 129.256 78.7378 128.77 79.3C128.41 79.7539 128.222 80.3208 128.24 80.9C128.348 82.1663 128.805 83.3779 129.56 84.4C129.96 84.9938 130.398 85.5616 130.87 86.1L130.97 86.01H130.84C130.842 86.05 130.842 86.09 130.84 86.13C130.901 86.6578 130.931 87.1887 130.93 87.72C130.959 88.9261 130.748 90.1259 130.31 91.25C130.078 91.729 129.942 92.2488 129.91 92.78C129.917 93.2616 130.106 93.7227 130.44 94.07C130.876 94.5486 131.355 94.9871 131.87 95.38C131.977 95.478 132.115 95.5347 132.26 95.54C132.39 95.5388 132.515 95.4888 132.61 95.4C132.829 95.1696 132.993 94.8927 133.09 94.59C133.357 93.7659 133.548 92.919 133.66 92.06C134.11 89.06 134.24 85.2 134.24 85.2C134.24 85.2 134.24 84.79 134.24 84.2C134.261 82.9189 134.11 81.6407 133.79 80.4C133.638 79.7878 133.351 79.2172 132.95 78.73C132.763 78.5055 132.529 78.3247 132.265 78.2004C132 78.076 131.712 78.011 131.42 78.01C131.131 78.0153 130.844 78.0659 130.57 78.16V78.28V78.4C130.818 78.3171 131.078 78.2732 131.34 78.27C131.596 78.27 131.849 78.3265 132.08 78.4354C132.312 78.5443 132.517 78.7029 132.68 78.9C133.224 79.6477 133.568 80.522 133.68 81.44C133.825 82.3528 133.895 83.2758 133.89 84.2C133.89 84.51 133.89 84.76 133.89 84.94C133.89 85.12 133.89 85.21 133.89 85.21C133.89 85.21 133.89 85.37 133.89 85.65C133.84 86.65 133.72 89.07 133.43 91.26C133.321 92.232 133.141 93.1946 132.89 94.14C132.805 94.4496 132.684 94.7482 132.53 95.03C132.479 95.1106 132.415 95.1817 132.34 95.24C132.297 95.2818 132.24 95.3067 132.18 95.31C132.096 95.3012 132.018 95.2621 131.96 95.2C131.458 94.8136 130.987 94.389 130.55 93.93C130.259 93.6254 130.094 93.2214 130.09 92.8C130.12 92.3028 130.25 91.8167 130.47 91.37C130.922 90.2144 131.139 88.9805 131.11 87.74C131.113 87.1549 131.076 86.5702 131 85.99C130.49 85.4232 130.028 84.8144 129.62 84.17C128.959 83.2348 128.559 82.1408 128.46 81C128.448 80.4789 128.618 79.9699 128.94 79.56C129.397 79.039 130 78.6664 130.67 78.49V78.37L130.62 78.27Z" fill="#3A383E"/>
<path d="M129.7 81.63C130.63 84.11 132.01 86.6301 131.7 89.6901C131.39 92.7501 129.13 96.04 136.7 96.77C144.27 97.5 163.53 97.49 163.36 89.95C163.19 82.41 127.77 76.6 129.7 81.63Z" fill="#DE3434"/>
<path d="M129.7 81.63L129.58 81.68C130.42 83.91 131.58 86.12 131.58 88.68C131.581 89.0143 131.561 89.3483 131.52 89.68C131.39 90.89 130.95 92.14 130.95 93.29C130.928 93.8877 131.098 94.4767 131.435 94.9713C131.771 95.4659 132.256 95.8403 132.82 96.04C134.028 96.5307 135.308 96.8212 136.61 96.9C138.4 97.07 140.84 97.2 143.53 97.2C147.951 97.2808 152.364 96.8139 156.67 95.81C158.403 95.4084 160.04 94.6712 161.49 93.64C162.071 93.2358 162.548 92.6997 162.881 92.0757C163.215 91.4517 163.396 90.7575 163.41 90.05V89.95C163.357 89.1584 163.032 88.4094 162.49 87.83C161.099 86.4121 159.427 85.3016 157.58 84.57C150.251 81.5378 142.437 79.8443 134.51 79.57C133.299 79.5313 132.088 79.6558 130.91 79.94C130.548 80.0374 130.209 80.2038 129.91 80.43C129.788 80.5211 129.689 80.6387 129.62 80.7738C129.551 80.909 129.513 81.0581 129.51 81.21C129.512 81.3535 129.539 81.4956 129.59 81.63L129.71 81.58H129.83C129.792 81.4739 129.772 81.3625 129.77 81.25C129.772 81.1367 129.799 81.0252 129.852 80.9246C129.904 80.8239 129.978 80.7367 130.07 80.67C130.56 80.3395 131.123 80.1336 131.71 80.07C132.645 79.9178 133.592 79.8475 134.54 79.86C140.577 80.0645 146.56 81.0734 152.33 82.86C155.007 83.6383 157.579 84.7398 159.99 86.14C160.854 86.6456 161.636 87.2795 162.31 88.02C162.826 88.5628 163.131 89.2721 163.17 90.02V90.12C163.158 90.789 162.986 91.4455 162.67 92.0351C162.353 92.6246 161.901 93.1302 161.35 93.51C159.61 94.87 156.78 95.75 153.57 96.29C150.261 96.7929 146.917 97.0337 143.57 97.01C140.89 97.01 138.46 96.88 136.68 96.71C135.124 96.6781 133.602 96.2478 132.26 95.46C131.909 95.2062 131.636 94.86 131.47 94.46C131.315 94.1004 131.24 93.7115 131.25 93.32C131.25 92.24 131.68 90.98 131.82 89.74C131.857 89.408 131.874 89.074 131.87 88.74C131.87 86.05 130.66 83.8 129.87 81.6H129.75L129.7 81.63Z" fill="#3A383E"/>
<path d="M132.96 91.0601C132.96 91.0601 130.77 96.1401 139.17 95.1401C139.17 95.1401 132.77 95.6901 132.96 91.0601Z" fill="#BB0D14"/>
<path d="M115.99 69.86C126.4 77.96 143.89 90.86 160.86 100.33C177.83 109.8 196.09 115.33 207.41 111C211.59 109.39 210.85 105.75 208.68 101.89C207.68 100.56 206.35 99.11 204.84 97.5C195.58 87.7299 174.36 69.9899 168.32 66.7699C162.28 63.5499 147.83 62.27 140.55 61.25C129.62 59.71 121.6 59.46 115.97 60.07C115.57 60.14 105.78 61.93 115.97 69.86H115.99Z" fill="white"/>
<path d="M115.99 69.8601L115.91 69.9601C126.33 78.0601 143.82 90.9601 160.8 100.44C173.75 107.7 187.45 112.65 198.27 112.65C201.398 112.711 204.511 112.192 207.45 111.12C208.393 110.804 209.223 110.22 209.84 109.44C210.326 108.754 210.579 107.93 210.56 107.09C210.408 105.219 209.8 103.413 208.79 101.83V101.83C207.79 100.5 206.46 99.0401 204.94 97.4401C198.752 91.1682 192.25 85.2139 185.46 79.6001C181.86 76.6001 178.35 73.7401 175.36 71.4801C173.142 69.718 170.803 68.114 168.36 66.6801C165.31 65.0601 160.18 63.9401 154.9 63.0801C149.62 62.2201 144.2 61.6301 140.57 61.1401C134.518 60.2228 128.41 59.725 122.29 59.6501C120.176 59.6402 118.063 59.7437 115.96 59.9601V59.9601C115.116 60.1236 114.297 60.3924 113.52 60.7601C112.93 61.038 112.397 61.4248 111.95 61.9001C111.496 62.406 111.244 63.0606 111.24 63.7401C111.285 64.7159 111.635 65.653 112.24 66.4201C113.277 67.7747 114.503 68.9735 115.88 69.9801L115.96 69.8801L116.04 69.7801C114.684 68.7819 113.472 67.6006 112.44 66.2701C111.853 65.5504 111.504 64.6665 111.44 63.7401C111.44 63.1217 111.672 62.5257 112.09 62.0701C112.73 61.4149 113.519 60.9243 114.39 60.6401C114.895 60.4569 115.413 60.3131 115.94 60.2101V60.0901V60.2201C118.033 60.0036 120.136 59.9001 122.24 59.9101C128.347 59.9862 134.441 60.4807 140.48 61.3901C144.13 61.9101 149.56 62.4801 154.83 63.3901C160.1 64.3001 165.22 65.3901 168.21 66.9601C170.631 68.3879 172.95 69.9817 175.15 71.7301C184.09 78.5301 197.76 90.3401 204.69 97.6601C206.21 99.2601 207.49 100.72 208.53 102.04L208.63 101.96L208.52 102.02C209.504 103.568 210.098 105.332 210.25 107.16C210.272 107.947 210.037 108.719 209.58 109.36C208.993 110.098 208.204 110.651 207.31 110.95C204.399 112.011 201.317 112.523 198.22 112.46C187.48 112.46 173.8 107.54 160.88 100.29C143.88 90.7801 126.43 77.9301 116.02 69.8301L115.94 69.9301L115.99 69.8601Z" fill="#3A383E"/>
<path d="M160.41 100.14C148.824 93.4509 137.629 86.1056 126.88 78.14C126.015 78.5238 125.328 79.2211 124.957 80.0914C124.586 80.9617 124.558 81.9403 124.88 82.83C136.21 89.56 150 97.91 159.07 103.26C159.07 103.26 158.8 101 160.36 100.13L160.41 100.14Z" fill="#DE3434"/>
<path d="M160.41 100.14L160.48 100.02C148.889 93.3381 137.694 85.9925 126.95 78.02H126.89H126.82C126.054 78.3602 125.419 78.939 125.01 79.67C124.721 80.2183 124.573 80.8301 124.58 81.45C124.583 81.7868 124.623 82.1222 124.7 82.45C124.718 82.548 124.741 82.6448 124.77 82.74C124.772 82.77 124.772 82.8 124.77 82.83V82.83C136.09 89.56 149.88 97.9 158.95 103.26L159.14 103.38V103.15C159.14 103.15 159.14 102.98 159.14 102.81C159.134 102.351 159.205 101.895 159.35 101.46C159.516 100.92 159.871 100.459 160.35 100.16L160.55 100.05L160.35 99.93L160.28 100.05L160.22 99.93C159.672 100.251 159.262 100.764 159.07 101.37C158.916 101.834 158.838 102.321 158.84 102.81C158.833 102.94 158.833 103.07 158.84 103.2H158.97L159.03 103.09C149.96 97.73 136.18 89.39 124.85 82.66L124.78 82.77H124.9H124.78H124.9H124.78H124.9C124.761 82.3404 124.69 81.8916 124.69 81.44C124.68 80.8617 124.818 80.2903 125.09 79.78C125.476 79.1003 126.068 78.5609 126.78 78.24V78.13L126.7 78.23C137.454 86.1978 148.656 93.5431 160.25 100.23L160.31 100.12L160.25 100L160.31 100.12L160.41 100.14Z" fill="#46343A"/>
<path d="M126.88 78.14C122.74 75.14 119.02 72.28 115.88 69.87C105.67 61.94 115.45 60.15 115.88 60.08C104.55 61.3 102.88 65.96 106.77 70.52C108.83 72.94 116.06 77.58 124.9 82.83C124.578 81.9402 124.606 80.9616 124.977 80.0913C125.348 79.2211 126.035 78.5238 126.9 78.14H126.88Z" fill="#3A383E"/>
<path d="M126.88 78.1399L126.95 78.0299C122.81 75.0299 119.1 72.1799 115.95 69.7699C114.594 68.7747 113.386 67.5931 112.36 66.26C111.773 65.5403 111.424 64.6564 111.36 63.7299C111.361 63.1129 111.597 62.5194 112.02 62.07C112.658 61.4126 113.448 60.9216 114.32 60.6399C114.823 60.4515 115.342 60.3077 115.87 60.2099V59.95C111.97 60.37 109.2 61.2 107.4 62.3C106.603 62.7585 105.919 63.3908 105.4 64.15C104.984 64.7938 104.762 65.5435 104.76 66.3099C104.874 67.9197 105.55 69.4382 106.67 70.5999C108.65 72.5516 110.848 74.2695 113.22 75.72C116.39 77.84 120.42 80.31 124.84 82.94L125.15 83.1299L125.02 82.79C124.886 82.3663 124.818 81.9243 124.82 81.4799C124.81 80.9016 124.948 80.3302 125.22 79.82C125.606 79.1402 126.197 78.6008 126.91 78.2799L127.11 78.19L126.93 78.0599L126.86 78.1699L126.8 78.05C126.034 78.3901 125.399 78.969 124.99 79.6999C124.701 80.2482 124.553 80.8601 124.56 81.4799C124.56 81.9658 124.637 82.4487 124.79 82.9099H124.91L124.98 82.8C120.56 80.18 116.54 77.6999 113.37 75.5899C111.021 74.1485 108.843 72.4442 106.88 70.51C105.795 69.3989 105.14 67.939 105.03 66.3899C105.03 65.679 105.239 64.9837 105.63 64.3899C106.485 63.2217 107.674 62.3397 109.04 61.86C111.243 61.0259 113.552 60.5042 115.9 60.3099V60.1399V60.0099C115.055 60.1738 114.235 60.4461 113.46 60.82C112.867 61.0938 112.334 61.4811 111.89 61.9599C111.434 62.4603 111.181 63.1128 111.18 63.79C111.229 64.7651 111.578 65.7012 112.18 66.47C113.223 67.8255 114.452 69.0273 115.83 70.04C118.92 72.44 122.64 75.27 126.83 78.3L126.91 78.1999L126.85 78.08L126.91 78.1999L126.88 78.1399Z" fill="#3A383E"/>
<path d="M207.34 111.03C196.03 115.4 177.77 109.87 160.8 100.36L160.41 100.14C158.85 101.01 159.12 103.27 159.12 103.27L159.34 103.41C175.42 112.92 194.93 118.55 204.77 115.14C212.34 112.52 212.88 109.14 208.62 101.91C210.79 105.78 211.53 109.41 207.34 111.03V111.03Z" fill="#F12A2A"/>
<path d="M207.34 111.03V110.91C204.428 111.966 201.347 112.478 198.25 112.42C187.5 112.42 173.83 107.49 160.9 100.24L160.52 100.02H160.45H160.39C159.842 100.341 159.432 100.854 159.24 101.46C159.086 101.924 159.008 102.411 159.01 102.9C159.003 103.03 159.003 103.16 159.01 103.29H159.14H159.01V103.37H159.07L159.3 103.51C172.17 111.13 187.24 116.26 197.83 116.26C200.203 116.314 202.568 115.976 204.83 115.26C206.658 114.726 208.358 113.828 209.83 112.62C210.345 112.172 210.756 111.616 211.034 110.993C211.312 110.369 211.451 109.693 211.44 109.01C211.44 107.1 210.49 104.78 208.76 101.85L208.53 101.98C209.521 103.522 210.118 105.283 210.27 107.11C210.288 107.896 210.053 108.667 209.6 109.31C209.01 110.047 208.223 110.602 207.33 110.91V111.03L207.38 111.15C208.324 110.831 209.154 110.244 209.77 109.46C210.258 108.775 210.507 107.95 210.48 107.11C210.332 105.239 209.728 103.433 208.72 101.85L208.61 101.91L208.5 101.98C210.22 104.9 211.15 107.18 211.15 108.98C211.155 109.626 211.021 110.266 210.757 110.856C210.493 111.446 210.105 111.973 209.62 112.4C208.178 113.584 206.511 114.465 204.72 114.99C202.485 115.704 200.146 116.042 197.8 115.99C187.29 115.99 172.24 110.87 159.4 103.27L159.17 103.13L159.11 103.24H159.23C159.23 103.24 159.23 103.07 159.23 102.9C159.224 102.441 159.295 101.985 159.44 101.55C159.606 101.01 159.961 100.549 160.44 100.25L160.37 100.14L160.31 100.25L160.7 100.47C173.65 107.73 187.35 112.67 198.17 112.68C201.298 112.735 204.409 112.217 207.35 111.15L207.3 111.03H207.34Z" fill="#3A383E"/>
<path d="M205.46 98.14L204.84 97.47C200.56 92.99 193.77 86.78 187.04 81.14C169.18 73.46 130.38 76.54 126.93 78.14C137.68 86.1033 148.875 93.4485 160.46 100.14C160.53 100.14 185.66 94.81 205.46 98.2V98.14Z" fill="#DE3434"/>
<path d="M205.46 98.14L205.55 98.05L204.93 97.39C200.65 92.87 193.83 86.66 187.12 80.96C178.21 77.13 164.12 75.96 151.83 75.96C145.59 75.96 139.83 76.25 135.36 76.65C133.14 76.85 131.25 77.08 129.81 77.3C129.09 77.42 128.48 77.53 127.99 77.64C127.62 77.7123 127.258 77.8229 126.91 77.97L126.71 78.06L126.89 78.19C137.642 86.1555 148.84 93.5008 160.43 100.19V100.19H160.48C170.405 98.2524 180.488 97.2315 190.6 97.14C195.566 97.1021 200.526 97.4767 205.43 98.26L205.81 98.33L205.55 98.05L205.46 98.14V98.01C200.54 97.2188 195.563 96.8408 190.58 96.88C180.454 96.9763 170.358 98.004 160.42 99.95V100.08L160.49 99.96C148.904 93.2757 137.712 85.9302 126.97 77.96L126.89 78.07L126.95 78.18C127.274 78.0479 127.608 77.9442 127.95 77.87C130.944 77.3085 133.97 76.9312 137.01 76.74C141.17 76.42 146.28 76.19 151.73 76.19C164.03 76.19 178.07 77.35 186.92 81.19L186.97 81.07L186.89 81.17C193.58 86.86 200.4 93.07 204.67 97.57L205.29 98.23L205.39 98.15V98.02V98.15L205.46 98.14Z" fill="#3A383E"/>
<path d="M187.04 81.14C179.22 74.5 171.57 68.55 168.32 66.82C162.32 63.61 147.83 62.32 140.55 61.3C129.62 59.76 121.6 59.51 115.97 60.12C115.57 60.19 105.78 61.98 115.97 69.91C119.08 72.26 122.77 75.14 126.93 78.14C130.38 76.51 169.18 73.43 187.04 81.14Z" fill="#BD2026"/>
<path d="M187.04 81.1401L187.12 81.0401C183.21 77.7201 179.35 74.5701 176.05 72.0401C173.622 70.0852 171.059 68.3042 168.38 66.7101C165.33 65.0901 160.2 63.9701 154.92 63.1101C149.64 62.2501 144.2 61.6301 140.57 61.1401C134.518 60.2225 128.41 59.7246 122.29 59.6501C120.176 59.6402 118.063 59.7437 115.96 59.9601V59.9601C115.116 60.1236 114.297 60.3924 113.52 60.7601C112.93 61.038 112.397 61.4248 111.95 61.9001C111.496 62.406 111.244 63.0606 111.24 63.7401C111.285 64.7159 111.635 65.653 112.24 66.4201C113.277 67.7747 114.503 68.9735 115.88 69.9801C118.97 72.3901 122.69 75.2101 126.88 78.2401H126.94H127.01C127.334 78.108 127.668 78.0043 128.01 77.9301C131.004 77.3686 134.03 76.9913 137.07 76.8001C141.23 76.4801 146.34 76.2501 151.79 76.2501C164.09 76.2501 178.13 77.4101 186.98 81.2501L187.11 81.0301L187.03 81.1301V81.0101C178.12 77.1801 164.03 76.0101 151.74 76.0101C145.5 76.0101 139.74 76.3001 135.27 76.7001C133.05 76.9001 131.16 77.1301 129.72 77.3501C129 77.4701 128.39 77.5801 127.9 77.6901C127.53 77.7624 127.168 77.873 126.82 78.0201V78.1401L126.9 78.0301C122.76 75.0301 119.05 72.1801 115.96 69.7801C114.604 68.7819 113.392 67.6006 112.36 66.2701C111.773 65.5504 111.424 64.6665 111.36 63.7401C111.36 63.1217 111.592 62.5257 112.01 62.0701C112.65 61.4149 113.439 60.9243 114.31 60.6401C114.815 60.4569 115.333 60.3131 115.86 60.2101V60.0901V60.2201C117.953 60.0036 120.056 59.9001 122.16 59.9101C128.267 59.9862 134.361 60.4807 140.4 61.3901C144.05 61.9101 149.48 62.4801 154.75 63.3901C160.02 64.3001 165.14 65.3901 168.13 66.9601C170.795 68.5451 173.344 70.3162 175.76 72.2601C179.05 74.7901 182.92 77.9401 186.83 81.2601L186.91 81.1601V81.0401V81.1601L187.04 81.1401Z" fill="#3A383E"/>
<path d="M205.46 98.14C185.66 94.75 160.53 100.06 160.46 100.08L160.86 100.3C177.86 109.82 196.09 115.3 207.41 110.97C211.59 109.36 210.85 105.72 208.68 101.86C207.78 100.72 206.707 99.48 205.46 98.14Z" fill="#F12A2A"/>
<path d="M205.46 98.14V98.01C200.54 97.2188 195.563 96.8408 190.58 96.88C180.454 96.9763 170.358 98.004 160.42 99.95L160.08 100.02L160.38 100.19L160.78 100.41C173.73 107.67 187.43 112.62 198.25 112.62C201.378 112.681 204.491 112.162 207.43 111.09C208.373 110.774 209.203 110.19 209.82 109.41C210.306 108.724 210.559 107.9 210.54 107.06C210.388 105.189 209.78 103.383 208.77 101.8V101.8C207.87 100.647 206.793 99.4033 205.54 98.07V98.2L205.44 98.28C206.69 99.63 207.76 100.86 208.66 102L208.76 101.92L208.65 101.98C209.634 103.528 210.228 105.292 210.38 107.12C210.403 107.907 210.167 108.679 209.71 109.32C209.123 110.058 208.335 110.61 207.44 110.91C204.529 111.971 201.447 112.483 198.35 112.42C187.61 112.42 173.93 107.5 161.01 100.25C160.87 100.18 160.74 100.1 160.61 100.02L160.54 100.14V100.26C170.444 98.3026 180.506 97.2582 190.6 97.14C195.566 97.1021 200.526 97.4767 205.43 98.26V98.14L205.33 98.22L205.43 98.14H205.46Z" fill="#46343A"/>
<path d="M210.56 105.68H210.39V106.52H210.56V105.68Z" fill="#090C2A"/>
<path d="M209.77 103.69C210.059 104.333 210.284 105.003 210.44 105.69C210.444 105.733 210.444 105.777 210.44 105.82C210.274 105.09 210.033 104.38 209.72 103.7L209.77 103.69Z" fill="#000E2D"/>
<path d="M151.82 76.24C148.42 76.24 145.15 76.33 142.16 76.48C158.06 79.26 180.3 85.09 198.7 97.21C200.88 97.38 203.03 97.63 205.12 97.98L204.76 97.59C200.5 93.09 193.68 86.89 186.99 81.2C178.64 77.62 165.68 76.38 153.92 76.26H151.84L151.82 76.24Z" fill="#C11A20"/>
<path d="M153.9 76.26C165.66 76.38 178.62 77.62 186.97 81.2C193.66 86.89 200.48 93.14 204.77 97.59L205.13 97.98H205.47C205.33 97.82 205.17 97.66 205.02 97.5C200.73 92.97 193.89 86.74 187.17 81.03H187.12L187.02 81.2C178.67 77.61 165.7 76.37 153.93 76.25L153.9 76.26ZM151.82 76.26C148.42 76.26 145.15 76.35 142.16 76.5C145.16 76.35 148.42 76.26 151.82 76.26Z" fill="#3A383E"/>
<path d="M122.29 59.89C120.186 59.8821 118.083 59.9822 115.99 60.19C115.463 60.2944 114.945 60.4381 114.44 60.62C113.569 60.9042 112.78 61.3948 112.14 62.05C111.722 62.5056 111.49 63.1016 111.49 63.72C111.554 64.6464 111.903 65.5303 112.49 66.25C113.522 67.5805 114.734 68.7618 116.09 69.76C117.76 71.06 119.63 72.49 121.64 74.01C128.134 74.4078 134.6 75.1656 141.01 76.28C144.3 76.1 148.01 75.99 151.82 75.99C163.82 75.99 177.41 77.08 186.35 80.65C182.66 77.53 179.03 74.59 175.91 72.19C173.494 70.2461 170.945 68.475 168.28 66.89C165.28 65.29 160.17 64.17 154.9 63.32C149.63 62.47 144.2 61.89 140.55 61.32C134.511 60.4106 128.417 59.9161 122.31 59.84L122.29 59.89Z" fill="#BD2026"/>
<path d="M122.18 59.69C120.063 59.6773 117.947 59.7774 115.84 59.99C115.356 60.0861 114.878 60.2131 114.41 60.37C114.89 60.2967 115.39 60.2367 115.91 60.19C115.6 60.19 109.82 61.29 111.65 65.32C112.717 67.1027 114.152 68.6369 115.86 69.82C117.51 71.1 119.34 72.51 121.31 74H121.62C119.62 72.48 117.74 71 116.07 69.75C114.714 68.7518 113.502 67.5706 112.47 66.24C111.883 65.5204 111.534 64.6365 111.47 63.71C111.47 63.0916 111.702 62.4957 112.12 62.04C112.76 61.3849 113.549 60.8943 114.42 60.61C114.925 60.4282 115.443 60.2845 115.97 60.18C118.063 59.9723 120.166 59.8722 122.27 59.88C128.377 59.9562 134.471 60.4507 140.51 61.36C144.16 61.88 149.59 62.45 154.86 63.36C160.13 64.27 165.25 65.36 168.24 66.93C170.905 68.5151 173.454 70.2861 175.87 72.23C178.99 74.63 182.62 77.57 186.31 80.69C177.39 77.08 163.77 75.99 151.77 75.99C147.93 75.99 144.25 76.1 140.96 76.28L142.11 76.48C145.11 76.33 148.37 76.24 151.77 76.24H153.87C165.64 76.36 178.61 77.6 186.96 81.19L187.06 81.02V81.09V81.02C179.24 74.38 171.6 68.45 168.35 66.72C162.29 63.5 147.77 62.2 140.5 61.14C134.434 60.2306 128.313 59.7361 122.18 59.66V59.69Z" fill="#3A383E"/>
<path d="M199.13 97.5C203.055 100.104 206.767 103.016 210.23 106.21C209.927 104.708 209.366 103.27 208.57 101.96C207.69 100.83 206.63 99.61 205.39 98.28C203.39 97.94 201.25 97.68 199.13 97.5V97.5Z" fill="#FF0000"/>
<path d="M198.68 97.21L199.13 97.5C201.25 97.68 203.35 97.94 205.39 98.28C206.63 99.61 207.69 100.83 208.57 101.96C209.366 103.27 209.927 104.708 210.23 106.21C210.331 106.298 210.428 106.392 210.52 106.49C210.496 106.217 210.453 105.946 210.39 105.68C210.234 104.993 210.009 104.323 209.72 103.68C209.473 103.113 209.183 102.533 208.85 101.94C207.95 100.79 206.85 99.55 205.61 98.2L205.47 98.05V98.14V98.03H205.13C203.04 97.68 200.89 97.43 198.71 97.26L198.68 97.21Z" fill="#3A383E"/>
<path d="M126.87 78.3C126.185 78.6191 125.615 79.1432 125.24 79.8C124.968 80.3103 124.83 80.8816 124.84 81.46V81.46C124.849 81.8456 124.906 82.2287 125.01 82.6C125.007 82.6299 125.007 82.6601 125.01 82.69L131.44 86.53C135.66 88.06 140.15 89.53 144.79 90.7C138.38 86.51 132.25 82.2 126.79 78.24L126.87 78.3Z" fill="#DE3434"/>
<path d="M125.04 82.75L125.14 83.02L130.4 86.15L131.46 86.54L125.03 82.7L125.04 82.75ZM124.84 81.52C124.849 81.9057 124.906 82.2887 125.01 82.66C124.906 82.2887 124.849 81.9057 124.84 81.52V81.52ZM126.92 78.33C126.211 78.6471 125.622 79.1834 125.24 79.86C124.968 80.3703 124.83 80.9417 124.84 81.52C124.83 80.9417 124.968 80.3703 125.24 79.86C125.615 79.2033 126.185 78.6791 126.87 78.36C132.28 82.36 138.41 86.63 144.87 90.82H145.02C138.57 86.6 132.41 82.27 127.02 78.29L126.92 78.33Z" fill="#3A383E"/>
<path d="M114.18 60.4399C112.427 60.681 110.709 61.1274 109.06 61.7699C107.694 62.2496 106.505 63.1317 105.65 64.2999C105.259 64.8937 105.05 65.589 105.05 66.2999C105.16 67.849 105.815 69.3089 106.9 70.4199C108.864 72.3542 111.041 74.0585 113.39 75.4999C116.49 77.5699 120.39 79.9799 124.72 82.4999C124.625 82.141 124.578 81.7712 124.58 81.3999C124.573 80.78 124.721 80.1682 125.01 79.6199C125.396 78.9803 125.958 78.4662 126.63 78.1399C122.56 75.1399 118.9 72.3699 115.85 69.9999C114.472 68.9873 113.243 67.7854 112.2 66.4299C111.598 65.6612 111.249 64.7251 111.2 63.7499C111.201 63.0728 111.454 62.4203 111.91 61.9199C112.354 61.4411 112.887 61.0538 113.48 60.7799C113.712 60.6567 113.953 60.5498 114.2 60.4599L114.18 60.4399Z" fill="#9E1D22"/>
<path d="M114.34 60.38C104.43 61.85 103.12 66.29 106.8 70.62C108.86 73.04 116.09 77.68 124.93 82.93L125.15 83.07L125.05 82.8C125.047 82.7701 125.047 82.7399 125.05 82.71C124.946 82.3387 124.888 81.9556 124.88 81.57C124.87 80.9917 125.008 80.4203 125.28 79.91C125.662 79.2334 126.251 78.6971 126.96 78.38C122.82 75.38 119.1 72.52 115.96 70.12C115.27 69.59 114.68 69.12 114.16 68.6C113.472 67.9782 112.848 67.288 112.3 66.54C111.835 65.9478 111.495 65.2674 111.3 64.54C110.84 62.73 112.04 61.62 113.3 60.96L113.49 60.86C113.704 60.7508 113.925 60.654 114.15 60.57C113.903 60.6598 113.662 60.7668 113.43 60.89C112.837 61.1638 112.304 61.5511 111.86 62.03C111.404 62.5304 111.151 63.1829 111.15 63.86C111.199 64.8351 111.548 65.7713 112.15 66.54C113.193 67.8955 114.422 69.0973 115.8 70.11C118.8 72.48 122.51 75.26 126.58 78.25C125.899 78.595 125.335 79.1344 124.96 79.8C124.671 80.3482 124.523 80.9601 124.53 81.58C124.528 81.9512 124.575 82.3211 124.67 82.68C120.36 80.12 116.44 77.68 113.34 75.68C110.991 74.2385 108.813 72.5342 106.85 70.6C105.765 69.4889 105.11 68.029 105 66.48C105 65.769 105.209 65.0738 105.6 64.48C106.455 63.3117 107.644 62.4297 109.01 61.95C110.659 61.3074 112.377 60.861 114.13 60.62L114.29 60.56L114.34 60.38Z" fill="#3A383E"/>
<path d="M111.31 64.42C111.505 65.1474 111.845 65.8278 112.31 66.42C112.859 67.168 113.482 67.8582 114.17 68.48C113.149 67.6029 112.307 66.5367 111.69 65.34C111.544 65.0533 111.43 64.7516 111.35 64.44L111.31 64.42ZM114.41 60.42H114.34L114.18 60.48C113.955 60.564 113.734 60.6609 113.52 60.77L113.33 60.87C113.683 60.6895 114.047 60.5325 114.42 60.4L114.41 60.42Z" fill="#0C1E54"/>
<path d="M113.32 60.84C112.05 61.5 110.85 62.61 111.32 64.42C111.265 64.1908 111.238 63.9557 111.24 63.72C111.244 63.0405 111.496 62.3859 111.95 61.88C112.352 61.4726 112.818 61.1347 113.33 60.88L113.32 60.84Z" fill="#000B24"/>
<path d="M115.91 60.19C115.39 60.2434 114.89 60.3034 114.41 60.37C114.037 60.5025 113.673 60.6595 113.32 60.84C112.808 61.0947 112.342 61.4326 111.94 61.84C111.486 62.346 111.234 63.0005 111.23 63.68C111.228 63.9157 111.255 64.1508 111.31 64.38C111.39 64.6915 111.504 64.9934 111.65 65.28C109.82 61.28 115.65 60.2 115.91 60.15V60.19Z" fill="#091744"/>
</g>
<defs>
<clipPath id="clip0_19_792">
<rect width="274.85" height="122.47" fill="white"/>
</clipPath>
</defs>
</svg>
