<svg width="322" height="173" viewBox="0 0 322 173" fill="none" xmlns="http://www.w3.org/2000/svg">
<path d="M258 162.902L257.691 138.874L252.257 138.795H250.817L248.816 134.613L248.942 132.659C249.734 130.88 248.777 130.568 248.777 130.568C248.777 130.568 248.777 123.171 246.148 118.529C242.899 112.852 239.98 111.689 239.98 111.689L239.264 101.106C239.264 101.106 238.52 98.585 237.331 97.745C236.714 98.21 236.212 98.814 235.866 99.51C235.521 100.205 235.34 100.973 235.339 101.751C235.243 104.516 235.446 111.884 235.446 111.884C233.831 113.227 232.401 114.781 231.192 116.506V116.409C231.192 116.194 231.192 115.627 231.192 114.982C231.192 114.005 231.047 112.852 230.651 112.529C230.067 111.931 229.578 111.245 229.201 110.497L228.804 106.754C228.804 106.754 229.481 103.744 228.64 103.021C227.799 102.298 227.441 101.946 227.441 101.946L227.257 101.018C226.648 97.891 224.986 90.269 222.636 87.035C218.653 81.533 213.704 77.468 212.466 74.595C211.229 71.722 211.403 63.495 211.403 63.495C211.403 63.495 211.335 56.86 208.686 54.7L208.609 50.274C208.609 50.274 208.271 50.088 208.077 50V96.445V100.021H208.561H210.069L210.127 105.406H208.609H208.077V114.923L213.617 118.578L213.694 125.271L222.985 131.389V133.812L212.031 125.868V119.555L208 116.711L208.048 138.405C208.363 138.521 208.659 138.682 208.928 138.883C209.894 139.707 210.516 140.869 210.668 142.137C210.716 142.431 210.726 142.606 210.726 142.606L210.881 157.469V158.788H209.131H208.039V162.902L226.155 163L231.685 162.941L258 162.902ZM243.025 132.61C244.901 132.61 244.959 134.564 244.959 134.564V138.835H241.14V134.574C241.14 134.574 241.159 132.62 243.025 132.6V132.61ZM226.088 108.581C224.919 108.067 223.722 107.623 222.501 107.252L222.443 101.858C223.668 102.225 224.869 102.669 226.039 103.187L226.088 108.581ZM219.156 101.038L219.214 106.422C217.717 106.102 216.203 105.867 214.68 105.718L214.622 100.324C216.145 100.477 217.658 100.712 219.156 101.028V101.038ZM216.034 158.691V155.642L215.927 145.616C215.927 145.616 215.927 142.753 218.238 142.03C218.597 141.914 218.973 141.858 219.35 141.864C219.735 141.854 220.12 141.903 220.49 142.01C222.839 142.694 222.956 145.538 222.956 145.538L223.013 151.987L223.081 158.613L216.034 158.691ZM235.03 132.659C236.964 132.659 236.964 134.613 236.964 134.613V138.864H233.097V134.623C233.102 134.108 233.308 133.616 233.67 133.254C234.032 132.891 234.521 132.688 235.03 132.688V132.659ZM231.492 144.834V141.903H231.55L231.685 158.583V157.264L231.492 144.834Z" fill="#26576C"/>
<path d="M205.263 142.52C205.251 142.364 205.251 142.207 205.263 142.051C205.422 140.782 206.057 139.617 207.042 138.788C207.319 138.59 207.621 138.429 207.941 138.309V116.676L203.91 119.461V125.783L192.716 133.717V131.294L202.21 125.177L202.289 118.484L207.96 114.83V108.557V105.411H207.417H205.876V100.027H207.911V50L207.368 50.264L207.289 54.7C204.581 56.84 204.512 63.494 204.512 63.494C204.512 63.494 204.68 71.711 203.426 74.593C202.171 77.476 197.102 81.531 193.032 87.032C190.641 90.275 188.932 97.887 188.309 101.014C188.131 101.913 188.122 101.991 188.122 101.991C188.122 101.991 187.746 102.352 186.896 103.066C186.047 103.779 186.729 106.808 186.729 106.808L186.323 110.54C185.939 111.287 185.442 111.972 184.851 112.573C184.446 112.905 184.318 114.048 184.298 115.025C184.298 115.67 184.298 116.246 184.298 116.461V116.559C183.065 114.83 181.603 113.272 179.951 111.928C179.951 111.928 180.158 104.57 180.06 101.805C180.06 101.025 179.876 100.256 179.522 99.559C179.169 98.862 178.656 98.256 178.024 97.789C176.809 98.63 176.048 101.15 176.048 101.15L175.317 111.732C175.317 111.732 172.353 112.905 169.024 118.572C166.307 123.213 166.336 130.61 166.336 130.61C166.336 130.61 165.348 130.922 166.159 132.701L166.287 134.655L164.252 138.837H162.869L157.316 138.905L157 162.941H183.834L189.485 163L208 162.893V158.779H206.893H205.095V157.47L205.263 142.52ZM174.142 138.817H170.19V134.547C170.19 134.547 170.288 132.534 172.166 132.593C174.043 132.652 174.053 134.635 174.053 134.635L174.142 138.817ZM182.332 138.886H178.38V134.635C178.38 134.635 178.459 132.622 180.356 132.681C182.253 132.74 182.253 134.713 182.253 134.713L182.332 138.886ZM184.081 144.797L183.942 157.225V158.593L184.081 141.866H184.14L184.081 144.797ZM201.321 100.232L201.262 105.616C199.705 105.765 198.158 106 196.628 106.319L196.687 100.935C198.219 100.621 199.765 100.387 201.321 100.232ZM193.328 101.766L193.269 107.16C192.022 107.527 190.798 107.968 189.604 108.479L189.663 103.085C190.856 102.577 192.08 102.143 193.328 101.786V101.766ZM199.908 155.574V158.623L192.735 158.544L192.805 151.92L192.874 145.471C192.874 145.471 192.983 142.628 195.383 141.944C195.763 141.842 196.156 141.792 196.549 141.797C196.937 141.797 197.324 141.853 197.695 141.963C200.076 142.686 200.047 145.549 200.047 145.549L199.908 155.574Z" fill="#26576C"/>
<path d="M283.169 58.925C283.077 59.326 283.308 59.903 282.477 59.482C281.646 59.062 280.41 60.694 279.708 60.049C279.393 59.807 279.024 59.657 278.636 59.614C278.249 59.571 277.858 59.637 277.502 59.805C277.134 60.099 276.845 60.49 276.662 60.939C276.888 61.751 277.247 62.516 277.724 63.196C278.103 63.503 278.552 63.699 279.025 63.763C279.025 63.763 280.013 62.395 280.927 62.629C281.84 62.864 282.062 64.643 281.693 65.053C281.52 65.312 281.428 65.621 281.428 65.938C281.428 66.254 281.52 66.563 281.693 66.822C281.988 67.379 281.61 69.402 281.536 70.379C281.462 71.357 279.865 73.194 280.16 73.986C280.456 74.777 281.222 75.765 281.462 76.322C281.667 77.541 281.559 78.797 281.148 79.957C280.779 80.592 279.708 81.736 279.182 81.736C278.656 81.736 277.881 79.957 278.111 79.547C278.342 79.136 276.893 80.426 276.893 81.081C276.85 81.613 276.718 82.132 276.505 82.616C276.505 82.616 276.127 82.694 275.666 83.505C275.476 83.931 275.378 84.397 275.378 84.868C275.378 85.34 275.476 85.805 275.666 86.232C275.774 86.664 275.783 87.118 275.692 87.555C275.6 87.992 275.411 88.4 275.139 88.743C274.687 89.388 274.078 88.743 273.469 89.623C272.86 90.502 272.177 91.793 271.568 92.037C270.958 92.281 271.032 94.304 271.337 95.096C271.641 95.887 272.629 97.911 272.398 98.477C272.345 98.792 272.36 99.116 272.441 99.424C272.523 99.732 272.669 100.016 272.869 100.256C273.18 100.773 273.407 101.341 273.543 101.937C273.8 102.583 274.109 103.204 274.466 103.794V122.822C274.466 122.822 272.491 125.481 272.564 126.194C272.638 126.908 272.721 129.126 271.955 129.507C270.684 130.467 269.688 131.779 269.076 133.299C269 134.275 269 135.256 269.076 136.231C268.993 137.209 268.762 138.186 269.159 138.733C269.556 139.28 270.598 140.59 270.285 140.688C269.971 140.786 269.002 141.098 268.919 141.479C268.492 143.18 268.166 144.906 267.94 146.649C268.014 147.304 267.405 148.663 267.405 149.308C267.34 150.032 267.313 150.76 267.322 151.487C267.396 152.367 266.934 154.214 267.008 154.468C267.067 154.757 267.095 155.052 267.091 155.348V163H284V57C283.169 57.049 283.234 58.525 283.169 58.925Z" fill="#26576C"/>
<path d="M303 155.187C303 155.187 302.408 150.601 302.28 149.32C302.252 148.301 302.129 147.286 301.915 146.289C301.769 145.857 301.567 145.446 301.314 145.066C301.243 143.877 301.038 142.7 300.703 141.556C299.911 140.976 299.05 140.496 298.139 140.128C299.065 138.887 299.846 137.545 300.466 136.129C300.713 135.043 300.348 132.266 299.48 131.787C298.612 131.308 297.794 131.181 297.794 130.203C297.794 129.225 297.666 128.628 297.054 128.404C296.407 128.005 295.793 127.553 295.221 127.054C294.77 126.615 294.364 126.134 294.008 125.617V104.397C294.008 104.397 295.221 102.588 295.092 101.728C294.982 100.884 294.982 100.029 295.092 99.185C295.211 98.833 296.798 95.274 296.68 94.707C296.561 94.14 298.76 95.196 298.76 95.196C298.76 95.196 299.007 93.494 298.395 93.025C297.784 92.555 295.221 91.069 296.305 90.6C297.205 90.359 298.162 90.442 299.007 90.834C299.007 90.834 299.007 89.28 297.902 88.879C296.798 88.478 297.291 87.05 296.059 86.698C294.826 86.346 293.367 87.177 292.272 86.825C291.178 86.473 290.932 85.495 290.093 84.517C289.255 83.54 288.26 82.708 288.26 82.708C288.26 82.708 291.217 81.095 291.06 79.726C290.902 78.357 289.088 76.255 288.624 74.328C288.161 72.402 288.457 70.29 287.895 69.439C287.51 68.864 287.075 68.324 286.593 67.825L286.672 66.212C286.672 66.212 288.871 67.425 289.63 67.737C290.389 68.05 291.01 69.762 291.257 69.595C291.364 69.185 291.382 68.757 291.311 68.339C291.239 67.921 291.08 67.523 290.843 67.17C290.36 66.769 288.654 65.889 287.885 65.215C287.226 64.606 286.818 63.777 286.741 62.887C286.764 62.549 286.719 62.209 286.607 61.888C286.495 61.567 286.319 61.272 286.09 61.02C285.691 60.82 285.312 60.584 284.956 60.316C284.592 59.983 285.44 59.064 285.44 58.418C285.451 58.233 285.422 58.047 285.357 57.872C285.292 57.698 285.19 57.539 285.06 57.406C284.929 57.272 284.771 57.167 284.597 57.098C284.424 57.028 284.237 56.995 284.049 57.001H284V163H302.99L303 155.187Z" fill="#26576C"/>
<path d="M84 77.484L82.902 77L79.955 85.9L74 87.682L74.295 89L80.717 87.094V86.899L80.87 86.961L84 77.484Z" fill="#26576C"/>
<path d="M121.683 128.485L121.356 129.531H120.514V130.974H119.225V127.217H118.651V125.203H118.413L118.205 123.741L117.917 121.805L117.63 123.741L117.412 125.203H117.115V127.217H116.56V130.974H114.677V129.531H113.845L113.528 128.485L113.181 127.362L112.844 128.485L112.527 129.531H111.694V130.974H110.406V127.391H109.851V125.3H109.494L109.267 123.78L108.979 121.844L108.692 123.78L108.474 125.3H108.186V127.391H107.622V130.945H105.729V129.502H104.897L104.57 128.456L104.233 127.333L103.896 128.456L103.579 129.502H102.746V130.945H101.478V127.188H100.913V125.174H100.626L100.408 123.712L100.12 121.776L99.833 123.712L99.615 125.174H99.328V127.188H98.763V130.945H96.85V129.502H96.018L95.701 128.456L95.354 127.333L95.017 128.456L94.7 129.502H94.393L94.304 99.488H95.592V69.968H94.304V64.295H94.046L87.763 53.645H87.694V43.159H87.625L79.4 25.248V20H79.231V25.296L71.007 43.159H70.937V53.887L64.536 64.324H64.288V69.997H63V99.595H64.288V160H122V127.469L121.683 128.485ZM79.816 94.947C79.628 94.947 79.44 94.947 79.261 94.947C74.128 94.628 70.045 89.894 70.045 84.075C70.045 78.256 74.128 73.531 79.261 73.212C79.44 73.212 79.628 73.212 79.816 73.212C85.197 73.212 89.577 78.053 89.577 84.113C89.577 90.174 85.197 94.947 79.816 94.947Z" fill="#26576C"/>
<path d="M194.531 123.949V118.785H194.404C194.259 118.323 194 117.904 193.65 117.566C193.3 117.229 192.87 116.983 192.399 116.851L191.998 115.256L191.402 112.896L190.796 115.256L190.395 116.851C189.96 116.965 189.558 117.176 189.219 117.467C188.88 117.759 188.613 118.124 188.439 118.534H188.097V109.918H187.119V105.083H186.464L186.034 102.994L185.232 99L184.421 102.994L184 105.083H183.325V109.918H182.348V118.534H180.324V122.653L177.899 124.152V130.786H176.305V129.336H175.464L175.151 128.272L174.809 127.131L174.477 128.272L174.154 129.336H173.323V130.786H171.935V126.995H171.377V124.965H171.084L170.869 123.485L170.575 121.551L170.282 123.485L170.077 124.965H169.783V126.995H169.314V130.786H167.554V129.336H166.713L166.391 128.272L166.058 127.131L165.716 128.272L165.403 129.336H164.562V130.786H163.183V126.783H162.626V124.849H162.333L162.118 123.437L161.834 121.58L161.551 123.437L161.326 124.849H161.042V126.783H160.514V130.786H158.715V129.336H157.884L157.561 128.272L157.229 127.131L156.887 128.272L156.574 129.336H155.733V130.786H154.374V126.783H153.817V124.849H153.523L153.308 123.437L153.024 121.58L152.731 123.437L152.516 124.849H152.233V126.783H151.665V130.786H149.857V129.336H149.025L148.713 128.272L148.37 127.131L148.038 128.272L147.715 129.336H146.825V130.786H145.496V126.995H144.929V124.965H144.635L144.42 123.485L144.137 121.551L144.078 121.919V122.363L143.863 123.853L143.648 125.313H143.364V127.324H142.807V131.076H140.998V129.635H140.177L139.864 128.591L139.522 127.469L139.189 128.591L138.876 129.635H138.055V131.076H136.745V127.208H136.187V125.274H135.894L135.679 123.843L135.395 121.977L135.122 123.843L134.897 125.274H134.613V127.208H134.115V131.076H132.296V129.635H131.475L131.162 128.591L130.829 127.469L130.487 128.591L130.174 129.635H129.343V131.076H128.052V127.489H127.495V125.4H127.211L126.996 123.882L126.713 121.948L126.429 123.882L126.214 125.4H125.921V127.489H125.315V131.038H123.476V129.597H122.655L122.342 128.552L122 127.431V127.537V160H194.736V130.864L195 130.738V124.839L194.531 123.949Z" fill="#26576C"/>
<path d="M30.623 127.547C30.623 127.547 34.369 113.642 34.556 110H39V0H38.843V6.2924C38.733 6.3315 38.637 6.4025 38.569 6.496C38.5 6.5896 38.462 6.7014 38.459 6.8168V12.643H38.017C37.758 12.627 37.502 12.713 37.307 12.882C37.112 13.051 36.992 13.29 36.975 13.546C36.973 13.7 37.014 13.851 37.093 13.983H36.621C36.256 13.962 35.898 14.083 35.623 14.322C35.349 14.56 35.181 14.895 35.156 15.255V16.149C35.155 16.353 35.209 16.554 35.313 16.731C35.04 16.805 34.798 16.962 34.621 17.18C34.445 17.398 34.343 17.666 34.33 17.945C34.33 17.945 34.989 23.082 35.795 23.082H35.991C36.188 51.369 30.446 88.968 28.952 98.309H27.821C27.64 98.297 27.459 98.321 27.287 98.378C27.116 98.436 26.9573 98.526 26.8212 98.645C26.6851 98.763 26.5739 98.906 26.4941 99.067C26.4143 99.228 26.3675 99.402 26.3562 99.581C26.3562 99.581 27.005 102.048 27.821 102.048H28.303C26.7692 109.971 23.387 118.886 19.5428 127.295H16.0427V134.597C11.4954 143.65 6.4744 152.463 1 161H16.9964C17.2717 149.998 26.9953 141.161 38.99 141.103V127.509L30.623 127.547Z" fill="#26576C"/>
<path d="M124.36 151.58L124.597 149.42C124.669 149.3 124.714 149.166 124.729 149.027C124.745 148.889 124.73 148.749 124.686 148.616C124.642 148.484 124.57 148.362 124.474 148.26C124.379 148.157 124.263 148.076 124.133 148.021L123.837 146.144L121.239 145.861C120.024 143.612 118.808 135.937 118.808 135.937L118.888 134.9C118.953 134.179 119.243 133.496 119.717 132.945L118.048 132.192L117.811 130.882L114.699 129.904L112.18 120.724L112.644 119.971L112.338 118.993L112.941 117.302L111.578 116.744L111.35 114.789L109.75 114.134C109.365 111.601 105.868 102.89 105.868 102.89L105.107 101.678L105.562 99.986C95.752 96.007 83.375 95.665 74.04 96.193V116.95C75.294 116.95 76.321 118.23 76.321 119.814V124.488C76.323 124.788 76.284 125.088 76.203 125.378C75.462 125.378 74.731 125.436 74 125.466V132.31C74.383 132.652 74.686 133.072 74.889 133.541C75.092 134.01 75.19 134.517 75.176 135.028V140.395C75.178 141.084 74.99 141.76 74.632 142.351H74V163H126C125.358 159.725 124.36 151.58 124.36 151.58ZM101.255 121.203C101.186 120.89 101.189 120.566 101.263 120.255C101.338 119.944 101.481 119.653 101.684 119.404C101.887 119.155 102.143 118.954 102.435 118.816C102.726 118.678 103.045 118.607 103.369 118.607C103.692 118.607 104.011 118.678 104.302 118.816C104.594 118.954 104.85 119.155 105.053 119.404C105.256 119.653 105.4 119.944 105.474 120.255C105.548 120.566 105.551 120.89 105.483 121.203V127.421C104.09 127.147 102.677 126.913 101.255 126.688V121.203ZM94.596 105.217H96.651V108.395H94.596V105.217ZM94.399 120.108C94.338 119.791 94.348 119.465 94.429 119.152C94.509 118.84 94.659 118.549 94.867 118.3C95.074 118.052 95.335 117.851 95.63 117.714C95.924 117.577 96.246 117.506 96.572 117.506C96.898 117.506 97.22 117.577 97.515 117.714C97.81 117.851 98.07 118.052 98.278 118.3C98.485 118.549 98.635 118.84 98.716 119.152C98.797 119.465 98.807 119.791 98.745 120.108V126.345C97.303 126.16 95.861 126.013 94.399 125.876V120.108ZM80.283 104.093H82.337V107.28H80.283V104.093ZM81.271 159.07H75.907V153.037C75.907 150.632 77.102 148.667 78.584 148.667C80.065 148.667 81.271 150.622 81.271 153.037V159.07ZM83.246 140.747C83.247 141.297 83.13 141.84 82.9 142.341H78.198C77.981 141.844 77.87 141.308 77.872 140.767V135.399C77.872 133.581 79.078 132.114 80.559 132.114C82.041 132.114 83.246 133.581 83.246 135.399V140.747ZM83.928 125.211V125.329C82.318 125.329 80.717 125.329 79.137 125.329V119.462C79.06 119.109 79.065 118.743 79.15 118.391C79.234 118.04 79.398 117.711 79.627 117.43C79.857 117.149 80.147 116.922 80.477 116.766C80.806 116.611 81.167 116.53 81.532 116.53C81.898 116.53 82.258 116.611 82.588 116.766C82.918 116.922 83.208 117.149 83.437 117.43C83.667 117.711 83.83 118.04 83.915 118.391C84 118.743 84.004 119.109 83.928 119.462V125.211ZM89.756 159.07H84.382V153.477C84.382 151.287 85.587 149.517 87.069 149.517C88.551 149.517 89.756 151.287 89.756 153.477V159.07ZM91.119 141.031C91.123 141.54 91.025 142.045 90.833 142.517C89.223 142.517 87.612 142.419 86.002 142.39C85.837 141.955 85.753 141.495 85.755 141.031V135.663C85.755 133.845 86.96 132.378 88.442 132.378C89.924 132.378 91.119 133.845 91.119 135.663V141.031ZM91.692 124.879C91.693 125.139 91.663 125.398 91.603 125.651C90.122 125.554 88.64 125.475 87.168 125.417C87.153 125.238 87.153 125.058 87.168 124.879V120.205C87.168 118.622 88.156 117.341 89.45 117.341C90.744 117.341 91.732 118.622 91.732 120.205L91.692 124.879ZM97.856 159.099H92.492V153.497C92.492 151.082 93.698 149.126 95.179 149.126C96.661 149.126 97.856 151.082 97.856 153.497V159.099ZM99.121 141.5C99.123 141.977 99.039 142.45 98.874 142.898C97.274 142.81 95.654 142.732 94.033 142.673C93.921 142.292 93.864 141.897 93.865 141.5V136.142C93.865 134.324 95.041 132.847 96.493 132.847C97.945 132.847 99.121 134.324 99.121 136.142V141.5ZM105.512 159.099H100.148V153.233C100.148 150.818 101.344 148.862 102.825 148.862C104.307 148.862 105.512 150.818 105.512 153.233V159.099ZM106.431 142.048C106.428 142.5 106.351 142.949 106.204 143.377C104.584 143.24 102.944 143.123 101.264 143.025C101.185 142.705 101.145 142.377 101.146 142.048V136.68C101.146 134.861 102.321 133.395 103.774 133.395C105.226 133.395 106.401 134.861 106.401 136.68L106.431 142.048ZM107.221 122.562C107.221 121.095 108.15 119.902 109.286 119.902C110.422 119.902 111.34 121.095 111.34 122.562V128.8C109.987 128.428 108.614 128.105 107.221 127.822V122.562ZM107.597 159.099L107.261 154.152C107.103 151.844 107.913 149.889 109.068 149.772C110.224 149.654 111.291 151.414 111.449 153.682L111.824 159.06L107.597 159.099ZM112.259 143.964C110.837 143.798 109.375 143.651 107.903 143.524C107.869 143.33 107.846 143.134 107.834 142.937L107.537 137.589C107.439 135.771 108.377 134.216 109.641 134.109C110.906 134.001 112.002 135.389 112.101 137.208L112.397 142.556C112.406 143.021 112.35 143.485 112.23 143.935L112.259 143.964ZM113.652 159.099L113.326 154.21C113.168 151.952 113.81 150.045 114.748 149.948C115.687 149.85 116.566 151.6 116.724 153.858L117.08 159.099H113.652ZM117.07 144.58C115.963 144.414 114.828 144.267 113.682 144.13C113.677 144.078 113.677 144.026 113.682 143.974L113.405 138.938C113.306 137.227 113.998 135.78 114.946 135.702C115.894 135.624 116.734 136.944 116.833 138.635L117.1 143.671C117.104 143.965 117.084 144.259 117.04 144.551L117.07 144.58ZM118.117 159.099L117.712 154.562C117.505 152.304 118.097 150.378 119.036 150.251C119.974 150.123 120.893 151.844 121.1 154.093L121.555 159.099H118.117Z" fill="#F2D375"/>
<path d="M70.495 142.632C70.126 142.029 69.933 141.332 69.939 140.623V135.321C69.939 133.535 71.108 132.076 72.544 132.076C73.08 132.082 73.597 132.28 74 132.637V125.876L71.979 125.944C71.873 125.61 71.822 125.261 71.826 124.91V120.323C71.759 119.66 71.948 118.997 72.353 118.47C72.757 117.944 73.347 117.594 74 117.493V97C69.504 97.238 65.027 97.748 60.592 98.526L60.669 99.82L60.151 100.284L59.998 101.858L58.226 102.138L52.672 103.519L50.603 101.211C22.2546 112.133 27.091 122.863 27.091 122.863L26.459 127.392C25.816 128.217 25.3772 129.184 25.179 130.213C24.9808 131.243 25.0289 132.305 25.3193 133.313L24.6585 137.803C22.111 139.426 23.4422 142.516 23.4422 142.516L22.1493 149.692C20.9617 150.339 21.9577 151.623 21.9577 151.623L21 163H74V142.632C72.784 142.632 71.654 142.632 70.495 142.632ZM66.319 105.103H68.311V108.251H66.319V105.103ZM64.844 120.333C64.844 118.768 65.802 117.503 67.066 117.503C68.33 117.503 69.278 118.768 69.278 120.333V124.949C69.28 125.355 69.208 125.757 69.068 126.137C67.737 126.224 66.444 126.311 65.17 126.417C64.957 125.957 64.846 125.456 64.844 124.949V120.333ZM57.757 121.028C57.757 119.464 58.715 118.198 59.969 118.198C61.224 118.198 62.191 119.464 62.191 121.028V125.635C62.192 125.992 62.138 126.347 62.029 126.687C60.669 126.813 59.347 126.948 58.073 127.093C57.861 126.637 57.753 126.139 57.757 125.635V121.028ZM53.486 107.788L55.401 107.604V110.762L53.486 110.946V107.788ZM51.57 122.274C51.57 120.709 52.528 119.444 53.783 119.444C55.037 119.444 55.995 120.709 55.995 122.274V126.89C56.005 127.038 56.005 127.187 55.995 127.334C54.482 127.521 53.064 127.705 51.743 127.885C51.652 127.571 51.604 127.246 51.599 126.919L51.57 122.274ZM51.216 132.791C51.97 132.941 52.639 133.378 53.084 134.01C53.53 134.642 53.718 135.423 53.61 136.191L53.275 141.338C53.246 141.982 53.037 142.605 52.672 143.134L48.841 143.308C48.298 142.609 48.035 141.731 48.103 140.845L48.429 135.698C48.525 133.94 49.798 132.636 51.206 132.781L51.216 132.791ZM45.757 122.593C45.872 121.038 46.954 119.889 48.17 120.024C48.826 120.185 49.396 120.59 49.767 121.158C50.139 121.726 50.283 122.414 50.172 123.085L49.846 127.682C49.835 127.844 49.812 128.006 49.779 128.165C48.237 128.397 46.906 128.619 45.709 128.812C45.487 128.302 45.392 127.745 45.431 127.19L45.757 122.593ZM31.391 120.14L30.692 120.603L31.018 117.967L31.688 117.551L31.391 120.14ZM36.668 116.721L35.892 116.943L36.036 114.355L36.889 113.891L36.668 116.721ZM43.535 110.801L45.01 110.192L44.636 113.341L43.238 113.766L43.535 110.801ZM50.239 153.294L49.751 159.185H44.531C44.526 159.127 44.526 159.069 44.531 159.011L45.048 152.763C45.221 150.638 46.523 149.045 47.921 149.19C49.32 149.334 50.431 151.121 50.258 153.255L50.239 153.294ZM57.297 159.166H52.097V153.14C52.097 151.102 53.256 149.45 54.692 149.45C56.129 149.45 57.297 151.102 57.297 153.14V159.166ZM55.621 143.067C55.274 142.483 55.089 141.816 55.085 141.135V135.833C55.085 134.037 56.253 132.588 57.68 132.588C59.107 132.588 60.285 134.037 60.285 135.833V141.135C60.293 141.772 60.138 142.401 59.835 142.96L55.621 143.067ZM65.266 159.185H60.065V152.676C60.065 150.3 61.234 148.359 62.67 148.359C64.107 148.359 65.266 150.291 65.266 152.676V159.185ZM67.593 140.672C67.601 141.404 67.395 142.123 66.999 142.738C65.658 142.738 64.346 142.787 63.044 142.825C62.611 142.193 62.384 141.44 62.392 140.672V135.37C62.392 133.583 63.551 132.125 64.997 132.125C66.444 132.125 67.593 133.583 67.593 135.37V140.672ZM68.033 159.185V152.483C68.033 150.097 69.202 148.166 70.638 148.166C72.075 148.166 73.243 150.097 73.243 152.483V159.127L68.033 159.185Z" fill="#F2D375"/>
<path d="M189.808 53.755L184.139 52.861C184.139 52.307 183.897 51.831 183.504 51.753L185.652 35.971C185.775 35.87 185.86 35.734 185.895 35.582L186.439 35.67V35.534C186.5 35.198 186.432 34.852 186.248 34.562C186.2 34.482 186.134 34.414 186.056 34.362C185.977 34.31 185.888 34.275 185.794 34.26L185.289 34.183L185.784 30.538L186.389 30.636C186.572 30.656 186.758 30.64 186.935 30.589C187.112 30.539 187.276 30.454 187.419 30.34C187.561 30.227 187.678 30.087 187.763 29.929C187.847 29.771 187.898 29.598 187.912 29.421C187.942 29.234 187.942 29.044 187.912 28.857L169.685 26L165.963 53.959C166.469 54.073 166.927 54.333 167.275 54.705C167.623 55.077 167.845 55.542 167.91 56.039H167.849C167.466 55.981 167.093 56.37 167.022 56.904V57.05L167.617 57.137C167.617 57.201 167.63 57.264 167.656 57.322C167.682 57.381 167.721 57.434 167.769 57.477L166.76 64.649H166.669C166.316 64.591 165.973 64.912 165.862 65.378L164.45 65.155L163.905 69.149C164.375 69.261 164.799 69.506 165.122 69.853C165.446 70.199 165.654 70.631 165.721 71.093C165.358 71.093 165.035 71.462 164.964 71.967V72.103L165.559 72.201C165.561 72.329 165.616 72.451 165.711 72.541L164.702 79.713H164.611C164.258 79.713 163.915 79.985 163.804 80.461L162.402 80.237L161.868 84.241C162.335 84.354 162.756 84.6 163.076 84.947C163.396 85.294 163.601 85.725 163.663 86.185C163.3 86.185 162.977 86.554 162.907 87.06V87.196L163.502 87.293C163.506 87.421 163.56 87.542 163.653 87.633L162.644 94.805H162.554C162.18 94.805 161.827 95.116 161.737 95.621L160.355 95.408L159.81 99.421C160.276 99.535 160.695 99.781 161.014 100.128C161.332 100.474 161.535 100.906 161.595 101.365C161.242 101.365 160.91 101.734 160.839 102.24V102.376L161.434 102.473C161.439 102.597 161.494 102.715 161.585 102.803L160.577 109.985H160.496C160.133 109.927 159.79 110.247 159.679 110.733L158.317 110.52L157.772 114.523C158.233 114.643 158.647 114.891 158.961 115.237C159.276 115.583 159.476 116.011 159.538 116.467C159.175 116.467 158.852 116.836 158.781 117.351V117.487L159.386 117.585C159.389 117.708 159.439 117.826 159.528 117.915L158.519 125.087H158.428C158.075 125.029 157.742 125.34 157.631 125.816L156.27 125.602L155.735 129.616C156.195 129.734 156.607 129.982 156.918 130.329C157.229 130.675 157.425 131.104 157.48 131.559C157.341 131.563 157.209 131.615 157.107 131.705C156.886 131.892 156.749 132.153 156.723 132.434V132.57L157.329 132.667C157.329 132.791 157.38 132.91 157.47 132.998L156.461 140.18H156.37C156.017 140.18 155.674 140.452 155.563 140.928L154.222 140.714L154 142.347L177.2 145.991C177.3 146.007 177.403 146.001 177.5 145.975C177.598 145.948 177.688 145.9 177.765 145.836C177.888 145.735 177.98 145.603 178.031 145.456C178.083 145.308 178.091 145.149 178.056 144.997C178.021 144.845 177.943 144.705 177.831 144.593C177.719 144.48 177.578 144.399 177.422 144.358H177.23C177.23 143.873 177.008 143.455 176.655 143.387H176.564L177.573 136.215C177.629 136.185 177.679 136.145 177.719 136.097C177.759 136.048 177.788 135.992 177.805 135.933L178.4 136.03V135.894C178.471 135.35 178.218 134.864 177.835 134.805C177.967 134.445 178.173 134.115 178.44 133.834L178.834 130.976L179.257 131.044C179.358 131.06 179.46 131.055 179.558 131.028C179.656 131.001 179.746 130.954 179.822 130.889C179.993 130.753 180.102 130.557 180.125 130.345C180.13 130.306 180.13 130.267 180.125 130.228C180.127 130.055 180.074 129.885 179.974 129.742C179.921 129.655 179.847 129.581 179.76 129.525C179.673 129.47 179.573 129.434 179.469 129.422H179.278C179.315 129.22 179.277 129.013 179.172 128.835C179.067 128.658 178.901 128.521 178.703 128.45H178.612L179.621 121.278C179.678 121.252 179.728 121.214 179.769 121.167C179.809 121.12 179.837 121.065 179.853 121.005L180.448 121.093V120.957C180.497 120.675 180.44 120.385 180.286 120.141C180.244 120.071 180.187 120.011 180.12 119.964C180.052 119.917 179.975 119.885 179.893 119.868C180.021 119.507 180.227 119.176 180.498 118.897L180.892 116.039L181.315 116.108C181.415 116.124 181.518 116.118 181.616 116.091C181.713 116.064 181.804 116.017 181.88 115.952C182.049 115.814 182.157 115.62 182.183 115.408C182.187 115.369 182.187 115.33 182.183 115.291C182.178 115.119 182.126 114.951 182.031 114.805C181.975 114.721 181.901 114.649 181.814 114.594C181.727 114.538 181.63 114.501 181.527 114.485H181.335C181.352 114.239 181.289 113.994 181.154 113.785C181.111 113.714 181.052 113.654 180.983 113.607C180.913 113.56 180.834 113.528 180.75 113.513H180.67L181.678 106.341C181.735 106.311 181.784 106.271 181.824 106.223C181.864 106.174 181.893 106.118 181.91 106.059L182.505 106.156V106.02C182.557 105.738 182.499 105.448 182.344 105.204C182.301 105.133 182.243 105.072 182.173 105.025C182.104 104.978 182.024 104.946 181.94 104.932C182.068 104.57 182.275 104.239 182.546 103.96L182.929 101.103L183.363 101.171C183.463 101.184 183.565 101.177 183.662 101.15C183.759 101.124 183.85 101.077 183.928 101.015C184.093 100.875 184.2 100.681 184.23 100.471C184.23 100.471 184.23 100.393 184.23 100.354C184.229 100.18 184.173 100.011 184.069 99.868C184.015 99.783 183.944 99.709 183.858 99.652C183.773 99.595 183.676 99.556 183.575 99.538H183.383C183.433 99.023 183.181 98.566 182.808 98.508H182.727L183.736 91.336C183.792 91.306 183.842 91.266 183.882 91.218C183.922 91.169 183.951 91.114 183.968 91.054L184.563 91.151V91.015C184.608 90.733 184.551 90.445 184.402 90.199C184.358 90.129 184.299 90.069 184.229 90.022C184.16 89.975 184.081 89.943 183.998 89.927C184.126 89.565 184.332 89.234 184.603 88.955L184.987 86.098L185.42 86.166C185.521 86.182 185.623 86.176 185.721 86.149C185.819 86.122 185.909 86.075 185.985 86.01C186.155 85.873 186.263 85.678 186.288 85.466C186.313 85.361 186.316 85.253 186.297 85.147C186.278 85.041 186.238 84.94 186.177 84.849C186.117 84.759 186.039 84.68 185.947 84.62C185.855 84.559 185.752 84.516 185.642 84.494H185.441C185.441 84.008 185.219 83.59 184.866 83.522H184.785L185.794 76.35C185.849 76.322 185.898 76.283 185.938 76.237C185.978 76.19 186.008 76.136 186.026 76.078L186.621 76.166V76.03C186.701 75.495 186.439 74.999 186.056 74.941C186.184 74.579 186.39 74.248 186.661 73.969L187.044 71.112L187.478 71.18C187.578 71.196 187.681 71.19 187.779 71.164C187.876 71.137 187.967 71.089 188.043 71.025C188.127 70.957 188.196 70.875 188.247 70.781C188.297 70.688 188.327 70.585 188.336 70.48C188.341 70.442 188.341 70.402 188.336 70.364C188.336 70.189 188.287 70.018 188.194 69.868C188.071 69.704 187.887 69.592 187.68 69.557H187.488C187.504 69.322 187.444 69.088 187.317 68.887C187.274 68.816 187.216 68.755 187.146 68.708C187.076 68.661 186.997 68.629 186.913 68.614H186.823L187.831 61.442C187.888 61.416 187.938 61.377 187.978 61.33C188.018 61.284 188.047 61.229 188.063 61.17L188.658 61.258V61.122C188.704 60.839 188.643 60.549 188.487 60.305C188.398 60.168 188.257 60.07 188.093 60.033H187.932C188.066 59.629 188.29 59.257 188.588 58.945L188.971 56.136L189.516 56.224C189.617 56.24 189.722 56.234 189.821 56.207C189.92 56.181 190.012 56.133 190.091 56.068C190.255 55.932 190.359 55.741 190.383 55.534C190.388 55.492 190.388 55.449 190.383 55.407C190.611 55.334 190.798 55.176 190.905 54.97C191.012 54.763 191.029 54.523 190.953 54.304C190.877 54.085 190.713 53.904 190.499 53.801C190.284 53.698 190.036 53.682 189.808 53.755ZM181.84 56.438C182.3 56.561 182.705 56.827 182.993 57.194C183.281 57.561 183.435 58.009 183.433 58.469H183.363C183.281 58.455 183.198 58.461 183.119 58.484C183.04 58.508 182.968 58.549 182.909 58.605C182.69 58.791 182.556 59.053 182.536 59.334V59.47L183.131 59.567C183.131 59.693 183.182 59.815 183.272 59.907L182.263 67.079H182.172C182.091 67.07 182.009 67.078 181.931 67.101C181.853 67.125 181.78 67.164 181.719 67.215C181.536 67.374 181.412 67.585 181.366 67.818L179.197 67.477C179.214 67.235 179.15 66.993 179.015 66.787C178.972 66.718 178.913 66.659 178.843 66.614C178.774 66.569 178.695 66.538 178.612 66.525H178.531L179.54 59.353C179.595 59.326 179.643 59.287 179.681 59.24C179.72 59.193 179.747 59.139 179.762 59.081L180.367 59.168V59.032C180.412 58.749 180.352 58.46 180.195 58.216C180.154 58.147 180.098 58.087 180.03 58.042C179.962 57.996 179.884 57.966 179.802 57.954H179.691C179.806 57.514 180.076 57.127 180.455 56.859C180.835 56.591 181.299 56.459 181.769 56.486L181.84 56.438ZM181.063 74.591C181.062 74.653 181.075 74.715 181.102 74.772C181.128 74.829 181.166 74.88 181.214 74.922L180.206 82.103H180.115C179.762 82.055 179.419 82.375 179.308 82.852L177.139 82.512C177.139 82.016 176.917 81.598 176.564 81.54H176.473L177.482 74.368C177.538 74.339 177.587 74.301 177.626 74.254C177.666 74.207 177.696 74.153 177.714 74.096L178.309 74.193V74.047C178.38 73.522 178.138 73.075 177.775 72.968C177.885 72.566 178.136 72.212 178.485 71.966C178.833 71.72 179.259 71.597 179.691 71.617H179.762C180.186 71.738 180.558 71.986 180.825 72.325C181.092 72.664 181.239 73.077 181.245 73.503C180.881 73.503 180.538 73.862 180.468 74.377V74.513L181.063 74.591ZM179.046 89.635C179.051 89.76 179.105 89.878 179.197 89.965L178.188 97.137H178.067C177.694 97.079 177.341 97.449 177.25 97.954L175.092 97.614C175.142 97.099 174.89 96.642 174.517 96.584H174.426L175.435 89.411C175.49 89.383 175.539 89.345 175.579 89.298C175.619 89.251 175.648 89.197 175.666 89.139L176.262 89.227V89.091C176.309 88.808 176.248 88.518 176.09 88.274C176.051 88.207 175.998 88.149 175.933 88.104C175.869 88.059 175.795 88.027 175.717 88.012C175.833 87.61 176.086 87.258 176.436 87.013C176.786 86.768 177.211 86.644 177.643 86.661H177.714C178.146 86.787 178.524 87.045 178.791 87.395C179.059 87.746 179.201 88.17 179.197 88.605C179.124 88.6 179.05 88.609 178.98 88.632C178.911 88.656 178.847 88.693 178.793 88.741C178.58 88.931 178.447 89.191 178.42 89.47V89.606L179.046 89.635ZM177.028 104.757C177.034 104.881 177.088 104.999 177.18 105.087L176.171 112.259H176.05C175.968 112.246 175.885 112.252 175.806 112.276C175.727 112.299 175.656 112.34 175.596 112.395C175.413 112.558 175.289 112.772 175.243 113.007L173.074 112.667C173.074 112.181 172.852 111.754 172.499 111.695H172.408L173.417 104.523C173.474 104.494 173.523 104.454 173.563 104.405C173.603 104.357 173.632 104.301 173.649 104.242L174.244 104.339V104.203C174.289 103.921 174.232 103.633 174.083 103.386C173.999 103.255 173.865 103.16 173.71 103.124C173.82 102.721 174.071 102.367 174.42 102.121C174.768 101.876 175.194 101.753 175.626 101.773H175.697C176.125 101.886 176.502 102.133 176.77 102.473C177.038 102.814 177.182 103.231 177.18 103.658C177.033 103.658 176.89 103.706 176.776 103.795C176.564 103.99 176.432 104.252 176.403 104.533V104.669L177.028 104.757ZM175.011 119.8C175.015 119.928 175.069 120.05 175.162 120.141L174.153 127.313H174.063C173.983 127.302 173.902 127.309 173.825 127.333C173.748 127.356 173.678 127.396 173.619 127.449C173.438 127.605 173.314 127.812 173.266 128.041L171.087 127.701C171.128 127.5 171.093 127.291 170.987 127.112C170.882 126.934 170.713 126.798 170.512 126.73H170.421L171.43 119.557C171.487 119.531 171.536 119.492 171.576 119.445C171.616 119.399 171.646 119.344 171.662 119.285L172.257 119.373V119.237C172.302 118.954 172.242 118.664 172.086 118.42C172.047 118.355 171.995 118.298 171.933 118.253C171.87 118.207 171.799 118.175 171.723 118.158C171.835 117.756 172.086 117.403 172.434 117.158C172.783 116.912 173.208 116.789 173.639 116.807H173.71C174.143 116.932 174.521 117.189 174.789 117.54C175.056 117.89 175.198 118.316 175.192 118.751C175.119 118.746 175.045 118.755 174.976 118.778C174.907 118.802 174.843 118.839 174.789 118.887C174.577 119.078 174.445 119.337 174.416 119.616V119.752L175.011 119.8ZM166.649 117.556C166.571 117.437 166.454 117.348 166.316 117.303C166.507 116.87 166.84 116.509 167.265 116.277C167.69 116.045 168.183 115.955 168.666 116.02H168.747C169.234 116.114 169.68 116.351 170.021 116.699C170.363 117.048 170.584 117.489 170.653 117.964C170.29 117.964 169.957 118.333 169.887 118.838V118.974L170.482 119.072C170.483 119.195 170.533 119.314 170.623 119.402L169.614 126.574H169.534C169.181 126.516 168.838 126.836 168.727 127.303L165.64 126.817C165.656 126.577 165.592 126.339 165.459 126.137C165.416 126.069 165.359 126.01 165.291 125.965C165.223 125.92 165.146 125.889 165.065 125.874H164.974L165.983 118.702C166.038 118.675 166.086 118.636 166.125 118.589C166.163 118.542 166.19 118.488 166.205 118.43L166.81 118.518V118.382C166.834 118.084 166.74 117.789 166.548 117.556H166.649ZM168.666 102.502C168.588 102.386 168.47 102.3 168.333 102.259C168.522 101.824 168.855 101.461 169.28 101.228C169.705 100.994 170.199 100.902 170.684 100.966H170.764C171.252 101.059 171.699 101.296 172.04 101.644C172.382 101.993 172.602 102.435 172.671 102.91C172.308 102.91 171.975 103.279 171.904 103.785V103.931L172.509 104.018C172.51 104.145 172.56 104.266 172.651 104.358L171.642 111.53H171.561C171.481 111.518 171.398 111.523 171.319 111.545C171.241 111.566 171.169 111.605 171.107 111.657C170.921 111.818 170.794 112.033 170.744 112.269L167.718 111.793C167.735 111.547 167.672 111.302 167.537 111.093C167.494 111.023 167.438 110.963 167.37 110.917C167.302 110.87 167.225 110.837 167.143 110.821H166.972L167.98 103.649C168.089 103.586 168.169 103.485 168.202 103.367L168.807 103.464V103.328C168.83 103.053 168.756 102.779 168.596 102.551L168.666 102.502ZM170.684 87.39C170.609 87.269 170.49 87.179 170.351 87.137C170.539 86.704 170.871 86.343 171.294 86.109C171.716 85.876 172.208 85.783 172.691 85.845H172.782C173.269 85.939 173.714 86.176 174.056 86.524C174.397 86.873 174.618 87.314 174.688 87.789C174.325 87.789 173.992 88.148 173.921 88.663V88.799L174.527 88.896C174.525 88.958 174.537 89.019 174.562 89.076C174.586 89.133 174.622 89.184 174.668 89.227L173.659 96.399H173.568C173.489 96.387 173.409 96.393 173.332 96.414C173.255 96.436 173.184 96.474 173.125 96.525C172.919 96.705 172.787 96.95 172.751 97.215L169.725 96.729C169.725 96.214 169.534 95.758 169.161 95.689H168.989L169.998 88.517C170.053 88.487 170.101 88.447 170.139 88.399C170.177 88.35 170.204 88.295 170.22 88.236L170.825 88.333V88.197C170.874 87.917 170.813 87.629 170.653 87.39H170.684ZM172.701 72.346C172.626 72.226 172.507 72.136 172.368 72.094C172.557 71.66 172.888 71.299 173.311 71.065C173.734 70.832 174.225 70.739 174.708 70.801H174.799C175.287 70.895 175.732 71.132 176.073 71.481C176.415 71.829 176.636 72.27 176.705 72.745C176.564 72.74 176.427 72.789 176.322 72.881C176.102 73.071 175.965 73.335 175.939 73.619V73.755L176.544 73.843C176.542 73.906 176.553 73.969 176.578 74.027C176.602 74.086 176.639 74.139 176.685 74.183L175.677 81.355H175.586C175.506 81.343 175.424 81.348 175.347 81.372C175.27 81.396 175.2 81.436 175.142 81.491C174.956 81.647 174.831 81.86 174.789 82.094L171.702 81.608C171.702 81.122 171.48 80.704 171.127 80.636H171.037L172.045 73.464C172.151 73.402 172.23 73.306 172.267 73.192L172.862 73.279V73.143C172.908 72.868 172.85 72.585 172.701 72.346ZM174.345 57.04H174.285C174.482 56.575 174.834 56.186 175.284 55.933C175.734 55.68 176.259 55.577 176.776 55.641H176.857C177.381 55.742 177.859 56 178.221 56.379C178.583 56.758 178.812 57.238 178.874 57.75H178.814C178.43 57.681 178.057 58.07 177.987 58.614V58.75L178.582 58.848C178.582 58.91 178.596 58.971 178.622 59.028C178.648 59.085 178.686 59.136 178.733 59.178L177.724 66.35H177.633C177.28 66.292 176.948 66.613 176.826 67.079L173.74 66.593C173.754 66.355 173.694 66.118 173.568 65.913C173.524 65.845 173.465 65.786 173.395 65.741C173.326 65.696 173.247 65.665 173.165 65.65H173.074L174.083 58.478C174.139 58.451 174.189 58.413 174.229 58.366C174.269 58.319 174.298 58.265 174.315 58.206L174.91 58.303V58.158C174.981 57.584 174.739 57.108 174.345 57.04ZM173.821 42.171C173.856 41.709 173.987 41.258 174.207 40.845C174.427 40.433 174.732 40.067 175.102 39.77C175.472 39.474 175.9 39.252 176.361 39.119C176.822 38.985 177.306 38.942 177.785 38.993C178.254 39.072 178.7 39.244 179.096 39.498C179.492 39.752 179.829 40.084 180.085 40.47C180.648 41.293 180.881 42.284 180.74 43.26L179.53 52.142L172.61 51.054L173.821 42.171ZM168.545 57.584C168.599 57.555 168.647 57.516 168.685 57.47C168.723 57.423 168.751 57.369 168.767 57.312L169.362 57.409V57.264C169.443 56.729 169.191 56.292 168.807 56.175C169.003 55.707 169.355 55.314 169.808 55.061C170.262 54.807 170.79 54.707 171.309 54.776H171.39C171.913 54.878 172.39 55.137 172.752 55.516C173.114 55.894 173.344 56.373 173.407 56.885C173.024 56.826 172.651 57.215 172.57 57.759V57.895L173.175 57.992C173.178 58.116 173.228 58.233 173.316 58.323L172.308 65.495H172.227C172.145 65.482 172.062 65.487 171.983 65.511C171.904 65.534 171.832 65.575 171.773 65.631C171.589 65.784 171.464 65.993 171.42 66.224L168.273 65.728C168.279 65.49 168.216 65.254 168.091 65.048C168.048 64.979 167.989 64.92 167.919 64.874C167.85 64.829 167.771 64.799 167.688 64.785H167.607L168.545 57.584ZM166.528 72.618C166.583 72.588 166.631 72.548 166.669 72.5C166.707 72.451 166.735 72.396 166.75 72.337L167.355 72.434V72.298C167.41 72.013 167.352 71.718 167.194 71.472C167.122 71.371 167.025 71.291 166.911 71.238C167.098 70.804 167.429 70.442 167.853 70.208C168.276 69.974 168.768 69.882 169.251 69.946H169.332C169.819 70.04 170.265 70.277 170.606 70.625C170.948 70.974 171.169 71.415 171.238 71.89C170.885 71.89 170.563 72.269 170.492 72.764V72.91L171.087 72.997C171.087 73.124 171.138 73.246 171.228 73.338L170.22 80.51H170.129C169.766 80.442 169.433 80.772 169.322 81.248L166.175 80.753C166.175 80.267 165.953 79.849 165.6 79.781H165.509L166.528 72.618ZM164.511 87.662C164.567 87.633 164.617 87.593 164.656 87.544C164.696 87.496 164.726 87.44 164.742 87.38L165.338 87.478V87.341C165.388 87.141 165.372 86.931 165.29 86.741C165.208 86.55 165.066 86.39 164.884 86.282C165.071 85.848 165.402 85.486 165.825 85.252C166.249 85.018 166.74 84.926 167.224 84.99H167.304C167.792 85.084 168.237 85.321 168.579 85.669C168.92 86.017 169.141 86.459 169.211 86.933C168.858 86.933 168.535 87.303 168.464 87.798V87.973L169.06 88.07C169.062 88.194 169.113 88.311 169.201 88.401L168.192 95.573H168.101C167.728 95.515 167.365 95.874 167.274 96.389L164.137 95.894C164.198 95.369 163.946 94.922 163.572 94.854H163.482L164.511 87.662ZM162.493 102.784C162.605 102.722 162.688 102.621 162.725 102.502L163.32 102.599V102.453C163.369 102.255 163.351 102.046 163.269 101.858C163.188 101.67 163.047 101.511 162.866 101.404C163.052 100.969 163.383 100.605 163.806 100.371C164.23 100.137 164.723 100.046 165.206 100.111H165.297C165.784 100.206 166.227 100.443 166.567 100.792C166.907 101.14 167.126 101.581 167.194 102.055C166.851 102.055 166.518 102.434 166.457 102.93V103.066L167.052 103.163C167.052 103.226 167.065 103.289 167.091 103.348C167.117 103.406 167.156 103.459 167.204 103.503L166.195 110.675H166.104C165.751 110.626 165.408 110.947 165.297 111.423L162.15 110.928C162.15 110.432 161.938 110.024 161.575 109.956H161.484L162.493 102.784ZM160.476 117.828C160.531 117.799 160.58 117.761 160.62 117.714C160.66 117.667 160.69 117.613 160.708 117.556L161.303 117.643V117.507C161.353 117.307 161.337 117.096 161.255 116.906C161.174 116.716 161.031 116.555 160.849 116.448C161.036 116.013 161.367 115.651 161.79 115.417C162.214 115.183 162.706 115.091 163.189 115.155H163.28C163.767 115.247 164.213 115.484 164.553 115.832C164.893 116.181 165.111 116.624 165.176 117.099C164.833 117.099 164.51 117.468 164.44 117.973V118.109L165.035 118.207C165.036 118.269 165.049 118.33 165.075 118.387C165.101 118.444 165.139 118.495 165.186 118.537L164.178 125.709H163.946C163.593 125.651 163.25 125.972 163.149 126.438L159.992 125.942C160.008 125.703 159.945 125.464 159.81 125.262C159.767 125.194 159.71 125.136 159.642 125.09C159.575 125.045 159.498 125.014 159.417 125H159.326L160.476 117.828ZM162.069 140.753C161.716 140.753 161.373 141.025 161.262 141.501L158.115 141.006C158.131 140.764 158.071 140.524 157.944 140.316C157.9 140.246 157.841 140.186 157.772 140.139C157.702 140.092 157.624 140.06 157.54 140.044H157.46L158.468 132.871C158.525 132.842 158.575 132.802 158.614 132.754C158.654 132.705 158.684 132.649 158.7 132.59L159.296 132.687V132.551C159.346 132.351 159.33 132.14 159.248 131.95C159.166 131.759 159.024 131.599 158.842 131.492C159.031 131.057 159.364 130.694 159.789 130.46C160.214 130.226 160.707 130.135 161.192 130.199H161.273C161.759 130.295 162.203 130.534 162.544 130.881C162.885 131.229 163.106 131.669 163.179 132.143C163.045 132.145 162.916 132.193 162.816 132.279C162.596 132.465 162.458 132.726 162.433 133.008V133.153L163.038 133.241C163.038 133.367 163.089 133.489 163.179 133.581L162.17 140.753H162.069ZM167.537 141.618C167.184 141.56 166.841 141.89 166.73 142.356L163.643 141.871C163.643 141.385 163.421 140.967 163.068 140.899H162.977L163.986 133.727C164.042 133.697 164.092 133.657 164.132 133.609C164.172 133.56 164.201 133.504 164.218 133.445L164.813 133.542V133.406C164.862 133.199 164.838 132.983 164.747 132.79C164.656 132.597 164.502 132.438 164.309 132.337C164.5 131.904 164.834 131.543 165.258 131.31C165.683 131.077 166.174 130.983 166.659 131.044H166.74C167.228 131.137 167.674 131.374 168.016 131.722C168.357 132.071 168.578 132.513 168.646 132.988C168.283 132.988 167.96 133.348 167.89 133.863V133.999L168.485 134.086C168.484 134.15 168.498 134.213 168.524 134.271C168.55 134.33 168.588 134.383 168.636 134.426L167.627 141.598L167.537 141.618ZM172.086 142.327C171.722 142.269 171.38 142.599 171.279 143.076L169.1 142.726C169.143 142.524 169.109 142.314 169.003 142.135C168.897 141.956 168.727 141.821 168.525 141.754H168.444L169.453 134.582C169.509 134.553 169.559 134.512 169.599 134.464C169.639 134.415 169.668 134.36 169.685 134.3L170.28 134.397V134.261C170.351 133.736 170.119 133.289 169.746 133.182C169.858 132.779 170.111 132.425 170.461 132.179C170.812 131.933 171.239 131.811 171.672 131.832H171.733C172.161 131.945 172.538 132.191 172.806 132.532C173.074 132.873 173.218 133.289 173.215 133.717C172.852 133.717 172.509 134.077 172.439 134.592V134.728L173.044 134.825C173.045 134.948 173.095 135.067 173.185 135.155L172.176 142.337L172.086 142.327ZM176.806 135.427C176.81 135.555 176.864 135.677 176.958 135.768L175.949 142.94H175.858C175.779 142.927 175.698 142.932 175.621 142.954C175.544 142.976 175.474 143.014 175.414 143.066C175.225 143.225 175.097 143.44 175.051 143.678L173.619 143.455C173.619 142.969 173.397 142.551 173.044 142.483H172.963L173.972 135.301C174.028 135.274 174.078 135.236 174.118 135.189C174.158 135.142 174.188 135.088 174.204 135.029L174.799 135.116V134.98C174.87 134.456 174.628 134.009 174.264 133.902C174.587 132.988 175.273 132.405 175.848 132.502C176.473 132.599 176.917 133.348 176.988 134.329C176.615 134.281 176.241 134.66 176.171 135.194V135.34L176.806 135.427ZM178.824 120.393C178.823 120.457 178.837 120.52 178.863 120.578C178.889 120.637 178.927 120.69 178.975 120.733L177.966 127.905H177.876C177.523 127.847 177.18 128.168 177.069 128.634L175.636 128.411C175.655 128.171 175.591 127.932 175.455 127.73C175.414 127.66 175.357 127.6 175.289 127.553C175.221 127.506 175.143 127.473 175.061 127.458H174.971L175.979 120.286C176.036 120.257 176.085 120.217 176.125 120.168C176.165 120.12 176.194 120.064 176.211 120.005L176.806 120.102V119.966C176.877 119.431 176.645 118.994 176.272 118.887C176.594 117.973 177.23 117.39 177.845 117.478H177.906C178.531 117.575 178.975 118.323 179.046 119.305C178.966 119.296 178.885 119.304 178.809 119.328C178.732 119.351 178.662 119.39 178.602 119.441C178.392 119.634 178.26 119.892 178.229 120.17V120.316L178.824 120.393ZM180.841 105.349C180.843 105.476 180.894 105.597 180.982 105.69L179.974 112.862H179.883C179.53 112.813 179.187 113.134 179.076 113.61L177.643 113.386C177.659 113.141 177.596 112.896 177.462 112.687C177.418 112.62 177.36 112.562 177.293 112.517C177.225 112.472 177.149 112.44 177.069 112.424H176.978L177.987 105.252C178.043 105.225 178.093 105.187 178.133 105.14C178.173 105.093 178.202 105.039 178.218 104.98L178.814 105.068V104.932C178.861 104.648 178.8 104.358 178.642 104.115C178.603 104.048 178.55 103.99 178.485 103.945C178.421 103.899 178.347 103.868 178.269 103.853C178.602 102.939 179.227 102.356 179.863 102.453C180.478 102.551 180.932 103.309 181.002 104.28C180.923 104.271 180.842 104.278 180.765 104.301C180.688 104.325 180.618 104.364 180.559 104.416C180.449 104.508 180.36 104.62 180.296 104.745C180.232 104.87 180.194 105.006 180.185 105.145V105.281L180.841 105.349ZM182.858 90.228C182.859 90.354 182.909 90.476 183 90.568L181.991 97.74H181.9C181.527 97.74 181.174 98.051 181.073 98.566L179.651 98.343C179.688 98.075 179.628 97.804 179.479 97.575C179.437 97.505 179.38 97.445 179.313 97.398C179.245 97.352 179.168 97.319 179.086 97.303H178.995L180.004 90.121C180.059 90.094 180.107 90.055 180.145 90.008C180.184 89.961 180.211 89.907 180.226 89.849L180.821 89.946V89.8C180.867 89.52 180.806 89.233 180.649 88.994C180.609 88.927 180.555 88.868 180.491 88.821C180.427 88.775 180.354 88.741 180.276 88.722C180.609 87.808 181.285 87.225 181.86 87.322H181.92C182.536 87.419 182.989 88.177 183.06 89.149C182.98 89.141 182.9 89.148 182.823 89.172C182.747 89.195 182.676 89.234 182.616 89.285C182.402 89.476 182.265 89.734 182.233 90.014V90.16L182.858 90.228ZM184.876 75.184C184.876 75.311 184.927 75.432 185.017 75.524L184.008 82.696H183.928C183.575 82.696 183.232 82.968 183.121 83.445L181.688 83.221C181.705 82.978 181.642 82.737 181.507 82.531C181.465 82.462 181.408 82.402 181.34 82.355C181.272 82.308 181.195 82.275 181.113 82.259H181.093L182.102 75.087C182.211 75.025 182.291 74.923 182.324 74.805L182.929 74.902V74.766C182.976 74.48 182.915 74.187 182.758 73.94C182.673 73.809 182.539 73.715 182.384 73.678C182.717 72.764 183.393 72.181 183.968 72.278C184.583 72.375 185.037 73.133 185.118 74.105C184.735 74.047 184.371 74.426 184.291 74.97V75.116L184.876 75.184ZM187.165 59.052C186.782 58.993 186.419 59.372 186.338 59.926V60.062L186.944 60.15C186.942 60.213 186.953 60.276 186.977 60.334C187.002 60.393 187.038 60.446 187.085 60.49L186.076 67.662H185.985C185.905 67.65 185.824 67.655 185.747 67.679C185.669 67.703 185.599 67.743 185.542 67.798C185.357 67.951 185.233 68.16 185.189 68.391L183.746 68.167C183.786 67.967 183.751 67.76 183.648 67.582C183.544 67.404 183.379 67.268 183.181 67.196H183.111L184.119 60.024C184.176 59.994 184.225 59.954 184.265 59.906C184.305 59.857 184.334 59.801 184.351 59.742L184.946 59.839V59.703C185.027 59.149 184.775 58.673 184.392 58.614H184.281C184.624 57.643 185.289 56.991 186.016 57.098H186.066C186.762 57.205 187.256 58.07 187.327 59.042L187.165 59.052Z" fill="#35B799"/>
<path d="M174.782 149.913L174.67 150.789L173.657 150.622L173.779 149.745C173.958 148.844 173.775 147.911 173.268 147.136C172.762 146.362 171.969 145.805 171.054 145.58C170.596 145.544 170.136 145.597 169.7 145.737C169.264 145.877 168.861 146.1 168.515 146.394C168.17 146.688 167.888 147.046 167.687 147.448C167.487 147.849 167.371 148.285 167.346 148.731L167.225 149.608L166.101 149.43L166.222 148.554C166.349 147.581 166.087 146.598 165.489 145.808C164.892 145.018 164.004 144.481 163.011 144.31C162.527 144.232 162.032 144.25 161.556 144.363C161.08 144.477 160.632 144.683 160.24 144.969C159.848 145.255 159.52 145.616 159.276 146.029C159.031 146.442 158.875 146.899 158.817 147.372L158.696 148.259L157.592 148.081L157.713 147.205C157.837 146.262 157.595 145.308 157.032 144.53C156.47 143.752 155.629 143.206 154.674 143L152 162.97H155.373L157.116 150.996H157.207L158.321 151.183H158.422L156.953 163H164.156L165.695 152.385H165.786L166.901 152.562H167.002L165.705 162.97H171.783L173.151 153.527H173.242L174.366 153.704H174.457L173.303 162.941H174.822C174.822 162.744 176.494 150.582 177 146.821C176.384 147.103 175.855 147.536 175.466 148.079C175.077 148.622 174.841 149.254 174.782 149.913Z" fill="#35B799"/>
<path d="M152.176 23C152.085 23.163 152.025 23.341 151.999 23.525C151.935 23.886 152.015 24.258 152.222 24.562C152.428 24.867 152.746 25.08 153.107 25.157L153.686 25.254L153.205 28.889L152.784 28.821C152.352 28.753 151.941 29.2 151.803 29.792V29.929L152.333 30.016C152.329 30.195 152.388 30.37 152.499 30.512L150.411 46.273C150.029 46.273 149.656 46.604 149.539 47.138L143.95 46.244C143.849 46.232 143.746 46.241 143.648 46.269C143.55 46.298 143.458 46.345 143.379 46.41C143.301 46.475 143.236 46.554 143.189 46.644C143.142 46.734 143.114 46.833 143.107 46.934C143.076 47.148 143.125 47.366 143.244 47.546C143.3 47.63 143.372 47.701 143.456 47.757C143.54 47.812 143.635 47.849 143.735 47.867L144.137 47.935L143.774 50.695C143.983 51.096 144.104 51.536 144.127 51.987C143.744 51.929 143.391 52.318 143.313 52.862V52.988L143.901 53.085C143.901 53.212 143.951 53.333 144.038 53.425L143.058 60.597H142.97C142.891 60.588 142.811 60.596 142.735 60.619C142.659 60.643 142.589 60.681 142.529 60.733C142.351 60.891 142.231 61.103 142.185 61.335H141.999C141.897 61.323 141.794 61.332 141.695 61.36C141.596 61.389 141.504 61.436 141.425 61.501C141.345 61.565 141.28 61.645 141.232 61.735C141.184 61.825 141.155 61.924 141.146 62.025C141.125 62.24 141.177 62.455 141.293 62.638C141.348 62.722 141.42 62.794 141.504 62.849C141.589 62.904 141.684 62.942 141.784 62.958H142.048L141.676 65.767V65.815C141.878 66.19 141.991 66.605 142.009 67.03C141.942 67.027 141.876 67.038 141.814 67.062C141.752 67.085 141.695 67.12 141.646 67.166C141.435 67.353 141.305 67.614 141.284 67.895V68.031L141.862 68.128C141.863 68.251 141.912 68.37 141.999 68.458L141.019 75.639H140.931C140.852 75.631 140.772 75.639 140.696 75.662C140.62 75.685 140.55 75.724 140.489 75.775C140.312 75.938 140.191 76.152 140.146 76.388H139.96C139.858 76.376 139.756 76.384 139.657 76.413C139.559 76.441 139.468 76.489 139.389 76.554C139.31 76.618 139.246 76.698 139.199 76.788C139.152 76.878 139.124 76.977 139.117 77.078C139.07 77.289 139.11 77.51 139.228 77.692C139.345 77.874 139.531 78.003 139.744 78.049H140.019L139.646 80.848V80.897C139.847 81.269 139.96 81.68 139.98 82.102C139.845 82.105 139.716 82.157 139.617 82.247C139.408 82.437 139.278 82.697 139.254 82.976V83.112L139.833 83.209C139.835 83.336 139.884 83.457 139.97 83.549L138.989 90.721H138.901C138.822 90.713 138.742 90.722 138.667 90.745C138.591 90.768 138.521 90.806 138.46 90.857C138.267 91.037 138.143 91.277 138.107 91.537H137.921C137.823 91.524 137.724 91.531 137.63 91.557C137.535 91.584 137.447 91.63 137.372 91.693C137.207 91.83 137.102 92.025 137.078 92.237C137.049 92.451 137.098 92.667 137.215 92.849C137.271 92.932 137.343 93.004 137.427 93.059C137.511 93.114 137.606 93.151 137.705 93.17H137.97L137.597 95.978C137.798 96.35 137.911 96.762 137.93 97.183C137.587 97.183 137.274 97.552 137.205 98.058V98.194L137.783 98.291C137.789 98.415 137.841 98.533 137.93 98.621L136.95 105.793H136.862C136.519 105.734 136.185 106.065 136.077 106.541H135.891C135.79 106.529 135.687 106.537 135.589 106.566C135.491 106.594 135.399 106.642 135.32 106.707C135.242 106.771 135.177 106.851 135.13 106.941C135.083 107.031 135.055 107.13 135.048 107.231C135.001 107.442 135.041 107.663 135.159 107.845C135.277 108.028 135.462 108.156 135.676 108.203L135.94 108.251L135.577 111.05C135.775 111.423 135.889 111.834 135.911 112.255C135.568 112.255 135.254 112.634 135.185 113.129V113.275L135.764 113.363C135.768 113.49 135.82 113.612 135.911 113.703L134.93 120.874H134.842C134.764 120.862 134.684 120.868 134.608 120.889C134.532 120.911 134.461 120.949 134.401 121.001C134.227 121.16 134.11 121.372 134.068 121.603H133.872C133.77 121.594 133.667 121.604 133.57 121.635C133.472 121.665 133.381 121.714 133.303 121.779C133.225 121.844 133.16 121.924 133.113 122.014C133.066 122.103 133.037 122.202 133.028 122.303C132.982 122.514 133.022 122.735 133.139 122.917C133.257 123.099 133.443 123.228 133.656 123.274H133.93L133.558 126.073V126.122C133.758 126.494 133.872 126.905 133.891 127.327C133.548 127.327 133.234 127.706 133.166 128.201V128.337L133.754 128.434C133.752 128.496 133.763 128.557 133.787 128.614C133.811 128.671 133.846 128.722 133.891 128.765L132.911 135.936H132.823C132.479 135.888 132.146 136.208 132.038 136.685H131.852C131.75 136.672 131.647 136.681 131.549 136.709C131.451 136.738 131.36 136.786 131.281 136.85C131.202 136.915 131.137 136.995 131.091 137.085C131.044 137.175 131.016 137.273 131.009 137.374C130.978 137.588 131.027 137.806 131.146 137.987C131.202 138.07 131.275 138.14 131.359 138.196C131.443 138.251 131.537 138.289 131.636 138.307L154.5 142L154.715 140.367L152.99 140.086C152.99 139.6 152.774 139.182 152.431 139.114H152.343L153.323 131.942C153.378 131.913 153.426 131.873 153.465 131.824C153.504 131.776 153.532 131.72 153.549 131.661L154.127 131.758V131.622C154.174 131.42 154.155 131.208 154.072 131.017C153.989 130.826 153.847 130.667 153.666 130.563C153.848 130.128 154.17 129.766 154.581 129.532C154.993 129.298 155.471 129.206 155.941 129.27H156.029C156.078 129.262 156.127 129.262 156.176 129.27L156.696 125.257L154.99 124.975C155.005 124.735 154.943 124.497 154.813 124.295C154.772 124.227 154.716 124.168 154.65 124.123C154.584 124.078 154.51 124.047 154.431 124.032H154.5L155.48 116.861C155.586 116.799 155.664 116.698 155.696 116.579L156.284 116.676V116.531C156.331 116.328 156.312 116.116 156.229 115.926C156.146 115.735 156.004 115.576 155.823 115.471C156.005 115.038 156.327 114.677 156.739 114.445C157.151 114.212 157.629 114.122 158.098 114.189H158.186C158.228 114.186 158.271 114.186 158.313 114.189L158.843 110.185L157.137 109.913C157.161 109.668 157.103 109.422 156.97 109.213C156.928 109.144 156.871 109.085 156.803 109.04C156.735 108.994 156.659 108.964 156.578 108.951H156.5L157.48 101.779C157.536 101.752 157.585 101.712 157.624 101.663C157.663 101.615 157.691 101.558 157.706 101.498L158.294 101.595V101.43C158.347 101.148 158.291 100.856 158.137 100.613C158.069 100.502 157.966 100.416 157.843 100.37C158.023 99.935 158.345 99.572 158.757 99.338C159.169 99.104 159.647 99.012 160.117 99.078H160.196C160.235 99.073 160.274 99.073 160.313 99.078L160.843 95.065L159.166 94.793C159.2 94.525 159.142 94.255 159 94.025C158.958 93.957 158.903 93.898 158.837 93.853C158.771 93.808 158.696 93.777 158.617 93.763H158.519L159.5 86.591C159.554 86.563 159.601 86.524 159.64 86.477C159.679 86.431 159.708 86.377 159.725 86.319L160.304 86.406V86.27C160.351 86.068 160.332 85.856 160.249 85.666C160.166 85.475 160.024 85.316 159.843 85.211C160.029 84.778 160.353 84.418 160.766 84.184C161.178 83.951 161.656 83.858 162.127 83.919H162.215H162.313L162.833 79.915L161.166 79.653C161.166 79.157 160.96 78.749 160.608 78.681H160.529L161.51 71.51C161.615 71.45 161.692 71.353 161.725 71.237L162.304 71.325V71.189C162.351 70.987 162.332 70.775 162.249 70.584C162.166 70.394 162.024 70.234 161.843 70.13C162.027 69.695 162.35 69.332 162.763 69.098C163.176 68.865 163.656 68.773 164.127 68.837H164.206H164.294L164.823 64.843L163.166 64.571C163.207 64.37 163.172 64.161 163.07 63.982C162.967 63.804 162.803 63.668 162.608 63.6H162.519L163.5 56.418C163.555 56.391 163.603 56.353 163.642 56.306C163.681 56.259 163.709 56.205 163.725 56.146L164.304 56.243V56.098C164.372 55.563 164.127 55.126 163.755 55.019C163.944 54.55 164.287 54.158 164.728 53.905C165.168 53.651 165.681 53.551 166.186 53.62H166.265H166.333L170 25.672L152.176 23ZM153.078 53.455C153.267 52.988 153.608 52.597 154.047 52.343C154.485 52.09 154.996 51.989 155.5 52.055H155.578C156.086 52.159 156.549 52.419 156.901 52.797C157.253 53.175 157.476 53.653 157.539 54.164C157.156 54.096 156.804 54.485 156.725 55.029V55.165L157.304 55.262C157.304 55.386 157.354 55.504 157.441 55.592L156.46 62.764H156.382C156.303 62.753 156.222 62.76 156.146 62.784C156.07 62.807 156 62.847 155.941 62.9C155.765 63.056 155.645 63.264 155.598 63.493L152.568 63.007C152.568 62.531 152.352 62.113 152.009 62.035H151.921L152.901 54.864C152.956 54.834 153.005 54.794 153.043 54.746C153.082 54.697 153.111 54.641 153.127 54.582L153.705 54.679V54.543C153.696 53.999 153.451 53.513 153.078 53.455ZM155.215 70.295C155.221 70.419 155.273 70.537 155.362 70.625L154.382 77.797H154.294C153.951 77.738 153.617 78.069 153.509 78.535L150.48 78.049C150.495 77.808 150.437 77.568 150.313 77.359C150.27 77.29 150.213 77.23 150.146 77.183C150.078 77.136 150.002 77.104 149.921 77.087H149.833L150.813 69.916C150.868 69.886 150.916 69.846 150.955 69.798C150.994 69.749 151.022 69.694 151.039 69.634L151.617 69.731V69.595C151.666 69.391 151.646 69.176 151.562 68.983C151.477 68.79 151.331 68.63 151.146 68.526C151.332 68.092 151.655 67.731 152.068 67.497C152.481 67.264 152.96 67.171 153.431 67.234H153.509C153.983 67.328 154.416 67.565 154.748 67.913C155.08 68.261 155.295 68.703 155.362 69.177C155.009 69.177 154.696 69.537 154.637 70.052V70.188L155.215 70.295ZM153.254 85.328C153.258 85.455 153.311 85.577 153.401 85.668L152.421 92.839H152.333C151.97 92.781 151.627 93.141 151.539 93.656L148.519 93.17C148.519 92.645 148.323 92.198 147.96 92.13H147.872L148.852 84.959C148.961 84.897 149.042 84.796 149.078 84.677L149.656 84.774V84.638C149.7 84.353 149.645 84.062 149.499 83.812C149.422 83.702 149.312 83.617 149.186 83.569C149.372 83.136 149.696 82.775 150.109 82.542C150.521 82.309 150.999 82.215 151.47 82.276H151.548C152.022 82.37 152.455 82.608 152.787 82.956C153.119 83.304 153.334 83.746 153.401 84.22C153.049 84.22 152.745 84.589 152.676 85.095V85.231L153.254 85.328ZM151.294 100.448C151.293 100.512 151.306 100.575 151.332 100.633C151.357 100.692 151.394 100.745 151.441 100.788L150.46 107.96H150.372C150.029 107.901 149.695 108.232 149.588 108.698L146.568 108.212C146.586 107.97 146.524 107.728 146.391 107.522C146.349 107.453 146.292 107.393 146.224 107.346C146.157 107.299 146.08 107.266 145.999 107.25H145.921L146.901 100.069C146.956 100.042 147.005 100.004 147.044 99.957C147.082 99.91 147.111 99.856 147.127 99.797L147.705 99.894V99.749C147.752 99.545 147.731 99.333 147.646 99.142C147.562 98.951 147.417 98.792 147.235 98.689C147.42 98.255 147.744 97.894 148.156 97.66C148.569 97.427 149.048 97.334 149.519 97.397H149.597C150.072 97.489 150.506 97.726 150.838 98.075C151.17 98.423 151.384 98.866 151.45 99.34C151.098 99.34 150.794 99.7 150.725 100.215V100.351L151.294 100.448ZM149.333 115.5C149.336 115.625 149.389 115.744 149.48 115.831L148.499 123.002H148.411C148.078 122.944 147.744 123.265 147.637 123.731L144.607 123.245C144.607 122.759 144.382 122.351 144.038 122.274H143.96L144.94 115.102C144.995 115.073 145.044 115.033 145.082 114.984C145.121 114.936 145.15 114.88 145.166 114.82L145.744 114.917V114.781C145.793 114.499 145.738 114.21 145.588 113.965C145.513 113.849 145.403 113.761 145.274 113.712C145.459 113.279 145.783 112.919 146.196 112.687C146.609 112.455 147.088 112.365 147.558 112.43H147.637C148.111 112.524 148.543 112.761 148.875 113.109C149.207 113.457 149.422 113.899 149.49 114.373C149.137 114.373 148.833 114.743 148.764 115.248V115.384L149.333 115.5ZM141.264 113.265C141.221 113.196 141.164 113.136 141.096 113.089C141.029 113.042 140.952 113.01 140.872 112.993C140.984 112.592 141.231 112.24 141.571 111.994C141.911 111.749 142.324 111.625 142.744 111.643H142.813C143.227 111.758 143.592 112.005 143.85 112.345C144.109 112.686 144.247 113.102 144.244 113.528C143.872 113.479 143.529 113.858 143.46 114.393V114.538L144.038 114.626C144.039 114.753 144.088 114.874 144.176 114.966L143.195 122.138H143.107C143.028 122.129 142.948 122.137 142.872 122.16C142.796 122.183 142.726 122.222 142.666 122.274C142.489 122.432 142.368 122.644 142.323 122.876L140.303 122.546C140.309 122.307 140.248 122.072 140.127 121.865C140.084 121.796 140.027 121.736 139.959 121.689C139.892 121.642 139.815 121.609 139.734 121.593H139.656L140.636 114.422C140.691 114.392 140.74 114.352 140.778 114.304C140.817 114.255 140.846 114.2 140.862 114.14L141.44 114.237V114.101C141.455 113.799 141.357 113.502 141.166 113.265H141.264ZM143.225 98.213C143.181 98.145 143.124 98.086 143.056 98.041C142.989 97.996 142.913 97.965 142.833 97.951C142.945 97.55 143.192 97.199 143.532 96.956C143.872 96.712 144.286 96.59 144.705 96.61H144.774C145.186 96.724 145.55 96.97 145.808 97.309C146.067 97.647 146.206 98.061 146.205 98.485C145.842 98.437 145.489 98.825 145.411 99.36V99.486L145.989 99.583C145.992 99.706 146.041 99.824 146.127 99.914L145.146 107.095H145.058C144.979 107.082 144.898 107.087 144.821 107.111C144.744 107.134 144.675 107.175 144.617 107.231C144.437 107.391 144.316 107.607 144.274 107.843L142.244 107.513C142.244 107.027 142.038 106.609 141.695 106.541H141.607L142.587 99.36C142.693 99.301 142.77 99.203 142.803 99.088L143.382 99.185V99.049C143.402 98.753 143.322 98.459 143.156 98.213H143.225ZM144.833 82.83C144.943 82.43 145.188 82.078 145.526 81.832C145.864 81.587 146.277 81.463 146.695 81.48H146.764C147.18 81.593 147.547 81.839 147.807 82.18C148.068 82.521 148.208 82.937 148.205 83.365C147.842 83.365 147.48 83.695 147.411 84.23V84.366L147.999 84.463C148.002 84.589 148.05 84.71 148.137 84.803L147.156 91.975H147.068C146.989 91.964 146.908 91.971 146.832 91.994C146.756 92.018 146.686 92.057 146.627 92.111C146.428 92.287 146.299 92.528 146.264 92.791L144.303 92.47C144.333 92.203 144.275 91.934 144.137 91.702C144.094 91.633 144.037 91.573 143.969 91.526C143.902 91.479 143.825 91.447 143.744 91.43H143.656L144.636 84.259C144.745 84.197 144.826 84.096 144.862 83.977L145.44 84.074V83.938C145.391 83.375 145.137 82.889 144.764 82.83H144.833ZM147.215 68.05C147.172 67.982 147.114 67.923 147.047 67.878C146.979 67.833 146.903 67.802 146.823 67.788C146.931 67.399 147.165 67.057 147.49 66.815C147.814 66.572 148.211 66.443 148.617 66.447H148.686C149.102 66.56 149.468 66.806 149.729 67.147C149.99 67.488 150.129 67.904 150.127 68.332C150.052 68.324 149.976 68.331 149.903 68.353C149.831 68.375 149.764 68.41 149.705 68.458C149.493 68.65 149.36 68.913 149.333 69.197V69.333L149.921 69.43C149.922 69.554 149.971 69.672 150.058 69.76L149.078 76.932H148.999C148.656 76.932 148.313 77.204 148.215 77.68L146.186 77.35C146.186 76.864 145.97 76.446 145.627 76.378H145.539L146.519 69.207C146.574 69.177 146.622 69.137 146.661 69.089C146.7 69.04 146.728 68.984 146.744 68.925L147.323 69.022V68.886C147.363 68.595 147.301 68.3 147.146 68.05H147.215ZM148.813 52.755H148.666C148.775 52.325 149.029 51.946 149.386 51.679C149.742 51.412 150.18 51.274 150.627 51.288H150.696C151.141 51.417 151.532 51.686 151.811 52.053C152.09 52.421 152.242 52.868 152.245 53.328H152.127C151.754 53.27 151.392 53.659 151.323 54.193V54.329L151.901 54.426C151.905 54.554 151.958 54.675 152.049 54.766L151.068 61.938H150.98C150.902 61.929 150.824 61.937 150.75 61.961C150.675 61.984 150.607 62.023 150.548 62.074C150.371 62.232 150.251 62.444 150.205 62.676L148.176 62.346C148.176 61.87 147.96 61.452 147.617 61.374H147.529L148.509 54.203C148.563 54.174 148.611 54.136 148.649 54.089C148.688 54.042 148.717 53.989 148.735 53.931L149.313 54.018V53.882C149.362 53.299 149.117 52.842 148.745 52.755H148.813ZM144.891 53.571C144.946 53.542 144.995 53.502 145.033 53.453C145.072 53.405 145.101 53.349 145.117 53.289L145.695 53.386V53.25C145.74 52.969 145.684 52.68 145.539 52.434C145.449 52.296 145.308 52.198 145.146 52.162H144.921C145.264 51.19 145.901 50.53 146.607 50.636H146.666C147.343 50.753 147.813 51.608 147.882 52.58C147.509 52.522 147.146 52.91 147.078 53.445V53.581L147.656 53.678C147.66 53.806 147.713 53.927 147.803 54.018L146.823 61.19H146.744C146.391 61.141 146.068 61.462 145.96 61.928L144.588 61.705C144.602 61.466 144.544 61.229 144.421 61.024C144.377 60.956 144.32 60.898 144.253 60.852C144.185 60.807 144.109 60.777 144.029 60.762H143.95L144.891 53.571ZM142.931 68.604C143.036 68.541 143.114 68.44 143.146 68.322L143.725 68.419V68.283C143.803 67.739 143.558 67.253 143.185 67.195H143.087C143.411 66.291 144.068 65.699 144.627 65.796H144.676C145.284 65.893 145.725 66.651 145.784 67.642C145.45 67.642 145.146 68.021 145.078 68.507V68.653L145.666 68.74C145.667 68.864 145.716 68.982 145.803 69.07L144.823 76.252H144.744C144.391 76.193 144.058 76.514 143.96 77L142.597 76.776C142.609 76.534 142.548 76.294 142.421 76.086C142.38 76.017 142.325 75.957 142.259 75.91C142.193 75.863 142.118 75.831 142.038 75.814H141.95L142.931 68.604ZM140.97 83.647C141.076 83.584 141.154 83.483 141.186 83.365L141.774 83.462V83.326C141.852 82.772 141.607 82.296 141.234 82.238H141.136C141.45 81.324 142.058 80.741 142.676 80.838C143.274 80.935 143.715 81.703 143.784 82.685C143.45 82.685 143.146 83.064 143.078 83.549V83.686L143.666 83.783C143.668 83.909 143.717 84.03 143.803 84.123L142.823 91.294H142.735C142.655 91.284 142.575 91.291 142.499 91.314C142.423 91.338 142.353 91.377 142.293 91.43C142.094 91.607 141.966 91.848 141.931 92.111L140.578 91.897C140.578 91.382 140.391 90.925 140.029 90.857H139.94L140.97 83.647ZM139.009 98.757C139.062 98.73 139.109 98.691 139.147 98.644C139.184 98.598 139.21 98.543 139.225 98.485L139.813 98.582V98.437C139.882 97.902 139.636 97.465 139.264 97.358H139.166C139.48 96.445 140.146 95.861 140.705 95.959C141.323 96.056 141.754 96.814 141.823 97.795C141.622 97.84 141.443 97.95 141.315 98.109C141.186 98.268 141.116 98.466 141.117 98.67V98.806L141.705 98.903C141.706 99.027 141.755 99.145 141.842 99.233L140.862 106.405H140.784C140.44 106.347 140.107 106.677 139.999 107.153L138.636 106.93C138.636 106.444 138.421 106.026 138.078 105.958H137.832L139.009 98.757ZM137.048 113.81C137.1 113.781 137.147 113.742 137.184 113.695C137.221 113.648 137.248 113.595 137.264 113.538L137.852 113.625V113.489C137.921 112.945 137.676 112.517 137.293 112.401H137.205C137.519 111.487 138.136 110.904 138.744 111.001C139.362 111.098 139.793 111.847 139.862 112.838C139.519 112.838 139.215 113.217 139.156 113.703V113.849L139.734 113.936C139.735 114.063 139.784 114.184 139.872 114.276L138.891 121.448H138.803C138.46 121.399 138.136 121.72 138.019 122.176L136.656 121.963C136.656 121.477 136.43 121.069 136.097 120.991H136.009L137.048 113.81ZM136.901 136.461C136.548 136.403 136.225 136.723 136.117 137.209L134.754 136.986C134.77 136.743 134.709 136.501 134.578 136.296C134.538 136.226 134.483 136.165 134.417 136.118C134.351 136.071 134.275 136.039 134.195 136.024H133.911L134.891 128.852C134.946 128.823 134.994 128.783 135.033 128.734C135.072 128.686 135.1 128.63 135.117 128.57L135.695 128.668V128.532C135.741 128.245 135.682 127.952 135.528 127.706C135.487 127.638 135.432 127.579 135.366 127.534C135.3 127.489 135.225 127.458 135.146 127.443H135.048C135.372 126.54 136.028 125.947 136.587 126.044C137.205 126.141 137.636 126.899 137.705 127.881C137.578 127.893 137.459 127.944 137.362 128.026C137.154 128.217 137.025 128.476 136.999 128.755V128.901L137.578 128.988C137.577 129.051 137.59 129.112 137.615 129.169C137.64 129.226 137.678 129.277 137.725 129.319L136.744 136.5L136.901 136.461ZM141.234 137.161C140.891 137.102 140.558 137.433 140.45 137.909L138.43 137.579C138.447 137.336 138.385 137.094 138.254 136.889C138.213 136.819 138.158 136.759 138.092 136.712C138.026 136.665 137.951 136.633 137.872 136.617H137.783L138.764 129.445C138.873 129.383 138.953 129.282 138.989 129.163L139.568 129.26V129.124C139.613 128.838 139.554 128.545 139.401 128.298C139.36 128.23 139.304 128.172 139.238 128.127C139.172 128.081 139.098 128.051 139.019 128.036C139.128 127.635 139.372 127.284 139.711 127.04C140.05 126.796 140.463 126.674 140.882 126.695H140.95C141.362 126.815 141.724 127.063 141.984 127.403C142.243 127.742 142.386 128.155 142.391 128.58C142.019 128.58 141.666 128.911 141.597 129.445V129.581L142.176 129.678C142.175 129.741 142.188 129.802 142.213 129.859C142.239 129.916 142.276 129.967 142.323 130.009L141.342 137.18L141.234 137.161ZM146.568 138.026C146.49 138.012 146.411 138.018 146.335 138.041C146.26 138.065 146.192 138.106 146.137 138.162C145.956 138.317 145.834 138.53 145.793 138.764L142.764 138.278C142.78 138.035 142.719 137.794 142.587 137.588C142.547 137.519 142.491 137.459 142.426 137.412C142.36 137.365 142.284 137.332 142.205 137.316H142.117L143.097 130.145C143.204 130.082 143.281 129.981 143.313 129.863L143.901 129.96V129.814C143.954 129.532 143.898 129.241 143.744 128.998C143.669 128.885 143.559 128.8 143.431 128.755C143.617 128.322 143.941 127.962 144.354 127.728C144.766 127.495 145.244 127.402 145.715 127.463H145.793C146.269 127.554 146.703 127.79 147.035 128.139C147.368 128.488 147.581 128.931 147.646 129.406C147.303 129.406 146.99 129.775 146.921 130.281V130.417L147.509 130.504C147.509 130.631 147.559 130.753 147.646 130.844L146.666 138.016L146.568 138.026ZM152.764 131.379C152.762 131.442 152.773 131.505 152.797 131.563C152.821 131.622 152.856 131.675 152.901 131.719L151.921 138.89H151.833C151.754 138.879 151.674 138.884 151.598 138.906C151.522 138.927 151.452 138.965 151.392 139.017C151.214 139.179 151.094 139.394 151.048 139.629L148.107 139.153C148.122 138.907 148.061 138.663 147.931 138.453C147.89 138.384 147.835 138.325 147.769 138.28C147.703 138.235 147.628 138.204 147.548 138.191H147.46L148.441 131.019C148.495 130.992 148.544 130.954 148.583 130.907C148.622 130.86 148.65 130.806 148.666 130.747L149.245 130.835V130.699C149.287 130.417 149.232 130.129 149.088 129.882C149.01 129.766 148.897 129.677 148.764 129.63C148.946 129.196 149.268 128.835 149.68 128.603C150.092 128.371 150.57 128.281 151.039 128.347H151.127C151.6 128.44 152.032 128.677 152.363 129.026C152.693 129.374 152.906 129.816 152.97 130.29C152.9 130.287 152.831 130.297 152.765 130.321C152.7 130.344 152.639 130.38 152.588 130.427C152.376 130.615 152.243 130.875 152.215 131.155V131.301L152.764 131.379ZM154.725 116.356C154.726 116.418 154.739 116.479 154.764 116.536C154.79 116.593 154.826 116.644 154.872 116.686L153.892 123.858H153.803C153.46 123.799 153.137 124.12 153.019 124.586L150.078 124.1C150.078 123.624 149.862 123.216 149.519 123.129H149.431L150.411 115.947C150.519 115.889 150.6 115.792 150.637 115.675L151.215 115.773V115.627C151.263 115.421 151.242 115.206 151.155 115.013C151.069 114.82 150.921 114.66 150.735 114.558C150.917 114.125 151.239 113.763 151.651 113.531C152.063 113.299 152.54 113.209 153.009 113.275H153.097C153.568 113.373 153.998 113.612 154.327 113.96C154.657 114.308 154.871 114.747 154.941 115.219C154.798 115.218 154.66 115.266 154.549 115.355C154.343 115.55 154.214 115.812 154.186 116.093V116.229L154.725 116.356ZM156.686 101.303C156.686 101.367 156.699 101.43 156.724 101.488C156.749 101.547 156.786 101.6 156.833 101.643L155.853 108.815H155.764C155.686 108.802 155.606 108.807 155.529 108.829C155.453 108.851 155.383 108.889 155.323 108.941C155.145 109.104 155.025 109.318 154.98 109.553L152.039 109.077C152.039 108.591 151.823 108.164 151.48 108.105H151.392L152.372 100.934C152.426 100.906 152.474 100.867 152.512 100.82C152.551 100.774 152.58 100.72 152.598 100.662L153.176 100.749V100.613C153.224 100.408 153.203 100.192 153.116 99.999C153.03 99.806 152.882 99.647 152.696 99.544C152.878 99.111 153.2 98.75 153.612 98.518C154.023 98.286 154.501 98.195 154.97 98.262H155.049C155.523 98.356 155.955 98.593 156.287 98.941C156.619 99.289 156.834 99.731 156.902 100.205C156.758 100.2 156.618 100.249 156.509 100.341C156.298 100.533 156.169 100.797 156.147 101.08V101.216L156.686 101.303ZM158.647 86.183C158.647 86.309 158.696 86.431 158.784 86.523L157.804 93.694H157.715C157.353 93.636 157 93.996 156.911 94.511L153.97 94.035C154.019 93.51 153.784 93.063 153.421 92.995H153.333L154.313 85.814C154.367 85.786 154.414 85.748 154.451 85.701C154.488 85.654 154.515 85.6 154.529 85.542L155.117 85.629V85.493C155.165 85.287 155.144 85.072 155.057 84.879C154.971 84.686 154.823 84.526 154.637 84.424C154.819 83.991 155.141 83.63 155.553 83.397C155.965 83.165 156.442 83.075 156.911 83.141H156.99C157.464 83.235 157.896 83.473 158.228 83.821C158.56 84.169 158.775 84.611 158.843 85.085C158.699 85.078 158.558 85.126 158.451 85.221C158.243 85.415 158.114 85.678 158.088 85.959V86.095L158.647 86.183ZM160.608 71.14C160.607 71.204 160.62 71.267 160.646 71.325C160.671 71.384 160.708 71.437 160.755 71.48L159.774 78.652H159.686C159.343 78.594 159.009 78.924 158.902 79.39L155.96 78.914C155.96 78.428 155.745 78.011 155.402 77.943H155.313L156.294 70.771C156.349 70.745 156.399 70.707 156.438 70.66C156.477 70.613 156.505 70.558 156.519 70.499L157.098 70.586V70.45C157.145 70.244 157.122 70.027 157.034 69.834C156.945 69.641 156.796 69.482 156.607 69.381C156.793 68.948 157.117 68.588 157.53 68.356C157.943 68.124 158.422 68.034 158.892 68.099H158.97C159.444 68.193 159.877 68.43 160.209 68.778C160.541 69.126 160.755 69.568 160.823 70.042C160.47 70.042 160.127 70.402 160.059 70.907V71.053L160.608 71.14ZM162.833 55.019C162.755 55.007 162.675 55.012 162.599 55.034C162.522 55.056 162.452 55.094 162.392 55.145C162.186 55.341 162.057 55.603 162.029 55.884V56.02L162.617 56.117C162.62 56.24 162.669 56.358 162.755 56.448L161.774 63.619H161.696C161.353 63.561 161.019 63.881 160.912 64.348L157.97 63.872C158.009 63.671 157.975 63.464 157.875 63.287C157.774 63.109 157.614 62.972 157.421 62.9H157.323L158.304 55.728C158.412 55.666 158.493 55.566 158.529 55.447L159.107 55.544V55.398C159.15 55.116 159.095 54.828 158.951 54.582C158.907 54.513 158.85 54.455 158.782 54.41C158.715 54.365 158.639 54.334 158.558 54.319H158.5C158.689 53.853 159.03 53.462 159.468 53.208C159.907 52.955 160.418 52.853 160.921 52.92H161.01C161.518 53.024 161.98 53.283 162.332 53.662C162.684 54.04 162.907 54.518 162.97 55.029L162.833 55.019ZM163.196 40.2L162.019 49.159L152.803 47.682L153.98 38.713C154.029 38.08 154.205 37.463 154.5 36.899C154.794 36.335 155.2 35.836 155.693 35.431C156.186 35.025 156.756 34.722 157.37 34.54C157.983 34.358 158.628 34.3 159.264 34.369C160.534 34.676 161.637 35.451 162.35 36.536C163.062 37.621 163.33 38.935 163.098 40.21L163.196 40.2Z" fill="#35B799"/>
<path d="M151.16 144.002C150.489 144.576 150.056 145.39 149.948 146.281L149.844 147.147L148.897 146.982L149.011 146.115C149.123 145.21 148.914 144.294 148.424 143.535C148.15 143.113 147.795 142.753 147.382 142.477C146.968 142.201 146.505 142.014 146.019 141.928C145.566 141.854 145.104 141.874 144.66 141.988C144.215 142.102 143.797 142.307 143.431 142.59C143.066 142.874 142.759 143.23 142.53 143.639C142.301 144.047 142.155 144.498 142.099 144.966L141.995 145.823L140.944 145.648L141.048 144.781C141.184 143.815 140.972 142.832 140.452 142.016C140.241 141.672 139.965 141.375 139.639 141.144C139.314 140.913 138.946 140.753 138.559 140.672C138.167 140.612 137.767 140.639 137.387 140.751C137.006 140.864 136.653 141.059 136.353 141.324C135.647 141.95 135.197 142.826 135.094 143.778L134.98 144.645L134.033 144.479L134.147 143.613C134.264 142.954 134.213 142.276 134.001 141.643C133.789 141.01 133.422 140.444 132.935 140C132.348 144.577 130.038 162.727 130 163H130.274C130.445 162.192 130.956 161.617 131.486 161.705H131.647L133.617 147.342H133.711L134.753 147.517H134.847L133.143 161.929H133.304C133.515 161.993 133.703 162.119 133.845 162.292C133.986 162.465 134.075 162.678 134.099 162.903H138.473L140.518 148.433H140.613L141.645 148.598H141.74L140.054 162.864H146.682L148.49 149.718H148.575L149.617 149.893H149.711L148.187 162.834H151.633L154 143.32H153.877C153.403 143.23 152.916 143.244 152.447 143.361C151.979 143.479 151.54 143.697 151.16 144.002Z" fill="#35B799"/>
<path d="M269.88 118.756C267.181 119.709 264.588 120.935 262.144 122.415C259.723 124.117 257.751 126.368 256.394 128.979C255.587 130.375 255.272 131.996 255.498 133.588C255.725 135.179 256.48 136.652 257.646 137.774C257.773 137.919 257.89 138.122 258.037 138.305C258.183 138.488 258.262 138.643 257.88 138.643H257.205C253.43 138.643 249.665 138.817 245.89 138.826C244.619 138.826 244.355 139.184 244.345 140.448C244.345 142.533 244.345 145.053 244.345 147.138C244.345 148.587 242.311 149.407 240.374 149.523C238.037 149.658 236.765 146.627 236.814 144.85C236.885 143.811 236.823 142.766 236.628 141.742C235.934 139.363 235.514 136.915 235.377 134.443C235.377 131.364 235.377 128.275 235.377 125.185C235.358 124.423 235.595 123.676 236.051 123.061C236.428 122.673 236.656 122.168 236.697 121.633C236.775 120.754 236.208 120.098 235.719 120.155C235.23 120.213 234.682 118.756 234.506 116.883C234.374 115.755 234.325 114.619 234.359 113.485C234.412 112.428 234.64 111.388 235.034 110.405C235.122 110.202 236.306 107.123 235.719 107.238L235.024 107.383C234.643 107.46 234.32 105.694 234.311 103.425C234.311 102.045 234.311 100.683 234.311 99.312C234.435 97.825 234.049 96.339 233.215 95.094C232.991 94.834 232.868 94.503 232.868 94.162C232.868 93.821 232.991 93.49 233.215 93.23C233.529 92.8 233.747 92.31 233.855 91.791C233.963 91.271 233.958 90.736 233.841 90.218C233.44 88.519 230.506 88.616 230.203 90.392C230.084 91.489 230.357 92.592 230.976 93.51C231.071 93.675 231.128 93.858 231.141 94.047C231.155 94.236 231.125 94.425 231.054 94.601C229.949 96.324 229.483 98.37 229.733 100.394C229.821 102.411 229.733 104.429 229.733 106.447C229.733 106.611 229.733 106.775 229.733 106.929C229.733 107.084 229.636 107.432 229.557 107.46C229.479 107.489 229.44 107.509 229.401 107.46L228.423 107.238C228.247 107.238 229.401 112.654 229.401 112.954C229.468 114.193 229.442 115.435 229.323 116.67C229.156 118.727 228.394 120.329 227.621 120.233C227.424 120.208 227.223 120.238 227.042 120.32C226.861 120.401 226.707 120.532 226.597 120.695C226.487 120.859 226.426 121.05 226.42 121.246C226.414 121.443 226.465 121.637 226.565 121.806C226.839 122.36 227.237 122.845 227.729 123.225C228.328 123.75 228.709 124.476 228.795 125.262C228.883 130.785 229.205 135.882 227.924 141.278C227.671 142.417 227.498 143.572 227.406 144.735C227.351 146.283 226.684 147.749 225.548 148.818C225.137 149.098 225 149.523 225 150.45V163H265.518C265.518 162.768 265.675 160.915 265.675 160.673C265.675 152.545 268.863 145.961 272.716 145.961H273V118.254C271.938 118.237 270.882 118.407 269.88 118.756Z" fill="#F9A764"/>
<path d="M318.537 148.696C318.324 148.638 318.644 142.664 318.537 142.177C318.082 139.55 317.374 137.623 317.365 134.879C317.365 131.766 317.365 128.652 317.365 125.548C317.35 124.787 317.631 124.05 318.15 123.495C318.381 123.322 318.558 123.086 318.661 122.816C318.764 122.545 318.788 122.251 318.731 121.967C318.702 121.548 318.52 121.153 318.22 120.86C317.919 120.568 317.522 120.397 317.103 120.381C316.367 120.439 315.727 118.892 315.776 116.839C315.788 115.604 315.918 114.372 316.163 113.161C316.428 112.183 316.791 111.234 317.248 110.33C317.917 108.792 317.636 107.41 317.384 107.498L316.919 107.605C316.919 107.605 316.861 107.605 316.793 107.605C316.725 107.605 316.657 107.342 316.648 107.07C316.638 106.797 316.648 106.749 316.648 106.583C316.648 104.55 316.59 102.516 316.648 100.482C316.9 98.444 316.441 96.381 315.349 94.644C315.279 94.467 315.249 94.276 315.263 94.086C315.276 93.895 315.332 93.71 315.427 93.545C316.042 92.62 316.31 91.506 316.183 90.402C315.892 88.611 312.985 88.514 312.588 90.236C312.473 90.758 312.469 91.298 312.576 91.821C312.682 92.344 312.898 92.839 313.208 93.272C313.435 93.53 313.56 93.862 313.56 94.206C313.56 94.55 313.435 94.883 313.208 95.14C312.381 96.399 311.999 97.9 312.123 99.402C312.172 100.774 312.181 102.146 312.172 103.538C312.172 105.824 311.842 107.615 311.464 107.527C311.086 107.44 310.757 108.179 311.048 109.094C311.193 109.561 311.396 109.989 311.629 110.729C311.789 111.565 311.828 112.42 311.745 113.268C311.745 113.541 311.745 115.214 311.745 116.888C311.745 118.892 311.358 120.459 310.776 120.391C310.195 120.323 309.682 120.994 309.808 121.87C309.849 122.407 310.075 122.913 310.447 123.3C310.903 123.915 311.142 124.665 311.125 125.431C311.125 128.846 311.193 132.242 311.125 135.697C311.125 138.499 309.769 140.98 309.701 143.724C309.633 146.887 309.701 149.348 305.951 149.562C304.372 149.66 300.768 149.251 300.768 146.935C300.768 146.857 300.69 144.201 300.69 144.016C300.69 141.914 300.69 142.702 300.69 140.601C300.69 138.82 300.526 138.47 298.753 138.47H287.863C287.651 138.484 287.441 138.51 287.233 138.548C286.884 138.606 286.768 138.402 287 138.188C287.233 137.974 287.272 137.935 287.398 137.798C289.82 135.123 290.382 132.116 288.715 128.934C287.802 127.248 286.672 125.691 285.353 124.302C283.415 122.21 280.412 120.41 277.544 118.902C276.124 118.231 274.569 117.898 273 117.929V145.845C276.701 146.157 280.606 155.079 279.569 163H319.884V150.934C320.058 149.202 320.281 149.202 318.537 148.696Z" fill="#F9A764"/>
<path d="M322 161H0V163H322V161Z" fill="white"/>
<path d="M312.533 173H9.4772C6.9654 173 4.5563 171.947 2.7793 170.072C1.0022 168.197 0.0026 165.653 0 163H322C322 164.313 321.755 165.614 321.279 166.827C320.804 168.04 320.106 169.142 319.227 170.071C318.348 171 317.304 171.736 316.156 172.239C315.007 172.741 313.776 173 312.533 173Z" fill="#26576C"/>
</svg>
