<svg viewBox="0 0 340 319" xmlns="http://www.w3.org/2000/svg"><g fill-rule="nonzero" fill="none"><path d="M209.121 128L225 86.878 183.964 71c-8.745 22.703 2.515 48.214 25.157 57z" fill="#F6F6F8"/><path d="M224.85 87L209 128.128 250.047 144a44.161 44.161 0 00-.816-33.729A44.032 44.032 0 00224.85 87z" fill="#F7D872"/><path d="M121.664 256.463l-71.828-56.508a2.64 2.64 0 00-3.707.442L1.926 256.596a2.64 2.64 0 00.443 3.707l71.828 56.508a2.64 2.64 0 003.707-.442l44.203-56.199a2.64 2.64 0 00-.443-3.707z" fill="#48CFD5"/><path fill="#FFF" d="M83.135 252.66l-20.531-16.153-34.59 43.978 20.53 16.152z"/><path fill="#26566C" d="M123.911 258.222L47.59 198.178 31.195 219.02l76.323 60.045z"/><path d="M133.428 249.098l-79.21-62.317a2.64 2.64 0 00-3.707.442l-14.843 18.871a2.64 2.64 0 00.443 3.708l79.21 62.316a2.64 2.64 0 003.707-.442l14.843-18.871a2.64 2.64 0 00-.443-3.707z" fill="#48CFD5"/><path fill="#FFF" d="M104.088 226.015l-20.53-16.152-18.107 23.02 20.53 16.153z"/><path d="M42.385 279.876a18.273 18.273 0 00-7.099-2.358l-.092.136c.12.155.253.3.397.435 1.735 1.406 3.461 2.812 5.215 4.181 2.234 1.75 4.505 3.465 6.766 5.188.462.345.97.635 1.45.952l.147-.081c-.1-.351-.22-.696-.36-1.034a16.914 16.914 0 00-3.443-4.98c-.286-.272-.286-.444 0-.743 2.572-3.193 5.136-6.394 7.69-9.605a.581.581 0 01.803-.209c2.33.922 4.921.993 7.301.2a5.667 5.667 0 002.465-1.723 83.654 83.654 0 002.206-2.522c1.717-2.05 3.415-4.117 5.15-6.203a3.664 3.664 0 00-.276-.263c-1.071-.826-2.133-1.66-3.213-2.467a.87.87 0 00-.618-.127c-.452.081-.923.235-1.422.39l2.4 2.04-4.938 1.37 2.215 1.94-6.304 1.325v-.082l3.489-1.632-2.539-2.277 4.763-1.415-2.215-1.959 3.277-.961-8.99-6.957c-.093.118-.204.245-.296.372-1.994 2.585-3.988 5.152-5.954 7.755a8.123 8.123 0 00-1.643 2.93 9.063 9.063 0 00.378 5.024 8.886 8.886 0 001.468 2.82.378.378 0 010 .554l-8.058 9.832c-.019.045-.12.081-.12.154z" fill="#48CFD5"/><path d="M95.004 217.17a8.493 8.493 0 00.916 4.113A2.755 2.755 0 0098.267 223H190v-12H95.004v6.17" fill="#F7D872"/><path d="M95.32 211.037l-4.091 5.203c4.86 3.512 7.406 9.427 6.629 15.395-.778 5.968-4.753 11.023-10.348 13.157a16.173 16.173 0 01-16.419-2.945L67 247.05c9.897 7.866 24.26 6.173 32.08-3.782 7.82-9.955 6.137-24.402-3.76-32.269v.037zM222.438 178c0 17.907-14.523 32.424-32.438 32.424V222h.073c24.265-.065 43.907-19.735 43.927-43.99l-11.562-.01z" fill="#F7D872"/><path d="M79.79 235c4.946 3.717 11.791 4.148 17.21 1.083v6.532c-7.061 2.613-15.05 1.479-21-2.982L79.79 235z" fill="#F7D872"/><path d="M87.274 228a13.16 13.16 0 0014.726.97v5.807c-6.06 2.32-12.909 1.294-18-2.696L87.274 228z" fill="#F7D872"/><path d="M300 0v19h19c0-10.493-8.507-19-19-19z" fill="#00C29D"/><path d="M293 5v15h15c0-8.284-6.716-15-15-15z" fill="#F7D872"/><path d="M289 12v9h9a9 9 0 00-9-9z" fill="#48CFD5"/><path d="M285 17v9h9c0-4.967-4.028-8.995-9-9z" fill="#F8AA61"/><path d="M281 21v9h9a9 9 0 00-9-9z" fill="#00C29D"/><path d="M279 28v9h9c0-4.956-4.023-8.98-9-9z" fill="#F7D872"/><g fill="#F6F6F8"><path d="M61.393 174.692a5.019 5.019 0 001.431 3.575 4.72 4.72 0 003.55 1.488H166v-10.426H61.393v5.363M41.857 155.681a5.01 5.01 0 001.422 3.576 4.72 4.72 0 003.55 1.488H166v-10.426H41.857v5.362M22.229 136.671a5.019 5.019 0 001.431 3.575 4.748 4.748 0 003.55 1.489H166v-10.426H22.229v5.362"/></g><path d="M324.643 66a25.237 25.237 0 0010.852-16.03A25.137 25.137 0 00331.768 31s-39.765 8.42-24.123 10.215S324.643 66 324.643 66z" fill="#F7D872"/><path d="M323.611 45c5.714.02 10.364-4.597 10.389-10.315-4.962-13.076-18.551-20.735-32.296-18.204C287.959 19.013 277.985 31.013 278 45h45.611z" fill="#FF636F"/><path d="M299 30.5a9.5 9.5 0 109.509-9.5A9.509 9.509 0 00299 30.5z" fill="#FFF"/><path d="M306 31.472A5.5 5.5 0 11311.49 37a5.49 5.49 0 01-5.49-5.528z" fill="#26566C"/><path d="M298.186 194l.814-16.285L162.354 167c-6.327 0-24.794 3.099-32.354 26.791l168.186.209z" fill="#FF636F"/><path d="M297.27 194c15.348 0 34.608-2.864 40.477-21.454 8.266-26.157-8.468-48.398-13.97-55.708-.459-.613-.817-1.089-1.047-1.418-.67-.997-2.333-3.294-5.226-7.255-3.802-5.215-10.167-13.952-11.343-15.965a75.708 75.708 0 00-1.368-2.205c-3.408-5.398-12.464-19.743-13.135-30.75-.734-11.893 2.995-18.517 3.16-18.791l-.064.091L280.628 32c-.67 1.098-6.521 11.235-5.511 28.252.918 15.205 11.242 31.536 15.614 38.508.477.75.854 1.345 1.084 1.738 1.478 2.525 6.218 9.067 12.252 17.383 2.13 2.918 4.326 5.938 4.85 6.706.404.613.918 1.3 1.57 2.16 4.684 6.23 13.465 18.023 7.752 36.12-3.26 10.337-14.86 13.65-31.228 12.808-2.663-.138-6.43-.302-8.57-.302l1.525 18.069c1.736 0 3.94.11 6.494.247 3.196.137 6.87.311 10.81.311zM138.652 206s-4.367-17.902 6.053-21.07c10.421-3.17-18.03-9.93-18.03-9.93-5.068 12.17 2.072 26.655 11.977 31z" fill="#FF636F"/><path d="M306 185c0-36.456-40.294-66-90-66s-90 29.544-90 66h180z" fill="#FF636F"/><path d="M213.85 128L198 169.128 239.047 185a44.161 44.161 0 00-.816-33.729A44.032 44.032 0 00213.85 128z" fill="#F7D872"/><path d="M199.121 169L215 127.878 173.964 112c-8.745 22.703 2.515 48.214 25.157 57z" fill="#F6F6F8"/></g></svg>