<svg width="26" height="20" viewBox="0 0 26 20" fill="none" xmlns="http://www.w3.org/2000/svg">
<path d="M14.8331 18.733V18.7322V14.5812C14.8331 14.3307 14.7336 14.0905 14.5565 13.9133C14.3794 13.7362 14.1392 13.6367 13.8887 13.6367H11.1109C10.8604 13.6367 10.6202 13.7362 10.4431 13.9133C10.266 14.0905 10.1664 14.3307 10.1664 14.5812V18.7352C10.1664 18.8527 10.1199 18.9654 10.0371 19.0487C9.95422 19.132 9.8418 19.1791 9.72436 19.1797C9.72432 19.1797 9.72427 19.1797 9.72423 19.1797L4.86176 19.1923C4.86159 19.1923 4.86141 19.1923 4.86123 19.1923C4.74355 19.1921 4.63072 19.1453 4.54749 19.0621C4.46414 18.9788 4.41732 18.8657 4.41732 18.7478V11.7525L12.3264 5.23848C12.3267 5.23824 12.327 5.238 12.3273 5.23777C12.3767 5.19823 12.4382 5.17668 12.5015 5.17668C12.5649 5.17668 12.6263 5.19824 12.6758 5.2378C12.6761 5.23802 12.6764 5.23825 12.6767 5.23848L20.584 11.7478V18.7478C20.584 18.8657 20.5372 18.9788 20.4538 19.0621C20.3705 19.1454 20.2574 19.1923 20.1395 19.1923L15.2783 19.1788H15.2776C15.2191 19.1788 15.1612 19.1673 15.1072 19.1449C15.0531 19.1224 15.0041 19.0896 14.9628 19.0482C14.9215 19.0067 14.8888 18.9576 14.8665 18.9035C14.8443 18.8494 14.8329 18.7915 14.8331 18.733ZM20.9312 6.53255V6.65046L21.0222 6.72546L24.6507 9.71635L24.8097 9.52344L24.652 9.71741C24.6796 9.73992 24.7026 9.76768 24.7195 9.7991C24.7365 9.83052 24.747 9.86498 24.7506 9.90048C24.7541 9.93599 24.7507 9.97186 24.7403 10.006C24.73 10.0401 24.713 10.0719 24.6904 10.0994C24.6904 10.0995 24.6903 10.0995 24.6903 10.0995L23.584 11.4445C23.5839 11.4445 23.5839 11.4446 23.5838 11.4447C23.5612 11.472 23.5334 11.4946 23.502 11.5112C23.4706 11.5279 23.4362 11.5382 23.4008 11.5415C23.3653 11.5449 23.3296 11.5412 23.2956 11.5308C23.2616 11.5203 23.23 11.5033 23.2026 11.4806L23.2021 11.4802L12.9925 3.07135L12.9925 3.07134L12.9904 3.06968C12.8519 2.95804 12.6794 2.89717 12.5015 2.89717C12.3236 2.89717 12.1511 2.95804 12.0126 3.06968L12.0126 3.06967L12.0105 3.07135L1.80134 11.4802L1.80108 11.4804C1.77362 11.5031 1.74196 11.5201 1.70791 11.5306C1.67385 11.541 1.63808 11.5446 1.60263 11.5412C1.56718 11.5378 1.53275 11.5274 1.50132 11.5107C1.46988 11.4939 1.44206 11.4711 1.41943 11.4436L1.41942 11.4436L0.312647 10.0981L0.312179 10.0976C0.289495 10.0701 0.272435 10.0385 0.261973 10.0045C0.251511 9.97052 0.247852 9.93479 0.251206 9.89937C0.254559 9.86394 0.264859 9.82953 0.281517 9.79809C0.298175 9.76665 0.320865 9.7388 0.34829 9.71614L11.3344 0.668303C11.3344 0.668282 11.3345 0.66826 11.3345 0.668239C11.6626 0.398237 12.0744 0.250613 12.4993 0.250613C12.9243 0.250613 13.3361 0.39826 13.6643 0.668303L13.6643 0.668318L17.5501 3.86537L17.959 4.20173V3.67231V0.520833C17.959 0.449003 17.9875 0.380116 18.0383 0.329325C18.0891 0.278534 18.158 0.25 18.2298 0.25H20.6604C20.7322 0.25 20.8011 0.278534 20.8519 0.329325C20.9027 0.380116 20.9312 0.449003 20.9312 0.520833V6.53255Z" stroke="black" stroke-width="0.5"/>
</svg>
