<svg xmlns="http://www.w3.org/2000/svg" viewBox="0 0 2761.47 644.58"><defs><style>.cls-1{fill:#3a383e;}.cls-2{fill:#fff;}.cls-3{fill:#9bb8cc;}.cls-4,.cls-5{fill:#9e1d22;}.cls-4{opacity:0.2;}.cls-6{fill:#479da3;}.cls-7{fill:#b72e41;}.cls-8{fill:#e1ecef;}.cls-9{fill:#f43d4f;}.cls-10{fill:#994f61;}.cls-11{fill:#7bbfba;}</style></defs><g id="Layer_2" data-name="Layer 2"><g id="Layer_1-2" data-name="Layer 1"><path class="cls-1" d="M0,644.58c28.27-6.42,56.58-12.63,84.9-18.86q42.55-8.94,85.2-17.56c7.1-1.48,14.22-2.82,21.34-4.2l21.36-4.08,42.74-8.13,10.69-2,10.71-1.9L298.36,584l42.85-7.57Q512.77,547,685.82,526.54c230.64-27.23,462.88-42.5,695.32-44.35s465.06,9.68,695.94,36.08q173.15,19.88,344.61,51.08c7.15,1.23,14.27,2.63,21.4,4l21.37,4.14,42.72,8.29c7.13,1.35,14.21,2.94,21.32,4.41l21.29,4.5,42.56,9.07c28.3,6.34,56.54,13,84.78,19.53q42.24,10.49,84.34,21.28c-28.57-5-57.06-10.22-85.57-15.35l-85.66-14.51L2547.35,608l-21.44-3.41c-7.15-1.11-14.28-2.34-21.45-3.32l-42.95-6.28-21.46-3.15c-7.16-1-14.31-2.13-21.49-3q-171.92-23.88-344.66-39.2-345.4-30.66-692.44-27.38C1150.4,524,919.41,536.4,689.11,557.71q-172.75,15.88-345,38.1l-43.05,5.62-21.53,2.81-10.77,1.4L258,607.13l-86,12L86,631.64C57.34,636,28.7,640.41,0,644.58Z"/><path class="cls-2" d="M1358.55,72.56H1099.63c1.24-4.56,8.06-20.21,42.7-14.2-5.6-5-9.31-12.69-7.77-20a11.8,11.8,0,0,1,3-6,13.9,13.9,0,0,1,5.24-3c13.65-4.91,37.55,13.91,37.55,13.91-29.26-46,50.53-65.31,51.07-7.1,0,0,11.7-20.91,24.5-15.13,5.2,3,2,11.94-.35,15.87,37.39-18.16,71.42-7,55.57,13.7C1347.9,51.36,1358.55,72.56,1358.55,72.56Z"/><path class="cls-2" d="M956.18,231.7c7.1-12.51,18.77-15.75,38.88-8.89-4.06-9.17,8.08-27.23,27.5-8.1-5.82-30.71,40.24-34.26,38-4.55,11.52-14.36,41.94-6.19,30.11,11,17.77-4.41,25-.29,36.64,10.59Z"/><path class="cls-2" d="M1078.77,72.56h-81.6C994.11,62,996,50.12,1029.3,59.71,1039.73,40.32,1060.08,59.68,1078.77,72.56Z"/><path class="cls-2" d="M1815.24,168.46h-81.6c-3.06-10.53-1.2-22.44,32.13-12.85,8.07-15,21.11-12.31,33.34,4.47C1820.43,143.45,1834.93,159.94,1815.24,168.46Z"/><rect class="cls-2" x="1615.67" y="96.41" width="68.62" height="68.62" transform="translate(3299.95 261.43) rotate(180)"/><polygon class="cls-3" points="1615.67 140.06 1684.28 132.88 1684.28 96.41 1615.67 96.41 1615.67 140.06"/><polygon class="cls-1" points="1540.88 54.99 1690.45 53.31 1690.45 129.76 1638.18 129.76 1540.88 54.99"/><rect class="cls-2" x="1255.33" y="96.41" width="68.62" height="68.62"/><polygon class="cls-3" points="1323.95 140.06 1255.33 132.88 1255.33 96.41 1323.95 96.41 1323.95 140.06"/><polygon class="cls-1" points="1398.73 54.99 1249.16 53.31 1249.16 129.76 1301.43 129.76 1398.73 54.99"/><polygon class="cls-2" points="1703.71 507.85 1235.1 507.85 1235.1 191.11 1469.4 10.1 1703.71 191.11 1703.71 507.85"/><polygon class="cls-4" points="1469.15 10.1 1234.85 191.11 1234.85 217.51 1282.14 180.89 1282.14 170.88 1434.95 46.49 1434.95 62.58 1459.49 43.58 1703.45 222.91 1703.45 191.11 1469.15 10.1"/><polygon class="cls-5" points="1282.14 507.85 1434.95 507.24 1434.95 62.58 1282.14 180.89 1282.14 507.85"/><polygon class="cls-5" points="1282.14 170.88 1282.14 180.89 1434.95 62.58 1434.95 46.49 1282.14 170.88"/><polygon class="cls-1" points="1469.43 2.06 1199.04 202.59 1216.64 221.89 1469.43 26.61 1722.21 221.89 1739.37 198.63 1469.43 2.06"/><rect class="cls-2" x="1309.07" y="354.29" width="98.31" height="126.43"/><rect class="cls-1" x="1315.47" y="360" width="39.08" height="114.02"/><rect class="cls-1" x="1361.69" y="360" width="39.08" height="114.02"/><rect class="cls-3" x="1309.07" y="479.03" width="98.31" height="1.7"/><rect class="cls-2" x="1295" y="480.73" width="127.09" height="13.93"/><rect class="cls-2" x="1288.79" y="494.27" width="139.5" height="13.58"/><rect class="cls-3" x="1295" y="492.58" width="127.09" height="1.7"/><rect class="cls-2" x="1309.07" y="174.26" width="98.31" height="86.06"/><rect class="cls-1" x="1315.47" y="179.97" width="39.08" height="73.65"/><rect class="cls-1" x="1361.69" y="179.97" width="39.08" height="73.65"/><polygon class="cls-5" points="1414.31 268.32 1302.14 273.58 1302.14 266.76 1414.31 266.76 1414.31 268.32"/><polygon class="cls-6" points="1305.13 260.33 1309.07 260.33 1309.07 174.26 1306.94 174.26 1305.13 260.33"/><rect class="cls-1" x="1302.14" y="260.33" width="112.17" height="6.43"/><rect class="cls-1" x="1527.4" y="174.26" width="60.5" height="42.54"/><rect class="cls-1" x="1462.69" y="174.26" width="59.38" height="42.54"/><polygon class="cls-3" points="1587.9 223.19 1455.97 223.19 1455.97 174.26 1453.87 174.26 1451.95 227.36 1587.9 224.96 1587.9 223.19"/><polygon class="cls-3" points="1480.22 296.64 1477.96 507.85 1484.82 507.85 1484.82 481.08 1484.82 296.64 1480.22 296.64"/><rect class="cls-5" x="899.02" y="295.17" width="336.08" height="212.68"/><polygon class="cls-7" points="1235.1 299.4 899.02 311.34 899.02 295.17 1235.1 295.17 1235.1 299.4"/><polygon class="cls-1" points="1235.1 295.17 893.83 295.17 893.83 272.96 1235.1 277.22 1235.1 295.17"/><rect class="cls-2" x="956.18" y="360" width="221.77" height="147.85"/><rect class="cls-8" x="956.18" y="370.36" width="221.77" height="2.51"/><rect class="cls-8" x="956.18" y="378.83" width="221.77" height="2.51"/><rect class="cls-8" x="956.18" y="387.3" width="221.77" height="2.51"/><rect class="cls-8" x="956.18" y="395.77" width="221.77" height="2.51"/><rect class="cls-8" x="956.18" y="404.24" width="221.77" height="2.51"/><rect class="cls-8" x="956.18" y="412.71" width="221.77" height="2.51"/><rect class="cls-8" x="956.18" y="421.18" width="221.77" height="2.51"/><rect class="cls-8" x="956.18" y="429.64" width="221.77" height="2.51"/><rect class="cls-8" x="956.18" y="438.11" width="221.77" height="2.51"/><rect class="cls-8" x="956.18" y="446.58" width="221.77" height="2.51"/><rect class="cls-8" x="956.18" y="455.05" width="221.77" height="2.51"/><rect class="cls-8" x="956.18" y="463.52" width="221.77" height="2.51"/><rect class="cls-8" x="956.18" y="471.99" width="221.77" height="2.51"/><rect class="cls-8" x="956.18" y="480.45" width="221.77" height="2.51"/><rect class="cls-8" x="956.18" y="488.92" width="221.77" height="2.51"/><rect class="cls-8" x="956.18" y="497.39" width="221.77" height="2.51"/><polygon class="cls-1" points="1181.34 364.19 949.93 364.19 949.93 351.43 1181.34 353.88 1181.34 364.19"/><polygon class="cls-7" points="1234.86 507.85 1227.9 507.85 1230.88 295.17 1234.86 295.17 1234.86 507.85"/><rect class="cls-5" x="1484.82" y="295.17" width="315.47" height="212.68"/><rect class="cls-7" x="1484.82" y="481.08" width="315.47" height="26.77"/><polygon class="cls-7" points="1800.29 319.87 1484.82 334.65 1484.82 311.34 1800.29 311.34 1800.29 319.87"/><rect class="cls-2" x="1560.74" y="354.29" width="163.35" height="102.92"/><rect class="cls-1" x="1567.02" y="360" width="27.97" height="90.8"/><rect class="cls-1" x="1599.37" y="360" width="87.12" height="90.8"/><rect class="cls-1" x="1690.88" y="360" width="27.97" height="90.8"/><polygon class="cls-7" points="1724.08 352.97 1560.74 352.97 1558.32 352.97 1556.32 457.22 1560.74 457.22 1560.74 354.29 1724.08 354.29 1724.08 352.97"/><polygon class="cls-7" points="1560.74 456.35 1724.08 456.35 1724.08 458.78 1556.32 466.21 1556.32 456.35 1560.74 456.35"/><polygon class="cls-2" points="1809.82 311.34 1482.94 311.34 1482.94 295.99 1809.82 295.35 1809.82 311.34"/><polygon class="cls-3" points="1809.82 299.68 1482.94 303.34 1482.94 295.99 1809.82 295.35 1809.82 299.68"/><polygon class="cls-1" points="1819.4 290.91 1737.22 249.18 1556.54 249.18 1469.05 292.76 1469.05 297.6 1819.4 296.21 1819.4 290.91"/><rect class="cls-2" x="1489.17" y="306.65" width="11.69" height="11.52"/><rect class="cls-2" x="1510.95" y="306.65" width="11.69" height="11.52"/><rect class="cls-2" x="1532.74" y="306.65" width="11.69" height="11.52"/><rect class="cls-2" x="1554.52" y="306.65" width="11.69" height="11.52"/><rect class="cls-2" x="1576.31" y="306.65" width="11.69" height="11.52"/><rect class="cls-2" x="1619.88" y="306.65" width="11.69" height="11.52"/><rect class="cls-2" x="1598.09" y="306.65" width="11.69" height="11.52"/><rect class="cls-2" x="1641.66" y="306.65" width="11.69" height="11.52"/><rect class="cls-2" x="1663.45" y="306.65" width="11.69" height="11.52"/><rect class="cls-2" x="1685.23" y="306.65" width="11.69" height="11.52"/><rect class="cls-2" x="1707.02" y="306.65" width="11.69" height="11.52"/><rect class="cls-2" x="1728.8" y="306.65" width="11.69" height="11.52"/><rect class="cls-2" x="1772.37" y="306.65" width="11.69" height="11.52"/><rect class="cls-2" x="1750.58" y="306.65" width="11.69" height="11.52"/><rect class="cls-2" x="1794.15" y="306.65" width="11.69" height="11.52"/><rect class="cls-3" x="1489.17" y="311.34" width="11.69" height="2.24"/><rect class="cls-3" x="1510.95" y="311.34" width="11.69" height="2.24"/><rect class="cls-3" x="1532.74" y="311.34" width="11.69" height="2.24"/><rect class="cls-3" x="1554.52" y="311.34" width="11.69" height="2.24"/><rect class="cls-3" x="1576.31" y="311.34" width="11.69" height="2.24"/><rect class="cls-3" x="1619.88" y="311.34" width="11.69" height="2.24"/><rect class="cls-3" x="1598.09" y="311.34" width="11.69" height="2.24"/><rect class="cls-3" x="1641.66" y="311.34" width="11.69" height="2.24"/><rect class="cls-3" x="1663.45" y="311.34" width="11.69" height="2.24"/><rect class="cls-3" x="1685.23" y="311.34" width="11.69" height="2.24"/><rect class="cls-3" x="1707.02" y="311.34" width="11.69" height="2.24"/><rect class="cls-3" x="1728.8" y="311.34" width="11.69" height="2.24"/><rect class="cls-3" x="1772.37" y="311.34" width="11.69" height="2.24"/><rect class="cls-3" x="1750.58" y="311.34" width="11.69" height="2.24"/><rect class="cls-3" x="1794.15" y="311.34" width="11.69" height="2.24"/><rect class="cls-1" x="886.76" y="428.37" width="3.78" height="79.48"/><path class="cls-1" d="M897.8,404.64H873.41a10.87,10.87,0,0,1,10.84,10.84v16l-2.24.95h25.07a1.56,1.56,0,0,0,1.56-1.56V415.48A10.87,10.87,0,0,0,897.8,404.64Z"/><path class="cls-2" d="M873.66,404.65a10.86,10.86,0,0,0-10.59,10.83v15.76a1.16,1.16,0,0,0,1.15,1.15H883.1a1.16,1.16,0,0,0,1.15-1.15V415.48A10.86,10.86,0,0,0,873.66,404.65Z"/><path class="cls-9" d="M893.5,401.14V397h-7v14.36a2.29,2.29,0,1,0,2.28-2.28h0v-7.42Z"/><polygon class="cls-6" points="1305.34 480.73 1309.07 480.73 1309.07 354.29 1306.94 354.29 1305.34 480.73"/><polygon class="cls-10" points="1827.47 506.43 1829.42 478.08 1813.73 459.91 1814.7 459.13 1823.95 467.05 1825.3 459.13 1826.76 459.51 1826.51 469.38 1830.28 473.04 1831.71 444.07 1824.03 434.56 1824.88 433.83 1832.84 440.19 1833.35 425.05 1835.42 425.05 1836.8 443.67 1838.81 462.18 1849.17 450.94 1850.14 451.59 1846.37 457.53 1852.95 457.44 1852.95 458.54 1845.76 459.64 1838.69 470.71 1840.3 506.43 1827.47 506.43"/><path class="cls-6" d="M1894.45,403.88a22.72,22.72,0,0,0-1.63-10.38c-1.48-3.21-4.38-5.93-7.88-6.43a5.92,5.92,0,0,0-5.53,1.89c3.95-4.91,7.55-10.28,9.11-16.38s.78-13.07-3.28-17.89c-3.91-4.63-10.44-6.63-16.43-5.75a25.68,25.68,0,0,0-15.36,9c.43-9.47,2.61-19,.87-28.34s-9.14-18.66-18.61-18.24c-6.42.29-11.82,4.89-15.91,9.84a65.92,65.92,0,0,0-14.79,36.5c-2.46-3.38-5-6.81-8.26-9.4s-7.53-4.27-11.67-3.59c-6.79,1.11-11.12,8-12.77,14.72a40.14,40.14,0,0,0,.73,21.76c3.7,11.58,12.39,20.77,20.81,29.53-3.87-1.73-8.75.6-10.62,4.4-2.55,5.16-.12,11.11,3.41,15.22a34.81,34.81,0,0,0,11,8c22.82,11.46,50.6,9.8,73.63-.17,8.55-3.7,14.52-9.82,19.07-18a.41.41,0,0,1,.05-.09A36.06,36.06,0,0,0,1894.45,403.88Z"/><path class="cls-6" d="M1821.14,452c-1.07-1.24-4.22-1.72-4.16.53-.93-7-10-4.33-5.78,2.33-7-7.27-13.2,2-4.14,6.18-7.7.16-3.4,11.14,3.35,6.35-2.74,1.65-1,5.25,1.95,4.78C1820.2,470.83,1828.2,458.34,1821.14,452Z"/><path class="cls-11" d="M1807.47,431.39a12.74,12.74,0,0,1-.8-5.78,6,6,0,0,1,3.17-4.68,3.28,3.28,0,0,1,3.24.12,24.61,24.61,0,0,1-7.46-7.26c-1.8-3-2.5-6.82-1.11-10a10.13,10.13,0,0,1,7.82-5.68,14.2,14.2,0,0,1,9.6,2.32c-1.74-5-4.42-9.7-5-14.93s1.88-11.38,7-12.67c3.46-.88,7.07.71,10,2.69a36.57,36.57,0,0,1,13.69,17.05,25.18,25.18,0,0,1,2.9-6.32,8.52,8.52,0,0,1,5.62-3.77c3.8-.5,7.2,2.49,9.15,5.78a22.33,22.33,0,0,1,3.09,11.69c-.12,6.75-3.27,13-6.35,19,1.78-1.54,4.75-1.08,6.35.64,2.18,2.34,1.84,5.89.62,8.64a19.38,19.38,0,0,1-4.57,6c-10.31,9.74-25.34,13.29-39.18,11.67a21.78,21.78,0,0,1-13-6.54l0,0A19.87,19.87,0,0,1,1807.47,431.39Z"/><path class="cls-6" d="M1781.6,407.64a8.05,8.05,0,0,1,.53,5.31,6.78,6.78,0,0,1-4.74-8.6A8.07,8.07,0,0,1,1781.6,407.64Z"/><path class="cls-6" d="M1773.75,412.66c3.73-.22,6.91,2.49,6.91,2.49s-2.84,3.06-6.57,3.28-6.91-2.49-6.91-2.49S1770,412.88,1773.75,412.66Z"/><path class="cls-6" d="M1855.45,460.73a4.31,4.31,0,0,1-2-2,3.62,3.62,0,0,1,4.84,2A4.31,4.31,0,0,1,1855.45,460.73Z"/><path class="cls-6" d="M1857.07,456a5.91,5.91,0,0,1-3.72,1.25,5,5,0,0,1,5.38-4.8A5.94,5.94,0,0,1,1857.07,456Z"/><path class="cls-11" d="M1855,378.08a8.12,8.12,0,0,1-4.94,2.05,6.77,6.77,0,0,1,6.86-7A8.07,8.07,0,0,1,1855,378.08Z"/><path class="cls-11" d="M1809.26,393.49a5.57,5.57,0,0,1,2.66,2.58,4.71,4.71,0,0,1-6.37-2.43A5.62,5.62,0,0,1,1809.26,393.49Z"/><path class="cls-11" d="M1848,372c1.28,3.5-.38,7.34-.38,7.34s-3.76-1.84-5-5.34.38-7.34.38-7.34S1846.67,368.52,1848,372Z"/><path class="cls-11" d="M1816.6,468a8,8,0,0,1-2,0,3.79,3.79,0,0,1-2.47-1.25,2.6,2.6,0,0,1-.51-2.38c.41-1.13,1.89-.86,2.57-1.71a2.28,2.28,0,0,0,.3-1.72,4.87,4.87,0,0,1-.08-1.78,1.19,1.19,0,0,1,1.28-1c.44.1.72.52,1,.83a.93.93,0,0,0,.67.35c1.11,0,1.37-1.67,2.52-1.46s1.89,1.48,2.22,2.54a5.65,5.65,0,0,1-1,5.41A6.8,6.8,0,0,1,1816.6,468Z"/><path class="cls-11" d="M1815.65,507.67c-6.6-9.7-15.05-15.12-26.12-12.08-7.3-16.56-29.43-13.86-34.82,3.29-10.36-3-19.45,1.49-28.06,8.79Z"/><path class="cls-6" d="M1266.08,494.64c-8.12-25.78-41.37-29.84-52.34-4.95-13.73-3.77-24.77,1.13-33.78,11.14-4.43-5.59-14.93-7.78-22.74-3.21-6.29-20-32-23.12-40.55-3.84-12.88-3.53-22.73,2.77-30.4,14.07h222C1295.32,496.88,1281.65,490.18,1266.08,494.64Z"/><path class="cls-11" d="M1210.77,507.67c-6.59-9.7-15-15.12-26.12-12.08-7.3-16.56-29.42-13.86-34.82,3.29-10.36-3-19.45,1.49-28.06,8.79Z"/><path class="cls-6" d="M1255.56,472.74a6.79,6.79,0,0,1-4.31,1.28,5.7,5.7,0,0,1,6.36-5.27A6.8,6.8,0,0,1,1255.56,472.74Z"/><path class="cls-6" d="M1250.18,467a9.37,9.37,0,0,1-1,6.11,7.87,7.87,0,0,1-2.77-11A9.39,9.39,0,0,1,1250.18,467Z"/><path class="cls-11" d="M1140.52,492.8a2.45,2.45,0,1,1-.63-4.45A6.79,6.79,0,0,1,1140.52,492.8Z"/><path class="cls-11" d="M1132.83,491.24a9.34,9.34,0,0,1,2.72,5.55,7.85,7.85,0,0,1-8.61-7.41A9.29,9.29,0,0,1,1132.83,491.24Z"/><path class="cls-11" d="M933.19,507.67c-5-7.32-11.35-11.41-19.71-9.12-5.51-12.5-22.21-10.46-26.29,2.49-7.81-2.24-14.68,1.12-21.17,6.63Z"/><path class="cls-6" d="M905.47,504.33s1.95-3.8,8-5.78l-1-1.91C908.89,498.38,906.2,501.34,905.47,504.33Z"/><path class="cls-6" d="M887.19,501s3.71,1.69,5.17,3.68a11.46,11.46,0,0,0-4.63-5.16Z"/><rect class="cls-1" x="860.44" y="506.18" width="1005.59" height="3.34"/></g></g></svg>