<svg xmlns="http://www.w3.org/2000/svg" viewBox="0 0 1034.03 509.52"><defs><style>.cls-1{fill:#fff;}.cls-2{fill:#9bb8cc;}.cls-3{fill:#3a383e;}.cls-4,.cls-5{fill:#9e1d22;}.cls-4{opacity:0.2;}.cls-6{fill:#479da3;}.cls-7{fill:#b72e41;}.cls-8{fill:#e1ecef;}.cls-9{fill:#f43d4f;}.cls-10{fill:#994f61;}.cls-11{fill:#7bbfba;}</style></defs><g id="Layer_2" data-name="Layer 2"><g id="Layer_1-2" data-name="Layer 1"><path class="cls-1" d="M498.1,72.56H239.19c1.24-4.56,8.05-20.21,42.7-14.2-5.61-5-9.32-12.69-7.77-20a11.71,11.71,0,0,1,3-6,14,14,0,0,1,5.24-3c13.65-4.91,37.56,13.91,37.56,13.91-29.27-46,50.52-65.31,51.06-7.1,0,0,11.7-20.91,24.5-15.13,5.21,3,2,11.94-.34,15.87,37.39-18.16,71.41-7,55.56,13.7C487.46,51.36,498.1,72.56,498.1,72.56Z"/><path class="cls-1" d="M95.73,231.7c7.11-12.51,18.78-15.75,38.88-8.89-4.05-9.17,8.09-27.23,27.51-8.1-5.83-30.71,40.23-34.26,38-4.55,11.51-14.36,41.93-6.19,30.1,11,17.77-4.41,25-.29,36.64,10.59Z"/><path class="cls-1" d="M218.33,72.56H136.72c-3.05-10.53-1.2-22.44,32.13-12.85C179.28,40.32,199.63,59.68,218.33,72.56Z"/><path class="cls-1" d="M954.79,168.46h-81.6c-3.05-10.53-1.2-22.44,32.13-12.85,8.07-15,21.12-12.31,33.34,4.47C960,143.45,974.49,159.94,954.79,168.46Z"/><rect class="cls-1" x="755.22" y="96.41" width="68.62" height="68.62" transform="translate(1579.06 261.43) rotate(180)"/><polygon class="cls-2" points="755.22 140.06 823.84 132.88 823.84 96.41 755.22 96.41 755.22 140.06"/><polygon class="cls-3" points="680.44 54.99 830.01 53.31 830.01 129.76 777.74 129.76 680.44 54.99"/><rect class="cls-1" x="394.89" y="96.41" width="68.62" height="68.62"/><polygon class="cls-2" points="463.5 140.06 394.89 132.88 394.89 96.41 463.5 96.41 463.5 140.06"/><polygon class="cls-3" points="538.29 54.99 388.72 53.31 388.72 129.76 440.99 129.76 538.29 54.99"/><polygon class="cls-1" points="843.26 507.85 374.66 507.85 374.66 191.11 608.96 10.1 843.26 191.11 843.26 507.85"/><polygon class="cls-4" points="608.71 10.1 374.4 191.11 374.4 217.51 421.7 180.89 421.7 170.88 574.5 46.49 574.5 62.58 599.04 43.58 843.01 222.91 843.01 191.11 608.71 10.1"/><polygon class="cls-5" points="421.7 507.85 574.5 507.24 574.5 62.58 421.7 180.89 421.7 507.85"/><polygon class="cls-5" points="421.7 170.88 421.7 180.89 574.5 62.58 574.5 46.49 421.7 170.88"/><polygon class="cls-3" points="608.98 2.06 338.6 202.59 356.2 221.89 608.98 26.61 861.77 221.89 878.92 198.63 608.98 2.06"/><rect class="cls-1" x="448.63" y="354.29" width="98.31" height="126.43"/><rect class="cls-3" x="455.03" y="360" width="39.08" height="114.02"/><rect class="cls-3" x="501.24" y="360" width="39.08" height="114.02"/><rect class="cls-2" x="448.63" y="479.03" width="98.31" height="1.7"/><rect class="cls-1" x="434.55" y="480.73" width="127.09" height="13.93"/><rect class="cls-1" x="428.35" y="494.27" width="139.5" height="13.58"/><rect class="cls-2" x="434.55" y="492.58" width="127.09" height="1.7"/><rect class="cls-1" x="448.63" y="174.26" width="98.31" height="86.06"/><rect class="cls-3" x="455.03" y="179.97" width="39.08" height="73.65"/><rect class="cls-3" x="501.24" y="179.97" width="39.08" height="73.65"/><polygon class="cls-5" points="553.87 268.32 441.7 273.58 441.7 266.76 553.87 266.76 553.87 268.32"/><polygon class="cls-6" points="444.68 260.33 448.63 260.33 448.63 174.26 446.5 174.26 444.68 260.33"/><rect class="cls-3" x="441.7" y="260.33" width="112.17" height="6.43"/><rect class="cls-3" x="666.96" y="174.26" width="60.5" height="42.54"/><rect class="cls-3" x="602.24" y="174.26" width="59.38" height="42.54"/><polygon class="cls-2" points="727.45 223.19 595.53 223.19 595.53 174.26 593.42 174.26 591.5 227.36 727.45 224.96 727.45 223.19"/><polygon class="cls-2" points="619.78 296.64 617.52 507.85 624.38 507.85 624.38 481.08 624.38 296.64 619.78 296.64"/><rect class="cls-5" x="38.58" y="295.17" width="336.08" height="212.68"/><polygon class="cls-7" points="374.66 299.4 38.58 311.34 38.58 295.17 374.66 295.17 374.66 299.4"/><polygon class="cls-3" points="374.66 295.17 33.38 295.17 33.38 272.96 374.66 277.22 374.66 295.17"/><rect class="cls-1" x="95.73" y="360" width="221.77" height="147.85"/><rect class="cls-8" x="95.73" y="370.36" width="221.77" height="2.51"/><rect class="cls-8" x="95.73" y="378.83" width="221.77" height="2.51"/><rect class="cls-8" x="95.73" y="387.3" width="221.77" height="2.51"/><rect class="cls-8" x="95.73" y="395.77" width="221.77" height="2.51"/><rect class="cls-8" x="95.73" y="404.24" width="221.77" height="2.51"/><rect class="cls-8" x="95.73" y="412.71" width="221.77" height="2.51"/><rect class="cls-8" x="95.73" y="421.18" width="221.77" height="2.51"/><rect class="cls-8" x="95.73" y="429.64" width="221.77" height="2.51"/><rect class="cls-8" x="95.73" y="438.11" width="221.77" height="2.51"/><rect class="cls-8" x="95.73" y="446.58" width="221.77" height="2.51"/><rect class="cls-8" x="95.73" y="455.05" width="221.77" height="2.51"/><rect class="cls-8" x="95.73" y="463.52" width="221.77" height="2.51"/><rect class="cls-8" x="95.73" y="471.99" width="221.77" height="2.51"/><rect class="cls-8" x="95.73" y="480.45" width="221.77" height="2.51"/><rect class="cls-8" x="95.73" y="488.92" width="221.77" height="2.51"/><rect class="cls-8" x="95.73" y="497.39" width="221.77" height="2.51"/><polygon class="cls-3" points="320.9 364.19 89.49 364.19 89.49 351.43 320.9 353.88 320.9 364.19"/><polygon class="cls-7" points="374.42 507.85 367.45 507.85 370.44 295.17 374.42 295.17 374.42 507.85"/><rect class="cls-5" x="624.38" y="295.17" width="315.47" height="212.68"/><rect class="cls-7" x="624.38" y="481.08" width="315.47" height="26.77"/><polygon class="cls-7" points="939.85 319.87 624.38 334.65 624.38 311.34 939.85 311.34 939.85 319.87"/><rect class="cls-1" x="700.29" y="354.29" width="163.35" height="102.92"/><rect class="cls-3" x="706.57" y="360" width="27.97" height="90.8"/><rect class="cls-3" x="738.93" y="360" width="87.12" height="90.8"/><rect class="cls-3" x="830.44" y="360" width="27.97" height="90.8"/><polygon class="cls-7" points="863.64 352.97 700.29 352.97 697.87 352.97 695.87 457.22 700.29 457.22 700.29 354.29 863.64 354.29 863.64 352.97"/><polygon class="cls-7" points="700.29 456.35 863.64 456.35 863.64 458.78 695.87 466.21 695.87 456.35 700.29 456.35"/><polygon class="cls-1" points="949.37 311.34 622.5 311.34 622.5 295.99 949.37 295.35 949.37 311.34"/><polygon class="cls-2" points="949.37 299.68 622.5 303.34 622.5 295.99 949.37 295.35 949.37 299.68"/><polygon class="cls-3" points="958.96 290.91 876.78 249.18 696.1 249.18 608.6 292.76 608.6 297.6 958.96 296.21 958.96 290.91"/><rect class="cls-1" x="628.73" y="306.65" width="11.69" height="11.52"/><rect class="cls-1" x="650.51" y="306.65" width="11.69" height="11.52"/><rect class="cls-1" x="672.29" y="306.65" width="11.69" height="11.52"/><rect class="cls-1" x="694.08" y="306.65" width="11.69" height="11.52"/><rect class="cls-1" x="715.86" y="306.65" width="11.69" height="11.52"/><rect class="cls-1" x="759.43" y="306.65" width="11.69" height="11.52"/><rect class="cls-1" x="737.65" y="306.65" width="11.69" height="11.52"/><rect class="cls-1" x="781.22" y="306.65" width="11.69" height="11.52"/><rect class="cls-1" x="803" y="306.65" width="11.69" height="11.52"/><rect class="cls-1" x="824.79" y="306.65" width="11.69" height="11.52"/><rect class="cls-1" x="846.57" y="306.65" width="11.69" height="11.52"/><rect class="cls-1" x="868.36" y="306.65" width="11.69" height="11.52"/><rect class="cls-1" x="911.92" y="306.65" width="11.69" height="11.52"/><rect class="cls-1" x="890.14" y="306.65" width="11.69" height="11.52"/><rect class="cls-1" x="933.71" y="306.65" width="11.69" height="11.52"/><rect class="cls-2" x="628.73" y="311.34" width="11.69" height="2.24"/><rect class="cls-2" x="650.51" y="311.34" width="11.69" height="2.24"/><rect class="cls-2" x="672.29" y="311.34" width="11.69" height="2.24"/><rect class="cls-2" x="694.08" y="311.34" width="11.69" height="2.24"/><rect class="cls-2" x="715.86" y="311.34" width="11.69" height="2.24"/><rect class="cls-2" x="759.43" y="311.34" width="11.69" height="2.24"/><rect class="cls-2" x="737.65" y="311.34" width="11.69" height="2.24"/><rect class="cls-2" x="781.22" y="311.34" width="11.69" height="2.24"/><rect class="cls-2" x="803" y="311.34" width="11.69" height="2.24"/><rect class="cls-2" x="824.79" y="311.34" width="11.69" height="2.24"/><rect class="cls-2" x="846.57" y="311.34" width="11.69" height="2.24"/><rect class="cls-2" x="868.36" y="311.34" width="11.69" height="2.24"/><rect class="cls-2" x="911.92" y="311.34" width="11.69" height="2.24"/><rect class="cls-2" x="890.14" y="311.34" width="11.69" height="2.24"/><rect class="cls-2" x="933.71" y="311.34" width="11.69" height="2.24"/><rect class="cls-3" x="26.31" y="428.37" width="3.78" height="79.48"/><path class="cls-3" d="M37.36,404.64H13A10.87,10.87,0,0,1,23.8,415.48v16l-2.24.95H46.64a1.55,1.55,0,0,0,1.55-1.56V415.48A10.87,10.87,0,0,0,37.36,404.64Z"/><path class="cls-1" d="M13.22,404.65A10.86,10.86,0,0,0,2.63,415.48v15.76a1.15,1.15,0,0,0,1.15,1.15H22.66a1.15,1.15,0,0,0,1.14-1.15V415.48A10.86,10.86,0,0,0,13.22,404.65Z"/><path class="cls-9" d="M33.06,401.14V397h-7v14.36a2.28,2.28,0,1,0,2.28-2.28h0v-7.42Z"/><polygon class="cls-6" points="444.9 480.73 448.63 480.73 448.63 354.29 446.5 354.29 444.9 480.73"/><polygon class="cls-10" points="967.02 506.43 968.98 478.08 953.29 459.91 954.25 459.13 963.5 467.05 964.86 459.13 966.32 459.51 966.07 469.38 969.83 473.04 971.26 444.07 963.58 434.56 964.44 433.83 972.39 440.19 972.91 425.05 974.98 425.05 976.35 443.67 978.37 462.18 988.73 450.94 989.7 451.59 985.92 457.53 992.5 457.44 992.5 458.54 985.31 459.64 978.24 470.71 979.85 506.43 967.02 506.43"/><path class="cls-6" d="M1034,403.88a22.59,22.59,0,0,0-1.62-10.38c-1.48-3.21-4.38-5.93-7.88-6.43A5.91,5.91,0,0,0,1019,389c3.94-4.91,7.55-10.28,9.1-16.38s.78-13.07-3.28-17.89c-3.9-4.63-10.43-6.63-16.43-5.75a25.69,25.69,0,0,0-15.35,9c.42-9.47,2.6-19,.87-28.34s-9.14-18.66-18.61-18.24c-6.42.29-11.82,4.89-15.92,9.84a65.91,65.91,0,0,0-14.78,36.5c-2.47-3.38-5-6.81-8.27-9.4s-7.53-4.27-11.66-3.59c-6.8,1.11-11.12,8-12.78,14.72a40.23,40.23,0,0,0,.73,21.76c3.7,11.58,12.39,20.77,20.82,29.53-3.87-1.73-8.75.6-10.63,4.4-2.54,5.16-.12,11.11,3.42,15.22a34.88,34.88,0,0,0,11,8c22.83,11.46,50.6,9.8,73.64-.17,8.55-3.7,14.52-9.82,19.06-18a.41.41,0,0,0,0-.09A35.93,35.93,0,0,0,1034,403.88Z"/><path class="cls-6" d="M960.69,452c-1.07-1.24-4.21-1.72-4.15.53-.93-7-10-4.33-5.78,2.33-7-7.27-13.21,2-4.15,6.18-7.7.16-3.4,11.14,3.35,6.35-2.73,1.65-1,5.25,2,4.78C959.75,470.83,967.75,458.34,960.69,452Z"/><path class="cls-11" d="M947,431.39a12.48,12.48,0,0,1-.8-5.78,6,6,0,0,1,3.16-4.68,3.3,3.3,0,0,1,3.25.12,24.5,24.5,0,0,1-7.46-7.26c-1.8-3-2.5-6.82-1.11-10a10.11,10.11,0,0,1,7.81-5.68,14.24,14.24,0,0,1,9.61,2.32c-1.74-5-4.43-9.7-5-14.93s1.89-11.38,7-12.67c3.46-.88,7.07.71,10,2.69a36.69,36.69,0,0,1,13.69,17.05,25.15,25.15,0,0,1,2.89-6.32,8.56,8.56,0,0,1,5.63-3.77c3.79-.5,7.2,2.49,9.15,5.78a22.33,22.33,0,0,1,3.09,11.69c-.12,6.75-3.28,13-6.36,19,1.78-1.54,4.75-1.08,6.36.64,2.17,2.34,1.83,5.89.61,8.64a19.35,19.35,0,0,1-4.56,6c-10.31,9.74-25.35,13.29-39.19,11.67a21.81,21.81,0,0,1-13-6.54l0,0A19.85,19.85,0,0,1,947,431.39Z"/><path class="cls-6" d="M921.16,407.64a8.05,8.05,0,0,1,.53,5.31,6.8,6.8,0,0,1-4.75-8.6A8.07,8.07,0,0,1,921.16,407.64Z"/><path class="cls-6" d="M913.31,412.66c3.72-.22,6.91,2.49,6.91,2.49s-2.85,3.06-6.57,3.28-6.92-2.49-6.92-2.49S909.58,412.88,913.31,412.66Z"/><path class="cls-6" d="M995,460.73a4.32,4.32,0,0,1-2-2,4.27,4.27,0,0,1,2.85,0,4.32,4.32,0,0,1,2,2A4.3,4.3,0,0,1,995,460.73Z"/><path class="cls-6" d="M996.62,456a5.9,5.9,0,0,1-3.72,1.25,5,5,0,0,1,5.38-4.8A5.87,5.87,0,0,1,996.62,456Z"/><path class="cls-11" d="M994.59,378.08a8.08,8.08,0,0,1-4.93,2.05,6.77,6.77,0,0,1,6.85-7A8.07,8.07,0,0,1,994.59,378.08Z"/><path class="cls-11" d="M948.81,393.49a5.62,5.62,0,0,1,2.67,2.58,4.7,4.7,0,0,1-6.37-2.43A5.59,5.59,0,0,1,948.81,393.49Z"/><path class="cls-11" d="M987.51,372c1.29,3.5-.38,7.34-.38,7.34s-3.76-1.84-5-5.34.38-7.34.38-7.34S986.22,368.52,987.51,372Z"/><path class="cls-11" d="M956.15,468a8,8,0,0,1-2,0,3.81,3.81,0,0,1-2.47-1.25,2.63,2.63,0,0,1-.5-2.38c.41-1.13,1.89-.86,2.57-1.71A2.27,2.27,0,0,0,954,461a4.65,4.65,0,0,1-.07-1.78,1.19,1.19,0,0,1,1.28-1c.44.1.71.52,1,.83a.93.93,0,0,0,.67.35c1.1,0,1.36-1.67,2.52-1.46s1.88,1.48,2.22,2.54a5.65,5.65,0,0,1-1,5.41A6.76,6.76,0,0,1,956.15,468Z"/><path class="cls-11" d="M955.2,507.67c-6.59-9.7-15.05-15.12-26.12-12.08-7.3-16.56-29.42-13.86-34.82,3.29-10.36-3-19.45,1.49-28.06,8.79Z"/><path class="cls-6" d="M405.64,494.64c-8.12-25.78-41.37-29.84-52.35-4.95-13.72-3.77-24.76,1.13-33.78,11.14-4.42-5.59-14.92-7.78-22.73-3.21-6.29-20-32-23.12-40.55-3.84-12.89-3.53-22.73,2.77-30.41,14.07h222C434.87,496.88,421.2,490.18,405.64,494.64Z"/><path class="cls-11" d="M350.33,507.67c-6.6-9.7-15.05-15.12-26.12-12.08-7.3-16.56-29.42-13.86-34.82,3.29-10.36-3-19.45,1.49-28.06,8.79Z"/><path class="cls-6" d="M395.11,472.74A6.79,6.79,0,0,1,390.8,474a5.7,5.7,0,0,1,6.37-5.27A6.78,6.78,0,0,1,395.11,472.74Z"/><path class="cls-6" d="M389.73,467a9.33,9.33,0,0,1-1,6.11,7.85,7.85,0,0,1-2.77-11A9.35,9.35,0,0,1,389.73,467Z"/><path class="cls-11" d="M280.07,492.8a6.79,6.79,0,0,1-2.79,3.53,5.72,5.72,0,0,1,2.17-8A6.79,6.79,0,0,1,280.07,492.8Z"/><path class="cls-11" d="M272.39,491.24a9.34,9.34,0,0,1,2.72,5.55,7.85,7.85,0,0,1-8.61-7.41A9.3,9.3,0,0,1,272.39,491.24Z"/><path class="cls-11" d="M72.75,507.67c-5-7.32-11.36-11.41-19.71-9.12-5.51-12.5-22.21-10.46-26.29,2.49-7.82-2.24-14.68,1.12-21.18,6.63Z"/><path class="cls-6" d="M45,504.33s1.94-3.8,8-5.78l-1-1.91C48.45,498.38,45.76,501.34,45,504.33Z"/><path class="cls-6" d="M26.75,501s3.71,1.69,5.16,3.68a11.39,11.39,0,0,0-4.62-5.16Z"/><rect class="cls-3" y="506.18" width="1005.59" height="3.34"/></g></g></svg>