<svg width="251" height="116" viewBox="0 0 251 116" fill="none" xmlns="http://www.w3.org/2000/svg">
<g clip-path="url(#clip0_102_598)">
<path d="M224.495 73L228.722 87.6843L240.561 78.346L235.553 92.7734L250.5 92.3485L238.168 100.995L250.5 109.651L235.553 109.227L240.561 123.644L228.722 114.316L224.495 129L220.278 114.316L208.429 123.644L213.437 109.227L198.5 109.651L210.832 100.995L198.5 92.3485L213.437 92.7734L208.429 78.346L220.278 87.6843L224.495 73Z" fill="white"/>
<path d="M40.5 110C36.0441 103.915 32.3649 97.2534 29.5546 90.1829C27.2873 84.0363 25.9205 77.5697 25.5 71C29.479 76.1097 32.7707 81.76 35.2843 87.795C38.0677 94.8876 39.8254 102.371 40.5 110V110Z" fill="white"/>
<path d="M42.0308 109C38.9127 102.16 36.6534 94.9238 35.3096 87.4733C34.3079 81.0302 34.2353 74.4657 35.0943 68C35.0943 68 39.7187 77.0882 41.282 86.3532C42.5963 93.8218 42.8486 101.454 42.0308 109V109Z" fill="white"/>
<path d="M45.1449 110C42.5809 102.728 41.0343 95.1736 40.5439 87.5266C40.2953 80.9415 41.1029 74.3589 42.9394 68C45.3369 74.1877 46.8279 80.6533 47.3714 87.219C47.8255 94.8743 47.0752 102.551 45.1449 110V110Z" fill="white"/>
<path d="M39.5 112C33.7707 106.985 28.7115 101.245 24.4487 94.9208C20.9232 89.3811 18.2438 83.3402 16.5 77C16.5 77 24.5766 83.4653 29.7708 91.3762C34.0076 97.7297 37.2862 104.68 39.5 112Z" fill="white"/>
<path d="M37.5 114C31.1577 110.026 25.3278 105.185 20.1581 99.5977C15.8446 94.6698 12.2514 89.0742 9.5 83C15.0303 86.2504 20.1223 90.2885 24.6362 95.0036C29.7755 100.624 34.1101 107.025 37.5 114V114Z" fill="white"/>
<path d="M39.5 115C32.3153 112.909 25.4237 109.858 18.9987 105.924C13.5685 102.393 8.68096 98.0363 4.5 93C10.7227 94.6132 16.7056 97.0936 22.2852 100.373C28.6897 104.34 34.4911 109.269 39.5 115V115Z" fill="white"/>
<path d="M40.5 115.987C32.7896 116.113 25.0943 115.3 17.6068 113.57C11.203 111.94 5.0985 109.413 -0.5 106.073C-0.5 106.073 9.96239 105.473 19.2256 107.722C26.7123 109.48 33.881 112.265 40.5 115.987V115.987Z" fill="white"/>
<path d="M118.5 22H114.5V46H118.5V22Z" fill="#27576C"/>
<path d="M135.5 13H132.5V39H135.5V13Z" fill="#27576C"/>
<path d="M154.5 21H150.5V48H154.5V21Z" fill="#27576C"/>
<path d="M215.5 114.738L209.233 113.167L213.161 108.31L206.855 106.886L210.646 101.931L204.302 100.672L207.947 95.6101L201.573 94.5371L205.052 89.3675L198.629 88.4799L201.933 83.2128L195.491 82.5398L198.571 77.1556L192.109 76.7167L194.955 71.2252L188.474 71.0594L191.037 65.4411L184.556 65.5777L186.807 59.8326L180.345 60.3203L182.207 54.468L175.794 55.3653L177.217 49.3862L170.891 50.7517L171.769 44.6945L165.609 46.5868L165.853 40.4808L159.937 42.9778L159.459 36.8719L153.894 40.0224L152.607 34.0237L147.539 37.8375L145.386 32.0729L140.932 36.5207L137.939 31.0878L134.187 36.0818L130.454 31L127.199 36.3354L122.911 31.7023L120.367 37.3596L115.504 33.2629L113.73 39.1836L108.369 35.7014L107.385 41.7781L101.605 38.93L101.391 45.0749L95.3094 42.8705L95.7967 48.996L89.5201 47.3866L90.6312 53.4438L84.2084 52.3806L85.8653 58.3208L79.384 57.7453L81.499 63.5586L74.9885 63.4026L77.503 69.0794L70.9925 69.2939L73.8384 74.8244L67.3572 75.3707L70.4954 80.7548L64.0434 81.6034L67.4449 86.851L61.0319 87.9435L64.6477 93.0545L58.2932 94.3908L62.1039 99.3751L55.7981 100.916L59.7843 105.783L53.537 107.51L57.6889 112.25L51.5 114.172L55.7981 118.785L55.1646 119H211.865L215.5 114.738Z" fill="#2DB898"/>
<path d="M166.495 62L177.5 73.3175H172.869V90H158.239V73.3175H155.5L166.495 62Z" fill="white"/>
<path d="M135.5 73H155.89L166.5 62H146.11L135.5 73Z" fill="#F06370"/>
<path d="M158.5 73H138.5V90H158.5V73Z" fill="#F6D772"/>
<path d="M168.5 76H163.5V82H168.5V76Z" fill="#F6D772"/>
<path d="M166.5 69.5C166.479 69.909 166.364 70.2902 166.179 70.568C165.994 70.8458 165.752 71 165.5 71C165.248 71 165.006 70.8458 164.821 70.568C164.636 70.2902 164.521 69.909 164.5 69.5C164.521 69.0909 164.636 68.7098 164.821 68.432C165.006 68.1541 165.248 68 165.5 68C165.752 68 165.994 68.1541 166.179 68.432C166.364 68.7098 166.479 69.0909 166.5 69.5V69.5Z" fill="#F6D772"/>
<path d="M136.5 73H135.5V76H136.5V73Z" fill="#F06370"/>
<path d="M139.5 73H138.5V76H139.5V73Z" fill="#F06370"/>
<path d="M142.5 73H141.5V76H142.5V73Z" fill="#F06370"/>
<path d="M146.5 73H144.5V76H146.5V73Z" fill="#F06370"/>
<path d="M149.5 73H148.5V76H149.5V73Z" fill="#F06370"/>
<path d="M152.5 73H151.5V76H152.5V73Z" fill="#F06370"/>
<path d="M155.5 73H154.5V76H155.5V73Z" fill="#F06370"/>
<path d="M176.5 86.5442V112H132.5V85L136.168 88.0885L139.827 85L143.495 88.0885L147.163 85L150.822 88.0885L154.49 85L158.148 88.0885L161.817 85L165.485 88.0885L169.153 85L172.822 88.0885L176.5 85V86.5442Z" fill="#2DB898"/>
<path d="M50.5 53H42.5V107H50.5V53Z" fill="#27576C"/>
<path d="M52.5 64H41.5V69H52.5V64Z" fill="#27576C"/>
<path d="M52.5 75H41.5V80H52.5V75Z" fill="#27576C"/>
<path d="M52.5 86H41.5V91H52.5V86Z" fill="#27576C"/>
<path d="M81.4884 34.8932C81.4884 34.8932 82.3065 45.3559 70.2069 52.0719C59.6769 57.9169 48.5 53.2054 48.5 53.2054C48.9712 49.5144 50.3248 45.986 52.4497 42.9102C54.5745 39.8343 57.41 37.2987 60.7232 35.5114C70.2735 30.2472 81.4884 34.8932 81.4884 34.8932Z" fill="#2DB898"/>
<path d="M70.2069 52.9391C82.3065 45.9258 81.4884 35 81.4884 35H81.4408L48.5 54.1325C48.5 54.1325 59.6769 59.0428 70.2069 52.9391Z" fill="#F6D772"/>
<path d="M54.5 50.134L61.1667 55C62.9833 54.8309 64.7732 54.4573 66.5 53.887L58.3857 48L54.5 50.134Z" fill="#F6D772"/>
<path d="M61.5 46.0734L69.9142 52C71.1746 51.3317 72.374 50.5668 73.5 49.713L65.3988 44L61.5 46.0734Z" fill="#F6D772"/>
<path d="M69.5 41.29L77.0246 47C77.9674 45.9266 78.797 44.7572 79.5 43.5105L73.498 39L69.5 41.29Z" fill="#F6D772"/>
<path d="M12.5119 34.8932C12.5119 34.8932 11.6693 45.3559 24.1417 52.0719C34.9878 57.9169 46.5 53.2054 46.5 53.2054C46.0146 49.5144 44.6204 45.986 42.4318 42.9102C40.2432 39.8343 37.3227 37.2987 33.91 35.5114C24.0732 30.2472 12.5119 34.8932 12.5119 34.8932Z" fill="#2DB898"/>
<path d="M24.1417 52.9391C11.6693 45.9258 12.5119 35 12.5119 35H12.5707L46.5 54.1325C46.5 54.1325 34.9878 59.0428 24.1417 52.9391Z" fill="#F6D772"/>
<path d="M40.5 50.134L33.8333 55C32.0167 54.8309 30.2268 54.4573 28.5 53.887L36.6143 48L40.5 50.134Z" fill="#F6D772"/>
<path d="M32.5 46.0734L24.0858 52C22.8253 51.3317 21.626 50.5668 20.5 49.713L28.6012 44L32.5 46.0734Z" fill="#F6D772"/>
<path d="M25.5 41.297L17.9656 47C17.0289 45.9254 16.2028 44.7576 15.5 43.5148L21.4627 39L25.5 41.297Z" fill="#F6D772"/>
<path d="M46.8125 15C46.8125 15 56.3585 19.5346 56.4988 33.8438C56.6205 46.2823 47.1962 54 47.1962 54C44.1888 51.7127 41.7423 48.7121 40.0569 45.2443C38.3716 41.7764 37.4955 37.9401 37.5004 34.0495C37.4256 22.7863 46.8125 15 46.8125 15Z" fill="#2DB898"/>
<path d="M56.4979 33.8628C56.353 19.5392 46.5 15 46.5 15L46.9346 54C46.9346 54 56.6622 46.3137 56.4979 33.8628Z" fill="#F6D772"/>
<path d="M47.5 48L54.9766 44.4237C55.6753 42.6819 56.1863 40.8626 56.5 39L47.5 43.3271V48Z" fill="#2DB898"/>
<path d="M46.5885 39L56.5 34.5C56.483 32.9909 56.3416 31.4857 56.0772 30L46.5 34.3323L46.5885 39Z" fill="#2DB898"/>
<path d="M46.5512 30L55.5 25.9847C55.0001 24.5949 54.3585 23.2597 53.5853 22L46.5 25.1796L46.5512 30Z" fill="#2DB898"/>
<path d="M120.505 76L130.5 87.3079H126.29V104H112.989V87.3079H110.5L120.505 76Z" fill="white"/>
<path d="M92.5 87H110.911L120.5 76H102.089L92.5 87Z" fill="#F06370"/>
<path d="M113.5 87H95.5V104H113.5V87Z" fill="#F6D772"/>
<path d="M122.5 90H118.5V96H122.5V90Z" fill="#F6D772"/>
<path d="M121.5 83.9924C121.502 84.1908 121.416 84.3852 121.252 84.5508C121.088 84.7164 120.854 84.8458 120.579 84.9224C120.305 84.999 120.002 85.0195 119.71 84.9812C119.418 84.9428 119.15 84.8474 118.939 84.7071C118.729 84.5668 118.586 84.3879 118.528 84.1932C118.471 83.9985 118.501 83.7968 118.616 83.6138C118.731 83.4307 118.925 83.2746 119.174 83.1653C119.422 83.056 119.714 82.9985 120.011 83C120.406 83 120.785 83.1046 121.064 83.2907C121.343 83.4768 121.5 83.7292 121.5 83.9924Z" fill="#F6D772"/>
<path d="M93.5 87H92.5V90H93.5V87Z" fill="#F06370"/>
<path d="M128.5 101.053V111H96.5V101.053V100L99.1625 102.106L101.825 100L104.497 102.106L107.16 100L109.823 102.106L112.495 100L115.158 102.106L117.82 100L120.483 102.106L123.155 100L125.828 102.106L128.5 100V101.053Z" fill="#2DB898"/>
<path d="M96.5 87H94.5V90H96.5V87Z" fill="#F06370"/>
<path d="M98.5 87H97.5V90H98.5V87Z" fill="#F06370"/>
<path d="M101.5 87H100.5V90H101.5V87Z" fill="#F06370"/>
<path d="M104.5 87H103.5V90H104.5V87Z" fill="#F06370"/>
<path d="M107.5 87H106.5V90H107.5V87Z" fill="#F06370"/>
<path d="M110.5 87H109.5V90H110.5V87Z" fill="#F06370"/>
<path d="M116.495 7L118.119 13.0231L122.674 9.19485L120.751 15.1158L126.5 14.9423L121.75 18.4949L126.5 22.0475L120.751 21.8739L122.674 27.8051L118.119 23.9667L116.495 30L114.871 23.9667L110.317 27.8051L112.24 21.8739L106.5 22.0475L111.241 18.4949L106.5 14.9423L112.24 15.1158L110.317 9.19485L114.871 13.0231L116.495 7Z" fill="#27576C"/>
<path d="M134.005 0L135.71 5.77098L140.492 2.09942L138.473 7.77275L144.5 7.60674L139.522 11.0049L144.5 14.403L138.473 14.237L140.492 19.9006L135.71 16.2388L134.005 22L132.3 16.2388L127.518 19.9006L129.536 14.237L123.5 14.403L128.488 11.0049L123.5 7.60674L129.536 7.77275L127.518 2.09942L132.3 5.77098L134.005 0Z" fill="#27576C"/>
<path d="M152.495 7L154.119 13.0231L158.683 9.19485L156.751 15.1158L162.5 14.9423L157.759 18.4949L162.5 22.0475L156.751 21.8739L158.683 27.8051L154.119 23.9667L152.495 30L150.871 23.9667L146.317 27.8051L148.249 21.8739L142.5 22.0475L147.241 18.4949L142.5 14.9423L148.249 15.1158L146.317 9.19485L150.871 13.0231L152.495 7Z" fill="#27576C"/>
<path d="M185.5 45H179.5V88H185.5V45Z" fill="#27576C"/>
<path d="M185.5 52H178.5V57H185.5V52Z" fill="#27576C"/>
<path d="M185.5 61H178.5V65H185.5V61Z" fill="#27576C"/>
<path d="M185.5 69H178.5V73H185.5V69Z" fill="#27576C"/>
<path d="M185.5 77H178.5V82H185.5V77Z" fill="#27576C"/>
<path d="M217.5 44.1528C208.104 32.739 193.572 30.2398 181.5 40.3055L185.553 48C193.728 37.7867 206.63 35.2973 217.5 44.1528Z" fill="#F6A961"/>
<path d="M208.5 60C206.698 49.2043 197.824 42.305 185.808 43.0557C185.702 45.1559 185.606 47.2466 185.5 49.3468C194.972 46.8475 204.01 50.9054 208.5 60Z" fill="#F6A961"/>
<path d="M207.5 18.0675C194.285 17.1463 182.449 25.7001 179.5 40.7932L186.778 43C186.807 30.5793 194.637 19.8896 207.5 18.0675Z" fill="#F6A961"/>
<path d="M146.5 43.1512C156.147 31.7325 171.083 29.242 183.5 39.3121L179.334 47C170.922 36.7921 157.682 34.2919 146.5 43.1512Z" fill="#F6A961"/>
<path d="M155.5 60C157.392 49.1019 166.569 41.2929 179.186 42.0508C179.288 44.1709 179.399 46.291 179.5 48.4016C169.564 45.8689 159.487 49.9845 155.5 60Z" fill="#F6A961"/>
<path d="M156.5 18.0675C170.192 17.1467 182.446 25.697 185.5 40.784L177.964 43C177.895 30.554 169.779 19.8686 156.5 18.0675Z" fill="#F6A961"/>
<path d="M215.5 72.3235L214.453 71.2255L210.189 75.6569V69.6765L215.321 64.3431L214.274 63.2549L210.189 67.5V61.0784L213.509 57.6176L212.462 56.5294L210.189 58.8922V51H208.698V58.4608L206.538 56.2157L205.491 57.3039L208.698 60.6471V66.7647L204.547 62.451L203.5 63.5392L208.698 68.9412V75.2255L204.547 70.9118L203.5 72.0098L208.698 77.4118V81H210.189V77.7549L210.226 77.8039L215.5 72.3235Z" fill="#F6D772"/>
<path d="M223.5 102C223.5 107.34 221.916 112.56 218.95 117C215.983 121.441 211.766 124.901 206.832 126.945C201.899 128.988 196.47 129.523 191.233 128.481C185.995 127.439 181.184 124.868 177.408 121.092C173.632 117.316 171.061 112.505 170.019 107.267C168.977 102.03 169.512 96.6012 171.555 91.6676C173.599 86.734 177.059 82.5171 181.5 79.5503C185.94 76.5835 191.16 75 196.5 75C203.661 75 210.528 77.8446 215.592 82.9081C220.655 87.9716 223.5 94.8392 223.5 102Z" fill="#F06370"/>
<path d="M209.699 31L206.5 50.9328L212.5 51L209.699 31Z" fill="#F06370"/>
<path d="M226.5 45L209.5 56.5208L213.565 61L226.5 45Z" fill="#F06370"/>
<path d="M227.5 52L210.5 63.5278L214.565 68L227.5 52Z" fill="#F06370"/>
<path d="M227.5 59L210.5 70.5278L214.565 75L227.5 59Z" fill="#F06370"/>
<path d="M191.5 45L208.5 56.5208L204.425 61L191.5 45Z" fill="#F06370"/>
<path d="M190.5 52L207.5 63.5278L203.435 68L190.5 52Z" fill="#F06370"/>
<path d="M190.5 59L207.5 70.5278L203.435 75L190.5 59Z" fill="#F06370"/>
<path d="M140.011 56.478C138.061 59.0385 134.615 59 134.615 59C134.438 57.9029 134.466 56.7772 134.698 55.6926C134.93 54.608 135.361 53.5878 135.964 52.6952C137.983 50.0385 141.481 50 141.481 50C141.481 50 141.777 54.1583 140.011 56.478Z" fill="#F6D772"/>
<path d="M138.991 42.7881C137.512 45.9127 133.471 47 133.471 47C132.914 45.9882 132.589 44.8819 132.516 43.7495C132.443 42.6172 132.623 41.4831 133.046 40.4176C134.566 37.1754 138.65 36 138.65 36C138.65 36 140.31 39.9573 138.991 42.7881Z" fill="#F6D772"/>
<path d="M121.062 69.1353C119.124 71.9789 115.636 72 115.636 72C115.442 70.7974 115.456 69.56 115.675 68.3639C115.895 67.1677 116.316 66.0381 116.913 65.0444C118.93 62.0951 122.471 62 122.471 62C122.471 62 122.824 66.556 121.062 69.1353Z" fill="#F6D772"/>
<path d="M73.8661 93.4218C71.641 95.981 67.6539 96 67.6539 96C67.4333 94.9185 67.45 93.8058 67.7029 92.7307C67.9557 91.6555 68.4394 90.6408 69.1239 89.7494C71.4195 87.0951 75.4669 87 75.4669 87C75.4669 87 75.8696 91.11 73.8661 93.4218Z" fill="#F6D772"/>
<path d="M127.372 47.4737C128.066 50.8822 125.704 54 125.704 54C125.704 54 122.349 52.2757 121.636 48.7469C120.922 45.218 123.255 42 123.255 42C123.255 42 126.746 44.386 127.372 47.4737Z" fill="#F6D772"/>
<path d="M132.889 64.8426C134.264 67.6788 132.889 71 132.889 71C131.903 70.7644 130.975 70.3178 130.16 69.6882C129.346 69.0586 128.664 68.2594 128.156 67.3403C126.738 64.4035 128.06 61 128.06 61C128.06 61 131.654 62.29 132.889 64.8426Z" fill="#F6D772"/>
<path d="M88.6842 90.2331C90.5197 93.3501 88.6842 97 88.6842 97C87.3703 96.7398 86.1323 96.2485 85.0471 95.5566C83.9619 94.8647 83.0527 93.987 82.3761 92.9781C80.4825 89.7404 82.2483 86 82.2483 86C82.2483 86 87.023 87.4077 88.6842 90.2331Z" fill="#F6D772"/>
<path d="M114.829 52.337C117.379 54.2569 117.5 57.8174 117.5 57.8174C116.448 58.0444 115.36 58.0599 114.301 57.863C113.243 57.6661 112.238 57.2609 111.348 56.6726C108.695 54.6806 108.5 51.0571 108.5 51.0571C108.5 51.0571 112.511 50.5884 114.829 52.337Z" fill="#F6D772"/>
<path d="M152.888 54.2331C154.265 57.3501 152.888 61 152.888 61C151.903 60.7398 150.974 60.2485 150.16 59.5566C149.346 58.8647 148.665 57.987 148.157 56.9781C146.737 53.7404 148.061 50 148.061 50C148.061 50 151.642 51.4077 152.888 54.2331Z" fill="#F6D772"/>
<path d="M144.411 114H139.831L136.534 94.3418C136.241 92.5803 137.871 91 139.996 91H144.008C146.114 91 147.744 92.5602 147.47 94.3116L144.411 114Z" fill="#27576C"/>
<path d="M145.604 116L141.5 113.204L149.059 94.5185C149.737 92.8449 152.005 92.4776 153.968 93.8042L157.561 96.2534C159.456 97.5392 160.084 99.8557 158.896 101.182L145.604 116Z" fill="#27576C"/>
<path d="M143.719 117L142.5 111.929L160.196 103.219C161.789 102.435 163.706 103.836 164.276 106.188L165.348 110.622C165.908 112.953 164.866 115.16 163.136 115.306L143.719 117Z" fill="#27576C"/>
<path d="M138.396 116L142.5 113.209L134.941 94.5159C134.263 92.8452 131.995 92.4785 130.032 93.8028L126.439 96.2477C124.544 97.5312 123.916 99.8436 125.104 101.168L138.396 116Z" fill="#27576C"/>
<path d="M140.334 117L141.5 111.929L124.573 103.219C123.05 102.435 121.207 103.836 120.671 106.188L119.646 110.622C119.11 112.953 120.106 115.16 121.761 115.306L140.334 117Z" fill="#27576C"/>
<path d="M143.096 111H141.02L139.515 100.744C139.383 99.8222 140.122 99 141.09 99H142.912C143.871 99 144.61 99.8111 144.487 100.722L143.096 111Z" fill="#2DB898"/>
<path d="M143.585 112L141.5 110.54L145.295 100.812C145.423 100.598 145.591 100.416 145.79 100.279C145.989 100.141 146.213 100.052 146.446 100.017C146.68 99.9818 146.918 100.001 147.144 100.075C147.37 100.148 147.579 100.273 147.756 100.441L149.559 101.721C149.772 101.828 149.961 101.983 150.113 102.175C150.265 102.368 150.376 102.594 150.439 102.837C150.503 103.08 150.517 103.335 150.48 103.585C150.443 103.834 150.357 104.072 150.227 104.283L143.585 112Z" fill="#2DB898"/>
<path d="M143.022 112L142.5 109.83L150.166 106.096C150.85 105.754 151.687 106.361 151.966 107.366L152.434 109.261C152.677 110.266 152.227 111.213 151.471 111.27L143.022 112Z" fill="#2DB898"/>
<path d="M140.415 112L142.5 110.54L138.705 100.812C138.577 100.598 138.409 100.416 138.21 100.279C138.011 100.141 137.787 100.052 137.554 100.017C137.32 99.9818 137.082 100.001 136.856 100.075C136.63 100.148 136.421 100.273 136.244 100.441L134.441 101.721C134.228 101.828 134.039 101.983 133.887 102.175C133.735 102.368 133.624 102.594 133.561 102.837C133.497 103.08 133.483 103.335 133.52 103.585C133.557 103.834 133.643 104.072 133.773 104.283L140.415 112Z" fill="#2DB898"/>
<path d="M140.978 112L141.5 109.83L133.834 106.096C133.141 105.754 132.313 106.361 132.034 107.366L131.566 109.261C131.323 110.266 131.773 111.213 132.52 111.27L140.978 112Z" fill="#2DB898"/>
<path d="M145.5 111C145.5 111.791 145.295 112.564 144.91 113.222C144.526 113.88 143.979 114.393 143.339 114.695C142.7 114.998 141.996 115.077 141.317 114.923C140.638 114.769 140.015 114.388 139.525 113.828C139.036 113.269 138.702 112.556 138.567 111.78C138.432 111.004 138.502 110.2 138.766 109.469C139.031 108.738 139.48 108.114 140.056 107.674C140.631 107.235 141.308 107 142 107C142.928 107 143.819 107.421 144.475 108.172C145.131 108.922 145.5 109.939 145.5 111Z" fill="#F06370"/>
<path d="M238.5 109C238.5 111.967 237.679 114.867 236.141 117.334C234.602 119.8 232.416 121.723 229.858 122.858C227.299 123.994 224.484 124.291 221.769 123.712C219.053 123.133 216.558 121.704 214.601 119.607C212.643 117.509 211.309 114.836 210.769 111.926C210.229 109.017 210.506 106.001 211.566 103.26C212.625 100.519 214.42 98.1761 216.722 96.5279C219.024 94.8797 221.731 94 224.5 94C228.213 94 231.774 95.5804 234.399 98.3934C237.025 101.206 238.5 105.022 238.5 109V109Z" fill="#F6D772"/>
<path d="M49.8725 116H44.4653L40.5398 94.631C40.1963 92.7163 42.1198 91 44.6321 91H49.3623C51.8647 91 53.7882 92.6964 53.4643 94.6012L49.8725 116Z" fill="#F06370"/>
<path d="M51.0637 119L46.5 115.978L54.923 95.6379C55.677 93.8145 58.2465 93.4518 60.3696 94.8622L64.3381 97.5318C66.4512 98.9321 67.1457 101.451 65.8361 102.891L51.0637 119Z" fill="#F06370"/>
<path d="M48.8262 119L47.5 113.572L66.7442 104.232C68.4769 103.398 70.5679 104.893 71.1777 107.413L72.3297 112.16C72.9492 114.67 71.8166 117.028 69.9386 117.191L48.8262 119Z" fill="#F06370"/>
<path d="M42.9357 119L47.5 115.978L39.0758 95.6379C38.3217 93.8145 35.7518 93.4518 33.6284 94.8622L29.6594 97.5318C27.546 98.9321 26.8514 101.451 28.1711 102.891L42.9357 119Z" fill="#F06370"/>
<path d="M45.1736 119L46.5 113.572L27.2531 104.232C25.5201 103.398 23.4385 104.893 22.8189 107.413L21.6668 112.16C21.0568 114.67 22.1799 117.028 24.0581 117.191L45.1736 119Z" fill="#F06370"/>
<path d="M47.7842 113H45.3088L43.519 101.888C43.3571 100.884 44.252 100 45.4231 100H47.5842C48.7362 100 49.6121 100.873 49.4883 101.867L47.7842 113Z" fill="white"/>
<path d="M48.5569 114L46.5 112.537L50.2742 102.778C50.6139 101.898 51.7744 101.755 52.7274 102.399L54.5297 103.678C55.4732 104.353 55.794 105.56 55.1995 106.256L48.5569 114Z" fill="white"/>
<path d="M48.0765 114L47.5 111.472L55.9674 107.109C56.7241 106.718 57.643 107.42 57.9132 108.593L58.4267 110.81C58.6969 111.984 58.1924 113.087 57.3727 113.157L48.0765 114Z" fill="white"/>
<path d="M45.2145 114L47.5 112.537L43.3064 102.778C42.929 101.898 41.6395 101.755 40.5806 102.399L38.5782 103.678C37.5298 104.353 37.1733 105.56 37.8338 106.256L45.2145 114Z" fill="white"/>
<path d="M45.8613 114L46.5 111.472L37.2634 107.109C36.438 106.718 35.4357 107.42 35.1409 108.593L34.5808 110.81C34.2861 111.984 34.8265 113.087 35.7305 113.157L45.8613 114Z" fill="white"/>
<path d="M91.5389 111H88.6224L86.5222 99.0314C86.333 97.9843 87.3782 97 88.7319 97H91.2801C92.6139 97 93.6591 97.9425 93.48 99.0105L91.5389 111Z" fill="white"/>
<path d="M91.7855 112L89.5 110.292L93.7071 98.9319C94.0802 97.8712 95.3675 97.7015 96.431 98.4971L98.4272 99.982C99.472 100.767 99.8265 102.178 99.1642 102.984L91.7855 112Z" fill="white"/>
<path d="M91.1922 112L90.5 109.109L100.504 104.125C101.452 103.676 102.495 104.483 102.808 105.821L103.415 108.354C103.728 109.692 103.149 110.948 102.163 111.04L91.1922 112Z" fill="white"/>
<path d="M87.7674 112L90.5 110.292L85.4492 98.9319C85.0012 97.8712 83.467 97.7015 82.1903 98.4971L79.7937 99.982C78.5282 100.767 78.1138 102.178 78.8978 102.984L87.7674 112Z" fill="white"/>
<path d="M88.7645 112L89.5 109.109L78.7218 104.125C77.7002 103.676 76.5866 104.483 76.2393 105.821L75.5957 108.354C75.2483 109.692 75.8817 110.948 76.934 111.04L88.7645 112Z" fill="white"/>
<path d="M90.6542 111H89.4106L88.5095 105.008C88.4284 104.476 88.8789 104 89.4557 104H90.546C91.1228 104 91.5644 104.465 91.4923 104.997L90.6542 111Z" fill="#F06370"/>
<path d="M90.6466 112L89.5 111.269L91.6054 106.389C91.7932 105.956 92.4357 105.869 92.9695 106.206L93.958 106.841C94.4917 107.188 94.6598 107.804 94.3336 108.131L90.6466 112Z" fill="#F06370"/>
<path d="M89.8668 112L89.5 110.555L94.8932 108.064C95.3785 107.837 95.9718 108.236 96.1336 108.916L96.4572 110.177C96.619 110.846 96.3062 111.472 95.7884 111.515L89.8668 112Z" fill="#F06370"/>
<path d="M88.1234 112L89.5 111.269L86.9724 106.389C86.7469 105.956 85.9755 105.869 85.3347 106.206L84.148 106.841C83.519 107.188 83.3054 107.804 83.697 108.131L88.1234 112Z" fill="#F06370"/>
<path d="M89.1319 112L89.5 110.547L84.1072 108.064C83.6307 107.836 83.0243 108.238 82.8619 108.921L82.5479 110.189C82.3746 110.862 82.6886 111.49 83.2192 111.534L89.1319 112Z" fill="#F06370"/>
<path d="M51.5 111.5C51.5 112.39 51.2361 113.26 50.7416 114C50.2471 114.74 49.5443 115.317 48.722 115.657C47.8998 115.998 46.995 116.087 46.1221 115.914C45.2492 115.74 44.4473 115.311 43.818 114.682C43.1886 114.053 42.7601 113.251 42.5865 112.378C42.4128 111.505 42.502 110.6 42.8426 109.778C43.1831 108.956 43.7599 108.253 44.4999 107.758C45.24 107.264 46.11 107 47 107C48.1935 107 49.338 107.474 50.1819 108.318C51.0259 109.162 51.5 110.307 51.5 111.5V111.5Z" fill="#2DB898"/>
<path d="M50.5 117C51.0523 117 51.5 116.328 51.5 115.5C51.5 114.672 51.0523 114 50.5 114C49.9477 114 49.5 114.672 49.5 115.5C49.5 116.328 49.9477 117 50.5 117Z" fill="#27576C"/>
<path d="M88.5 114.992C88.5015 115.191 88.4439 115.385 88.3346 115.551C88.2253 115.716 88.0692 115.846 87.8862 115.922C87.7031 115.999 87.5015 116.019 87.3068 115.981C87.1121 115.943 86.9332 115.847 86.7929 115.707C86.6526 115.567 86.5572 115.388 86.5188 115.193C86.4805 114.999 86.5009 114.797 86.5776 114.614C86.6542 114.431 86.7835 114.275 86.9491 114.165C87.1147 114.056 87.3091 113.999 87.5076 114C87.7708 114 88.0232 114.105 88.2093 114.291C88.3954 114.477 88.5 114.729 88.5 114.992V114.992Z" fill="#27576C"/>
<path d="M120.5 115.5C120.5 115.797 120.441 116.087 120.331 116.333C120.222 116.58 120.065 116.772 119.883 116.886C119.7 116.999 119.499 117.029 119.305 116.971C119.111 116.913 118.933 116.77 118.793 116.561C118.653 116.351 118.558 116.084 118.519 115.793C118.481 115.502 118.5 115.2 118.576 114.926C118.652 114.652 118.78 114.418 118.944 114.253C119.109 114.088 119.302 114 119.5 114C119.765 114.003 120.018 114.162 120.205 114.443C120.392 114.723 120.498 115.103 120.5 115.5V115.5Z" fill="#27576C"/>
<path d="M105.5 116.491C105.502 116.987 105.328 117.471 104.999 117.884C104.67 118.296 104.201 118.618 103.653 118.808C103.104 118.998 102.5 119.049 101.917 118.952C101.334 118.856 100.799 118.618 100.379 118.268C99.9585 117.918 99.6726 117.471 99.5572 116.986C99.4417 116.5 99.502 115.996 99.7303 115.539C99.9587 115.082 100.345 114.692 100.84 114.418C101.335 114.144 101.916 113.998 102.51 114C103.303 114 104.064 114.263 104.624 114.73C105.185 115.197 105.5 115.831 105.5 116.491V116.491Z" fill="#27576C"/>
<path d="M147.5 115.49C147.502 115.985 147.357 116.47 147.083 116.882C146.81 117.294 146.42 117.616 145.963 117.807C145.507 117.998 145.004 118.049 144.518 117.953C144.033 117.858 143.586 117.62 143.236 117.271C142.885 116.922 142.646 116.476 142.549 115.991C142.451 115.506 142.5 115.003 142.689 114.545C142.878 114.088 143.199 113.697 143.61 113.422C144.021 113.147 144.505 113 145 113C145.661 113 146.296 113.262 146.764 113.729C147.233 114.196 147.497 114.829 147.5 115.49V115.49Z" fill="#27576C"/>
<path d="M180.747 51.5969C178.773 53.4391 175.952 53.4391 174.434 51.7627C172.917 50.0864 173.289 47.1573 175.253 45.3796C177.218 43.6019 180.048 43.5374 181.566 45.2138C183.083 46.8902 182.711 49.7824 180.747 51.5969Z" fill="#27576C"/>
<path d="M188.203 42.7602C190.802 44.0662 192.14 46.5716 191.199 48.3573C190.258 50.143 187.388 50.5251 184.789 49.2457C182.19 47.9664 180.861 45.4344 181.802 43.6575C182.743 41.8807 185.574 41.4542 188.203 42.7602Z" fill="#27576C"/>
<path d="M176.793 42.4156C176.604 42.0143 176.505 41.5823 176.5 41.1449C176.496 40.7075 176.586 40.2738 176.767 39.8693C176.948 39.4648 177.214 39.0978 177.551 38.79C177.889 38.4822 178.289 38.2398 178.73 38.0773C179.683 37.89 180.678 38.046 181.511 38.5133C182.344 38.9806 182.951 39.7238 183.209 40.5905C183.397 40.9917 183.496 41.4237 183.5 41.8608C183.504 42.2979 183.412 42.7312 183.23 43.135C183.048 43.5388 182.781 43.9048 182.442 44.2113C182.104 44.5177 181.703 44.7583 181.262 44.9189C180.31 45.1112 179.315 44.9585 178.483 44.4923C177.651 44.0261 177.046 43.2824 176.793 42.4156V42.4156Z" fill="#27576C"/>
<path d="M50.5 54.5C50.5 55.1923 50.2654 55.869 49.8259 56.4445C49.3863 57.0201 48.7617 57.4687 48.0308 57.7336C47.2999 57.9985 46.4956 58.0678 45.7197 57.9327C44.9437 57.7977 44.231 57.4644 43.6716 56.9749C43.1122 56.4854 42.7312 55.8617 42.5769 55.1828C42.4225 54.5039 42.5018 53.8001 42.8045 53.1606C43.1073 52.521 43.6199 51.9744 44.2777 51.5898C44.9355 51.2052 45.7089 51 46.5 51C47.5609 51 48.5783 51.3687 49.3284 52.0251C50.0786 52.6815 50.5 53.5718 50.5 54.5Z" fill="#27576C"/>
<path d="M39.5 57.5C39.5 58.1922 39.2947 58.8689 38.9101 59.4445C38.5255 60.0201 37.979 60.4687 37.3394 60.7336C36.6999 60.9985 35.9961 61.0678 35.3172 60.9327C34.6383 60.7977 34.0146 60.4643 33.5251 59.9749C33.0356 59.4854 32.7023 58.8618 32.5672 58.1828C32.4322 57.5039 32.5015 56.8002 32.7664 56.1606C33.0314 55.5211 33.4799 54.9744 34.0555 54.5899C34.6311 54.2053 35.3078 54 36 54C36.9283 54 37.8185 54.3687 38.4749 55.0251C39.1313 55.6815 39.5 56.5717 39.5 57.5Z" fill="#27576C"/>
<path d="M61.5 57.5C61.5 58.1922 61.2654 58.8689 60.8259 59.4445C60.3863 60.0201 59.7617 60.4687 59.0308 60.7336C58.2999 60.9985 57.4956 61.0678 56.7197 60.9327C55.9437 60.7977 55.231 60.4643 54.6716 59.9749C54.1122 59.4854 53.7312 58.8618 53.5769 58.1828C53.4225 57.5039 53.5018 56.8002 53.8045 56.1606C54.1073 55.5211 54.6199 54.9744 55.2777 54.5899C55.9355 54.2053 56.7089 54 57.5 54C58.5609 54 59.5783 54.3687 60.3284 55.0251C61.0786 55.6815 61.5 56.5717 61.5 57.5Z" fill="#27576C"/>
<path d="M242.5 110H11.5V112H242.5V110Z" fill="white"/>
<path d="M235.685 119H18.3147C16.5074 119 14.774 118.263 13.496 116.95C12.218 115.637 11.5 113.857 11.5 112H242.5C242.5 113.857 241.782 115.637 240.504 116.95C239.226 118.263 237.493 119 235.685 119V119Z" fill="#25576C"/>
</g>
<defs>
<clipPath id="clip0_102_598">
<rect width="251" height="116" fill="white"/>
</clipPath>
</defs>
</svg>
