<svg id="Layer_1" data-name="Layer 1" xmlns="http://www.w3.org/2000/svg" viewBox="0 0 296.75 124.91"><defs><style>.cls-1{fill:#26576c;}.cls-2,.cls-4{fill:none;stroke-miterlimit:10;}.cls-2{stroke:#f3f3f3;}.cls-3{fill:#35b799;}.cls-4{stroke:#35b799;stroke-width:3px;}.cls-5{fill:#eeb35b;}.cls-6{fill:#f2d375;}.cls-7{fill:#fff;}</style></defs><path class="cls-1" d="M387.37,444.1l-1.95,7.15v9.58l-2.8-6.33h-3.05v-2l-.84-1.5-.85,1.5v2h-3L372,460.85v-9.6l-1.95-7.15-1.94,7.15V464.6h.17v56.66h20.83V464.6h.17V451.25Zm-9.68,44.41h-2.5v-.83h2.5Zm0-3h-2.5v-.83h2.5Zm0-3.46h-2.5v-.83h2.5Zm0-3h-2.5v-.83h2.5Zm4.57,9.51h-2.08v-.83h2.08Zm0-3h-2.08v-.83h2.08Zm0-3.46h-2.08v-.83h2.08Zm0-3h-2.08v-.83h2.08Z" transform="translate(-364 -402.68)"/><rect class="cls-1" x="96.48" y="102.48" width="34.79" height="15.24"/><rect class="cls-1" x="221.52" y="58.63" width="34.79" height="59.09"/><polygon class="cls-1" points="204.75 17.52 204.75 116.35 176.38 116.35 176.38 17.52 178.7 17.52 178.7 89.1 179.53 89.1 179.53 17.52 182.51 17.52 182.51 89.1 183.35 89.1 183.35 17.52 186.34 17.52 186.34 89.1 187.17 89.1 187.17 17.52 190.15 17.52 190.15 89.1 190.99 89.1 190.99 17.52 193.97 17.52 193.97 89.1 194.8 89.1 194.8 17.52 197.78 17.52 197.78 89.1 198.62 89.1 198.62 17.52 201.6 17.52 201.6 89.1 202.43 89.1 202.43 17.52 204.75 17.52"/><rect class="cls-1" x="146.62" y="80" width="34.79" height="37.72"/><rect class="cls-1" y="88.17" width="34.79" height="28.61"/><rect class="cls-1" x="73.11" y="59.49" width="34.79" height="59.09"/><rect class="cls-1" x="123.78" y="23.78" width="25.62" height="93.94"/><path class="cls-1" d="M627.22,476.72V520.4h33.53V476.72Zm4.08,38.1h-1.67V514h1.67Zm0-3.82h-1.67v-.83h1.67Zm0-3.81h-1.67v-.83h1.67Zm0-3.82h-1.67v-.83h1.67Zm0-3.82h-1.67v-.83h1.67Zm0-3.82h-1.67v-.83h1.67Zm0-3.81h-1.67v-.84h1.67Zm0-3.82h-1.67v-.83h1.67Zm0-3.82h-1.67v-.83h1.67Zm0-3.82h-1.67v-.83h1.67Zm3.32,34.36H633V514h1.66Zm0-3.82H633v-.83h1.66Zm0-3.81H633v-.83h1.66Zm0-3.82H633v-.83h1.66Zm0-3.82H633v-.83h1.66Zm0-3.82H633v-.83h1.66Zm0-3.81H633v-.84h1.66Zm0-3.82H633v-.83h1.66Zm0-3.82H633v-.83h1.66Zm0-3.82H633v-.83h1.66ZM638,514.82h-1.67V514H638Zm0-3.82h-1.67v-.83H638Zm0-3.81h-1.67v-.83H638Zm0-3.82h-1.67v-.83H638Zm0-3.82h-1.67v-.83H638Zm0-3.82h-1.67v-.83H638Zm0-3.81h-1.67v-.84H638Zm0-3.82h-1.67v-.83H638Zm0-3.82h-1.67v-.83H638Zm0-3.82h-1.67v-.83H638Zm3.32,34.36h-1.66V514h1.66Zm0-3.82h-1.66v-.83h1.66Zm0-3.81h-1.66v-.83h1.66Zm0-3.82h-1.66v-.83h1.66Zm0-3.82h-1.66v-.83h1.66Zm0-3.82h-1.66v-.83h1.66Zm0-3.81h-1.66v-.84h1.66Zm0-3.82h-1.66v-.83h1.66Zm0-3.82h-1.66v-.83h1.66Zm0-3.82h-1.66v-.83h1.66Zm3.33,34.36h-1.67V514h1.67Zm0-3.82h-1.67v-.83h1.67Zm0-3.81h-1.67v-.83h1.67Zm0-3.82h-1.67v-.83h1.67Zm0-3.82h-1.67v-.83h1.67Zm0-3.82h-1.67v-.83h1.67Zm0-3.81h-1.67v-.84h1.67Zm0-3.82h-1.67v-.83h1.67Zm0-3.82h-1.67v-.83h1.67Zm0-3.82h-1.67v-.83h1.67Zm3.32,34.36h-1.66V514h1.66Zm0-3.82h-1.66v-.83h1.66Zm0-3.81h-1.66v-.83h1.66Zm0-3.82h-1.66v-.83h1.66Zm0-3.82h-1.66v-.83h1.66Zm0-3.82h-1.66v-.83h1.66Zm0-3.81h-1.66v-.84h1.66Zm0-3.82h-1.66v-.83h1.66Zm0-3.82h-1.66v-.83h1.66Zm0-3.82h-1.66v-.83h1.66Zm3.33,34.36h-1.67V514h1.67Zm0-3.82h-1.67v-.83h1.67Zm0-3.81h-1.67v-.83h1.67Zm0-3.82h-1.67v-.83h1.67Zm0-3.82h-1.67v-.83h1.67Zm0-3.82h-1.67v-.83h1.67Zm0-3.81h-1.67v-.84h1.67Zm0-3.82h-1.67v-.83h1.67Zm0-3.82h-1.67v-.83h1.67Zm0-3.82h-1.67v-.83h1.67Zm3.32,34.36h-1.66V514h1.66Zm0-3.82h-1.66v-.83h1.66Zm0-3.81h-1.66v-.83h1.66Zm0-3.82h-1.66v-.83h1.66Zm0-3.82h-1.66v-.83h1.66Zm0-3.82h-1.66v-.83h1.66Zm0-3.81h-1.66v-.84h1.66Zm0-3.82h-1.66v-.83h1.66Zm0-3.82h-1.66v-.83h1.66Zm0-3.82h-1.66v-.83h1.66Zm3.33,34.36h-1.67V514h1.67Zm0-3.82h-1.67v-.83h1.67Zm0-3.81h-1.67v-.83h1.67Zm0-3.82h-1.67v-.83h1.67Zm0-3.82h-1.67v-.83h1.67Zm0-3.82h-1.67v-.83h1.67Zm0-3.81h-1.67v-.84h1.67Zm0-3.82h-1.67v-.83h1.67Zm0-3.82h-1.67v-.83h1.67Zm0-3.82h-1.67v-.83h1.67Z" transform="translate(-364 -402.68)"/><rect class="cls-1" x="165.4" y="39.13" width="29.86" height="79.45"/><rect class="cls-1" x="194.16" y="82.55" width="34.79" height="34.23"/><rect class="cls-1" x="206.53" y="71.4" width="34.79" height="45.38"/><rect class="cls-1" x="249.2" y="88.17" width="34.79" height="28.61"/><path class="cls-1" d="M423.93,424.6h0c-3.65-5.87-12.87-5.87-16.52,0h0a44,44,0,0,0-6.7,23.22v71.67h29.92V447.82A44,44,0,0,0,423.93,424.6Z" transform="translate(-364 -402.68)"/><path class="cls-1" d="M423.93,424.6h0c-3.65-5.87-12.87-5.87-16.52,0h0a44,44,0,0,0-6.7,23.22v71.67h29.92V447.82A44,44,0,0,0,423.93,424.6Z" transform="translate(-364 -402.68)"/><polyline class="cls-2" points="84.75 91.5 97.1 91.5 97.1 108.54 107.9 108.54"/><line class="cls-2" x1="100.01" y1="91.5" x2="102.51" y2="91.5"/><line class="cls-2" x1="108.32" y1="91.5" x2="110.82" y2="91.5"/><path class="cls-1" d="M435.83,489.48v30h42.05v-30Zm30.26,13.64H464v-.84h2.08Zm0-4.26H464V498h2.08Zm4.44,4.26h-2.22v-.84h2.22Zm0-4.26h-2.22V498h2.22Zm4.3,4.26h-2.08v-.84h2.08Zm0-4.26h-2.08V498h2.08Z" transform="translate(-364 -402.68)"/><path class="cls-3" d="M519.29,451.81a2.12,2.12,0,0,0-2.26,1.56l-32.74-3.44c0-.11,0-.21,0-.32h32.92a2.13,2.13,0,1,0,0-.67H484.31c0-.11,0-.22,0-.32L517,445.18a2.12,2.12,0,1,0-.07-.67L484.22,448c0-.11,0-.21-.05-.32l32.2-6.84a2.12,2.12,0,1,0-.14-.66L484,447a2.81,2.81,0,0,0-.08-.31l31.31-10.17a2.13,2.13,0,1,0-.21-.65L483.74,446c0-.1-.07-.2-.11-.3l30.07-13.39a2.13,2.13,0,1,0-.27-.62l-30.08,13.39-.13-.28,28.5-16.46a2.11,2.11,0,1,0-.34-.58l-28.51,16.46c-.05-.09-.1-.19-.16-.28l26.62-19.34a2.1,2.1,0,1,0-.4-.54L482.3,443.43c-.06-.08-.13-.16-.19-.25l24.46-22a2.11,2.11,0,0,0,2.9-3.06,2.12,2.12,0,0,0-3.36,2.56l-24.46,22-.22-.23,22-24.46a2.12,2.12,0,1,0-.43-3.2,2.13,2.13,0,0,0-.07,2.75l-22,24.46-.25-.2L500,415.18a2.12,2.12,0,1,0-.55-.4l-19.34,26.63-.27-.17,16.46-28.51a2.09,2.09,0,1,0-.59-.33l-16.45,28.5-.29-.14,13.39-30.07a2.13,2.13,0,1,0-.62-.28l-13.38,30.07-.3-.11,10.17-31.31a2.1,2.1,0,1,0-.64-.2l-10.17,31.3-.31-.08,6.84-32.2a2.12,2.12,0,1,0-.66-.14l-6.84,32.2-.32-.05,3.44-32.74a2.12,2.12,0,1,0-.66-.07l-3.45,32.74h-.31V406.88a2.12,2.12,0,1,0-.68,0v32.93h-.32l-3.44-32.74a2.12,2.12,0,1,0-.67.07l3.44,32.74-.31.05-6.84-32.2a2.12,2.12,0,1,0-.66.14l6.84,32.2-.31.08-10.17-31.3a2.14,2.14,0,1,0-.64.2l10.17,31.31-.3.11-13.38-30.07a2.11,2.11,0,1,0-.62.28l13.39,30.07-.29.14-16.45-28.5a2.15,2.15,0,1,0-.59.33l16.46,28.51-.27.17L450.2,414.78a2.12,2.12,0,1,0-.55.4L469,441.81l-.25.2-22-24.46a2.12,2.12,0,1,0-.5.45l22,24.46a2.39,2.39,0,0,0-.22.23l-24.47-22a2.12,2.12,0,1,0-.45.5l24.46,22-.19.25-26.64-19.34a2.12,2.12,0,0,0-3.6-2.2,2.12,2.12,0,0,0,3.21,2.74L467,444c-.06.09-.11.19-.16.28L438.3,427.79a2.13,2.13,0,1,0-.34.58l28.5,16.46-.14.28-30.07-13.39a2.12,2.12,0,0,0-4-1.4,2.12,2.12,0,0,0,3.71,2l30.07,13.39c0,.1-.08.2-.11.3l-31.31-10.18a2.12,2.12,0,1,0-.21.65l31.31,10.17a2.81,2.81,0,0,0-.08.31l-32.2-6.85a2.12,2.12,0,1,0-.14.66l32.2,6.84c0,.11,0,.21-.05.32l-32.74-3.44a2.11,2.11,0,1,0-.07.67l32.74,3.44c0,.1,0,.21,0,.32H432.45a2.12,2.12,0,1,0,0,.67h32.92c0,.11,0,.21,0,.32l-32.74,3.44a2.12,2.12,0,1,0,.07.67l32.74-3.44c0,.1,0,.21.05.31l-32.2,6.85a2.11,2.11,0,1,0,.14.66l32.2-6.85a2.81,2.81,0,0,0,.08.31l-31.31,10.17a2.11,2.11,0,1,0,.21.64l31.31-10.17c0,.1.07.2.11.3L436,466.21a2.12,2.12,0,1,0,.27.61l30.07-13.39c.05.1.09.2.14.29L438,470.18a2.11,2.11,0,1,0,.34.58l28.51-16.46a2.4,2.4,0,0,0,.16.27l-26.62,19.35a2.12,2.12,0,1,0-.25,3.21,2.1,2.1,0,0,0,.64-2.67l26.64-19.35a2.35,2.35,0,0,0,.19.25l-24.46,22a2.11,2.11,0,0,0-2.9,3.06,2.11,2.11,0,0,0,3.35-2.56l24.47-22,.22.23-22,24.46a2.12,2.12,0,1,0,.5.45l22-24.46.25.2-19.35,26.63a2.12,2.12,0,1,0,.55.4l19.34-26.63.27.17-16.46,28.51a2.1,2.1,0,0,0-2.58.91,2.12,2.12,0,1,0,3.17-.58l16.45-28.5.29.14-13.39,30.07a2.11,2.11,0,1,0,.62.27l13.38-30.06.3.11-10.17,31.3a2.13,2.13,0,1,0,.64.21l10.17-31.3.31.08-6.84,32.2a2.12,2.12,0,1,0,.66.14l6.84-32.2.31.05-3.44,32.74a2.12,2.12,0,1,0,.67.07l3.44-32.74h.32v32.92a2.12,2.12,0,1,0,.68,0V458.74h.31l3.44,32.74a2.13,2.13,0,1,0,.67-.07l-3.44-32.74.32-.05,6.84,32.2a2.11,2.11,0,0,0-1.31,2.41,2.12,2.12,0,1,0,2-2.55l-6.84-32.2.31-.08,10.17,31.3a2.11,2.11,0,1,0,.64-.21l-10.17-31.3.3-.11,13.38,30.06a2.12,2.12,0,1,0,3.09.91,2.11,2.11,0,0,0-2.47-1.18L479,457.79l.29-.14,16.45,28.5a2.15,2.15,0,1,0,.59-.33l-16.46-28.51.27-.17,19.34,26.63a2.12,2.12,0,0,0,2.75,3.2,2.12,2.12,0,0,0-2.2-3.6l-19.35-26.63.25-.2L503,481a2.12,2.12,0,1,0,.5-.45l-22-24.46.22-.23,24.46,22a2.14,2.14,0,1,0,.46-.5l-24.46-22c.06-.08.13-.16.19-.25l26.63,19.35a2.14,2.14,0,1,0,.4-.54l-26.62-19.35a2.4,2.4,0,0,0,.16-.27l28.51,16.46a2.12,2.12,0,1,0,3-1.08,2.09,2.09,0,0,0-2.69.5l-28.5-16.46c0-.09.09-.19.13-.29l30.08,13.39a2.11,2.11,0,1,0,.27-.61l-30.07-13.39c0-.1.08-.2.11-.3l31.31,10.17a2.12,2.12,0,1,0,.21-.64L484,451.88a2.81,2.81,0,0,0,.08-.31l32.2,6.85a2.12,2.12,0,1,0,.14-.66l-32.2-6.85c0-.1,0-.21.05-.31L517,454a2.12,2.12,0,1,0,2.33-2.23Z" transform="translate(-364 -402.68)"/><polygon class="cls-4" points="110.84 46.59 142.81 118.51 78.84 118.51 110.84 46.59"/><path class="cls-5" d="M614.17,500.06c0-.23-.07-.46-.07-.71q0-3.14,0-6.28V485.6a.28.28,0,0,1,0-.13s0-.05,0-.07a2.46,2.46,0,0,0,0-.47v-1.79a.45.45,0,0,1,0-.11c0-1.09,0-2.18,0-3.26V472c0-.8,0-1.61,0-2.41a.17.17,0,0,1,0-.07V449c-.09-.4-.19-.79-.27-1.19s-.19-.8-.26-1.19c-.12-.73-.33-1.43-.45-2.15a8.48,8.48,0,0,0-.2-.95,6.39,6.39,0,0,1-.32-1.44c-.05-.5,0-1,0-1.54h.94v-.43h-1v-1.6l-.15.12c0-.11,0-.21,0-.31l-.26.25v1.58h-.78l.08.11-.26.05.22.21.77.05v1.76a12.52,12.52,0,0,1-.3,1.6,1.55,1.55,0,0,1-.47,1.14h-2.5a3.91,3.91,0,0,1-.18-.35c-.5-1.15-.8-2.37-1.2-3.55-.18-.52-.35-1-.5-1.58a6.3,6.3,0,0,1-.33-1.1c-.05-.72,0-1.45,0-2.16a.63.63,0,0,0,.41-.66c-.11-.08-.26-.19-.41-.28l.06-.09h-.6v-2.26l.24-.23v-.34l-.23-.07v-2.28c.28,0,.53,0,.52-.43h-.53c0-.3,0-.56,0-.85l-.24.24.13.13c0,.06-.08.1-.12.15l.11.13c-.11.22-.29.21-.47.22,0,0,0,.07-.09.16l.44.33c0,.2.13.39,0,.63a2.08,2.08,0,0,0,0,.75c0,.23,0,.46.06.73l-.2.2v.34l.28.19a1.6,1.6,0,0,1-.16.19c.07.12.12.24.18.34a2,2,0,0,0-.15.18l.1.1a2,2,0,0,0,0,1.31c-.2.28-.48.1-.64.24a5.09,5.09,0,0,0-.42.3c.11.39.18.49.42.64v1.68a.76.76,0,0,1,0,.27c-.14.3-.14.63-.26.92s-.18.67-.3,1c-.2.59-.32,1.19-.53,1.77s-.36,1.18-.54,1.76-.36.91-.53,1.34H600.4a12.8,12.8,0,0,0-.34-1.45,8.74,8.74,0,0,1-.36-1.49,13.85,13.85,0,0,1,0-1.58h1.07v-.43h-1.08v-1.82l-.27.28v1.55h-.72l-.24.22.23.22h.74v.84l-2,8.92v.41h0v4.79h0v1.33H568.52v-.37h-.27v.4a7.1,7.1,0,0,0-.81,0c-.26,0-.55-.13-.72.07a3,3,0,0,0-.47-.07h-4.33c.16-.34.16-.34,0-.62.26-.23.15-.43,0-.59h-.64v1.05h-1.91c0-.29,0-.55,0-.77l-.23-.07v-.6c.18-.18.38-.32.19-.58a3.16,3.16,0,0,0-.32,0c0-.2,0-.37-.06-.54h-.07c0,.17,0,.34-.06.54a1.41,1.41,0,0,0-.46,0c-.1.05-.16.2-.24.3l.42.26V456l-.36,0c0,.29,0,.56,0,.81h-1.7l-.22-.21v-.85h-.69v1.2h-3.17c-.37,0-.74,0-1.1,0s-.68-.14-1,.11c-.3-.26-.68,0-1-.15h0s0-.05,0-.07v-.29H549v.36H519.25v-1.24h0v-.93c0-.32,0-.64,0-1,0-.16,0-.31,0-.47a.61.61,0,0,0-.12-.38,1.8,1.8,0,0,0,.1-.89c0-.37,0-.73,0-1.1a.19.19,0,0,1,0-.07v-.53h-.13a5.84,5.84,0,0,1-.31-1.23,2.3,2.3,0,0,0-.13-.5,4.37,4.37,0,0,0-.09-.5c-.16-.67-.31-1.34-.45-2s-.26-1.12-.39-1.69-.31-1.39-.43-2.09a12.16,12.16,0,0,1,0-1.71h.79l.23-.4h-1v-1.59l-.27-.26v1.86h-1.19l.27.4H517c.21,1.59-.37,3-.68,4.51H513.6a5.79,5.79,0,0,1-.55-1.43l-.93-2.85c-.16-.52-.25-1.08-.45-1.59a5.38,5.38,0,0,1-.12-1.74c0-.36,0-.73,0-1.14l.32-.25c-.07-.26-.15-.5-.22-.76h-.77v-2.26l.24-.23v-.34l-.23-.07v-2.28c.4-.06.4-.06.51-.43h-.52c0-.3,0-.56,0-.81h-.11v.79l-.56.06c0,.38.3.36.54.42v2.24c-.17.09-.42.09-.39.42l.38.24v2.28H510l-.33.33v.3l.4.33v1.72c0,.13.05.3,0,.4a9.67,9.67,0,0,0-.38,1.15,10.19,10.19,0,0,0-.35,1.23c-.32.95-.63,1.89-.92,2.85a3.58,3.58,0,0,1-.57,1.4h-2.64a10.05,10.05,0,0,1-.58-4.51h.9v-.42h-.94v-1.56l-.08.08-.14-.42c-.33.71-.11,1.31-.22,1.9h-.71l-.23.23.25.21h.72c0,.29,0,.56,0,.83s.09.57-.09.86.06.53-.18.75a10.48,10.48,0,0,1-.44,2.35c-.16.75-.31,1.51-.51,2.26s-.28,1.36-.43,2v19.84c0,1.37,0,2.74,0,4.07h0v26.48h-7.16v2.1h2.11v17.12h12.21v0H511a2.81,2.81,0,0,0,.58,0h.8a1.48,1.48,0,0,0,.47,0h10.77V507.4c3.51-1.83,10.37-4.23,23.07-5.24h18.4c14.41.41,23,2.45,27.88,4.37v12.52c.18.3.45.2.69.21h25.68v-17.1h2v-2.1ZM597.3,457.35c.08.07.14.14.21.21a2.52,2.52,0,0,1-.17.41c-.1.12-.23.23-.34.34a3.68,3.68,0,0,0-.33.35c-.08.11-.15.24-.25.4a16.7,16.7,0,0,1-1.44-1.71Zm-.64,2.09a2.54,2.54,0,0,1,.8-1v2Zm.72,1.44h-2c.33-.43.63-.82.94-1.24Zm-1.22-1.5L594.78,461c-.57-.5-.93-1.11-1.43-1.58.51-.61.95-1.12,1.41-1.68C595.29,458.2,595.66,458.83,596.16,459.38Zm-2,1.49h-2c.33-.41.66-.8,1-1.22Zm.28-3.51a4.69,4.69,0,0,1-1.36,1.63l-1.31-1.63Zm-1.47,2-1.28,1.57c-.36.05-.49-.17-.64-.4a3.72,3.72,0,0,0-.48-.56,2.48,2.48,0,0,1-.4-.66l1.36-1.58Zm-2.06,1.55H589a4.19,4.19,0,0,1,.88-1.22Zm.4-3.52c-.5.61-.92,1.11-1.35,1.65a9.22,9.22,0,0,1-1.43-1.65Zm-1.63,2-1.26,1.54H588l-1.25-1.52c.49-.62,1-1.19,1.44-1.79Zm-2.12,1.5c-.71.08-1.35,0-2,.05l1.05-1.27Zm.38-3.47-1.37,1.67-1.33-1.6A8,8,0,0,1,587.93,457.39Zm-1.69,1.85c.08.31-.24.53-.43.76-.66.85-.68.83-1,.9l-1.25-1.51,1.36-1.72Zm-1.91,1.63a5,5,0,0,1-.94,0c-.31,0-.63,0-1,0a3.93,3.93,0,0,1,1-1.21Zm.28-3.51c-.19.72-.91,1-1.16,1.66a5.13,5.13,0,0,1-1.33-1.66Zm-2.74.55c.35.55,1,.88,1.23,1.5-.42.5-.82,1-1.23,1.49Zm-5.13,1.47,1.23-1.5v3C577.57,460.38,577.17,459.9,576.74,459.38Zm.74,1.5h-2l1-1.23Zm.36-3.53a5.76,5.76,0,0,1-1.36,1.69l-1.37-1.69Zm-1.57,2c-.43.54-.82,1.05-1.18,1.52a.48.48,0,0,1-.56-.23c-.32-.41-.63-.83-1-1.28l1.34-1.69Zm-2,1.51h-2l1-1.21Zm.36-3.55a9.31,9.31,0,0,1-1.34,1.71,12.79,12.79,0,0,1-1.41-1.68C572.83,457.31,573.7,457.35,574.67,457.33Zm-1.58,2.05c-.4.49-.8,1-1.24,1.51h-.34l-1.23-1.49,1.4-1.76C572.19,458.26,572.63,458.8,573.09,459.38Zm-2.09,1.5h-1.94l.93-1.13A4,4,0,0,1,571,460.88Zm-2.09-3.55h2.54L570.09,459a6.18,6.18,0,0,1-1.33-1.62C568.84,457.37,568.88,457.33,568.91,457.33Zm-.36.47c.44.57.83,1.06,1.25,1.59-.4.51-.81,1-1.25,1.56ZM567,459.43a2.52,2.52,0,0,1,.23-.44c.31-.37.64-.74,1-1.14v3.09C567.79,460.41,567.4,459.93,567,459.43Zm.73,1.45h-2l.94-1.22Zm.38-3.52L566.78,459a9,9,0,0,1-1.46-1.68Zm-1.58,2-1.27,1.53c-.31.11-.45-.22-.63-.42a10,10,0,0,1-.75-.94v-.34l1.22-1.48C565.66,458.16,565.94,458.87,566.52,459.37Zm-2,1.47a3.15,3.15,0,0,1-.39.06H563a1.05,1.05,0,0,0-.34.13v-.31l.89-1,.33.15-.12.15Zm.39-3.48-1.39,1.75-1.41-1.75Zm-2.81,1.51-.16-.25c.07-.2.13-.41.21-.64l1,1.21v.37l-1,1.21c-.07-.12-.13-.24-.15-.28a1.9,1.9,0,0,0-.07-1.39Zm-6.63-1v2.91a5.9,5.9,0,0,1-1.2-1.44Zm-.43,3a2.17,2.17,0,0,0-.73.07c-.23.11-.38-.1-.58-.05a3.64,3.64,0,0,1-.75,0c.38-.44.7-.84,1-1.24Zm.32-3.5A8.4,8.4,0,0,1,554,459l-1.35-1.65Zm-3,.35,1.29,1.47a.63.63,0,0,1-.27.67c-.43.29-.51,1-1.09,1.07l-1.26-1.52A9.87,9.87,0,0,1,552.39,457.72Zm-.58,3.16h-2l.95-1.22C551.1,460.05,551.44,460.44,551.81,460.88Zm.36-3.52c-.48.62-.88,1.14-1.31,1.68-.62-.46-.88-1.17-1.49-1.68Zm-2.95.33,1.36,1.7L549.27,461A13.63,13.63,0,0,1,549.22,457.69Zm-1.46,1.69,1.24-1.54v3.05Zm.8,1.51h-2l1-1.22C547.87,460.07,548.18,460.45,548.56,460.89Zm.35-3.53-1.36,1.71-.7-.82-.67-.89Zm-1.63,2-1.19,1.53h-.44l-1.17-1.5a8.55,8.55,0,0,1,1.43-1.76Zm-2.13,1.53h-1.91l.92-1.2c.24.24.51.48.74.74A2.55,2.55,0,0,1,545.15,460.89Zm.34-3.49a13.39,13.39,0,0,1-1.29,1.7c-.49-.62-.92-1.15-1.34-1.69A11.44,11.44,0,0,1,545.49,457.4Zm-2.23,1.13a4.72,4.72,0,0,1,.71.84c-.42.53-.83,1-1.24,1.53h-.27l-1.24-1.56,1.34-1.6C543,457.81,543,458.29,543.26,458.53ZM542,460.88c-.59.1-1.18-.09-1.66.09l-.33-.14,1-1.18C541.35,460.06,541.67,460.45,542,460.88Zm.34-3.48-1.29,1.6c-.61-.4-.87-1.11-1.51-1.55A10.22,10.22,0,0,1,542.36,457.4Zm-2.81.47c.43.52.83,1,1.24,1.51-.18.2-.39.43-.59.67l-.65.84Zm-3.7,3c-.41-.16-.51-.55-.76-.81a1.71,1.71,0,0,1-.5-.84l1.23-1.44C535.87,458.87,535.82,459.87,535.85,460.89Zm-.55,0h-2l1-1.22Zm.31-3.52a17.68,17.68,0,0,1-1.24,1.62,4,4,0,0,1-1.33-1.62Zm-1.56,1.95a8.87,8.87,0,0,1-1.34,1.62,2.54,2.54,0,0,1-.72-.74,8.14,8.14,0,0,0-.71-.79l1.38-1.69C533.18,458.18,533.5,458.82,534.05,459.31Zm-2,1.55a4.37,4.37,0,0,1-.95,0c-.32,0-.63,0-1.05,0,.21-.24.41-.4.57-.59s.3-.42.48-.68l.48.63C531.71,460.45,531.86,460.63,532,460.86Zm.39-3.5A8.63,8.63,0,0,1,531,459c-.22-.26-.45-.51-.66-.78s-.41-.56-.65-.89Zm-1.63,1.89a6.93,6.93,0,0,1-1.09,1.54c-.06.09-.23.1-.37.16-.45-.55-.88-1.08-1.31-1.58.46-.57.9-1.1,1.39-1.72Zm-1.94,1.63h-2.07l1-1.24Zm.32-3.47a9.91,9.91,0,0,1-1.43,1.6l-1.28-1.6A12.28,12.28,0,0,1,529.17,457.41Zm-1.59,1.93-1.3,1.63c-.8-.32-1-1.11-1.61-1.54.52-.64,1-1.24,1.47-1.84Zm-2.12,1.55h-2c.15-.22.27-.43.42-.62a6.79,6.79,0,0,1,.6-.6Zm.4-3.5-1.38,1.68c-.27-.31-.5-.57-.71-.84s-.39-.52-.58-.78A8.22,8.22,0,0,1,525.86,457.39Zm-1.66,1.89c-.2.63-.83,1-1.16,1.62-.59,0-.55-.49-.83-.69a3.08,3.08,0,0,1-.63-.78,5.26,5.26,0,0,1,1.37-1.68C523.34,458.24,523.74,458.73,524.2,459.28Zm-1.93,1.6h-2c.19-.24.34-.44.5-.63s.31-.36.48-.57Zm.3-3.55c-.28.71-.9,1.09-1.23,1.71a10.64,10.64,0,0,1-1.48-1.71Zm-3.32,0,.56,0-.2.23,1.43,1.79-1.23,1.51h-.56Zm78.52,18.46h0v24.26H518.85V493h0V463H547.9c.1.2-.1.52.28.66h1.73c.3-.16.19-.41.22-.65h7.49c0,.19.11.41.16.64h1.9l.19-.19V463s0,0,.08,0a.18.18,0,0,1,.1,0h.06a.57.57,0,0,0,.26,0,1.2,1.2,0,0,1,.6,0l.19,0h.41l.43,0h5.23s0,0,0,0l.15.65h2.09V463h28.28v6a4.24,4.24,0,0,1,0,.62c0,.3,0,.61,0,.91,0,.45,0,.9,0,1.36v1.71a0,0,0,0,0,0,0v.64h0c0,.09,0,.18,0,.27a2.15,2.15,0,0,0,0,.44.27.27,0,0,0,0,.12C597.88,475.34,597.75,475.56,597.77,475.79Z" transform="translate(-364 -402.68)"/><rect class="cls-1" x="4.3" y="78.23" width="60.96" height="40.28"/><path class="cls-6" d="M449.11,467.63h.19V450.45h-1.88V445l.61-.73-1.32-1.42-3.6-9.65h0v-8.52h-.5v-1.32s-3.26-3.3-4.17-15.06h0a.41.41,0,0,0,0-.82h-.14v-3.71h-.12a.52.52,0,0,0,.53-.52.53.53,0,0,0-.53-.53h-.64a.53.53,0,0,0-.53.53.52.52,0,0,0,.53.52h-.12v3.71h-.14a.41.41,0,0,0,0,.82h0c-.48,6.26-1.63,10.12-2.6,12.36-.87,1.65-1.57,2.7-1.57,2.7v1.32h-.5v8.52h0l-3.6,9.65-1.32,1.42.61.73v5.49h-1.88v17.18h.47v.58h-.47v4.16h.54v47.09h21.86V472.37h.54v-4.16h-.47v-.58Zm-11.28-5.46a4.94,4.94,0,1,1,4.94-4.93A4.94,4.94,0,0,1,437.83,462.17Z" transform="translate(-364 -402.68)"/><path class="cls-6" d="M416.77,444.1l-1.94,7.15v9.58L412,454.5h-3v-2l-.84-1.5-.85,1.5v2h-3l-2.82,6.35v-9.6l-1.94-7.15-1.94,7.15V464.6h.16v56.66h20.84V464.6h.17V451.25Zm-9.68,44.41H404.6v-.83h2.49Zm0-3H404.6v-.83h2.49Zm0-3.46H404.6v-.83h2.49Zm0-3H404.6v-.83h2.49Zm4.58,9.51h-2.08v-.83h2.08Zm0-3h-2.08v-.83h2.08Zm0-3.46h-2.08v-.83h2.08Zm0-3h-2.08v-.83h2.08Z" transform="translate(-364 -402.68)"/><path class="cls-1" d="M660.75,520.75c-.09,3.81-4,6.86-8.66,6.84H372.58c-4.39,0-8-2.48-8.52-7.13Z" transform="translate(-364 -402.68)"/><path class="cls-7" d="M660.75,519.18v1.57l-296.69-.29a11.17,11.17,0,0,1-.06-1.17V519Z" transform="translate(-364 -402.68)"/></svg>