<svg width="381" height="300" viewBox="0 0 381 300" fill="none" xmlns="http://www.w3.org/2000/svg">
<path d="M208.538 0H172.169C167.774 0 164.212 3.56282 164.212 7.95779V18.6774C164.212 23.0724 167.774 26.6352 172.169 26.6352H208.538C212.933 26.6352 216.496 23.0724 216.496 18.6774V7.95779C216.496 3.56282 212.933 0 208.538 0Z" fill="#444444"/>
<path d="M158.892 277.253L118.492 295.876V300H262.378V295.876L221.609 277.253H158.892Z" fill="#2B2B2B"/>
<path d="M221.634 183.828H158.892V277.253H221.634V183.828Z" fill="black"/>
<path d="M380.122 28.8084V208.878H0V28.8084C0.00421656 24.7023 1.63828 20.7658 4.54321 17.8639C7.44814 14.962 11.3863 13.3319 15.4924 13.3319H364.63C368.736 13.3319 372.674 14.962 375.579 17.8639C378.484 20.7658 380.118 24.7023 380.122 28.8084Z" fill="black"/>
<g style="mix-blend-mode:multiply" opacity="0.3">
<path d="M262.378 295.876H118.492V300H262.378V295.876Z" fill="black"/>
</g>
<g style="mix-blend-mode:multiply" opacity="0.3">
<path d="M221.609 254.277H158.892V277.253H221.609V254.277Z" fill="#444444"/>
</g>
<path d="M0 208.878V237.735C0 243.736 3.96775 248.601 8.86142 248.601H371.273C376.167 248.601 380.135 243.736 380.135 237.735V208.878H0Z" fill="#2B2B2B"/>
<path d="M194.188 7.07323C194.188 7.771 193.981 8.4531 193.593 9.03331C193.206 9.61353 192.655 10.0658 192.01 10.333C191.366 10.6002 190.656 10.6702 189.972 10.5343C189.288 10.3984 188.659 10.0627 188.165 9.56949C187.672 9.07632 187.335 8.44787 187.199 7.76359C187.062 7.0793 187.132 6.3699 187.398 5.72506C187.665 5.08023 188.117 4.52892 188.696 4.1408C189.276 3.75269 189.958 3.54519 190.656 3.54456C191.12 3.54414 191.579 3.6351 192.007 3.81225C192.436 3.98939 192.825 4.24924 193.153 4.57695C193.481 4.90466 193.741 5.29381 193.919 5.72213C194.096 6.15045 194.188 6.60957 194.188 7.07323V7.07323Z" fill="black"/>
<path d="M371.222 201.061V29.2888C371.222 24.7865 367.442 21.137 362.778 21.137H17.3443C12.6797 21.137 8.89648 24.7865 8.89648 29.2888V201.061H371.222Z" fill="#FFF9F0"/>
<path d="M121.645 46.7794H104.403V180.229H121.645V46.7794Z" fill="#CF8B89"/>
<path d="M97.568 86.7307H80.3256V179.475H97.568V86.7307Z" fill="#CF8B89"/>
<path d="M146.072 75.6929H128.83V180.229H146.072V75.6929Z" fill="#CF8B89"/>
<path d="M73.4911 70.8278H56.2487V179.475H73.4911V70.8278Z" fill="#CF8B89"/>
<path d="M49.414 103.041H32.1716V179.475H49.414V103.041Z" fill="#CF8B89"/>
<path d="M121.645 76.781H104.403V180.226H121.645V76.781Z" fill="#9E1D22"/>
<path d="M97.568 108.106H80.3256V179.475H97.568V108.106Z" fill="#9E1D22"/>
<path d="M146.072 99.0316H128.83V180.229H146.072V99.0316Z" fill="#9E1D22"/>
<path d="M73.4911 95.8689H56.2487V179.475H73.4911V95.8689Z" fill="#9E1D22"/>
<path d="M49.414 120.659H32.1716V179.478H49.414V120.659Z" fill="#9E1D22"/>
<path d="M27.8157 182.345L23.8988 180.315L34.9271 159.035L41.2876 164.193L54.1931 139.603L70.1946 156.967L99.2289 93.212L115.494 119.204L145.016 73.3032L148.726 75.6928L115.44 127.433L99.843 102.509L71.4546 164.845L55.189 147.195L42.6939 171.008L36.3525 165.869L27.8157 182.345Z" fill="#9E1D22"/>
<path d="M147.905 85.0601L143.918 79.1896L136.921 77.9837L150.8 68.5018L147.905 85.0601Z" fill="#9E1D22"/>
<path opacity="0.5" d="M247.449 129.504H164.212V180.229H247.449V129.504Z" fill="#CF8B89"/>
<path d="M72.721 34.4562H20.0106V41.3353H72.721V34.4562Z" fill="#9E1D22"/>
<path d="M64.0791 47.069H20.0106V53.9481H64.0791V47.069Z" fill="#9E1D22"/>
<path d="M45.1885 59.6851H20.0106V66.5642H45.1885V59.6851Z" fill="#9E1D22"/>
<path d="M244.194 165.201H166.843V176.627H244.194V165.201Z" fill="#9E1D22"/>
<path d="M356.312 127.99H255.884V140.771H356.312V127.99Z" fill="#9E1D22"/>
<path d="M356.312 146.96H255.884V159.741H356.312V146.96Z" fill="#9E1D22"/>
<path d="M356.312 165.933H255.884V178.715H356.312V165.933Z" fill="#9E1D22"/>
<path d="M244.194 154.819H166.843V158.602H244.194V154.819Z" fill="#9E1D22"/>
<path d="M244.194 144.573H166.843V148.357H244.194V144.573Z" fill="#9E1D22"/>
<path d="M244.194 134.331H166.843V138.114H244.194V134.331Z" fill="#9E1D22"/>
<path opacity="0.5" d="M356.096 43.448H163.995V118.511H356.096V43.448Z" fill="#9E1D22"/>
<path d="M356.312 56.1531C353.14 56.0072 349.962 56.0859 346.802 56.3886C326.228 58.4695 308.588 71.8237 293.856 86.3361C290.674 89.4702 287.231 92.8621 282.809 93.4984C277.469 94.2716 272.493 90.7907 268.516 87.1347C261.563 80.7711 254.032 72.6955 244.671 73.7996C237.989 74.5855 232.898 79.9374 227.992 84.5606C223.085 89.1838 216.696 93.6543 210.135 92.0984C204.29 90.7143 199.953 85.9352 195.152 82.3301C184.334 74.2133 171.819 81.7733 164.212 89.1361V118.527H356.312V56.1531Z" fill="#9E1D22"/>
<path d="M356.312 74.0764C353.14 73.9289 349.962 74.0076 346.802 74.3119C326.228 76.3928 308.588 89.7438 293.856 104.256C290.674 107.394 287.231 110.782 282.809 111.422C277.469 112.195 272.493 108.714 268.516 105.058C261.563 98.6944 254.032 90.622 244.671 91.7229C237.989 92.512 232.898 97.8639 227.992 102.487C223.085 107.11 216.696 111.581 210.135 110.025C204.29 108.641 199.953 103.858 195.152 100.257C184.334 92.1366 171.819 99.6998 164.212 107.063V118.517H356.312V74.0764Z" fill="black"/>
<path d="M187.512 66.7646H173.811V68.3524H187.512V66.7646Z" fill="#444444"/>
<path d="M186.395 70.3792H173.811V71.9669H186.395V70.3792Z" fill="#444444"/>
<path d="M262.938 59.9746H273.791V58.3869H262.938V59.9746Z" fill="#444444"/>
<path d="M260.09 63.5891H273.791V62.0014H260.09V63.5891Z" fill="#444444"/>
<path d="M328.408 48.749H314.707V50.3368H328.408V48.749Z" fill="#444444"/>
<path d="M328.408 52.3635H319.177V53.9513H328.408V52.3635Z" fill="#444444"/>
<path d="M188.508 71.9682L188.3 72.0922L193.1 80.1287L193.308 80.0047L188.508 71.9682Z" fill="#444444"/>
<path d="M258.537 63.589L253.736 71.6255L253.944 71.7495L258.744 63.713L258.537 63.589Z" fill="#444444"/>
<path d="M318.643 54.8674L313.842 62.9039L314.05 63.0279L318.85 54.9914L318.643 54.8674Z" fill="#444444"/>
<path d="M274.867 127.99H255.884V140.771H274.867V127.99Z" fill="#CF8B89"/>
<path d="M302.447 146.96H255.884V159.741H302.447V146.96Z" fill="#CF8B89"/>
<path d="M278.236 165.933H255.884V178.715H278.236V165.933Z" fill="#CF8B89"/>
<path d="M31.0739 147.459C30.1066 146.471 29.2029 145.453 28.3629 144.405L10.3919 161.956C9.28779 163.034 9.66645 165.214 11.2415 166.827C12.8165 168.44 14.9865 168.87 16.0906 167.782L34.0616 150.231C33.0328 149.376 32.0369 148.452 31.0739 147.459Z" fill="black"/>
<path opacity="0.6" d="M95.7268 147.682C113.746 130.079 114.173 101.292 96.679 83.3839C79.1853 65.4762 50.3961 65.2292 32.3765 82.8322C14.357 100.435 13.9307 129.222 31.4244 147.13C48.9181 165.038 77.7072 165.285 95.7268 147.682Z" fill="#FFF9F0"/>
<g style="mix-blend-mode:soft-light">
<path d="M31.3666 146.651C38.9372 154.73 49.2049 159.755 60.2291 160.779L109.395 110.801C109.395 110.709 109.395 110.614 109.369 110.518C108.21 99.5635 103.124 89.3991 95.0512 81.9038L31.3666 146.651Z" fill="#FFF9F0"/>
</g>
<g style="mix-blend-mode:soft-light">
<path d="M64.4387 69.7333L18.9702 115.95C18.9925 117.35 19.0752 118.759 19.2279 120.175C19.8948 126.425 21.8446 132.471 24.9552 137.933L86.3648 75.5179C79.6715 71.7451 72.122 69.7534 64.4387 69.7333V69.7333Z" fill="#FFF9F0"/>
</g>
<path d="M100.928 79.2247C81.1529 58.9786 48.6058 58.6922 28.2325 78.5883C7.85917 98.4844 7.37233 131.028 27.1475 151.274C46.9226 171.52 79.4697 171.807 99.843 151.911C120.216 132.015 120.716 99.4739 100.928 79.2247ZM31.4207 147.119C13.9206 129.208 14.3597 100.422 32.3753 82.8233C50.3909 65.2246 79.1865 65.4759 96.6771 83.3833C114.168 101.291 113.738 130.08 95.7226 147.682C77.707 165.284 48.9113 165.029 31.4207 147.119Z" fill="black"/>
<g style="mix-blend-mode:multiply" opacity="0.5">
<path d="M98.7007 81.4234C80.1283 62.4055 49.5572 62.1382 30.4184 80.8284C11.2796 99.5185 10.8246 130.086 29.4002 149.104C47.9758 168.122 78.5437 168.393 97.6825 149.703C116.821 131.012 117.276 100.432 98.7007 81.4234ZM31.4207 147.119C13.9205 129.208 14.3596 100.422 32.3752 82.8234C50.3908 65.2246 79.1865 65.476 96.6771 83.3834C114.168 101.291 113.738 130.08 95.7225 147.682C77.7069 165.284 48.9113 165.029 31.4207 147.119Z" fill="#50BFA5"/>
</g>
<path d="M16.7556 174.362L0 190.608V164.721L3.85639 160.982C5.24685 159.642 7.11262 158.909 9.04347 158.944C10.9743 158.979 12.8121 159.78 14.1528 161.17L16.9465 164.069C18.2861 165.459 19.0185 167.324 18.9827 169.255C18.9469 171.185 18.1458 173.022 16.7556 174.362V174.362Z" fill="black"/>
<path d="M366.383 156.515C366.424 156.795 366.548 157.056 366.738 157.266C366.927 157.476 367.175 157.625 367.45 157.694C367.724 157.763 368.013 157.749 368.28 157.654C368.547 157.559 368.779 157.387 368.948 157.16C369.117 156.933 369.215 156.661 369.229 156.378C369.244 156.095 369.174 155.815 369.029 155.571C368.883 155.328 368.669 155.134 368.414 155.012C368.158 154.891 367.872 154.848 367.592 154.889C367.405 154.916 367.226 154.979 367.064 155.076C366.903 155.172 366.762 155.299 366.649 155.45C366.537 155.602 366.455 155.773 366.41 155.956C366.364 156.139 366.355 156.329 366.383 156.515V156.515Z" fill="#FFF9F0"/>
</svg>
