<svg xmlns="http://www.w3.org/2000/svg" viewBox="0 0 1194.66 942.85"><defs><style>.cls-1{isolation:isolate;}.cls-2,.cls-5{fill:#444;}.cls-3{fill:#2b2b2b;}.cls-4,.cls-5{opacity:0.3;}.cls-15,.cls-4,.cls-5{mix-blend-mode:multiply;}.cls-13,.cls-14,.cls-6{fill:#fff9f0;}.cls-10,.cls-7{fill:#ffe1a3;}.cls-8{fill:#ffbe2e;}.cls-9{fill:#d18c11;}.cls-10,.cls-11,.cls-15{opacity:0.5;}.cls-11,.cls-12{fill:#ffebc7;}.cls-13{opacity:0.6;}.cls-14{mix-blend-mode:soft-light;}.cls-15{fill:#50bfa5;}</style></defs><g class="cls-1"><g id="Layer_1" data-name="Layer 1"><rect class="cls-2" x="516.09" width="164.32" height="83.71" rx="25.01"/><polygon class="cls-3" points="499.37 871.36 372.4 929.89 372.4 942.85 824.61 942.85 824.61 929.89 696.48 871.36 499.37 871.36"/><rect x="499.37" y="577.74" width="197.19" height="293.62"/><path d="M2374.46,594.64v565.93H1179.8V594.64A48.69,48.69,0,0,1,1228.49,546H2325.77A48.69,48.69,0,0,1,2374.46,594.64Z" transform="translate(-1179.8 -504.1)"/><rect class="cls-4" x="372.4" y="929.89" width="452.21" height="12.96"/><rect class="cls-5" x="499.37" y="799.15" width="197.11" height="72.21"/><path class="cls-3" d="M1179.8,1160.57v90.69c0,18.86,12.47,34.15,27.85,34.15h1139c15.38,0,27.85-15.29,27.85-34.15v-90.69Z" transform="translate(-1179.8 -504.1)"/><path d="M1790.1,526.33A11.09,11.09,0,1,1,1779,515.24,11.09,11.09,0,0,1,1790.1,526.33Z" transform="translate(-1179.8 -504.1)"/><path class="cls-6" d="M2346.49,1136V596.15c0-14.15-11.88-25.62-26.54-25.62H1234.31c-14.66,0-26.55,11.47-26.55,25.62V1136Z" transform="translate(-1179.8 -504.1)"/><rect class="cls-7" x="328.12" y="147.02" width="54.19" height="419.41"/><rect class="cls-7" x="252.45" y="272.58" width="54.19" height="291.48"/><rect class="cls-7" x="404.89" y="237.89" width="54.19" height="328.54"/><rect class="cls-7" x="176.78" y="222.6" width="54.19" height="341.46"/><rect class="cls-7" x="101.11" y="323.84" width="54.19" height="240.22"/><rect class="cls-8" x="328.12" y="241.31" width="54.19" height="325.11"/><rect class="cls-8" x="252.45" y="339.76" width="54.19" height="224.3"/><rect class="cls-8" x="404.89" y="311.24" width="54.19" height="255.19"/><rect class="cls-8" x="176.78" y="301.3" width="54.19" height="262.76"/><rect class="cls-8" x="101.11" y="379.21" width="54.19" height="184.86"/><polygon class="cls-9" points="87.42 573.08 75.11 566.7 109.77 499.82 129.76 516.03 170.32 438.75 220.61 493.32 311.86 292.95 362.98 374.64 455.76 230.38 467.42 237.89 362.81 400.5 313.79 322.17 224.57 518.08 173.45 462.61 134.18 537.45 114.25 521.3 87.42 573.08"/><polygon class="cls-9" points="464.84 267.33 452.31 248.88 430.32 245.09 473.94 215.29 464.84 267.33"/><rect class="cls-10" x="516.09" y="407.01" width="261.6" height="159.42"/><rect class="cls-2" x="62.89" y="108.29" width="165.66" height="21.62"/><rect class="cls-2" x="62.89" y="147.93" width="138.5" height="21.62"/><rect class="cls-2" x="62.89" y="187.58" width="79.13" height="21.62"/><rect class="cls-3" x="524.36" y="519.2" width="243.1" height="35.91"/><rect class="cls-9" x="804.2" y="402.25" width="315.63" height="40.17"/><rect class="cls-9" x="804.2" y="461.87" width="315.63" height="40.17"/><rect class="cls-9" x="804.2" y="521.5" width="315.63" height="40.17"/><rect class="cls-2" x="524.36" y="486.57" width="243.1" height="11.89"/><rect class="cls-2" x="524.36" y="454.37" width="243.1" height="11.89"/><rect class="cls-2" x="524.36" y="422.18" width="243.1" height="11.89"/><rect class="cls-11" x="515.41" y="136.55" width="603.74" height="235.91"/><path class="cls-8" d="M2299.63,680.58a211.56,211.56,0,0,0-29.89.74c-64.66,6.54-120.1,48.51-166.4,94.12-10,9.85-20.82,20.51-34.72,22.51-16.78,2.43-32.42-8.51-44.92-20-21.85-20-45.52-45.38-74.94-41.91-21,2.47-37,19.29-52.42,33.82s-35.5,28.58-56.12,23.69c-18.37-4.35-32-19.37-47.09-30.7-34-25.51-73.33-1.75-97.24,21.39v92.37h603.74Z" transform="translate(-1179.8 -504.1)"/><path d="M2299.63,736.91a210.07,210.07,0,0,0-29.89.74c-64.66,6.54-120.1,48.5-166.4,94.11-10,9.86-20.82,20.51-34.72,22.52-16.78,2.43-32.42-8.51-44.92-20-21.85-20-45.52-45.37-74.94-41.91-21,2.48-37,19.3-52.42,33.83s-35.5,28.58-56.12,23.69c-18.37-4.35-32-19.38-47.09-30.7-34-25.52-73.33-1.75-97.24,21.39v36h603.74Z" transform="translate(-1179.8 -504.1)"/><rect class="cls-2" x="546.26" y="209.83" width="43.06" height="4.99"/><rect class="cls-2" x="546.26" y="221.19" width="39.55" height="4.99"/><rect class="cls-2" x="2006.17" y="687.6" width="34.11" height="4.99" transform="translate(2866.65 876.09) rotate(180)"/><rect class="cls-2" x="1997.22" y="698.96" width="43.06" height="4.99" transform="translate(2857.7 898.81) rotate(180)"/><rect class="cls-2" x="989.07" y="153.21" width="43.06" height="4.99"/><rect class="cls-2" x="1003.12" y="164.57" width="29.01" height="4.99"/><rect class="cls-2" x="1779.08" y="728.39" width="0.76" height="29.42" transform="translate(-1309.08 513.54) rotate(-30.85)"/><rect class="cls-2" x="1970.41" y="716.39" width="29.42" height="0.76" transform="translate(-827.99 1549.37) rotate(-59.15)"/><rect class="cls-2" x="2159.33" y="688.99" width="29.42" height="0.76" transform="translate(-712.44 1698.2) rotate(-59.15)"/><rect class="cls-12" x="804.2" y="402.25" width="59.66" height="40.17"/><rect class="cls-12" x="804.2" y="461.87" width="146.34" height="40.17"/><rect class="cls-12" x="804.2" y="521.5" width="70.25" height="40.17"/><path d="M1277.46,967.54q-4.56-4.66-8.52-9.6l-56.48,55.16c-3.47,3.39-2.28,10.24,2.67,15.31s11.77,6.42,15.24,3l56.48-55.16Q1282,972.22,1277.46,967.54Z" transform="translate(-1179.8 -504.1)"/><ellipse class="cls-13" cx="1381.1" cy="866.32" rx="143.35" ry="142.46" transform="translate(-1392.01 707.63) rotate(-44.33)"/><path class="cls-14" d="M1278.38,965a142.34,142.34,0,0,0,90.71,44.4l154.52-157.07c0-.29,0-.59-.08-.89a143.3,143.3,0,0,0-45-89.93Z" transform="translate(-1179.8 -504.1)"/><path class="cls-14" d="M1382.32,723.26l-142.9,145.25c.07,4.4.33,8.83.81,13.28a143.55,143.55,0,0,0,18,55.81l193-196.16A141.09,141.09,0,0,0,1382.32,723.26Z" transform="translate(-1179.8 -504.1)"/><path d="M1497,753.09c-62.15-63.63-164.44-64.53-228.47-2s-65.56,164.81-3.41,228.44,164.44,64.53,228.47,2S1559.19,816.73,1497,753.09ZM1278.55,966.47c-55-56.29-53.62-146.76,3-202.07s147.12-54.52,202.09,1.76,53.62,146.76-3,202.08S1333.52,1022.76,1278.55,966.47Z" transform="translate(-1179.8 -504.1)"/><path class="cls-15" d="M1490,760c-58.37-59.77-154.45-60.61-214.6-1.87s-61.58,154.81-3.2,214.58,154.45,60.62,214.6,1.88S1548.38,819.74,1490,760ZM1278.55,966.47c-55-56.29-53.62-146.76,3-202.07s147.12-54.52,202.09,1.76,53.62,146.76-3,202.08S1333.52,1022.76,1278.55,966.47Z" transform="translate(-1179.8 -504.1)"/><path d="M1232.46,1052.09l-52.66,51.06v-81.36l12.12-11.75a22.89,22.89,0,0,1,32.36.59l8.78,9.11A22.88,22.88,0,0,1,1232.46,1052.09Z" transform="translate(-1179.8 -504.1)"/><path class="cls-6" d="M2331.28,996a4.5,4.5,0,1,0,3.8-5.11A4.49,4.49,0,0,0,2331.28,996Z" transform="translate(-1179.8 -504.1)"/></g></g></svg>