<svg xmlns="http://www.w3.org/2000/svg" viewBox="0 0 294.37 166.46"><defs><style>.cls-1{isolation:isolate;}.cls-2{fill:#4798cb;}.cls-3{fill:#26576c;}.cls-4,.cls-5,.cls-6{fill:#1389bc;}.cls-5{mix-blend-mode:multiply;}.cls-6{opacity:0.2;}.cls-7{fill:#466d71;}.cls-8{fill:#f9a764;}.cls-9{fill:none;}.cls-10{fill:#35b799;}.cls-11{fill:#f2d375;}.cls-12{fill:#c2d3e2;}.cls-13{fill:#618847;}.cls-14{fill:#fff;}</style></defs><g class="cls-1"><g id="Layer_2" data-name="Layer 2"><polygon class="cls-2" points="21.45 155.77 30.73 155.77 30.73 127.67 21.45 132.88 21.45 155.77"/><polygon class="cls-3" points="37.06 155.77 42.52 155.77 42.52 130.59 37.06 124.86 37.06 155.77"/><rect class="cls-2" x="12.79" y="129.27" width="8.66" height="26.5"/><rect class="cls-2" x="16.05" y="125.82" width="5.4" height="3.7"/><rect class="cls-2" x="30.11" y="142.37" width="6.95" height="13.39"/><rect class="cls-2" x="31.43" y="140.5" width="4.33" height="1.87"/><polygon class="cls-2" points="32.38 138.64 32.38 140.5 34.8 140.5 34.8 138.64 33.59 136.59 32.38 138.64"/><line class="cls-3" x1="292.62" y1="155.14" x2="292.62" y2="128.64"/><rect class="cls-3" x="283.96" y="123.05" width="8.66" height="32.09"/><rect class="cls-3" x="285.59" y="118.58" width="5.4" height="4.48"/><polygon class="cls-3" points="286.79 111.38 286.79 118.58 289.8 118.58 289.8 111.38 288.3 108.24 286.79 111.38"/><rect class="cls-3" x="259.18" y="134.85" width="6.95" height="20.3"/><rect class="cls-2" x="260.49" y="132.01" width="4.33" height="2.83"/><polygon class="cls-2" points="261.45 129.19 261.45 132.01 263.86 132.01 263.86 129.19 262.66 126.08 261.45 129.19"/><polygon class="cls-3" points="280.95 139.24 280.95 155.14 283.96 155.14 283.96 139.24 282.46 121.83 280.95 139.24"/><polygon class="cls-2" points="256.12 155.14 264.78 155.14 264.78 138.69 256.12 134.94 256.12 155.14"/><polygon class="cls-3" points="279.32 155.14 284.78 155.14 284.78 138.69 279.32 134.94 279.32 155.14"/><rect class="cls-2" x="242.08" y="128.06" width="8.67" height="27.08"/><rect class="cls-2" x="243.72" y="124.28" width="5.4" height="3.78"/><rect class="cls-2" x="232.71" y="138.43" width="8.66" height="16.71"/><rect class="cls-2" x="234.34" y="136.1" width="5.4" height="2.33"/><polygon class="cls-2" points="235.53 132.35 235.53 136.1 238.54 136.1 238.54 132.35 237.04 128.25 235.53 132.35"/><rect class="cls-2" x="266.13" y="141.75" width="6.95" height="13.4"/><rect class="cls-2" x="267.43" y="139.88" width="4.32" height="1.87"/><polygon class="cls-3" points="268.39 138.01 268.39 139.88 270.81 139.88 270.81 138.01 269.6 135.97 268.39 138.01"/><rect class="cls-3" x="272.38" y="128.05" width="6.94" height="27.09"/><rect class="cls-3" x="273.68" y="120.32" width="4.33" height="7.74"/><polygon class="cls-3" points="274.64 120.5 274.64 124.27 277.06 124.27 277.06 120.5 275.85 116.36 274.64 120.5"/><polygon class="cls-2" points="252.03 142.34 252.03 155.14 255.05 155.14 255.05 142.34 253.54 128.31 252.03 142.34"/><rect class="cls-3" x="36.65" y="132.51" width="22.63" height="23.26"/><rect class="cls-3" x="38.63" y="114.93" width="18.7" height="17.58"/><rect class="cls-3" x="40.62" y="112.65" width="14.72" height="2.28"/><rect class="cls-3" x="38.63" y="114.93" width="1.99" height="2.97"/><rect class="cls-3" x="55.34" y="114.93" width="1.99" height="2.97"/><rect class="cls-3" x="40.62" y="114.93" width="0.23" height="40.84"/><rect class="cls-3" x="39.63" y="117.89" width="0.23" height="37.88"/><rect class="cls-3" x="38.63" y="117.89" width="0.23" height="37.88"/><rect class="cls-3" x="37.64" y="132.53" width="0.23" height="23.24"/><rect class="cls-3" x="36.64" y="132.53" width="0.23" height="23.24"/><rect class="cls-3" x="56.07" y="117.89" width="0.23" height="37.88"/><rect class="cls-3" x="57.06" y="117.89" width="0.23" height="37.88"/><rect class="cls-3" x="58.06" y="132.53" width="0.23" height="23.24"/><rect class="cls-3" x="59.05" y="132.53" width="0.23" height="23.24"/><rect class="cls-3" x="41.53" y="114.93" width="0.23" height="40.84"/><rect class="cls-3" x="42.44" y="114.93" width="0.23" height="40.84"/><rect class="cls-3" x="43.34" y="114.93" width="0.23" height="40.84"/><rect class="cls-3" x="44.25" y="114.93" width="0.23" height="40.84"/><rect class="cls-3" x="45.16" y="114.93" width="0.23" height="40.84"/><rect class="cls-3" x="46.07" y="114.93" width="0.23" height="40.84"/><rect class="cls-3" x="46.97" y="114.93" width="0.23" height="40.84"/><rect class="cls-3" x="47.88" y="114.93" width="0.23" height="40.84"/><rect class="cls-3" x="48.79" y="114.93" width="0.23" height="40.84"/><rect class="cls-3" x="49.7" y="114.93" width="0.23" height="40.84"/><rect class="cls-3" x="50.6" y="114.93" width="0.23" height="40.84"/><rect class="cls-3" x="51.51" y="114.93" width="0.23" height="40.84"/><rect class="cls-3" x="52.42" y="114.93" width="0.23" height="40.84"/><rect class="cls-3" x="53.33" y="114.93" width="0.23" height="40.84"/><rect class="cls-3" x="54.23" y="114.93" width="0.23" height="40.84"/><rect class="cls-3" x="55.14" y="114.93" width="0.23" height="40.84"/><path class="cls-3" d="M412.16,237.74h-2v-2.28H401.9c-4,4.17-4.63,9.74-4.63,15.88,0,11.44,5.67,20.94,16.84,23v-19h-1.95Z" transform="translate(-354.83 -122.81)"/><rect class="cls-3" x="42.45" y="111.08" width="11.27" height="1.57"/><polygon class="cls-3" points="44.23 108.68 42.45 111.08 53.71 111.08 51.93 108.68 44.23 108.68"/><polygon class="cls-3" points="97.09 69.86 99.19 69.86 98.14 58.19 97.09 69.86"/><rect class="cls-3" x="91.66" y="72.63" width="12.85" height="3.42"/><polygon class="cls-3" points="85.34 75.78 85.34 155.77 110.94 155.77 110.94 75.78 98.15 74.28 85.34 75.78"/><polygon class="cls-3" points="85.34 155.77 110.97 155.77 98.15 74.28 85.34 155.77"/><polygon class="cls-3" points="85.34 155.77 98.15 74.28 85.34 75.78 85.34 155.77"/><rect class="cls-3" x="94.61" y="69.79" width="6.83" height="2.83"/><polygon class="cls-3" points="110.94 155.77 110.94 75.78 101.59 74.69 110.94 155.77"/><polygon class="cls-3" points="91.52 107.32 85.34 155.77 110.97 155.77 104.78 107.32 91.52 107.32"/><rect class="cls-2" x="152.42" y="127.57" width="14.02" height="28.19"/><rect class="cls-2" x="153.47" y="125.29" width="11.92" height="2.65"/><rect class="cls-2" x="155.15" y="123.94" width="8.57" height="1.59"/><rect class="cls-2" x="156.63" y="122.6" width="5.6" height="1.59"/><polygon class="cls-2" points="156.63 123.98 155.15 123.98 155.15 125.36 153.47 125.36 153.47 127.57 152.42 127.57 152.42 155.77 158.04 155.77 158.04 122.6 156.63 122.6 156.63 123.98"/><rect class="cls-3" x="72.2" y="124.38" width="28.81" height="31.39"/><path class="cls-3" d="M441.45,215.52c-4.18,0-7.57,2.15-7.57,4.8s3.39,4.79,7.57,4.79S449,223,449,220.32,445.63,215.52,441.45,215.52Z" transform="translate(-354.83 -122.81)"/><rect class="cls-3" x="74.71" y="100.65" width="23.81" height="23.73"/><polygon class="cls-3" points="74.71 124.38 98.53 124.38 74.71 120.96 74.71 124.38"/><polygon class="cls-3" points="72.28 134.02 101.01 134.02 72.28 130.66 72.28 134.02"/><rect class="cls-3" x="77.25" y="97.57" width="18.74" height="3.08"/><rect class="cls-3" x="70.99" y="134.02" width="31.26" height="21.74"/><rect class="cls-3" x="74.71" y="100.65" width="2.53" height="4"/><polygon class="cls-3" points="70.97 155.77 102.25 155.77 70.99 151.88 70.97 155.77"/><rect class="cls-3" x="95.99" y="100.65" width="2.53" height="4"/><rect class="cls-3" x="77.25" y="100.65" width="0.29" height="55.12"/><rect class="cls-3" x="75.98" y="104.65" width="0.29" height="51.12"/><rect class="cls-3" x="74.71" y="104.65" width="0.29" height="51.12"/><rect class="cls-3" x="73.45" y="124.41" width="0.29" height="31.36"/><rect class="cls-3" x="72.18" y="124.41" width="0.29" height="31.36"/><rect class="cls-3" x="96.92" y="104.65" width="0.29" height="51.12"/><rect class="cls-3" x="98.18" y="104.65" width="0.29" height="51.12"/><rect class="cls-3" x="99.45" y="124.41" width="0.29" height="31.36"/><rect class="cls-3" x="100.72" y="124.41" width="0.29" height="31.36"/><rect class="cls-3" x="78.4" y="100.65" width="0.29" height="55.12"/><rect class="cls-3" x="79.56" y="100.65" width="0.29" height="55.12"/><rect class="cls-3" x="80.71" y="100.65" width="0.29" height="55.12"/><rect class="cls-3" x="81.87" y="100.65" width="0.29" height="55.12"/><rect class="cls-3" x="83.02" y="100.65" width="0.29" height="55.12"/><rect class="cls-3" x="84.18" y="100.65" width="0.29" height="55.12"/><rect class="cls-3" x="85.34" y="100.65" width="0.29" height="55.12"/><rect class="cls-3" x="86.49" y="100.65" width="0.29" height="55.12"/><rect class="cls-3" x="87.65" y="100.65" width="0.29" height="55.12"/><rect class="cls-3" x="88.8" y="100.65" width="0.29" height="55.12"/><rect class="cls-3" x="89.96" y="100.65" width="0.29" height="55.12"/><rect class="cls-3" x="91.11" y="100.65" width="0.29" height="55.12"/><rect class="cls-3" x="92.27" y="100.65" width="0.29" height="55.12"/><rect class="cls-3" x="93.43" y="100.65" width="0.29" height="55.12"/><rect class="cls-3" x="94.58" y="100.65" width="0.29" height="55.12"/><rect class="cls-3" x="95.74" y="100.65" width="0.29" height="55.12"/><path class="cls-3" d="M455.84,247.19h-2.48V223.46h-2.54v-3.07H440.29c-5.08,5.62-5.9,13.14-5.9,21.43,0,15.43,8.46,28.26,22.69,31v-16h-1.24Z" transform="translate(-354.83 -122.81)"/><polygon class="cls-3" points="77.25 100.65 74.71 100.65 74.71 124.38 72.19 124.38 72.19 134.02 70.99 134.02 70.99 155.77 72.19 155.77 83.31 155.77 83.31 97.57 77.25 97.57 77.25 100.65"/><polygon class="cls-3" points="141.08 155.77 145.76 155.77 145.76 100.7 141.08 104.95 141.08 155.77"/><polygon class="cls-3" points="145.76 155.77 155.11 155.77 155.11 104.95 145.76 100.7 145.76 155.77"/><polygon class="cls-3" points="145.76 155.77 145.76 100.7 141.08 155.77 145.76 155.77"/><polygon class="cls-3" points="155.11 155.77 155.11 104.95 145.76 100.7 155.11 155.77"/><rect class="cls-3" x="59.79" y="97.58" width="12.98" height="7.86"/><rect class="cls-3" x="60.6" y="95.11" width="11.37" height="2.63"/><rect class="cls-3" x="61.33" y="92.75" width="9.9" height="2.36"/><rect class="cls-3" x="62.05" y="90.39" width="8.45" height="2.36"/><rect class="cls-3" x="62.82" y="88.04" width="6.92" height="2.36"/><rect class="cls-3" x="63.76" y="85.68" width="5.04" height="2.36"/><rect class="cls-3" x="59.79" y="97.58" width="6.63" height="7.86"/><rect class="cls-3" x="60.6" y="95.11" width="5.83" height="2.47"/><rect class="cls-3" x="61.33" y="92.75" width="5.1" height="2.36"/><rect class="cls-3" x="62.05" y="90.39" width="4.37" height="2.36"/><rect class="cls-3" x="62.82" y="88.04" width="3.6" height="2.36"/><rect class="cls-3" x="63.76" y="85.68" width="2.21" height="2.36"/><rect class="cls-3" x="64.52" y="85.8" width="3.51" height="6.91" rx="1.42"/><rect class="cls-3" x="64.57" y="83.32" width="3.42" height="2.36"/><rect class="cls-3" x="65.34" y="80.96" width="1.88" height="2.36"/><rect class="cls-3" x="63.44" y="88.35" width="5.67" height="11.16" rx="2.3"/><rect class="cls-3" x="63.44" y="88.62" width="5.67" height="11.16" rx="2.3"/><rect class="cls-3" x="62.7" y="90.61" width="7.16" height="14.09" rx="2.9"/><rect class="cls-3" x="62.7" y="90.86" width="7.16" height="14.09" rx="2.9"/><rect class="cls-3" x="62.02" y="92.96" width="8.52" height="16.76" rx="3.45"/><rect class="cls-3" x="62.02" y="93.23" width="8.52" height="16.76" rx="3.45"/><rect class="cls-3" x="61.37" y="95.11" width="9.83" height="19.33" rx="3.98"/><rect class="cls-3" x="61.37" y="95.36" width="9.83" height="19.33" rx="3.98"/><rect class="cls-3" x="63.34" y="96.88" width="5.88" height="14.7" rx="2.38"/><rect class="cls-3" x="65.15" y="98.8" width="2.16" height="9.22" rx="0.88"/><rect class="cls-3" x="54.77" y="140.44" width="22.99" height="15.33"/><rect class="cls-3" x="56.67" y="137.49" width="19.21" height="3.28"/><rect class="cls-3" x="57.51" y="134.88" width="17.55" height="3.37"/><rect class="cls-3" x="59.11" y="105.44" width="14.34" height="28.97"/><rect class="cls-3" x="57.76" y="105.44" width="17.03" height="0.73"/><rect class="cls-3" x="59.79" y="106.42" width="2.69" height="27.5"/><rect class="cls-3" x="70.08" y="106.42" width="2.69" height="27.5"/><rect class="cls-3" x="63.52" y="106.46" width="1.43" height="27.5"/><rect class="cls-3" x="64.63" y="106.46" width="0.32" height="27.5"/><rect class="cls-3" x="57.91" y="135.45" width="16.53" height="0.82"/><rect class="cls-3" x="57.91" y="135.45" width="16.53" height="0.18"/><rect class="cls-3" x="57.91" y="136.67" width="16.53" height="0.82"/><rect class="cls-3" x="57.91" y="136.67" width="16.53" height="0.18"/><rect class="cls-3" x="57.18" y="137.77" width="18.15" height="0.82"/><rect class="cls-3" x="57.18" y="137.77" width="18.15" height="0.18"/><rect class="cls-3" x="57.18" y="138.85" width="1.25" height="1.59"/><rect class="cls-3" x="57.18" y="138.85" width="0.28" height="1.59"/><rect class="cls-3" x="59.05" y="138.85" width="1.25" height="1.59"/><rect class="cls-3" x="59.05" y="138.85" width="0.28" height="1.59"/><rect class="cls-3" x="60.93" y="138.85" width="1.25" height="1.59"/><rect class="cls-3" x="60.93" y="138.85" width="0.28" height="1.59"/><rect class="cls-3" x="62.8" y="138.85" width="1.25" height="1.59"/><rect class="cls-3" x="62.8" y="138.85" width="0.28" height="1.59"/><rect class="cls-3" x="64.68" y="138.85" width="1.25" height="1.59"/><rect class="cls-3" x="64.68" y="138.85" width="0.28" height="1.59"/><rect class="cls-3" x="66.55" y="138.85" width="1.25" height="1.59"/><rect class="cls-3" x="66.55" y="138.85" width="0.28" height="1.59"/><rect class="cls-3" x="68.43" y="138.85" width="1.25" height="1.59"/><rect class="cls-3" x="68.43" y="138.85" width="0.28" height="1.59"/><rect class="cls-3" x="70.3" y="138.85" width="1.25" height="1.59"/><rect class="cls-3" x="70.3" y="138.85" width="0.28" height="1.59"/><rect class="cls-3" x="72.18" y="138.85" width="1.25" height="1.59"/><rect class="cls-3" x="72.18" y="138.85" width="0.28" height="1.59"/><rect class="cls-3" x="74.05" y="138.85" width="1.25" height="1.59"/><rect class="cls-3" x="74.05" y="138.85" width="0.28" height="1.59"/><rect class="cls-3" x="55.26" y="142.09" width="1.25" height="1.04"/><rect class="cls-3" x="55.26" y="142.09" width="0.28" height="1.04"/><rect class="cls-3" x="57.14" y="142.09" width="1.25" height="1.04"/><rect class="cls-3" x="57.14" y="142.09" width="0.28" height="1.04"/><rect class="cls-3" x="59.02" y="142.09" width="1.25" height="1.04"/><rect class="cls-3" x="59.02" y="142.09" width="0.28" height="1.04"/><rect class="cls-3" x="60.89" y="142.09" width="1.25" height="1.04"/><rect class="cls-3" x="60.89" y="142.09" width="0.28" height="1.04"/><rect class="cls-3" x="62.77" y="142.09" width="1.25" height="1.04"/><rect class="cls-3" x="62.77" y="142.09" width="0.28" height="1.04"/><rect class="cls-3" x="64.64" y="142.09" width="1.25" height="1.04"/><rect class="cls-3" x="64.64" y="142.09" width="0.28" height="1.04"/><rect class="cls-3" x="66.52" y="142.09" width="1.25" height="1.04"/><rect class="cls-3" x="66.52" y="142.09" width="0.28" height="1.04"/><rect class="cls-3" x="68.39" y="142.09" width="1.25" height="1.04"/><rect class="cls-3" x="68.39" y="142.09" width="0.28" height="1.04"/><rect class="cls-3" x="70.27" y="142.09" width="1.25" height="1.04"/><rect class="cls-3" x="70.27" y="142.09" width="0.28" height="1.04"/><rect class="cls-3" x="72.14" y="142.09" width="1.25" height="1.04"/><rect class="cls-3" x="72.14" y="142.09" width="0.28" height="1.04"/><rect class="cls-3" x="74.05" y="142.09" width="1.25" height="1.04"/><rect class="cls-3" x="74.05" y="142.09" width="0.28" height="1.04"/><rect class="cls-3" x="75.93" y="142.09" width="1.25" height="1.04"/><rect class="cls-3" x="75.93" y="142.09" width="0.28" height="1.04"/><rect class="cls-3" x="55.29" y="143.89" width="1.25" height="10.05"/><rect class="cls-3" x="55.29" y="143.89" width="0.28" height="10.05"/><rect class="cls-3" x="57.17" y="143.89" width="1.25" height="10.05"/><rect class="cls-3" x="57.17" y="143.89" width="0.28" height="10.05"/><rect class="cls-3" x="59.04" y="143.89" width="1.25" height="10.05"/><rect class="cls-3" x="59.04" y="143.89" width="0.28" height="10.05"/><rect class="cls-3" x="60.92" y="143.89" width="1.25" height="10.05"/><rect class="cls-3" x="60.92" y="143.89" width="0.28" height="10.05"/><rect class="cls-3" x="62.79" y="143.89" width="1.25" height="10.05"/><rect class="cls-3" x="62.79" y="143.89" width="0.28" height="10.05"/><rect class="cls-3" x="64.67" y="143.89" width="1.25" height="10.05"/><rect class="cls-3" x="64.67" y="143.89" width="0.28" height="10.05"/><rect class="cls-3" x="66.54" y="143.89" width="1.25" height="10.05"/><rect class="cls-3" x="66.54" y="143.89" width="0.28" height="10.05"/><rect class="cls-3" x="68.42" y="143.89" width="1.25" height="10.05"/><rect class="cls-3" x="68.42" y="143.89" width="0.28" height="10.05"/><rect class="cls-3" x="70.29" y="143.89" width="1.25" height="10.05"/><rect class="cls-3" x="70.29" y="143.89" width="0.28" height="10.05"/><rect class="cls-3" x="72.17" y="143.89" width="1.25" height="10.05"/><rect class="cls-3" x="72.17" y="143.89" width="0.28" height="10.05"/><rect class="cls-3" x="74.08" y="143.89" width="1.25" height="10.05"/><rect class="cls-3" x="74.08" y="143.89" width="0.28" height="10.05"/><rect class="cls-3" x="75.95" y="143.89" width="1.25" height="10.05"/><rect class="cls-3" x="75.95" y="143.89" width="0.28" height="10.05"/><rect class="cls-3" x="65.66" y="106.46" width="1.25" height="27.5"/><rect class="cls-3" x="66.62" y="106.46" width="0.28" height="27.5"/><rect class="cls-3" x="67.69" y="106.46" width="1.25" height="27.5"/><rect class="cls-3" x="68.66" y="106.46" width="0.28" height="27.5"/><rect class="cls-3" x="56.48" y="133.96" width="19.6" height="1.09"/><rect class="cls-3" x="63.9" y="103.8" width="0.66" height="1.4"/><rect class="cls-3" x="63.9" y="102.01" width="0.66" height="1.4"/><rect class="cls-3" x="63.9" y="100.23" width="0.66" height="1.4"/><rect class="cls-3" x="67.98" y="103.8" width="0.66" height="1.4"/><rect class="cls-3" x="67.98" y="102.01" width="0.66" height="1.4"/><rect class="cls-3" x="67.98" y="100.23" width="0.66" height="1.4"/><polygon class="cls-3" points="59.11 107.02 59.11 107.03 59.11 133.92 59.79 133.92 59.79 107.03 73.45 107.03 73.45 106.17 59.11 106.17 59.11 107.02"/><polygon class="cls-3" points="65.77 94.89 66.78 94.89 66.28 94.1 65.77 94.89"/><polygon class="cls-3" points="64.46 95.09 65.43 94.92 64.63 94.25 64.46 95.09"/><polygon class="cls-3" points="63.45 95.47 64.16 95.17 63.27 94.77 63.45 95.47"/><polygon class="cls-3" points="62.78 95.84 63.24 95.58 62.54 95.35 62.78 95.84"/><polygon class="cls-3" points="67.12 94.92 68.1 95.09 67.93 94.25 67.12 94.92"/><polygon class="cls-3" points="69.1 95.47 69.29 94.77 68.39 95.17 69.1 95.47"/><polygon class="cls-3" points="69.78 95.84 70.01 95.35 69.31 95.58 69.78 95.84"/><polygon class="cls-3" points="65.83 92.79 66.72 92.79 66.28 92.09 65.83 92.79"/><polygon class="cls-3" points="64.67 92.97 65.53 92.81 64.82 92.22 64.67 92.97"/><polygon class="cls-3" points="63.79 93.3 64.41 93.04 63.62 92.69 63.79 93.3"/><polygon class="cls-3" points="63.2 93.62 63.6 93.39 62.99 93.19 63.2 93.62"/><polygon class="cls-3" points="67.02 92.81 67.88 92.97 67.73 92.22 67.02 92.81"/><polygon class="cls-3" points="68.77 93.3 68.93 92.69 68.14 93.04 68.77 93.3"/><polygon class="cls-3" points="69.36 93.62 69.56 93.19 68.95 93.39 69.36 93.62"/><polygon class="cls-3" points="65.98 90.37 66.67 90.37 66.32 89.83 65.98 90.37"/><polygon class="cls-3" points="65.07 90.52 65.74 90.39 65.19 89.94 65.07 90.52"/><polygon class="cls-3" points="64.38 90.78 64.87 90.57 64.25 90.3 64.38 90.78"/><polygon class="cls-3" points="63.92 91.03 64.24 90.85 63.76 90.69 63.92 91.03"/><polygon class="cls-3" points="66.9 90.39 67.57 90.52 67.46 89.94 66.9 90.39"/><polygon class="cls-3" points="68.26 90.78 68.39 90.3 67.78 90.57 68.26 90.78"/><polygon class="cls-3" points="68.73 91.03 68.89 90.69 68.41 90.85 68.73 91.03"/><polygon class="cls-3" points="66.03 88.19 66.51 88.19 66.27 87.86 66.03 88.19"/><polygon class="cls-3" points="65.4 88.28 65.87 88.2 65.48 87.92 65.4 88.28"/><polygon class="cls-3" points="64.92 88.43 65.26 88.31 64.83 88.14 64.92 88.43"/><polygon class="cls-3" points="66.67 88.2 67.14 88.28 67.05 87.92 66.67 88.2"/><polygon class="cls-3" points="67.61 88.43 67.7 88.14 67.28 88.31 67.61 88.43"/><rect class="cls-3" x="64.57" y="83.32" width="1.4" height="2.36"/><rect class="cls-3" x="65.34" y="80.96" width="0.62" height="2.36"/><rect class="cls-3" x="54.53" y="140.44" width="23.45" height="0.34"/><polygon class="cls-3" points="65.67 80.96 66.87 80.96 66.27 71.62 65.67 80.96"/><rect class="cls-3" x="168.66" y="134.34" width="24" height="21.43"/><rect class="cls-4" x="170.75" y="118.14" width="19.84" height="16.2"/><polygon class="cls-5" points="170.75 134.34 190.59 134.34 170.75 132 170.75 134.34"/><rect class="cls-4" x="172.86" y="116.04" width="15.62" height="2.1"/><rect class="cls-4" x="170.75" y="118.14" width="2.11" height="2.73"/><polygon class="cls-3" points="168.76 155.77 192.66 155.77 168.77 153.13 168.76 155.77"/><rect class="cls-4" x="188.48" y="118.14" width="2.11" height="2.73"/><rect class="cls-4" x="172.86" y="118.14" width="0.24" height="37.63"/><rect class="cls-4" x="171.81" y="120.87" width="0.24" height="34.9"/><rect class="cls-4" x="170.75" y="120.87" width="0.24" height="34.9"/><rect class="cls-4" x="169.7" y="134.36" width="0.24" height="21.41"/><rect class="cls-4" x="168.64" y="134.36" width="0.24" height="21.41"/><rect class="cls-4" x="189.25" y="120.87" width="0.24" height="34.9"/><rect class="cls-4" x="190.31" y="120.87" width="0.24" height="34.9"/><rect class="cls-4" x="191.36" y="134.36" width="0.24" height="21.41"/><rect class="cls-3" x="192.42" y="134.36" width="0.24" height="21.41"/><rect class="cls-4" x="173.83" y="118.14" width="0.24" height="37.63"/><rect class="cls-4" x="174.79" y="118.14" width="0.24" height="37.63"/><rect class="cls-4" x="175.75" y="118.14" width="0.24" height="37.63"/><rect class="cls-4" x="176.72" y="118.14" width="0.24" height="37.63"/><rect class="cls-4" x="177.68" y="118.14" width="0.24" height="37.63"/><rect class="cls-4" x="178.64" y="118.14" width="0.24" height="37.63"/><rect class="cls-4" x="179.6" y="118.14" width="0.24" height="37.63"/><rect class="cls-4" x="180.57" y="118.14" width="0.24" height="37.63"/><rect class="cls-4" x="181.53" y="118.14" width="0.24" height="37.63"/><rect class="cls-4" x="182.49" y="118.14" width="0.24" height="37.63"/><rect class="cls-4" x="183.45" y="118.14" width="0.24" height="37.63"/><rect class="cls-4" x="184.42" y="118.14" width="0.24" height="37.63"/><rect class="cls-4" x="185.38" y="118.14" width="0.24" height="37.63"/><rect class="cls-4" x="186.34" y="118.14" width="0.24" height="37.63"/><rect class="cls-4" x="187.31" y="118.14" width="0.24" height="37.63"/><rect class="cls-4" x="188.27" y="118.14" width="0.24" height="37.63"/><path class="cls-3" d="M545.42,257.15V241h-2.11v-2.1h-8.78c-4.23,3.84-4.91,9-4.91,14.63,0,10.54,6,19.29,17.87,21.16V257.15Z" transform="translate(-354.83 -122.81)"/><rect class="cls-4" x="174.8" y="114.6" width="11.95" height="1.44"/><polygon class="cls-4" points="176.69 112.38 174.8 114.6 186.75 114.6 184.86 112.38 176.69 112.38"/><polygon class="cls-3" points="272.04 156.35 286.89 156.35 286.89 133.69 272.01 133.69 272.04 156.35"/><rect class="cls-3" x="273.13" y="131.9" width="12.64" height="2.1"/><rect class="cls-3" x="274.9" y="130.84" width="9.09" height="1.05"/><rect class="cls-3" x="276.48" y="129.79" width="5.94" height="1.25"/><rect class="cls-3" x="241.61" y="106.38" width="12.52" height="49.39"/><rect class="cls-3" x="242.55" y="102.37" width="10.64" height="4.37"/><rect class="cls-3" x="244.05" y="100.02" width="7.65" height="2.63"/><rect class="cls-3" x="245.37" y="97.66" width="5" height="2.69"/><polygon class="cls-3" points="232.77 59.25 235.01 59.25 233.89 48.49 232.77 59.25"/><rect class="cls-3" x="227.02" y="61.8" width="13.63" height="3.16"/><polygon class="cls-3" points="220.3 64.7 220.3 155.77 247.47 155.77 247.47 64.7 233.9 63.32 220.3 64.7"/><polygon class="cls-3" points="220.3 155.77 247.5 155.77 233.9 63.32 220.3 155.77"/><polygon class="cls-3" points="220.3 155.77 233.9 63.32 220.3 64.7 220.3 155.77"/><rect class="cls-3" x="230.14" y="59.18" width="7.25" height="2.61"/><polygon class="cls-3" points="247.47 155.77 247.47 64.7 237.55 63.69 247.47 155.77"/><polygon class="cls-3" points="226.87 111.13 220.3 155.77 247.5 155.77 240.94 111.13 226.87 111.13"/><rect class="cls-3" x="254.18" y="98.02" width="17.42" height="13.07"/><rect class="cls-3" x="251.76" y="111.06" width="22.3" height="45.29"/><rect class="cls-3" x="252.67" y="103.41" width="7.35" height="7.65"/><rect class="cls-3" x="265.89" y="103.41" width="7.35" height="7.65"/><rect class="cls-3" x="260.02" y="111.06" width="5.85" height="44.71"/><rect class="cls-3" x="255.71" y="95.09" width="14.37" height="1.5"/><rect class="cls-3" x="256.97" y="93.85" width="11.85" height="1.24"/><rect class="cls-3" x="258.29" y="92.89" width="9.2" height="0.96"/><rect class="cls-3" x="259.43" y="92.17" width="6.93" height="0.78"/><rect class="cls-3" x="261.12" y="85.07" width="3.55" height="1.75"/><polygon class="cls-3" points="262.26 85.17 263.53 85.17 262.89 70.42 262.26 85.17"/><rect class="cls-3" x="260.21" y="86.82" width="5.37" height="8.89"/><rect class="cls-3" x="261.89" y="87.4" width="2" height="9.17"/><rect class="cls-3" x="254.66" y="96.59" width="16.4" height="1.44"/><rect class="cls-3" x="264.05" y="85.07" width="0.62" height="1.75"/><rect class="cls-3" x="264.62" y="86.82" width="0.96" height="5.34"/><rect class="cls-3" x="261.12" y="85.07" width="0.62" height="1.75"/><rect class="cls-3" x="259.43" y="92.18" width="0.62" height="0.71"/><rect class="cls-3" x="258.29" y="92.89" width="0.62" height="0.95"/><rect class="cls-3" x="256.97" y="93.85" width="0.62" height="1.25"/><rect class="cls-3" x="255.71" y="95.09" width="0.62" height="1.48"/><rect class="cls-3" x="265.74" y="92.18" width="0.62" height="0.71"/><rect class="cls-3" x="266.88" y="92.89" width="0.62" height="0.95"/><rect class="cls-3" x="268.2" y="93.85" width="0.62" height="1.25"/><rect class="cls-3" x="269.46" y="95.09" width="0.62" height="1.48"/><rect class="cls-3" x="260.21" y="86.82" width="0.62" height="5.35"/><rect class="cls-3" x="267.06" y="104.3" width="1.1" height="6.75"/><rect class="cls-3" x="269.1" y="104.3" width="1.1" height="6.77"/><rect class="cls-3" x="271.15" y="104.3" width="1.1" height="6.77"/><rect class="cls-3" x="267.88" y="104.3" width="0.27" height="6.75"/><rect class="cls-3" x="269.93" y="104.3" width="0.27" height="6.77"/><rect class="cls-3" x="271.94" y="104.3" width="0.31" height="6.77"/><rect class="cls-3" x="253.75" y="104.29" width="1.1" height="6.75"/><rect class="cls-3" x="255.8" y="104.29" width="1.1" height="6.77"/><rect class="cls-3" x="257.84" y="104.29" width="1.1" height="6.77"/><rect class="cls-3" x="254.58" y="104.29" width="0.27" height="6.75"/><rect class="cls-3" x="256.62" y="104.29" width="0.27" height="6.77"/><rect class="cls-3" x="258.64" y="104.29" width="0.31" height="6.77"/><rect class="cls-3" x="267.06" y="99.28" width="1.1" height="4.12"/><rect class="cls-3" x="269.1" y="99.28" width="1.1" height="4.13"/><rect class="cls-3" x="267.88" y="99.28" width="0.27" height="4.12"/><rect class="cls-3" x="269.93" y="99.28" width="0.27" height="4.13"/><rect class="cls-3" x="255.8" y="99.28" width="1.1" height="4.13"/><rect class="cls-3" x="257.84" y="99.28" width="1.1" height="4.13"/><rect class="cls-3" x="256.62" y="99.28" width="0.27" height="4.13"/><rect class="cls-3" x="258.64" y="99.28" width="0.31" height="4.13"/><rect class="cls-3" x="252.94" y="111.88" width="1.27" height="43.89"/><rect class="cls-3" x="255.31" y="111.88" width="1.27" height="43.89"/><rect class="cls-3" x="257.67" y="111.88" width="1.27" height="43.89"/><rect class="cls-3" x="253.89" y="111.88" width="0.32" height="43.89"/><rect class="cls-3" x="256.26" y="111.88" width="0.32" height="43.89"/><rect class="cls-3" x="258.59" y="111.88" width="0.35" height="43.89"/><rect class="cls-3" x="267.07" y="111.88" width="1.27" height="43.89"/><rect class="cls-3" x="269.43" y="111.88" width="1.27" height="43.89"/><polygon class="cls-3" points="271.82 156.35 273.07 155.77 273.07 111.88 271.8 111.88 271.82 156.35"/><rect class="cls-3" x="268.02" y="111.88" width="0.32" height="43.89"/><rect class="cls-3" x="270.39" y="111.88" width="0.32" height="43.89"/><rect class="cls-3" x="272.71" y="111.88" width="0.35" height="43.89"/><rect class="cls-3" x="265.46" y="103.4" width="0.48" height="52.37"/><rect class="cls-3" x="260.65" y="99.3" width="0.99" height="56.46"/><rect class="cls-3" x="262.49" y="99.3" width="0.99" height="56.46"/><rect class="cls-3" x="264.33" y="99.3" width="0.99" height="56.46"/><rect class="cls-3" x="261.39" y="99.3" width="0.25" height="56.46"/><rect class="cls-3" x="263.23" y="99.3" width="0.25" height="56.46"/><rect class="cls-3" x="265.04" y="99.3" width="0.27" height="56.46"/><rect class="cls-3" x="255.71" y="97.21" width="0.92" height="0.83"/><rect class="cls-3" x="257.96" y="97.21" width="0.92" height="0.83"/><rect class="cls-3" x="260.2" y="97.21" width="0.92" height="0.83"/><rect class="cls-3" x="262.45" y="97.21" width="0.92" height="0.83"/><rect class="cls-3" x="264.7" y="97.21" width="0.92" height="0.83"/><rect class="cls-3" x="266.95" y="97.21" width="0.92" height="0.83"/><rect class="cls-3" x="269.2" y="97.21" width="0.92" height="0.83"/><line class="cls-3" x1="291.48" y1="155.76" x2="291.48" y2="129.79"/><line class="cls-3" x1="292.6" y1="130.13" x2="292.6" y2="127.68"/><line class="cls-3" x1="294.37" y1="127.91" x2="294.37" y2="126.44"/><polyline class="cls-3" points="291.48 155.76 291.48 129.79 292.6 129.79 292.6 127.74 294.37 127.74 294.37 126.47"/><rect class="cls-4" x="206.36" y="126.84" width="30.57" height="28.92"/><rect class="cls-4" x="209.03" y="104.98" width="25.26" height="21.86"/><polygon class="cls-4" points="209.03 126.84 234.3 126.84 209.03 123.69 209.03 126.84"/><polygon class="cls-4" points="206.45 135.73 236.93 135.73 206.45 132.63 206.45 135.73"/><rect class="cls-4" x="205.08" y="135.73" width="33.16" height="20.03"/><rect class="cls-4" x="209.03" y="104.98" width="2.69" height="3.69"/><polygon class="cls-4" points="205.06 155.77 238.25 155.77 205.08 152.19 205.06 155.77"/><rect class="cls-4" x="231.61" y="104.98" width="2.69" height="3.69"/><rect class="cls-4" x="211.72" y="104.98" width="0.31" height="50.78"/><rect class="cls-4" x="210.38" y="108.67" width="0.31" height="47.1"/><rect class="cls-4" x="209.03" y="108.67" width="0.31" height="47.1"/><rect class="cls-4" x="207.69" y="126.87" width="0.31" height="28.89"/><rect class="cls-4" x="206.35" y="126.87" width="0.31" height="28.89"/><rect class="cls-4" x="232.59" y="108.67" width="0.31" height="47.1"/><rect class="cls-4" x="233.94" y="108.67" width="0.31" height="47.1"/><rect class="cls-4" x="235.28" y="126.87" width="0.31" height="28.89"/><rect class="cls-4" x="236.62" y="126.87" width="0.31" height="28.89"/><rect class="cls-4" x="212.95" y="104.98" width="0.31" height="50.78"/><rect class="cls-4" x="214.17" y="104.98" width="0.31" height="50.78"/><rect class="cls-4" x="215.4" y="104.98" width="0.31" height="50.78"/><rect class="cls-4" x="216.63" y="104.98" width="0.31" height="50.78"/><rect class="cls-4" x="217.85" y="104.98" width="0.31" height="50.78"/><rect class="cls-4" x="219.08" y="104.98" width="0.31" height="50.78"/><rect class="cls-4" x="220.3" y="104.98" width="0.31" height="50.78"/><rect class="cls-4" x="221.53" y="104.98" width="0.31" height="50.78"/><rect class="cls-4" x="222.76" y="104.98" width="0.31" height="50.78"/><rect class="cls-4" x="223.98" y="104.98" width="0.31" height="50.78"/><rect class="cls-4" x="225.21" y="104.98" width="0.31" height="50.78"/><rect class="cls-4" x="226.43" y="104.98" width="0.31" height="50.78"/><rect class="cls-4" x="227.66" y="104.98" width="0.31" height="50.78"/><rect class="cls-4" x="228.89" y="104.98" width="0.31" height="50.78"/><rect class="cls-4" x="230.11" y="104.98" width="0.31" height="50.78"/><rect class="cls-4" x="231.34" y="104.98" width="0.31" height="50.78"/><path class="cls-3" d="M591.76,249.66h-2.63V227.8h-2.69V225H575.26c-5.39,5.19-6.26,12.11-6.26,19.75,0,14.22,9,26,24.08,28.55V258.54h-1.32Z" transform="translate(-354.83 -122.81)"/><path class="cls-3" d="M586.44,225h-1.92v-.06c0-2.44-3.59-4.42-8-4.42s-8,2-8,4.42c0,0,0,0,0,.06h-1.93v2.84h-2.68v21.86h-2.68v8.88h-1.28v20H573V228.87a13.81,13.81,0,0,0,3.51.45,11.63,11.63,0,0,0,6-1.52h3.89Z" transform="translate(-354.83 -122.81)"/><polygon class="cls-3" points="279.45 155.77 284.41 155.77 284.41 105.03 279.45 108.95 279.45 155.77"/><polygon class="cls-3" points="284.41 156.34 294.33 156.35 294.33 108.95 284.41 105.03 284.41 156.34"/><polygon class="cls-3" points="284.41 156.34 284.41 105.03 279.39 156.34 284.41 156.34"/><polygon class="cls-3" points="294.33 156.94 294.33 109.53 284.41 105.61 294.33 156.94"/><rect class="cls-3" x="193.2" y="102.15" width="13.77" height="7.24"/><rect class="cls-3" x="194.06" y="99.88" width="12.06" height="2.42"/><rect class="cls-3" x="194.83" y="97.71" width="10.51" height="2.17"/><rect class="cls-3" x="195.6" y="95.53" width="8.97" height="2.17"/><rect class="cls-3" x="196.42" y="93.36" width="7.34" height="2.17"/><rect class="cls-3" x="197.41" y="91.19" width="5.34" height="2.17"/><rect class="cls-3" x="193.2" y="102.15" width="7.04" height="7.24"/><rect class="cls-3" x="194.06" y="99.88" width="6.18" height="2.28"/><rect class="cls-3" x="194.83" y="97.71" width="5.41" height="2.17"/><rect class="cls-3" x="195.6" y="95.53" width="4.64" height="2.17"/><rect class="cls-3" x="196.42" y="93.36" width="3.82" height="2.17"/><rect class="cls-3" x="197.41" y="91.19" width="2.35" height="2.17"/><rect class="cls-3" x="198.22" y="91.31" width="3.72" height="6.36" rx="1.41"/><rect class="cls-3" x="198.27" y="89.02" width="3.62" height="2.17"/><rect class="cls-3" x="199.09" y="86.84" width="1.99" height="2.17"/><rect class="cls-3" x="197.08" y="93.65" width="6.02" height="10.28" rx="2.27"/><rect class="cls-3" x="197.08" y="93.9" width="6.02" height="10.28" rx="2.27"/><rect class="cls-3" x="196.29" y="95.73" width="7.6" height="12.98" rx="2.87"/><rect class="cls-3" x="196.29" y="95.96" width="7.6" height="12.98" rx="2.87"/><rect class="cls-3" x="195.57" y="97.9" width="9.04" height="15.44" rx="3.41"/><path class="cls-3" d="M199,98.14h2.21a3.42,3.42,0,0,1,3.42,3.42v8.61a3.41,3.41,0,0,1-3.41,3.41H199a3.41,3.41,0,0,1-3.41-3.41v-8.61A3.41,3.41,0,0,1,199,98.14Z"/><rect class="cls-3" x="194.87" y="99.88" width="10.42" height="17.81" rx="3.94"/><rect class="cls-3" x="194.87" y="100.11" width="10.42" height="17.81" rx="3.94"/><rect class="cls-3" x="196.97" y="101.51" width="6.24" height="13.54" rx="2.36"/><rect class="cls-3" x="198.89" y="103.28" width="2.29" height="8.5" rx="0.87"/><rect class="cls-3" x="187.88" y="141.65" width="24.4" height="14.12"/><rect class="cls-3" x="189.89" y="138.93" width="20.38" height="3.03"/><rect class="cls-3" x="190.78" y="136.53" width="18.62" height="3.1"/><rect class="cls-3" x="192.48" y="109.4" width="15.22" height="26.69"/><rect class="cls-3" x="191.05" y="109.4" width="18.07" height="0.67"/><rect class="cls-3" x="193.2" y="110.3" width="2.86" height="25.34"/><rect class="cls-3" x="204.11" y="110.3" width="2.86" height="25.34"/><rect class="cls-3" x="197.16" y="110.34" width="1.51" height="25.34"/><rect class="cls-3" x="198.33" y="110.34" width="0.34" height="25.34"/><rect class="cls-3" x="191.21" y="137.05" width="17.54" height="0.76"/><rect class="cls-3" x="191.21" y="137.05" width="17.54" height="0.17"/><rect class="cls-3" x="191.21" y="138.17" width="17.54" height="0.76"/><rect class="cls-3" x="191.21" y="138.17" width="17.54" height="0.17"/><rect class="cls-3" x="190.43" y="139.19" width="19.26" height="0.76"/><rect class="cls-3" x="190.43" y="139.19" width="19.26" height="0.17"/><rect class="cls-4" x="190.43" y="140.18" width="1.33" height="1.47"/><rect class="cls-6" x="190.43" y="140.18" width="0.3" height="1.47"/><rect class="cls-3" x="192.42" y="140.18" width="1.33" height="1.47"/><rect class="cls-3" x="192.42" y="140.18" width="0.3" height="1.47"/><rect class="cls-3" x="194.41" y="140.18" width="1.33" height="1.47"/><rect class="cls-3" x="194.41" y="140.18" width="0.3" height="1.47"/><rect class="cls-3" x="196.4" y="140.18" width="1.33" height="1.47"/><rect class="cls-3" x="196.4" y="140.18" width="0.3" height="1.47"/><rect class="cls-3" x="198.39" y="140.18" width="1.33" height="1.47"/><rect class="cls-3" x="198.39" y="140.18" width="0.3" height="1.47"/><rect class="cls-3" x="200.38" y="140.18" width="1.33" height="1.47"/><rect class="cls-3" x="200.38" y="140.18" width="0.3" height="1.47"/><rect class="cls-3" x="202.36" y="140.18" width="1.33" height="1.47"/><rect class="cls-3" x="202.36" y="140.18" width="0.3" height="1.47"/><rect class="cls-3" x="204.35" y="140.18" width="1.33" height="1.47"/><rect class="cls-3" x="204.35" y="140.18" width="0.3" height="1.47"/><rect class="cls-3" x="206.34" y="140.18" width="1.33" height="1.47"/><rect class="cls-3" x="206.34" y="140.18" width="0.3" height="1.47"/><rect class="cls-3" x="208.33" y="140.18" width="1.33" height="1.47"/><rect class="cls-3" x="208.33" y="140.18" width="0.3" height="1.47"/><rect class="cls-4" x="188.4" y="143.17" width="1.33" height="0.96"/><rect class="cls-6" x="188.4" y="143.17" width="0.3" height="0.96"/><rect class="cls-4" x="190.39" y="143.17" width="1.33" height="0.96"/><rect class="cls-6" x="190.39" y="143.17" width="0.3" height="0.96"/><rect class="cls-3" x="192.38" y="143.17" width="1.33" height="0.96"/><rect class="cls-3" x="192.38" y="143.17" width="0.3" height="0.96"/><rect class="cls-3" x="194.37" y="143.17" width="1.33" height="0.96"/><rect class="cls-3" x="194.37" y="143.17" width="0.3" height="0.96"/><rect class="cls-3" x="196.36" y="143.17" width="1.33" height="0.96"/><rect class="cls-3" x="196.36" y="143.17" width="0.3" height="0.96"/><rect class="cls-3" x="198.35" y="143.17" width="1.33" height="0.96"/><rect class="cls-3" x="198.35" y="143.17" width="0.3" height="0.96"/><rect class="cls-3" x="200.34" y="143.17" width="1.33" height="0.96"/><rect class="cls-3" x="200.34" y="143.17" width="0.3" height="0.96"/><rect class="cls-3" x="202.33" y="143.17" width="1.33" height="0.96"/><rect class="cls-3" x="202.33" y="143.17" width="0.3" height="0.96"/><rect class="cls-3" x="204.32" y="143.17" width="1.33" height="0.96"/><rect class="cls-3" x="204.32" y="143.17" width="0.3" height="0.96"/><rect class="cls-3" x="206.31" y="143.17" width="1.33" height="0.96"/><rect class="cls-3" x="206.31" y="143.17" width="0.3" height="0.96"/><rect class="cls-3" x="208.33" y="143.17" width="1.33" height="0.96"/><rect class="cls-3" x="208.33" y="143.17" width="0.3" height="0.96"/><rect class="cls-3" x="210.32" y="143.17" width="1.33" height="0.96"/><rect class="cls-3" x="210.32" y="143.17" width="0.3" height="0.96"/><rect class="cls-4" x="188.43" y="144.82" width="1.33" height="9.26"/><rect class="cls-6" x="188.43" y="144.82" width="0.3" height="9.26"/><rect class="cls-4" x="190.42" y="144.82" width="1.33" height="9.26"/><rect class="cls-6" x="190.42" y="144.82" width="0.3" height="9.26"/><rect class="cls-3" x="192.41" y="144.82" width="1.33" height="9.26"/><rect class="cls-3" x="192.41" y="144.82" width="0.3" height="9.26"/><rect class="cls-3" x="194.4" y="144.82" width="1.33" height="9.26"/><rect class="cls-3" x="194.4" y="144.82" width="0.3" height="9.26"/><rect class="cls-3" x="196.39" y="144.82" width="1.33" height="9.26"/><rect class="cls-3" x="196.39" y="144.82" width="0.3" height="9.26"/><rect class="cls-3" x="198.38" y="144.82" width="1.33" height="9.26"/><rect class="cls-3" x="198.38" y="144.82" width="0.3" height="9.26"/><rect class="cls-3" x="200.36" y="144.82" width="1.33" height="9.26"/><rect class="cls-3" x="200.36" y="144.82" width="0.3" height="9.26"/><rect class="cls-3" x="202.35" y="144.82" width="1.33" height="9.26"/><rect class="cls-3" x="202.35" y="144.82" width="0.3" height="9.26"/><rect class="cls-3" x="204.34" y="144.82" width="1.33" height="9.26"/><rect class="cls-3" x="204.34" y="144.82" width="0.3" height="9.26"/><rect class="cls-3" x="206.33" y="144.82" width="1.33" height="9.26"/><rect class="cls-3" x="206.33" y="144.82" width="0.3" height="9.26"/><rect class="cls-3" x="208.36" y="144.82" width="1.33" height="9.26"/><rect class="cls-3" x="208.36" y="144.82" width="0.3" height="9.26"/><rect class="cls-3" x="210.35" y="144.82" width="1.33" height="9.26"/><rect class="cls-3" x="210.35" y="144.82" width="0.3" height="9.26"/><rect class="cls-3" x="199.42" y="110.34" width="1.32" height="25.34"/><rect class="cls-3" x="200.45" y="110.34" width="0.3" height="25.34"/><rect class="cls-3" x="201.58" y="110.34" width="1.32" height="25.34"/><rect class="cls-3" x="202.61" y="110.34" width="0.3" height="25.34"/><rect class="cls-3" x="189.69" y="135.67" width="20.79" height="1.01"/><rect class="cls-3" x="197.57" y="107.89" width="0.7" height="1.29"/><rect class="cls-3" x="197.57" y="106.24" width="0.7" height="1.29"/><rect class="cls-3" x="197.57" y="104.59" width="0.7" height="1.29"/><rect class="cls-3" x="201.89" y="107.89" width="0.7" height="1.29"/><rect class="cls-3" x="201.89" y="106.24" width="0.7" height="1.29"/><rect class="cls-3" x="201.89" y="104.59" width="0.7" height="1.29"/><polygon class="cls-3" points="192.48 110.86 192.48 110.86 192.48 135.64 193.2 135.64 193.2 110.86 207.69 110.86 207.69 110.07 192.48 110.07 192.48 110.86"/><polygon class="cls-3" points="199.55 99.67 200.62 99.67 200.09 98.95 199.55 99.67"/><polygon class="cls-3" points="198.15 99.86 199.19 99.7 198.33 99.09 198.15 99.86"/><polygon class="cls-3" points="197.09 100.22 197.84 99.94 196.89 99.57 197.09 100.22"/><polygon class="cls-3" points="196.37 100.55 196.87 100.31 196.12 100.1 196.37 100.55"/><polygon class="cls-3" points="200.98 99.7 202.01 99.86 201.83 99.09 200.98 99.7"/><polygon class="cls-3" points="203.08 100.22 203.28 99.57 202.33 99.94 203.08 100.22"/><polygon class="cls-3" points="203.79 100.55 204.04 100.1 203.3 100.31 203.79 100.55"/><polygon class="cls-3" points="199.61 97.74 200.56 97.74 200.09 97.1 199.61 97.74"/><polygon class="cls-3" points="198.38 97.91 199.29 97.76 198.54 97.22 198.38 97.91"/><polygon class="cls-3" points="197.44 98.22 198.1 97.97 197.27 97.65 197.44 98.22"/><polygon class="cls-3" points="196.81 98.51 197.25 98.3 196.59 98.11 196.81 98.51"/><polygon class="cls-3" points="200.87 97.76 201.78 97.91 201.63 97.22 200.87 97.76"/><polygon class="cls-3" points="202.72 98.22 202.9 97.65 202.06 97.97 202.72 98.22"/><polygon class="cls-3" points="203.35 98.51 203.57 98.11 202.92 98.3 203.35 98.51"/><polygon class="cls-3" points="199.76 95.52 200.5 95.52 200.13 95.02 199.76 95.52"/><polygon class="cls-3" points="198.8 95.65 199.51 95.53 198.93 95.11 198.8 95.65"/><polygon class="cls-3" points="198.07 95.89 198.59 95.7 197.94 95.44 198.07 95.89"/><polygon class="cls-3" points="197.58 96.12 197.92 95.95 197.41 95.81 197.58 96.12"/><polygon class="cls-3" points="200.75 95.53 201.46 95.65 201.33 95.11 200.75 95.53"/><polygon class="cls-3" points="202.19 95.89 202.33 95.44 201.67 95.7 202.19 95.89"/><polygon class="cls-3" points="202.68 96.12 202.85 95.81 202.34 95.95 202.68 96.12"/><polygon class="cls-3" points="199.82 93.5 200.33 93.5 200.08 93.2 199.82 93.5"/><polygon class="cls-3" points="199.16 93.58 199.65 93.51 199.24 93.26 199.16 93.58"/><polygon class="cls-3" points="198.65 93.73 199 93.61 198.55 93.46 198.65 93.73"/><polygon class="cls-3" points="200.5 93.51 200.99 93.58 200.91 93.26 200.5 93.51"/><polygon class="cls-3" points="201.5 93.73 201.59 93.46 201.14 93.61 201.5 93.73"/><rect class="cls-3" x="198.27" y="89.02" width="1.48" height="2.17"/><rect class="cls-3" x="199.09" y="86.84" width="0.66" height="2.17"/><rect class="cls-3" x="187.62" y="141.65" width="24.88" height="0.31"/><polygon class="cls-3" points="199.44 86.84 200.71 86.84 200.08 78.24 199.44 86.84"/><rect class="cls-7" x="111.62" y="136.19" width="0.29" height="24.58"/><rect class="cls-3" x="96.52" y="117.61" width="0.29" height="18.58"/><rect class="cls-3" x="97.68" y="117.61" width="0.3" height="18.58"/><rect class="cls-3" x="98.84" y="117.61" width="0.3" height="18.58"/><rect class="cls-3" x="100.01" y="117.61" width="0.29" height="18.58"/><rect class="cls-3" x="102.45" y="117.55" width="0.02" height="0.01"/><polygon class="cls-3" points="103.78 117.61 103.78 117.62 103.5 117.62 102.75 117.61 103.78 117.61"/><rect class="cls-3" x="108.13" y="117.61" width="0.29" height="18.58"/><rect class="cls-3" x="109.29" y="117.61" width="0.3" height="18.58"/><rect class="cls-3" x="110.45" y="117.61" width="0.3" height="18.58"/><rect class="cls-3" x="94.2" y="117.49" width="0.12" height="0.12"/><rect class="cls-3" x="102.45" y="117.49" width="0.29" height="0.07"/><rect class="cls-3" x="94.2" y="117.49" width="0.12" height="0.12"/><polygon class="cls-3" points="101.33 117.61 101.17 117.66 101.17 117.61 101.33 117.61"/><rect class="cls-3" x="103.49" y="117.61" width="0.29" height="0.01"/><path class="cls-3" d="M457.29,240.3v.07h.29v-.07Z" transform="translate(-354.83 -122.81)"/><rect class="cls-3" x="95.36" y="117.61" width="0.29" height="0.09"/><rect class="cls-3" x="96.52" y="117.61" width="0.29" height="0.08"/><polygon class="cls-3" points="97.98 117.61 97.98 117.68 97.69 117.69 97.69 117.32 97.98 117.61"/><polygon class="cls-3" points="99.14 117.61 99.14 117.67 98.84 117.68 98.84 117.61 99.14 117.61"/><rect class="cls-3" x="100.01" y="117.61" width="0.29" height="0.06"/><rect class="cls-3" x="102.45" y="117.49" width="0.29" height="0.07"/><polygon class="cls-3" points="103.78 117.61 103.78 117.62 103.5 117.62 102.75 117.61 103.78 117.61"/><rect class="cls-3" x="104.65" y="117.61" width="0.29" height="0.02"/><rect class="cls-3" x="105.81" y="117.61" width="0.29" height="0.03"/><rect class="cls-3" x="106.97" y="117.61" width="0.29" height="0.04"/><polygon class="cls-3" points="108.42 117.61 108.42 117.67 108.14 117.66 108.14 117.61 108.42 117.61"/><polygon class="cls-3" points="109.59 117.61 109.59 117.68 109.3 117.67 109.3 117.61 109.59 117.61"/><polygon class="cls-3" points="110.75 117.61 110.75 117.69 110.45 117.68 110.45 117.61 110.75 117.61"/><path class="cls-3" d="M457.58,240.37h-.29v-.07h.29Z" transform="translate(-354.83 -122.81)"/><rect class="cls-3" x="94.2" y="117.49" width="0.12" height="0.12"/><rect class="cls-3" x="102.45" y="117.49" width="0.29" height="0.07"/><rect class="cls-3" x="213.76" y="135.44" width="17.94" height="25.32"/><rect class="cls-3" x="215.11" y="133.39" width="15.24" height="2.41"/><rect class="cls-3" x="217.25" y="132.18" width="10.96" height="1.21"/><rect class="cls-3" x="219.15" y="130.98" width="7.16" height="1.43"/><rect class="cls-3" x="177.1" y="104.12" width="15.09" height="56.65"/><rect class="cls-3" x="178.24" y="99.52" width="12.83" height="5.02"/><rect class="cls-3" x="180.04" y="96.82" width="9.22" height="3.02"/><rect class="cls-3" x="181.64" y="94.13" width="6.03" height="3.09"/><polygon class="cls-3" points="165.04 16.12 167.95 16.12 166.5 0 165.04 16.12"/><rect class="cls-3" x="157.56" y="19.94" width="17.73" height="4.73"/><polygon class="cls-3" points="148.83 24.29 148.83 160.77 184.17 160.77 184.17 24.29 166.52 22.22 148.83 24.29"/><polygon class="cls-3" points="148.83 160.77 166.52 22.22 148.83 24.29 148.83 160.77"/><rect class="cls-3" x="161.63" y="16.02" width="9.43" height="3.91"/><polygon class="cls-3" points="184.17 160.77 184.17 24.29 171.26 22.78 184.17 160.77"/><polygon class="cls-3" points="166.52 22.22 157.37 93.88 157.37 93.88 148.83 160.77 184.21 160.77 166.52 22.22"/><rect class="cls-8" x="237.24" y="130.97" width="17.94" height="29.79"/><rect class="cls-8" x="238.58" y="128.56" width="15.24" height="2.81"/><rect class="cls-8" x="240.73" y="127.14" width="10.96" height="1.68"/><rect class="cls-8" x="242.63" y="125.72" width="7.16" height="1.68"/><polygon class="cls-3" points="242.63 127.17 240.73 127.17 240.73 128.63 238.58 128.63 238.58 130.97 237.24 130.97 237.24 160.77 244.43 160.77 244.43 125.72 242.63 125.72 242.63 127.17"/><polygon class="cls-8" points="222.73 160.77 228.71 160.77 228.71 102.57 222.73 107.07 222.73 160.77"/><polygon class="cls-8" points="228.71 160.77 240.68 160.77 240.68 107.07 228.71 102.57 228.71 160.77"/><polygon class="cls-8" points="228.71 160.77 228.71 102.57 222.73 160.77 228.71 160.77"/><polygon class="cls-8" points="240.68 160.77 240.68 107.07 228.71 102.57 240.68 160.77"/><path class="cls-9" d="M485.28,186.22l.79-.31-.26.67Zm0-1.1,0,.1-.19.86-.8-.41.83-.45Zm-1.54-.72.13.82.06.34-1.09-.25.09-.09Zm-1.85-.21.54,1,0,.05H481.3l0-.05Zm-1.87.21.82.82.09.09-1.1.25.06-.34Zm-1.53.72.18.1.83.45-.8.41-.19-.86Zm-.55,1.46-.26-.67.78.31Z" transform="translate(-354.83 -122.81)"/><path class="cls-10" d="M496.77,259.66v-4.6h-1.1l0-3.81H497v-1.71h-3.36v-42h0v-1.34h1.72V205H493V192.75h-1.21V188.9h-.94v-3.68h-.93v-3.68h-1v-3.68h-1.2v-3.68h-1V170.5h-1v-3.68h-.45l-.77-14.58-.76,14.58h-.43v3.68h-1v3.68h-1v3.68h-1.2v3.68h-1v3.68h-.93v3.68h-.93v3.85h-.85V205h-2.78v1.14h1.72v43.38h-3.36v1.71h1.31l0,3.81h-1v4.6h-2.44v23.92h29.42V259.66Zm-26.38,2.57H472v1.63h-1.6Zm1.63,18.5h-1.6V265H472Zm17.23-91.46-.3.77-.6-.41Zm-.57-3.36-.26.67-.53-.36Zm-7.06,16v-2.18h.84v2.18Zm.84.6v2.19h-.84v-2.19Zm-.84-3.39v-2.18h.84v2.18Zm-.76-9.6-.12-.57-.12-.53,1,.53.18.1Zm.08,18h1.83v42h-1.83Zm1.2-18.63.22-1.32,1,1Zm2.34-1.54.64,1.22h-1.29Zm-.57-2.06,0-.05.54-1,.54,1,0,.05Zm-1.49.29.06-.34.13-.82.82.82.09.09Zm1.26,23.32a1.23,1.23,0,0,0,.6.17h.28a1.18,1.18,0,0,0,.71-.25v40.74h-1.59Zm1.87-20.28,1-1,.22,1.32Zm.73,18.9h1.59v42h-1.59Zm1.4-7.82v2.18h-.84v-2.18Zm-.84-.61v-2.18h.84v2.18Zm.84,3.39v2.19h-.84v-2.19Zm.17-17.24-.19.86-.8-.41.83-.45.18-.1Zm0-3.22-.2.53-.41-.28Zm-.92-.46.29-.16,0,.16-.13.6-.62-.33ZM486.3,178l-.12.46-.43-.2Zm0,6.38.13.82.06.34-1.09-.25.09-.09Zm-1.06-6.54.2-.18,0,.18.07.37-.59-.11Zm-1,0,.16-.28.17.28.14.24h-.61Zm.23,2.8.45.85h-.89Zm-1.11-2.8,0-.18.2.18.29.26-.6.11Zm.37,3.68-.86.19,0-.19.12-.72Zm-.62-3.26-.43.2-.11-.46Zm-1,3.26.5.27-.62.33-.13-.6,0-.16Zm-.31.71-.41.28-.2-.53Zm-.6,3,.83.45-.8.41-.19-.86,0-.1Zm-.21,1-.52.36-.26-.67Zm-.46,3.41L480,190l-.3-.77Zm-6.82,62.24h21.15v1.29H473.77Zm0,1.9h21.15v1.29H473.77Zm-.94,1.72h23.22v1.29H472.83Zm23.2,1.68v2.49h-1.61v-2.49Zm-23.25,5.06h1.61v1.63h-1.61Zm1.64,18.5h-1.6V265h1.6Zm0-21.1h-1.61v-2.49h1.61Zm.74,2.6h1.61v1.63h-1.61Zm1.64,18.5h-1.6V265h1.6Zm0-21.1h-1.6v-2.49h1.6Zm.75,2.6h1.61v1.63h-1.61Zm1.64,18.5h-1.6V265h1.6Zm0-21.1h-1.6v-2.49h1.6Zm.75,2.6h1.61v1.63H480Zm1.64,18.5H480V265h1.61Zm0-21.1H480v-2.49h1.6Zm.75,2.6H484v1.63h-1.6Zm1.64,18.5h-1.61V265H484Zm0-21.1h-1.6v-2.49H484Zm.75,2.6h1.6v1.63h-1.6Zm1.64,18.5h-1.61V265h1.61Zm0-21.1h-1.6v-2.49h1.6Zm.75,2.6h1.6v1.63h-1.6Zm1.64,18.5h-1.61V265h1.61Zm0-21.1h-1.61v-2.49h1.61Zm.75,2.6h1.6v1.63h-1.6Zm1.64,18.5h-1.61V265h1.61Zm0-21.1h-1.61v-2.49h1.61Zm.75,2.6h1.6v1.63H492Zm1.63,18.5H492V265h1.6Zm0-21.1H492v-2.49h1.61Zm.79,2.6H496v1.63h-1.61Zm1.64,18.5h-1.61V265h1.61Zm.76-18.5h1.61v1.63h-1.61Zm1.64,18.5h-1.61V265h1.61Z" transform="translate(-354.83 -122.81)"/><path class="cls-11" d="M357.61,190.1c-.06,3.35.41,4.35,1,4.29s8.29-7.53,8.29-7.53l-6.26-4.29S357.67,186.75,357.61,190.1Z" transform="translate(-354.83 -122.81)"/><rect class="cls-7" x="3.04" y="23.52" width="3.47" height="4.57"/><path class="cls-7" d="M402.7,213.46l-1,.48-3.13,4.72-.64,2.63a15.28,15.28,0,0,0,3-.92,54.46,54.46,0,0,0,2.66-5A8.68,8.68,0,0,0,403,214,1.47,1.47,0,0,0,402.7,213.46Z" transform="translate(-354.83 -122.81)"/><path class="cls-7" d="M389.43,234.11a62.23,62.23,0,0,0,6.32-3.57c1.61-1.21,2.27-10.11,2.27-10.11l-8.15,1.37Z" transform="translate(-354.83 -122.81)"/><polygon class="cls-7" points="13.93 65.28 17.38 69.43 18.11 63.92 16.23 62.34 13.93 65.28"/><polygon class="cls-7" points="25.51 63.19 25.51 66.64 26 73.98 29.6 73.72 27.62 62.73 25.51 63.19"/><polygon class="cls-7" points="20.97 53.08 22.32 53.08 21.65 46.01 20.97 53.08"/><polygon class="cls-7" points="27.66 59.44 34.74 58.76 27.66 58.08 27.66 59.44"/><polygon class="cls-7" points="15.68 59.44 15.68 58.08 8.6 58.76 15.68 59.44"/><polygon class="cls-7" points="25.62 54.63 29.93 48.98 24.63 53.71 25.62 54.63"/><polygon class="cls-7" points="27.53 56.92 33.73 53.44 26.98 55.68 27.53 56.92"/><polygon class="cls-7" points="15.53 56.92 16.08 55.68 9.34 53.44 15.53 56.92"/><polygon class="cls-7" points="17.41 54.63 18.41 53.71 13.1 48.98 17.41 54.63"/><path class="cls-11" d="M365.23,174.94c-.21-1.18-2.12-9.31-2.17-10.09s0-.89-.08-2.41-2.54-3.5-2.54-3.5l-1.59,4.84s-.18,7.79.08,10,.94,4.08,1.12,5.13.63,4.05,1,6.35,1,5.67,1,5.67l6.2-2.14s-2.3-8.16-2.59-9S365.44,176.12,365.23,174.94Z" transform="translate(-354.83 -122.81)"/><path class="cls-7" d="M365.23,174.94c-.21-1.18-2.12-9.31-2.17-10.09s0-.88-.07-2.24c.82-.56-.08-4.7-.3-4.59s-3.15,3.85-3.3,4.12L359,163.3a11.3,11.3,0,0,0-.17,1.41c0,.43,0,1,0,1.61a1.64,1.64,0,0,0,1.71,1.43c.87,0,1.49-1.57,1.93-1s2,11.06,2,13.18a58.76,58.76,0,0,1-1.22,7.92l2.87-6.67c-.21-.72-.37-1.26-.43-1.45C365.41,178.89,365.44,176.12,365.23,174.94Z" transform="translate(-354.83 -122.81)"/><polygon class="cls-11" points="3.27 40.36 6.28 40.36 6.67 31.37 2.88 31.37 3.27 40.36"/><rect class="cls-11" x="3.12" y="40.26" width="3.28" height="0.88"/><polygon class="cls-11" points="3.92 42.98 5.62 42.98 6.31 41.06 3.24 41.06 3.92 42.98"/><rect class="cls-7" x="4.06" y="42.52" width="1.41" height="0.93" rx="0.41"/><rect class="cls-7" x="2.19" y="30.11" width="5.18" height="1.3" rx="0.51"/><polygon class="cls-7" points="2.65 31.01 6.86 31.01 9.52 28.91 0.03 28.91 2.65 31.01"/><rect class="cls-11" y="28.08" width="9.55" height="0.83"/><polygon class="cls-11" points="4.77 25.46 0 25.46 0.39 26.77 0 28.09 4.77 28.09 9.55 28.09 9.16 26.77 9.55 25.46 4.77 25.46"/><path class="cls-11" d="M359.61,139.9c-.11.1.6.45.38,1.41s-2.84,2-2.84,2.9a5.3,5.3,0,0,0,.72,2.12h3.47c.77,0,2.26-1.84,1.38-4.47A3,3,0,0,0,359.61,139.9Z" transform="translate(-354.83 -122.81)"/><path class="cls-11" d="M376.34,175.8c-3.32,0-6.2,2.2-6.2,4.71a5,5,0,0,0,1.07,3.53s10.72.23,10.72.23a5.62,5.62,0,0,0,.81-3.4C382.74,178.42,380.29,175.8,376.34,175.8Z" transform="translate(-354.83 -122.81)"/><path class="cls-7" d="M376.38,176.48c-3.22,0-6,2.13-6,4.56a4.8,4.8,0,0,0,1,3.42s10.39.23,10.39.23a5.46,5.46,0,0,0,.78-3.29C382.58,179,380.2,176.48,376.38,176.48Z" transform="translate(-354.83 -122.81)"/><path class="cls-11" d="M380.36,193.76a37.38,37.38,0,0,1,.19-4.57,18.77,18.77,0,0,0,.39-4.79c-.16-1.57-.71-4-.71-4a6.06,6.06,0,0,0-3.74-1.22,8.7,8.7,0,0,0-4.05,1.9s.11,5.91.66,7.22-.66,3.84-.66,3.84l4.58,5.39,5-1.41S380.39,194.83,380.36,193.76Z" transform="translate(-354.83 -122.81)"/><path class="cls-11" d="M382.43,195.92c-1.29-.23-3.65,1.3-5.35.53s-4.47-4.88-5.29-6-4.28-4.41-4.28-4.41l-8,6.94a10.25,10.25,0,0,1,2.53,6.41c-.09,2.66-1.39,4.71-1.06,6.36.37,1.81,3.51.61,3.31,5.23-.08,2-3.95,6.23-3.72,10.76.15,2.92,3.47,1.78,3.29,2.94s-2,5.56-1.94,8.3,2,4.07,2.07,7c.13,3.51.25,6.4.23,7.11-.06,1.89-1.18,5.65-1.53,10.18s.65,12.7.29,14.41a61.71,61.71,0,0,1-3,7.29h32.41c.53,0-.76-11.94-.76-12.17s1.23-.59,1.47-.83-.41-13.64-.41-14.41,1.29-1.41,1.76-2-5.18-47.11-6.47-49.81S383.73,196.16,382.43,195.92Z" transform="translate(-354.83 -122.81)"/><path class="cls-11" d="M380.83,180.35a4.51,4.51,0,0,0-4.44-1.25,4.7,4.7,0,0,0-3.71.94,4.29,4.29,0,0,0-1.47,2.53,2.13,2.13,0,0,0-.44,1.36c-.11,1.75,2,2.83,2,2.83l8.12.1s1.67-1,1.77-1.8a4.14,4.14,0,0,0-.68-2A5.61,5.61,0,0,0,380.83,180.35Z" transform="translate(-354.83 -122.81)"/><polygon class="cls-7" points="35.43 94.16 39.7 87.18 34.05 81.3 35.43 94.16"/><polygon class="cls-7" points="36.53 102.83 36.53 103.65 39.63 104.2 50.37 86.6 49.07 85.81 36.53 102.83"/><polygon class="cls-11" points="35.58 92.67 36.53 102.83 38.64 103.42 49.07 85.81 42.13 81.93 35.58 92.67"/><polygon class="cls-11" points="24.88 131.89 32.73 127.58 27.48 83.01 24.88 131.89"/><path class="cls-7" d="M387.57,199.06l3.2,48.66s-11.14,5.88-11.06,7,3.37,1.8,3.37,3.14-11.68,6-12.47,7.21,5.57-1,5.88.79-2.11,12.94-2.11,13.13h18c.53,0-.76-11.94-.76-12.17s1.23-.59,1.47-.83-.41-13.64-.41-14.41,1.29-1.41,1.76-2-5.18-47.11-6.47-49.81A5.65,5.65,0,0,0,387.57,199.06Z" transform="translate(-354.83 -122.81)"/><path class="cls-7" d="M378.71,234.6a57.59,57.59,0,0,1-4.45,6.14c-1.24,1.06-4.18,5.24-5.94,7.88a7.31,7.31,0,0,1-5,2.94c-.36,5.3,2.41,8.36,4.7,6.3s6.77-14.35,7.65-16.41,3.47-.24,4.11-.3,2-25.77,1.78-25.83S379.64,233.2,378.71,234.6Z" transform="translate(-354.83 -122.81)"/><path class="cls-11" d="M361.82,189.46c-1.09,1-4.08,3.56-3.62,4.76,1.3,3.41,7.34-.47,8.88-7.18.8-3.49.78-3.29-1.1-6.35C366,180.69,362.92,188.46,361.82,189.46Z" transform="translate(-354.83 -122.81)"/><path class="cls-7" d="M357.71,153.84a1.28,1.28,0,0,0-.39,1.12,7.62,7.62,0,0,1-.28,2c0,.16.08,1.34.08,1.34s.9.22.77.56-.79.69-.86.82a19.83,19.83,0,0,0,1,2.41s0-.54.08-1a1.4,1.4,0,0,1,1.67-.87c.73.26,1.43,1.95,1.43,1.95l.28-8-3.55,0S357.89,153.72,357.71,153.84Z" transform="translate(-354.83 -122.81)"/><path class="cls-7" d="M380.39,194a36.58,36.58,0,0,1,.16-4.78l1.87-3.61s.22-.08.25-.79S382,183.25,382,183a2.09,2.09,0,0,0-.2-.79c-.19-.43-4.89-1.87-5.1-1.85a19.55,19.55,0,0,0-3.82,1.73,4.06,4.06,0,0,0-1.8,3c0,1.21,1.59,3.71,1.59,3.71l.24-1.33a9.53,9.53,0,0,1-.06-2.22c.15-.6,1-.71,1.83-.68s1.18-.29,1.15-1-2.06-.13-2.3-.31,3.06-2.51,3.21-2.51a25.82,25.82,0,0,1,2.89,2.06c.07.15-1.91-.1-2.33.21s-.21,2.51-.13,2.82-.47.4-.86.34-.78.44-.55.4c.39-.08.86.44.57.49a4,4,0,0,0-.89.46,4.27,4.27,0,0,1,1.46-.12c.14.05-.05.58.06.74s1.25-.24,1.25-.68-.41-1.47-.41-2.07,1.62-.71,2.09,0-2,3.88-2.89,4a23.31,23.31,0,0,1-3.36-.39c-.34,0-.16.52,2.51,3.71a9.05,9.05,0,0,0,5.13,3.19c.45.1,3.2.49,3.2.49S380.58,194.49,380.39,194Z" transform="translate(-354.83 -122.81)"/><path class="cls-11" d="M362,156.46a5.56,5.56,0,0,0-1.26-1.42c-.18-.1-.71-.07-.78.76s1.28,2.46,1.15,3.37.62,3.21.6,2.52c-.09-3.1,1.08-3.37,1-3.66A12.52,12.52,0,0,0,362,156.46Z" transform="translate(-354.83 -122.81)"/><path class="cls-7" d="M400.48,211.94c-.34.48.29,1.42.16,1.53s-1.14-.27-1.29.17.63,1.32.51,1.35-1.22-.79-1.51-.15c-.13.28.28.82.22.87s-.89-.13-.68.81a9.39,9.39,0,0,0,.69,1.46l3.4-5.64S400.65,211.7,400.48,211.94Z" transform="translate(-354.83 -122.81)"/><path class="cls-12" d="M397.94,215.94c-.19.26.42,1.06.64,1.42s.66,1,.88,1,.71-.35.71-.47a11.61,11.61,0,0,0-.84-1.29C399.12,216.34,398.24,215.54,397.94,215.94Z" transform="translate(-354.83 -122.81)"/><path class="cls-12" d="M400,215.16c-.29-.27-1.38-.87-1.59-.38-.13.31.68,1,1,1.29s.93.92,1.15.87.64-.54.61-.66A12,12,0,0,0,400,215.16Z" transform="translate(-354.83 -122.81)"/><path class="cls-12" d="M401,214c-.3-.28-1.41-.89-1.63-.39-.13.31.7,1,1,1.31s.95.94,1.18.89.65-.55.62-.67A12.44,12.44,0,0,0,401,214Z" transform="translate(-354.83 -122.81)"/><path class="cls-12" d="M400.46,212c-.17.29.55,1.09.83,1.45s.8,1.06,1,1,.72-.44.71-.57a11.82,11.82,0,0,0-1-1.3C401.76,212.31,400.74,211.55,400.46,212Z" transform="translate(-354.83 -122.81)"/><path class="cls-11" d="M357.24,155.41a1,1,0,0,0-.65,1,.82.82,0,0,0,.46.57,2.17,2.17,0,0,1,1.77-.43.64.64,0,0,0,.76-.73C359.54,155.41,357.67,155.29,357.24,155.41Z" transform="translate(-354.83 -122.81)"/><path class="cls-11" d="M359.08,157.19A6.33,6.33,0,0,0,357,157c-.57.47,0,1.26.15,1.34a24.61,24.61,0,0,0,3.1,0c.22-.05.26-.54.11-.74A4.9,4.9,0,0,0,359.08,157.19Z" transform="translate(-354.83 -122.81)"/><path class="cls-11" d="M358.74,158.61c-.35-.07-1.51-.33-1.64-.19a1.05,1.05,0,0,0-.07,1.29,18.82,18.82,0,0,0,2.58-.13c.18-.06.17-.49,0-.65A2.45,2.45,0,0,0,358.74,158.61Z" transform="translate(-354.83 -122.81)"/><path class="cls-7" d="M372.58,209.19c-4.47,3.29-11.09,10-11.62,11.61a4.63,4.63,0,0,0,.09,2.35c.88,1,2.63.69,2.79,1.35A21.32,21.32,0,0,1,365.2,219c.77-2.33,5.59-6.15,8.67-9.22a27.72,27.72,0,0,0,4.27-5.25S377.05,205.9,372.58,209.19Z" transform="translate(-354.83 -122.81)"/><path class="cls-7" d="M362.46,235.49a15.46,15.46,0,0,1,1.4,3.55l.1,0,14.18-32.21s-3.27,5.69-6,9.94C367.48,223.84,362.46,235.49,362.46,235.49Z" transform="translate(-354.83 -122.81)"/><path class="cls-11" d="M357.81,152.49c-.2,0-1.06,1.31-1.14,1.84a2.14,2.14,0,0,0,.41,1.22l.68-.16s0-.39,0-.61.32-.8.4-1.17S358,152.53,357.81,152.49Z" transform="translate(-354.83 -122.81)"/><path class="cls-7" d="M367.35,183.07l-.07-.16h0a75.88,75.88,0,0,1-2.14,8.13c-1.18,2.6-3.38,3.47-3.17,3.85a8.32,8.32,0,0,1,1.37,3.88c.12,2-.8,3.39-.22,3.51s3.13-3.47,4.16-7.64c.78-3.19,1.34-6.11,1.56-7.31-.74-.74-1.33-1.29-1.33-1.29S367.88,183.92,367.35,183.07Z" transform="translate(-354.83 -122.81)"/><path class="cls-13" d="M488.43,283.91" transform="translate(-354.83 -122.81)"/><path class="cls-3" d="M651.63,249.71" transform="translate(-354.83 -122.81)"/><path class="cls-10" d="M444.08,236.06h.3v47.65h.9V236.06h.31v47.65h.9V236.06h.22a.2.2,0,0,0,.09.06v47.59h.9V236.06H448v47.65h.9V236.06h.31v47.65h.91V236.06h.3v47.65h.91V236.06h.3v47.65h.91V236.06h.3v47.65h.9V236.06h.31v47.65h.9V236.06h.3v47.65h.91V236.06h.3v47.65h.91V236.06h.3v47.65h.91V236.09a.05.05,0,0,0,.05,0h.26v47.65h.9V236.06h.31v47.65h.9V236.06h.31v47.65h.9V236.06h.3v47.65h.93V239.52h.3v44.19h1V256.65h.3v27.06h1V256.65h.31v27.06h1V264.94h.31v18.77H469v-18.8h-1.6v-8.34h-2.65v-17h.36v-3.46h-2.57V233.4h-2v-.06c0-2.29-3.55-4.15-7.92-4.15s-7.92,1.86-7.92,4.15v.06h-2v2.66h-2.56v3.46h.3v17h-2.65v8.34h-1.55v15.44l0,3.36h1.28V264.94h.29v18.77h1V256.65h.31v27.06h1V256.65h.3v27.06h1V239.52h.31v44.19h1V236.06h.3v47.65h.91" transform="translate(-354.83 -122.81)"/><path class="cls-8" d="M510.85,225.47h.37v58.24h1.1V225.47h.38v58.24h1.1V225.47h.26a.41.41,0,0,0,.11.07v58.17h1.11V225.47h.37v58.24h1.11V225.47h.37v58.24h1.11V225.47h.37v58.24h1.11V225.47h.37v58.24h1.11V225.47h.37v58.24h1.1V225.47h.38v58.24h1.1V225.47h.37v58.24h1.11V225.47H526v58.24h1.11V225.47h.37v58.24h1.11v-58.2l.06,0H529v58.24h1.11V225.47h.37v58.24h1.1V225.47h.38v58.24H533V225.47h.37v58.24h1.14v-54h.37v54h1.25V250.64h.37v33.07h1.25V250.64h.38v33.07h1.24V260.77h.38v22.94h1.58v-23h-2V250.54h-3.24V229.7h.44v-4.23h-3.14v-3.25H531v-.08c0-2.8-4.34-5.07-9.68-5.07s-9.68,2.27-9.68,5.07v.08h-2.42v3.25h-3.13v4.23h.37v20.84h-3.24v10.19h-1.9v18.88l0,4.1h1.56V260.77h.36v22.94h1.25V250.64h.37v33.07h1.25V250.64h.37v33.07h1.25v-54h.37v54h1.25V225.47h.37v58.24h1.11" transform="translate(-354.83 -122.81)"/><path class="cls-8" d="M571.42,206.08V193.54a.72.72,0,0,0-.72-.72h-.53a.72.72,0,0,1-.72-.72v-8.63h-.67V181H567.5v-1.88a.72.72,0,0,0-.72-.72h-.08a.72.72,0,0,1-.72-.72V177a.72.72,0,0,0-.72-.72h-.16a.72.72,0,0,1-.72-.72v-.95H563v-1.25h-.94v-9.27H561v-3H559.6l-.77-25.4-.76,25.4h-1.38v3H555.6v9.27h-1v1.25h-1.36v1.67h-.86v0h-.74v1.44a.72.72,0,0,1-.72.72h-.08a.72.72,0,0,0-.72.72V181H549v2.48h-.57v8.63a.72.72,0,0,1-.72.72h-.38a.72.72,0,0,0-.72.72v12.54H545.5v76.78a.72.72,0,0,0,.72.72h0a.72.72,0,0,0,.72-.72V208.22a.72.72,0,0,1,.72-.72h.1a.72.72,0,0,1,.72.72v75.36h1.32V208.22a.72.72,0,0,1,.72-.72h.09a.72.72,0,0,1,.72.72v75.36h1.32V208.22a.72.72,0,0,1,.72-.72h.09a.72.72,0,0,1,.72.72v74.64a.72.72,0,0,0,.72.72h.51a.72.72,0,0,0,.72-.72V185.69h.9v97.89h1.32V185.69h.89v97.89h1.33V185.69h.86v97.17a.72.72,0,0,0,.72.72h1.11a.72.72,0,0,0,.72-.72V208.21a.72.72,0,0,1,.72-.72h.09a.72.72,0,0,1,.72.72v75.37h1.32V208.21a.72.72,0,0,1,.72-.72h.09a.72.72,0,0,1,.72.72v75.37h1.32V208.21a.72.72,0,0,1,.72-.72h.1a.72.72,0,0,1,.72.72v75.37h1.17v-77.5Zm-13.07-41h1a.72.72,0,0,1,.72.72v14.45a.72.72,0,0,1-.72.72h-1a.72.72,0,0,1-.72-.72V165.78A.72.72,0,0,1,558.35,165.06Zm-9.54,41h-1V194.34h1Zm2.46,0h-1V194.34h1Zm0-13.26h-1v-7.16h1Zm0-9.32h-1.1v-1.43h1.1Zm2.43,22.58h-1V194.34h1Zm0-13.26h-1v-7.16h1Zm.29-9.32h-1.11v-1.43H554Zm2.71,0h-1.11v-1.43h1.11Zm2.71,0H558.3v-1.43h1.11Zm2.71,0H561v-1.43h1.11Zm1.61-1.43h1.1v1.43h-1.1Zm1.12,24h-1V194.35h1Zm0-13.26h-1v-7.14h1Zm2.47,13.28h-1V194.35h1Zm0-13.26h-1v-7.16h1Zm.22-9.33h-1.1v-1.43h1.1Zm2.21,22.59h-1V194.35h1Z" transform="translate(-354.83 -122.81)"/><path class="cls-3" d="M649.16,281a8.4,8.4,0,0,1-8.44,8.23H368.31c-4.28,0-7.8-3-8.3-8.58Z" transform="translate(-354.83 -122.81)"/><path class="cls-14" d="M649.16,279.16V281L360,280.69c0-.45-.06-.92-.06-1.4V279Z" transform="translate(-354.83 -122.81)"/></g></g></svg>