<svg width="426" height="48" viewBox="0 0 426 48" fill="none" xmlns="http://www.w3.org/2000/svg">
<g clip-path="url(#clip0_9_27)">
<path d="M51.8904 17.0082H71.7333V20.6829H63.9203V41.3984H59.6379V20.6829H51.8577L51.8904 17.0082ZM70.8833 23.7399H74.5446V27.1545H74.6099C74.7407 26.6667 74.9696 26.2114 75.2964 25.7561C75.6234 25.3008 76.0156 24.8781 76.506 24.5204C76.9636 24.1301 77.4867 23.8374 78.0751 23.6098C78.6308 23.3821 79.2192 23.2521 79.8077 23.2521C80.2654 23.2521 80.5922 23.2845 80.7557 23.2845C80.9192 23.3171 81.1153 23.3496 81.2787 23.3496V27.0894C81.0172 27.0244 80.723 26.9919 80.4288 26.9594C80.1346 26.9268 79.8731 26.8943 79.5789 26.8943C78.925 26.8943 78.304 27.0244 77.7156 27.2845C77.1271 27.5447 76.6368 27.935 76.1791 28.4228C75.7542 28.9431 75.3945 29.561 75.133 30.3089C74.8715 31.0569 74.7407 31.935 74.7407 32.9106V41.3008H70.8179L70.8833 23.7399V23.7399ZM99.2583 41.3984H95.4008V38.9268H95.3355C94.8451 39.8374 94.1259 40.5204 93.1779 41.0732C92.2299 41.626 91.2492 41.8862 90.2685 41.8862C87.9475 41.8862 86.2477 41.3333 85.2015 40.1626C84.1555 39.0244 83.6324 37.2683 83.6324 34.9594V23.7399H87.5552V34.5691C87.5552 36.1301 87.8494 37.2358 88.4706 37.8537C89.059 38.504 89.9089 38.8293 90.9877 38.8293C91.8049 38.8293 92.4914 38.6992 93.0471 38.439C93.6029 38.1789 94.0606 37.8537 94.3875 37.4309C94.747 37.0082 94.9759 36.4878 95.1393 35.9024C95.3028 35.3171 95.3682 34.6667 95.3682 33.9838V23.7399H99.291V41.3984H99.2583V41.3984ZM105.927 35.7399C106.058 36.8781 106.483 37.6585 107.235 38.1463C107.987 38.6016 108.902 38.8293 109.948 38.8293C110.307 38.8293 110.732 38.7967 111.19 38.7317C111.648 38.6667 112.105 38.5691 112.498 38.4065C112.923 38.2439 113.25 38.0162 113.511 37.6911C113.773 37.3659 113.903 36.9756 113.871 36.4878C113.838 36 113.675 35.5772 113.315 35.2521C112.955 34.9268 112.53 34.6992 112.007 34.4716C111.484 34.2765 110.863 34.1138 110.177 33.9838C109.49 33.8537 108.804 33.6911 108.085 33.5284C107.365 33.3659 106.646 33.1707 105.96 32.9431C105.273 32.7155 104.685 32.4228 104.129 32C103.606 31.6098 103.148 31.122 102.854 30.504C102.527 29.8862 102.364 29.1707 102.364 28.2601C102.364 27.2845 102.593 26.504 103.083 25.8537C103.541 25.2033 104.162 24.6829 104.881 24.2927C105.6 23.9024 106.417 23.6098 107.3 23.4472C108.183 23.2845 109.033 23.2195 109.817 23.2195C110.732 23.2195 111.615 23.3171 112.432 23.5122C113.25 23.7073 114.034 24 114.688 24.4553C115.375 24.8781 115.93 25.4634 116.355 26.1463C116.813 26.8293 117.074 27.6748 117.205 28.6504H113.119C112.923 27.7073 112.498 27.0894 111.844 26.7643C111.157 26.439 110.406 26.2765 109.523 26.2765C109.261 26.2765 108.902 26.3089 108.542 26.3415C108.15 26.4065 107.823 26.4716 107.463 26.6016C107.137 26.7317 106.842 26.9268 106.614 27.1545C106.385 27.3821 106.254 27.7073 106.254 28.0976C106.254 28.5854 106.417 28.9431 106.744 29.2358C107.071 29.5284 107.496 29.7561 108.052 29.9838C108.575 30.1789 109.196 30.3415 109.883 30.4716C110.569 30.6016 111.288 30.7643 112.007 30.9268C112.727 31.0894 113.413 31.2845 114.1 31.5122C114.786 31.7399 115.407 32.0326 115.93 32.4553C116.453 32.8455 116.911 33.3333 117.238 33.9187C117.565 34.504 117.728 35.2521 117.728 36.0976C117.728 37.1382 117.499 38.0162 117.009 38.7643C116.519 39.4797 115.897 40.0976 115.146 40.5528C114.394 41.0082 113.511 41.3333 112.596 41.561C111.648 41.7561 110.732 41.8862 109.817 41.8862C108.706 41.8862 107.66 41.7561 106.712 41.496C105.764 41.2358 104.914 40.8455 104.227 40.3577C103.541 39.8374 102.985 39.2195 102.593 38.439C102.2 37.6911 101.972 36.7805 101.939 35.7073H105.894V35.7399H105.927V35.7399ZM118.84 23.7399H121.814V18.4065H125.737V23.7073H129.268V26.6016H125.737V36.0326C125.737 36.4553 125.77 36.7805 125.803 37.1057C125.835 37.3984 125.933 37.6585 126.031 37.8537C126.162 38.0488 126.358 38.2114 126.587 38.3089C126.849 38.4065 127.176 38.4716 127.633 38.4716C127.895 38.4716 128.189 38.4716 128.45 38.439C128.712 38.4065 129.006 38.374 129.268 38.3089V41.3333C128.843 41.3984 128.418 41.4309 127.993 41.4634C127.568 41.5284 127.176 41.5284 126.718 41.5284C125.672 41.5284 124.855 41.4309 124.233 41.2358C123.612 41.0406 123.122 40.7479 122.762 40.3903C122.403 40 122.174 39.5448 122.043 38.9919C121.912 38.439 121.847 37.7561 121.814 37.0406V26.6342H118.84V23.6748V23.7399V23.7399ZM132.014 23.7399H135.708V26.1463H135.773C136.329 25.1057 137.081 24.3903 138.061 23.935C139.042 23.4797 140.088 23.2521 141.265 23.2521C142.671 23.2521 143.88 23.4797 144.926 24C145.972 24.4878 146.822 25.1382 147.509 26.0162C148.195 26.8618 148.718 27.8699 149.045 29.0082C149.372 30.1463 149.568 31.3821 149.568 32.6504C149.568 33.8537 149.405 34.9919 149.111 36.0976C148.784 37.2033 148.326 38.2114 147.705 39.0569C147.084 39.9024 146.299 40.5854 145.319 41.1057C144.338 41.626 143.226 41.8862 141.919 41.8862C141.363 41.8862 140.775 41.8211 140.219 41.7236C139.663 41.626 139.107 41.4634 138.584 41.2358C138.061 41.0082 137.571 40.7155 137.146 40.3577C136.688 40 136.329 39.5772 136.035 39.122H135.969V47.935H132.046V23.7399H132.014V23.7399ZM145.711 32.5854C145.711 31.8049 145.613 31.0244 145.384 30.2765C145.188 29.5284 144.861 28.8781 144.436 28.2927C144.011 27.7073 143.488 27.2521 142.9 26.8943C142.278 26.5366 141.559 26.374 140.775 26.374C139.14 26.374 137.898 26.9268 137.048 28.065C136.231 29.2033 135.806 30.7317 135.806 32.6179C135.806 33.5284 135.904 34.3415 136.133 35.0894C136.362 35.8374 136.656 36.4878 137.113 37.0406C137.538 37.5935 138.061 38.0162 138.682 38.3415C139.304 38.6667 139.99 38.8293 140.807 38.8293C141.723 38.8293 142.442 38.6342 143.063 38.2765C143.684 37.9187 144.174 37.4309 144.599 36.8781C144.992 36.2927 145.286 35.6423 145.449 34.8943C145.613 34.1138 145.711 33.3659 145.711 32.5854ZM152.608 17.0082H156.531V20.6829H152.608V17.0082ZM152.608 23.7399H156.531V41.3984H152.608V23.7399ZM160.029 17.0082H163.952V41.3984H160.029V17.0082ZM175.916 41.8862C174.511 41.8862 173.236 41.6585 172.124 41.1707C171.013 40.6829 170.098 40.065 169.313 39.2521C168.561 38.439 167.973 37.4309 167.58 36.2927C167.188 35.1545 166.959 33.8862 166.959 32.5528C166.959 31.2195 167.156 29.9838 167.58 28.8455C167.973 27.7073 168.561 26.7317 169.313 25.8862C170.065 25.0732 171.013 24.4228 172.124 23.9675C173.236 23.5122 174.511 23.2521 175.916 23.2521C177.322 23.2521 178.597 23.4797 179.709 23.9675C180.82 24.4228 181.735 25.0732 182.52 25.8862C183.272 26.6992 183.86 27.7073 184.252 28.8455C184.665 30.0384 184.875 31.2913 184.874 32.5528C184.874 33.9187 184.677 35.1545 184.252 36.2927C183.827 37.4309 183.272 38.4065 182.52 39.2521C181.768 40.065 180.82 40.7155 179.709 41.1707C178.597 41.626 177.355 41.8862 175.916 41.8862ZM175.916 38.7967C176.766 38.7967 177.551 38.6016 178.172 38.2439C178.826 37.8862 179.316 37.3984 179.741 36.813C180.166 36.2277 180.46 35.5447 180.657 34.8293C180.853 34.0813 180.951 33.3333 180.951 32.5528C180.951 31.8049 180.853 31.0569 180.657 30.3089C180.46 29.561 180.166 28.9106 179.741 28.3252C179.316 27.7399 178.793 27.2845 178.172 26.9268C177.518 26.5691 176.766 26.374 175.916 26.374C175.067 26.374 174.282 26.5691 173.661 26.9268C173.007 27.2845 172.517 27.7723 172.092 28.3252C171.667 28.9106 171.373 29.561 171.176 30.3089C170.98 31.0569 170.882 31.8049 170.882 32.5528C170.882 33.3333 170.98 34.0813 171.176 34.8293C171.373 35.5772 171.667 36.2277 172.092 36.813C172.517 37.3984 173.04 37.8862 173.661 38.2439C174.315 38.6342 175.067 38.7967 175.916 38.7967ZM186.05 23.7399H189.025V18.4065H192.948V23.7073H196.479V26.6016H192.948V36.0326C192.948 36.4553 192.981 36.7805 193.013 37.1057C193.046 37.3984 193.144 37.6585 193.242 37.8537C193.373 38.0488 193.569 38.2114 193.798 38.3089C194.059 38.4065 194.386 38.4716 194.844 38.4716C195.106 38.4716 195.4 38.4716 195.661 38.439C195.923 38.4065 196.217 38.374 196.479 38.3089V41.3333C196.054 41.3984 195.629 41.4309 195.204 41.4634C194.779 41.5284 194.386 41.5284 193.929 41.5284C192.883 41.5284 192.065 41.4309 191.444 41.2358C190.823 41.0406 190.333 40.7479 189.973 40.3903C189.614 40 189.385 39.5448 189.254 38.9919C189.123 38.439 189.058 37.7561 189.025 37.0406V26.6342H186.05V23.6748V23.7399Z" fill="black"/>
<path d="M47.3138 17.0081H29.3669L23.8423 0.0324707L18.285 17.0081L0.338135 16.9756L14.8525 27.4797L9.29524 44.4553L23.8096 33.9512L38.324 44.4553L32.7994 27.4797L47.3138 17.0081Z" fill="#9E1D22"/>
<path d="M34.0416 31.3171L32.7993 27.4797L23.8423 33.9512L34.0416 31.3171Z" fill="#CE1C31"/>
<path fill-rule="evenodd" clip-rule="evenodd" d="M266.821 5.61952V42.3024H229.947V5.61952H266.821ZM248.432 11.7854L245.378 21.1208L235.517 21.1028L243.492 26.8792L240.439 36.2146L248.414 30.4382L256.389 36.2146L253.865 28.4532L254.033 28.9776L248.462 30.439L253.354 26.8488L253.362 26.8733L261.329 21.1207H251.468L248.432 11.7854ZM306.52 5.61952V42.3024H269.645V5.61952H306.52ZM288.131 11.7854L285.077 21.1208L275.216 21.1028L283.191 26.8792L280.138 36.2146L288.113 30.4382L296.088 36.2146L293.564 28.4532L293.731 28.9776L288.161 30.439L293.053 26.8488L293.061 26.8733L301.028 21.1207H291.166L288.131 11.7854ZM346.219 5.61952V42.3024H309.344V5.61952H346.219ZM327.829 11.7854L324.776 21.1208L314.915 21.1028L322.89 26.8792L319.836 36.2146L327.812 30.4382L335.787 36.2146L333.263 28.4532L333.43 28.9776L327.86 30.439L332.752 26.8488L332.759 26.8733L340.727 21.1207H330.865L327.829 11.7854ZM385.917 5.61952V42.3024H349.043V5.61952H385.917ZM367.528 11.7854L364.475 21.1208L354.613 21.1028L362.589 26.8792L359.535 36.2146L367.51 30.4382L375.486 36.2146L372.962 28.4532L373.129 28.9776L367.559 30.439L372.451 26.8488L372.458 26.8733L380.425 21.1207H370.564L367.528 11.7854Z" fill="#9E1D22"/>
<mask id="mask0_9_27" style="mask-type:alpha" maskUnits="userSpaceOnUse" x="388" y="5" width="20" height="38">
<path d="M388.742 5.61952H407.179V42.3024H388.742V5.61952Z" fill="#5956E9"/>
</mask>
<g mask="url(#mask0_9_27)">
<path fill-rule="evenodd" clip-rule="evenodd" d="M425.616 5.61952V42.3024H388.742V5.61952H425.616ZM407.227 11.7854L404.174 21.1208L394.312 21.1028L402.287 26.8792L399.234 36.2146L407.209 30.4382L415.184 36.2146L412.661 28.4532L412.828 28.9777L407.257 30.439L412.149 26.8488L412.157 26.8733L420.124 21.1207H410.263L407.227 11.7854Z" fill="#9E1D22"/>
</g>
<mask id="mask1_9_27" style="mask-type:alpha" maskUnits="userSpaceOnUse" x="407" y="5" width="19" height="38">
<path d="M407.179 5.61952H425.616V42.3024H407.179V5.61952Z" fill="white"/>
</mask>
<g mask="url(#mask1_9_27)">
<path fill-rule="evenodd" clip-rule="evenodd" d="M425.616 5.61952V42.3024H388.742V5.61952H425.616ZM407.227 11.7854L404.174 21.1208L394.312 21.1028L402.287 26.8792L399.234 36.2146L407.209 30.4382L415.184 36.2146L412.661 28.4532L412.828 28.9776L407.257 30.439L412.149 26.8488L412.157 26.8733L420.124 21.1207H410.263L407.227 11.7854Z" fill="#DCDCE6"/>
</g>
</g>
<defs>
<clipPath id="clip0_9_27">
<rect width="425.389" height="48" fill="white" transform="translate(0.30542)"/>
</clipPath>
</defs>
</svg>
