<svg viewBox="0 0 209 244" xmlns="http://www.w3.org/2000/svg"><g fill="none" fill-rule="evenodd"><path d="M13.672-165c18.648 0 33.887-14.6 34.923-33h.112c1.036 18.4 16.276 33 34.923 33 18.648 0 33.887-14.6 34.923-33h.112c1.036 18.4 16.276 33 34.923 33 18.648 0 33.887-14.6 34.923-33h.112c1.036 18.4 16.276 33 34.923 33 18.648 0 33.887-14.6 34.923-33h.113c1.036 18.4 16.275 33 34.922 33 18.648 0 33.887-14.6 34.923-33h.113c1.036 18.4 16.275 33 34.922 33 18.648 0 33.887-14.6 34.923-33h.113c1.036 18.4 16.275 33 34.923 33 18.647 0 33.886-14.6 34.922-33h.113c1.036 18.4 16.275 33 34.923 33 18.647 0 33.886-14.6 34.922-33h.113c1.036 18.4 16.275 33 34.923 33 18.647 0 33.887-14.6 34.923-33h.112c1.036 18.4 16.275 33 34.923 33 18.647 0 33.887-14.6 34.923-33h.112c1.036 18.4 16.275 33 34.923 33 18.647 0 33.887-14.6 34.923-33h.112c1.036 18.4 16.275 33 34.923 33 18.647 0 33.887-14.6 34.923-33h.112c1.036 18.4 16.275 33 34.923 33 18.647 0 33.887-14.6 34.923-33h.112c1.036 18.4 16.276 33 34.923 33 18.647 0 33.887-14.6 34.923-33h.112c1.036 18.4 16.276 33 34.923 33 18.648 0 33.887-14.6 34.923-33h.112c1.036 18.4 16.276 33 34.923 33 18.648 0 33.887-14.6 34.923-33h.154c1.036 18.4 16.276 33 34.923 33 .996 0 1.982-.042 2.957-.123V418c-35.709.659-61.381.659-77.019 0-52.602-2.215-95.176-6.956-131.03-7-49.268-.06-199.037 7.27-225.053 7-49.637-.514-88.699-6.988-117.027-7-88.482-.039-132.38 7.209-176.041 7-87.2-.417-158.517 1.407-196.046 0-26.594-.997-104.607 5.985-122.029 6-13.852.012-30.062-6.014-42.01-6-21.832.025-46.78 6-67.015 6-256.282 0-271.953-2-47.011-6l-.001-583.919c2.568.601 5.245.919 7.996.919 18.648 0 33.887-14.6 34.923-33h.112c1.036 18.4 16.276 33 34.923 33z"/><g fill-rule="nonzero"><path d="M111.598 45.874a2.594 2.594 0 101.119-5.067 2.597 2.597 0 00-3.097 1.972 2.592 2.592 0 001.978 3.095zm4.911 12.136a2.594 2.594 0 101.119-5.067 2.597 2.597 0 00-1.139 5.067h.02zm-15.426-30.258a5.277 5.277 0 005.48-2.106 5.263 5.263 0 00.134-5.863 5.276 5.276 0 00-9.602 1.72 5.268 5.268 0 003.988 6.249zm96.216 92.59a6.16 6.16 0 006.377-2.478 6.145 6.145 0 00.146-6.834 6.16 6.16 0 00-11.204 1.984 6.131 6.131 0 00.818 4.635 6.144 6.144 0 003.863 2.694zm-82.517-55.47h-21.55v-.047c-.026-6.217-5.075-11.246-11.3-11.254H67.495V18.197c-19.559 0-35.414 15.838-35.414 35.374a31.406 31.406 0 005.847 18.293v22.52c-19.814 0-35.876 16.045-35.876 35.836 0 19.791 16.062 35.835 35.876 35.835v.237C16.918 166.55.016 183.628 0 204.617-.016 225.605 16.859 242.709 37.869 243h.066c18.732-.027 34.72-13.53 37.86-31.976l24.101-8.12c8.597-2.914 13.216-12.223 10.33-20.821l-3.157 1.06-1.173-3.464a.732.732 0 00-.923-.46l-17.332 5.84a.73.73 0 00-.455.922l1.174 3.47-4.12 1.39-1.174-3.47a.718.718 0 00-.923-.455l-17.351 5.854a.718.718 0 00-.455.922l.336 1.001a10.06 10.06 0 00-3.724 1.37l-.25-.744a.732.732 0 00-.924-.461l-17.331 5.84a.73.73 0 00-.462.922l1.055 3.108-4.37 1.475-17.385 5.854a18.144 18.144 0 011.337-17.309 18.187 18.187 0 0115.276-8.28 54.766 54.766 0 0026.41-6.585 54.804 54.804 0 005.504-3.503 55.78 55.78 0 0010.825-10.088c.04-.053.079-.112.125-.164a55.405 55.405 0 006.592-10.247 49.507 49.507 0 001.47-3.174 52.44 52.44 0 002.34-7.078 58.363 58.363 0 001.319-6.513c.165-1.231.31-2.476.415-3.733.106-1.258.165-2.53.165-3.813a55.186 55.186 0 00-.362-6.032c0-.138-.04-.27-.06-.408a53.378 53.378 0 00-2.221-10.246 61.709 61.709 0 00-1.022-2.937A56.296 56.296 0 0081.932 98.5a57.524 57.524 0 00-3.467-4.115 56.212 56.212 0 00-11.32-9.397 31.48 31.48 0 0018.4-8.56h29.257a5.785 5.785 0 005.788-5.782 5.785 5.785 0 00-5.788-5.781l-.02.006zm87.283 70.26h-11.57a6.081 6.081 0 00-6.078-6.045h-7.746v-19.024c-10.498 0-19.011 8.498-19.019 18.985a16.904 16.904 0 003.138 9.825v12.096c-10.501.194-18.913 8.753-18.913 19.245 0 10.491 8.412 19.05 18.913 19.244v.171c-11.388 0-20.62 9.222-20.62 20.598s9.232 20.597 20.62 20.597h.033c11.385-.01 20.613-9.225 20.628-20.597a5.422 5.422 0 00-5.373-5.413h-.053a5.422 5.422 0 00-3.838 1.585 5.41 5.41 0 00-1.587 3.834c-.004 5.392-4.379 9.762-9.777 9.766a9.779 9.779 0 01-8.678-4.807 9.756 9.756 0 010-9.911 9.779 9.779 0 018.678-4.806c4.947.01 9.815-1.23 14.154-3.602a28.675 28.675 0 002.953-1.877 29.83 29.83 0 005.808-5.42l.073-.085a29.628 29.628 0 003.52-5.505c.284-.56.547-1.126.791-1.706a27.635 27.635 0 001.266-3.78c.301-1.15.535-2.318.699-3.496a37.39 37.39 0 00.224-2.008c.06-.692.086-1.357.086-2.048a29.277 29.277 0 00-.191-3.24c0-.072 0-.145-.033-.217a29.32 29.32 0 00-1.194-5.505c-.171-.527-.35-1.06-.547-1.574a30.386 30.386 0 00-4.015-7.244 31.417 31.417 0 00-1.865-2.206 29.942 29.942 0 00-6.092-5.057 16.918 16.918 0 009.889-4.61h15.71a3.103 3.103 0 003.105-3.1 3.103 3.103 0 00-3.105-3.102l.006.04zm3.692-10.101a2.858 2.858 0 10-1.237 5.58 2.861 2.861 0 003.412-2.169 2.864 2.864 0 00-2.175-3.411zM81.273 18.421c5.028 1.101 10-2.074 11.108-7.095 1.108-5.021-2.065-9.99-7.09-11.103-5.026-1.113-10.005 2.05-11.125 7.07a9.309 9.309 0 001.24 7.038 9.328 9.328 0 005.867 4.09zm14.464 24.568a3.503 3.503 0 003.637-1.388c.819-1.156.86-2.691.102-3.888A3.502 3.502 0 0093.1 38.82a3.503 3.503 0 002.623 4.149l.014.02z" fill="#FFF"/><path d="M65.634 192.952l16.614-5.606a1.11 1.11 0 011.406.697l1.482 4.395a1.11 1.11 0 01-.697 1.407l-16.613 5.605a1.11 1.11 0 01-1.407-.697l-1.482-4.395a1.11 1.11 0 01.697-1.406z" fill="#F8AA61"/><path d="M43.282 200.887l16.613-5.605a1.11 1.11 0 011.406.697l1.482 4.395a1.11 1.11 0 01-.697 1.407l-16.613 5.605a1.11 1.11 0 01-1.406-.697l-1.483-4.395a1.11 1.11 0 01.698-1.407z" fill="#00C29D"/><path d="M88.466 185.252l16.613-5.605a1.11 1.11 0 011.407.696l1.482 4.396a1.11 1.11 0 01-.697 1.406l-16.613 5.605a1.11 1.11 0 01-1.407-.696l-1.482-4.395a1.11 1.11 0 01.697-1.407z" fill="#FF636F"/><path d="M15.047 214.658l95.65-32.272c2.91 8.628-1.723 17.981-10.35 20.891l-64.445 21.744c-8.626 2.91-17.977-1.725-20.887-10.352l.032-.01z" fill="#FFF"/><path d="M68 18v35H33c0-19.33 15.67-35 35-35z" fill="#F7D872"/><path d="M68 28v26H42c0-14.36 11.64-26 26-26z" fill="#00C29D"/><path d="M68 37v17H51c0-9.389 7.611-17 17-17z" fill="#F7D872"/><path d="M66 71c0 3.314 2.609 6 5.827 6h43.346c3.218 0 5.827-2.686 5.827-6H66z" fill="#FF636F"/><path d="M115.173 65H71.827C68.61 65 66 67.686 66 71h55c0-3.314-2.609-6-5.827-6z" fill="#00C29D"/><path fill="#F7D872" d="M39 62h24.258L65 74H39zM39.04 165.93c9.264.006 18.162-3.558 24.787-9.93H88a54.348 54.348 0 01-6.533 10H39l.04-.07z"/><path d="M71.268 146H92a50.538 50.538 0 01-2.342 6.904A51.573 51.573 0 0188.206 156H64a34.99 34.99 0 007.268-10z" fill="#F8AA61"/><path d="M74.147 136H94a71.275 71.275 0 01-.423 3.644A54.909 54.909 0 0192.235 146H71a33.282 33.282 0 003.147-10z" fill="#F7D872"/><path d="M74.442 129.965a33.81 33.81 0 00-.409-4.965h19.538c0 .135.047.263.06.398.235 1.953.358 3.917.369 5.883a45.53 45.53 0 01-.167 3.719H74c.273-1.666.42-3.349.442-5.035z" fill="#F8AA61"/><path d="M71 115h19.81A51.659 51.659 0 0193 125H74.04A34.546 34.546 0 0071 115z" fill="#F7D872"/><path d="M64 105h22.582a53.796 53.796 0 013.411 7.134c.37.944.695 1.928 1.007 2.866H71.192A34.956 34.956 0 0064 105z" fill="#F8AA61"/><path d="M38 95h40.518a56.48 56.48 0 013.467 4.014A53.715 53.715 0 0186 105H63.084C56.397 98.584 47.386 94.992 38 95z" fill="#F7D872"/><path d="M39 84h27.685v.116c.338.199.651.43 1.016.642A55.23 55.23 0 0179 94H39V84z" fill="#F8AA61"/><path fill="#F7D872" d="M38 74h26.452L66 84H38zM38.505 114.588V166l-.01-72h.01v10.294z"/><path d="M63 156c-6.681 6.417-15.656 10.007-25 10v-10h25z" fill="#F8AA61"/><path d="M39 146h32a34.987 34.987 0 01-7.253 10H39v-10z" fill="#F7D872"/><path d="M39 136h35a34.015 34.015 0 01-3.073 10H39v-10z" fill="#F8AA61"/><path d="M38 125h35.59a30.685 30.685 0 010 10H38v-10z" fill="#F7D872"/><path d="M39 115h31.955A34.514 34.514 0 0174 125H39v-10z" fill="#F8AA61"/><path d="M39 105h24.788A34.96 34.96 0 0171 115H39v-10z" fill="#F7D872"/><path d="M38 105V95c9.353-.01 18.334 3.583 25 10H38z" fill="#F8AA61"/><path d="M38 94v10.393c-14.143 0-25.607 11.464-25.607 25.607 0 14.143 11.464 25.607 25.607 25.607V166c-19.882 0-36-16.118-36-36s16.118-36 36-36z" fill="#00C29D"/><path fill="#F7D872" d="M37.95 105h1v51h-1z"/><path d="M13 130.5c0-14.08 11.64-25.496 26-25.5v51c-6.897 0-13.511-2.687-18.387-7.47-4.876-4.782-7.615-11.268-7.613-18.03z" fill="#FF636F"/><path d="M36.729 176.073V176H70a54.61 54.61 0 01-5.493 3.532 54.194 54.194 0 01-26.35 6.64c-10.031 0-18.162 8.207-18.162 18.331 0 10.125 8.13 18.332 18.161 18.332V233c-15.282-.035-27.76-12.342-28.147-27.763-.386-15.42 11.459-28.35 26.72-29.164z" fill="#F7D872"/><path d="M38.587 232.96v-9.93c10.054-.007 18.203-8.074 18.21-18.027 0-2.654 1.065-5.2 2.962-7.076A10.156 10.156 0 0166.908 195H67c-.046 4.4-.099 10.447-.106 10.577-.326 15.042-12.59 27.146-27.786 27.423H38c.191 0 .39-.033.587-.04z" fill="#F8AA61"/><path d="M39.515 233.768c15.028-.282 27.156-12.63 27.48-27.977 0-.126.058-6.301.104-10.791 5.48.051 9.898 4.601 9.901 10.198-.029 21.42-17.026 38.776-38 38.802v-10.232h.515z" fill="#F7D872"/><path d="M38.032 166.165V166H81c-.046.053-.086.112-.126.165a55.905 55.905 0 01-10.854 10.103H38.039c-15.673 0-28.38 12.675-28.38 28.311s12.707 28.311 28.38 28.311V243h-.066C16.905 242.709-.017 225.58 0 204.56c.016-21.02 16.964-38.123 38.032-38.382v-.013z" fill="#F8AA61"/><path d="M82.718 53C88.93 53 93.975 58.106 94 64.422v.047c-5.468 14.4-20.25 22.8-35.181 19.993C43.887 81.655 33.039 68.436 33 53h49.718z" fill="#00C29D"/><path d="M57 67.5C57 61.701 61.701 57 67.5 57S78 61.701 78 67.5 73.299 78 67.5 78 57 73.299 57 67.5zm7.048 0a3.452 3.452 0 103.452-3.452 3.458 3.458 0 00-3.452 3.452z" fill="#FFF"/><path d="M64 68.993A6 6 0 1069.993 63 5.993 5.993 0 0064 68.993z" fill="#26566C"/><circle fill="#48CFD5" cx="112.5" cy="43.5" r="2.5"/><circle fill="#48CFD5" cx="117.5" cy="55.5" r="2.5"/><circle fill="#48CFD5" cx="96.5" cy="39.5" r="3.5"/><circle fill="#48CFD5" cx="103" cy="23" r="5"/><circle fill="#48CFD5" cx="83.5" cy="9.5" r="9.5"/><circle fill="#FFF" cx="82.5" cy="4.5" r="2.5"/><path d="M177 110v19h-19c.007-10.496 8.512-19 19-19z" fill="#F7D872"/><path d="M177 115v14h-14c.007-7.734 6.273-14 14-14z" fill="#00C29D"/><path d="M177 120v9h-9c.004-4.972 4.032-9 9-9z" fill="#F7D872"/><path d="M177 139c0 .797.324 1.56.9 2.123a3.1 3.1 0 002.172.877h22.824a3.1 3.1 0 002.192-.865A2.968 2.968 0 00206 139h-29z" fill="#FF636F"/><path d="M202.896 135h-22.824a3.1 3.1 0 00-2.172.877A2.968 2.968 0 00177 138h29c0-.802-.328-1.571-.912-2.135a3.1 3.1 0 00-2.192-.865z" fill="#00C29D"/><path fill="#F7D872" d="M161 134h13.065l.935 6h-14zM161 189.957c5.109.004 10.015-2.135 13.668-5.957H188a32.669 32.669 0 01-3.581 6H161v-.043z"/><path d="M178.913 179H190a32.305 32.305 0 01-1.252 4.141 30.534 30.534 0 01-.783 1.859H175a21.039 21.039 0 003.913-6z" fill="#F8AA61"/><path d="M180.637 173H191c-.059.718-.13 1.435-.222 2.189a36.104 36.104 0 01-.691 3.811H179a22.222 22.222 0 001.637-6z" fill="#F7D872"/><path d="M180.233 170.978a22.417 22.417 0 00-.226-2.978h10.76c0 .079 0 .158.034.237.129 1.172.195 2.351.199 3.53 0 .755 0 1.5-.09 2.233H180c.148-1 .226-2.01.233-3.022z" fill="#F8AA61"/><path d="M179 162h10.806a34.427 34.427 0 011.194 6h-10.338a22.304 22.304 0 00-1.662-6z" fill="#F7D872"/><path d="M175 157h12.547a33.757 33.757 0 011.895 4.29c.202.559.383 1.138.558 1.71h-11.008a20.875 20.875 0 00-3.992-6z" fill="#F8AA61"/><path d="M161 151h21.944c.665.769 1.29 1.574 1.882 2.407A32.97 32.97 0 01187 157h-12.408c-3.625-3.852-8.508-6.008-13.592-6z" fill="#F7D872"/><path d="M161 146h15.227c.193.103.373.218.56.326A29.726 29.726 0 01183 151h-22v-5z" fill="#F8AA61"/><path fill="#F7D872" d="M161 140h14.166l.834 6h-15zM161.495 162.15v5.578l.01 5.578V190h-.01v-39 5.578z"/><path d="M174 185c-3.474 3.208-8.141 5.003-13 5v-5h13z" fill="#F8AA61"/><path d="M161 179h17c-.96 2.24-2.27 4.27-3.867 6H161v-6z" fill="#F7D872"/><path d="M161 173h19a22.077 22.077 0 01-1.65 6H161v-6z" fill="#F8AA61"/><path d="M161 168h18.785c.135.986.206 1.981.215 2.978a23.062 23.062 0 01-.221 3.022H161v-6z" fill="#F7D872"/><path d="M161 162h17.343a22.364 22.364 0 011.657 6h-19v-6z" fill="#F8AA61"/><path d="M161 157h13.172a17.564 17.564 0 013.828 5h-17v-5z" fill="#F7D872"/><path d="M162 157v-6c4.864-.006 9.534 2.15 13 6h-13z" fill="#F8AA61"/><path d="M161 151v5.625c-7.604 0-13.769 6.21-13.769 13.872 0 7.66 6.165 13.872 13.769 13.872V190c-10.55-.197-19-8.87-19-19.5s8.45-19.303 19-19.5z" fill="#00C29D"/><path fill="#F7D872" d="M160.95 157h1v27h-1z"/><path d="M147 170.5c-.002-3.58 1.472-7.014 4.098-9.546 2.626-2.531 6.188-3.954 9.902-3.954v27c-3.714 0-7.276-1.423-9.902-3.954-2.626-2.532-4.1-5.966-4.098-9.546z" fill="#FF636F"/><path d="M160.928 196.039V196H179a29.022 29.022 0 01-2.98 1.854 30.14 30.14 0 01-14.314 3.5c-3.584-.09-6.936 1.728-8.756 4.75a9.468 9.468 0 000 9.794c1.82 3.022 5.172 4.84 8.756 4.749v5.348c-8.458.209-15.488-6.33-15.701-14.604-.213-8.274 6.471-15.15 14.93-15.358l-.007.006z" fill="#F7D872"/><path d="M161.352 225.966v-5.485c5.537-.003 10.025-4.459 10.028-9.956a5.498 5.498 0 011.629-3.909 5.58 5.58 0 013.937-1.616H177c0 2.43-.06 5.774-.06 5.84-.17 8.326-6.945 15.024-15.331 15.16H161l.352-.034z" fill="#F8AA61"/><path d="M161.282 225.583c8.31-.147 15.016-6.707 15.188-14.856 0-.066.033-3.344.06-5.727 3.027.029 5.466 2.442 5.47 5.41-.015 11.368-9.41 20.58-21 20.59v-5.417h.282z" fill="#F7D872"/><path d="M160.808 190.085V190H184l-.073.085a29.886 29.886 0 01-5.851 5.382h-17.268c-5.547-.114-10.722 2.734-13.529 7.445a14.879 14.879 0 000 15.26c2.807 4.712 7.982 7.56 13.529 7.446V231h-.033C149.3 231 140 221.842 140 210.546c0-11.297 9.301-20.454 20.775-20.454l.033-.007z" fill="#F8AA61"/><path d="M184.895 129c3.36.004 6.087 2.706 6.105 6.05-2.925 7.664-10.934 12.153-19.033 10.667-8.1-1.485-13.976-8.519-13.967-16.717h26.895z" fill="#00C29D"/><path d="M168 136.506a5.5 5.5 0 115.5 5.494 5.506 5.506 0 01-5.5-5.494z" fill="#FFF"/><path d="M170 135a3 3 0 102.994-3 2.994 2.994 0 00-2.994 3z" fill="#26566C"/><circle fill="#48CFD5" cx="206" cy="128" r="3"/><circle fill="#48CFD5" cx="199" cy="115" r="6"/><circle fill="#FFF" cx="198.5" cy="111.5" r="1.5"/><path d="M39.162 206L15 214.239l.49 1.463c2.645 7.917 11.134 12.17 18.967 9.502l9.543-3.28L39.162 206z" fill="#FFF"/></g></g></svg>