<svg xmlns="http://www.w3.org/2000/svg" xmlns:xlink="http://www.w3.org/1999/xlink" viewBox="0 0 2055.37 1863.43"><defs><style>.cls-1{isolation:isolate;}.cls-2,.cls-26{opacity:0.2;}.cls-3{opacity:0;}.cls-4{opacity:0.01;}.cls-5{opacity:0.03;}.cls-6{opacity:0.04;}.cls-7{opacity:0.06;}.cls-8{opacity:0.07;}.cls-9{opacity:0.09;}.cls-10{opacity:0.1;}.cls-11{opacity:0.11;}.cls-12{opacity:0.13;}.cls-13{opacity:0.14;}.cls-14{opacity:0.16;}.cls-15{opacity:0.17;}.cls-16{opacity:0.19;}.cls-17{opacity:0.2;}.cls-18{opacity:0.21;}.cls-19{opacity:0.23;}.cls-20{opacity:0.24;}.cls-21{opacity:0.26;}.cls-22{opacity:0.27;}.cls-23{opacity:0.29;}.cls-24{opacity:0.3;}.cls-25{fill:url(#New_Gradient_Swatch_copy_13);}.cls-27{fill:#f1f2f2;}.cls-28{fill:#f9fafa;}.cls-29{fill:url(#New_Gradient_Swatch_copy_8);}.cls-122,.cls-30{fill:#e6e7e8;}.cls-31{fill:#d1d3d8;}.cls-32{fill:url(#New_Gradient_Swatch_copy_13-2);}.cls-33{fill:url(#New_Gradient_Swatch_copy_13-3);}.cls-34{fill:url(#New_Gradient_Swatch_copy_13-4);}.cls-35{fill:#fff;opacity:0.5;}.cls-36{fill:#3d065f;}.cls-37{fill:url(#linear-gradient);}.cls-38{fill:url(#linear-gradient-2);}.cls-39{fill:url(#linear-gradient-3);}.cls-40{fill:url(#linear-gradient-4);}.cls-41{fill:url(#linear-gradient-5);}.cls-42{fill:url(#linear-gradient-6);}.cls-43{fill:url(#linear-gradient-7);}.cls-113,.cls-118,.cls-152,.cls-44,.cls-45,.cls-46,.cls-47,.cls-48,.cls-49,.cls-50,.cls-51,.cls-52,.cls-53,.cls-54,.cls-55,.cls-56,.cls-57,.cls-69,.cls-83{mix-blend-mode:screen;}.cls-44{fill:url(#radial-gradient);}.cls-45{fill:url(#radial-gradient-2);}.cls-46{fill:url(#radial-gradient-3);}.cls-47{fill:url(#radial-gradient-4);}.cls-48{fill:url(#radial-gradient-5);}.cls-49{fill:url(#radial-gradient-6);}.cls-50{fill:url(#radial-gradient-7);}.cls-51{fill:url(#radial-gradient-8);}.cls-52{fill:url(#radial-gradient-9);}.cls-53{fill:url(#radial-gradient-10);}.cls-54{fill:url(#radial-gradient-11);}.cls-55{fill:url(#radial-gradient-12);}.cls-56{fill:url(#radial-gradient-13);}.cls-57{fill:url(#radial-gradient-14);}.cls-58{fill:url(#New_Gradient_Swatch_copy_13-5);}.cls-59,.cls-77{fill:#bcbec0;}.cls-109,.cls-123,.cls-132,.cls-133,.cls-136,.cls-150,.cls-151,.cls-154,.cls-159,.cls-60,.cls-61,.cls-68,.cls-76,.cls-86,.cls-91{mix-blend-mode:color-dodge;}.cls-60{fill:url(#radial-gradient-15);}.cls-61{fill:url(#radial-gradient-16);}.cls-114,.cls-119,.cls-122,.cls-129,.cls-131,.cls-134,.cls-137,.cls-138,.cls-155,.cls-157,.cls-62,.cls-77,.cls-88,.cls-89{mix-blend-mode:multiply;}.cls-62{fill:url(#linear-gradient-8);}.cls-63{fill:url(#radial-gradient-17);}.cls-64{fill:url(#radial-gradient-18);}.cls-65{fill:url(#radial-gradient-19);}.cls-66{fill:url(#radial-gradient-20);}.cls-67{fill:url(#linear-gradient-9);}.cls-68{fill:url(#radial-gradient-21);}.cls-69{opacity:0.6;fill:url(#radial-gradient-22);}.cls-70{fill:url(#linear-gradient-10);}.cls-71{fill:url(#linear-gradient-11);}.cls-72{fill:url(#linear-gradient-12);}.cls-73{fill:url(#linear-gradient-13);}.cls-74{fill:url(#linear-gradient-14);}.cls-75{fill:url(#linear-gradient-15);}.cls-76{fill:url(#radial-gradient-23);}.cls-78{opacity:0.8;}.cls-79{fill:url(#linear-gradient-16);}.cls-80{fill:url(#radial-gradient-24);}.cls-81{fill:url(#radial-gradient-25);}.cls-82{fill:url(#New_Gradient_Swatch_copy_10);}.cls-84{fill:url(#New_Gradient_Swatch_copy_18);}.cls-85{fill:url(#New_Gradient_Swatch_copy_9);}.cls-86{fill:url(#Radial_Gradient_1);}.cls-87{fill:url(#New_Gradient_Swatch_copy_10-2);}.cls-88{fill:#d1d3d4;}.cls-90{fill:url(#Linear_Gradient_1);}.cls-91{fill:url(#radial-gradient-26);}.cls-92{fill:url(#New_Gradient_Swatch_copy_8-2);}.cls-93{fill:url(#New_Gradient_Swatch_copy_8-3);}.cls-94{fill:url(#linear-gradient-17);}.cls-95{fill:url(#New_Gradient_Swatch_copy_8-4);}.cls-96{fill:url(#linear-gradient-18);}.cls-97{fill:url(#linear-gradient-19);}.cls-98{fill:url(#linear-gradient-20);}.cls-99{fill:url(#linear-gradient-21);}.cls-100{fill:#45108a;}.cls-101{fill:url(#New_Gradient_Swatch_copy_8-5);}.cls-102{fill:url(#New_Gradient_Swatch_copy_8-6);}.cls-103{fill:url(#New_Gradient_Swatch_copy_8-7);}.cls-104{fill:url(#linear-gradient-22);}.cls-105{fill:url(#linear-gradient-23);}.cls-106{fill:url(#linear-gradient-24);}.cls-107{fill:url(#linear-gradient-25);}.cls-108{fill:url(#New_Gradient_Swatch_copy_15);}.cls-109{fill:url(#Radial_Gradient_1-2);}.cls-110{fill:#520a59;}.cls-111{fill:url(#linear-gradient-26);}.cls-112{fill:url(#New_Gradient_Swatch_copy_25);}.cls-113{fill:url(#Radial_Gradient_1-3);}.cls-114{fill:url(#linear-gradient-27);}.cls-115{fill:url(#New_Gradient_Swatch_copy_10-3);}.cls-116{fill:url(#linear-gradient-28);}.cls-117{fill:url(#New_Gradient_Swatch_copy_25-2);}.cls-118{fill:url(#Radial_Gradient_1-4);}.cls-119{fill:url(#linear-gradient-29);}.cls-120{fill:url(#New_Gradient_Swatch_copy_10-4);}.cls-121{fill:url(#New_Gradient_Swatch_copy_15-2);}.cls-123{fill:url(#Radial_Gradient_1-5);}.cls-124{fill:#25054d;}.cls-125{fill:url(#New_Gradient_Swatch_copy_25-3);}.cls-126{fill:url(#New_Gradient_Swatch_copy_25-4);}.cls-127{fill:url(#New_Gradient_Swatch_copy_25-5);}.cls-128{fill:url(#linear-gradient-30);}.cls-129{fill:url(#linear-gradient-31);}.cls-130{fill:url(#linear-gradient-32);}.cls-131{fill:url(#linear-gradient-33);}.cls-132{fill:url(#linear-gradient-34);}.cls-133{opacity:0.7;fill:url(#linear-gradient-35);}.cls-134{fill:url(#linear-gradient-36);}.cls-135{fill:url(#New_Gradient_Swatch_copy_15-3);}.cls-136{fill:url(#Radial_Gradient_1-6);}.cls-137{fill:url(#linear-gradient-37);}.cls-138{fill:url(#linear-gradient-38);}.cls-139{fill:url(#linear-gradient-39);}.cls-140{fill:url(#linear-gradient-40);}.cls-141{fill:url(#linear-gradient-41);}.cls-142{fill:url(#linear-gradient-42);}.cls-143{fill:url(#linear-gradient-43);}.cls-144{fill:url(#linear-gradient-44);}.cls-145{fill:url(#linear-gradient-45);}.cls-146{fill:url(#linear-gradient-46);}.cls-147{fill:url(#linear-gradient-47);}.cls-148{fill:url(#New_Gradient_Swatch_copy_20);}.cls-149{fill:url(#New_Gradient_Swatch_copy_25-6);}.cls-150{fill:url(#Radial_Gradient_1-7);}.cls-151{fill:url(#linear-gradient-48);}.cls-152{fill:url(#linear-gradient-49);}.cls-153{fill:url(#New_Gradient_Swatch_copy_13-6);}.cls-154{fill:url(#Radial_Gradient_1-8);}.cls-155{fill:url(#linear-gradient-50);}.cls-156{fill:url(#New_Gradient_Swatch_copy_15-4);}.cls-157{fill:url(#linear-gradient-51);}.cls-158{fill:url(#New_Gradient_Swatch_copy_15-5);}.cls-159{fill:url(#White_Black_Radial);}.cls-160{fill:url(#linear-gradient-52);}.cls-161{fill:url(#linear-gradient-53);}.cls-162{fill:url(#linear-gradient-54);}.cls-163{fill:url(#linear-gradient-55);}.cls-164{fill:url(#linear-gradient-56);}.cls-165{fill:url(#linear-gradient-57);}.cls-166{fill:url(#linear-gradient-58);}.cls-167{fill:url(#linear-gradient-59);}.cls-168{fill:url(#linear-gradient-60);}.cls-169{fill:url(#linear-gradient-61);}.cls-170{fill:url(#linear-gradient-62);}.cls-171{fill:url(#linear-gradient-63);}.cls-172{fill:url(#linear-gradient-64);}.cls-173{fill:url(#linear-gradient-65);}.cls-174{fill:url(#linear-gradient-66);}.cls-175{fill:url(#linear-gradient-67);}.cls-176{fill:url(#linear-gradient-68);}.cls-177{fill:url(#linear-gradient-69);}</style><linearGradient id="New_Gradient_Swatch_copy_13" x1="282.23" y1="1060.25" x2="1120.03" y2="814.74" gradientUnits="userSpaceOnUse"><stop offset="0.04" stop-color="#6b24d6"/><stop offset="0.29" stop-color="#7733dc"/><stop offset="0.79" stop-color="#975ced"/><stop offset="1" stop-color="#a56ef4"/></linearGradient><linearGradient id="New_Gradient_Swatch_copy_8" x1="917.02" y1="1024.15" x2="1031.93" y2="991.78" gradientUnits="userSpaceOnUse"><stop offset="0.04" stop-color="#ffa98c"/><stop offset="0.32" stop-color="#ffb892"/><stop offset="0.86" stop-color="#fee1a3"/><stop offset="1" stop-color="#feeca8"/></linearGradient><linearGradient id="New_Gradient_Swatch_copy_13-2" x1="1068.89" y1="1019.64" x2="1378.84" y2="1178.2" xlink:href="#New_Gradient_Swatch_copy_13"/><linearGradient id="New_Gradient_Swatch_copy_13-3" x1="1194.86" y1="961.43" x2="1504.82" y2="1119.99" xlink:href="#New_Gradient_Swatch_copy_13"/><linearGradient id="New_Gradient_Swatch_copy_13-4" x1="1071.26" y1="1246.72" x2="1286.08" y2="1346.96" xlink:href="#New_Gradient_Swatch_copy_13"/><linearGradient id="linear-gradient" x1="2070.69" y1="1067.3" x2="1983.23" y2="984.06" gradientUnits="userSpaceOnUse"><stop offset="0" stop-color="#7e7f90"/><stop offset="0.53" stop-color="#9d9eb3"/><stop offset="1" stop-color="#d4d1d8"/></linearGradient><linearGradient id="linear-gradient-2" x1="1998.4" y1="1025.83" x2="1910.94" y2="942.59" xlink:href="#linear-gradient"/><linearGradient id="linear-gradient-3" x1="1926.12" y1="984.36" x2="1838.65" y2="901.11" xlink:href="#linear-gradient"/><linearGradient id="linear-gradient-4" x1="1853.83" y1="942.88" x2="1766.37" y2="859.64" xlink:href="#linear-gradient"/><linearGradient id="linear-gradient-5" x1="1781.54" y1="901.41" x2="1694.08" y2="818.17" xlink:href="#linear-gradient"/><linearGradient id="linear-gradient-6" x1="1709.25" y1="859.94" x2="1621.79" y2="776.7" xlink:href="#linear-gradient"/><linearGradient id="linear-gradient-7" x1="1636.96" y1="818.47" x2="1549.5" y2="735.23" xlink:href="#linear-gradient"/><radialGradient id="radial-gradient" cx="2039.29" cy="1032.74" r="36.95" gradientUnits="userSpaceOnUse"><stop offset="0" stop-color="#fff"/><stop offset="0.33" stop-color="#b7b6b6"/><stop offset="1"/></radialGradient><radialGradient id="radial-gradient-2" cx="2063.31" cy="1037.23" r="20.41" xlink:href="#radial-gradient"/><radialGradient id="radial-gradient-3" cx="1966.41" cy="991.32" r="36.95" xlink:href="#radial-gradient"/><radialGradient id="radial-gradient-4" cx="1990.43" cy="995.8" r="20.41" xlink:href="#radial-gradient"/><radialGradient id="radial-gradient-5" cx="1894.67" cy="949.89" r="36.95" xlink:href="#radial-gradient"/><radialGradient id="radial-gradient-6" cx="1918.69" cy="954.37" r="20.41" xlink:href="#radial-gradient"/><radialGradient id="radial-gradient-7" cx="1822.17" cy="908.07" r="36.95" xlink:href="#radial-gradient"/><radialGradient id="radial-gradient-8" cx="1846.19" cy="912.56" r="20.41" xlink:href="#radial-gradient"/><radialGradient id="radial-gradient-9" cx="1749.29" cy="866.64" r="36.95" xlink:href="#radial-gradient"/><radialGradient id="radial-gradient-10" cx="1773.31" cy="871.13" r="20.41" xlink:href="#radial-gradient"/><radialGradient id="radial-gradient-11" cx="1677.55" cy="825.21" r="36.95" xlink:href="#radial-gradient"/><radialGradient id="radial-gradient-12" cx="1701.57" cy="829.7" r="20.41" xlink:href="#radial-gradient"/><radialGradient id="radial-gradient-13" cx="1605.82" cy="784.17" r="36.95" xlink:href="#radial-gradient"/><radialGradient id="radial-gradient-14" cx="1629.84" cy="788.65" r="20.41" xlink:href="#radial-gradient"/><linearGradient id="New_Gradient_Swatch_copy_13-5" x1="1876.48" y1="1065.68" x2="1542.95" y2="905.16" xlink:href="#New_Gradient_Swatch_copy_13"/><radialGradient id="radial-gradient-15" cx="10235.92" cy="12894.66" r="38.77" gradientTransform="matrix(0.39, -0.62, -0.6, -0.3, 5340.76, 10979.39)" gradientUnits="userSpaceOnUse"><stop offset="0" stop-color="#f49587"/><stop offset="0.12" stop-color="#bd7368"/><stop offset="0.24" stop-color="#8b554d"/><stop offset="0.36" stop-color="#603b35"/><stop offset="0.48" stop-color="#3e2622"/><stop offset="0.61" stop-color="#231513"/><stop offset="0.74" stop-color="#0f0908"/><stop offset="0.86" stop-color="#040202"/><stop offset="1"/></radialGradient><radialGradient id="radial-gradient-16" cx="10202.33" cy="12274.91" r="38.77" xlink:href="#radial-gradient-15"/><linearGradient id="linear-gradient-8" x1="1643.68" y1="818.31" x2="1555.71" y2="856.16" gradientUnits="userSpaceOnUse"><stop offset="0" stop-color="#fff"/><stop offset="1" stop-color="#908e8e"/></linearGradient><radialGradient id="radial-gradient-17" cx="638.5" cy="1108.31" r="0" gradientUnits="userSpaceOnUse"><stop offset="0" stop-color="#fa45c1"/><stop offset="0.21" stop-color="#cb389d"/><stop offset="0.67" stop-color="#571843"/><stop offset="1"/></radialGradient><radialGradient id="radial-gradient-18" cx="638.5" cy="1153.45" r="10.36" xlink:href="#radial-gradient-17"/><radialGradient id="radial-gradient-19" cx="638.5" cy="1108.31" xlink:href="#radial-gradient-17"/><radialGradient id="radial-gradient-20" cx="571.31" cy="1015.21" xlink:href="#radial-gradient-17"/><linearGradient id="linear-gradient-9" x1="2013.3" y1="346.44" x2="2555.44" y2="1285.44" gradientUnits="userSpaceOnUse"><stop offset="0.06" stop-color="#200041"/><stop offset="0.26" stop-color="#210243"/><stop offset="0.36" stop-color="#25084b"/><stop offset="0.43" stop-color="#2c1358"/><stop offset="0.47" stop-color="#311b61"/><stop offset="0.48" stop-color="#351f65"/><stop offset="0.5" stop-color="#422c73"/><stop offset="0.51" stop-color="#584188"/><stop offset="0.52" stop-color="#765fa7"/><stop offset="0.53" stop-color="#8770b8"/><stop offset="0.54" stop-color="#7e67ae"/><stop offset="0.56" stop-color="#5c468d"/><stop offset="0.59" stop-color="#442e75"/><stop offset="0.61" stop-color="#362066"/><stop offset="0.63" stop-color="#311b61"/><stop offset="0.67" stop-color="#2a1155"/><stop offset="0.75" stop-color="#230446"/><stop offset="0.81" stop-color="#200041"/><stop offset="1" stop-color="#200041"/></linearGradient><radialGradient id="radial-gradient-21" cx="2855.79" cy="727.93" r="1017.37" gradientUnits="userSpaceOnUse"><stop offset="0" stop-color="#711f56"/><stop offset="0.16" stop-color="#6c1e52"/><stop offset="0.36" stop-color="#5c1946"/><stop offset="0.58" stop-color="#431233"/><stop offset="0.82" stop-color="#200918"/><stop offset="1"/></radialGradient><radialGradient id="radial-gradient-22" cx="2685.59" cy="655.25" r="599.37" gradientUnits="userSpaceOnUse"><stop offset="0" stop-color="#af8afc"/><stop offset="1" stop-color="#10054d"/></radialGradient><linearGradient id="linear-gradient-10" x1="2733.92" y1="1212.37" x2="1076.97" y2="693.67" gradientUnits="userSpaceOnUse"><stop offset="0.19" stop-color="#3d065f"/><stop offset="0.93" stop-color="#3d065f"/></linearGradient><linearGradient id="linear-gradient-11" x1="2755.51" y1="1853.64" x2="1914.07" y2="75.66" gradientUnits="userSpaceOnUse"><stop offset="0" stop-color="#311b61"/><stop offset="0.2" stop-color="#290f52"/><stop offset="0.49" stop-color="#200041"/><stop offset="1" stop-color="#0f001f"/></linearGradient><linearGradient id="linear-gradient-12" x1="2138.79" y1="1108.78" x2="2667.22" y2="1108.78" xlink:href="#linear-gradient-11"/><linearGradient id="linear-gradient-13" x1="2079.07" y1="491.1" x2="2883.05" y2="2024.15" gradientUnits="userSpaceOnUse"><stop offset="0.01" stop-color="#9f19ab"/><stop offset="0.43" stop-color="#5f27bd"/><stop offset="0.9" stop-color="#3d065f"/></linearGradient><linearGradient id="linear-gradient-14" x1="1575.68" y1="10876.72" x2="1670.22" y2="10876.72" gradientTransform="matrix(-0.5, 1.44, -0.87, 0.5, 12950.1, -6845.09)" xlink:href="#linear-gradient-11"/><linearGradient id="linear-gradient-15" x1="2743.72" y1="936.88" x2="2678.52" y2="934.08" gradientUnits="userSpaceOnUse"><stop offset="0" stop-color="#3d065f"/><stop offset="1" stop-color="#5f27bd"/></linearGradient><radialGradient id="radial-gradient-23" cx="2710.93" cy="909.07" r="38.29" xlink:href="#radial-gradient-21"/><linearGradient id="linear-gradient-16" x1="1007.74" y1="1248.85" x2="1813.53" y2="1068.22" gradientUnits="userSpaceOnUse"><stop offset="0.04" stop-color="#138bbd"/><stop offset="0.23" stop-color="#169ac7"/><stop offset="0.59" stop-color="#1fc3df"/><stop offset="1" stop-color="#2af6ff"/></linearGradient><radialGradient id="radial-gradient-24" cx="2376.31" cy="971.27" r="686.53" gradientUnits="userSpaceOnUse"><stop offset="0" stop-color="#a56ef4"/><stop offset="0.23" stop-color="#9c63ef"/><stop offset="0.63" stop-color="#8545e3"/><stop offset="1" stop-color="#6b24d6"/></radialGradient><radialGradient id="radial-gradient-25" cx="1484.57" cy="958.8" r="601.89" gradientUnits="userSpaceOnUse"><stop offset="0.29" stop-color="#f7aa90"/><stop offset="0.45" stop-color="#f5a791"/><stop offset="0.57" stop-color="#ee9d92"/><stop offset="0.67" stop-color="#e18d95"/><stop offset="0.77" stop-color="#d0769a"/><stop offset="0.86" stop-color="#ba599f"/><stop offset="0.95" stop-color="#9f35a6"/><stop offset="1" stop-color="#8b1bab"/></radialGradient><linearGradient id="New_Gradient_Swatch_copy_10" x1="1959.68" y1="1264.51" x2="2227.64" y2="2394.87" gradientUnits="userSpaceOnUse"><stop offset="0.04" stop-color="#9d9eb3"/><stop offset="0.58" stop-color="#d4d1d8"/><stop offset="1" stop-color="#eeebf2"/></linearGradient><linearGradient id="New_Gradient_Swatch_copy_18" x1="2477.4" y1="966.45" x2="2336.57" y2="646.49" gradientUnits="userSpaceOnUse"><stop offset="0.04" stop-color="#9f19ab"/><stop offset="0.16" stop-color="#ae25b1"/><stop offset="0.41" stop-color="#d744bf"/><stop offset="0.63" stop-color="#ff63ce"/><stop offset="0.87" stop-color="#dc48c1"/></linearGradient><linearGradient id="New_Gradient_Swatch_copy_9" x1="2229.71" y1="932.79" x2="2503.48" y2="709.72" gradientUnits="userSpaceOnUse"><stop offset="0.04" stop-color="#9f19ab"/><stop offset="0.24" stop-color="#ae25b1"/><stop offset="0.65" stop-color="#d744bf"/><stop offset="1" stop-color="#ff63ce"/></linearGradient><radialGradient id="Radial_Gradient_1" cx="2433.81" cy="776.37" r="137.75" gradientUnits="userSpaceOnUse"><stop offset="0" stop-color="#fff"/><stop offset="1"/></radialGradient><linearGradient id="New_Gradient_Swatch_copy_10-2" x1="1898.54" y1="2875.83" x2="1835.45" y2="2828.14" gradientTransform="matrix(0.87, 0.5, 0, 1.15, 767.88, -3445.75)" xlink:href="#New_Gradient_Swatch_copy_10"/><linearGradient id="Linear_Gradient_1" x1="2782.47" y1="1303.94" x2="2609.58" y2="1208.55" xlink:href="#Radial_Gradient_1"/><radialGradient id="radial-gradient-26" cx="3360.83" cy="-4972.16" r="413.96" gradientTransform="matrix(0.33, 0, 0, 0.42, 1301.18, 2861.97)" gradientUnits="userSpaceOnUse"><stop offset="0" stop-color="#ba348e"/><stop offset="0.13" stop-color="#8a276a"/><stop offset="0.27" stop-color="#601b4a"/><stop offset="0.41" stop-color="#3e112f"/><stop offset="0.55" stop-color="#230a1a"/><stop offset="0.7" stop-color="#0f040c"/><stop offset="0.85" stop-color="#040103"/><stop offset="1"/></radialGradient><linearGradient id="New_Gradient_Swatch_copy_8-2" x1="211.33" y1="1170.7" x2="623.56" y2="1047.27" xlink:href="#New_Gradient_Swatch_copy_8"/><linearGradient id="New_Gradient_Swatch_copy_8-3" x1="-165.07" y1="1220.79" x2="354.82" y2="1104.25" xlink:href="#New_Gradient_Swatch_copy_8"/><linearGradient id="linear-gradient-17" x1="-83.11" y1="1222.71" x2="226.93" y2="1153.21" gradientUnits="userSpaceOnUse"><stop offset="0" stop-color="#d4d1d8"/><stop offset="1" stop-color="#eeebf2"/></linearGradient><linearGradient id="New_Gradient_Swatch_copy_8-4" x1="332.17" y1="723" x2="155.44" y2="1059.82" xlink:href="#New_Gradient_Swatch_copy_8"/><linearGradient id="linear-gradient-18" x1="241.13" y1="1100.68" x2="338.28" y2="1071.59" gradientUnits="userSpaceOnUse"><stop offset="0.04" stop-color="#c97052"/><stop offset="0.34" stop-color="#d47e61"/><stop offset="0.92" stop-color="#f2a48a"/><stop offset="1" stop-color="#f7aa90"/></linearGradient><linearGradient id="linear-gradient-19" x1="217.39" y1="949.8" x2="170.43" y2="1039.29" xlink:href="#linear-gradient-18"/><linearGradient id="linear-gradient-20" x1="363.95" y1="-535.96" x2="425.28" y2="-502.9" gradientTransform="matrix(0.87, -0.5, 0, 1.15, -124.16, 2025.98)" xlink:href="#linear-gradient-18"/><linearGradient id="linear-gradient-21" x1="398.97" y1="-535.96" x2="460.3" y2="-502.9" gradientTransform="matrix(0.87, -0.5, 0, 1.15, -124.16, 2025.98)" xlink:href="#linear-gradient-18"/><linearGradient id="New_Gradient_Swatch_copy_8-5" x1="9254.89" y1="1336.4" x2="9670.79" y2="1243.17" gradientTransform="matrix(-1, 0, 0, 1, 9581.01, -295.67)" xlink:href="#New_Gradient_Swatch_copy_8"/><linearGradient id="New_Gradient_Swatch_copy_8-6" x1="9335.15" y1="1300.69" x2="9523.79" y2="1244.21" gradientTransform="matrix(-1, 0, 0, 1, 9581.01, -295.67)" xlink:href="#New_Gradient_Swatch_copy_8"/><linearGradient id="New_Gradient_Swatch_copy_8-7" x1="9513.91" y1="1018.65" x2="9404.18" y2="1227.78" gradientTransform="matrix(-1, 0, 0, 1, 9581.01, -295.67)" xlink:href="#New_Gradient_Swatch_copy_8"/><linearGradient id="linear-gradient-22" x1="9457.38" y1="1253.14" x2="9517.7" y2="1235.08" gradientTransform="matrix(-1, 0, 0, 1, 9581.01, -295.67)" xlink:href="#linear-gradient-18"/><linearGradient id="linear-gradient-23" x1="9442.64" y1="1159.46" x2="9413.48" y2="1215.03" gradientTransform="matrix(-1, 0, 0, 1, 9581.01, -295.67)" xlink:href="#linear-gradient-18"/><linearGradient id="linear-gradient-24" x1="9983.91" y1="3464.73" x2="10021.98" y2="3485.26" gradientTransform="matrix(-0.87, -0.5, 0, 1.15, 8800.8, 2025.98)" xlink:href="#linear-gradient-18"/><linearGradient id="linear-gradient-25" x1="10005.65" y1="3464.73" x2="10043.72" y2="3485.26" gradientTransform="matrix(-0.87, -0.5, 0, 1.15, 8800.8, 2025.98)" xlink:href="#linear-gradient-18"/><radialGradient id="New_Gradient_Swatch_copy_15" cx="2029.77" cy="1612.89" r="23.8" gradientUnits="userSpaceOnUse"><stop offset="0" stop-color="#ff63ce"/><stop offset="1" stop-color="#9f19ab"/></radialGradient><radialGradient id="Radial_Gradient_1-2" cx="2028.84" cy="1610.72" r="22.84" xlink:href="#Radial_Gradient_1"/><linearGradient id="linear-gradient-26" x1="1354.25" y1="1663.28" x2="1265.77" y2="1544.71" gradientUnits="userSpaceOnUse"><stop offset="0.27" stop-color="#25054d"/><stop offset="0.36" stop-color="#280653"/><stop offset="0.49" stop-color="#310964"/><stop offset="0.64" stop-color="#3f0e7f"/><stop offset="0.69" stop-color="#45108a"/><stop offset="1" stop-color="#25054d"/></linearGradient><linearGradient id="New_Gradient_Swatch_copy_25" x1="1235.86" y1="1619.54" x2="1336.71" y2="1619.54" gradientTransform="translate(993.19 -427.78) rotate(30.31)" gradientUnits="userSpaceOnUse"><stop offset="0" stop-color="#25054d"/><stop offset="1" stop-color="#45108a"/></linearGradient><radialGradient id="Radial_Gradient_1-3" cx="1296.67" cy="1617.83" r="54.48" xlink:href="#Radial_Gradient_1"/><linearGradient id="linear-gradient-27" x1="1249.12" y1="1620.37" x2="1326.79" y2="1620.37" gradientUnits="userSpaceOnUse"><stop offset="0" stop-color="#bcbec0"/><stop offset="1" stop-color="#e6e7e8"/></linearGradient><linearGradient id="New_Gradient_Swatch_copy_10-3" x1="1246.7" y1="1621.33" x2="1324.37" y2="1621.33" xlink:href="#New_Gradient_Swatch_copy_10"/><linearGradient id="linear-gradient-28" x1="1832.65" y1="1937.56" x2="1744.17" y2="1818.99" xlink:href="#linear-gradient-26"/><linearGradient id="New_Gradient_Swatch_copy_25-2" x1="1714.26" y1="1893.82" x2="1815.11" y2="1893.82" gradientTransform="matrix(1, 0, 0, 1, 0, 0)" xlink:href="#New_Gradient_Swatch_copy_25"/><radialGradient id="Radial_Gradient_1-4" cx="1775.06" cy="1892.11" r="54.48" xlink:href="#Radial_Gradient_1"/><linearGradient id="linear-gradient-29" x1="1727.52" y1="1894.65" x2="1805.19" y2="1894.65" xlink:href="#linear-gradient-27"/><linearGradient id="New_Gradient_Swatch_copy_10-4" x1="1725.1" y1="1895.61" x2="1802.77" y2="1895.61" xlink:href="#New_Gradient_Swatch_copy_10"/><radialGradient id="New_Gradient_Swatch_copy_15-2" cx="1640.75" cy="1299.65" r="743.29" xlink:href="#New_Gradient_Swatch_copy_15"/><radialGradient id="Radial_Gradient_1-5" cx="1527.26" cy="1581.44" r="350.14" xlink:href="#Radial_Gradient_1"/><linearGradient id="New_Gradient_Swatch_copy_25-3" x1="1787.5" y1="1651.52" x2="2026.01" y2="1651.52" gradientTransform="matrix(1, 0, 0, 1, 0, 0)" xlink:href="#New_Gradient_Swatch_copy_25"/><linearGradient id="New_Gradient_Swatch_copy_25-4" x1="780.94" y1="1369.24" x2="868.3" y2="1369.24" gradientTransform="matrix(1, 0, 0, 1, 0, 0)" xlink:href="#New_Gradient_Swatch_copy_25"/><linearGradient id="New_Gradient_Swatch_copy_25-5" x1="2037.78" y1="1935.03" x2="2000.06" y2="1899.12" gradientTransform="matrix(1, 0, 0, 1, 0, 0)" xlink:href="#New_Gradient_Swatch_copy_25"/><linearGradient id="linear-gradient-30" x1="1851.6" y1="1888.01" x2="1920.22" y2="1888.01" xlink:href="#linear-gradient-27"/><linearGradient id="linear-gradient-31" x1="1887.27" y1="1903.46" x2="1885.7" y2="1852.63" gradientUnits="userSpaceOnUse"><stop offset="0" stop-color="#9c9c9c"/><stop offset="0" stop-color="#9d9d9d"/><stop offset="0.31" stop-color="#c7c7c7"/><stop offset="0.59" stop-color="#e6e6e6"/><stop offset="0.83" stop-color="#f8f8f8"/><stop offset="1" stop-color="#fff"/></linearGradient><linearGradient id="linear-gradient-32" x1="2074.73" y1="1784.11" x2="2100.75" y2="1784.11" xlink:href="#linear-gradient-27"/><linearGradient id="linear-gradient-33" x1="2074.73" y1="1784.11" x2="2099.33" y2="1784.11" xlink:href="#linear-gradient-31"/><linearGradient id="linear-gradient-34" x1="1787.55" y1="1601.02" x2="2010.94" y2="1601.02" gradientUnits="userSpaceOnUse"><stop offset="0" stop-color="#9c9c9c"/><stop offset="0.01" stop-color="#999"/><stop offset="0.26" stop-color="#636363"/><stop offset="0.49" stop-color="#383838"/><stop offset="0.7" stop-color="#191919"/><stop offset="0.88" stop-color="#070707"/><stop offset="1"/></linearGradient><linearGradient id="linear-gradient-35" x1="1170.62" y1="1320.26" x2="550" y2="987.62" gradientUnits="userSpaceOnUse"><stop offset="0" stop-color="#d1d3d4"/><stop offset="0.19" stop-color="#979899"/><stop offset="0.4" stop-color="#616263"/><stop offset="0.59" stop-color="#373838"/><stop offset="0.76" stop-color="#191919"/><stop offset="0.9" stop-color="#070707"/><stop offset="1"/></linearGradient><linearGradient id="linear-gradient-36" x1="1783.94" y1="1747.61" x2="1723.49" y2="1785.2" gradientUnits="userSpaceOnUse"><stop offset="0" stop-color="#696969"/><stop offset="0.24" stop-color="#9c9c9c"/><stop offset="0.48" stop-color="#c7c7c7"/><stop offset="0.69" stop-color="#e6e6e6"/><stop offset="0.87" stop-color="#f8f8f8"/><stop offset="1" stop-color="#fff"/></linearGradient><radialGradient id="New_Gradient_Swatch_copy_15-3" cx="1747.76" cy="1731.28" r="31.96" xlink:href="#New_Gradient_Swatch_copy_15"/><radialGradient id="Radial_Gradient_1-6" cx="1740.97" cy="1704.8" r="36.96" xlink:href="#Radial_Gradient_1"/><linearGradient id="linear-gradient-37" x1="1497.64" y1="1756.35" x2="1527.18" y2="1707.73" xlink:href="#linear-gradient-31"/><linearGradient id="linear-gradient-38" x1="1162.74" y1="1560.54" x2="1189.11" y2="1517.14" xlink:href="#linear-gradient-31"/><linearGradient id="linear-gradient-39" x1="1814.63" y1="1879.6" x2="2105.87" y2="1879.6" gradientUnits="userSpaceOnUse"><stop offset="0.09" stop-color="#2f0860"/><stop offset="0.23" stop-color="#420f84"/><stop offset="0.25" stop-color="#45108a"/><stop offset="0.48" stop-color="#25054d"/><stop offset="1" stop-color="#25054d"/></linearGradient><linearGradient id="linear-gradient-40" x1="1870.41" y1="1886.27" x2="1909.12" y2="1886.27" xlink:href="#linear-gradient-27"/><linearGradient id="linear-gradient-41" x1="2434.27" y1="1889.07" x2="2451.57" y2="1889.07" gradientTransform="matrix(-1, 0, 0, 1, 4347.06, 0)" gradientUnits="userSpaceOnUse"><stop offset="0" stop-color="#bcbec0"/><stop offset="0.69" stop-color="#e9eaea"/><stop offset="1" stop-color="#fff"/></linearGradient><linearGradient id="linear-gradient-42" x1="1857.03" y1="1889.05" x2="1887.81" y2="1889.05" xlink:href="#linear-gradient-27"/><linearGradient id="linear-gradient-43" x1="2456.33" y1="1891.27" x2="2470.09" y2="1891.27" xlink:href="#linear-gradient-41"/><linearGradient id="linear-gradient-44" x1="2077.5" y1="1790.17" x2="2094.62" y2="1790.17" xlink:href="#linear-gradient-27"/><linearGradient id="linear-gradient-45" x1="2249.93" y1="1790.48" x2="2261.74" y2="1790.48" xlink:href="#linear-gradient-41"/><linearGradient id="linear-gradient-46" x1="2084.97" y1="1776.06" x2="2097.47" y2="1776.06" xlink:href="#linear-gradient-27"/><linearGradient id="linear-gradient-47" x1="2247.75" y1="1776.29" x2="2256.38" y2="1776.29" xlink:href="#linear-gradient-41"/><radialGradient id="New_Gradient_Swatch_copy_20" cx="1868.25" cy="-1651.48" r="13.16" gradientTransform="translate(0 4637.48) scale(1 1.67)" gradientUnits="userSpaceOnUse"><stop offset="0" stop-color="#feeca8"/><stop offset="1" stop-color="#ffa98c"/></radialGradient><linearGradient id="New_Gradient_Swatch_copy_25-6" x1="1923.95" y1="1830" x2="2067.94" y2="1830" gradientTransform="matrix(1, 0, 0, 1, 0, 0)" xlink:href="#New_Gradient_Swatch_copy_25"/><radialGradient id="Radial_Gradient_1-7" cx="2008.11" cy="1837.73" r="108.13" xlink:href="#Radial_Gradient_1"/><linearGradient id="linear-gradient-48" x1="2213.07" y1="1793.05" x2="1828.22" y2="1745.82" xlink:href="#linear-gradient-35"/><linearGradient id="linear-gradient-49" x1="550.96" y1="1336.7" x2="581.08" y2="1286.92" xlink:href="#linear-gradient-34"/><linearGradient id="New_Gradient_Swatch_copy_13-6" x1="1120.94" y1="1511.03" x2="1145.18" y2="1511.03" xlink:href="#New_Gradient_Swatch_copy_13"/><radialGradient id="Radial_Gradient_1-8" cx="543.7" cy="1231.16" r="275.99" xlink:href="#Radial_Gradient_1"/><linearGradient id="linear-gradient-50" x1="1694.16" y1="1731.2" x2="1717.03" y2="1731.2" xlink:href="#linear-gradient-31"/><radialGradient id="New_Gradient_Swatch_copy_15-4" cx="1695.26" cy="1723.1" r="22.19" xlink:href="#New_Gradient_Swatch_copy_15"/><linearGradient id="linear-gradient-51" x1="1637.74" y1="1700.78" x2="1660.62" y2="1700.78" xlink:href="#linear-gradient-31"/><radialGradient id="New_Gradient_Swatch_copy_15-5" cx="1638.84" cy="1692.69" r="22.19" xlink:href="#New_Gradient_Swatch_copy_15"/><radialGradient id="White_Black_Radial" cx="1605.23" cy="1579.49" r="87.93" xlink:href="#Radial_Gradient_1"/><linearGradient id="linear-gradient-52" x1="1135.15" y1="1323.87" x2="1507.87" y2="1535.06" gradientUnits="userSpaceOnUse"><stop offset="0" stop-color="#d4d1d8"/><stop offset="1" stop-color="#fff"/></linearGradient><linearGradient id="linear-gradient-53" x1="1134.86" y1="1324.37" x2="1507.59" y2="1535.56" xlink:href="#linear-gradient-52"/><linearGradient id="linear-gradient-54" x1="1134.67" y1="1324.71" x2="1507.4" y2="1535.9" xlink:href="#linear-gradient-52"/><linearGradient id="linear-gradient-55" x1="1134.53" y1="1324.96" x2="1507.25" y2="1536.15" xlink:href="#linear-gradient-52"/><linearGradient id="linear-gradient-56" x1="1134.41" y1="1325.18" x2="1507.13" y2="1536.37" xlink:href="#linear-gradient-52"/><linearGradient id="linear-gradient-57" x1="1134.15" y1="1325.62" x2="1506.88" y2="1536.82" xlink:href="#linear-gradient-52"/><linearGradient id="linear-gradient-58" x1="1133.94" y1="1326" x2="1506.66" y2="1537.2" xlink:href="#linear-gradient-52"/><linearGradient id="linear-gradient-59" x1="1133.78" y1="1326.29" x2="1506.5" y2="1537.48" xlink:href="#linear-gradient-52"/><linearGradient id="linear-gradient-60" x1="208.23" y1="1068" x2="580.95" y2="1279.19" xlink:href="#linear-gradient-52"/><linearGradient id="linear-gradient-61" x1="208.25" y1="1067.97" x2="580.97" y2="1279.16" xlink:href="#linear-gradient-52"/><linearGradient id="linear-gradient-62" x1="208.27" y1="1067.94" x2="580.99" y2="1279.13" xlink:href="#linear-gradient-52"/><linearGradient id="linear-gradient-63" x1="208.28" y1="1067.9" x2="581.01" y2="1279.1" xlink:href="#linear-gradient-52"/><linearGradient id="linear-gradient-64" x1="208.3" y1="1067.87" x2="581.03" y2="1279.07" xlink:href="#linear-gradient-52"/><linearGradient id="linear-gradient-65" x1="208.32" y1="1067.84" x2="581.04" y2="1279.04" xlink:href="#linear-gradient-52"/><linearGradient id="linear-gradient-66" x1="208.33" y1="1067.81" x2="581.06" y2="1279" xlink:href="#linear-gradient-52"/><linearGradient id="linear-gradient-67" x1="208.35" y1="1067.78" x2="581.08" y2="1278.97" xlink:href="#linear-gradient-52"/><linearGradient id="linear-gradient-68" x1="208.37" y1="1067.74" x2="581.1" y2="1278.94" xlink:href="#linear-gradient-52"/><linearGradient id="linear-gradient-69" x1="208.38" y1="1067.71" x2="581.11" y2="1278.91" xlink:href="#linear-gradient-52"/></defs><g class="cls-1"><g id="_Layer_" data-name="&lt;Layer&gt;"><g class="cls-2"><path d="M2649.82,1907.44l-474.64-274c-18.75-10.82-16.4-29.73,5.25-42.22l35.28-17.26c21.65-12.49,54.38-13.85,73.13-3l474.64,274c18.74,10.82,16.39,29.72-5.25,42.22l-35.29,17.25C2701.3,1916.91,2668.56,1918.26,2649.82,1907.44Z" transform="translate(-904.37 -295.67)"/></g><path class="cls-3" d="M1956.33,1626l-260.2-150.31-260.2-150.31c-26.48-15.29-26.62-53.45-.27-68.95l269.94-154.7a39.92,39.92,0,0,1,40.19-.15L2006,1251.84l260.2,150.31c26.47,15.29,26.62,53.45.27,68.95l-269.94,154.7A39.92,39.92,0,0,1,1956.33,1626Z" transform="translate(-904.37 -295.67)"/><path class="cls-4" d="M1435.48,1259l267.93-153.55c11.8-6.94,27.9-6.15,39.76.7l258.37,149.25,17.67,10.21,240.7,139c25.21,14.57,28.28,52.6,3.18,67.36l-267.93,153.56c-11.8,6.94-27.9,6.14-39.76-.71L1697,1475.57l-17.67-10.21-240.7-139C1413.45,1311.76,1410.38,1273.72,1435.48,1259Z" transform="translate(-904.37 -295.67)"/><path class="cls-5" d="M1435.3,1261.55l265.93-152.42c11.21-6.59,28.06-4.94,39.32,1.57l256.54,148.19,17.55,10.13,239,138.06c23.95,13.83,29.94,51.74,6.09,65.76L1993.8,1625.26c-11.21,6.59-28.06,4.94-39.33-1.57L1697.93,1475.5l-17.55-10.14-239-138C1417.44,1313.47,1411.46,1275.57,1435.3,1261.55Z" transform="translate(-904.37 -295.67)"/><path class="cls-6" d="M1435.12,1264.13,1699,1112.85c10.62-6.25,28.22-3.73,38.89,2.43l254.71,147.13,17.42,10.07,237.29,137.06c22.69,13.11,31.6,50.88,9,64.17L1992.43,1625c-10.62,6.24-28.21,3.73-38.88-2.43l-254.71-147.13-17.43-10.07L1444.13,1328.3C1421.43,1315.19,1412.53,1277.41,1435.12,1264.13Z" transform="translate(-904.37 -295.67)"/><path class="cls-7" d="M1434.94,1266.71l261.91-150.14c10-5.9,28.38-2.53,38.46,3.29l252.88,146.07,17.3,10L2241.07,1412c21.43,12.38,33.25,50,11.92,62.58l-261.92,150.14c-10,5.9-28.37,2.53-38.45-3.29l-252.88-146.07-17.3-10-235.58-136.07C1425.43,1316.91,1413.6,1279.26,1434.94,1266.71Z" transform="translate(-904.37 -295.67)"/><path class="cls-8" d="M1434.76,1269.3l259.91-149c9.44-5.56,28.53-1.33,38,4.15l251,145,17.18,9.92,233.87,135.09c20.17,11.65,34.91,49.17,14.83,61l-259.91,149c-9.44,5.55-28.53,1.32-38-4.15l-251-145-17.17-9.92-233.88-135.09C1429.42,1318.63,1414.68,1281.1,1434.76,1269.3Z" transform="translate(-904.37 -295.67)"/><path class="cls-9" d="M1434.58,1271.88,1692.48,1124c8.85-5.21,28.7-.12,37.59,5l249.22,144,17,9.85,232.17,134.1c18.91,10.92,36.57,48.32,17.75,59.39l-257.91,147.86c-8.85,5.2-28.69.12-37.58-5l-249.23-144-17-9.84-232.17-134.1C1433.41,1320.34,1415.75,1283,1434.58,1271.88Z" transform="translate(-904.37 -295.67)"/><path class="cls-10" d="M1434.4,1274.46l255.9-146.72c8.26-4.86,28.85,1.08,37.15,5.88l247.39,142.88,16.93,9.78,230.46,133.11c17.65,10.2,38.23,47.46,20.66,57.8L1987,1623.91c-8.26,4.86-28.85-1.08-37.15-5.88l-247.39-142.89-16.93-9.77-230.46-133.11C1437.41,1322.06,1416.83,1284.8,1434.4,1274.46Z" transform="translate(-904.37 -295.67)"/><path class="cls-11" d="M1434.22,1277.05l253.89-145.59c7.67-4.51,29,2.29,36.72,6.74L1970.39,1280l16.8,9.7L2216,1421.86c16.39,9.46,39.89,46.6,23.57,56.19l-253.89,145.59c-7.67,4.51-29-2.29-36.72-6.74l-245.56-141.83-16.8-9.7-228.76-132.12C1441.4,1323.78,1417.9,1286.64,1434.22,1277.05Z" transform="translate(-904.37 -295.67)"/><path class="cls-12" d="M1434,1279.63l251.88-144.45c7.08-4.16,29.17,3.49,36.29,7.6l243.73,140.77,16.68,9.63,227.05,131.14c15.13,8.74,41.55,45.75,26.49,54.6l-251.89,144.45c-7.08,4.16-29.17-3.49-36.28-7.6L1704.25,1475l-16.68-9.63-227-131.14C1445.39,1325.5,1419,1288.49,1434,1279.63Z" transform="translate(-904.37 -295.67)"/><path class="cls-13" d="M1433.85,1282.21l249.89-143.3c6.49-3.82,29.33,4.69,35.85,8.46l241.9,139.71,16.55,9.56,225.35,130.14c13.87,8,43.21,44.89,29.4,53L1982.91,1623.1c-6.49,3.82-29.33-4.7-35.85-8.46l-241.9-139.71-16.56-9.56-225.35-130.15C1449.39,1327.21,1420.05,1290.33,1433.85,1282.21Z" transform="translate(-904.37 -295.67)"/><path class="cls-14" d="M1433.67,1284.8l247.88-142.17c5.9-3.47,29.49,5.9,35.42,9.32L1957,1290.6l16.43,9.49,223.64,129.15c12.61,7.29,44.86,44,32.31,51.42l-247.87,142.17c-5.9,3.47-29.49-5.9-35.42-9.32l-240.07-138.65-16.43-9.49L1466,1336.21C1453.38,1328.93,1421.13,1292.18,1433.67,1284.8Z" transform="translate(-904.37 -295.67)"/><path class="cls-15" d="M1433.49,1287.38l245.88-141c5.31-3.12,29.64,7.1,35,10.19l238.24,137.58,16.3,9.42,221.94,128.17c11.35,6.55,46.52,43.18,35.23,49.82l-245.87,141c-5.31,3.12-29.65-7.1-35-10.18L1707,1474.79l-16.3-9.42L1468.72,1337.2C1457.37,1330.65,1422.2,1294,1433.49,1287.38Z" transform="translate(-904.37 -295.67)"/><path class="cls-16" d="M1433.31,1290l243.87-139.89c4.72-2.77,29.8,8.31,34.54,11l236.42,136.53,16.18,9.34,220.23,127.18c10.09,5.83,48.18,42.33,38.14,48.23l-243.86,139.89c-4.72,2.78-29.81-8.31-34.55-11l-236.42-136.52-16.18-9.35-220.23-127.18C1461.37,1332.37,1423.27,1295.87,1433.31,1290Z" transform="translate(-904.37 -295.67)"/><path class="cls-17" d="M1433.13,1292.55,1675,1153.8c4.13-2.43,30,9.51,34.11,11.9l234.59,135.47,16.06,9.27,218.52,126.19c8.83,5.1,49.84,41.47,41.06,46.64L1977.46,1622c-4.13,2.43-30-9.51-34.11-11.91l-234.58-135.46-16.06-9.28-218.52-126.19C1465.36,1334.08,1424.35,1297.71,1433.13,1292.55Z" transform="translate(-904.37 -295.67)"/><path class="cls-18" d="M1433,1295.13l239.86-137.61c3.54-2.08,30.12,10.71,33.67,12.77l232.76,134.4,15.93,9.2L2172,1439.1c7.57,4.37,51.5,40.61,44,45L1976.1,1621.75c-3.54,2.08-30.12-10.71-33.67-12.77l-232.76-134.41-15.93-9.19-216.82-125.21C1469.35,1335.8,1425.42,1299.56,1433,1295.13Z" transform="translate(-904.37 -295.67)"/><path class="cls-19" d="M1432.77,1297.71l237.85-136.47c3-1.73,30.28,11.92,33.24,13.63l230.93,133.35,15.81,9.12,215.11,124.22c6.31,3.64,53.16,39.76,46.88,43.45l-237.85,136.47c-3,1.73-30.28-11.92-33.24-13.63L1710.57,1474.5l-15.8-9.12-215.12-124.22C1473.35,1337.52,1426.5,1301.4,1432.77,1297.71Z" transform="translate(-904.37 -295.67)"/><path class="cls-20" d="M1432.59,1300.3,1668.44,1165c2.36-1.39,30.43,13.13,32.8,14.5l229.1,132.28,15.68,9.06L2159.43,1444c5.05,2.92,54.82,38.9,49.8,41.86l-235.85,135.33c-2.36,1.39-30.44-13.12-32.81-14.49l-229.09-132.29-15.69-9-213.41-123.23C1477.34,1339.24,1427.57,1303.25,1432.59,1300.3Z" transform="translate(-904.37 -295.67)"/><path class="cls-21" d="M1432.41,1302.88l233.84-134.19c1.77-1,30.6,14.32,32.37,15.35l227.27,131.23,15.56,9,211.7,122.24c3.79,2.18,56.47,38,52.71,40.25L1972,1620.94c-1.77,1-30.6-14.33-32.37-15.35l-227.27-131.23-15.56-9-211.7-122.24C1481.33,1341,1428.65,1305.1,1432.41,1302.88Z" transform="translate(-904.37 -295.67)"/><path class="cls-22" d="M1432.23,1305.46l231.83-133c1.18-.7,30.76,15.53,31.94,16.21l225.44,130.17,15.43,8.91,210,121.25c2.52,1.46,58.13,37.19,55.62,38.66l-231.83,133.06c-1.18.69-30.75-15.53-31.94-16.22l-225.44-130.16-15.43-8.91-210-121.25C1485.33,1342.67,1429.72,1306.94,1432.23,1305.46Z" transform="translate(-904.37 -295.67)"/><path class="cls-23" d="M1432.05,1308.05l229.83-131.92c.59-.35,30.91,16.73,31.5,17.08L1917,1322.31l15.31,8.84,208.29,120.26c1.26.73,59.79,36.33,58.54,37.07L1969.3,1620.4c-.59.35-30.91-16.73-31.51-17.08l-223.61-129.1-15.3-8.84-208.3-120.26C1489.32,1344.39,1430.79,1308.79,1432.05,1308.05Z" transform="translate(-904.37 -295.67)"/><polygon class="cls-24" points="1063.57 1324.46 795.53 1169.71 527.5 1014.97 755.32 884.19 1023.36 1038.94 1291.39 1193.68 1063.57 1324.46"/><polygon class="cls-25" points="642 461.27 528.75 1013.08 1064.88 1324.46 1178.13 768.66 642 461.27"/><polygon class="cls-26" points="1065.49 1273.09 1161.43 776.2 652.42 484.38 555.83 980.88 1065.49 1273.09"/><polygon class="cls-27" points="1061.43 1266.98 1161.43 776.2 652.42 484.38 551.77 974.77 1061.43 1266.98"/><polygon class="cls-26" points="1053.21 1272.32 1161.43 776.2 652.42 484.38 543.56 980.12 1053.21 1272.32"/><polygon class="cls-28" points="1050.91 1264.65 1161.43 776.2 652.42 484.38 541.26 972.45 1050.91 1264.65"/><polygon class="cls-29" points="1004.27 998.42 990.36 1057.75 928.86 1021.98 942.52 962.7 1004.27 998.42"/><polygon class="cls-30" points="630.25 714.66 824.36 825.91 838.17 765.68 645.22 654.82 630.25 714.66"/><polygon class="cls-30" points="899.93 1143.15 1029.97 1216.8 1043.78 1156.58 914.89 1083.31 899.93 1143.15"/><path class="cls-31" d="M1936.62,1517.79l-459.53-263.46L1546,945.13,2005,1208.26Zm-452.53-266.55,448.32,257L1998,1211.35,1550.21,954.63Z" transform="translate(-904.37 -295.67)"/><rect class="cls-31" x="1812.73" y="1358.34" width="310.54" height="6.16" transform="translate(-688.9 2695.2) rotate(-77.59)"/><polygon class="cls-31" points="967.45 1180.66 971.94 1136.26 1030.19 876.53 1025.7 920.94 967.45 1180.66"/><polygon class="cls-31" points="901.74 1143.29 916.74 1055.8 966.28 839.59 951.29 927.08 901.74 1143.29"/><polygon class="cls-31" points="836.04 1105.93 861.54 975.35 902.38 802.65 876.88 933.22 836.04 1105.93"/><polygon class="cls-31" points="770.33 1068.56 806.34 894.9 838.47 765.71 802.47 939.37 770.33 1068.56"/><polygon class="cls-31" points="704.63 1031.19 751.14 814.45 774.57 728.77 728.05 945.51 704.63 1031.19"/><polygon class="cls-31" points="638.92 993.82 695.94 734 710.66 691.83 653.64 951.65 638.92 993.82"/><rect class="cls-31" x="1359.19" y="1098.25" width="310.34" height="6.16" transform="translate(-793.39 2045.32) rotate(-77.48)"/><rect class="cls-31" x="1704.47" y="1121.29" width="6.16" height="523.23" transform="translate(-1245.84 1880.76) rotate(-60.17)"/><polygon class="cls-31" points="951.33 1107.41 588.81 898.14 681.93 945.85 1044.46 1155.12 951.33 1107.41"/><polygon class="cls-31" points="874.05 994.78 602.93 836.49 786.11 937.26 1057.23 1095.54 874.05 994.78"/><polygon class="cls-31" points="796.77 882.15 617.04 774.84 890.29 928.66 1070.01 1035.96 796.77 882.15"/><polygon class="cls-31" points="719.49 769.52 631.16 713.19 994.46 920.06 1082.79 976.39 719.49 769.52"/><rect class="cls-31" x="1771.72" y="818.55" width="6.16" height="522.58" transform="translate(-949.12 1786.78) rotate(-60.17)"/><polygon class="cls-32" points="1178.13 768.66 1064.88 1324.46 1178.25 1226.38 1291.39 1193.68 1178.13 768.66"/><polygon class="cls-33" points="1289.71 1194.17 1291.39 1193.68 1178.13 768.65 1112.17 1092.37 1289.71 1194.17"/><polygon class="cls-34" points="1180.08 1225.85 1094.92 1177.03 1064.88 1324.46 1178.25 1226.38 1180.08 1225.85"/><path class="cls-35" d="M2082.5,1064.32l-113.25,555.81,113.37-98.08,113.14-32.7Zm-1.38,455-107.07,92.63,108.85-534.17L2192,1487.24Z" transform="translate(-904.37 -295.67)"/><polygon class="cls-36" points="1133.16 785.89 1104.22 769.29 1100.22 788.78 1129.16 805.38 1133.16 785.89"/><polygon class="cls-36" points="1060.87 744.41 1031.93 727.82 1027.93 747.31 1056.87 763.9 1060.87 744.41"/><polygon class="cls-36" points="988.58 702.94 959.64 686.35 955.64 705.84 984.58 722.43 988.58 702.94"/><polygon class="cls-36" points="916.29 661.47 887.35 644.88 883.35 664.37 912.29 680.96 916.29 661.47"/><polygon class="cls-36" points="844 620 815.06 603.4 811.06 622.89 840 639.49 844 620"/><polygon class="cls-36" points="771.72 578.53 742.77 561.93 738.77 581.42 767.72 598.02 771.72 578.53"/><polygon class="cls-36" points="699.43 537.05 670.49 520.46 666.49 539.95 695.43 556.54 699.43 537.05"/><path class="cls-37" d="M2075.27,1004c-7.93-4.58-18-3.79-28.42,2.23-19.34,11.16-34.48,37.29-34.48,59.49,0,9.81,3,17.68,8.52,22.76a21.47,21.47,0,0,0,13.66,5.55l2.53-12.29a10,10,0,0,1-7.92-2.33c-2.91-2.66-4.51-7.51-4.51-13.69,0-17.61,13-40,28.34-48.86,6.36-3.67,12.24-4.48,16.14-2.23s6.06,7.63,6.06,14.82c0,8.12-2.72,17.51-7.64,26.43l10.74,5.94c5.92-10.72,9.18-22.21,9.18-32.37C2087.47,1017.53,2083.13,1008.49,2075.27,1004Z" transform="translate(-904.37 -295.67)"/><path class="cls-38" d="M2003,962.48c-7.93-4.58-18-3.79-28.42,2.22-19.33,11.17-34.48,37.3-34.48,59.5,0,9.81,3,17.68,8.52,22.76a21.47,21.47,0,0,0,13.67,5.55l2.52-12.29a9.94,9.94,0,0,1-7.92-2.34c-2.91-2.65-4.51-7.51-4.51-13.68,0-17.62,13-40,28.34-48.86,6.36-3.68,12.24-4.48,16.14-2.23s6.06,7.63,6.06,14.82c0,8.12-2.71,17.5-7.64,26.43l10.75,5.93c5.91-10.71,9.17-22.2,9.17-32.36C2015.18,976.06,2010.84,967,2003,962.48Z" transform="translate(-904.37 -295.67)"/><path class="cls-39" d="M1930.69,921c-7.93-4.58-18-3.79-28.42,2.22-19.33,11.17-34.48,37.3-34.48,59.5,0,9.81,3,17.68,8.52,22.76A21.47,21.47,0,0,0,1890,1011l2.52-12.29a9.94,9.94,0,0,1-7.92-2.34c-2.91-2.65-4.51-7.51-4.51-13.68,0-17.62,13-40,28.34-48.86,6.36-3.68,12.24-4.48,16.14-2.23s6.06,7.62,6.06,14.82c0,8.11-2.71,17.5-7.64,26.43l10.75,5.93c5.91-10.71,9.17-22.2,9.17-32.36C1942.89,934.59,1938.55,925.55,1930.69,921Z" transform="translate(-904.37 -295.67)"/><path class="cls-40" d="M1858.4,879.54c-7.92-4.58-18-3.79-28.42,2.22-19.33,11.16-34.47,37.3-34.47,59.5,0,9.8,2.94,17.67,8.52,22.75a21.32,21.32,0,0,0,13.66,5.55l2.52-12.28a9.94,9.94,0,0,1-7.92-2.34c-2.91-2.65-4.51-7.51-4.51-13.68,0-17.62,13-40,28.34-48.87,6.36-3.67,12.24-4.47,16.14-2.22s6.06,7.62,6.06,14.82c0,8.11-2.71,17.5-7.64,26.43l10.75,5.93c5.91-10.71,9.17-22.21,9.17-32.36C1870.6,893.12,1866.27,884.08,1858.4,879.54Z" transform="translate(-904.37 -295.67)"/><path class="cls-41" d="M1786.11,838.06c-7.92-4.58-18-3.78-28.42,2.23-19.33,11.16-34.47,37.29-34.47,59.49,0,9.81,2.94,17.68,8.52,22.76a21.45,21.45,0,0,0,13.66,5.55l2.52-12.28a9.92,9.92,0,0,1-7.91-2.34c-2.91-2.66-4.52-7.51-4.52-13.69,0-17.61,13-40,28.34-48.86,6.36-3.67,12.24-4.48,16.14-2.23s6.07,7.63,6.07,14.82c0,8.12-2.72,17.51-7.65,26.43l10.75,5.94c5.91-10.72,9.17-22.21,9.17-32.37C1798.31,851.64,1794,842.6,1786.11,838.06Z" transform="translate(-904.37 -295.67)"/><path class="cls-42" d="M1713.82,796.59c-7.92-4.58-18-3.79-28.42,2.23-19.33,11.16-34.47,37.29-34.47,59.49,0,9.81,2.94,17.68,8.52,22.76a21.45,21.45,0,0,0,13.66,5.55l2.52-12.29a9.92,9.92,0,0,1-7.91-2.34c-2.91-2.65-4.52-7.51-4.52-13.68,0-17.62,13-40,28.34-48.86,6.36-3.68,12.24-4.48,16.14-2.23s6.07,7.63,6.07,14.82c0,8.12-2.72,17.5-7.65,26.43l10.75,5.94c5.91-10.72,9.17-22.21,9.17-32.37C1726,810.17,1721.69,801.13,1713.82,796.59Z" transform="translate(-904.37 -295.67)"/><path class="cls-43" d="M1641.54,755.12c-7.93-4.58-18-3.79-28.42,2.22-19.34,11.17-34.48,37.3-34.48,59.5,0,9.81,2.94,17.68,8.52,22.76a21.45,21.45,0,0,0,13.66,5.55l2.52-12.29a9.92,9.92,0,0,1-7.91-2.34c-2.91-2.65-4.52-7.51-4.52-13.68,0-17.62,13-40,28.34-48.86,6.36-3.68,12.24-4.48,16.15-2.23s6.06,7.62,6.06,14.82c0,8.12-2.72,17.5-7.64,26.43l10.74,5.93c5.92-10.71,9.17-22.2,9.17-32.36C1653.73,768.7,1649.4,759.66,1641.54,755.12Z" transform="translate(-904.37 -295.67)"/><path class="cls-44" d="M2019.43,1067.47c0-20.68,14.11-45,32.13-55.44,9.69-5.6,19.09-6.34,26.48-2.07.55.32,1.05.71,1.57,1.08a19.94,19.94,0,0,0-5.15-4.3c-7.38-4.27-16.79-3.53-26.48,2.07-18,10.41-32.13,34.76-32.13,55.44,0,9.14,2.75,16.48,7.94,21.21a20.68,20.68,0,0,0,1.77,1.35C2021.54,1082.1,2019.43,1075.48,2019.43,1067.47Z" transform="translate(-904.37 -295.67)"/><path class="cls-45" d="M2080.94,1033.62c0-7.19-2.2-12.59-6.06-14.82-.2-.11-.42-.18-.63-.28,1.83,2.79,2.86,6.8,2.86,11.65,0,8.12-2.72,17.5-7.64,26.43l4.37,2.41C2078.41,1050.4,2080.94,1041.43,2080.94,1033.62Z" transform="translate(-904.37 -295.67)"/><path class="cls-46" d="M1946.54,1026c0-20.68,14.11-45,32.13-55.44,9.69-5.6,19.1-6.34,26.48-2.07a19.13,19.13,0,0,1,1.58,1.08,20.27,20.27,0,0,0-5.15-4.3c-7.39-4.27-16.79-3.53-26.48,2.07-18,10.41-32.13,34.76-32.13,55.44,0,9.14,2.74,16.48,7.94,21.21a20.54,20.54,0,0,0,1.76,1.35C1948.66,1040.68,1946.54,1034.05,1946.54,1026Z" transform="translate(-904.37 -295.67)"/><path class="cls-47" d="M2008.06,992.19c0-7.19-2.21-12.59-6.06-14.82-.2-.11-.43-.18-.64-.28,1.84,2.79,2.86,6.8,2.86,11.65,0,8.12-2.71,17.5-7.64,26.43l4.37,2.42C2005.53,1009,2008.06,1000,2008.06,992.19Z" transform="translate(-904.37 -295.67)"/><path class="cls-48" d="M1874.81,984.61c0-20.68,14.11-45,32.13-55.44,9.69-5.6,19.09-6.34,26.48-2.07.55.32,1,.71,1.57,1.08a19.94,19.94,0,0,0-5.15-4.3c-7.38-4.27-16.79-3.53-26.48,2.07-18,10.41-32.13,34.76-32.13,55.44,0,9.14,2.75,16.48,7.94,21.21a20.68,20.68,0,0,0,1.77,1.35C1876.92,999.25,1874.81,992.62,1874.81,984.61Z" transform="translate(-904.37 -295.67)"/><path class="cls-49" d="M1936.32,950.76c0-7.19-2.2-12.59-6.06-14.82-.2-.11-.42-.18-.63-.28,1.83,2.79,2.86,6.8,2.86,11.65,0,8.12-2.72,17.5-7.64,26.43l4.37,2.42C1933.79,967.54,1936.32,958.57,1936.32,950.76Z" transform="translate(-904.37 -295.67)"/><path class="cls-50" d="M1802.31,942.8c0-20.69,14.11-45,32.12-55.44,9.7-5.6,19.1-6.34,26.49-2.07.55.32,1,.71,1.57,1.08a19.9,19.9,0,0,0-5.15-4.3c-7.39-4.27-16.79-3.53-26.48,2.07-18,10.4-32.13,34.76-32.13,55.44,0,9.14,2.75,16.47,7.94,21.21a20.56,20.56,0,0,0,1.77,1.34C1804.42,957.43,1802.31,950.81,1802.31,942.8Z" transform="translate(-904.37 -295.67)"/><path class="cls-51" d="M1863.82,909c0-7.2-2.21-12.6-6.06-14.82-.2-.11-.43-.19-.63-.29,1.83,2.8,2.86,6.81,2.86,11.66,0,8.11-2.72,17.5-7.65,26.43l4.38,2.41C1861.29,925.73,1863.82,916.75,1863.82,909Z" transform="translate(-904.37 -295.67)"/><path class="cls-52" d="M1729.42,901.37c0-20.69,14.11-45,32.13-55.44,9.69-5.6,19.09-6.34,26.48-2.07a19.13,19.13,0,0,1,1.58,1.08,20.07,20.07,0,0,0-5.15-4.3c-7.39-4.27-16.79-3.53-26.49,2.07-18,10.4-32.12,34.76-32.12,55.44,0,9.14,2.74,16.47,7.94,21.21a19,19,0,0,0,1.76,1.34C1731.53,916,1729.42,909.38,1729.42,901.37Z" transform="translate(-904.37 -295.67)"/><path class="cls-53" d="M1790.94,867.52c0-7.2-2.21-12.6-6.07-14.82-.2-.11-.42-.19-.63-.29,1.84,2.8,2.86,6.81,2.86,11.66,0,8.11-2.71,17.5-7.64,26.43l4.37,2.41C1788.4,884.3,1790.94,875.32,1790.94,867.52Z" transform="translate(-904.37 -295.67)"/><path class="cls-54" d="M1657.69,859.94c0-20.69,14.11-45,32.12-55.44,9.7-5.6,19.1-6.34,26.49-2.07.55.32,1,.71,1.57,1.08a19.9,19.9,0,0,0-5.15-4.3c-7.38-4.27-16.79-3.53-26.48,2.07-18,10.4-32.13,34.76-32.13,55.44,0,9.14,2.75,16.48,7.94,21.21a20.56,20.56,0,0,0,1.77,1.34C1659.8,874.57,1657.69,868,1657.69,859.94Z" transform="translate(-904.37 -295.67)"/><path class="cls-55" d="M1719.2,826.09c0-7.19-2.21-12.6-6.06-14.82-.2-.11-.43-.19-.63-.29,1.83,2.8,2.86,6.81,2.86,11.66,0,8.11-2.72,17.5-7.65,26.43l4.38,2.41C1716.67,842.87,1719.2,833.89,1719.2,826.09Z" transform="translate(-904.37 -295.67)"/><path class="cls-56" d="M1586,818.89c0-20.68,14.11-45,32.13-55.44,9.69-5.6,19.09-6.34,26.48-2.07a19.13,19.13,0,0,1,1.58,1.08,20.48,20.48,0,0,0-5.15-4.3c-7.39-4.26-16.79-3.53-26.49,2.08-18,10.4-32.12,34.75-32.12,55.44,0,9.14,2.74,16.47,7.94,21.2a18.69,18.69,0,0,0,1.76,1.35C1588.06,833.53,1586,826.9,1586,818.89Z" transform="translate(-904.37 -295.67)"/><path class="cls-57" d="M1647.47,785c0-7.19-2.21-12.59-6.07-14.81a6,6,0,0,0-.63-.29c1.84,2.79,2.86,6.8,2.86,11.65,0,8.12-2.71,17.5-7.64,26.43l4.37,2.42C1644.94,801.82,1647.47,792.85,1647.47,785Z" transform="translate(-904.37 -295.67)"/><path class="cls-58" d="M1868.73,1059.68l-8.41,8.66-3.74-15.69-.27-.16.08-.29c-.22-.15-.76-.47-1.61-1a25.11,25.11,0,0,0-3.57-1.71l-18.86-10.91-.23.92a61.29,61.29,0,0,0-10.9-7.74,77.49,77.49,0,0,0-10-4.84l.13-.51-12.76-7.39-2.62,10.43a7.74,7.74,0,0,1-3.44-.37,18.26,18.26,0,0,1-3.11-1.43,8.55,8.55,0,0,1-2.69-2.26,2.75,2.75,0,0,1-.61-2.35l2.47-9.81-11.8-6.83a34.62,34.62,0,0,0-4-2.7,48.55,48.55,0,0,0-8.2-3.92,13.23,13.23,0,0,0-5.8-.93l.63-2.52-11.47-6.65-.24.92a60.94,60.94,0,0,0-10.9-7.73,76.79,76.79,0,0,0-8.32-4.22l1.55-6.16L1716.91,965,1714,976.64a14.12,14.12,0,0,1-.9,2.68,2.58,2.58,0,0,1-1.35,1.37,3.33,3.33,0,0,1-2.21-.08,17.69,17.69,0,0,1-3.43-1.61c-.94-.55-1.84-1.11-2.69-1.71s-1.6-1.14-2.24-1.63-1.18-.93-1.6-1.3-.69-.6-.82-.73l-4,3.55a48.38,48.38,0,0,0,10,7.41,64.17,64.17,0,0,0,10.58,5.17,24,24,0,0,0,3.26.85c.08.1.13.19.22.29a27.6,27.6,0,0,0,3.63,3.42,38.34,38.34,0,0,0,4.8,3.25,33.63,33.63,0,0,0,6.77,3.06,18.22,18.22,0,0,0,6,.93l.11.77a6,6,0,0,0,1.88,3.1,24.8,24.8,0,0,0,5,3.61c.71.41,1.54.86,2.47,1.34s1.92,1,3,1.45l4,2.3,2.4-9.55a5,5,0,0,1,3.12-.19,11.2,11.2,0,0,1,3.6,1.3,9.68,9.68,0,0,1,2.57,2.14,2.74,2.74,0,0,1,.71,2.51l-2.41,9.57,12,6.94a37.26,37.26,0,0,0,4.12,2.75,49,49,0,0,0,8,3.85,17,17,0,0,0,6.48,1.15l.11.77c.28,2,2.58,4.19,6.93,6.71,1.2.7,2.79,1.51,4.63,2.39,1,.68,1.88,1.38,2.95,2a34,34,0,0,0,6.78,3.06,18.22,18.22,0,0,0,6,.93l.11.77a6,6,0,0,0,1.88,3.1,24.8,24.8,0,0,0,5.05,3.61c.71.41,1.54.86,2.47,1.34s1.92,1,3,1.45l4,2.29,2.54-10.09a9.69,9.69,0,0,1,3.11.68l5.56,15.9c-.65,1.36-2.34,1.24-5.07-.34a43.77,43.77,0,0,1-5.09-3.58l-1.32,5.24a49,49,0,0,0,6.42,4.43,42.64,42.64,0,0,0,5.26,2.6,28,28,0,0,0,4.82,1.51,13.64,13.64,0,0,0,4,.29,5.74,5.74,0,0,0,2.85-1l16.75-12.14Zm-130-62.56c-.06.22-.26.34-.63.36a5.43,5.43,0,0,1-1.35-.13,16.19,16.19,0,0,1-2.27-.78,19.65,19.65,0,0,1-2.39-1.18,12.42,12.42,0,0,1-2.87-2.18c-.71-.75-1-1.37-.88-1.84s.77-.73,1.89-.5a14.19,14.19,0,0,1,4,1.7c.72.41,1.51.92,2.39,1.53s1.67,1.19,2.4,1.76Zm1.11-4.4a46.77,46.77,0,0,0-6.95-4.76,52.88,52.88,0,0,0-6.11-3.07c.08-.25.21-.41.28-.67l.28-1.11c.46.16,1,.27,1.42.44a39,39,0,0,1,5.69,2.75,19.73,19.73,0,0,1,4.52,3.29,2.88,2.88,0,0,1,1,2.62Zm83.34,53.3c-.06.22-.26.34-.63.36a5.39,5.39,0,0,1-1.35-.13,16.19,16.19,0,0,1-2.27-.78,19.65,19.65,0,0,1-2.39-1.18,12.42,12.42,0,0,1-2.87-2.18c-.71-.75-1-1.37-.89-1.84s.78-.73,1.9-.5a13.9,13.9,0,0,1,4,1.7c.71.41,1.51.92,2.39,1.53s1.67,1.19,2.39,1.76Zm1.1-4.4a46.1,46.1,0,0,0-6.94-4.76,51.5,51.5,0,0,0-6.26-3.14c-.51-.21-1-.36-1.44-.53l.43-1.7c1,.32,2.16.59,3.14,1a39,39,0,0,1,5.69,2.75,19.73,19.73,0,0,1,4.52,3.29,2.87,2.87,0,0,1,1,2.61Zm18.93,7,.64-2.52.82,2.34A9.71,9.71,0,0,0,1843.21,1048.62Z" transform="translate(-904.37 -295.67)"/><path class="cls-59" d="M1608.21,958.73l-47.34-27.14a5.56,5.56,0,0,0-8.23,3.83l-1.77,9.82,62.82,36,1.4-7.74A14.16,14.16,0,0,0,1608.21,958.73Z" transform="translate(-904.37 -295.67)"/><path class="cls-59" d="M1672.78,995.69l-47.34-27.14a5.55,5.55,0,0,0-8.22,3.83l-1.78,9.82,62.83,36,1.39-7.75A14.13,14.13,0,0,0,1672.78,995.69Z" transform="translate(-904.37 -295.67)"/><path class="cls-59" d="M1737.36,1032.64,1690,1005.5a5.56,5.56,0,0,0-8.23,3.83l-1.77,9.82,62.82,36,1.4-7.74A14.16,14.16,0,0,0,1737.36,1032.64Z" transform="translate(-904.37 -295.67)"/><path class="cls-59" d="M1801.93,1069.6l-47.34-27.14a5.54,5.54,0,0,0-8.22,3.83l-1.78,9.82,62.82,36,1.4-7.74A14.12,14.12,0,0,0,1801.93,1069.6Z" transform="translate(-904.37 -295.67)"/><path class="cls-59" d="M1866.5,1106.55l-47.33-27.14a5.55,5.55,0,0,0-8.23,3.83l-1.77,9.82,62.82,36,1.4-7.74A14.16,14.16,0,0,0,1866.5,1106.55Z" transform="translate(-904.37 -295.67)"/><path class="cls-59" d="M1931.08,1143.5l-47.34-27.14a5.56,5.56,0,0,0-8.23,3.83l-1.77,9.82,62.82,36,1.4-7.74A14.16,14.16,0,0,0,1931.08,1143.5Z" transform="translate(-904.37 -295.67)"/><path class="cls-59" d="M1995.65,1180.46l-47.34-27.14a5.54,5.54,0,0,0-8.22,3.83l-1.78,9.82,62.83,36,1.39-7.75A14.14,14.14,0,0,0,1995.65,1180.46Z" transform="translate(-904.37 -295.67)"/><path class="cls-60" d="M1611.23,760.89c-12.89-6.46-30.17-1-38.58,12.18s-4.77,29.11,8.12,35.57,30.17,1,38.58-12.18S1624.13,767.35,1611.23,760.89Z" transform="translate(-904.37 -295.67)"/><path class="cls-61" d="M1971.31,968.55c-12.89-6.46-30.17-1-38.58,12.18s-4.78,29.11,8.12,35.57,30.17,1,38.58-12.18S1984.21,975,1971.31,968.55Z" transform="translate(-904.37 -295.67)"/><path class="cls-62" d="M1598.05,833.87c0,2,2.77,14.86,2.77,14.86L1641,819.55l-7.19-9Z" transform="translate(-904.37 -295.67)"/><polygon class="cls-63" points="638.5 1108.31 638.5 1108.31 638.5 1108.31 638.5 1108.31"/><rect class="cls-64" x="638.5" y="1108.31" height="31.12"/><polygon class="cls-65" points="638.5 1108.31 638.5 1108.31 638.5 1108.31 638.5 1108.31"/><polygon class="cls-66" points="571.31 1015.21 571.31 1015.21 571.31 1015.21 571.31 1015.21"/><path class="cls-67" d="M2650.14,1875.53l-415-239.62c-46.82-27-84.77-99.55-84.77-162V368.65c0-31.75-26.09-38.76-10.29-50.17.6-.43,37-17,37.74-17.25,17-6.52,35.22-9.42,57.32,3.34l415,239.62c46.82,27,84.77,99.54,84.77,162V1811.44c0,33.17-10.71,56.81-27.78,67.64-1,.64-44.93,21.52-46.05,21.9C2646,1906,2670.61,1887.34,2650.14,1875.53Z" transform="translate(-904.37 -295.67)"/><path class="cls-68" d="M2646.32,545.46l-415-239.62c-22.1-12.76,392.09,247.27,392.09,247.27,46.82,27,84.77,99.54,84.77,162,0,0,23,1130.81,23,1097.65V707.43C2731.09,645,2693.14,572.49,2646.32,545.46Z" transform="translate(-904.37 -295.67)"/><path class="cls-69" d="M2617.9,1890.27l-415-239.62c-46.82-27-84.77-99.55-84.77-162V383.39c0-62.42,38-91.11,84.77-64.08l415,239.62c46.82,27,84.77,99.54,84.77,162V1826.18C2702.67,1888.61,2664.72,1917.3,2617.9,1890.27Z" transform="translate(-904.37 -295.67)"/><path class="cls-70" d="M2610.52,1894.26l-415-239.62c-46.82-27-84.77-99.55-84.77-162V387.38c0-62.42,38-91.11,84.77-64.08l415,239.62c46.82,27,84.77,99.54,84.77,162V1830.17C2695.29,1892.6,2657.34,1921.29,2610.52,1894.26Z" transform="translate(-904.37 -295.67)"/><path class="cls-71" d="M2122.28,1500V393.37c0-54.72,33.27-79.87,74.31-56.17l412.83,238.35c41,23.69,74.31,87.26,74.31,142V1824.18c0,54.72-33.27,79.87-74.31,56.18L2196.59,1642C2155.55,1618.31,2122.28,1554.75,2122.28,1500Z" transform="translate(-904.37 -295.67)"/><path class="cls-72" d="M2138.79,1506.76v-1101c0-45.8,27.85-66.86,62.2-47L2605,592c34.35,19.84,62.2,73,62.2,118.85v1101c0,45.81-27.85,66.86-62.2,47L2201,1625.6C2166.64,1605.77,2138.79,1552.56,2138.79,1506.76Z" transform="translate(-904.37 -295.67)"/><path class="cls-73" d="M2205.67,370.86c-32.38-18.69-58.62-3.72-58.62,33.43V1517.71c0,37.16,26.24,82.43,58.62,101.12l394.67,227.86c32.37,18.69,58.62,3.73,58.62-33.42V699.84c0-37.15-26.25-82.42-58.62-101.11Z" transform="translate(-904.37 -295.67)"/><path class="cls-74" d="M2706.43,980.63V906c0-9.54,5.8-20.62,13-24.76h0c7.15-4.13,13,.26,13,9.8v74.61c0,9.55-5.8,20.63-13,24.76h0C2712.23,994.55,2706.43,990.17,2706.43,980.63Z" transform="translate(-904.37 -295.67)"/><path class="cls-75" d="M2714.25,989.17c-3.7,0-5-4.6-5-8.55V906c0-8.49,5.29-18.71,11.56-22.33a7.78,7.78,0,0,1,3.74-1.18c3.7,0,5,4.61,5,8.55v74.62c0,8.48-5.29,18.71-11.55,22.33A7.86,7.86,0,0,1,2714.25,989.17Z" transform="translate(-904.37 -295.67)"/><path class="cls-76" d="M2713.06,982.54V907.92c0-8.49,5.29-18.71,11.55-22.33a8.1,8.1,0,0,1,3.32-1.1,4,4,0,0,0-3.4-2,7.78,7.78,0,0,0-3.74,1.18c-6.27,3.61-11.56,13.84-11.56,22.33v74.61c0,4,1.32,8.55,5,8.55.13,0,.28-.06.42-.07A12.34,12.34,0,0,1,2713.06,982.54Z" transform="translate(-904.37 -295.67)"/><path class="cls-77" d="M2600.34,598.72,2205.67,370.86c-32.38-18.69-58.62-3.72-58.62,33.43V1517.71c0,37.16,26.24,82.43,58.62,101.12l394.67,227.86c32.37,18.69,58.62,3.73,58.62-33.42V699.84C2659,662.69,2632.71,617.42,2600.34,598.72Zm53.52,1214.55c0,11.53-2.71,21-7.85,27.41-4.7,5.86-11.4,9-19.36,9h0c-7.2,0-15.42-2.55-23.76-7.37l-394.67-227.87c-30.92-17.85-56.08-61.22-56.08-96.69V404.29c0-22.44,10.43-36.38,27.22-36.38,7.19,0,15.41,2.55,23.76,7.37l394.67,227.86c30.92,17.85,56.07,61.23,56.07,96.7Z" transform="translate(-904.37 -295.67)"/><g class="cls-78"><polygon class="cls-79" points="1590.46 1450.24 1448.75 1259.47 1360.89 1073.78 1330.39 926.16 1242.67 810.93 1242.67 1026.59 1279.37 1060.95 1335.38 1169.63 1328.3 1212.69 1350.97 1246.92 1367.98 1237.23 1496.13 1435.65 1607.14 1499.74 1590.46 1450.24"/><path class="cls-80" d="M2593.41,820.55,2659,858.39V844.16l-65.55-37.84V594.72l-12.32-7.11v211.6l-40.73-23.52-38.18-99.09-355.13-205v14.23l77.62,44.82V747.43l-77.62-44.82v14.23l77.62,44.82V888.44l-77.62-44.94v14.23L2237,909.81v-141L2502.9,922.29V1173l-33.06-19.09L2355.4,1188.4l-208.35-120.3v14.23l140.25,81v185l-140.25,62.44v13.48l145-64.57,128.36,219.2-121.27,93.93,11.52,6.66,205.4-159.12,65,37.21v270.69h12.32V1564.63l64.54,36.95,1-1.76V1588l-65.55-37.53V1368.81l65.55,37.82V1392.4l-65.55-37.82V1239.42l65.55,37.85V1263l-65.55-37.84V974.55l65.55,37.84V998.16l-65.55-37.84Zm-293.79,349.87,51.93,30,2.31,1.33,114.44-34.54,34.6,20v115.2L2454,1274.14l-154.36,68.72Zm281.47,372.95-66-37.78-84.82,65.69-126.86-216.63,149.84-66.7,49.64,28.64v.39h.67l77.52,44.72Zm0-195.89-65.87-38V1194.28l65.87,38Zm0-129.4-65.87-38V929.41l65.87,38Zm0-264.88L2237,754.54V537.72L2492.26,685.1l38.17,99.09,50.66,29.24Z" transform="translate(-904.37 -295.67)"/><polygon class="cls-81" points="1724.2 1559.51 1536.93 1177.6 1536.93 986.53 1470.8 862.97 1470.8 721.37 1753.82 876.12 1753.56 904.38 1495.44 762.91 1495.44 856.78 1561.57 980.35 1561.57 1171.89 1746.33 1548.65 1724.2 1559.51"/></g><path class="cls-82" d="M2797.25,1247.22,2737,1198.05v165.13c98,83.75,111.15,230.7,29.12,330.54h0c-140.25,170.7-383.69,214.31-574.48,102.9l-708-413.48-374.81,222.1L1888.65,2054C2215.71,2242.19,2632,2154.25,2855,1849.86l16.43-22.43C3005,1645.1,2972.38,1390.1,2797.25,1247.22Z" transform="translate(-904.37 -295.67)"/><path class="cls-30" d="M2801.15,1242.45l-62.37-50.88-.77,1v14.31l55.35,45.16c172.66,140.87,204.76,392,73.07,571.8L2850,1846.22c-221.47,302.31-633.44,389.34-958.27,202.44L1121,1605.18,1483.6,1390.3,2188.52,1802c194.46,113.57,439.38,69.69,582.34-104.31,84.44-102.78,70.07-255.76-32-341l-.83,1v14.68c90.44,82,101.49,222.41,23.33,317.55-139.11,169.3-377.4,212-566.61,101.49l-708-413.48-3.13-1.83-387,229.33,789,454a744.52,744.52,0,0,0,372.2,99.75c230.8,0,456.82-107.21,602.16-305.6l16.42-22.42C3011.93,1646,2978.89,1387.46,2801.15,1242.45Z" transform="translate(-904.37 -295.67)"/><g class="cls-83"><rect class="cls-30" x="1424.8" y="1566.6" width="12.33" height="24.64" transform="translate(-1555.64 1735.96) rotate(-60.08)"/><path class="cls-30" d="M2352.13,2009.66l-.45-12.31c15.84-.59,31.88-1.84,47.68-3.71l1.45,12.24C2384.68,2007.78,2368.3,2009.06,2352.13,2009.66Zm-48.83-.16c-16.2-.71-32.56-2.1-48.63-4.11l1.53-12.22c15.74,2,31.78,3.33,47.65,4ZM2449,1998.16l-2.43-12.08c15.57-3.14,31.2-6.94,46.46-11.3l3.4,11.83C2480.87,1991.08,2464.91,1995,2449,1998.16Zm-242.5-.8c-15.87-3.3-31.8-7.29-47.34-11.86l3.48-11.81c15.22,4.47,30.82,8.38,46.38,11.62Zm336.27-26-4.33-11.54c14.89-5.58,29.72-11.82,44.07-18.56l5.23,11.15C2573.12,1959.25,2558,1965.63,2542.79,1971.32ZM2113,1969.88c-15.13-5.79-30.21-12.27-44.84-19.27l5.31-11.12c14.34,6.86,29.11,13.21,43.93,18.89Zm518.14-40-6.1-10.71c13.83-7.88,27.47-16.4,40.56-25.31l6.94,10.17C2659.13,1913.18,2645.2,1921.87,2631.09,1929.92Zm-606.12-2.1-41.88-24.1,6.14-10.68,41.89,24.1Zm-83.77-48.2-41.89-24.1,6.15-10.68,41.89,24.1Zm770.48-4.6-7.72-9.6c12.34-9.94,24.45-20.52,36-31.45l8.47,9C2736.64,1854.07,2724.28,1864.87,2711.68,1875Zm-854.25-43.6-41.89-24.1,6.15-10.69,41.88,24.1Zm925-23.46-9.17-8.23c10.61-11.81,20.87-24.2,30.47-36.83l9.81,7.46C2803.76,1783.25,2793.3,1795.9,2782.46,1808Zm-1008.81-24.75-41.88-24.09,6.14-10.69,41.89,24.1Zm-83.77-48.2-41.88-24.1,6.15-10.68,41.88,24.1Zm1151.42-4-10-6.74a312.1,312.1,0,0,0,23-40.29l10.9,5.17A322.5,322.5,0,0,1,2841.3,1731Zm-1235.19-44.19-41.89-24.1,6.15-10.69,41.89,24.1Zm1274.63-42.63-11.31-3.4a302.55,302.55,0,0,0,9.76-44.32l11.7,1.66A315.06,315.06,0,0,1,2880.74,1644.18Zm-1358.4-5.58-41.89-24.09,6.15-10.69,41.89,24.1Zm1359.86-87.43a303.33,303.33,0,0,0-3.78-45.24l11.66-1.86a316.25,316.25,0,0,1,3.93,47Zm-14.26-89.4a304.36,304.36,0,0,0-17-42.09l10.58-5.22a315,315,0,0,1,17.62,43.74Zm-40.05-81.15a305.8,305.8,0,0,0-25.2-31.43l-3.48-3.06,7.86-8.81,3.9,3.48a313.41,313.41,0,0,1,26.61,33.06Z" transform="translate(-904.37 -295.67)"/><polygon class="cls-30" points="1875.14 1029.94 1859.42 1015.91 1858.79 1000.78 1882.16 1022.08 1875.14 1029.94"/></g><path class="cls-84" d="M2412.17,655.92c-28.85-16.66-54.7-17.15-72.6-4.67l-20.73,9.67,2.55,13.31c-4.46,10.26-7,22.77-7,37.43,0,42.44,22.69,109.38,46.2,167.39l24.52,128,27-13.52s97.76-80.91,97.76-169C2509.93,762.59,2466.16,687.09,2412.17,655.92Z" transform="translate(-904.37 -295.67)"/><path class="cls-85" d="M2482.89,838.06c0,88.1-97.76,169-97.76,169s-97.76-193.8-97.76-281.89c0-62,43.77-86.91,97.76-55.74S2482.89,776.11,2482.89,838.06Z" transform="translate(-904.37 -295.67)"/><path class="cls-86" d="M2391.33,666.06c-28.2-16.28-53.54-17.12-71.38-5.51,17.3-7.82,40.1-5.59,65.18,8.89,54,31.17,97.76,106.67,97.76,168.62,0,75.49-71.73,145.65-92.28,164.2l.72,1.43s97.76-80.91,97.76-169C2489.09,772.73,2445.32,697.23,2391.33,666.06Z" transform="translate(-904.37 -295.67)"/><path class="cls-87" d="M2420.72,802.17c0,22.56-15.93,31.64-35.59,20.29s-35.59-38.83-35.59-61.39,15.93-31.64,35.59-20.29S2420.72,779.61,2420.72,802.17Z" transform="translate(-904.37 -295.67)"/><path class="cls-88" d="M2396.12,817.39c-19.66-11.35-35.6-38.83-35.6-61.39,0-8.93,2.53-15.71,6.77-20-10.6,1-17.75,10-17.75,25.05,0,22.56,15.93,50,35.59,61.39,11.87,6.86,22.36,6.21,28.83-.31C2408.71,822.62,2402.62,821.15,2396.12,817.39Z" transform="translate(-904.37 -295.67)"/><g class="cls-89"><path class="cls-90" d="M2797.25,1247.22l-62.36-50.88V1359S2815.16,1261.83,2797.25,1247.22Z" transform="translate(-904.37 -295.67)"/></g><ellipse class="cls-91" cx="2425.9" cy="785.17" rx="138.51" ry="172.93" transform="translate(-997.07 887.14) rotate(-26.91)"/><polygon class="cls-26" points="0 1200.21 167.49 1298.44 343.72 1194.75 175.87 1097.05 0 1200.21"/><polygon class="cls-92" points="163.92 1125.96 163.92 1289.22 321.39 1197.98 321.39 1033.42 163.92 1125.96"/><polygon class="cls-93" points="164.11 1125.96 164.11 1289.22 14.63 1202.86 14.63 1038.29 164.11 1125.96"/><polygon class="cls-94" points="117.09 1183.51 117.09 1249.97 20.28 1195.15 20.28 1127.4 117.09 1183.51"/><polygon class="cls-95" points="14.63 1038.29 164.11 1125.96 321.39 1033.42 171.59 946.22 14.63 1038.29"/><polygon class="cls-96" points="230.73 1087.39 230.73 1131.18 266.3 1110.85 266.3 1065.76 230.73 1087.39"/><polygon class="cls-97" points="81.43 999.73 230.91 1087.39 266.3 1065.76 116.49 978.55 81.43 999.73"/><polygon class="cls-98" points="193.85 1185.2 181.38 1223.84 189.47 1219.17 189.47 1265.23 198.24 1260.16 198.24 1214.1 206.33 1209.43 193.85 1185.2"/><polygon class="cls-99" points="236.66 1191.92 224.18 1167.7 211.7 1206.33 219.79 1201.66 219.79 1247.72 228.56 1242.66 228.56 1196.6 236.66 1191.92"/><g class="cls-89"><polygon class="cls-100" points="30.68 1194.51 25.85 1191.71 25.85 1140.54 30.68 1143.33 30.68 1194.51"/><polygon class="cls-100" points="38.71 1190.51 33.88 1187.72 33.88 1145.18 38.71 1147.97 38.71 1190.51"/><polygon class="cls-100" points="51.04 1197.63 46.21 1194.84 46.21 1152.29 51.04 1155.09 51.04 1197.63"/><polygon class="cls-100" points="43.58 1193.32 41.37 1192.05 41.37 1149.5 43.58 1150.78 43.58 1193.32"/><polygon class="cls-100" points="58 1201.64 53.16 1198.85 53.16 1156.31 58 1159.1 58 1201.64"/><polygon class="cls-100" points="61.55 1203.7 59.94 1202.77 59.94 1160.22 61.55 1161.15 61.55 1203.7"/><polygon class="cls-100" points="89.13 1219.62 87.52 1218.69 87.52 1176.15 89.13 1177.08 89.13 1219.62"/><polygon class="cls-100" points="76.21 1212.16 72.44 1209.99 72.44 1167.44 76.21 1169.62 76.21 1212.16"/><polygon class="cls-100" points="69.4 1208.23 64.56 1205.44 64.56 1162.89 69.4 1165.68 69.4 1208.23"/><polygon class="cls-100" points="85.31 1217.41 79.4 1214 79.4 1171.46 85.31 1174.87 85.31 1217.41"/><polygon class="cls-100" points="95.49 1223.29 91.73 1221.12 91.73 1178.58 95.49 1180.75 95.49 1223.29"/><polygon class="cls-100" points="103.52 1227.93 98.68 1225.14 98.68 1182.59 103.52 1185.38 103.52 1227.93"/><polygon class="cls-100" points="110.47 1240.58 106.71 1238.4 106.71 1187.23 110.47 1189.4 110.47 1240.58"/></g><polygon class="cls-101" points="171.57 973.17 171.57 1074.54 73.8 1017.89 73.8 915.72 171.57 973.17"/><polygon class="cls-102" points="171.45 973.17 171.45 1074.54 264.26 1020.92 264.26 918.74 171.45 973.17"/><polygon class="cls-103" points="264.26 918.74 171.45 973.17 73.8 915.72 166.81 861.58 264.26 918.74"/><polygon class="cls-104" points="130.09 949.23 130.09 976.42 108 963.79 108 935.79 130.09 949.23"/><polygon class="cls-105" points="222.78 894.8 129.97 949.23 108 935.79 201.01 881.65 222.78 894.8"/><polygon class="cls-106" points="152.98 1009.96 160.73 1033.94 155.71 1031.04 155.71 1059.64 150.26 1056.5 150.26 1027.9 145.24 1025 152.98 1009.96"/><polygon class="cls-107" points="126.41 1014.13 134.16 999.09 141.9 1023.08 136.88 1020.17 136.88 1048.77 131.43 1045.63 131.43 1017.03 126.41 1014.13"/><path class="cls-108" d="M2017.77,1609.93l2.07,32.16a6.4,6.4,0,0,0,9.74,5.05l20.36-12.49a6.39,6.39,0,0,0,3-6.28l-4.13-32a6.4,6.4,0,0,0-9.93-4.49l-18.31,12.35A6.41,6.41,0,0,0,2017.77,1609.93Z" transform="translate(-904.37 -295.67)"/><path class="cls-109" d="M2023.34,1646.59l-2.08-32.16a6.38,6.38,0,0,1,2.81-5.72l18.3-12.36a6.37,6.37,0,0,1,6.32-.47,6.38,6.38,0,0,0-9.81-4l-18.31,12.35a6.41,6.41,0,0,0-2.8,5.72l2.07,32.16a6.33,6.33,0,0,0,3.67,5.36A6.23,6.23,0,0,1,2023.34,1646.59Z" transform="translate(-904.37 -295.67)"/><path class="cls-26" d="M1139.19,1600.45,1732,1942.82a252.5,252.5,0,0,0,251.34-.61l106.59-61.51a16.23,16.23,0,0,0,0-28.1l-707.28-412.69a16.24,16.24,0,0,0-16.3,0l-227.29,132.4A16.23,16.23,0,0,0,1139.19,1600.45Z" transform="translate(-904.37 -295.67)"/><polygon class="cls-110" points="800.91 1565.04 884.55 1516.44 797.03 1500.52 800.91 1565.04"/><polygon class="cls-110" points="328.08 1298.26 411.71 1249.66 324.2 1233.75 328.08 1298.26"/><path class="cls-111" d="M1365.91,1632.07c0,15.61-5.38,26.67-14.14,32l-27.94,16.17c-9.11,5.1-3.28-6.46-17.12-14.45-27.85-16.08-50.42-55-50.42-87,0-15.8-14.61-15.93-5.66-21.2.24-.15,29.4-16.29,29.66-16.43,9.08-4.92,21.5-4,35.2,3.9C1343.34,1561.17,1365.91,1600.12,1365.91,1632.07Z" transform="translate(-904.37 -295.67)"/><ellipse class="cls-112" cx="1286.28" cy="1619.54" rx="41.04" ry="71.09" transform="translate(-1545.9 574.89) rotate(-30.31)"/><path class="cls-113" d="M1288.7,1560.46c-13.35-7.71-25.48-8.74-34.5-4.23,8.41-2.36,18.85-.6,30.15,5.93,27.85,16.07,50.42,55,50.42,87,0,16.64-6.12,28.09-15.92,33,12.31-3.44,20.28-15.69,20.28-34.68C1339.13,1615.48,1316.55,1576.54,1288.7,1560.46Z" transform="translate(-904.37 -295.67)"/><path class="cls-114" d="M1288,1575.8c-21.45-12.38-38.84-2.47-38.84,22.14s17.39,54.6,38.84,67,38.83,2.47,38.83-22.14S1309.41,1588.19,1288,1575.8Zm14.83,49.07,12-1c1.8-.15,4.13,2.25,4.68,4.88a51.41,51.41,0,0,1,1.15,10.53,34.63,34.63,0,0,1-1.15,9.21c-.55,2-2.88,1.7-4.68-.53l-12-14.94a6.88,6.88,0,0,1-1.63-4.28c0-.24,0-.47,0-.72s0-.48,0-.73C1301.1,1625.86,1301.75,1625,1302.79,1624.87Zm7.68-12.19-12,1a4.24,4.24,0,0,1-3.33-2c-.34-.46-.7-.9-1.07-1.33a7.09,7.09,0,0,1-1.72-4.34v-15.91c0-2.42,2-3,4-1.23a73.68,73.68,0,0,1,14.83,18.41C1312.64,1609.89,1312.28,1612.53,1310.47,1612.68Zm-26.86-27.55v15.92c0,1.39-.65,2.33-1.72,2.34a7.6,7.6,0,0,0-1.08.1c-1,.16-2.29-.59-3.33-1.87l-12-14.94c-1.81-2.24-2.17-5.29-.7-6.15,4-2.33,9.13-2.85,14.83-1.28C1281.61,1579.8,1283.61,1582.71,1283.61,1585.13Zm-22.53,7.68,12.05,14.93a6.94,6.94,0,0,1,1.63,4.28c0,.24,0,.47,0,.72s0,.48,0,.73c.06,1.4-.6,2.31-1.63,2.39l-12.05,1c-1.81.15-4.14-2.25-4.69-4.88a52.09,52.09,0,0,1-1.14-10.53,35.06,35.06,0,0,1,1.14-9.21C1256.94,1590.28,1259.27,1590.57,1261.08,1592.81Zm4.36,35.24,12-1a4.21,4.21,0,0,1,3.33,2c.35.46.71.9,1.08,1.33a7.17,7.17,0,0,1,1.72,4.34v15.92c0,2.41-2,3-4,1.22a73.9,73.9,0,0,1-14.83-18.41C1263.27,1630.84,1263.63,1628.2,1265.44,1628.05Zm26.87,27.55v-15.92c0-1.39.64-2.32,1.72-2.34a7.33,7.33,0,0,0,1.07-.1c1-.16,2.3.59,3.33,1.88l12,14.93c1.81,2.24,2.17,5.3.7,6.15-4,2.33-9.12,2.85-14.83,1.29C1294.31,1660.93,1292.31,1658,1292.31,1655.6Z" transform="translate(-904.37 -295.67)"/><path class="cls-115" d="M1285.54,1576.77c-21.45-12.38-38.84-2.47-38.84,22.14s17.39,54.6,38.84,67,38.83,2.47,38.83-22.14S1307,1589.15,1285.54,1576.77Zm14.83,49.06,12.05-1c1.8-.15,4.13,2.25,4.68,4.88a51.41,51.41,0,0,1,1.15,10.53,34.69,34.69,0,0,1-1.15,9.21c-.55,2-2.88,1.7-4.68-.54L1300.37,1634a6.88,6.88,0,0,1-1.63-4.28c0-.24,0-.48,0-.72s0-.48,0-.73C1298.68,1626.83,1299.33,1625.92,1300.37,1625.83Zm7.68-12.18-12,1a4.27,4.27,0,0,1-3.33-2c-.34-.46-.7-.91-1.07-1.34a7.06,7.06,0,0,1-1.72-4.33v-15.92c0-2.42,2-3,4-1.22a73.68,73.68,0,0,1,14.83,18.41C1310.22,1610.86,1309.86,1613.5,1308.05,1613.65Zm-26.86-27.55V1602c0,1.39-.65,2.32-1.72,2.34a7.6,7.6,0,0,0-1.08.1c-1,.16-2.29-.6-3.32-1.88l-12-14.93c-1.8-2.24-2.17-5.3-.7-6.15,4-2.34,9.13-2.85,14.83-1.29C1279.19,1580.77,1281.19,1583.68,1281.19,1586.1Zm-22.53,7.67,12,14.94a6.9,6.9,0,0,1,1.63,4.28c0,.23,0,.47,0,.71s0,.49,0,.74c.06,1.4-.6,2.3-1.63,2.39l-12,1c-1.8.15-4.14-2.26-4.68-4.88a51.56,51.56,0,0,1-1.15-10.53,34.58,34.58,0,0,1,1.15-9.21C1254.52,1591.25,1256.86,1591.53,1258.66,1593.77ZM1263,1629l12-1a4.21,4.21,0,0,1,3.32,2c.35.46.71.9,1.08,1.33a7.12,7.12,0,0,1,1.72,4.33v15.92c0,2.42-2,3-4,1.23a73.9,73.9,0,0,1-14.83-18.41C1260.85,1631.81,1261.22,1629.17,1263,1629Zm26.87,27.55v-15.92c0-1.39.64-2.33,1.72-2.35a6.18,6.18,0,0,0,1.07-.09c1-.16,2.3.59,3.33,1.87l12,14.93c1.81,2.25,2.17,5.3.7,6.16-4,2.33-9.12,2.85-14.83,1.28C1291.89,1661.89,1289.89,1659,1289.89,1656.57Z" transform="translate(-904.37 -295.67)"/><path class="cls-116" d="M1844.31,1906.35c0,15.61-5.39,26.67-14.14,32l-27.94,16.17c-9.11,5.1-3.28-6.46-17.12-14.45-27.85-16.08-50.43-55-50.43-87,0-15.8-14.61-15.93-5.66-21.2.25-.15,29.41-16.29,29.66-16.42,9.09-4.93,21.51-4,35.21,3.89C1821.73,1835.46,1844.31,1874.4,1844.31,1906.35Z" transform="translate(-904.37 -295.67)"/><path class="cls-117" d="M1815.11,1922.93c0,32-22.58,44.83-50.43,28.75s-50.42-55-50.42-87,22.57-44.83,50.42-28.75S1815.11,1891,1815.11,1922.93Z" transform="translate(-904.37 -295.67)"/><path class="cls-118" d="M1767.1,1834.74c-13.35-7.7-25.48-8.74-34.5-4.23,8.41-2.35,18.84-.6,30.15,5.93,27.85,16.08,50.42,55,50.42,87,0,16.64-6.13,28.09-15.92,33,12.31-3.44,20.28-15.69,20.28-34.68C1817.53,1889.76,1795,1850.82,1767.1,1834.74Z" transform="translate(-904.37 -295.67)"/><path class="cls-119" d="M1766.36,1850.09c-21.45-12.39-38.84-2.47-38.84,22.14s17.39,54.6,38.84,67,38.83,2.47,38.83-22.14S1787.8,1862.47,1766.36,1850.09Zm14.83,49.06,12-1c1.81-.15,4.14,2.26,4.69,4.88a51.56,51.56,0,0,1,1.15,10.53,34.58,34.58,0,0,1-1.15,9.21c-.55,2-2.88,1.71-4.69-.53l-12-14.94a6.91,6.91,0,0,1-1.64-4.28c0-.23,0-.47,0-.72s0-.48,0-.73C1779.5,1900.14,1780.15,1899.24,1781.19,1899.15Zm7.68-12.19-12,1a4.23,4.23,0,0,1-3.33-2c-.35-.46-.7-.9-1.07-1.33a7.06,7.06,0,0,1-1.72-4.33v-15.92c0-2.42,2-3,4-1.23a73.68,73.68,0,0,1,14.83,18.41C1791,1884.17,1790.68,1886.81,1788.87,1887ZM1762,1859.41v15.92c0,1.39-.65,2.33-1.73,2.35a6.35,6.35,0,0,0-1.07.09c-1,.16-2.29-.59-3.33-1.87l-12-14.93c-1.81-2.25-2.17-5.3-.7-6.15,4-2.34,9.13-2.86,14.83-1.29C1760,1854.08,1762,1857,1762,1859.41Zm-22.53,7.68,12,14.93a6.94,6.94,0,0,1,1.63,4.28c0,.24,0,.48,0,.72s0,.48,0,.73c.06,1.4-.6,2.31-1.63,2.39l-12,1c-1.81.15-4.14-2.25-4.69-4.88a52.09,52.09,0,0,1-1.14-10.53,35.06,35.06,0,0,1,1.14-9.21C1735.34,1864.56,1737.67,1864.85,1739.48,1867.09Zm4.36,35.24,12-1a4.24,4.24,0,0,1,3.33,2c.35.46.71.9,1.07,1.34a7.08,7.08,0,0,1,1.73,4.33v15.92c0,2.41-2,3-4,1.22a73.9,73.9,0,0,1-14.83-18.41C1741.67,1905.12,1742,1902.48,1743.84,1902.33Zm26.87,27.55V1914c0-1.39.64-2.32,1.72-2.34a7.46,7.46,0,0,0,1.07-.1c1-.16,2.29.59,3.33,1.88l12,14.93c1.81,2.24,2.17,5.3.7,6.15-4,2.34-9.12,2.85-14.83,1.29C1772.7,1935.21,1770.71,1932.3,1770.71,1929.88Z" transform="translate(-904.37 -295.67)"/><path class="cls-120" d="M1763.94,1851.05c-21.45-12.38-38.84-2.47-38.84,22.14s17.39,54.6,38.84,67,38.83,2.47,38.83-22.14S1785.38,1863.44,1763.94,1851.05Zm14.83,49.07,12-1c1.81-.15,4.14,2.25,4.69,4.88a51.41,51.41,0,0,1,1.15,10.53,34.63,34.63,0,0,1-1.15,9.21c-.55,2-2.88,1.7-4.69-.54l-12-14.93a7,7,0,0,1-1.64-4.28c0-.24,0-.47,0-.72s0-.48,0-.73C1777.08,1901.11,1777.73,1900.2,1778.77,1900.12Zm7.68-12.19-12,1a4.23,4.23,0,0,1-3.33-2c-.35-.46-.7-.9-1.07-1.34a7.06,7.06,0,0,1-1.72-4.33V1865.4c0-2.41,2-3,4-1.22a73.68,73.68,0,0,1,14.83,18.41C1788.62,1885.14,1788.26,1887.78,1786.45,1887.93Zm-26.87-27.55v15.92c0,1.39-.64,2.32-1.72,2.34a7.6,7.6,0,0,0-1.07.1c-1,.16-2.29-.59-3.33-1.88l-12-14.93c-1.81-2.24-2.17-5.3-.7-6.15,4-2.33,9.13-2.85,14.83-1.29C1757.59,1855.05,1759.58,1858,1759.58,1860.38Zm-22.52,7.67,12,14.94a6.94,6.94,0,0,1,1.63,4.28c0,.24,0,.47,0,.72s0,.48,0,.73c.06,1.4-.6,2.3-1.63,2.39l-12,1c-1.81.15-4.14-2.25-4.69-4.88a52.09,52.09,0,0,1-1.14-10.53,35.06,35.06,0,0,1,1.14-9.21C1732.92,1865.53,1735.25,1865.82,1737.06,1868.05Zm4.36,35.25,12-1a4.21,4.21,0,0,1,3.33,2c.35.46.71.9,1.07,1.33a7.06,7.06,0,0,1,1.72,4.33v15.92c0,2.42-2,3-4,1.23a73.9,73.9,0,0,1-14.83-18.41C1739.25,1906.09,1739.61,1903.45,1741.42,1903.3Zm26.87,27.55v-15.92c0-1.39.64-2.33,1.72-2.34a7.46,7.46,0,0,0,1.07-.1c1-.16,2.3.59,3.33,1.87l12,14.94c1.81,2.24,2.17,5.3.7,6.15-4,2.33-9.12,2.85-14.83,1.28C1770.28,1936.18,1768.29,1933.27,1768.29,1930.85Z" transform="translate(-904.37 -295.67)"/><path class="cls-121" d="M2092,1744.68l-194.39-300.59a32.65,32.65,0,0,0-11.08-10.5l-518.32-298.42a32.64,32.64,0,0,0-32-.35l-146.17,80a32.7,32.7,0,0,0-14.7,16.7l-44.65,95.09a32.58,32.58,0,0,0-2.25,11.3l-3.37,175.29a32.63,32.63,0,0,0,16.54,29l91.45,51.83a87.06,87.06,0,0,1-1.32-14.64c0-36.16,25.55-50.73,57.07-32.53s57.06,62.26,57.06,98.42a64,64,0,0,1-1.08,12.06l360.44,203.32c-.22-2.46-.35-4.91-.35-7.31,0-36.17,25.55-50.73,57.06-32.54s57.07,62.27,57.07,98.43c0,2-.09,3.9-.24,5.76l21.35,12.1a32.65,32.65,0,0,0,30.55.87l208.37-102.94a32.64,32.64,0,0,0,18.18-29.26v-43.34A32.68,32.68,0,0,0,2092,1744.68Z" transform="translate(-904.37 -295.67)"/><path class="cls-122" d="M1856.22,1848.35l-28.46-87.14-117.58-222.89a50.44,50.44,0,0,0-20.36-21.75l-509.69-293.25a32.47,32.47,0,0,0-4.74,8.22l-44.65,95.09a32.58,32.58,0,0,0-2.25,11.3l-3.37,175.29a32.63,32.63,0,0,0,16.54,29l91.45,51.83a87.06,87.06,0,0,1-1.32-14.64c0-36.16,25.55-50.73,57.07-32.53s57.06,62.26,57.06,98.42a64,64,0,0,1-1.08,12.06l360.44,203.32c-.22-2.46-.35-4.91-.35-7.31,0-36.17,25.55-50.73,57.06-32.54s57.07,62.27,57.07,98.43c0,2-.09,3.9-.24,5.76l21.35,12.1a32.63,32.63,0,0,0,21.8,3.69v-68.15A54.38,54.38,0,0,0,1856.22,1848.35Z" transform="translate(-904.37 -295.67)"/><path class="cls-123" d="M1862.73,1847.63l-28.46-87.14-117.58-222.9a50.55,50.55,0,0,0-20.36-21.75L1186.64,1222.6c-1.74,2.21,1.09,3.66,0,6.27l504.61,290.32a50.58,50.58,0,0,1,20.37,21.75l117.57,222.9,28.47,87.14a54.46,54.46,0,0,1,5.74,24.32v64.1c3.13.35,2,1.26,5.11.71V1872A54.33,54.33,0,0,0,1862.73,1847.63Z" transform="translate(-904.37 -295.67)"/><path class="cls-124" d="M1788.36,1622.48l49.67-18a353.42,353.42,0,0,0,90.62-48.8l13.15-9.79a12.62,12.62,0,0,1,18,3.14l68.42,103a12.61,12.61,0,0,1-3.48,17.46l-34.88,23.38a395.33,395.33,0,0,1-86.78,43.78l-54.65,19.59a12.62,12.62,0,0,1-15.68-6.53l-51.56-110A12.62,12.62,0,0,1,1788.36,1622.48Z" transform="translate(-904.37 -295.67)"/><path class="cls-125" d="M1795.42,1625.11l47.33-17.15a336.7,336.7,0,0,0,86.34-46.49l12.53-9.33a12,12,0,0,1,17.19,3l65.2,98.16a12,12,0,0,1-3.32,16.63l-33.24,22.28a376.76,376.76,0,0,1-82.68,41.71l-52.07,18.66a12,12,0,0,1-14.94-6.21l-49.12-104.85A12,12,0,0,1,1795.42,1625.11Z" transform="translate(-904.37 -295.67)"/><path class="cls-124" d="M1679.13,1594.05l2.89,96.7a7,7,0,0,0,3.53,5.87l116.17,66.52v-16.39l-59.31-130.19-52.92-28.87A7,7,0,0,0,1679.13,1594.05Z" transform="translate(-904.37 -295.67)"/><polygon class="cls-126" points="780.94 1295.82 783.87 1393.8 868.3 1442.66 866.01 1394.18 836.21 1325.97 780.94 1295.82"/><path class="cls-127" d="M1813.55,1884.67l42.5,22.77a61.44,61.44,0,0,0,49.45,1.66l32.33-12.95c50.37-20.16,97-51.5,140.92-80l20.45-16.39,6.53.45-.95,43.38-6.52,6.43a599.56,599.56,0,0,1-192.85,102.43h0a61.48,61.48,0,0,1-48-4.72l-41-24Z" transform="translate(-904.37 -295.67)"/><path class="cls-128" d="M1852.93,1864.54h0a38.49,38.49,0,0,0,36.51,2h0a18.09,18.09,0,0,1,25,11.21l5.73,19.31-29.69,11.73a38.54,38.54,0,0,1-30.65-1l-8.28-3.93Z" transform="translate(-904.37 -295.67)"/><path class="cls-129" d="M1852.93,1864.54h0a38.49,38.49,0,0,0,36.51,2h0a18.09,18.09,0,0,1,25,11.21l5.73,19.31-34.35-1.6C1852.25,1888.45,1852.93,1864.54,1852.93,1864.54Z" transform="translate(-904.37 -295.67)"/><path class="cls-130" d="M2077.36,1787l-2.63,28.17s24.11-14.95,25.55-20.74-1-41.27-1-41.27l-7,8.43h0A34.58,34.58,0,0,0,2077.36,1787Z" transform="translate(-904.37 -295.67)"/><path class="cls-131" d="M2077.36,1787l-2.63,28.17s15.43-26.16,16.87-31.95,7.73-30.06,7.73-30.06l-7,8.43h0A34.58,34.58,0,0,0,2077.36,1787Z" transform="translate(-904.37 -295.67)"/><path class="cls-124" d="M2028.26,1652.05l-6.87-10.35a14.11,14.11,0,0,1-6.1,9.85l-39.22,26.29a445,445,0,0,1-97.57,49.23l-48.23,17.28,2.52,5.38a12.62,12.62,0,0,0,15.68,6.53l54.65-19.59a395.33,395.33,0,0,0,86.78-43.78l34.88-23.38A12.61,12.61,0,0,0,2028.26,1652.05Z" transform="translate(-904.37 -295.67)"/><path class="cls-132" d="M2010.94,1633.62l-52.13-78.49a12,12,0,0,0-17.19-3l-12.53,9.33a336.7,336.7,0,0,1-86.34,46.49l-47.33,17.15a12,12,0,0,0-7.31,14.87c29.09,7.78,63.82,12.31,101.15,12.31C1935.84,1652.29,1978.37,1645.24,2010.94,1633.62Z" transform="translate(-904.37 -295.67)"/><polygon class="cls-133" points="817.31 1223.57 968.47 1137.5 450.61 841.69 299.45 926.31 817.31 1223.57"/><path class="cls-134" d="M1787.86,1753.38c8.07,4.94-41.39,26.87-60.78,30.88s-3,8.86-3.59,5.64C1720.72,1774.71,1760.68,1736.74,1787.86,1753.38Z" transform="translate(-904.37 -295.67)"/><path class="cls-135" d="M1729.75,1726.56l3.24,38.35a8.59,8.59,0,0,0,12,7.16l41.69-12.57a8.6,8.6,0,0,0,5.07-9.12l-13.74-35.9a8.59,8.59,0,0,0-11.15-6.93l-31.19,10.11A8.61,8.61,0,0,0,1729.75,1726.56Z" transform="translate(-904.37 -295.67)"/><path class="cls-136" d="M1741.06,1769.56l-3.23-38.36a8.59,8.59,0,0,1,5.91-8.9l31.18-10.11a8.76,8.76,0,0,1,2.17-.38,8.55,8.55,0,0,0-10.24-4.26l-31.19,10.11a8.61,8.61,0,0,0-5.91,8.9l3.24,38.35a8.56,8.56,0,0,0,9,7.81A8.51,8.51,0,0,1,1741.06,1769.56Z" transform="translate(-904.37 -295.67)"/><path class="cls-137" d="M1724.44,1815.37l-395.82-226.95c10.66,18,17.3,38.49,17.3,56.9a64,64,0,0,1-1.08,12.06l360.44,203.32c-.22-2.46-.35-4.91-.35-7.31C1704.93,1833.73,1712.49,1820.47,1724.44,1815.37Z" transform="translate(-904.37 -295.67)"/><path class="cls-138" d="M1231.79,1579.43c0-18.31,6.56-31.08,17.13-36.86l-123-70.76-.79,41.41a32.63,32.63,0,0,0,16.54,29l91.45,51.83A87.06,87.06,0,0,1,1231.79,1579.43Z" transform="translate(-904.37 -295.67)"/><path class="cls-139" d="M1814.63,1889l42.5,22.77a61.47,61.47,0,0,0,49.46,1.66l32.32-13a600.7,600.7,0,0,0,140.93-80l26-21v39a19.69,19.69,0,0,1-7.4,15.38l-3.45,2.76c-60.91,40.15-117.33,73.59-188.53,100.19h0a61.46,61.46,0,0,1-48-4.72l-41-24Z" transform="translate(-904.37 -295.67)"/><path class="cls-140" d="M1909.12,1878.63l-10.28,21.75s-31.32-19.36-28.21-26.05S1909.12,1878.63,1909.12,1878.63Z" transform="translate(-904.37 -295.67)"/><path class="cls-141" d="M1895.49,1894.07c0,5.48,3.87,7.69,8.65,4.93s8.66-9.44,8.66-14.93-3.88-7.69-8.66-4.93S1895.49,1888.58,1895.49,1894.07Z" transform="translate(-904.37 -295.67)"/><path class="cls-142" d="M1887.81,1883l-8.17,17.3s-24.91-15.4-22.44-20.72S1887.81,1883,1887.81,1883Z" transform="translate(-904.37 -295.67)"/><path class="cls-143" d="M1877,1895.24c0,4.37,3.09,6.12,6.89,3.93a15.17,15.17,0,0,0,6.88-11.87c0-4.36-3.08-6.12-6.88-3.92A15.15,15.15,0,0,0,1877,1895.24Z" transform="translate(-904.37 -295.67)"/><path class="cls-144" d="M2094.62,1783.34l-7,14.86s-12-9.11-9.85-13.68S2094.62,1783.34,2094.62,1783.34Z" transform="translate(-904.37 -295.67)"/><path class="cls-145" d="M2085.32,1793.89c0,3.74,2.64,5.25,5.91,3.37a13,13,0,0,0,5.91-10.2c0-3.74-2.65-5.25-5.91-3.37A13,13,0,0,0,2085.32,1793.89Z" transform="translate(-904.37 -295.67)"/><path class="cls-146" d="M2097.47,1771.08l-5.12,10.85s-8.74-6.65-7.19-10S2097.47,1771.08,2097.47,1771.08Z" transform="translate(-904.37 -295.67)"/><path class="cls-147" d="M2090.68,1778.78c0,2.73,1.93,3.83,4.31,2.46a9.5,9.5,0,0,0,4.32-7.44c0-2.74-1.93-3.84-4.32-2.46A9.5,9.5,0,0,0,2090.68,1778.78Z" transform="translate(-904.37 -295.67)"/><path class="cls-148" d="M1873,1870.13a38.37,38.37,0,0,1-20.09-5.59l-1.33,39.3,8.28,3.93a38.42,38.42,0,0,0,17.06,3.65Z" transform="translate(-904.37 -295.67)"/><path class="cls-149" d="M1924.24,1859.56l4.18,11.15a16.15,16.15,0,0,0,22.3,8.81c15.42-7.63,39.25-19.8,59.15-31.62,22.18-13.16,40.42-25.07,49.73-31.28a16.13,16.13,0,0,0,7.15-12.5l1.18-20.49a4.54,4.54,0,0,0-7-4.06c-13,8.63-40.36,26.52-63.66,39.77-26,14.77-59.26,29.55-70.55,34.46A4.53,4.53,0,0,0,1924.24,1859.56Z" transform="translate(-904.37 -295.67)"/><path class="cls-150" d="M2063.8,1778.86a4.39,4.39,0,0,1,.51,2.36l-1.18,20.49a16.15,16.15,0,0,1-7.14,12.5c-9.31,6.21-27.55,18.12-49.73,31.28-19.91,11.82-43.74,24-59.16,31.62a16.11,16.11,0,0,1-14.22,0,16.14,16.14,0,0,0,17.84,2.37c15.42-7.63,39.25-19.8,59.15-31.62,22.18-13.16,40.42-25.07,49.73-31.28a16.13,16.13,0,0,0,7.15-12.5l1.18-20.49A4.52,4.52,0,0,0,2063.8,1778.86Z" transform="translate(-904.37 -295.67)"/><path class="cls-151" d="M2040.32,1676.45s39.56,57.93,36.67,70.46-64.59,51.21-97.37,66.16-92.57,42.13-106.56,32.48-26-79.52-26-79.52,57-14.88,113.89-40.92S2040.32,1676.45,2040.32,1676.45Z" transform="translate(-904.37 -295.67)"/><path class="cls-124" d="M2023.43,1690.75l-.36-.53a4.49,4.49,0,0,0-6.86-.6,9.19,9.19,0,0,1-1,.81l-24.94,16.72a282.91,282.91,0,0,1-62,31.3l-27.11,9.71a3.44,3.44,0,0,0-1.95,4.7h0a8,8,0,0,0,10,4.15l34.75-12.45a252,252,0,0,0,55.17-27.84l22.18-14.87A8,8,0,0,0,2023.43,1690.75Z" transform="translate(-904.37 -295.67)"/><polygon class="cls-152" points="224.51 1098.32 888.47 1472.97 908.69 1523.38 224.03 1138.82 224.51 1098.32"/><path class="cls-153" d="M1121.83,1475.47l23.35,12.21v58.91h0a40.93,40.93,0,0,1-24.22-38.46Z" transform="translate(-904.37 -295.67)"/><polygon class="cls-88" points="796.46 1523.79 444.62 1321.93 446.79 1318.17 798.63 1520.03 796.46 1523.79"/><polygon class="cls-154" points="828.31 1290.25 261.27 964.06 259.1 967.82 629.77 1181.05 629.77 1421.6 634.11 1421.6 634.11 1183.55 761.41 1256.77 761.41 1498.26 765.75 1498.26 765.75 1259.27 826.14 1294.01 828.31 1290.25"/><path class="cls-155" d="M1709.15,1737.8c0,7.25-5.12,10.17-11.44,6.53s-11.44-12.49-11.44-19.74,5.12-10.16,11.44-6.52S1709.15,1730.55,1709.15,1737.8Z" transform="translate(-904.37 -295.67)"/><path class="cls-156" d="M1709,1737.3c2.49,5.06-2,5.87-10.13,1.81s-16.67-11.45-19.17-16.51,2-5.86,10.13-1.8S1706.48,1732.25,1709,1737.3Z" transform="translate(-904.37 -295.67)"/><path class="cls-157" d="M1652.73,1707.39c0,7.25-5.12,10.17-11.44,6.52s-11.44-12.48-11.44-19.73,5.12-10.17,11.44-6.52S1652.73,1700.14,1652.73,1707.39Z" transform="translate(-904.37 -295.67)"/><path class="cls-158" d="M1652.56,1706.89c2.49,5-2,5.86-10.13,1.8s-16.67-11.45-19.17-16.5,2-5.87,10.13-1.81S1650.06,1701.83,1652.56,1706.89Z" transform="translate(-904.37 -295.67)"/><path class="cls-88" d="M1648.18,1675h0a10.22,10.22,0,0,1-4.87-1.24L1562,1630a22.68,22.68,0,0,1-12-20v-82.37a10.3,10.3,0,0,1,15.52-8.92l81.7,47.66a22.79,22.79,0,0,1,11.27,19.61v78.61a10.22,10.22,0,0,1-3.14,7.42A10.49,10.49,0,0,1,1648.18,1675Zm-87.83-153.29a6,6,0,0,0-6,6V1610a18.33,18.33,0,0,0,9.68,16.18l81.32,43.68a6.07,6.07,0,0,0,7-1,5.91,5.91,0,0,0,1.81-4.3V1586a18.43,18.43,0,0,0-9.11-15.86l-81.71-47.66A5.88,5.88,0,0,0,1560.35,1521.66Z" transform="translate(-904.37 -295.67)"/><path class="cls-159" d="M1649.15,1678.33h0a10.23,10.23,0,0,1-4.88-1.24L1563,1633.42a22.7,22.7,0,0,1-12-20V1531a10.3,10.3,0,0,1,15.52-8.91l81.71,47.66a22.77,22.77,0,0,1,11.26,19.61V1668a10.2,10.2,0,0,1-3.14,7.42A10.45,10.45,0,0,1,1649.15,1678.33ZM1561.32,1525a6,6,0,0,0-6,6v82.38a18.35,18.35,0,0,0,9.68,16.18l81.32,43.67a6.06,6.06,0,0,0,7-1,5.89,5.89,0,0,0,1.81-4.29v-78.61a18.43,18.43,0,0,0-9.11-15.87l-81.7-47.66A6,6,0,0,0,1561.32,1525Z" transform="translate(-904.37 -295.67)"/><path class="cls-160" d="M1214.33,1368.54q0,14.85-7.36,18.49t-21.26-4.39l-14.83-8.56V1314l16.44,9.49a54.33,54.33,0,0,1,19.92,19.27A49.36,49.36,0,0,1,1214.33,1368.54Zm-11.53-6.33q0-19.37-14.9-28l-5.92-3.41V1370l4.77,2.75Q1202.8,1382,1202.8,1362.21Z" transform="translate(-904.37 -295.67)"/><path class="cls-161" d="M1255.36,1422.85l-30.17-17.41v-60.11l30.17,17.42v10.44l-19.06-11v13.19l17.73,10.24v10.44l-17.73-10.23v15.49l19.06,11Z" transform="translate(-904.37 -295.67)"/><path class="cls-162" d="M1266.28,1429.16v-60.1l11.11,6.41v49.58l21.24,12.27v10.52Z" transform="translate(-904.37 -295.67)"/><path class="cls-163" d="M1307.73,1453.09V1393l11.11,6.41v60.11Z" transform="translate(-904.37 -295.67)"/><path class="cls-164" d="M1361.9,1424.26l11.22,6.48-17.81,49.82-12.11-7-17.77-70.36,11.21,6.47,9.86,41.46c.55,2.42,1.11,5.21,1.7,8.36s1,5.31,1.09,6.49a83.15,83.15,0,0,1,2.69-11.69Z" transform="translate(-904.37 -295.67)"/><path class="cls-165" d="M1409.87,1512.06l-30.16-17.41v-60.11l30.16,17.42v10.44l-19.06-11v13.19l17.74,10.24v10.45L1390.81,1475v15.5l19.06,11Z" transform="translate(-904.37 -295.67)"/><path class="cls-166" d="M1431.91,1501.72v23.07l-11.11-6.42v-60.1l15.26,8.81q10.68,6.17,15.8,13.58a28.39,28.39,0,0,1,5.13,16.51c0,3.53-.85,6.19-2.55,8s-4.1,2.55-7.2,2.32q11.82,27.09,15.41,35.08l-12.33-7.11-12.5-30.28Zm0-10.36,3.58,2.07q5.27,3,7.77,2.47c1.68-.37,2.51-2,2.51-4.88a11.94,11.94,0,0,0-2.56-7.56,27.18,27.18,0,0,0-7.94-6.39l-3.36-2Z" transform="translate(-904.37 -295.67)"/><path class="cls-167" d="M1485.54,1520.39l10.92-18.44,12,6.91-17.37,26.68v23.39l-11-6.37v-23l-17.37-47.15,12,7Z" transform="translate(-904.37 -295.67)"/><polygon class="cls-168" points="265.46 1094.34 265.46 1105.92 287.39 1118.93 287.39 1107.12 265.46 1094.34"/><polygon class="cls-169" points="299.05 1113.34 299.05 1124.91 320.99 1137.93 320.99 1126.11 299.05 1113.34"/><polygon class="cls-170" points="332.64 1132.33 332.64 1143.9 354.58 1156.92 354.58 1145.11 332.64 1132.33"/><polygon class="cls-171" points="366.23 1151.32 366.23 1162.89 388.17 1175.91 388.17 1164.1 366.23 1151.32"/><polygon class="cls-172" points="399.82 1170.31 399.82 1181.88 421.76 1194.9 421.76 1183.09 399.82 1170.31"/><polygon class="cls-173" points="433.42 1189.31 433.42 1200.88 455.35 1213.9 455.35 1202.08 433.42 1189.31"/><polygon class="cls-174" points="467.01 1208.3 467.01 1219.87 488.95 1232.89 488.95 1221.08 467.01 1208.3"/><polygon class="cls-175" points="500.6 1227.29 500.6 1238.86 522.54 1251.88 522.54 1240.07 500.6 1227.29"/><polygon class="cls-176" points="534.19 1246.28 534.19 1257.86 556.13 1270.87 556.13 1259.06 534.19 1246.28"/><polygon class="cls-177" points="567.78 1265.28 567.78 1276.85 589.72 1289.87 589.72 1278.05 567.78 1265.28"/></g></g></svg>