<svg width="334" height="219" viewBox="0 0 334 219" fill="none" xmlns="http://www.w3.org/2000/svg">
<path d="M284 146H282V162H284V146Z" fill="#26566C"/>
<path d="M176 195H150V215H176V195Z" fill="#26566C"/>
<path d="M3 191H20V175C19.9892 179.244 18.194 183.31 15.0077 186.309C11.8213 189.308 7.5035 190.995 3 191Z" fill="#26566C"/>
<path d="M25 174H19V205H25V174Z" fill="#26566C"/>
<path d="M306.72 185L330 194.485V212L289 202.906L306.72 185Z" fill="#FF636F"/>
<path d="M266 150H251V208H266V150Z" fill="#26566C"/>
<path d="M35 191H3V195H35V191Z" fill="#26566C"/>
<path d="M41.3389 167V172.906H33.7017V177.755H30V203H59V167H41.3389Z" fill="#26566C"/>
<path d="M57 177H30V203H57V177Z" fill="#26566C"/>
<path d="M33 181H31V184H33V181Z" fill="#26566C"/>
<path d="M37 181H35V184H37V181Z" fill="#26566C"/>
<path d="M43 181H41V184H43V181Z" fill="#26566C"/>
<path d="M47 181H45V184H47V181Z" fill="#26566C"/>
<path d="M33 187H31V190H33V187Z" fill="#26566C"/>
<path d="M37 187H35V190H37V187Z" fill="#26566C"/>
<path d="M43 187H41V190H43V187Z" fill="#26566C"/>
<path d="M47 187H45V190H47V187Z" fill="#26566C"/>
<path d="M33 193H31V196H33V193Z" fill="#26566C"/>
<path d="M37 193H35V196H37V193Z" fill="#26566C"/>
<path d="M43 193H41V196H43V193Z" fill="#26566C"/>
<path d="M47 193H45V196H47V193Z" fill="#26566C"/>
<path d="M234 139H201V202H234V139Z" fill="#26566C"/>
<path d="M235 139H220V207H235V139Z" fill="#26566C"/>
<path d="M225 212H251L232.846 121H225V212Z" fill="#26566C"/>
<path d="M254 121H233V212H254V121Z" fill="#26566C"/>
<path d="M233 191L254 170.721V165L233 185.279V191Z" fill="#26566C"/>
<path d="M233 182L254 161.713V156L233 176.287V182Z" fill="#26566C"/>
<path d="M233 172L254 152.501V147L233 166.499V172Z" fill="#26566C"/>
<path d="M233 210L254 189.721V184L233 204.279V210Z" fill="#26566C"/>
<path d="M233 200L254 180.501V175L233 194.499V200Z" fill="#26566C"/>
<path d="M241.005 212L254 199.005V193L235 212H241.005Z" fill="#26566C"/>
<path d="M233 144L254 123.47V121H250.592L233 138.208V144Z" fill="#26566C"/>
<path d="M233 163L254 142.721V137L233 157.279V163Z" fill="#26566C"/>
<path d="M245 212H254V203L245 212Z" fill="#26566C"/>
<path d="M237 121H233V125L237 121Z" fill="#26566C"/>
<path d="M233 135L247 121H241.004L233 129.014V135Z" fill="#26566C"/>
<path d="M233 154L254 133.721V128L233 148.279V154Z" fill="#26566C"/>
<path d="M137 157H129V206H137V157Z" fill="#26566C"/>
<path d="M62 154H49V204H62V154Z" fill="#26566C"/>
<path d="M63 154H47V157H63V154Z" fill="#26566C"/>
<path d="M62 159H49V161H62V159Z" fill="#26566C"/>
<path d="M62 164H49V165H62V164Z" fill="#26566C"/>
<path d="M62 168H49V170H62V168Z" fill="#26566C"/>
<path d="M62 172H49V174H62V172Z" fill="#26566C"/>
<path d="M62 176H49V178H62V176Z" fill="#26566C"/>
<path d="M62 181H49V182H62V181Z" fill="#26566C"/>
<path d="M62 185H49V187H62V185Z" fill="#26566C"/>
<path d="M62 189H49V191H62V189Z" fill="#26566C"/>
<path d="M62 193H49V195H62V193Z" fill="#26566C"/>
<path d="M195 151H171V214H195V151Z" fill="#26566C"/>
<path d="M201 138H189V206H201V138Z" fill="#F7D872"/>
<path d="M203 141H189V143H203V141Z" fill="#00C29D"/>
<path d="M203 146H189V148H203V146Z" fill="#00C29D"/>
<path d="M203 150H189V152H203V150Z" fill="#00C29D"/>
<path d="M203 154H189V156H203V154Z" fill="#00C29D"/>
<path d="M203 158H189V160H203V158Z" fill="#00C29D"/>
<path d="M203 163H189V165H203V163Z" fill="#00C29D"/>
<path d="M203 167H189V169H203V167Z" fill="#00C29D"/>
<path d="M203 171H189V173H203V171Z" fill="#00C29D"/>
<path d="M203 176H189V178H203V176Z" fill="#00C29D"/>
<path d="M203 180H189V182H203V180Z" fill="#00C29D"/>
<path d="M203 184H189V186H203V184Z" fill="#00C29D"/>
<path d="M203 188H189V190H203V188Z" fill="#00C29D"/>
<path d="M203 193H189V195H203V193Z" fill="#00C29D"/>
<path d="M203 197H189V199H203V197Z" fill="#00C29D"/>
<path d="M203 201H189V203H203V201Z" fill="#00C29D"/>
<path d="M163 137H137V208H163V137Z" fill="#26566C"/>
<path d="M161 141H140V143H161V141Z" fill="#26566C"/>
<path d="M161 145H140V147H161V145Z" fill="#26566C"/>
<path d="M161 149H140V152H161V149Z" fill="#26566C"/>
<path d="M161 154H140V156H161V154Z" fill="#26566C"/>
<path d="M161 158H140V161H161V158Z" fill="#26566C"/>
<path d="M161 163H140V165H161V163Z" fill="#26566C"/>
<path d="M161 167H140V169H161V167Z" fill="#26566C"/>
<path d="M161 171H140V174H161V171Z" fill="#26566C"/>
<path d="M161 176H140V178H161V176Z" fill="#26566C"/>
<path d="M161 180H140V183H161V180Z" fill="#26566C"/>
<path d="M161 185H140V187H161V185Z" fill="#26566C"/>
<path d="M161 189H140V191H161V189Z" fill="#26566C"/>
<path d="M161 193H140V196H161V193Z" fill="#26566C"/>
<path d="M161 198H140V200H161V198Z" fill="#26566C"/>
<path d="M161 202H140V205H161V202Z" fill="#26566C"/>
<path d="M126 87H124V109H126V87Z" fill="#F8AA61"/>
<path d="M129 111H121V152H129V111Z" fill="#F8AA61"/>
<path d="M129 111H121L124.154 98H125.846L129 111Z" fill="#F8AA61"/>
<path d="M131 118H119V174H131V118Z" fill="#F8AA61"/>
<path d="M133 133H117V207H133V133Z" fill="#F8AA61"/>
<path d="M122 135H119V138H122V135Z" fill="#F7D872"/>
<path d="M126 135H124V138H126V135Z" fill="#F7D872"/>
<path d="M130 135H128V138H130V135Z" fill="#F7D872"/>
<path d="M122 140H119V143H122V140Z" fill="#F7D872"/>
<path d="M126 140H124V143H126V140Z" fill="#F7D872"/>
<path d="M130 140H128V143H130V140Z" fill="#F7D872"/>
<path d="M122 146H119V149H122V146Z" fill="#F7D872"/>
<path d="M126 146H124V149H126V146Z" fill="#F7D872"/>
<path d="M130 146H128V149H130V146Z" fill="#F7D872"/>
<path d="M122 151H119V154H122V151Z" fill="#F7D872"/>
<path d="M126 151H124V154H126V151Z" fill="#F7D872"/>
<path d="M130 151H128V154H130V151Z" fill="#F7D872"/>
<path d="M122 157H119V160H122V157Z" fill="#F7D872"/>
<path d="M126 157H124V160H126V157Z" fill="#F7D872"/>
<path d="M130 157H128V160H130V157Z" fill="#F7D872"/>
<path d="M122 162H119V165H122V162Z" fill="#F7D872"/>
<path d="M126 162H124V165H126V162Z" fill="#F7D872"/>
<path d="M130 162H128V165H130V162Z" fill="#F7D872"/>
<path d="M122 167H119V170H122V167Z" fill="#F7D872"/>
<path d="M126 167H124V170H126V167Z" fill="#F7D872"/>
<path d="M130 167H128V170H130V167Z" fill="#F7D872"/>
<path d="M122 173H119V176H122V173Z" fill="#F7D872"/>
<path d="M126 173H124V176H126V173Z" fill="#F7D872"/>
<path d="M130 173H128V176H130V173Z" fill="#F7D872"/>
<path d="M122 178H119V181H122V178Z" fill="#F7D872"/>
<path d="M126 178H124V181H126V178Z" fill="#F7D872"/>
<path d="M130 178H128V181H130V178Z" fill="#F7D872"/>
<path d="M122 184H119V187H122V184Z" fill="#F7D872"/>
<path d="M126 184H124V187H126V184Z" fill="#F7D872"/>
<path d="M130 184H128V187H130V184Z" fill="#F7D872"/>
<path d="M122 189H119V192H122V189Z" fill="#F7D872"/>
<path d="M126 189H124V192H126V189Z" fill="#F7D872"/>
<path d="M130 189H128V192H130V189Z" fill="#F7D872"/>
<path d="M122 195H119V198H122V195Z" fill="#F7D872"/>
<path d="M126 195H124V198H126V195Z" fill="#F7D872"/>
<path d="M130 195H128V198H130V195Z" fill="#F7D872"/>
<path d="M122 200H119V203H122V200Z" fill="#F7D872"/>
<path d="M126 200H124V203H126V200Z" fill="#F7D872"/>
<path d="M130 200H128V203H130V200Z" fill="#F7D872"/>
<path d="M61.1371 174.276L60 172.039L64.6126 168H73.4839L78 172.039L71.2849 176L61.1371 174.276Z" fill="white"/>
<path d="M78 172H60V210H78V172Z" fill="#F7D872"/>
<path d="M65 175H63V178H65V175Z" fill="white"/>
<path d="M68 175H67V178H68V175Z" fill="white"/>
<path d="M72 175H70V178H72V175Z" fill="white"/>
<path d="M65 180H63V184H65V180Z" fill="white"/>
<path d="M68 180H67V184H68V180Z" fill="white"/>
<path d="M72 180H70V184H72V180Z" fill="white"/>
<path d="M65 186H63V190H65V186Z" fill="white"/>
<path d="M68 186H67V190H68V186Z" fill="white"/>
<path d="M72 186H70V190H72V186Z" fill="white"/>
<path d="M65 192H63V196H65V192Z" fill="white"/>
<path d="M68 192H67V196H68V192Z" fill="white"/>
<path d="M72 192H70V196H72V192Z" fill="white"/>
<path d="M98 151H75V207H98V151Z" fill="#F8AA61"/>
<path d="M137 189H118V212H137V189Z" fill="#F8AA61"/>
<path d="M98 151H83V207H98V151Z" fill="#F8AA61"/>
<path d="M258 197H219V206H258V197Z" fill="#FF636F"/>
<path d="M295 199H264V206H295V199Z" fill="#FF636F"/>
<path d="M42 202H4V207H42V202Z" fill="#26566C"/>
<path d="M273 208H262V157H271.17L273 208Z" fill="#26566C"/>
<path d="M289 157H271V208H289V157Z" fill="#26566C"/>
<path d="M289 159H271V161H289V159Z" fill="#26566C"/>
<path d="M289 163H271V165H289V163Z" fill="#26566C"/>
<path d="M289 168H271V170H289V168Z" fill="#26566C"/>
<path d="M289 173H271V175H289V173Z" fill="#26566C"/>
<path d="M289 178H271V180H289V178Z" fill="#26566C"/>
<path d="M289 183H271V185H289V183Z" fill="#26566C"/>
<path d="M289 187H271V190H289V187Z" fill="#26566C"/>
<path d="M289 192H271V194H289V192Z" fill="#26566C"/>
<path d="M289 197H271V199H289V197Z" fill="#26566C"/>
<path d="M289 202H271V204H289V202Z" fill="#26566C"/>
<path d="M309 180H282V213H309V180Z" fill="#F8AA61"/>
<path d="M287 182H284V186H287V182Z" fill="#F7D872"/>
<path d="M290 182H288V186H290V182Z" fill="#F7D872"/>
<path d="M294 182H292V186H294V182Z" fill="#F7D872"/>
<path d="M298 182H296V186H298V182Z" fill="#F7D872"/>
<path d="M302 182H300V186H302V182Z" fill="#F7D872"/>
<path d="M306 182H304V186H306V182Z" fill="#F7D872"/>
<path d="M287 188H284V192H287V188Z" fill="#F7D872"/>
<path d="M290 188H288V192H290V188Z" fill="#F7D872"/>
<path d="M294 188H292V192H294V188Z" fill="#F7D872"/>
<path d="M298 188H296V192H298V188Z" fill="#F7D872"/>
<path d="M302 188H300V192H302V188Z" fill="#F7D872"/>
<path d="M306 188H304V192H306V188Z" fill="#F7D872"/>
<path d="M287 194H284V198H287V194Z" fill="#F7D872"/>
<path d="M290 194H288V198H290V194Z" fill="#F7D872"/>
<path d="M294 194H292V198H294V194Z" fill="#F7D872"/>
<path d="M298 194H296V198H298V194Z" fill="#F7D872"/>
<path d="M302 194H300V198H302V194Z" fill="#F7D872"/>
<path d="M306 194H304V198H306V194Z" fill="#F7D872"/>
<path d="M287 199H284V203H287V199Z" fill="#F7D872"/>
<path d="M290 199H288V203H290V199Z" fill="#F7D872"/>
<path d="M294 199H292V203H294V199Z" fill="#F7D872"/>
<path d="M298 199H296V203H298V199Z" fill="#F7D872"/>
<path d="M302 199H300V203H302V199Z" fill="#F7D872"/>
<path d="M306 199H304V203H306V199Z" fill="#F7D872"/>
<path d="M122 145H98V209H122V145Z" fill="#26566C"/>
<path d="M104 123.764C102.179 122.609 100.108 122 98 122C95.8917 122 93.8212 122.609 92 123.764V132H104V123.764Z" fill="#26566C"/>
<path d="M104 125H92V135H104V125Z" fill="#26566C"/>
<path d="M107 130H89V202H107V130Z" fill="#26566C"/>
<path d="M98 133H89V135H98V133Z" fill="#26566C"/>
<path d="M98 137H89V139H98V137Z" fill="#26566C"/>
<path d="M98 141H89V143H98V141Z" fill="#26566C"/>
<path d="M98 145H89V147H98V145Z" fill="#26566C"/>
<path d="M98 150H89V152H98V150Z" fill="#26566C"/>
<path d="M98 154H89V156H98V154Z" fill="#26566C"/>
<path d="M98 158H89V160H98V158Z" fill="#26566C"/>
<path d="M98 162H89V164H98V162Z" fill="#26566C"/>
<path d="M98 167H89V169H98V167Z" fill="#26566C"/>
<path d="M98 171H89V173H98V171Z" fill="#26566C"/>
<path d="M98 175H89V177H98V175Z" fill="#26566C"/>
<path d="M98 179H89V181H98V179Z" fill="#26566C"/>
<path d="M98 184H89V186H98V184Z" fill="#26566C"/>
<path d="M98 188H89V190H98V188Z" fill="#26566C"/>
<path d="M98 192H89V194H98V192Z" fill="#26566C"/>
<path d="M98 196H89V198H98V196Z" fill="#26566C"/>
<path d="M115 198H39V212H115V198Z" fill="#FF636F"/>
<path d="M152 196H182V192.178L167 191L152 192.178V196Z" fill="#F7D872"/>
<path d="M152.863 89H150V103H155V91.054L152.863 89Z" fill="#26566C"/>
<path d="M155 103.397L152.863 101L150 103.397V109H155V103.397Z" fill="#26566C"/>
<path d="M156.396 120L151 116.558V108H157L156.396 120Z" fill="#FF636F"/>
<path d="M155.328 109L162 108.437L158.652 106L155 107.406L155.328 109Z" fill="#26566C"/>
<path d="M153 85H150V93H153V85Z" fill="#F7D872"/>
<path d="M155 87H148V84H151.49L155 87Z" fill="#F7D872"/>
<path d="M155 84H151V87H155V84Z" fill="#F7D872"/>
<path d="M151 89H148V92H151V89Z" fill="#26566C"/>
<path d="M164 109L156.853 113.253L155 117.546V128.533V139H164V109Z" fill="#26566C"/>
<path d="M170.855 105L168 114L178 112.754L170.855 105Z" fill="#FF636F"/>
<path d="M182.149 120L166 122.708L172.844 140L185 127.065L182.149 120Z" fill="#FF636F"/>
<path d="M174.094 158.99L158 159L159.189 156.164L158 155.045V111H176L174.094 143.01V158.99Z" fill="#26566C"/>
<path d="M178 115H170V122H178V115Z" fill="#26566C"/>
<path d="M158 95L163.505 100L169 95.009L158 95Z" fill="#26566C"/>
<path d="M166 95L171 100L176 95.009L166 95Z" fill="#26566C"/>
<path d="M174 127H176V142.99L174 144V127Z" fill="#26566C"/>
<path d="M171 143H169V159H171V143Z" fill="#26566C"/>
<path d="M172 143H176V159.244L172 161V143Z" fill="#26566C"/>
<path d="M163 97H171V89L163 97Z" fill="#26566C"/>
<path d="M171 97H163V110H171V97Z" fill="#FF636F"/>
<path d="M164 98V103.142C164 103.518 164.078 103.891 164.229 104.238C164.381 104.586 164.603 104.901 164.883 105.167C165.162 105.432 165.494 105.642 165.86 105.785C166.225 105.928 166.616 106.001 167.011 106C167.805 105.997 168.565 105.695 169.125 105.159C169.685 104.624 170 103.898 170 103.142V98.052L164 98Z" fill="#26566C"/>
<path d="M163 89V97H171L163 89Z" fill="#26566C"/>
<path d="M148 82H155V75L148 82Z" fill="white"/>
<path d="M164 120H155V129L164 120Z" fill="#26566C"/>
<path d="M164 139H155V146L164 139Z" fill="#26566C"/>
<path d="M180 123H172V131L180 123Z" fill="#26566C"/>
<path d="M176 143H169V151L176 143Z" fill="#26566C"/>
<path d="M171 151H163V159L171 151Z" fill="#26566C"/>
<path d="M162 127H158V131L162 127Z" fill="#26566C"/>
<path d="M169 128H173L172.457 123L169 128Z" fill="#26566C"/>
<path d="M162 155H158V159L162 155Z" fill="#26566C"/>
<path d="M176 112H158L164.406 109H176V112Z" fill="#26566C"/>
<path d="M176 119C178.761 119 181 116.761 181 114C181 111.239 178.761 109 176 109C173.239 109 171 111.239 171 114C171 116.761 173.239 119 176 119Z" fill="#26566C"/>
<path d="M181 114C181 112.674 180.473 111.402 179.536 110.464C178.598 109.527 177.326 109 176 109V114H181Z" fill="#26566C"/>
<path d="M186.208 119.197L177.151 128.263L178.908 130.018L187.965 120.951L186.208 119.197Z" fill="#FF636F"/>
<path d="M181.341 114.242L172.281 123.305L177.252 128.273L186.312 119.21L181.341 114.242Z" fill="#26566C"/>
<path d="M176 159H158V163H176V159Z" fill="#26566C"/>
<path d="M178 161H155V165H178V161Z" fill="#26566C"/>
<path d="M155 109V117L164 109H155Z" fill="#26566C"/>
<path d="M155.3 103.252L148.602 109.949L151.72 113.067L158.417 106.369L155.3 103.252Z" fill="#26566C"/>
<path d="M178 171H155V191H178V171Z" fill="#F7D872"/>
<path d="M178 165.331L166.495 166L155 165.331V164H178V165.331Z" fill="#F7D872"/>
<path d="M178 166H155V168H178V166Z" fill="#F7D872"/>
<path d="M182 168H152V171H182V168Z" fill="#F7D872"/>
<path d="M178 171H155V172H178V171Z" fill="#F7D872"/>
<path d="M178 185H155V187H178V185Z" fill="#F7D872"/>
<path d="M178 187H155V188H178V187Z" fill="#F7D872"/>
<path d="M162 174H159V184H162V174Z" fill="#F7D872"/>
<path d="M169 174H165V184H169V174Z" fill="#F7D872"/>
<path d="M175 174H172V184H175V174Z" fill="#F7D872"/>
<path d="M178.735 190L182 192H152L155.275 190H178.735Z" fill="#F7D872"/>
<path d="M187 195H147V204H187V195Z" fill="#F7D872"/>
<path d="M208 195H187V204H208V195Z" fill="#F7D872"/>
<path d="M213 203H121V206H213V203Z" fill="#F7D872"/>
<path d="M147 195H125V204H147V195Z" fill="#F7D872"/>
<path d="M208.5 103L203 115.005L208.5 127L214 115.005L208.5 103Z" fill="#26566C"/>
<path d="M214 114H203V159H214V114Z" fill="#F7D872"/>
<path d="M216 131H199V209H216V131Z" fill="#F7D872"/>
<path d="M201 131H199V215H201V131Z" fill="#F7D872"/>
<path d="M205 131H203V215H205V131Z" fill="#F7D872"/>
<path d="M209 131H207V215H209V131Z" fill="#F7D872"/>
<path d="M213 131H212V215H213V131Z" fill="#F7D872"/>
<path d="M217 131H216V215H217V131Z" fill="#F7D872"/>
<path d="M334 206H0V208H334V206Z" fill="white"/>
<path d="M215 184V203H234L215 184Z" fill="white"/>
<path d="M236.044 206H210V203H239L236.044 206Z" fill="#00C29D"/>
<path d="M217 130H199V132H217V130Z" fill="#F7D872"/>
<path d="M155.031 112.499L160 108.115L158.934 106L151 113L155.031 112.499Z" fill="#FF636F"/>
<path d="M324.175 219H9.78554C7.19025 219 4.70126 217.841 2.86612 215.778C1.03097 213.715 0 210.917 0 208H334C334 209.448 333.746 210.882 333.251 212.22C332.757 213.557 332.033 214.772 331.12 215.794C330.207 216.816 329.124 217.625 327.932 218.175C326.74 218.725 325.464 219.006 324.175 219Z" fill="#26566C"/>
<path opacity="0.3" d="M172 63C172 63 195.68 26.3059 243 1" stroke="white" stroke-width="2" stroke-miterlimit="10" stroke-dasharray="10 10"/>
</svg>
