<svg width="408" height="263" viewBox="0 0 408 263" fill="none" xmlns="http://www.w3.org/2000/svg">
<path d="M284 190H282V206H284V190Z" fill="#26566C"/>
<path d="M176 239H150V259H176V239Z" fill="#26566C"/>
<path d="M3 235H20V219C19.9892 223.244 18.194 227.31 15.0077 230.309C11.8213 233.308 7.5035 234.995 3 235V235Z" fill="#26566C"/>
<path d="M25 218H19V249H25V218Z" fill="#26566C"/>
<path d="M306.72 229L330 238.485V256L289 246.906L306.72 229Z" fill="#FF636F"/>
<path d="M266 194H251V252H266V194Z" fill="#26566C"/>
<path d="M35 235H3V239H35V235Z" fill="#26566C"/>
<path d="M41.3389 211V216.906H33.7017V221.755H30V247H59V211H41.3389Z" fill="#26566C"/>
<path d="M57 221H30V247H57V221Z" fill="#26566C"/>
<path d="M33 225H31V228H33V225Z" fill="#26566C"/>
<path d="M37 225H35V228H37V225Z" fill="#26566C"/>
<path d="M43 225H41V228H43V225Z" fill="#26566C"/>
<path d="M47 225H45V228H47V225Z" fill="#26566C"/>
<path d="M33 231H31V234H33V231Z" fill="#26566C"/>
<path d="M37 231H35V234H37V231Z" fill="#26566C"/>
<path d="M43 231H41V234H43V231Z" fill="#26566C"/>
<path d="M47 231H45V234H47V231Z" fill="#26566C"/>
<path d="M33 237H31V240H33V237Z" fill="#26566C"/>
<path d="M37 237H35V240H37V237Z" fill="#26566C"/>
<path d="M43 237H41V240H43V237Z" fill="#26566C"/>
<path d="M47 237H45V240H47V237Z" fill="#26566C"/>
<path d="M234 183H201V246H234V183Z" fill="#26566C"/>
<path d="M235 183H220V251H235V183Z" fill="#26566C"/>
<path d="M225 256H251L232.846 165H225V256Z" fill="#26566C"/>
<path d="M254 165H233V256H254V165Z" fill="#26566C"/>
<path d="M233 235L254 214.721V209L233 229.279V235Z" fill="#26566C"/>
<path d="M233 226L254 205.713V200L233 220.287V226Z" fill="#26566C"/>
<path d="M233 216L254 196.501V191L233 210.499V216Z" fill="#26566C"/>
<path d="M233 254L254 233.721V228L233 248.279V254Z" fill="#26566C"/>
<path d="M233 244L254 224.501V219L233 238.499V244Z" fill="#26566C"/>
<path d="M241.005 256L254 243.005V237L235 256H241.005Z" fill="#26566C"/>
<path d="M233 188L254 167.47V165H250.592L233 182.208V188Z" fill="#26566C"/>
<path d="M233 207L254 186.721V181L233 201.279V207Z" fill="#26566C"/>
<path d="M245 256H254V247L245 256Z" fill="#26566C"/>
<path d="M237 165H233V169L237 165Z" fill="#26566C"/>
<path d="M233 179L247 165H241.004L233 173.014V179Z" fill="#26566C"/>
<path d="M233 198L254 177.721V172L233 192.279V198Z" fill="#26566C"/>
<path d="M137 201H129V250H137V201Z" fill="#26566C"/>
<path d="M62 198H49V248H62V198Z" fill="#26566C"/>
<path d="M63 198H47V201H63V198Z" fill="#26566C"/>
<path d="M62 203H49V205H62V203Z" fill="#26566C"/>
<path d="M62 208H49V209H62V208Z" fill="#26566C"/>
<path d="M62 212H49V214H62V212Z" fill="#26566C"/>
<path d="M62 216H49V218H62V216Z" fill="#26566C"/>
<path d="M62 220H49V222H62V220Z" fill="#26566C"/>
<path d="M62 225H49V226H62V225Z" fill="#26566C"/>
<path d="M62 229H49V231H62V229Z" fill="#26566C"/>
<path d="M62 233H49V235H62V233Z" fill="#26566C"/>
<path d="M62 237H49V239H62V237Z" fill="#26566C"/>
<path d="M195 195H171V258H195V195Z" fill="#26566C"/>
<path d="M201 182H189V250H201V182Z" fill="#F7D872"/>
<path d="M203 185H189V187H203V185Z" fill="#00C29D"/>
<path d="M203 190H189V192H203V190Z" fill="#00C29D"/>
<path d="M203 194H189V196H203V194Z" fill="#00C29D"/>
<path d="M203 198H189V200H203V198Z" fill="#00C29D"/>
<path d="M203 202H189V204H203V202Z" fill="#00C29D"/>
<path d="M203 207H189V209H203V207Z" fill="#00C29D"/>
<path d="M203 211H189V213H203V211Z" fill="#00C29D"/>
<path d="M203 215H189V217H203V215Z" fill="#00C29D"/>
<path d="M203 220H189V222H203V220Z" fill="#00C29D"/>
<path d="M203 224H189V226H203V224Z" fill="#00C29D"/>
<path d="M203 228H189V230H203V228Z" fill="#00C29D"/>
<path d="M203 232H189V234H203V232Z" fill="#00C29D"/>
<path d="M203 237H189V239H203V237Z" fill="#00C29D"/>
<path d="M203 241H189V243H203V241Z" fill="#00C29D"/>
<path d="M203 245H189V247H203V245Z" fill="#00C29D"/>
<path d="M163 181H137V252H163V181Z" fill="#26566C"/>
<path d="M161 185H140V187H161V185Z" fill="#26566C"/>
<path d="M161 189H140V191H161V189Z" fill="#26566C"/>
<path d="M161 193H140V196H161V193Z" fill="#26566C"/>
<path d="M161 198H140V200H161V198Z" fill="#26566C"/>
<path d="M161 202H140V205H161V202Z" fill="#26566C"/>
<path d="M161 207H140V209H161V207Z" fill="#26566C"/>
<path d="M161 211H140V213H161V211Z" fill="#26566C"/>
<path d="M161 215H140V218H161V215Z" fill="#26566C"/>
<path d="M161 220H140V222H161V220Z" fill="#26566C"/>
<path d="M161 224H140V227H161V224Z" fill="#26566C"/>
<path d="M161 229H140V231H161V229Z" fill="#26566C"/>
<path d="M161 233H140V235H161V233Z" fill="#26566C"/>
<path d="M161 237H140V240H161V237Z" fill="#26566C"/>
<path d="M161 242H140V244H161V242Z" fill="#26566C"/>
<path d="M161 246H140V249H161V246Z" fill="#26566C"/>
<path d="M126 131H124V153H126V131Z" fill="#F8AA61"/>
<path d="M129 155H121V196H129V155Z" fill="#F8AA61"/>
<path d="M129 155H121L124.154 142H125.846L129 155Z" fill="#F8AA61"/>
<path d="M131 162H119V218H131V162Z" fill="#F8AA61"/>
<path d="M133 177H117V251H133V177Z" fill="#F8AA61"/>
<path d="M122 179H119V182H122V179Z" fill="#F7D872"/>
<path d="M126 179H124V182H126V179Z" fill="#F7D872"/>
<path d="M130 179H128V182H130V179Z" fill="#F7D872"/>
<path d="M122 184H119V187H122V184Z" fill="#F7D872"/>
<path d="M126 184H124V187H126V184Z" fill="#F7D872"/>
<path d="M130 184H128V187H130V184Z" fill="#F7D872"/>
<path d="M122 190H119V193H122V190Z" fill="#F7D872"/>
<path d="M126 190H124V193H126V190Z" fill="#F7D872"/>
<path d="M130 190H128V193H130V190Z" fill="#F7D872"/>
<path d="M122 195H119V198H122V195Z" fill="#F7D872"/>
<path d="M126 195H124V198H126V195Z" fill="#F7D872"/>
<path d="M130 195H128V198H130V195Z" fill="#F7D872"/>
<path d="M122 201H119V204H122V201Z" fill="#F7D872"/>
<path d="M126 201H124V204H126V201Z" fill="#F7D872"/>
<path d="M130 201H128V204H130V201Z" fill="#F7D872"/>
<path d="M122 206H119V209H122V206Z" fill="#F7D872"/>
<path d="M126 206H124V209H126V206Z" fill="#F7D872"/>
<path d="M130 206H128V209H130V206Z" fill="#F7D872"/>
<path d="M122 211H119V214H122V211Z" fill="#F7D872"/>
<path d="M126 211H124V214H126V211Z" fill="#F7D872"/>
<path d="M130 211H128V214H130V211Z" fill="#F7D872"/>
<path d="M122 217H119V220H122V217Z" fill="#F7D872"/>
<path d="M126 217H124V220H126V217Z" fill="#F7D872"/>
<path d="M130 217H128V220H130V217Z" fill="#F7D872"/>
<path d="M122 222H119V225H122V222Z" fill="#F7D872"/>
<path d="M126 222H124V225H126V222Z" fill="#F7D872"/>
<path d="M130 222H128V225H130V222Z" fill="#F7D872"/>
<path d="M122 228H119V231H122V228Z" fill="#F7D872"/>
<path d="M126 228H124V231H126V228Z" fill="#F7D872"/>
<path d="M130 228H128V231H130V228Z" fill="#F7D872"/>
<path d="M122 233H119V236H122V233Z" fill="#F7D872"/>
<path d="M126 233H124V236H126V233Z" fill="#F7D872"/>
<path d="M130 233H128V236H130V233Z" fill="#F7D872"/>
<path d="M122 239H119V242H122V239Z" fill="#F7D872"/>
<path d="M126 239H124V242H126V239Z" fill="#F7D872"/>
<path d="M130 239H128V242H130V239Z" fill="#F7D872"/>
<path d="M122 244H119V247H122V244Z" fill="#F7D872"/>
<path d="M126 244H124V247H126V244Z" fill="#F7D872"/>
<path d="M130 244H128V247H130V244Z" fill="#F7D872"/>
<path d="M61.1371 218.276L60 216.039L64.6126 212H73.4839L78 216.039L71.2849 220L61.1371 218.276Z" fill="white"/>
<path d="M78 216H60V254H78V216Z" fill="#F7D872"/>
<path d="M65 219H63V222H65V219Z" fill="white"/>
<path d="M68 219H67V222H68V219Z" fill="white"/>
<path d="M72 219H70V222H72V219Z" fill="white"/>
<path d="M65 224H63V228H65V224Z" fill="white"/>
<path d="M68 224H67V228H68V224Z" fill="white"/>
<path d="M72 224H70V228H72V224Z" fill="white"/>
<path d="M65 230H63V234H65V230Z" fill="white"/>
<path d="M68 230H67V234H68V230Z" fill="white"/>
<path d="M72 230H70V234H72V230Z" fill="white"/>
<path d="M65 236H63V240H65V236Z" fill="white"/>
<path d="M68 236H67V240H68V236Z" fill="white"/>
<path d="M72 236H70V240H72V236Z" fill="white"/>
<path d="M98 195H75V251H98V195Z" fill="#F8AA61"/>
<path d="M137 233H118V256H137V233Z" fill="#F8AA61"/>
<path d="M98 195H83V251H98V195Z" fill="#F8AA61"/>
<path d="M258 241H219V250H258V241Z" fill="#FF636F"/>
<path d="M295 243H264V250H295V243Z" fill="#FF636F"/>
<path d="M42 246H4V251H42V246Z" fill="#26566C"/>
<path d="M273 252H262V201H271.17L273 252Z" fill="#26566C"/>
<path d="M289 201H271V252H289V201Z" fill="#26566C"/>
<path d="M289 203H271V205H289V203Z" fill="#26566C"/>
<path d="M289 207H271V209H289V207Z" fill="#26566C"/>
<path d="M289 212H271V214H289V212Z" fill="#26566C"/>
<path d="M289 217H271V219H289V217Z" fill="#26566C"/>
<path d="M289 222H271V224H289V222Z" fill="#26566C"/>
<path d="M289 227H271V229H289V227Z" fill="#26566C"/>
<path d="M289 231H271V234H289V231Z" fill="#26566C"/>
<path d="M289 236H271V238H289V236Z" fill="#26566C"/>
<path d="M289 241H271V243H289V241Z" fill="#26566C"/>
<path d="M289 246H271V248H289V246Z" fill="#26566C"/>
<path d="M309 224H282V257H309V224Z" fill="#F8AA61"/>
<path d="M287 226H284V230H287V226Z" fill="#F7D872"/>
<path d="M290 226H288V230H290V226Z" fill="#F7D872"/>
<path d="M294 226H292V230H294V226Z" fill="#F7D872"/>
<path d="M298 226H296V230H298V226Z" fill="#F7D872"/>
<path d="M302 226H300V230H302V226Z" fill="#F7D872"/>
<path d="M306 226H304V230H306V226Z" fill="#F7D872"/>
<path d="M287 232H284V236H287V232Z" fill="#F7D872"/>
<path d="M290 232H288V236H290V232Z" fill="#F7D872"/>
<path d="M294 232H292V236H294V232Z" fill="#F7D872"/>
<path d="M298 232H296V236H298V232Z" fill="#F7D872"/>
<path d="M302 232H300V236H302V232Z" fill="#F7D872"/>
<path d="M306 232H304V236H306V232Z" fill="#F7D872"/>
<path d="M287 238H284V242H287V238Z" fill="#F7D872"/>
<path d="M290 238H288V242H290V238Z" fill="#F7D872"/>
<path d="M294 238H292V242H294V238Z" fill="#F7D872"/>
<path d="M298 238H296V242H298V238Z" fill="#F7D872"/>
<path d="M302 238H300V242H302V238Z" fill="#F7D872"/>
<path d="M306 238H304V242H306V238Z" fill="#F7D872"/>
<path d="M287 243H284V247H287V243Z" fill="#F7D872"/>
<path d="M290 243H288V247H290V243Z" fill="#F7D872"/>
<path d="M294 243H292V247H294V243Z" fill="#F7D872"/>
<path d="M298 243H296V247H298V243Z" fill="#F7D872"/>
<path d="M302 243H300V247H302V243Z" fill="#F7D872"/>
<path d="M306 243H304V247H306V243Z" fill="#F7D872"/>
<path d="M122 189H98V253H122V189Z" fill="#26566C"/>
<path d="M104 167.764C102.179 166.609 100.108 166 98 166C95.8917 166 93.8212 166.609 92 167.764V176H104V167.764Z" fill="#26566C"/>
<path d="M104 169H92V179H104V169Z" fill="#26566C"/>
<path d="M107 174H89V246H107V174Z" fill="#26566C"/>
<path d="M98 177H89V179H98V177Z" fill="#26566C"/>
<path d="M98 181H89V183H98V181Z" fill="#26566C"/>
<path d="M98 185H89V187H98V185Z" fill="#26566C"/>
<path d="M98 189H89V191H98V189Z" fill="#26566C"/>
<path d="M98 194H89V196H98V194Z" fill="#26566C"/>
<path d="M98 198H89V200H98V198Z" fill="#26566C"/>
<path d="M98 202H89V204H98V202Z" fill="#26566C"/>
<path d="M98 206H89V208H98V206Z" fill="#26566C"/>
<path d="M98 211H89V213H98V211Z" fill="#26566C"/>
<path d="M98 215H89V217H98V215Z" fill="#26566C"/>
<path d="M98 219H89V221H98V219Z" fill="#26566C"/>
<path d="M98 223H89V225H98V223Z" fill="#26566C"/>
<path d="M98 228H89V230H98V228Z" fill="#26566C"/>
<path d="M98 232H89V234H98V232Z" fill="#26566C"/>
<path d="M98 236H89V238H98V236Z" fill="#26566C"/>
<path d="M98 240H89V242H98V240Z" fill="#26566C"/>
<path d="M115 242H39V256H115V242Z" fill="#FF636F"/>
<path d="M152 240H182V236.178L167 235L152 236.178V240Z" fill="#F7D872"/>
<path d="M152.863 133H150V147H155V135.054L152.863 133Z" fill="#26566C"/>
<path d="M155 147.397L152.863 145L150 147.397V153H155V147.397Z" fill="#26566C"/>
<path d="M156.396 164L151 160.558V152H157L156.396 164Z" fill="#FF636F"/>
<path d="M155.328 153L162 152.437L158.652 150L155 151.406L155.328 153Z" fill="#26566C"/>
<path d="M153 129H150V137H153V129Z" fill="#F7D872"/>
<path d="M155 131H148V128H151.49L155 131Z" fill="#F7D872"/>
<path d="M155 128H151V131H155V128Z" fill="#F7D872"/>
<path d="M151 133H148V136H151V133Z" fill="#26566C"/>
<path d="M164 153L156.853 157.253L155 161.546V172.533V183H164V153Z" fill="#26566C"/>
<path d="M170.855 149L168 158L178 156.754L170.855 149Z" fill="#FF636F"/>
<path d="M182.149 164L166 166.708L172.844 184L185 171.065L182.149 164Z" fill="#FF636F"/>
<path d="M174.094 202.99L158 203L159.189 200.164L158 199.045V155H176L174.094 187.01V202.99Z" fill="#26566C"/>
<path d="M178 159H170V166H178V159Z" fill="#26566C"/>
<path d="M158 139L163.505 144L169 139.009L158 139Z" fill="#26566C"/>
<path d="M166 139L171 144L176 139.009L166 139Z" fill="#26566C"/>
<path d="M174 171H176V186.99L174 188V171Z" fill="#26566C"/>
<path d="M171 187H169V203H171V187Z" fill="#26566C"/>
<path d="M172 187H176V203.244L172 205V187Z" fill="#26566C"/>
<path d="M163 141H171V133L163 141Z" fill="#26566C"/>
<path d="M171 141H163V154H171V141Z" fill="#FF636F"/>
<path d="M164 142V147.142C164 147.518 164.078 147.891 164.229 148.238C164.381 148.586 164.603 148.901 164.883 149.167C165.162 149.432 165.494 149.642 165.86 149.785C166.225 149.928 166.616 150.001 167.011 150V150C167.805 149.997 168.565 149.695 169.125 149.159C169.685 148.624 170 147.898 170 147.142V142.052L164 142Z" fill="#26566C"/>
<path d="M163 133V141H171L163 133Z" fill="#26566C"/>
<path d="M148 126H155V119L148 126Z" fill="white"/>
<path d="M164 164H155V173L164 164Z" fill="#26566C"/>
<path d="M164 183H155V190L164 183Z" fill="#26566C"/>
<path d="M180 167H172V175L180 167Z" fill="#26566C"/>
<path d="M176 187H169V195L176 187Z" fill="#26566C"/>
<path d="M171 195H163V203L171 195Z" fill="#26566C"/>
<path d="M162 171H158V175L162 171Z" fill="#26566C"/>
<path d="M169 172H173L172.457 167L169 172Z" fill="#26566C"/>
<path d="M162 199H158V203L162 199Z" fill="#26566C"/>
<path d="M176 156H158L164.406 153H176V156Z" fill="#26566C"/>
<path d="M176 163C178.761 163 181 160.761 181 158C181 155.239 178.761 153 176 153C173.239 153 171 155.239 171 158C171 160.761 173.239 163 176 163Z" fill="#26566C"/>
<path d="M181 158C181 156.674 180.473 155.402 179.536 154.464C178.598 153.527 177.326 153 176 153V158H181Z" fill="#26566C"/>
<path d="M186.208 163.197L177.151 172.263L178.908 174.018L187.965 164.951L186.208 163.197Z" fill="#FF636F"/>
<path d="M181.341 158.242L172.281 167.305L177.252 172.273L186.312 163.21L181.341 158.242Z" fill="#26566C"/>
<path d="M176 203H158V207H176V203Z" fill="#26566C"/>
<path d="M178 205H155V209H178V205Z" fill="#26566C"/>
<path d="M155 153V161L164 153H155Z" fill="#26566C"/>
<path d="M155.3 147.252L148.602 153.949L151.72 157.067L158.417 150.369L155.3 147.252Z" fill="#26566C"/>
<path d="M178 215H155V235H178V215Z" fill="#F7D872"/>
<path d="M178 209.331L166.495 210L155 209.331V208H178V209.331Z" fill="#F7D872"/>
<path d="M178 210H155V212H178V210Z" fill="#F7D872"/>
<path d="M182 212H152V215H182V212Z" fill="#F7D872"/>
<path d="M178 215H155V216H178V215Z" fill="#F7D872"/>
<path d="M178 229H155V231H178V229Z" fill="#F7D872"/>
<path d="M178 231H155V232H178V231Z" fill="#F7D872"/>
<path d="M162 218H159V228H162V218Z" fill="#F7D872"/>
<path d="M169 218H165V228H169V218Z" fill="#F7D872"/>
<path d="M175 218H172V228H175V218Z" fill="#F7D872"/>
<path d="M178.735 234L182 236H152L155.275 234H178.735Z" fill="#F7D872"/>
<path d="M187 239H147V248H187V239Z" fill="#F7D872"/>
<path d="M208 239H187V248H208V239Z" fill="#F7D872"/>
<path d="M213 247H121V250H213V247Z" fill="#F7D872"/>
<path d="M147 239H125V248H147V239Z" fill="#F7D872"/>
<path d="M208.5 147L203 159.005L208.5 171L214 159.005L208.5 147Z" fill="#26566C"/>
<path d="M214 158H203V203H214V158Z" fill="#F7D872"/>
<path d="M216 175H199V253H216V175Z" fill="#F7D872"/>
<path d="M201 175H199V259H201V175Z" fill="#F7D872"/>
<path d="M205 175H203V259H205V175Z" fill="#F7D872"/>
<path d="M209 175H207V259H209V175Z" fill="#F7D872"/>
<path d="M213 175H212V259H213V175Z" fill="#F7D872"/>
<path d="M217 175H216V259H217V175Z" fill="#F7D872"/>
<path d="M334 250H0V252H334V250Z" fill="white"/>
<path d="M215 228V247H234L215 228Z" fill="white"/>
<path d="M236.044 250H210V247H239L236.044 250Z" fill="#00C29D"/>
<path d="M217 174H199V176H217V174Z" fill="#F7D872"/>
<path d="M155.031 156.499L160 152.115L158.934 150L151 157L155.031 156.499Z" fill="#FF636F"/>
<path d="M324.175 263H9.78554C7.19025 263 4.70126 261.841 2.86612 259.778C1.03097 257.715 0 254.917 0 252H334C334 253.448 333.746 254.882 333.251 256.22C332.757 257.557 332.033 258.772 331.12 259.794C330.207 260.816 329.124 261.625 327.932 262.175C326.74 262.725 325.464 263.006 324.175 263Z" fill="#26566C"/>
<g opacity="0.3">
<path opacity="0.3" d="M255.17 49.4729C255.274 49.9768 255.573 50.4193 256.001 50.7045C256.212 50.8476 256.45 50.945 256.701 50.9905C256.952 51.0359 257.21 51.0284 257.457 50.9685L316.586 37.7724L315.706 33.8624L254.72 47.469L255.17 49.4924" fill="white"/>
<path opacity="0.3" d="M246.285 43.9403C246.391 44.4406 246.689 44.8792 247.116 45.1621C247.324 45.3072 247.56 45.4066 247.81 45.4538C248.059 45.501 248.315 45.4948 248.562 45.4358L315.031 30.6073L314.161 26.6974L245.884 41.9364L246.334 43.9598" fill="white"/>
<path opacity="0.3" d="M237.37 38.4077C237.419 38.6568 237.518 38.8934 237.661 39.1034C237.804 39.3133 237.987 39.4923 238.201 39.6296C238.41 39.773 238.647 39.8707 238.896 39.9162C239.145 39.9617 239.401 39.9539 239.648 39.8935L313.389 23.4424L312.509 19.5325L236.911 36.4039L237.37 38.4371" fill="white"/>
</g>
<path d="M405.144 7.64725C404.098 7.22877 403.013 6.8492 401.879 6.49884C399.587 5.78165 397.25 5.21599 394.885 4.80547C389.363 3.83227 383.715 3.6863 379.384 4.66924L308.984 20.4449C308.822 20.5264 308.642 20.5665 308.461 20.5617L269.168 29.4081H269.1L268.741 29.4665C267.913 29.6584 267.181 30.1438 266.68 30.8337C266.179 31.5235 265.942 32.3717 266.012 33.2229C266.083 34.074 266.456 34.8711 267.064 35.4681C267.672 36.0651 268.474 36.4221 269.323 36.4736C282.885 39.2862 308.926 39.909 319.524 37.5344L347.279 31.2961L366.519 26.9848L383.443 23.1893C393.422 20.951 402.276 17.3501 405.87 14.9852C406.572 14.6191 407.147 14.0503 407.523 13.3523C407.9 12.6542 408.059 11.8589 407.981 11.0691C407.902 10.2792 407.59 9.53102 407.085 8.92108C406.579 8.31113 405.903 7.86744 405.144 7.64725Z" fill="#F7D872"/>
<path d="M395.317 5.11846L394.445 5L389 6.0934L389.73 9L402 6.53074C399.803 5.95012 397.572 5.47865 395.317 5.11846V5.11846Z" fill="#26566C"/>
<path d="M387.192 6.02949L384.282 6.67883L384.978 9.79847L387.888 9.14913L387.192 6.02949Z" fill="#26566C"/>
<path d="M284 38.4065C297.006 39.3664 312.037 39.2128 319.48 37.5713L347.255 31.4181L366.502 27.1655L383.433 23.4217C393.415 21.2138 402.273 17.662 405.868 15.3293C406.643 14.9322 407.263 14.2919 407.631 13.5085C408 12.7252 408.095 11.843 407.903 11L284 38.4065Z" fill="#26566C"/>
<path d="M288.593 39L407.98 11.5341C408.066 10.6501 407.873 9.76104 407.428 9L280 38C282.748 38.2893 285.651 38.8404 288.593 39Z" fill="white"/>
<path d="M343.109 36L356 33.282L354.281 26L341.39 28.7087L338 30.5918L339.218 35.731L343.109 36Z" fill="#FF636F"/>
<path d="M363.952 12.0572C363.469 12.1657 363.03 12.4148 362.689 12.7731C362.348 13.1313 362.121 13.5827 362.037 14.0701C361.952 14.5574 362.014 15.0589 362.214 15.5112C362.414 15.9635 362.744 16.3463 363.161 16.6111C363.579 16.876 364.065 17.0111 364.56 16.9993C365.054 16.9875 365.533 16.8294 365.938 16.5449C366.342 16.2605 366.653 15.8624 366.832 15.4011C367.01 14.9398 367.048 14.4359 366.94 13.9531C366.791 13.3076 366.394 12.7467 365.834 12.3919C365.275 12.0371 364.599 11.9169 363.952 12.0572V12.0572Z" fill="white"/>
<path d="M355.961 14.0607C355.478 14.1673 355.037 14.4149 354.695 14.772C354.353 15.1291 354.124 15.5797 354.038 16.0668C353.952 16.5539 354.013 17.0555 354.212 17.5082C354.411 17.9608 354.741 18.3441 355.158 18.6096C355.576 18.875 356.063 19.0107 356.557 18.9993C357.052 18.988 357.532 18.8302 357.937 18.5459C358.342 18.2616 358.653 17.8636 358.832 17.4023C359.01 16.941 359.048 16.4371 358.939 15.9545C358.869 15.6342 358.736 15.3311 358.548 15.0624C358.36 14.7938 358.121 14.5649 357.844 14.3889C357.567 14.2129 357.258 14.0933 356.935 14.037C356.612 13.9807 356.281 13.9887 355.961 14.0607V14.0607Z" fill="white"/>
<path d="M347.961 15.0588C347.478 15.1655 347.037 15.4131 346.695 15.7704C346.353 16.1276 346.124 16.5784 346.038 17.0657C345.952 17.553 346.013 18.0548 346.212 18.5076C346.411 18.9604 346.741 19.3439 347.158 19.6094C347.576 19.875 348.063 20.0107 348.557 19.9993C349.052 19.988 349.532 19.8301 349.937 19.5457C350.342 19.2613 350.653 18.8632 350.832 18.4017C351.01 17.9402 351.048 17.4361 350.94 16.9533C350.795 16.3077 350.4 15.7457 349.842 15.3906C349.283 15.0355 348.607 14.9161 347.961 15.0588V15.0588Z" fill="white"/>
<path d="M340.5 22C341.881 22 343 20.8807 343 19.5C343 18.1193 341.881 17 340.5 17C339.119 17 338 18.1193 338 19.5C338 20.8807 339.119 22 340.5 22Z" fill="white"/>
<path d="M331.961 19.0588C331.478 19.1655 331.037 19.4131 330.695 19.7704C330.353 20.1277 330.124 20.5785 330.038 21.0657C329.952 21.553 330.013 22.0548 330.212 22.5076C330.411 22.9604 330.741 23.3439 331.158 23.6094C331.576 23.875 332.063 24.0107 332.557 23.9993C333.052 23.988 333.532 23.8302 333.937 23.5458C334.342 23.2613 334.653 22.8632 334.832 22.4017C335.01 21.9402 335.048 21.4362 334.939 20.9533C334.795 20.3077 334.4 19.7457 333.842 19.3906C333.283 19.0354 332.607 18.9161 331.961 19.0588V19.0588Z" fill="white"/>
<path d="M322.952 21.0628C322.469 21.1711 322.03 21.42 321.689 21.7778C321.348 22.1357 321.121 22.5865 321.037 23.0734C320.952 23.5602 321.014 24.0611 321.214 24.5129C321.414 24.9647 321.744 25.347 322.161 25.6116C322.579 25.8761 323.065 26.0111 323.56 25.9993C324.054 25.9875 324.533 25.8296 324.938 25.5455C325.342 25.2613 325.653 24.8637 325.831 24.4029C326.01 23.9421 326.048 23.4388 325.94 22.9566C325.87 22.6353 325.736 22.3312 325.548 22.0618C325.359 21.7924 325.119 21.563 324.841 21.3869C324.563 21.2108 324.253 21.0915 323.929 21.0359C323.604 20.9802 323.272 20.9894 322.952 21.0628V21.0628Z" fill="white"/>
<path d="M364.5 16C365.328 16 366 15.3284 366 14.5C366 13.6716 365.328 13 364.5 13C363.672 13 363 13.6716 363 14.5C363 15.3284 363.672 16 364.5 16Z" fill="#26566C"/>
<path d="M357.961 16.1621C358.028 16.4519 358.008 16.7551 357.902 17.0331C357.796 17.3111 357.61 17.5514 357.368 17.7235C357.125 17.8956 356.837 17.9916 356.54 17.9995C356.242 18.0073 355.949 17.9266 355.698 17.7675C355.447 17.6085 355.248 17.3783 355.128 17.1063C355.008 16.8342 354.971 16.5326 355.023 16.2396C355.074 15.9467 355.212 15.6758 355.418 15.4612C355.624 15.2466 355.889 15.0982 356.18 15.0346C356.565 14.9503 356.968 15.0214 357.302 15.2324C357.636 15.4435 357.873 15.7776 357.961 16.1621V16.1621Z" fill="#26566C"/>
<path d="M348.5 19C349.328 19 350 18.3284 350 17.5C350 16.6716 349.328 16 348.5 16C347.672 16 347 16.6716 347 17.5C347 18.3284 347.672 19 348.5 19Z" fill="#26566C"/>
<path d="M340.5 21C341.328 21 342 20.3284 342 19.5C342 18.6716 341.328 18 340.5 18C339.672 18 339 18.6716 339 19.5C339 20.3284 339.672 21 340.5 21Z" fill="#26566C"/>
<path d="M332.5 23C333.328 23 334 22.3284 334 21.5C334 20.6716 333.328 20 332.5 20C331.672 20 331 20.6716 331 21.5C331 22.3284 331.672 23 332.5 23Z" fill="#26566C"/>
<path d="M323.5 25C324.328 25 325 24.3284 325 23.5C325 22.6716 324.328 22 323.5 22C322.672 22 322 22.6716 322 23.5C322 24.3284 322.672 25 323.5 25Z" fill="#26566C"/>
<path d="M339 33.2886L339.605 35.7464L343.406 36L356 33.4373L355.155 30L339 33.2886Z" fill="#26566C"/>
<path d="M351.958 30.3442C352.061 30.7883 351.973 31.2525 351.712 31.6356C351.452 32.0187 351.041 32.2896 350.568 32.3891L319.224 38.9589C318.99 39.008 318.748 39.0132 318.511 38.9741C318.275 38.935 318.049 38.8525 317.847 38.7313C317.644 38.6101 317.469 38.4525 317.332 38.2677C317.195 38.0829 317.098 37.8744 317.046 37.6542V37.6542C316.992 37.4348 316.986 37.2076 317.026 36.9857C317.066 36.7638 317.153 36.5516 317.282 36.3614C317.41 36.1712 317.577 36.0068 317.774 35.8777C317.97 35.7486 318.192 35.6574 318.426 35.6093L349.77 29.0395C350.244 28.9427 350.74 29.0254 351.15 29.2697C351.559 29.514 351.85 29.9001 351.958 30.3442Z" fill="white"/>
<path opacity="0.3" d="M172 107C172 107 195.68 70.3059 243 45" stroke="white" stroke-width="2" stroke-miterlimit="10" stroke-dasharray="10 10"/>
<mask id="mask0_102_597" style="mask-type:alpha" maskUnits="userSpaceOnUse" x="257" y="0" width="56" height="30">
<g clip-path="url(#clip0_102_597)">
<path d="M312.56 20.52C311.56 21.26 290.87 19.45 290.87 19.45L264.37 0L257 1.64001L271.39 29.73L312.56 20.52Z" fill="white"/>
</g>
</mask>
<g mask="url(#mask0_102_597)">
<path d="M305.319 -16.8477L244 -3.0625L252.144 33.1636L313.463 19.3784L305.319 -16.8477Z" fill="white"/>
<path d="M306.55 -11.3776L245.289 2.39441L245.933 5.25684L307.193 -8.51514L306.55 -11.3776Z" fill="#CE1C31"/>
<path d="M307.809 -5.77626L246.548 7.99573L247.191 10.8582L308.452 -2.91383L307.809 -5.77626Z" fill="#CE1C31"/>
<path d="M309.067 -0.177616L247.806 13.5944L248.45 16.4568L309.71 2.68481L309.067 -0.177616Z" fill="#CE1C31"/>
<path d="M310.325 5.42113L249.065 19.1931L249.708 22.0555L310.969 8.28356L310.325 5.42113Z" fill="#CE1C31"/>
<path d="M311.596 11.0317L250.335 24.8037L250.978 27.6661L312.239 13.8942L311.596 11.0317Z" fill="#CE1C31"/>
<path d="M312.854 16.6305L251.593 30.4025L252.237 33.2649L313.498 19.4929L312.854 16.6305Z" fill="#CE1C31"/>
<path d="M273.976 -10.0219L246.373 -3.81628L250.798 15.8688L278.402 9.6632L273.976 -10.0219Z" fill="#3A3871"/>
<path d="M270.836 -2.23633L270.764 -1.38262L269.923 -1.19024L270.716 -0.841538L270.632 0.0121688L271.197 -0.637129L271.991 -0.288433L271.546 -1.03392L272.111 -1.68322L271.281 -1.49084L270.836 -2.23633Z" fill="white"/>
<path d="M271.726 1.70764L271.654 2.57337L270.812 2.75374L271.606 3.10243L271.522 3.95614L272.087 3.31887L272.881 3.65554L272.436 2.91005L273.001 2.26075L272.171 2.45313L271.726 1.70764Z" fill="white"/>
<path d="M272.616 5.65149L272.532 6.51722L271.702 6.69758L272.484 7.04628L272.412 7.91201L272.977 7.26271L273.758 7.59939L273.325 6.85389L273.891 6.20459L273.049 6.39698L272.616 5.65149Z" fill="white"/>
<path d="M266.231 -1.20227L266.147 -0.348561L265.317 -0.156177L266.099 0.19252L266.027 1.04623L266.592 0.396929L267.373 0.745627L266.941 0.000134945L267.506 -0.649163L266.664 -0.456778L266.231 -1.20227Z" fill="white"/>
<path d="M267.121 2.7417L267.037 3.60743L266.207 3.78779L266.989 4.13649L266.917 5.00222L267.482 4.35292L268.263 4.68959L267.83 3.9441L268.396 3.2948L267.554 3.48719L267.121 2.7417Z" fill="white"/>
<path d="M267.999 6.68555L267.927 7.55128L267.085 7.74366L267.878 8.08034L267.794 8.94607L268.359 8.29677L269.153 8.64547L268.708 7.89997L269.273 7.25068L268.444 7.43104L267.999 6.68555Z" fill="white"/>
<path d="M261.614 -0.168213L261.542 0.697518L260.7 0.877881L261.494 1.22658L261.41 2.09231L261.975 1.44301L262.768 1.77969L262.323 1.03419L262.889 0.396917L262.059 0.57728L261.614 -0.168213Z" fill="white"/>
<path d="M262.504 3.77576L262.432 4.64149L261.59 4.82185L262.383 5.17055L262.299 6.03628L262.864 5.38698L263.658 5.72365L263.213 4.97816L263.778 4.34089L262.949 4.52125L262.504 3.77576Z" fill="white"/>
<path d="M263.393 7.7196L263.309 8.58534L262.48 8.77772L263.261 9.11439L263.189 9.98013L263.754 9.33083L264.536 9.67953L264.103 8.93403L264.668 8.28474L263.826 8.4651L263.393 7.7196Z" fill="white"/>
<path d="M257.009 0.865967L256.925 1.7317L256.095 1.92408L256.876 2.26076L256.804 3.12649L257.369 2.47719L258.151 2.82589L257.718 2.0804L258.283 1.4311L257.442 1.61146L257.009 0.865967Z" fill="white"/>
<path d="M257.899 4.80981L257.814 5.67555L256.985 5.86793L257.766 6.2046L257.694 7.07034L258.259 6.42104L259.041 6.76974L258.608 6.02424L259.173 5.37495L258.331 5.55531L257.899 4.80981Z" fill="white"/>
<path d="M258.776 8.76575L258.704 9.61945L257.862 9.81184L258.656 10.1485L258.572 11.0142L259.137 10.3649L259.931 10.7136L259.486 9.96815L260.051 9.31885L259.221 9.51124L258.776 8.76575Z" fill="white"/>
<path d="M273.542 -0.829468L273.47 0.0362634L272.64 0.228648L273.422 0.565323L273.349 1.43105L273.915 0.781754L274.696 1.13045L274.263 0.38496L274.828 -0.264338L273.987 -0.0839776L273.542 -0.829468Z" fill="white"/>
<path d="M274.432 3.12646L274.359 3.98017L273.518 4.17256L274.311 4.50923L274.227 5.37496L274.792 4.72566L275.586 5.07436L275.141 4.32887L275.706 3.67957L274.876 3.85993L274.432 3.12646Z" fill="white"/>
<path d="M275.321 7.07031L275.249 7.92402L274.407 8.1164L275.201 8.4651L275.117 9.31881L275.682 8.66951L276.476 9.01821L276.031 8.27272L276.596 7.62342L275.766 7.8158L275.321 7.07031Z" fill="white"/>
<path d="M268.997 0.192627L268.925 1.05836L268.083 1.25075L268.876 1.58742L268.792 2.45315L269.357 1.80385L270.151 2.15255L269.706 1.40706L270.271 0.757759L269.442 0.938119L268.997 0.192627Z" fill="white"/>
<path d="M269.886 4.14844L269.802 5.00214L268.973 5.19453L269.754 5.5312L269.682 6.39693L270.247 5.74764L271.041 6.09633L270.596 5.35084L271.161 4.70154L270.319 4.89393L269.886 4.14844Z" fill="white"/>
<path d="M270.776 8.09241L270.692 8.94611L269.862 9.1385L270.644 9.4872L270.572 10.3409L271.137 9.69161L271.919 10.0403L271.486 9.29481L272.051 8.64551L271.209 8.8379L270.776 8.09241Z" fill="white"/>
<path d="M264.331 1.25073L264.247 2.10444L263.418 2.29682L264.199 2.64552L264.127 3.49923L264.692 2.84993L265.474 3.19863L265.041 2.45314L265.606 1.80384L264.764 1.99622L264.331 1.25073Z" fill="white"/>
<path d="M265.209 5.19458L265.137 6.06031L264.295 6.24067L265.089 6.58937L265.005 7.44308L265.57 6.79378L266.363 7.14248L265.919 6.39699L266.484 5.74769L265.654 5.94007L265.209 5.19458Z" fill="white"/>
<path d="M266.099 9.13843L266.027 10.0042L265.185 10.1845L265.979 10.5332L265.895 11.399L266.46 10.7497L267.253 11.0863L266.808 10.3408L267.374 9.69154L266.532 9.88392L266.099 9.13843Z" fill="white"/>
<path d="M258.86 -1.67114L258.776 -0.805411L257.947 -0.613027L258.728 -0.276352L258.656 0.589379L259.221 -0.0599189L260.003 0.288777L259.57 -0.456713L260.135 -1.10601L259.293 -0.92565L258.86 -1.67114Z" fill="white"/>
<path d="M259.75 2.27271L259.666 3.13844L258.836 3.33082L259.618 3.6675L259.546 4.53323L260.111 3.88393L260.892 4.23263L260.46 3.48713L261.025 2.83783L260.183 3.0182L259.75 2.27271Z" fill="white"/>
<path d="M260.628 6.21667L260.556 7.08241L259.714 7.27479L260.508 7.61146L260.424 8.4772L260.989 7.8279L261.782 8.1766L261.337 7.4311L261.902 6.78181L261.073 6.97419L260.628 6.21667Z" fill="white"/>
<path d="M261.518 10.1725L261.446 11.0262L260.604 11.2186L261.398 11.5673L261.313 12.421L261.878 11.7717L262.672 12.1204L262.227 11.3749L262.792 10.7256L261.963 10.918L261.518 10.1725Z" fill="white"/>
<path d="M256.047 7.25073L255.975 8.11646L255.133 8.29682L255.927 8.64552L255.854 9.51125L256.408 8.86196L257.201 9.19863L256.756 8.45314L257.321 7.80384L256.492 7.99622L256.047 7.25073Z" fill="white"/>
<path d="M256.937 11.1946L256.864 12.0603L256.023 12.2527L256.816 12.5894L256.732 13.4551L257.297 12.8058L258.091 13.1545L257.646 12.409L258.211 11.7597L257.381 11.9401L256.937 11.1946Z" fill="white"/>
</g>
<defs>
<clipPath id="clip0_102_597">
<rect width="55.56" height="29.74" fill="white" transform="translate(257)"/>
</clipPath>
</defs>
</svg>
