<svg viewBox="0 0 5422 615" class="w-auto h-8 mt-5 ml-5"><defs><path id="trustpilot_svg__a" d="M0 0h235v470H0z"></path><path id="trustpilot_svg__c" d="M0 0h235v470H0z"></path></defs><g fill="none" fill-rule="evenodd"><g fill-rule="nonzero"><path d="M657.5 217.917h252.917V265h-99.584v265.417H756.25V265h-99.167l.417-47.083zm242.083 86.25h46.667v43.75h.833c1.667-6.25 4.584-12.084 8.75-17.917 4.167-5.833 9.167-11.25 15.417-15.833 5.833-5 12.5-8.75 20-11.667 7.083-2.917 14.583-4.583 22.083-4.583 5.834 0 10 .416 12.084.416 2.083.417 4.583.834 6.666.834v47.916c-3.333-.833-7.083-1.25-10.833-1.666-3.75-.417-7.083-.834-10.833-.834-8.334 0-16.25 1.667-23.75 5-7.5 3.334-13.75 8.334-19.584 14.584-5.416 6.666-10 14.583-13.333 24.166-3.333 9.584-5 20.834-5 33.334v107.5h-50l.833-225zm361.667 226.25h-49.167V498.75h-.833c-6.25 11.667-15.417 20.417-27.5 27.5-12.083 7.083-24.583 10.417-37.083 10.417-29.584 0-51.25-7.084-64.584-22.084-13.333-14.583-20-37.083-20-66.666v-143.75h50v138.75c0 20 3.75 34.166 11.667 42.083 7.5 8.333 18.333 12.5 32.083 12.5 10.417 0 19.167-1.667 26.25-5 7.084-3.333 12.917-7.5 17.084-12.917 4.583-5.416 7.5-12.083 9.583-19.583 2.083-7.5 2.917-15.833 2.917-24.583v-131.25h50v226.25h-.417zm85-72.5c1.667 14.583 7.083 24.583 16.667 30.833 9.583 5.833 21.25 8.75 34.583 8.75 4.583 0 10-.417 15.833-1.25 5.834-.833 11.667-2.083 16.667-4.167 5.417-2.083 9.583-5 12.917-9.166 3.333-4.167 5-9.167 4.583-15.417-.417-6.25-2.5-11.667-7.083-15.833-4.584-4.167-10-7.084-16.667-10-6.667-2.5-14.583-4.584-23.333-6.25-8.75-1.667-17.5-3.75-26.667-5.834-9.167-2.083-18.333-4.583-27.083-7.5-8.75-2.916-16.25-6.666-23.334-12.083-6.666-5-12.5-11.25-16.25-19.167-4.166-7.916-6.25-17.083-6.25-28.75 0-12.5 2.917-22.5 9.167-30.833 5.833-8.333 13.75-15 22.917-20 9.166-5 19.583-8.75 30.833-10.833 11.25-2.084 22.083-2.917 32.083-2.917 11.667 0 22.917 1.25 33.334 3.75 10.416 2.5 20.416 6.25 28.75 12.083 8.75 5.417 15.833 12.917 21.25 21.667 5.833 8.75 9.166 19.583 10.833 32.083h-52.083c-2.5-12.083-7.917-20-16.25-24.166-8.75-4.167-18.334-6.25-29.584-6.25-3.333 0-7.916.416-12.5.833-5 .833-9.166 1.667-13.75 3.333-4.166 1.667-7.916 4.167-10.833 7.084-2.917 2.916-4.583 7.083-4.583 12.083 0 6.25 2.083 10.833 6.25 14.583 4.166 3.75 9.583 6.667 16.666 9.584 6.667 2.5 14.584 4.583 23.334 6.25 8.75 1.666 17.916 3.75 27.083 5.833 9.167 2.083 17.917 4.583 26.667 7.5s16.666 6.667 23.333 12.083c6.667 5 12.5 11.25 16.667 18.75 4.166 7.5 6.25 17.084 6.25 27.917 0 13.333-2.917 24.583-9.167 34.167-6.25 9.166-14.167 17.083-23.75 22.916-9.583 5.834-20.833 10-32.5 12.917-12.083 2.5-23.75 4.167-35.417 4.167-14.166 0-27.5-1.667-39.583-5-12.083-3.334-22.917-8.334-31.667-14.584-8.75-6.666-15.833-14.583-20.833-24.583-5-9.583-7.917-21.25-8.333-35h50.416v.417h.417zm164.583-153.75h37.917v-68.334h50v67.917h45v37.083h-45v120.834c0 5.416.417 9.583.833 13.75.417 3.75 1.667 7.083 2.917 9.583 1.667 2.5 4.167 4.583 7.083 5.833 3.334 1.25 7.5 2.084 13.334 2.084 3.333 0 7.083 0 10.416-.417 3.334-.417 7.084-.833 10.417-1.667v38.75c-5.417.834-10.833 1.25-16.25 1.667-5.417.833-10.417.833-16.25.833-13.333 0-23.75-1.25-31.667-3.75-7.916-2.5-14.166-6.25-18.75-10.833-4.583-5-7.5-10.833-9.166-17.917-1.667-7.083-2.5-15.833-2.917-25V341.25h-37.917v-37.917.834zm167.917 0h47.083V335h.834c7.083-13.333 16.666-22.5 29.166-28.333 12.5-5.834 25.834-8.75 40.834-8.75 17.916 0 33.333 2.916 46.666 9.583 13.334 6.25 24.167 14.583 32.917 25.833 8.75 10.834 15.417 23.75 19.583 38.334 4.167 14.583 6.667 30.416 6.667 46.666 0 15.417-2.083 30-5.833 44.167-4.167 14.167-10 27.083-17.917 37.917-7.917 10.833-17.917 19.583-30.417 26.25-12.5 6.666-26.666 10-43.333 10-7.083 0-14.583-.834-21.667-2.084-7.083-1.25-14.166-3.333-20.833-6.25-6.667-2.916-12.917-6.666-18.333-11.25-5.834-4.583-10.417-10-14.167-15.833h-.833v112.917h-50v-310h-.417zM1853.333 417.5c0-10-1.25-20-4.166-29.583-2.5-9.584-6.667-17.917-12.084-25.417-5.416-7.5-12.083-13.333-19.583-17.917-7.917-4.583-17.083-6.666-27.083-6.666-20.834 0-36.667 7.083-47.5 21.666-10.417 14.584-15.834 34.167-15.834 58.334 0 11.666 1.25 22.083 4.167 31.666 2.917 9.584 6.667 17.917 12.5 25 5.417 7.084 12.083 12.5 20 16.667 7.917 4.167 16.667 6.25 27.083 6.25 11.667 0 20.834-2.5 28.75-7.083 7.917-4.584 14.167-10.834 19.584-17.917 5-7.5 8.75-15.833 10.833-25.417 2.083-10 3.333-19.583 3.333-29.583zm87.917-199.583h50V265h-50v-47.083zm0 86.25h50v226.25h-50v-226.25zm94.583-86.25h50v312.5h-50v-312.5zm202.5 318.75c-17.916 0-34.166-2.917-48.333-9.167-14.167-6.25-25.833-14.167-35.833-24.583-9.584-10.417-17.084-23.334-22.084-37.917-5-14.583-7.916-30.833-7.916-47.917 0-17.083 2.5-32.916 7.916-47.5 5-14.583 12.5-27.083 22.084-37.916 9.583-10.417 21.666-18.75 35.833-24.584 14.167-5.833 30.417-9.166 48.333-9.166 17.917 0 34.167 2.916 48.334 9.166 14.166 5.834 25.833 14.167 35.833 24.584 9.583 10.416 17.083 23.333 22.083 37.916a145.58 145.58 0 017.917 47.5c0 17.5-2.5 33.334-7.917 47.917-5.416 14.583-12.5 27.083-22.083 37.917-9.583 10.416-21.667 18.75-35.833 24.583-14.167 5.833-30 9.167-48.334 9.167zm0-39.584c10.834 0 20.834-2.5 28.75-7.083 8.334-4.583 14.584-10.833 20-18.333 5.417-7.5 9.167-16.25 11.667-25.417 2.5-9.583 3.75-19.167 3.75-29.167 0-9.583-1.25-19.166-3.75-28.75-2.5-9.583-6.25-17.916-11.667-25.416-5.416-7.5-12.083-13.334-20-17.917-8.333-4.583-17.916-7.083-28.75-7.083-10.833 0-20.833 2.5-28.75 7.083-8.333 4.583-14.583 10.833-20 17.917-5.416 7.5-9.166 15.833-11.666 25.416-2.5 9.584-3.75 19.167-3.75 28.75 0 10 1.25 19.584 3.75 29.167 2.5 9.583 6.25 17.917 11.666 25.417 5.417 7.5 12.084 13.75 20 18.333 8.334 5 17.917 7.083 28.75 7.083zM2367.5 304.167h37.917v-68.334h50v67.917h45v37.083h-45v120.834c0 5.416.416 9.583.833 13.75.417 3.75 1.667 7.083 2.917 9.583 1.666 2.5 4.166 4.583 7.083 5.833 3.333 1.25 7.5 2.084 13.333 2.084 3.334 0 7.084 0 10.417-.417s7.083-.833 10.417-1.667v38.75c-5.417.834-10.834 1.25-16.25 1.667-5.417.833-10.417.833-16.25.833-13.334 0-23.75-1.25-31.667-3.75-7.917-2.5-14.167-6.25-18.75-10.833-4.583-5-7.5-10.833-9.167-17.917-1.666-7.083-2.5-15.833-2.916-25V341.25H2367.5v-37.917.834z" fill="#000"></path><path fill="#00B67A" d="M599.166 217.916h-228.75L300 .416l-70.834 217.5L.416 217.5l185 134.583-70.833 217.5 185-134.583 185 134.583-70.417-217.5z"></path><path fill="#005128" d="M430 401.25l-15.834-49.167L300 435z"></path></g><path d="M3397 72v470h-470V72h470zm-234.386 79l-38.92 119.61-125.694-.23 101.653 74.01-38.92 119.61 101.653-74.011L3264.039 464l-32.17-99.444 2.131 6.72L3163 390l62.353-46 .098.314L3327 270.609h-125.693L3162.614 151zM3903 72v470h-470V72h470zm-234.386 79l-38.92 119.61-125.694-.23 101.653 74.01-38.92 119.61 101.653-74.011L3770.039 464l-32.17-99.444 2.131 6.72L3669 390l62.353-46 .098.314L3833 270.609h-125.693L3668.614 151zM4409 72v470h-470V72h470zm-234.386 79l-38.92 119.61-125.694-.23 101.653 74.01-38.92 119.61 101.653-74.011L4276.039 464l-32.17-99.444 2.131 6.72L4175 390l62.353-46 .098.314L4339 270.609h-125.693L4174.614 151zM4915 72v470h-470V72h470zm-234.386 79l-38.92 119.61-125.694-.23 101.653 74.01-38.92 119.61 101.653-74.011L4782.039 464l-32.17-99.444 2.131 6.72L4681 390l62.353-46 .098.314L4845 270.609h-125.693L4680.614 151z" fill="#04B67A"></path><g transform="translate(4951 72)"><mask id="trustpilot_svg__b" fill="#fff"><use xlink:href="#trustpilot_svg__a"></use></mask><path d="M470 0v470H0V0h470zM235.614 79l-38.92 119.61L71 198.38l101.653 74.01L133.733 392l101.653-74.011L337.039 392l-32.17-99.444 2.131 6.72L236 318l62.353-46 .098.314L400 198.609H274.307L235.614 79z" fill="#04B67A" mask="url(#trustpilot_svg__b)"></path></g><g transform="translate(5186 72)"><mask id="trustpilot_svg__d" fill="#fff"><use xlink:href="#trustpilot_svg__c"></use></mask><path d="M235 0v470h-470V0h470zM.614 79l-38.92 119.61-125.694-.23 101.653 74.01-38.92 119.61L.385 317.989 102.039 392l-32.17-99.444 2.131 6.72L1 318l62.353-46 .098.314L165 198.609H39.307L.614 79z" fill="#DCDCE6" mask="url(#trustpilot_svg__d)"></path></g></g></svg>