<svg viewBox="0 0 1200 26" class="absolute bottom-0 left-0 right-0 z-0 -mx-8 -mb-px fill-white" style="width:calc(100% + 4rem)"><path d="M1200 0v26H0V0c0 13.807 11.193 25 25 25S50 13.807 50 0c0 13.807 11.193 25 25 25s25-11.193 25-25c0 13.807 11.193 25 25 25s25-11.193 25-25c0 13.807 11.193 25 25 25s25-11.193 25-25c0 13.807 11.193 25 25 25s25-11.193 25-25c0 13.807 11.193 25 25 25s25-11.193 25-25c0 13.807 11.193 25 25 25s25-11.193 25-25c0 13.807 11.193 25 25 25s25-11.193 25-25c0 13.807 11.193 25 25 25s25-11.193 25-25c0 13.807 11.193 25 25 25s25-11.193 25-25c0 13.807 11.193 25 25 25s25-11.193 25-25c0 13.807 11.193 25 25 25s25-11.193 25-25c0 13.807 11.193 25 25 25s25-11.193 25-25c0 13.807 11.193 25 25 25s25-11.193 25-25c0 13.807 11.193 25 25 25s25-11.193 25-25c0 13.807 11.193 25 25 25s25-11.193 25-25c0 13.807 11.193 25 25 25s25-11.193 25-25c0 13.807 11.193 25 25 25s25-11.193 25-25c0 13.807 11.193 25 25 25s25-11.193 25-25c0 13.807 11.193 25 25 25s25-11.193 25-25c0 13.807 11.193 25 25 25s25-11.193 25-25c0 13.807 11.193 25 25 25s25-11.193 25-25c0 13.807 11.193 25 25 25s25-11.193 25-25c0 13.807 11.193 25 25 25 13.669 0 24.776-10.97 24.997-24.587L1200 0z" fill="currentColor" fill-rule="evenodd"></path></svg>