<svg viewBox="0 0 1201 13" class="absolute top-0 left-0 right-0 z-10 w-full -mx-8 -mt-px text-blue-50" style="width:calc(100% + 4rem)"><path d="M.719 0h1200v7c-35.7.659-61.366.659-77 0-52.59-2.215-95.155-6.956-131-7-49.257-.06-198.99 7.27-225 7-49.626-.514-88.678-6.988-117-7-88.461-.039-132.35 7.209-176 7-87.18-.417-158.48 1.407-196 0-26.588-.997-104.583 5.985-122 6-13.85.012-30.055-6.014-42-6-21.827.025-46.777 6-67 6-19.149 0-34.816-2-47-6V0z" fill="currentColor" fill-rule="evenodd"></path></svg>