<svg width="149" height="28" class="inline-block transform-none md:transform md:origin-left md:scale-50 lg:transform-none"><path d="M117.913 5.788c-1.18-.808-2.955-1.21-5.326-1.21-2.112 0-3.74.488-4.883 1.46-1.017.852-1.607 1.933-1.775 3.246h4.25c.21-.466.546-.781 1.01-.95a4.671 4.671 0 011.587-.254c.552 0 1.154.097 1.809.288.654.19.984.602.984 1.237 0 .853-.93 1.4-2.793 1.656-.38.043-.715.098-1.012.158a3.628 3.628 0 01-.764.098c-1.601.255-2.928.764-3.962 1.525-1.033.765-1.554 2.036-1.554 3.817 0 1.911.57 3.28 1.711 4.104 1.142.831 2.474 1.244 3.995 1.244.763 0 1.64-.055 2.636-.157a7.866 7.866 0 002.82-.863c.844-.425 1.576-1.114 2.187-2.07.612-.95.92-2.28.92-3.974V9.35c0-1.526-.611-2.715-1.84-3.562zm-2.279 9.165c0 1.19-.336 2.118-1.012 2.797-.677.678-1.608 1.02-2.793 1.02-.72 0-1.267-.168-1.65-.51-.38-.38-.57-.891-.57-1.526 0-.467.147-.934.444-1.4.336-.337.888-.615 1.651-.826 0 0 .482-.109 1.456-.32 1.056-.256 1.884-.527 2.474-.825v1.59zm-13.754-8.91a9.543 9.543 0 00-5.137-1.46c-.931.044-1.83.179-2.696.412a5.59 5.59 0 00-2.253 1.179 6 6 0 00-2.537-1.271 12.849 12.849 0 00-2.853-.32c-1.819.087-3.481.613-4.98 1.59-1.5.977-2.252 2.906-2.252 5.789v9.924h4.44V11.071c0-1.015.297-1.759.886-2.226a3.182 3.182 0 012.03-.7c.764 0 1.451.233 2.063.7.612.467.92 1.21.92 2.226v10.815h4.379V11.071c0-1.015.31-1.759.92-2.226.613-.467 1.3-.7 2.063-.7a3.31 3.31 0 012.057.7c.612.467.92 1.21.92 2.226v8.655c0 .634.2 1.15.6 1.558.406.401.92.602 1.56.602h2.22v-9.924c0-2.97-.786-4.941-2.35-5.918zM121.467 0v21.886h4.439V2.102c0-.597-.212-1.092-.634-1.499a2.132 2.132 0 00-1.52-.603h-2.285zm21.517 11.517c-.173 0-.352-.023-.542-.066a8.542 8.542 0 01-.664-.19c-2.199-.467-3.297-1.043-3.297-1.72 0-.507.19-.891.569-1.147.426-.254 1.06-.38 1.905-.38.887 0 1.586.19 2.094.57.168.174.336.342.509.511.423.722 1.034 1.08 1.835 1.08h2.729c-.082-1.694-.736-3.074-1.965-4.137-1.31-.972-3.064-1.46-5.267-1.46-2.03 0-3.676.488-4.948 1.466-1.229 1.057-1.84 2.394-1.84 4.006 0 1.277.422 2.292 1.266 3.057.764.766 2.263 1.422 4.505 1.971.383.13.95.255 1.715.386 1.775.38 2.663.955 2.663 1.716 0 .51-.255.911-.763 1.21-.547.298-1.202.445-1.965.445-1.056 0-1.9-.211-2.539-.636-.59-.423-.908-1.063-.947-1.91h-4.314v.19c0 1.867.611 3.29 1.84 4.262 1.18.977 2.977 1.466 5.392 1.466 2.533 0 4.438-.467 5.705-1.401 1.353-1.015 2.03-2.46 2.03-4.327 0-1.271-.4-2.292-1.207-3.057-.845-.717-2.344-1.357-4.499-1.905zM127.742 0v21.886h4.439V2.102c0-.597-.212-1.092-.633-1.499A2.134 2.134 0 00130.026 0h-2.284zM67.656 4.828l3.437 12.029 2.991-10.495c.255-1.022.935-1.534 2.037-1.534h3.051l-6.489 19.389c-.51 1.403-1.145 2.408-1.906 3.003-.764.513-2.019.77-3.756.77-.618 0-1.236.01-1.846.01v-3.657h1.21c.848 0 1.515-.202 2.003-.607.49-.41.587-1.059.288-1.955L62.76 4.828h4.897zM59.44 6.295a9.546 9.546 0 00-5.147-1.467c-.933.044-1.833.179-2.701.414a5.575 5.575 0 00-2.257 1.183 5.998 5.998 0 00-2.542-1.276 12.817 12.817 0 00-2.858-.321c-1.822.087-3.487.616-4.99 1.597-1.502.981-2.255 2.918-2.255 5.813v9.969h4.446V11.344c0-1.02.298-1.767.89-2.235a3.179 3.179 0 012.033-.704c.766 0 1.454.234 2.067.704.612.468.922 1.215.922 2.235v10.863h4.386V11.344c0-1.02.31-1.767.923-2.235a3.31 3.31 0 012.066-.704 3.3 3.3 0 012.06.704c.613.468.923 1.215.923 2.235v8.692c0 .638.2 1.156.601 1.566.407.403.922.605 1.562.605h2.224v-9.969c0-2.982-.787-4.962-2.354-5.943M13.517 20.333c0 .513.167.955.497 1.322.336.368.744.552 1.236.552h16.612v-3.862H13.517v1.988m-6.758-6.759c0 .513.166.956.496 1.323a1.6 1.6 0 001.233.551h23.374v-3.862H6.76v1.988M0 6.815c0 .514.166.956.495 1.324.335.367.74.55 1.232.55h30.135v-3.86H0v1.987" fill="#FFF"></path></svg>