<svg width="843" height="661" viewBox="0 0 843 661" fill="none" xmlns="http://www.w3.org/2000/svg">
<g opacity="0.2">
<path opacity="0.2" d="M379.84 318.803C379.84 320.443 379.28 321.853 378.17 323.023C377.04 324.193 375.67 324.783 374.02 324.783H257.54V312.453H379.83V318.803" fill="#3BA5DD"/>
<path opacity="0.2" d="M402.68 296.343C402.68 297.983 402.12 299.393 401.01 300.563C399.88 301.733 398.51 302.323 396.86 302.323H257.54V289.993H402.68V296.343Z" fill="#3BA5DD"/>
<path opacity="0.2" d="M425.62 273.873C425.62 275.513 425.06 276.923 423.95 278.093C422.82 279.263 421.45 279.853 419.8 279.853H257.54V267.523H425.62V273.873Z" fill="#3BA5DD"/>
</g>
<path d="M170.11 238.333V402.803C99.0599 402.803 38.5299 357.732 15.5399 294.622C9.13989 277.062 5.63989 258.093 5.63989 238.333H170.11V238.333Z" fill="#3BA5DD"/>
<path d="M171.55 239.062L170.94 393.672C103.48 393.672 46.0099 350.882 24.1799 290.962C18.0999 274.282 13.6199 257.442 13.6199 238.672L171.55 239.062Z" fill="white"/>
<path d="M171.34 238.333V384.062C107.86 384.062 53.7699 343.792 33.2299 287.402C27.5099 271.712 24.3899 255.993 24.3899 238.333H171.34Z" fill="#3BA5DD"/>
<path d="M169.95 239.062V373.523C111.86 373.523 62.37 336.683 43.58 285.083C38.34 270.723 35.49 255.222 35.49 239.062H169.95V239.062Z" fill="white"/>
<path d="M171.34 238.333V364.013C117.05 364.013 70.7899 329.573 53.2199 281.353C48.3199 267.933 45.6499 253.443 45.6499 238.333H171.34V238.333Z" fill="#3BA5DD"/>
<path d="M334.6 238.333C334.6 258.103 331.1 277.062 324.7 294.622C301.71 357.732 241.18 402.803 170.11 402.803V238.333H334.6Z" fill="#3BA5DD"/>
<path d="M369.42 203.593L334.57 168.743L369.43 133.883C388.67 153.123 388.67 184.343 369.42 203.593Z" fill="#29576D"/>
<path d="M439.13 203.593L404.27 238.453L369.41 203.593C388.67 184.333 419.88 184.333 439.13 203.593Z" fill="#3BA5DD"/>
<path d="M404.28 238.443C385.03 257.683 353.82 257.683 334.57 238.433L369.42 203.583L404.28 238.443Z" fill="#29576D"/>
<path d="M334.57 168.733L369.42 203.583L334.57 238.433C315.32 219.183 315.32 187.973 334.57 168.733Z" fill="#3BA5DD"/>
<path d="M170.11 238.333H283.87C283.87 252.003 281.44 265.113 277.02 277.263C261.12 320.903 219.26 352.073 170.11 352.073C120.97 352.073 79.1101 320.893 63.2101 277.263C58.7901 265.113 56.3701 252.003 56.3701 238.333H170.11Z" fill="#29576D"/>
<path d="M30.9901 263.703C16.9701 263.713 5.60011 252.353 5.61011 238.333H56.3701C56.3601 252.353 45.0101 263.703 30.9901 263.703Z" fill="#29576D"/>
<path d="M75.29 267.303C75.29 279.293 85.01 289.023 96.99 289.023C108.98 289.023 118.7 279.303 118.7 267.303C118.7 255.323 108.98 245.603 96.99 245.603C85.01 245.603 75.29 255.323 75.29 267.303Z" fill="white"/>
<path d="M93.2 273.043C93.2 278.813 97.8699 283.483 103.63 283.483C109.4 283.483 114.07 278.803 114.07 273.043C114.07 267.283 109.4 262.613 103.63 262.613C97.8799 262.613 93.2 267.283 93.2 273.043Z" fill="#29576D"/>
<path d="M45.29 214.663C45.29 220.793 50.25 225.743 56.37 225.743C62.48 225.743 67.44 220.783 67.44 214.663C67.44 208.553 62.48 203.593 56.37 203.593C50.26 203.593 45.29 208.543 45.29 214.663Z" fill="#3BA5DD"/>
<path d="M19.8501 189.213C19.8501 195.323 24.8101 200.293 30.9301 200.293C37.0501 200.293 42.0101 195.333 42.0101 189.213C42.0101 183.093 37.0501 178.133 30.9301 178.133C24.8101 178.133 19.8501 183.093 19.8501 189.213Z" fill="#3BA5DD"/>
<path d="M104.53 214.563C104.53 217.613 107.01 220.103 110.07 220.103C113.13 220.103 115.61 217.613 115.61 214.563C115.61 211.503 113.13 209.023 110.07 209.023C107.01 209.033 104.53 211.503 104.53 214.563Z" fill="#3BA5DD"/>
<path d="M0 214.593C0 217.653 2.48 220.133 5.54 220.133C8.6 220.133 11.08 217.653 11.08 214.593C11.08 211.543 8.6 209.053 5.54 209.053C2.48 209.053 0 211.533 0 214.593Z" fill="#3BA5DD"/>
<path d="M84.6999 198.033C94.6686 198.033 102.75 189.951 102.75 179.983C102.75 170.014 94.6686 161.933 84.6999 161.933C74.7312 161.933 66.6499 170.014 66.6499 179.983C66.6499 189.951 74.7312 198.033 84.6999 198.033Z" fill="#3BA5DD"/>
<path d="M92.79 179.803C95.568 179.803 97.82 177.551 97.82 174.773C97.82 171.995 95.568 169.743 92.79 169.743C90.012 169.743 87.76 171.995 87.76 174.773C87.76 177.551 90.012 179.803 92.79 179.803Z" fill="white"/>
<path d="M161.93 295.303L201.51 334.883C209.71 343.083 209.71 356.373 201.51 364.573L132.24 295.303C140.44 287.103 153.73 287.103 161.93 295.303Z" fill="white"/>
<path d="M132.24 295.303L201.51 364.573C193.31 372.773 180.02 372.773 171.82 364.573L132.24 324.983C124.04 316.793 124.04 303.493 132.24 295.303Z" fill="#3BA5DD"/>
<path d="M290.63 58.5826C222.74 37.4526 183.66 67.4326 183.66 67.4326L181.63 195.333C181.63 195.333 220.72 165.353 288.6 186.483C353.97 206.823 388.49 191.553 388.49 191.553L390.52 63.6526C390.52 63.6526 356 78.9326 290.63 58.5826Z" fill="#294493"/>
<path d="M285.42 156.083L286.88 160.663L291.57 160.733L288.2 163.193L289.04 168.093L285.27 165.263L281.41 167.903L282.41 163.103L279.16 160.523L283.84 160.593L285.42 156.083Z" fill="#F8E700"/>
<path d="M286.67 77.0425L288.14 81.6125L292.82 81.6825L289.46 84.1525L290.29 89.0525L286.53 86.2125L282.66 88.8525L283.66 84.0625L280.41 81.4725L285.09 81.5525L286.67 77.0425Z" fill="#F8E700"/>
<path d="M305.63 82.4224L307.09 87.0024L311.78 87.0724L308.41 89.5324L309.25 94.4324L305.48 91.6024L301.62 94.2424L302.62 89.4424L299.37 86.8624L304.05 86.9324L305.63 82.4224Z" fill="#F8E700"/>
<path d="M266.63 81.8125L268.1 86.3825L272.78 86.4525L269.42 88.9125L270.25 93.8125L266.49 90.9825L262.62 93.6225L263.62 88.8225L260.37 86.2425L265.05 86.3125L266.63 81.8125Z" fill="#F8E700"/>
<path d="M304.54 151.052L306.01 155.622L310.69 155.692L307.33 158.152L308.16 163.052L304.4 160.222L300.53 162.863L301.53 158.062L298.29 155.482L302.96 155.552L304.54 151.052Z" fill="#F8E700"/>
<path d="M265.54 150.432L267.01 155.003L271.69 155.072L268.33 157.542L269.17 162.442L265.4 159.602L261.53 162.242L262.54 157.442L259.29 154.863L263.96 154.932L265.54 150.432Z" fill="#F8E700"/>
<path d="M251.81 96.4924L253.28 101.072L257.96 101.142L254.6 103.602L255.43 108.502L251.67 105.672L247.8 108.302L248.8 103.512L245.56 100.922L250.23 101.002L251.81 96.4924Z" fill="#F8E700"/>
<path d="M320.45 97.5825L321.92 102.163L326.6 102.223L323.24 104.693L324.07 109.593L320.31 106.763L316.44 109.393L317.44 104.603L314.2 102.013L318.87 102.093L320.45 97.5825Z" fill="#F8E700"/>
<path d="M251.19 135.952L252.65 140.522L257.34 140.592L253.97 143.052L254.81 147.952L251.04 145.122L247.18 147.762L248.18 142.962L244.93 140.382L249.61 140.452L251.19 135.952Z" fill="#F8E700"/>
<path d="M319.83 137.032L321.29 141.612L325.98 141.682L322.61 144.142L323.45 149.042L319.68 146.212L315.82 148.842L316.82 144.052L313.57 141.472L318.25 141.542L319.83 137.032Z" fill="#F8E700"/>
<path d="M246.97 116.002L248.44 120.572L253.12 120.642L249.76 123.112L250.59 128.012L246.83 125.172L242.96 127.812L243.96 123.022L240.72 120.432L245.39 120.512L246.97 116.002Z" fill="#F8E700"/>
<path d="M325.17 117.242L326.63 121.812L331.31 121.882L327.95 124.352L328.79 129.242L325.02 126.412L321.16 129.052L322.16 124.252L318.91 121.672L323.59 121.742L325.17 117.242Z" fill="#F8E700"/>
<path d="M171.85 389.612L183.66 67.4324" stroke="#F6D873" stroke-width="8" stroke-miterlimit="10" stroke-linecap="round"/>
<path d="M161.93 295.303L201.51 334.883C209.71 343.083 209.71 356.373 201.51 364.573L132.24 295.303C140.44 287.103 153.73 287.103 161.93 295.303Z" fill="white"/>
<path d="M132.24 295.303L201.51 364.573C193.31 372.773 180.02 372.773 171.82 364.573L132.24 324.983C124.04 316.793 124.04 303.493 132.24 295.303Z" fill="#3BA5DD"/>
<g opacity="0.2">
<path opacity="0.2" d="M774.59 545.683C774.59 547.553 773.95 549.163 772.68 550.503C771.39 551.843 769.83 552.513 767.94 552.513H634.89V538.433H774.59V545.683" fill="#3BA5DD"/>
<path opacity="0.2" d="M800.69 520.022C800.69 521.892 800.05 523.502 798.78 524.842C797.49 526.182 795.93 526.852 794.04 526.852H634.89V512.772H800.69V520.022Z" fill="#3BA5DD"/>
<path opacity="0.2" d="M826.89 494.363C826.89 496.233 826.25 497.843 824.98 499.183C823.69 500.523 822.13 501.193 820.24 501.193H634.89V487.113H826.89V494.363Z" fill="#3BA5DD"/>
</g>
<path d="M535.02 453.753V641.633C453.86 641.633 384.71 590.153 358.45 518.063C351.13 498.003 347.14 476.343 347.14 453.753H535.02Z" fill="#3BA5DD"/>
<path d="M536.65 454.593L535.95 631.213C458.89 631.213 393.23 582.333 368.3 513.883C361.35 494.833 356.24 475.593 356.24 454.153L536.65 454.593Z" fill="white"/>
<path d="M536.42 453.763V620.233C463.9 620.233 402.11 574.233 378.65 509.813C372.11 491.883 368.55 473.923 368.55 453.753L536.42 453.763Z" fill="#3BA5DD"/>
<path d="M534.83 454.593V608.193C468.47 608.193 411.94 566.113 390.48 507.163C384.5 490.763 381.24 473.053 381.24 454.593H534.83Z" fill="white"/>
<path d="M536.42 453.763V597.333C474.4 597.333 421.56 557.993 401.49 502.903C395.9 487.573 392.85 471.013 392.85 453.763H536.42V453.763Z" fill="#3BA5DD"/>
<path d="M722.91 453.753C722.91 476.333 718.91 498.003 711.6 518.063C685.33 590.153 616.2 641.633 535.01 641.633V453.753H722.91Z" fill="#3BA5DD"/>
<path d="M762.69 414.073L722.87 374.263L762.69 334.433C784.68 356.423 784.68 392.083 762.69 414.073Z" fill="#29576D"/>
<path d="M842.33 414.073L802.51 453.893L762.69 414.073C784.68 392.073 820.34 392.073 842.33 414.073Z" fill="#3BA5DD"/>
<path d="M802.51 453.883C780.52 475.863 744.87 475.862 722.88 453.872L762.7 414.062L802.51 453.883Z" fill="#29576D"/>
<path d="M722.88 374.263L762.7 414.073L722.88 453.883C700.89 431.893 700.89 396.233 722.88 374.263Z" fill="#3BA5DD"/>
<path d="M535.02 453.753H664.97C664.97 469.373 662.2 484.353 657.15 498.223C638.99 548.073 591.16 583.683 535.02 583.683C478.89 583.683 431.06 548.073 412.9 498.223C407.85 484.343 405.09 469.373 405.09 453.753H535.02V453.753Z" fill="#29576D"/>
<path d="M376.09 482.743C360.07 482.753 347.09 469.773 347.1 453.753H405.09C405.07 469.773 392.1 482.743 376.09 482.743Z" fill="#29576D"/>
<path d="M426.7 486.853C426.7 500.553 437.8 511.663 451.48 511.663C465.18 511.663 476.28 500.553 476.28 486.853C476.28 473.163 465.18 462.063 451.48 462.063C437.8 462.073 426.7 473.163 426.7 486.853Z" fill="white"/>
<path d="M447.16 479.133C447.16 485.723 452.5 491.063 459.08 491.063C465.67 491.063 471.01 485.723 471.01 479.133C471.01 472.553 465.67 467.213 459.08 467.213C452.5 467.213 447.16 472.553 447.16 479.133Z" fill="#29576D"/>
<path d="M392.43 426.713C392.43 433.713 398.1 439.373 405.09 439.373C412.08 439.373 417.74 433.713 417.74 426.713C417.74 419.733 412.08 414.063 405.09 414.063C398.1 414.073 392.43 419.733 392.43 426.713Z" fill="#3BA5DD"/>
<path d="M363.36 397.653C363.36 404.633 369.03 410.303 376.02 410.303C383.01 410.303 388.67 404.633 388.67 397.653C388.67 390.663 383 384.993 376.02 384.993C369.03 384.993 363.36 390.663 363.36 397.653Z" fill="#3BA5DD"/>
<path d="M460.1 426.613C460.1 430.093 462.93 432.943 466.43 432.943C469.92 432.943 472.76 430.103 472.76 426.613C472.76 423.113 469.92 420.283 466.43 420.283C462.93 420.283 460.1 423.113 460.1 426.613Z" fill="#3BA5DD"/>
<path d="M340.7 426.643C340.7 430.143 343.53 432.973 347.03 432.973C350.52 432.973 353.36 430.143 353.36 426.643C353.36 423.153 350.53 420.313 347.03 420.313C343.53 420.313 340.7 423.153 340.7 426.643Z" fill="#3BA5DD"/>
<path d="M437.45 407.723C448.838 407.723 458.07 398.491 458.07 387.103C458.07 375.715 448.838 366.483 437.45 366.483C426.062 366.483 416.83 375.715 416.83 387.103C416.83 398.491 426.062 407.723 437.45 407.723Z" fill="#3BA5DD"/>
<path d="M446.69 386.903C449.866 386.903 452.44 384.328 452.44 381.153C452.44 377.977 449.866 375.403 446.69 375.403C443.514 375.403 440.94 377.977 440.94 381.153C440.94 384.328 443.514 386.903 446.69 386.903Z" fill="white"/>
<path d="M525.67 518.832L570.88 564.043C580.25 573.413 580.25 588.593 570.88 597.963L491.75 518.832C501.12 509.472 516.3 509.472 525.67 518.832Z" fill="white"/>
<path d="M491.75 518.833L570.88 597.963C561.52 607.323 546.33 607.323 536.96 597.963L491.75 552.743C482.38 543.383 482.38 528.203 491.75 518.833Z" fill="#3BA5DD"/>
<path d="M525.67 518.832L570.88 564.043C580.25 573.413 580.25 588.593 570.88 597.963L491.75 518.832C501.12 509.472 516.3 509.472 525.67 518.832Z" fill="white"/>
<path d="M491.75 518.833L570.88 597.963C561.52 607.323 546.33 607.323 536.96 597.963L491.75 552.743C482.38 543.383 482.38 528.203 491.75 518.833Z" fill="#3BA5DD"/>
<path d="M511.72 309.942L549.27 656.412" stroke="#F6D873" stroke-width="8" stroke-miterlimit="10" stroke-linecap="round"/>
<path d="M628.44 300.052C628.44 300.052 695.44 286.602 713.1 296.412L711.95 301.392L711.31 310.272L710.74 318.332L710.59 327.232L710.7 334.922L710.78 342.322L711.57 349.562L712.33 356.552L713.68 364.102L715.51 372.422L718 381.222L720.77 388.182L723.74 394.052C723.74 394.052 715.69 391.402 706.55 391.622C697.41 391.842 638.74 399.912 626.11 405.732C613.48 411.552 612.06 399.602 615.64 397.102C619.23 394.602 638.53 394.592 637.15 386.392C635.77 378.192 632.47 372.362 632.14 367.682C631.85 363.002 622.06 315.842 628.44 300.052Z" fill="url(#paint0_linear_1_618)"/>
<path d="M628.5 299.102C628.5 299.102 695.1 284.952 713.41 295.102L711.96 301.382C711.96 301.382 685.37 295.622 650.57 302.532C632.7 306.082 627.99 306.832 627.99 306.832C627.99 306.832 624.96 305.572 628.5 299.102Z" fill="#EA5C6F"/>
<path d="M628.55 315.632C628.55 315.632 684.36 302.612 711.32 310.262L710.75 318.322C710.75 318.322 672.49 311.492 628.82 325.192C628.82 325.202 627.14 317.892 628.55 315.632Z" fill="#EB6472"/>
<path d="M628.47 333.772C628.47 333.772 677.85 320.742 710.6 327.232L710.71 334.922C710.71 334.922 667.88 329.812 629.74 342.712L628.47 333.772Z" fill="#EB6472"/>
<path d="M630.17 349.342C630.17 349.342 674.8 337.792 710.8 342.322L711.59 349.562C711.59 349.562 669.7 345.092 631.04 357.322L630.17 349.342Z" fill="#EB6472"/>
<path d="M632.09 364.202C632.09 364.202 673.07 352.862 712.35 356.552L713.7 364.102C713.7 364.102 670.36 360.192 634.1 372.762L632.09 364.202Z" fill="#EB6472"/>
<path d="M635.69 380.582C635.69 380.582 672.96 368.552 715.53 372.422L718.02 381.222C718.02 381.222 680.99 375.182 638.35 388.682L635.69 380.582Z" fill="#EB6472"/>
<path d="M720.79 388.183L724.27 395.062C724.27 395.062 673.4 394.692 654.55 400.232C635.7 405.772 618.84 414.052 610.73 406.792C610.73 406.792 611.2 401.482 617.92 398.232C617.92 398.232 617.29 403.722 624.17 400.952C635.41 396.422 675.58 385.853 720.79 388.183Z" fill="#EA5C6F"/>
<path d="M632.33 384.962C632.33 384.962 632.08 386.802 629.4 388.452C624.58 391.422 609.96 392.272 609.36 399.452C609.36 399.452 610 405.162 610.67 406.792C610.67 406.792 612.06 401.082 617.04 398.842C622.02 396.592 630.19 394.412 633.08 393.392C637.61 391.782 638.94 388.592 638.3 387.412C638.29 387.412 636.16 384.692 632.33 384.962Z" fill="#EA5B70"/>
<path d="M595.94 288.722C595.94 288.722 617.59 287.302 627.16 293.042C627.16 293.042 628.73 294.172 628.65 296.202C628.56 298.232 628.14 305.552 627.82 306.262C627.82 306.262 628.85 309.032 628.56 315.292C628.28 321.552 628.64 323.012 628.72 323.802C628.8 324.602 629.08 329.602 629.05 330.072C629.02 330.542 629.27 335.802 629.38 336.682C629.48 337.562 630.94 350.732 630.94 350.732L631.96 360.102C631.96 360.102 632.55 362.592 632.44 364.492C632.44 364.492 634.07 371.642 634.09 372.752C634.09 372.752 635.66 377.792 636.51 380.372C637.36 382.952 638.78 388.682 638.78 388.682C638.78 388.682 636.35 377.722 603.35 386.442C570.36 395.152 527 415.102 527 415.102L527.79 405.392C527.79 405.392 530.6 390.642 527.87 366.242" fill="url(#paint1_linear_1_618)"/>
<path d="M595.94 288.722C595.94 288.722 608.75 287.122 623.72 290.962C623.72 290.962 628.79 292.502 628.71 296.122C628.62 299.742 628.46 300.752 628.31 301.852C628.31 301.852 627.05 298.772 620.82 297.342C613.78 295.722 609.25 294.942 596.19 296.092L595.91 290.062" fill="#EA5C6F"/>
<path d="M596.74 304.112C596.74 304.112 620.6 300.822 627.82 306.262C627.82 306.262 629.03 309.102 628.56 315.292C628.56 315.292 623.2 307.272 597.6 312.072L596.74 304.112Z" fill="#EA5C6F"/>
<path d="M628.61 323.072C628.61 323.072 622.79 316.742 599.01 321.012L600.52 328.462C600.52 328.462 619.11 323.632 629.06 330.082C629.05 330.072 628.95 324.742 628.61 323.072Z" fill="#EA5C6F"/>
<path d="M602.49 336.572C602.49 336.572 616.41 332.742 629.38 336.692C629.38 336.692 630.13 342.903 630.32 345.333C630.32 345.333 623.63 340.732 604.69 343.982C604.69 343.972 602.74 337.532 602.49 336.572Z" fill="#EA5C6F"/>
<path d="M528.5 372.962C528.5 372.962 545.9 369.212 561.61 363.202C577.32 357.192 611.11 345.062 631.23 350.712L632.25 360.082C632.25 360.082 628.55 349.332 576.01 366.072C530.74 380.502 528.97 380.982 528.97 380.982C528.97 380.982 528.64 373.322 528.5 372.962Z" fill="#EA5C6F"/>
<path d="M529.05 388.122C529.05 388.122 551.39 382.822 571.14 375.332C590.89 367.842 625.25 358.022 632.44 364.492C632.44 364.492 634.01 370.242 634.09 372.752C634.09 372.752 627.86 362.282 582.47 378.682C538.44 394.602 528.84 396.092 528.84 396.092C528.84 396.092 529.04 390.412 529.05 388.122Z" fill="#EA5C6F"/>
<path d="M527.8 405.392L527.01 415.102C527.01 415.102 549.09 408.102 572.92 397.052C596.74 386.012 633.94 380.022 638.79 388.682C638.79 388.682 637.04 380.722 636.19 379.782C636.19 379.782 621.19 369.482 582.18 386.272C547.51 401.202 530.7 404.042 527.8 405.392Z" fill="#EA5C6F"/>
<path d="M515.6 310.602C515.6 310.602 524.83 335.512 527.87 366.292C527.87 366.292 543.74 363.302 555.18 358.722C566.62 354.142 591.68 346.292 604.69 343.982C604.69 343.982 595.95 318.562 595.94 288.722C595.94 288.722 591.11 288.142 555.82 298.432C555.82 298.432 538.9 304.722 533.8 306.612C528.71 308.502 519.93 311.242 515.6 310.602Z" fill="#29576D"/>
<path d="M522.61 314.652L522.64 312.142L524.16 314.142L526.64 313.462L525.11 315.582L526.62 317.692L524.12 316.852L522.49 318.842L522.54 316.342L520.14 315.532L522.61 314.652Z" fill="white"/>
<path d="M532.74 327.953L532.76 325.453L534.29 327.453L536.77 326.773L535.23 328.893L536.75 331.003L534.24 330.163L532.61 332.152L532.66 329.652L530.26 328.842L532.74 327.953Z" fill="white"/>
<path d="M525.29 324.802L525.32 322.292L526.84 324.292L529.32 323.622L527.78 325.732L529.3 327.842L526.79 327.002L525.16 328.992L525.21 326.492L522.81 325.682L525.29 324.802Z" fill="white"/>
<path d="M528.25 335.432L528.28 332.932L529.8 334.932L532.28 334.252L530.74 336.362L532.26 338.482L529.75 337.642L528.12 339.632L528.17 337.132L525.77 336.312L528.25 335.432Z" fill="white"/>
<path d="M534.97 339.242L535 336.732L536.53 338.732L539 338.052L537.47 340.172L538.98 342.282L536.48 341.442L534.85 343.432L534.9 340.932L532.5 340.122L534.97 339.242Z" fill="white"/>
<path d="M543.01 343.252L543.03 340.742L544.56 342.742L547.04 342.072L545.5 344.182L547.02 346.292L544.51 345.452L542.88 347.442L542.93 344.942L540.53 344.132L543.01 343.252Z" fill="white"/>
<path d="M556.22 339.062L556.24 336.562L557.77 338.562L560.25 337.883L558.71 340.003L560.23 342.113L557.72 341.273L556.09 343.263L556.14 340.763L553.74 339.953L556.22 339.062Z" fill="white"/>
<path d="M568.68 334.742L568.71 332.242L570.24 334.242L572.71 333.562L571.18 335.672L572.69 337.782L570.19 336.952L568.56 338.942L568.61 336.432L566.21 335.622L568.68 334.742Z" fill="white"/>
<path d="M529.83 347.722L529.86 345.222L531.38 347.222L533.86 346.542L532.32 348.652L533.84 350.762L531.34 349.932L529.71 351.922L529.75 349.412L527.35 348.602L529.83 347.722Z" fill="white"/>
<path d="M537.24 350.723L537.27 348.213L538.79 350.213L541.27 349.543L539.73 351.652L541.25 353.763L538.75 352.923L537.12 354.923L537.16 352.413L534.76 351.603L537.24 350.723Z" fill="white"/>
<path d="M532.19 358.693L532.22 356.193L533.75 358.193L536.22 357.513L534.69 359.622L536.2 361.733L533.7 360.902L532.07 362.893L532.12 360.393L529.72 359.573L532.19 358.693Z" fill="white"/>
<path d="M545.25 354.232L545.28 351.732L546.8 353.732L549.28 353.052L547.74 355.162L549.26 357.272L546.76 356.442L545.13 358.432L545.17 355.922L542.78 355.112L545.25 354.232Z" fill="white"/>
<path d="M558.54 349.542L558.52 347.042L560.08 349.022L562.55 348.302L561.05 350.432L562.61 352.522L560.09 351.722L558.49 353.742V351.242L556.08 350.462L558.54 349.542Z" fill="white"/>
<path d="M572.63 344.972L572.61 342.472L574.17 344.452L576.64 343.732L575.14 345.862L576.7 347.952L574.18 347.152L572.58 349.172V346.662L570.17 345.892L572.63 344.972Z" fill="white"/>
<path d="M550.49 346.713L550.52 344.213L552.04 346.213L554.52 345.533L552.98 347.652L554.5 349.763L551.99 348.923L550.36 350.913L550.41 348.413L548.01 347.603L550.49 346.713Z" fill="white"/>
<path d="M563.84 342.593L563.87 340.093L565.4 342.093L567.88 341.413L566.34 343.523L567.85 345.643L565.35 344.803L563.72 346.793L563.77 344.283L561.37 343.473L563.84 342.593Z" fill="white"/>
<path d="M576.38 337.592L576.41 335.083L577.93 337.083L580.41 336.402L578.87 338.523L580.39 340.633L577.89 339.793L576.26 341.783L576.3 339.283L573.9 338.473L576.38 337.592Z" fill="white"/>
<path d="M547.59 335.343L547.62 332.843L549.14 334.843L551.62 334.163L550.08 336.273L551.6 338.383L549.1 337.553L547.47 339.543L547.51 337.033L545.11 336.223L547.59 335.343Z" fill="white"/>
<path d="M560.75 331.792L560.77 329.292L562.3 331.292L564.78 330.612L563.24 332.732L564.76 334.842L562.25 334.002L560.62 335.992L560.67 333.492L558.27 332.672L560.75 331.792Z" fill="white"/>
<path d="M573.43 326.522L573.46 324.022L574.99 326.022L577.46 325.342L575.93 327.452L577.44 329.562L574.94 328.732L573.31 330.722L573.36 328.212L570.96 327.402L573.43 326.522Z" fill="white"/>
<path d="M540.49 331.953L540.52 329.453L542.04 331.453L544.52 330.773L542.98 332.883L544.5 334.993L541.99 334.163L540.36 336.152L540.41 333.643L538.01 332.833L540.49 331.953Z" fill="white"/>
<path d="M552.82 327.863L552.85 325.363L554.37 327.363L556.85 326.683L555.32 328.793L556.83 330.913L554.33 330.073L552.7 332.063L552.74 329.563L550.35 328.743L552.82 327.863Z" fill="white"/>
<path d="M565.26 323.272L565.29 320.772L566.82 322.772L569.29 322.092L567.76 324.212L569.27 326.322L566.77 325.482L565.14 327.472L565.19 324.972L562.79 324.162L565.26 323.272Z" fill="white"/>
<path d="M537.49 321.132L537.52 318.632L539.04 320.632L541.52 319.952L539.98 322.062L541.5 324.172L538.99 323.342L537.36 325.332L537.41 322.832L535.01 322.012L537.49 321.132Z" fill="white"/>
<path d="M549.85 317.272L549.88 314.772L551.4 316.772L553.88 316.092L552.34 318.202L553.86 320.322L551.35 319.482L549.72 321.472L549.77 318.972L547.37 318.152L549.85 317.272Z" fill="white"/>
<path d="M563.55 312.972L563.57 310.472L565.1 312.472L567.58 311.792L566.04 313.902L567.56 316.022L565.05 315.182L563.42 317.172L563.47 314.672L561.07 313.852L563.55 312.972Z" fill="white"/>
<path d="M545.12 324.262L545.15 321.762L546.68 323.762L549.15 323.082L547.62 325.192L549.13 327.302L546.63 326.472L545 328.462L545.05 325.952L542.65 325.142L545.12 324.262Z" fill="white"/>
<path d="M557.98 320.262L558.01 317.762L559.53 319.762L562.01 319.082L560.47 321.202L561.99 323.312L559.49 322.472L557.86 324.462L557.9 321.962L555.51 321.152L557.98 320.262Z" fill="white"/>
<path d="M570.75 316.392L570.78 313.892L572.3 315.892L574.78 315.212L573.24 317.322L574.76 319.432L572.26 318.592L570.63 320.592L570.68 318.082L568.27 317.272L570.75 316.392Z" fill="white"/>
<path d="M582.54 301.462L582.99 298.932L584.19 301.192L586.85 300.932L584.82 302.722L586.1 304.962L583.71 303.902L581.87 305.732L582.19 303.242L580.12 301.982L582.54 301.462Z" fill="white"/>
<path d="M583.75 311.373L584.21 308.843L585.41 311.103L588.06 310.843L586.04 312.633L587.32 314.873L584.92 313.813L583.09 315.643L583.41 313.153L581.33 311.893L583.75 311.373Z" fill="white"/>
<path d="M585.96 322.422L586.42 319.892L587.62 322.152L590.27 321.892L588.25 323.682L589.53 325.922L587.13 324.862L585.3 326.692L585.62 324.202L583.55 322.942L585.96 322.422Z" fill="white"/>
<path d="M588.46 333.642L588.91 331.122L590.11 333.372L592.77 333.122L590.74 334.902L592.02 337.152L589.62 336.082L587.79 337.922L588.11 335.432L586.04 334.172L588.46 333.642Z" fill="white"/>
<path d="M533.98 311.132L534.01 308.632L535.54 310.632L538.02 309.952L536.48 312.062L537.99 314.172L535.49 313.332L533.86 315.332L533.91 312.822L531.51 312.012L533.98 311.132Z" fill="white"/>
<path d="M529.96 317.902L529.99 315.402L531.51 317.402L533.99 316.722L532.45 318.832L533.97 320.942L531.47 320.102L529.84 322.102L529.88 319.592L527.49 318.782L529.96 317.902Z" fill="white"/>
<path d="M541.82 314.382L541.84 311.882L543.37 313.882L545.85 313.202L544.31 315.312L545.82 317.432L543.32 316.592L541.69 318.582L541.74 316.082L539.34 315.262L541.82 314.382Z" fill="white"/>
<path d="M554.73 310.062L554.75 307.552L556.28 309.562L558.76 308.882L557.22 310.992L558.74 313.102L556.23 312.262L554.6 314.252L554.65 311.752L552.25 310.942L554.73 310.062Z" fill="white"/>
<path d="M568.78 305.722L568.81 303.222L570.34 305.222L572.81 304.542L571.27 306.652L572.79 308.762L570.29 307.922L568.66 309.922L568.71 307.412L566.31 306.602L568.78 305.722Z" fill="white"/>
<path d="M546.78 306.902L546.81 304.392L548.34 306.392L550.82 305.722L549.28 307.832L550.8 309.942L548.29 309.102L546.66 311.092L546.71 308.592L544.31 307.782L546.78 306.902Z" fill="white"/>
<path d="M560.15 302.552L560.18 300.052L561.7 302.052L564.18 301.372L562.64 303.482L564.16 305.592L561.65 304.762L560.02 306.752L560.07 304.242L557.67 303.432L560.15 302.552Z" fill="white"/>
<path d="M574.44 297.972L574.69 295.472L576.03 297.592L578.55 297.102L576.83 299.092L578.15 301.322L575.73 300.292L573.93 302.152L574.21 299.652L571.89 298.662L574.44 297.972Z" fill="white"/>
<path d="M576.34 308.803L576.6 306.312L577.93 308.423L580.46 307.943L578.74 309.933L580.05 312.152L577.64 311.122L575.84 312.983L576.11 310.493L573.8 309.493L576.34 308.803Z" fill="white"/>
<path d="M578.59 319.113L578.85 316.613L580.18 318.733L582.71 318.253L580.99 320.233L582.31 322.463L579.89 321.433L578.09 323.293L578.36 320.793L576.05 319.803L578.59 319.113Z" fill="white"/>
<path d="M580.88 329.772L581.14 327.282L582.47 329.392L585 328.902L583.28 330.892L584.59 333.122L582.18 332.092L580.37 333.952L580.65 331.452L578.34 330.462L580.88 329.772Z" fill="white"/>
<path d="M583.55 341.502L583.93 338.982L585.12 341.062L587.79 340.652L585.99 342.542L587.41 344.712L584.95 343.772L583.23 345.702L583.39 343.192L581.03 342.112L583.55 341.502Z" fill="white"/>
<path d="M589.34 295.252L589.84 292.782L590.96 295.002L593.69 294.882L591.62 296.572L592.71 298.892L590.41 297.672L588.66 299.352L588.95 296.912L586.74 295.732L589.34 295.252Z" fill="white"/>
<path d="M590.16 305.803L590.66 303.333L591.78 305.553L594.51 305.433L592.44 307.113L593.53 309.443L591.23 308.223L589.49 309.902L589.77 307.463L587.57 306.273L590.16 305.803Z" fill="white"/>
<path d="M591.23 315.612L591.73 313.142L592.85 315.352L595.58 315.232L593.51 316.922L594.6 319.252L592.3 318.022L590.56 319.712L590.84 317.272L588.64 316.082L591.23 315.612Z" fill="white"/>
<path d="M593 326.882L593.5 324.412L594.62 326.632L597.36 326.512L595.28 328.202L596.38 330.532L594.07 329.302L592.33 330.982L592.61 328.542L590.41 327.362L593 326.882Z" fill="white"/>
<path d="M595 337.772L595.49 335.302L596.62 337.522L599.35 337.402L597.27 339.092L598.37 341.422L596.07 340.192L594.32 341.882L594.61 339.432L592.4 338.252L595 337.772Z" fill="white"/>
<path d="M525.67 518.832L570.88 564.043C580.25 573.413 580.25 588.593 570.88 597.963L491.75 518.832C501.12 509.472 516.3 509.472 525.67 518.832Z" fill="white"/>
<path d="M491.75 518.833L570.88 597.963C561.52 607.323 546.33 607.323 536.96 597.963L491.75 552.743C482.38 543.383 482.38 528.203 491.75 518.833Z" fill="#3BA5DD"/>
<path d="M663.67 110.112L622.54 81.6624C621.94 81.2524 621.88 80.3024 622.4 79.5524L650.48 38.9524C651 38.2024 651.9 37.9224 652.5 38.3424L693.63 66.7924C694.23 67.2024 694.29 68.1524 693.77 68.9024L665.69 109.502C665.17 110.252 664.27 110.522 663.67 110.112Z" fill="#38B295"/>
<path d="M670.83 67.5525C669.58 67.7825 668.34 68.0325 667.03 68.2825C667.43 68.7725 667.78 69.2125 668.15 69.6625C665.94 70.0825 663.79 70.4925 661.57 70.9125C661.52 70.6225 661.45 70.2625 661.34 69.6725C662.92 69.4125 664.43 69.1725 666 68.9225C665.6 68.4225 665.26 67.9925 664.84 67.4525C665.14 67.4225 665.32 67.4125 665.49 67.3725C666.23 67.2125 666.96 67.0325 667.7 66.8725C668.29 66.7925 668.87 66.7025 669.46 66.6225L659.05 59.5325C658.92 59.7225 658.82 59.8825 658.71 60.0325C657.35 62.0625 655.95 64.0725 654.63 66.1225C653.26 68.2525 652.76 70.6025 653.03 73.1125C653.14 74.1625 653.6 75.0325 654.56 75.5825C655.06 75.8725 655.52 76.2225 656.05 76.5825L650.33 85.0025C649.81 84.6625 647.68 83.2725 647.2 83.0025C646.89 83.5225 646.67 83.8425 646.35 84.2825C646.46 84.4025 647 84.7425 647.13 84.8325C649.61 86.5025 652.24 88.2725 654.72 89.9425C654.86 90.0325 655.01 90.1025 655.14 90.1725C655.45 89.7125 655.72 89.3125 656.02 88.8625C654.76 88.0125 653.53 87.1925 652.28 86.3425L658 77.8925C658.53 78.2525 659.03 78.5525 659.5 78.9025C660.28 79.5025 661.14 79.6425 662.06 79.4225C664.58 78.8125 666.63 77.4425 668.13 75.3425C669.59 73.2925 671.22 70.7925 672.62 68.7025L670.83 67.5525Z" fill="white"/>
<path d="M626.69 79.0425L562.77 67.3425C561.84 67.1725 561.27 66.0925 561.48 64.9225L573.03 1.83254C573.24 0.662541 574.17 -0.147461 575.09 0.0225395L639.01 11.7225C639.94 11.8925 640.51 12.9725 640.3 14.1425L628.75 77.2325C628.54 78.4025 627.61 79.2125 626.69 79.0425Z" fill="#F6D873"/>
<path d="M602.56 34.6525C605.93 32.1125 609.26 29.6025 612.67 27.0325C614.97 30.6025 617.25 34.1325 619.54 37.6825C618.62 38.2825 617.71 38.8725 616.73 39.5025C615.75 37.9925 614.77 36.4825 613.7 34.8325C612.59 41.0625 611.51 47.1325 610.42 53.2425C608.84 52.9625 607.35 52.6925 605.79 52.4125C606.87 46.3325 607.95 40.2525 609.04 34.1825C608.99 34.1525 608.95 34.1125 608.9 34.0825C607.47 35.1625 606.03 36.2325 604.56 37.3325C603.91 36.4425 603.25 35.5725 602.56 34.6525Z" fill="white"/>
<path d="M584.08 31.3425C587.47 28.7925 590.77 26.3125 594.16 23.7625C596.46 27.3125 598.71 30.8024 601.02 34.3624C600.07 34.9824 599.16 35.5825 598.21 36.1925C597.22 34.6625 596.25 33.1725 595.18 31.5125C594.07 37.7525 592.99 43.8124 591.9 49.9224C590.32 49.6424 588.83 49.3725 587.26 49.0925C588.34 43.0125 589.42 36.9324 590.51 30.8524C590.46 30.8224 590.42 30.7925 590.37 30.7625C588.94 31.8425 587.51 32.9125 586.06 34.0125C585.37 33.1025 584.73 32.2425 584.08 31.3425Z" fill="white"/>
<path d="M615.55 57.5326C615.35 58.6726 615.17 59.7726 614.93 60.8726C614.91 60.9826 614.54 61.1226 614.36 61.0926C612.71 60.8226 611.07 60.5226 609.43 60.2326C606.87 59.7726 604.31 59.3226 601.75 58.8626C594.83 57.6326 587.92 56.4026 581 55.1726C580.78 55.1326 580.56 55.0926 580.3 55.0526C580.52 53.8026 580.73 52.6226 580.95 51.3826C592.45 53.4226 603.95 55.4726 615.55 57.5326Z" fill="white"/>
<path d="M624.91 171.143L552.79 141.903C551.74 141.483 551.24 140.293 551.66 139.243L574.57 82.7426C574.99 81.6926 576.18 81.1927 577.23 81.6127L649.35 110.853C650.4 111.273 650.9 112.463 650.48 113.513L627.57 170.013C627.14 171.063 625.95 171.563 624.91 171.143Z" fill="#F5A960"/>
<path d="M596.363 108.429L578.551 152.364L599.059 160.678L616.871 116.744L596.363 108.429Z" fill="white"/>
<path d="M575.128 80.7849L566.686 101.608L642.935 132.521L651.377 111.698L575.128 80.7849Z" fill="#BA7A44"/>
<path d="M647.87 125.083L568.37 92.8526C567.32 92.4326 566.82 91.2426 567.24 90.1926L575.03 70.9826C575.45 69.9326 576.64 69.4326 577.69 69.8526L657.19 102.083C658.24 102.503 658.74 103.693 658.32 104.743L650.53 123.953C650.11 125.003 648.92 125.513 647.87 125.083Z" fill="#F5A960"/>
<path d="M607.154 81.818L597.829 104.819L618.337 113.133L627.662 90.1322L607.154 81.818Z" fill="white"/>
<path d="M528.5 160.753C530.996 160.753 533.02 158.729 533.02 156.233C533.02 153.736 530.996 151.713 528.5 151.713C526.004 151.713 523.98 153.736 523.98 156.233C523.98 158.729 526.004 160.753 528.5 160.753Z" fill="#3BA5DD"/>
<path d="M534.05 145.873C538.242 145.873 541.64 142.474 541.64 138.283C541.64 134.091 538.242 130.693 534.05 130.693C529.858 130.693 526.46 134.091 526.46 138.283C526.46 142.474 529.858 145.873 534.05 145.873Z" fill="#3BA5DD"/>
<path d="M531.97 136.933C533.141 136.933 534.09 135.983 534.09 134.813C534.09 133.642 533.141 132.693 531.97 132.693C530.799 132.693 529.85 133.642 529.85 134.813C529.85 135.983 530.799 136.933 531.97 136.933Z" fill="white"/>
<path d="M582.89 181.113C577.74 181.113 573.57 185.303 573.57 190.473C573.57 195.643 577.75 199.833 582.89 199.833H590.78L582.89 181.113Z" fill="#3BA5DD"/>
<path d="M573.91 162.323C567.33 162.323 561.99 156.973 561.99 150.363C561.99 143.753 567.33 138.403 573.91 138.403H591.92L583.42 158.003L573.91 162.323Z" fill="#29576D"/>
<path d="M571.58 150.363C567.22 150.363 562.99 150.943 558.96 152.003L564.14 179.903L588.17 174.753L606.45 172.503L606.57 164.883C597.6 155.923 585.25 150.363 571.58 150.363Z" fill="#3BA5DD"/>
<path d="M606.57 171.073H531.33C540.34 183.613 555.01 191.793 571.59 191.793C585.25 191.793 597.61 186.233 606.58 177.263V171.073H606.57Z" fill="#29576D"/>
<path d="M606.57 165.723H560.27V171.073H606.57V165.723Z" fill="#3BA5DD"/>
<path d="M561.99 151.303C549.42 153.773 538.55 161.013 531.33 171.073H561.99V151.303Z" fill="#3BA5DD"/>
<path d="M562.69 166.203C562.69 171.733 558.22 176.213 552.71 176.213C547.21 176.213 542.74 171.743 542.74 166.203C542.74 160.683 547.2 156.193 552.71 156.193C558.22 156.203 562.69 160.683 562.69 166.203Z" fill="white"/>
<path d="M556.6 168.623C556.6 172.063 553.83 174.833 550.4 174.833C546.98 174.833 544.21 172.053 544.21 168.623C544.21 165.193 546.98 162.413 550.4 162.413C553.83 162.403 556.6 165.193 556.6 168.623Z" fill="#29576D"/>
<path d="M622.15 188.363C622.15 197.793 629.77 205.433 639.16 205.433V171.283C629.77 171.283 622.15 178.933 622.15 188.363Z" fill="#3BA5DD"/>
<path d="M605.03 171.283C605.03 180.713 612.65 188.363 622.04 188.363V157.473C612.65 157.473 605.03 161.863 605.03 171.283Z" fill="#29576D"/>
<path d="M639.27 171.073H622.04V188.363H639.27V171.073Z" fill="#29576D"/>
<path d="M605.03 171.073C605.03 161.563 612.72 153.843 622.2 153.843C631.68 153.843 639.37 161.563 639.37 171.073H605.03Z" fill="#29576D"/>
<defs>
<linearGradient id="paint0_linear_1_618" x1="608.828" y1="354.611" x2="718.146" y2="342.68" gradientUnits="userSpaceOnUse">
<stop stop-color="#E1E2E2"/>
<stop offset="0.0612" stop-color="#E3E4E4"/>
<stop offset="0.4922" stop-color="#EDEDEE"/>
<stop offset="1" stop-color="#F1F0F1"/>
</linearGradient>
<linearGradient id="paint1_linear_1_618" x1="520.589" y1="356.397" x2="633.908" y2="344.029" gradientUnits="userSpaceOnUse">
<stop stop-color="#F1F0F1"/>
<stop offset="0.6059" stop-color="#EFEEEF"/>
<stop offset="0.8784" stop-color="#E7E8E8"/>
<stop offset="1" stop-color="#E1E2E2"/>
</linearGradient>
</defs>
</svg>
