<svg id="Layer_1" data-name="Layer 1" xmlns="http://www.w3.org/2000/svg" viewBox="0 0 1081.49 349.72"><defs><style>.cls-1{fill:#3a383e;}.cls-2{fill:#f7d872;}.cls-3{fill:#00c29d;}.cls-4{fill:#f8aa61;}.cls-5{fill:#fff;}.cls-6{fill:#ff636f;}.cls-7{fill:#f2d375;}.cls-8{fill:#35b799;}.cls-9{fill:#f9a764;}</style></defs><path class="cls-1" d="M442.29,510.16H389.73v40.43h52.56Z" transform="translate(-86.51 -208.96)"/><path class="cls-1" d="M92.57,502.07h34.36V469.73a31.49,31.49,0,0,1-10.09,22.86A35.51,35.51,0,0,1,92.57,502.07Z" transform="translate(-86.51 -208.96)"/><path class="cls-1" d="M137,467.71H124.91v62.67H137Z" transform="translate(-86.51 -208.96)"/><polygon class="cls-1" points="70.75 293.11 70.75 301.2 66.7 301.2 66.7 297.16 62.66 297.16 62.66 301.2 6.07 301.2 6.07 293.11 70.75 293.11"/><path class="cls-1" d="M170.07,453.56V465.5H154.63v9.8h-7.48v51h58.62V453.56Zm-20.9,28.3h4v6.06h-4Zm0,12.13h4v6.06h-4Zm4,18.19h-4v-6.06h4Zm8.09,0h-4v-6.06h4Zm0-12.13h-4V494h4Zm0-12.13h-4v-6.06h4Zm12.13,24.26h-4v-6.06h4Zm0-12.13h-4V494h4Zm0-12.13h-4v-6.06h4Zm8.09,24.26h-4.05v-6.06h4.05Zm0-12.13h-4.05V494h4.05Zm0-12.13h-4.05v-6.06h4.05Z" transform="translate(-86.51 -208.96)"/><path class="cls-1" d="M147.15,473.77v52.56h54.58V473.77Zm2,14.15v-6.06h4v6.06Zm4,6.07v6.06h-4V494Zm0,18.19h-4v-6.06h4Zm8.09,0h-4v-6.06h4Zm0-12.13h-4V494h4Zm0-12.13h-4v-6.06h4Zm12.13,24.26h-4v-6.06h4Zm0-12.13h-4V494h4Zm0-12.13h-4v-6.06h4Zm8.09,24.26h-4.05v-6.06h4.05Zm0-12.13h-4.05V494h4.05Zm0-12.13h-4.05v-6.06h4.05Z" transform="translate(-86.51 -208.96)"/><path class="cls-1" d="M363.45,433.34H347.28V532.4h16.17Z" transform="translate(-86.51 -208.96)"/><path class="cls-1" d="M211.84,427.28H185.56V528.35h26.28Z" transform="translate(-86.51 -208.96)"/><path class="cls-1" d="M213.86,427.28H181.52v6.06h32.34Z" transform="translate(-86.51 -208.96)"/><path class="cls-1" d="M211.84,437.39H185.56v4h26.28Z" transform="translate(-86.51 -208.96)"/><path class="cls-1" d="M211.84,447.49H185.56v2h26.28Z" transform="translate(-86.51 -208.96)"/><path class="cls-1" d="M211.84,455.58H185.56v4h26.28Z" transform="translate(-86.51 -208.96)"/><path class="cls-1" d="M211.84,463.67H185.56v4h26.28Z" transform="translate(-86.51 -208.96)"/><path class="cls-1" d="M211.84,471.75H185.56v4.05h26.28Z" transform="translate(-86.51 -208.96)"/><path class="cls-1" d="M211.84,481.86H185.56v2h26.28Z" transform="translate(-86.51 -208.96)"/><path class="cls-1" d="M211.84,490H185.56v4h26.28Z" transform="translate(-86.51 -208.96)"/><path class="cls-1" d="M211.84,498H185.56v4h26.28Z" transform="translate(-86.51 -208.96)"/><path class="cls-1" d="M211.84,506.12H185.56v4h26.28Z" transform="translate(-86.51 -208.96)"/><path class="cls-1" d="M480.69,421.22H432.18V548.57h48.51Z" transform="translate(-86.51 -208.96)"/><path class="cls-2" d="M492.82,394.94H468.57V532.4h24.25Z" transform="translate(-86.51 -208.96)"/><path class="cls-3" d="M496.87,401h-28.3v4h28.3Z" transform="translate(-86.51 -208.96)"/><path class="cls-3" d="M496.87,411.11h-28.3v4h28.3Z" transform="translate(-86.51 -208.96)"/><path class="cls-3" d="M496.87,419.19h-28.3v4.05h28.3Z" transform="translate(-86.51 -208.96)"/><path class="cls-3" d="M496.87,427.28h-28.3v4h28.3Z" transform="translate(-86.51 -208.96)"/><path class="cls-3" d="M496.87,435.37h-28.3v4h28.3Z" transform="translate(-86.51 -208.96)"/><path class="cls-3" d="M496.87,445.47h-28.3v4h28.3Z" transform="translate(-86.51 -208.96)"/><path class="cls-3" d="M496.87,453.56h-28.3v4h28.3Z" transform="translate(-86.51 -208.96)"/><path class="cls-3" d="M496.87,461.65h-28.3v4h28.3Z" transform="translate(-86.51 -208.96)"/><path class="cls-3" d="M496.87,471.75h-28.3v4.05h28.3Z" transform="translate(-86.51 -208.96)"/><path class="cls-3" d="M496.87,479.84h-28.3v4h28.3Z" transform="translate(-86.51 -208.96)"/><path class="cls-3" d="M496.87,487.92h-28.3V492h28.3Z" transform="translate(-86.51 -208.96)"/><path class="cls-3" d="M496.87,496h-28.3v4h28.3Z" transform="translate(-86.51 -208.96)"/><path class="cls-3" d="M496.87,506.12h-28.3v4h28.3Z" transform="translate(-86.51 -208.96)"/><path class="cls-3" d="M496.87,514.2h-28.3v4h28.3Z" transform="translate(-86.51 -208.96)"/><path class="cls-3" d="M496.87,522.29h-28.3v4h28.3Z" transform="translate(-86.51 -208.96)"/><path class="cls-1" d="M416,392.91H363.45V536.44H416Z" transform="translate(-86.51 -208.96)"/><path class="cls-1" d="M412,401H369.51v4H412Z" transform="translate(-86.51 -208.96)"/><path class="cls-1" d="M412,409.09H369.51v4H412Z" transform="translate(-86.51 -208.96)"/><path class="cls-1" d="M412,417.17H369.51v6.07H412Z" transform="translate(-86.51 -208.96)"/><path class="cls-1" d="M412,427.28H369.51v4H412Z" transform="translate(-86.51 -208.96)"/><path class="cls-1" d="M412,435.37H369.51v6.06H412Z" transform="translate(-86.51 -208.96)"/><path class="cls-1" d="M412,445.47H369.51v4H412Z" transform="translate(-86.51 -208.96)"/><path class="cls-1" d="M412,453.56H369.51v4H412Z" transform="translate(-86.51 -208.96)"/><path class="cls-1" d="M412,461.65H369.51v6.06H412Z" transform="translate(-86.51 -208.96)"/><path class="cls-1" d="M412,471.75H369.51v4.05H412Z" transform="translate(-86.51 -208.96)"/><path class="cls-1" d="M412,479.84H369.51v6.06H412Z" transform="translate(-86.51 -208.96)"/><path class="cls-1" d="M412,490H369.51v4H412Z" transform="translate(-86.51 -208.96)"/><path class="cls-1" d="M412,498H369.51v4H412Z" transform="translate(-86.51 -208.96)"/><path class="cls-1" d="M412,506.12H369.51v6.06H412Z" transform="translate(-86.51 -208.96)"/><path class="cls-1" d="M412,516.23H369.51v4H412Z" transform="translate(-86.51 -208.96)"/><path class="cls-1" d="M412,524.31H369.51v6.07H412Z" transform="translate(-86.51 -208.96)"/><path class="cls-4" d="M341.21,291.84h-4v44.47h4Z" transform="translate(-86.51 -208.96)"/><path class="cls-4" d="M347.28,340.36H331.11v82.88h16.17Z" transform="translate(-86.51 -208.96)"/><path class="cls-4" d="M347.28,340.36H331.11l6.37-26.28h3.42Z" transform="translate(-86.51 -208.96)"/><path class="cls-4" d="M351.32,354.51H327.06v113.2h24.26Z" transform="translate(-86.51 -208.96)"/><path class="cls-4" d="M355.36,384.83H323V534.42h32.34Z" transform="translate(-86.51 -208.96)"/><path class="cls-2" d="M333.13,388.87h-6.07v6.07h6.07Z" transform="translate(-86.51 -208.96)"/><path class="cls-2" d="M341.21,388.87h-4v6.07h4Z" transform="translate(-86.51 -208.96)"/><path class="cls-2" d="M349.3,388.87h-4v6.07h4Z" transform="translate(-86.51 -208.96)"/><path class="cls-2" d="M333.13,399h-6.07V405h6.07Z" transform="translate(-86.51 -208.96)"/><path class="cls-2" d="M341.21,399h-4V405h4Z" transform="translate(-86.51 -208.96)"/><path class="cls-2" d="M349.3,399h-4V405h4Z" transform="translate(-86.51 -208.96)"/><path class="cls-2" d="M333.13,411.11h-6.07v6.06h6.07Z" transform="translate(-86.51 -208.96)"/><path class="cls-2" d="M341.21,411.11h-4v6.06h4Z" transform="translate(-86.51 -208.96)"/><path class="cls-2" d="M349.3,411.11h-4v6.06h4Z" transform="translate(-86.51 -208.96)"/><path class="cls-2" d="M333.13,421.22h-6.07v6.06h6.07Z" transform="translate(-86.51 -208.96)"/><path class="cls-2" d="M341.21,421.22h-4v6.06h4Z" transform="translate(-86.51 -208.96)"/><path class="cls-2" d="M349.3,421.22h-4v6.06h4Z" transform="translate(-86.51 -208.96)"/><path class="cls-2" d="M333.13,433.34h-6.07v6.07h6.07Z" transform="translate(-86.51 -208.96)"/><path class="cls-2" d="M341.21,433.34h-4v6.07h4Z" transform="translate(-86.51 -208.96)"/><path class="cls-2" d="M349.3,433.34h-4v6.07h4Z" transform="translate(-86.51 -208.96)"/><path class="cls-2" d="M333.13,443.45h-6.07v6.07h6.07Z" transform="translate(-86.51 -208.96)"/><path class="cls-2" d="M341.21,443.45h-4v6.07h4Z" transform="translate(-86.51 -208.96)"/><path class="cls-2" d="M349.3,443.45h-4v6.07h4Z" transform="translate(-86.51 -208.96)"/><path class="cls-2" d="M333.13,453.56h-6.07v6.06h6.07Z" transform="translate(-86.51 -208.96)"/><path class="cls-2" d="M341.21,453.56h-4v6.06h4Z" transform="translate(-86.51 -208.96)"/><path class="cls-2" d="M349.3,453.56h-4v6.06h4Z" transform="translate(-86.51 -208.96)"/><path class="cls-2" d="M333.13,465.69h-6.07v6.06h6.07Z" transform="translate(-86.51 -208.96)"/><path class="cls-2" d="M341.21,465.69h-4v6.06h4Z" transform="translate(-86.51 -208.96)"/><path class="cls-2" d="M349.3,465.69h-4v6.06h4Z" transform="translate(-86.51 -208.96)"/><path class="cls-2" d="M333.13,475.8h-6.07v6.06h6.07Z" transform="translate(-86.51 -208.96)"/><path class="cls-2" d="M341.21,475.8h-4v6.06h4Z" transform="translate(-86.51 -208.96)"/><path class="cls-2" d="M349.3,475.8h-4v6.06h4Z" transform="translate(-86.51 -208.96)"/><path class="cls-2" d="M333.13,487.92h-6.07V494h6.07Z" transform="translate(-86.51 -208.96)"/><path class="cls-2" d="M341.21,487.92h-4V494h4Z" transform="translate(-86.51 -208.96)"/><path class="cls-2" d="M349.3,487.92h-4V494h4Z" transform="translate(-86.51 -208.96)"/><path class="cls-2" d="M333.13,498h-6.07v6.07h6.07Z" transform="translate(-86.51 -208.96)"/><path class="cls-2" d="M341.21,498h-4v6.07h4Z" transform="translate(-86.51 -208.96)"/><path class="cls-2" d="M349.3,498h-4v6.07h4Z" transform="translate(-86.51 -208.96)"/><path class="cls-2" d="M333.13,510.16h-6.07v6.07h6.07Z" transform="translate(-86.51 -208.96)"/><path class="cls-2" d="M341.21,510.16h-4v6.07h4Z" transform="translate(-86.51 -208.96)"/><path class="cls-2" d="M349.3,510.16h-4v6.07h4Z" transform="translate(-86.51 -208.96)"/><path class="cls-2" d="M333.13,520.27h-6.07v6.06h6.07Z" transform="translate(-86.51 -208.96)"/><path class="cls-2" d="M341.21,520.27h-4v6.06h4Z" transform="translate(-86.51 -208.96)"/><path class="cls-2" d="M349.3,520.27h-4v6.06h4Z" transform="translate(-86.51 -208.96)"/><path class="cls-5" d="M210.09,468.27l-2.3-4.52,9.33-8.17h17.93l9.13,8.17-13.57,8Z" transform="translate(-86.51 -208.96)"/><path class="cls-2" d="M244.18,463.67H207.79v76.81h36.39Z" transform="translate(-86.51 -208.96)"/><path class="cls-5" d="M217.9,469.73h-4v6.07h4Z" transform="translate(-86.51 -208.96)"/><path class="cls-5" d="M224,469.73h-2v6.07h2Z" transform="translate(-86.51 -208.96)"/><path class="cls-5" d="M232.05,469.73h-4v6.07h4Z" transform="translate(-86.51 -208.96)"/><path class="cls-5" d="M217.9,479.84h-4v8.08h4Z" transform="translate(-86.51 -208.96)"/><path class="cls-5" d="M224,479.84h-2v8.08h2Z" transform="translate(-86.51 -208.96)"/><path class="cls-5" d="M232.05,479.84h-4v8.08h4Z" transform="translate(-86.51 -208.96)"/><path class="cls-5" d="M217.9,492h-4v8.08h4Z" transform="translate(-86.51 -208.96)"/><path class="cls-5" d="M224,492h-2v8.08h2Z" transform="translate(-86.51 -208.96)"/><path class="cls-5" d="M232.05,492h-4v8.08h4Z" transform="translate(-86.51 -208.96)"/><path class="cls-5" d="M217.9,504.1h-4v8.08h4Z" transform="translate(-86.51 -208.96)"/><path class="cls-5" d="M224,504.1h-2v8.08h2Z" transform="translate(-86.51 -208.96)"/><path class="cls-5" d="M232.05,504.1h-4v8.08h4Z" transform="translate(-86.51 -208.96)"/><path class="cls-4" d="M284.61,420.22H238.12v113.2h46.49Z" transform="translate(-86.51 -208.96)"/><path class="cls-4" d="M363.45,498H325v46.5h38.41Z" transform="translate(-86.51 -208.96)"/><path class="cls-4" d="M284.61,420.22H254.29v114.2h30.32Z" transform="translate(-86.51 -208.96)"/><path class="cls-1" d="M171.41,524.31H94.59v10.11h76.82Z" transform="translate(-86.51 -208.96)"/><path class="cls-1" d="M333.13,409.09H284.61V538.46h48.52Z" transform="translate(-86.51 -208.96)"/><path class="cls-1" d="M302.8,377.76V524.31H266.42v-8.08h18.19v-5.05H266.42v-4h18.19v-4H266.42v-4.05h18.19v-4H266.42v-4h18.19v-4.05H266.42v-6.06h18.19v-4H266.42v-4.05h18.19v-4H266.42v-4h18.19v-4H266.42v-4h18.19v-4H266.42v-6.07h18.19v-4H266.42v-4h18.19v-4H266.42v-4.05h18.19v-4H266.42v-4h18.19v-4.05H266.42v-6.06h18.19v-4H266.42v-4h18.19v-4H266.42v-4h18.19v-4H266.42v-4h18.19v-4H266.42v-6.07h6.06v-11.6a22.39,22.39,0,0,1,24.26,0v11.6Z" transform="translate(-86.51 -208.96)"/><path class="cls-6" d="M319,516.23H165.34v28.3H319Z" transform="translate(-86.51 -208.96)"/><path class="cls-2" d="M393.77,512.18h60.65v-7.72l-30.33-2.39-30.32,2.39Z" transform="translate(-86.51 -208.96)"/><path class="cls-1" d="M395.52,295.88h-5.79v28.3h10.11V300Z" transform="translate(-86.51 -208.96)"/><path class="cls-1" d="M399.84,325l-4.32-4.85L389.73,325v11.32h10.11Z" transform="translate(-86.51 -208.96)"/><path class="cls-6" d="M402.66,358.55l-10.91-7v-17.3h12.13Z" transform="translate(-86.51 -208.96)"/><path class="cls-1" d="M400.5,336.31,414,335.18l-6.77-4.93-7.38,2.84Z" transform="translate(-86.51 -208.96)"/><path class="cls-2" d="M395.79,287.8h-6.06V304h6.06Z" transform="translate(-86.51 -208.96)"/><path class="cls-2" d="M399.84,291.84H385.69v-6.06h7.05Z" transform="translate(-86.51 -208.96)"/><path class="cls-2" d="M399.84,285.78h-8.09v6.06h8.09Z" transform="translate(-86.51 -208.96)"/><path class="cls-1" d="M391.75,295.88h-6.06V302h6.06Z" transform="translate(-86.51 -208.96)"/><path class="cls-1" d="M418,336.31l-14.45,8.6-3.74,8.68V397H418Z" transform="translate(-86.51 -208.96)"/><path class="cls-6" d="M431.89,328.23l-5.78,18.19,20.22-2.52Z" transform="translate(-86.51 -208.96)"/><path class="cls-6" d="M454.72,358.55,422.07,364l13.84,35,24.57-26.15Z" transform="translate(-86.51 -208.96)"/><path class="cls-1" d="M438.43,437.37l-32.53,0,2.4-5.74-2.4-2.26v-89h36.39l-3.86,64.7Z" transform="translate(-86.51 -208.96)"/><path class="cls-1" d="M446.33,348.44H430.16v14.15h16.17Z" transform="translate(-86.51 -208.96)"/><path class="cls-1" d="M405.9,308,417,318.12,428.14,308Z" transform="translate(-86.51 -208.96)"/><path class="cls-1" d="M422.07,308l10.11,10.11L442.29,308Z" transform="translate(-86.51 -208.96)"/><path class="cls-1" d="M438.24,372.7h4.05V405l-4.05,2.05Z" transform="translate(-86.51 -208.96)"/><path class="cls-1" d="M432.18,405h-4v32.35h4Z" transform="translate(-86.51 -208.96)"/><path class="cls-1" d="M434.2,405h8.09v32.84l-8.09,3.55Z" transform="translate(-86.51 -208.96)"/><path class="cls-1" d="M416,312.06h16.17V295.88Z" transform="translate(-86.51 -208.96)"/><path class="cls-6" d="M432.18,312.06H416v26.27h16.17Z" transform="translate(-86.51 -208.96)"/><path class="cls-1" d="M418,314.08v10.39a5.66,5.66,0,0,0,.46,2.22,5.83,5.83,0,0,0,1.32,1.87,6.11,6.11,0,0,0,2,1.25,6.39,6.39,0,0,0,2.33.44,6.25,6.25,0,0,0,4.27-1.7,5.65,5.65,0,0,0,1.77-4.08V314.18Z" transform="translate(-86.51 -208.96)"/><path class="cls-1" d="M416,295.88v16.18h16.17Z" transform="translate(-86.51 -208.96)"/><path class="cls-5" d="M385.69,281.73h14.15V267.58Z" transform="translate(-86.51 -208.96)"/><path class="cls-1" d="M418,358.55H399.84v18.19Z" transform="translate(-86.51 -208.96)"/><path class="cls-1" d="M418,397H399.84v14.15Z" transform="translate(-86.51 -208.96)"/><path class="cls-1" d="M450.37,364.61H434.2v16.18Z" transform="translate(-86.51 -208.96)"/><path class="cls-1" d="M442.29,405H428.14v16.18Z" transform="translate(-86.51 -208.96)"/><path class="cls-1" d="M432.18,421.22H416v16.17Z" transform="translate(-86.51 -208.96)"/><path class="cls-1" d="M414,372.7H405.9v8.09Z" transform="translate(-86.51 -208.96)"/><path class="cls-1" d="M428.14,374.72h8.08l-1.1-10.11Z" transform="translate(-86.51 -208.96)"/><path class="cls-1" d="M414,429.3H405.9v8.09Z" transform="translate(-86.51 -208.96)"/><path class="cls-1" d="M442.29,342.38H405.9l13-6.07h23.44Z" transform="translate(-86.51 -208.96)"/><path class="cls-1" d="M442.29,356.53a10.11,10.11,0,1,0-10.11-10.11A10.11,10.11,0,0,0,442.29,356.53Z" transform="translate(-86.51 -208.96)"/><path class="cls-1" d="M452.39,346.42a10.11,10.11,0,0,0-10.1-10.11v10.11Z" transform="translate(-86.51 -208.96)"/><path class="cls-6" d="M462.92,356.93l-18.31,18.32,3.56,3.55,18.3-18.33Z" transform="translate(-86.51 -208.96)"/><path class="cls-1" d="M453.08,346.91l-18.31,18.32,10.05,10L463.13,357Z" transform="translate(-86.51 -208.96)"/><path class="cls-1" d="M442.29,437.39H405.9v8.08h36.39Z" transform="translate(-86.51 -208.96)"/><path class="cls-1" d="M446.33,441.43H399.84v8.09h46.49Z" transform="translate(-86.51 -208.96)"/><path class="cls-1" d="M399.84,336.31v16.17L418,336.31Z" transform="translate(-86.51 -208.96)"/><path class="cls-1" d="M400.44,324.69,386.9,338.23l6.31,6.3L406.74,331Z" transform="translate(-86.51 -208.96)"/><path class="cls-2" d="M446.33,461.65H399.84v40.42h46.49Z" transform="translate(-86.51 -208.96)"/><path class="cls-2" d="M446.33,450.19l-23.26,1.35-23.23-1.35v-2.7h46.49Z" transform="translate(-86.51 -208.96)"/><path class="cls-2" d="M446.33,451.54H399.84v4h46.49Z" transform="translate(-86.51 -208.96)"/><path class="cls-2" d="M454.42,455.58H393.77v6.07h60.65Z" transform="translate(-86.51 -208.96)"/><path class="cls-2" d="M446.33,461.65H399.84v2h46.49Z" transform="translate(-86.51 -208.96)"/><path class="cls-2" d="M446.33,490H399.84v4h46.49Z" transform="translate(-86.51 -208.96)"/><path class="cls-2" d="M446.33,494H399.84v2h46.49Z" transform="translate(-86.51 -208.96)"/><path class="cls-2" d="M414,467.71h-6.07v20.21H414Z" transform="translate(-86.51 -208.96)"/><path class="cls-2" d="M428.14,467.71h-8.09v20.21h8.09Z" transform="translate(-86.51 -208.96)"/><path class="cls-2" d="M440.27,467.71H434.2v20.21h6.07Z" transform="translate(-86.51 -208.96)"/><path class="cls-2" d="M447.82,500.05l6.6,4.05H393.77l6.62-4.05Z" transform="translate(-86.51 -208.96)"/><path class="cls-2" d="M464.52,510.16H383.66v18.19h80.86Z" transform="translate(-86.51 -208.96)"/><path class="cls-2" d="M507,510.16H464.52v18.19H507Z" transform="translate(-86.51 -208.96)"/><path class="cls-2" d="M517.08,526.33h-186v6.07h186Z" transform="translate(-86.51 -208.96)"/><path class="cls-2" d="M383.66,510.16H339.19v18.19h44.47Z" transform="translate(-86.51 -208.96)"/><path class="cls-1" d="M508,324.18l-11.11,24.27L508,372.7l11.12-24.25Z" transform="translate(-86.51 -208.96)"/><path class="cls-2" d="M519.1,346.42H496.87v91H519.1Z" transform="translate(-86.51 -208.96)"/><path class="cls-2" d="M523.15,380.79H488.78V538.46h34.37Z" transform="translate(-86.51 -208.96)"/><path class="cls-2" d="M492.82,380.79h-4v169.8h4Z" transform="translate(-86.51 -208.96)"/><path class="cls-2" d="M500.91,380.79h-4v169.8h4Z" transform="translate(-86.51 -208.96)"/><path class="cls-2" d="M509,380.79H505v169.8H509Z" transform="translate(-86.51 -208.96)"/><path class="cls-2" d="M517.08,380.79h-2v169.8h2Z" transform="translate(-86.51 -208.96)"/><path class="cls-2" d="M525.17,380.79h-2v169.8h2Z" transform="translate(-86.51 -208.96)"/><path class="cls-5" d="M761.68,532.4H86.51v4H761.68Z" transform="translate(-86.51 -208.96)"/><path class="cls-2" d="M525.17,378.76H488.78v4.05h36.39Z" transform="translate(-86.51 -208.96)"/><path class="cls-6" d="M399.9,343.39l10-8.87-2.15-4.27-16,14.15Z" transform="translate(-86.51 -208.96)"/><path class="cls-1" d="M1038.62,538.26l-.62-48.57-11-.16h-2.92l-4-8.45.25-3.95c1.61-3.6-.33-4.23-.33-4.23s0-14.95-5.31-24.34c-6.57-11.47-12.47-13.82-12.47-13.82l-1.45-21.4s-1.5-5.09-3.91-6.79a10.14,10.14,0,0,0-4,8.1c-.2,5.59.21,20.48.21,20.48a48.59,48.59,0,0,0-8.6,9.34v-3.08c0-2-.29-4.3-1.09-4.95a16.55,16.55,0,0,1-2.93-4.11l-.8-7.57s1.36-6.08-.34-7.55-2.42-2.17-2.42-2.17l-.37-1.87c-1.23-6.33-4.59-21.73-9.34-28.27-8-11.12-18.06-19.34-20.56-25.15s-2.15-22.44-2.15-22.44-.14-13.41-5.49-17.78l-.16-8.94s-.68-.38-1.07-.56V411.15h4l.12,10.89h-4.14v19.23l11.2,7.39.15,13.53,18.78,12.37v4.9L945.7,463.4V450.64l-8.15-5.75.1,43.85a7.34,7.34,0,0,1,1.78,1,10.22,10.22,0,0,1,3.51,6.58,9.45,9.45,0,0,1,.12.95l.31,30V530h-5.74v8.31l36.62.2,11.18-.12ZM1008.35,477c3.8,0,3.91,4,3.91,4v8.63h-7.72V481s0-3.95,3.81-4Zm-34.23-48.58a67.2,67.2,0,0,0-7.26-2.68l-.11-10.91a63.43,63.43,0,0,1,7.27,2.69Zm-14-15.24.12,10.88a81.25,81.25,0,0,0-9.17-1.42l-.11-10.91a85.9,85.9,0,0,1,9.16,1.43Zm-6.31,116.54v-6.16l-.22-20.27s0-5.79,4.68-7.25a6.8,6.8,0,0,1,2.24-.33,7.52,7.52,0,0,1,2.31.29c4.75,1.38,5,7.13,5,7.13l.12,13,.14,13.39Zm38.4-52.62c3.91,0,3.91,3.95,3.91,3.95v8.59h-7.82V481.1a4,4,0,0,1,1.16-2.77,3.89,3.89,0,0,1,2.75-1.14ZM985,501.74v-5.93h.12l.27,33.72v-2.66Z" transform="translate(-86.51 -208.96)"/><path class="cls-1" d="M932,497.06a5,5,0,0,1,0-.95,10.28,10.28,0,0,1,3.59-6.59,7.76,7.76,0,0,1,1.82-1V444.82l-8.15,5.63v12.78l-22.63,16v-4.9L925.85,462l.16-13.53,11.46-7.38v-19h-4.21V411.16h4.11V310l-1.1.54-.16,9c-5.47,4.33-5.61,17.78-5.61,17.78s.34,16.61-2.2,22.44-12.78,14-21,25.14c-4.83,6.56-8.29,21.95-9.54,28.27-.36,1.82-.38,2-.38,2s-.76.73-2.48,2.18-.34,7.56-.34,7.56l-.82,7.54a17,17,0,0,1-3,4.11c-.82.68-1.08,3-1.12,5v3.1a48.45,48.45,0,0,0-8.79-9.36s.42-14.87.22-20.46a10,10,0,0,0-1.09-4.54,10.06,10.06,0,0,0-3-3.58c-2.45,1.7-4,6.79-4,6.79l-1.48,21.39s-6,2.38-12.72,13.83C853.27,458,853.33,473,853.33,473s-2,.63-.36,4.22l.26,4-4.12,8.46h-2.79l-11.23.13-.64,48.59H888.7l11.42.12,37.43-.21v-8.32h-5.87v-2.65Zm-62.91-7.48h-8v-8.64s.2-4.06,4-3.95,3.82,4.13,3.82,4.13Zm16.55.14h-8v-8.6s.16-4.07,4-3.95,3.83,4.11,3.83,4.11Zm3.54,11.94-.28,25.13v2.76l.28-33.81h.12Zm34.85-90.08-.12,10.88a87.18,87.18,0,0,0-9.37,1.42l.12-10.88A89.76,89.76,0,0,1,924.05,411.58Zm-16.16,3.1-.12,10.9a67.48,67.48,0,0,0-7.41,2.67l.12-10.91a64.51,64.51,0,0,1,7.41-2.62Zm13.3,108.77v6.16l-14.5-.16.14-13.39.14-13s.22-5.75,5.08-7.13a8.47,8.47,0,0,1,2.35-.3,7.9,7.9,0,0,1,2.32.34c4.81,1.46,4.75,7.24,4.75,7.24Z" transform="translate(-86.51 -208.96)"/><path class="cls-1" d="M1089.5,328.08c-.18.81.28,2-1.4,1.12s-4.17,2.45-5.59,1.15a4.4,4.4,0,0,0-2.17-.88,4.22,4.22,0,0,0-2.29.38,5.66,5.66,0,0,0-1.7,2.3,14.91,14.91,0,0,0,2.15,4.56,5.29,5.29,0,0,0,2.63,1.15s2-2.77,3.84-2.3,2.3,4.07,1.55,4.9a3.24,3.24,0,0,0,0,3.58c.6,1.13-.17,5.21-.32,7.19s-3.38,5.69-2.78,7.29,2.15,3.6,2.63,4.72a14.67,14.67,0,0,1-.63,7.35c-.75,1.29-2.91,3.6-4,3.6s-2.63-3.6-2.16-4.43-2.46,1.78-2.46,3.1A9.76,9.76,0,0,1,1076,376s-.76.15-1.69,1.79a6.75,6.75,0,0,0,0,5.52,6.17,6.17,0,0,1,.05,2.67,5.83,5.83,0,0,1-1.12,2.4c-.91,1.31-2.14,0-3.37,1.78s-2.62,4.39-3.85,4.88-1.08,4.58-.46,6.18,2.61,5.7,2.14,6.84a4.53,4.53,0,0,0,1,3.6A11.37,11.37,0,0,1,1070,415a25.82,25.82,0,0,0,1.87,3.76v38.46s-4,5.38-3.84,6.82.31,5.93-1.24,6.7a18.11,18.11,0,0,0-5.82,7.66,39.13,39.13,0,0,0,0,5.93c-.16,2-.63,3.95.17,5.06s2.91,3.75,2.28,3.95-2.59.83-2.76,1.6a90,90,0,0,0-2,10.45c.15,1.32-1.08,4.07-1.08,5.37a43.34,43.34,0,0,0-.17,4.41c.15,1.78-.79,5.51-.64,6A8.2,8.2,0,0,1,1057,523v15.47h34.18V324.18C1089.5,324.28,1089.64,327.27,1089.5,328.08Z" transform="translate(-86.51 -208.96)"/><path class="cls-1" d="M1129.59,522.67s-1.19-9.27-1.45-11.86a34.22,34.22,0,0,0-.74-6.13,10.52,10.52,0,0,0-1.22-2.47,31.72,31.72,0,0,0-1.23-7.1,23.87,23.87,0,0,0-5.18-2.88,41.12,41.12,0,0,0,4.7-8.09c.5-2.19-.24-7.81-2-8.77s-3.41-1.23-3.41-3.21-.26-3.18-1.5-3.63a27.59,27.59,0,0,1-3.7-2.73,19,19,0,0,1-2.46-2.91V420s2.46-3.66,2.2-5.4a19.23,19.23,0,0,1,0-5.14c.24-.71,3.44-7.91,3.21-9s4.2,1,4.2,1,.5-3.44-.74-4.39-6.41-4-4.22-4.9a8,8,0,0,1,5.46.47s0-3.14-2.23-3.95-1.24-3.7-3.73-4.41-5.44,1-7.65.25-2.71-2.68-4.41-4.66a35.49,35.49,0,0,0-3.7-3.66s6-3.26,5.66-6-4-7-4.93-10.91-.34-8.16-1.47-9.88a24.21,24.21,0,0,0-2.63-3.26l.15-3.26s4.45,2.45,6,3.08,2.79,4.09,3.29,3.75a5.84,5.84,0,0,0,.11-2.53,6,6,0,0,0-.94-2.37c-1-.81-4.43-2.59-6-3.95a7.26,7.26,0,0,1-2.32-4.71,4.9,4.9,0,0,0-.27-2,5.07,5.07,0,0,0-1-1.76,14.57,14.57,0,0,1-2.29-1.42c-.74-.68,1-2.53,1-3.84a2.59,2.59,0,0,0-.16-1.1,2.67,2.67,0,0,0-1.54-1.57,2.63,2.63,0,0,0-1.11-.19h-.1V538.46h38.39Z" transform="translate(-86.51 -208.96)"/><path class="cls-1" d="M686.89,365.59l-2.22-1-6,18-12,3.6.6,2.66,13-3.85v-.4l.31.13Z" transform="translate(-86.51 -208.96)"/><path class="cls-1" d="M763.06,468.69l-.66,2.11h-1.7v2.92h-2.61v-7.59h-1.16v-4.07h-.48l-.42-3-.58-3.91-.58,3.91-.44,3h-.6v4.07h-1.12v7.59H748.9V470.8h-1.68l-.64-2.11-.7-2.27-.69,2.27-.64,2.11h-1.68v2.92h-2.6v-7.24h-1.13v-4.23h-.72l-.46-3.07-.58-3.91-.58,3.91-.44,3.07h-.58v4.23h-1.14v7.18h-3.83v-2.91h-1.68l-.66-2.12-.68-2.27-.68,2.27-.64,2.12h-1.69v2.91h-2.56v-7.59h-1.14V462h-.58l-.45-3-.58-3.91-.58,3.91-.44,3h-.58v4.07h-1.14v7.59h-3.87v-2.91h-1.68l-.64-2.12-.7-2.27-.68,2.27-.64,2.12h-.62l-.18-60.68h2.6V350.4h-2.6V338.93h-.53l-12.7-21.53h-.14V296.2h-.14L677.59,260V249.39h-.34V260.1l-16.63,36.1h-.14v21.69L647.54,339H647v11.47h-2.6v59.83H647V532.4H763.7V466.64Zm-84.63-67.8h-1.12c-10.38-.64-18.63-10.21-18.63-22s8.25-21.32,18.63-22h1.12c10.88,0,19.73,9.78,19.73,22S689.31,400.89,678.43,400.89Z" transform="translate(-86.51 -208.96)"/><path class="cls-1" d="M910.32,459.52V449.08h-.25a5.92,5.92,0,0,0-1.53-2.46,6,6,0,0,0-2.53-1.45L905.2,442l-1.2-4.77L902.77,442l-.81,3.22a6,6,0,0,0-4,3.4h-.69V431.16h-2v-9.78H894l-.87-4.22-1.62-8.07-1.64,8.07-.85,4.22h-1.37v9.78h-2v17.41h-4.1v8.33l-4.9,3v13.41h-3.22v-2.93h-1.7l-.63-2.15-.69-2.31-.68,2.31-.65,2.15h-1.68v2.93h-2.8v-7.66h-1.13v-4.11h-.59l-.44-3-.59-3.91-.6,3.91-.41,3h-.59v4.11h-.95v7.66h-3.56v-2.93h-1.7l-.65-2.15-.67-2.31-.7,2.31-.63,2.15h-1.7v2.93H847v-8.09h-1.12v-3.91h-.59l-.44-2.85-.57-3.76-.58,3.76-.45,2.85h-.57v3.91h-1.07v8.09h-3.64v-2.93h-1.68l-.65-2.15-.67-2.31-.69,2.31-.64,2.15h-1.7v2.93h-2.74v-8.09H828v-3.91h-.59l-.44-2.85-.57-3.76-.59,3.76-.44,2.85h-.57v3.91h-1.15v8.09H820v-2.93h-1.69l-.63-2.15L817,466l-.67,2.31-.65,2.15h-1.8v2.93H811.2v-7.66h-1.15v-4.11h-.59l-.44-3-.57-3.91-.12.75v.89l-.43,3-.44,2.95h-.57v4.06h-1.13v7.59h-3.65V471h-1.66l-.64-2.11-.69-2.26-.67,2.26-.63,2.11h-1.66v2.92h-2.65v-7.82h-1.13V462.2h-.59l-.44-2.89-.57-3.78-.55,3.78-.46,2.89h-.57v3.91h-1v7.82h-3.67V471h-1.66l-.64-2.11-.67-2.26-.69,2.26-.63,2.11h-1.68v2.92h-2.61v-7.25h-1.13v-4.23h-.57l-.44-3.06-.57-3.91-.57,3.91-.44,3.06h-.59v4.23H770.4v7.17h-3.71v-2.91H765l-.64-2.11-.69-2.27V532.4h147V473.5l.53-.26V461.32Z" transform="translate(-86.51 -208.96)"/><path class="cls-1" d="M577,466.79s7.58-28.1,7.95-35.47h9V209h-.32v12.72a1.13,1.13,0,0,0-.55.41,1.19,1.19,0,0,0-.23.65v11.78h-.89a2,2,0,0,0-2.11,1.82,1.75,1.75,0,0,0,.24.89h-.95a2.81,2.81,0,0,0-2,.68,2.76,2.76,0,0,0-.94,1.89v1.8a2.31,2.31,0,0,0,.31,1.18,2.68,2.68,0,0,0-1.39.91,2.59,2.59,0,0,0-.59,1.55s1.33,10.38,3,10.38h.4c.39,57.18-11.21,133.19-14.23,152.07H571.3a2.82,2.82,0,0,0-1.08.14,2.75,2.75,0,0,0-.94.54,2.73,2.73,0,0,0-.94,1.89s1.31,5,3,5h1c-3.1,16-9.93,34-17.7,51h-7.08v14.77a585.84,585.84,0,0,1-30.41,53.37h32.34c.56-22.24,20.21-40.11,44.46-40.22V466.72Z" transform="translate(-86.51 -208.96)"/><path class="cls-7" d="M768.47,515.38,769,511a1.86,1.86,0,0,0,.27-.79,2,2,0,0,0-.09-.84,2,2,0,0,0-1.12-1.2l-.59-3.79-5.26-.57c-2.45-4.55-4.91-20.07-4.91-20.07l.16-2.09a7,7,0,0,1,1.68-4l-3.38-1.53-.48-2.64-6.29-2L743.85,453l.94-1.52-.62-2,1.22-3.42L742.63,445l-.46-4-3.23-1.32c-.78-5.12-7.85-22.73-7.85-22.73l-1.54-2.45.92-3.42c-19.83-8-44.85-8.74-63.72-7.67v42c2.54,0,4.61,2.59,4.61,5.79v9.45a6.1,6.1,0,0,1-.24,1.8c-1.49,0-3,.12-4.45.18v13.83a7.1,7.1,0,0,1,2.38,5.5v10.85a7.64,7.64,0,0,1-1.1,4h-1.28v41.74H771.79C770.49,531.84,768.47,515.38,768.47,515.38ZM721.77,454a4.29,4.29,0,0,1,0-1.92,4.34,4.34,0,0,1,.85-1.72,4.42,4.42,0,0,1,1.52-1.19,4.46,4.46,0,0,1,3.78,0,4.39,4.39,0,0,1,1.51,1.19,4.23,4.23,0,0,1,.86,1.72,4.29,4.29,0,0,1,0,1.92v12.57c-2.81-.55-5.67-1-8.54-1.48Zm-13.46-32.32h4.15v6.43h-4.15Zm-.4,30.11a4.24,4.24,0,0,1,.06-1.94,4.34,4.34,0,0,1,.88-1.72,4.53,4.53,0,0,1,3.45-1.6,4.51,4.51,0,0,1,1.91.42,4.44,4.44,0,0,1,1.54,1.18,4.34,4.34,0,0,1,.88,1.72,4.24,4.24,0,0,1,.06,1.94v12.6c-2.91-.37-5.83-.67-8.78-.94Zm-28.54-32.38h4.15v6.44h-4.15Zm2,111.14H670.53v-12.2c0-4.86,2.41-8.83,5.41-8.83s5.43,4,5.43,8.83Zm4-37a7.62,7.62,0,0,1-.7,3.22h-9.5a7.75,7.75,0,0,1-.66-3.18V482.67c0-3.68,2.44-6.64,5.43-6.64s5.43,3,5.43,6.64Zm1.38-31.41v.24h-9.68V450.45a4.78,4.78,0,0,1,0-2.16,4.84,4.84,0,0,1,1-2,5,5,0,0,1,1.71-1.34,5.1,5.1,0,0,1,2.14-.48A5,5,0,0,1,684,445a4.86,4.86,0,0,1,2.68,3.29,4.78,4.78,0,0,1,0,2.16Zm11.78,68.45H687.66V519.21c0-4.43,2.43-8,5.43-8s5.43,3.57,5.43,8Zm2.76-36.47a7.79,7.79,0,0,1-.58,3c-3.26,0-6.51-.2-9.77-.26a7.83,7.83,0,0,1-.5-2.75V483.2c0-3.67,2.44-6.64,5.44-6.64s5.41,3,5.41,6.64Zm1.16-32.65a6.79,6.79,0,0,1-.18,1.56q-4.5-.29-9-.47a6.61,6.61,0,0,1,0-1.09V452c0-3.2,2-5.79,4.61-5.79s4.62,2.59,4.62,5.79Zm12.46,69.18H704.05V519.25c0-4.88,2.44-8.83,5.43-8.83s5.42,3.95,5.42,8.83ZM717.45,495a7.86,7.86,0,0,1-.5,2.83c-3.23-.18-6.51-.34-9.78-.46a8.28,8.28,0,0,1-.34-2.37V484.17c0-3.68,2.38-6.66,5.31-6.66s5.31,3,5.31,6.66Zm12.92,35.58H719.53V518.72c0-4.88,2.42-8.84,5.41-8.84s5.43,4,5.43,8.84Zm1.86-34.47a8.43,8.43,0,0,1-.46,2.68c-3.27-.27-6.59-.51-10-.71a7.7,7.7,0,0,1-.24-2V485.26c0-3.68,2.37-6.64,5.31-6.64s5.31,3,5.31,6.64Zm1.6-39.39c0-3,1.88-5.38,4.17-5.38s4.15,2.41,4.15,5.38v12.61c-2.73-.76-5.51-1.41-8.32-2Zm.76,73.86-.68-10c-.32-4.67,1.32-8.62,3.65-8.86s4.49,3.32,4.81,7.91l.76,10.87ZM744,500c-2.87-.33-5.83-.63-8.8-.89a9.43,9.43,0,0,1-.14-1.19l-.6-10.81c-.2-3.67,1.69-6.81,4.25-7s4.77,2.59,5,6.26l.6,10.81a9.74,9.74,0,0,1-.34,2.79Zm2.82,30.6-.66-9.89c-.32-4.56,1-8.42,2.87-8.61s3.68,3.34,4,7.9l.72,10.6Zm6.91-29.35c-2.24-.34-4.54-.64-6.85-.91a1.71,1.71,0,0,1,0-.32l-.56-10.18c-.2-3.46,1.2-6.38,3.11-6.54s3.62,2.51,3.82,5.93l.54,10.18a10.65,10.65,0,0,1-.12,1.78Zm2.11,29.35L755,521.4c-.41-4.56.78-8.45,2.68-8.71s3.76,3.22,4.17,7.77l.92,10.12Z" transform="translate(-86.51 -208.96)"/><path class="cls-7" d="M659.59,497.29a7.66,7.66,0,0,1-1.13-4.06V482.51c0-3.61,2.37-6.56,5.27-6.56a4.5,4.5,0,0,1,2.94,1.13V463.42l-4.08.13a6.42,6.42,0,0,1-.31-2.09v-9.27a5.26,5.26,0,0,1,1.06-3.75,5.2,5.2,0,0,1,3.33-2V405a226.12,226.12,0,0,0-27.1,3.09l.15,2.61-1,.94-.31,3.18-3.59.57-11.22,2.79-4.19-4.66c-57.3,22.07-47.52,43.77-47.52,43.77l-1.28,9.15a13.4,13.4,0,0,0-2.59,5.7,13.57,13.57,0,0,0,.28,6.27l-1.33,9.08c-5.15,3.28-2.46,9.52-2.46,9.52l-2.61,14.51c-2.4,1.31-.39,3.9-.39,3.9l-1.94,23H666.67V497.29Zm-8.45-75.87h4v6.37h-4Zm-3,30.79c0-3.16,1.94-5.72,4.49-5.72s4.48,2.56,4.48,5.72v9.33a7,7,0,0,1-.43,2.4c-2.69.18-5.3.36-7.88.57a7.23,7.23,0,0,1-.66-3Zm-14.32,1.41c0-3.17,1.93-5.72,4.47-5.72s4.49,2.55,4.49,5.72v9.31a7,7,0,0,1-.33,2.13c-2.75.25-5.42.52-8,.82a6.85,6.85,0,0,1-.64-2.95Zm-8.64-26.77,3.87-.37v6.38l-3.87.38Zm-3.87,29.28c0-3.16,1.94-5.72,4.47-5.72s4.47,2.56,4.47,5.72v9.34a6.61,6.61,0,0,1,0,.89c-3,.38-5.92.75-8.59,1.12a7.62,7.62,0,0,1-.29-2Zm-.72,21.26a6.09,6.09,0,0,1,3.78,2.47,6.17,6.17,0,0,1,1.06,4.41l-.67,10.4a6.94,6.94,0,0,1-1.22,3.63l-7.75.35a7.21,7.21,0,0,1-1.49-5l.66-10.41c.19-3.55,2.77-6.19,5.61-5.9Zm-11-20.61c.23-3.14,2.42-5.47,4.88-5.19a5.45,5.45,0,0,1,4,6.18l-.66,9.3a6.45,6.45,0,0,1-.13,1c-3.12.47-5.81.92-8.23,1.31a7,7,0,0,1-.56-3.28Zm-29-5-1.41.94.65-5.33,1.36-.84Zm10.67-6.91-1.57.45.29-5.23,1.72-.94Zm13.88-12,3-1.23-.76,6.37-2.82.86Zm13.55,85.9-1,11.91H607.1a2,2,0,0,1,0-.35l1-12.63c.35-4.3,3-7.52,5.8-7.23s5.08,3.91,4.73,8.22Zm14.27,11.87H622.39V518.53c0-4.12,2.35-7.46,5.25-7.46s5.27,3.34,5.27,7.46Zm-3.39-32.54a7.67,7.67,0,0,1-1.08-3.91V483.54c0-3.63,2.36-6.56,5.24-6.56s5.27,2.93,5.27,6.56v10.72A7.64,7.64,0,0,1,638,498ZM649,530.75H638.5V517.59c0-4.8,2.37-8.72,5.27-8.72s5.25,3.9,5.25,8.72Zm4.7-37.42a7.51,7.51,0,0,1-1.2,4.17c-2.71,0-5.36.1-8,.18a7.57,7.57,0,0,1-1.31-4.35V482.61c0-3.61,2.34-6.56,5.26-6.56s5.25,2.95,5.25,6.56Zm.89,37.42V517.2c0-4.82,2.36-8.73,5.27-8.73s5.26,3.91,5.26,8.73v13.43Z" transform="translate(-86.51 -208.96)"/><path class="cls-8" d="M900.78,317.62l-11.46-1.8c0-1.12-.49-2.08-1.29-2.24l4.34-31.91a1.45,1.45,0,0,0,.5-.78l1.1.18v-.28a2.76,2.76,0,0,0-.39-2,1.27,1.27,0,0,0-.39-.41,1.42,1.42,0,0,0-.53-.2l-1-.16,1-7.37,1.22.2a2.78,2.78,0,0,0,2.78-1.43,2.66,2.66,0,0,0,.3-1,3.63,3.63,0,0,0,0-1.14l-36.84-5.77L852.57,318a5.21,5.21,0,0,1,2.66,1.5,4.93,4.93,0,0,1,1.28,2.7h-.12c-.78-.12-1.53.67-1.68,1.75v.3l1.21.17a.84.84,0,0,0,.08.38,1.1,1.1,0,0,0,.22.31l-2,14.5H854c-.71-.12-1.41.53-1.63,1.47l-2.86-.45-1.1,8.07a4.88,4.88,0,0,1,2.46,1.43,4.56,4.56,0,0,1,1.21,2.5c-.73,0-1.38.75-1.53,1.77v.27l1.21.2a1,1,0,0,0,.3.69l-2,14.5h-.18a1.77,1.77,0,0,0-1.63,1.51l-2.84-.45-1.07,8.09a4.93,4.93,0,0,1,2.44,1.43,4.59,4.59,0,0,1,1.18,2.5c-.73,0-1.38.75-1.52,1.77v.27l1.2.2a1.06,1.06,0,0,0,.3.69l-2,14.5h-.18a1.81,1.81,0,0,0-1.65,1.65l-2.79-.43-1.1,8.11a4.9,4.9,0,0,1,2.43,1.43,4.57,4.57,0,0,1,1.17,2.5c-.71,0-1.38.74-1.52,1.77v.27l1.2.2a1,1,0,0,0,.3.66l-2,14.52h-.17c-.73-.11-1.43.53-1.65,1.51l-2.75-.43-1.1,8.1a4.9,4.9,0,0,1,2.4,1.44,4.62,4.62,0,0,1,1.17,2.49c-.74,0-1.39.74-1.53,1.78v.28l1.22.2a1,1,0,0,0,.29.66l-2,14.5h-.19c-.71-.12-1.39.51-1.61,1.47l-2.75-.43L831.9,471a4.76,4.76,0,0,1,2.39,1.44,4.58,4.58,0,0,1,1.14,2.48,1.22,1.22,0,0,0-.76.3,2.21,2.21,0,0,0-.78,1.47V477l1.23.19a.93.93,0,0,0,.28.67l-2,14.52h-.19a1.77,1.77,0,0,0-1.63,1.51l-2.71-.43-.45,3.3,46.9,7.37a1.57,1.57,0,0,0,.61,0,1.52,1.52,0,0,0,.53-.29A1.69,1.69,0,0,0,877,503a1.73,1.73,0,0,0,0-.93,1.68,1.68,0,0,0-.46-.82,1.74,1.74,0,0,0-.82-.47h-.39c0-1-.45-1.83-1.16-2H874l2-14.49a1,1,0,0,0,.3-.24.87.87,0,0,0,.17-.33l1.2.19v-.27c.15-1.1-.36-2.08-1.14-2.2a5.79,5.79,0,0,1,1.23-2l.79-5.77.86.13a1.26,1.26,0,0,0,.61,0,1.36,1.36,0,0,0,.53-.28,1.64,1.64,0,0,0,.61-1.1,1,1,0,0,0,0-.24,1.64,1.64,0,0,0-.3-1,1.54,1.54,0,0,0-.44-.44,1.44,1.44,0,0,0-.58-.21h-.39a1.75,1.75,0,0,0-.21-1.18,1.83,1.83,0,0,0-.95-.78h-.19l2-14.5a.84.84,0,0,0,.3-.22.87.87,0,0,0,.17-.33l1.2.18v-.28a2.34,2.34,0,0,0-.32-1.65,1.29,1.29,0,0,0-.34-.36,1.44,1.44,0,0,0-.46-.19,5.37,5.37,0,0,1,1.23-2l.79-5.78.86.14a1.57,1.57,0,0,0,.61,0,1.38,1.38,0,0,0,.53-.29,1.65,1.65,0,0,0,.61-1.09,1,1,0,0,0,0-.24,1.8,1.8,0,0,0-.31-1,1.47,1.47,0,0,0-.43-.43,1.58,1.58,0,0,0-.58-.22h-.39a2.39,2.39,0,0,0-.37-1.42,1.29,1.29,0,0,0-.34-.36,1.37,1.37,0,0,0-.47-.19h-.17l2-14.49a1,1,0,0,0,.3-.24.87.87,0,0,0,.17-.33l1.2.19v-.27a2.28,2.28,0,0,0-.32-1.65,1.1,1.1,0,0,0-.35-.36,1.14,1.14,0,0,0-.47-.19,5.5,5.5,0,0,1,1.23-2l.77-5.77.88.14a1.52,1.52,0,0,0,.6-.05,1.38,1.38,0,0,0,.54-.27,1.79,1.79,0,0,0,.61-1.1v-.24a1.67,1.67,0,0,0-.33-1,1.46,1.46,0,0,0-.42-.44,1.67,1.67,0,0,0-.57-.23h-.39a1.79,1.79,0,0,0-1.16-2.08h-.17l2-14.5a1.14,1.14,0,0,0,.3-.23A.84.84,0,0,0,889,393l1.2.2V393a2.43,2.43,0,0,0-.32-1.65,1.1,1.1,0,0,0-.35-.36,1.14,1.14,0,0,0-.47-.19,5.44,5.44,0,0,1,1.22-2L891,383l.88.13a1.35,1.35,0,0,0,.6,0,1.55,1.55,0,0,0,.54-.28,1.68,1.68,0,0,0,.61-1.1,1.58,1.58,0,0,0,0-.65,1.65,1.65,0,0,0-.24-.6,1.77,1.77,0,0,0-1.09-.72H892c0-1-.45-1.82-1.16-2h-.17l2-14.5a1.09,1.09,0,0,0,.29-.23.92.92,0,0,0,.18-.32l1.2.18v-.28a1.81,1.81,0,0,0-1.14-2.2,5.49,5.49,0,0,1,1.22-2l.78-5.78.88.14a1.51,1.51,0,0,0,.6,0,1.73,1.73,0,0,0,.54-.28,1.64,1.64,0,0,0,.41-.5,1.6,1.6,0,0,0,.18-.61.88.88,0,0,0,0-.23,1.88,1.88,0,0,0-.29-1,1.65,1.65,0,0,0-1-.63h-.38a2.26,2.26,0,0,0-.35-1.36,1.2,1.2,0,0,0-.35-.36,1.29,1.29,0,0,0-.47-.19h-.18l2-14.5a.93.93,0,0,0,.3-.22.87.87,0,0,0,.17-.33l1.2.18v-.27a2.38,2.38,0,0,0-.34-1.65,1.27,1.27,0,0,0-.8-.55H897a5.86,5.86,0,0,1,1.33-2.2l.77-5.68,1.11.18a1.4,1.4,0,0,0,.61,0,1.44,1.44,0,0,0,.55-.28,1.65,1.65,0,0,0,.59-1.08,1.13,1.13,0,0,0,0-.26,1.74,1.74,0,0,0,1-.88,1.72,1.72,0,0,0,.1-1.35,1.75,1.75,0,0,0-.92-1A1.91,1.91,0,0,0,900.78,317.62Zm-16.11,5.43a4.36,4.36,0,0,1,2.33,1.53,4.15,4.15,0,0,1,.89,2.57h-.14a1.39,1.39,0,0,0-.5,0,1.12,1.12,0,0,0-.42.25,2.11,2.11,0,0,0-.75,1.47v.28l1.2.19a1,1,0,0,0,.28.69l-2,14.5h-.18a1.2,1.2,0,0,0-.92.27,2.18,2.18,0,0,0-.71,1.22l-4.38-.69A2.28,2.28,0,0,0,879,344a1.17,1.17,0,0,0-.35-.35,1.28,1.28,0,0,0-.47-.18H878l2-14.5a.7.7,0,0,0,.28-.23.76.76,0,0,0,.17-.32l1.22.18v-.28a2.36,2.36,0,0,0-.35-1.65,1,1,0,0,0-.33-.35,1.3,1.3,0,0,0-.46-.18h-.23a3.94,3.94,0,0,1,1.55-2.21,4.17,4.17,0,0,1,2.66-.75Zm-1.57,36.69a.8.8,0,0,0,.08.37.84.84,0,0,0,.22.3l-2,14.52h-.19c-.71-.1-1.41.55-1.63,1.51l-4.38-.68c0-1-.45-1.85-1.17-2h-.18l2-14.5a1,1,0,0,0,.47-.55l1.2.2v-.3a1.9,1.9,0,0,0-1.08-2.18,3.65,3.65,0,0,1,1.44-2,3.88,3.88,0,0,1,2.43-.71h.15a4.25,4.25,0,0,1,2.15,1.43,4,4,0,0,1,.85,2.38,1.83,1.83,0,0,0-1.57,1.77v.28ZM879,390.16a.94.94,0,0,0,.31.66l-2,14.5H877c-.75-.12-1.47.63-1.65,1.65l-4.36-.69a1.79,1.79,0,0,0-1.16-2.08h-.19l2-14.5a.8.8,0,0,0,.29-.23.92.92,0,0,0,.18-.32l1.2.18v-.27a2.37,2.37,0,0,0-.34-1.66,1.17,1.17,0,0,0-.76-.53,3.76,3.76,0,0,1,1.45-2,4,4,0,0,1,2.44-.72h.15a4.27,4.27,0,0,1,2.18,1.49,4,4,0,0,1,.82,2.44,1.09,1.09,0,0,0-.44.06,1.11,1.11,0,0,0-.38.22,2.24,2.24,0,0,0-.75,1.47v.28Zm-4.08,30.56a1,1,0,0,0,.31.67l-2,14.5H873a1.16,1.16,0,0,0-.49,0,1.1,1.1,0,0,0-.42.24,2.31,2.31,0,0,0-.72,1.24l-4.38-.69c0-1-.45-1.84-1.16-2h-.19l2-14.5a.89.89,0,0,0,.3-.24.8.8,0,0,0,.17-.33l1.2.2v-.28A2.45,2.45,0,0,0,869,418a1.27,1.27,0,0,0-.76-.53,3.67,3.67,0,0,1,1.44-2,3.89,3.89,0,0,1,2.44-.71h.14a4.07,4.07,0,0,1,2.17,1.42,3.88,3.88,0,0,1,.83,2.39,1.33,1.33,0,0,0-.82.28,2.33,2.33,0,0,0-.75,1.49v.28Zm-4.08,30.41a1,1,0,0,0,.31.69l-2,14.5H869a1.11,1.11,0,0,0-.48,0,1.1,1.1,0,0,0-.42.24,2.08,2.08,0,0,0-.71,1.19l-4.41-.68a1.71,1.71,0,0,0-1.16-2h-.18l2-14.5a.84.84,0,0,0,.3-.22.87.87,0,0,0,.17-.33l1.21.18V450a2.38,2.38,0,0,0-.35-1.66,1.08,1.08,0,0,0-.31-.33,1.16,1.16,0,0,0-.42-.2,3.68,3.68,0,0,1,1.43-2,4.06,4.06,0,0,1,2.44-.71h.14a4.34,4.34,0,0,1,2.19,1.48,4,4,0,0,1,.81,2.45,1.09,1.09,0,0,0-.44.06,1,1,0,0,0-.37.22,2.3,2.3,0,0,0-.76,1.47V451ZM854,446.6a1.27,1.27,0,0,0-.67-.51,4.35,4.35,0,0,1,1.92-2.08,4.61,4.61,0,0,1,2.83-.52h.16a4.92,4.92,0,0,1,2.58,1.37,4.62,4.62,0,0,1,1.27,2.56,1.84,1.84,0,0,0-1.54,1.77v.27l1.2.2a1,1,0,0,0,.28.67l-2,14.5h-.16c-.71-.12-1.4.53-1.63,1.47l-6.24-1a2.25,2.25,0,0,0-.37-1.38,1.19,1.19,0,0,0-.33-.34,1.15,1.15,0,0,0-.46-.19h-.19l2-14.5a.8.8,0,0,0,.29-.22.84.84,0,0,0,.16-.33l1.23.18v-.27a2.39,2.39,0,0,0-.53-1.67ZM858,416.17a1.27,1.27,0,0,0-.68-.5,4.45,4.45,0,0,1,1.92-2.08,4.66,4.66,0,0,1,2.84-.53h.16a4.92,4.92,0,0,1,2.58,1.37,4.62,4.62,0,0,1,1.27,2.56c-.73,0-1.4.75-1.55,1.77v.29l1.23.18a1,1,0,0,0,.28.69l-2,14.5h-.16a1,1,0,0,0-.49,0,1.17,1.17,0,0,0-.43.22,2.29,2.29,0,0,0-.73,1.24l-6.12-1a2.29,2.29,0,0,0-.36-1.42,1.14,1.14,0,0,0-.34-.35,1.18,1.18,0,0,0-.46-.2h-.35l2-14.5a1,1,0,0,0,.45-.57l1.22.2v-.27a2.41,2.41,0,0,0-.42-1.58Zm4.08-30.55a1.17,1.17,0,0,0-.68-.51,4.33,4.33,0,0,1,1.91-2.08,4.68,4.68,0,0,1,2.82-.54h.19a4.88,4.88,0,0,1,2.57,1.38,4.58,4.58,0,0,1,1.28,2.55,1.83,1.83,0,0,0-1.55,1.77v.28l1.23.19a.79.79,0,0,0,.07.37.86.86,0,0,0,.21.3l-2,14.5H868a1.12,1.12,0,0,0-.48,0,1.06,1.06,0,0,0-.42.22,2.24,2.24,0,0,0-.75,1.4l-6.12-1c0-1.05-.39-2-1.14-2.11h-.35l2-14.49a1.37,1.37,0,0,0,.29-.24,1,1,0,0,0,.16-.33l1.22.19v-.27a2.19,2.19,0,0,0-.35-1.63Zm4.07-30.41a1.14,1.14,0,0,0-.67-.51,4.33,4.33,0,0,1,1.91-2.08,4.66,4.66,0,0,1,2.82-.54h.19a4.88,4.88,0,0,1,2.57,1.38,4.58,4.58,0,0,1,1.28,2.55,1.12,1.12,0,0,0-.78.28,2.24,2.24,0,0,0-.77,1.49v.27l1.22.18a.9.9,0,0,0,.07.37.87.87,0,0,0,.22.32l-2,14.5H872a1,1,0,0,0-.49,0,1.14,1.14,0,0,0-.41.24,2,2,0,0,0-.71,1.22l-6.25-1c0-1-.44-1.83-1.16-2h-.18l2-14.49a1.06,1.06,0,0,0,.45-.55l1.2.17v-.27A2.28,2.28,0,0,0,866.19,355.21Zm3.33-30.94h-.12a4.62,4.62,0,0,1,2-2.24,4.92,4.92,0,0,1,3-.59h.17a5.11,5.11,0,0,1,2.75,1.49,4.83,4.83,0,0,1,1.32,2.77h-.12c-.77-.14-1.53.65-1.67,1.75v.27l1.2.2a.86.86,0,0,0,.08.36,1,1,0,0,0,.23.31l-2,14.5h-.19c-.71-.12-1.38.53-1.63,1.47l-6.24-1a2.41,2.41,0,0,0-.34-1.38,1.17,1.17,0,0,0-.35-.35,1.28,1.28,0,0,0-.47-.18H867l2-14.5a.89.89,0,0,0,.29-.22,1.06,1.06,0,0,0,.18-.33l1.2.2v-.29C870.8,325.36,870.31,324.4,869.52,324.27Zm-1.06-30.06a6.64,6.64,0,0,1,.78-2.68,6.9,6.9,0,0,1,1.81-2.18,7.49,7.49,0,0,1,5.42-1.57,7.13,7.13,0,0,1,2.65,1,7,7,0,0,1,2,2,7.92,7.92,0,0,1,1.32,5.64L880,314.36l-14-2.2Zm-10.67,31.15a.8.8,0,0,0,.29-.23.88.88,0,0,0,.16-.32l1.2.2v-.29a1.87,1.87,0,0,0-1.12-2.2,4.69,4.69,0,0,1,2-2.26,4.89,4.89,0,0,1,3-.57h.16a5.17,5.17,0,0,1,2.76,1.49,4.92,4.92,0,0,1,1.32,2.77c-.77-.12-1.53.67-1.69,1.77V326l1.22.2a1,1,0,0,0,.29.67l-2,14.5h-.16a1.05,1.05,0,0,0-.5,0,1.1,1.1,0,0,0-.42.24,2.09,2.09,0,0,0-.72,1.2l-6.36-1a2.5,2.5,0,0,0-.36-1.38,1.17,1.17,0,0,0-.35-.35,1.28,1.28,0,0,0-.47-.18h-.16Zm-4.07,30.4a1.08,1.08,0,0,0,.28-.24.84.84,0,0,0,.16-.33l1.23.19v-.27a2.29,2.29,0,0,0-.33-1.67,1.31,1.31,0,0,0-.57-.47,4.43,4.43,0,0,1,1.9-2.09,4.63,4.63,0,0,1,2.83-.53h.16a4.87,4.87,0,0,1,2.58,1.38,4.58,4.58,0,0,1,1.28,2.55c-.72,0-1.37.77-1.51,1.77v.3l1.2.17a.94.94,0,0,0,.29.69l-2,14.5H861c-.73-.14-1.4.53-1.63,1.49l-6.36-1c0-1-.45-1.83-1.16-2h-.18Zm-4.08,30.41a1,1,0,0,0,.29-.24,1.06,1.06,0,0,0,.18-.33l1.2.2v-.28a1.86,1.86,0,0,0-.1-1.21,2,2,0,0,0-.82-.93,4.36,4.36,0,0,1,1.9-2.08,4.56,4.56,0,0,1,2.83-.53h.16a4.85,4.85,0,0,1,2.58,1.37,4.61,4.61,0,0,1,1.28,2.55c-.71,0-1.37.75-1.51,1.75v.36l1.2.19a1,1,0,0,0,.29.67l-2,14.5h-.18c-.76-.12-1.49.61-1.68,1.65l-6.34-1a1.76,1.76,0,0,0-1.14-2.1h-.18Zm-4.08,30.57a1,1,0,0,0,.47-.57l1.2.19v-.29a1.93,1.93,0,0,0-.1-1.21,2,2,0,0,0-.82-.91,4.38,4.38,0,0,1,1.9-2.09,4.64,4.64,0,0,1,2.83-.53h.19a4.81,4.81,0,0,1,2.56,1.38,4.56,4.56,0,0,1,1.27,2.55c-.69,0-1.36.77-1.49,1.77v.28l1.2.19a1,1,0,0,0,.08.38,1.39,1.39,0,0,0,.23.31l-2,14.5h-.18c-.72-.1-1.41.55-1.63,1.51l-6.36-1c0-1-.43-1.83-1.17-2h-.18Zm-4.08,30.41a1.09,1.09,0,0,0,.29-.23,1.14,1.14,0,0,0,.18-.32l1.2.17v-.27a2,2,0,0,0-.09-1.22,2,2,0,0,0-.82-.92,4.33,4.33,0,0,1,1.9-2.09,4.62,4.62,0,0,1,2.83-.53h.18a4.89,4.89,0,0,1,2.57,1.37,4.54,4.54,0,0,1,1.26,2.56c-.69,0-1.34.75-1.49,1.77v.28l1.21.19a1,1,0,0,0,.08.37.93.93,0,0,0,.22.3l-2,14.5h-.47c-.72-.12-1.41.53-1.62,1.47l-6.38-1a2.19,2.19,0,0,0-.36-1.38,1.37,1.37,0,0,0-.34-.34,1.14,1.14,0,0,0-.46-.18h-.18Zm3.22,46.34a1.77,1.77,0,0,0-1.63,1.51l-6.36-1a2.35,2.35,0,0,0-.35-1.39,1.18,1.18,0,0,0-.34-.36,1.2,1.2,0,0,0-.47-.19h-.17l2-14.5a.89.89,0,0,0,.3-.24.87.87,0,0,0,.17-.33l1.21.19v-.27a1.93,1.93,0,0,0-.92-2.14,4.4,4.4,0,0,1,1.91-2.09,4.73,4.73,0,0,1,2.84-.53h.16a5,5,0,0,1,2.57,1.38,4.72,4.72,0,0,1,1.29,2.55,1.21,1.21,0,0,0-.74.28,2.2,2.2,0,0,0-.77,1.47v.3l1.22.17a.94.94,0,0,0,.29.69l-2,14.5Zm11.06,1.75c-.72-.12-1.41.55-1.64,1.49l-6.24-1c0-1-.45-1.83-1.16-2h-.18l2-14.49a1,1,0,0,0,.29-.24,1.06,1.06,0,0,0,.18-.33l1.2.19v-.27a1.92,1.92,0,0,0-.13-1.25,2,2,0,0,0-.89-.91,4.4,4.4,0,0,1,1.92-2.08,4.71,4.71,0,0,1,2.83-.54h.16a4.92,4.92,0,0,1,2.58,1.37,4.64,4.64,0,0,1,1.28,2.56c-.74,0-1.39.73-1.53,1.77v.28l1.2.17a1,1,0,0,0,.08.38.87.87,0,0,0,.23.31l-2,14.5Zm9.19,1.43c-.73-.12-1.43.55-1.63,1.52l-4.41-.71a1.68,1.68,0,0,0-.19-1.2,1.81,1.81,0,0,0-1-.77h-.16l2-14.49a1.13,1.13,0,0,0,.29-.24,1.06,1.06,0,0,0,.18-.33l1.2.19v-.27a1.88,1.88,0,0,0-1.08-2.18,3.67,3.67,0,0,1,1.45-2,3.86,3.86,0,0,1,2.44-.7h.13a4.07,4.07,0,0,1,2.17,1.41,3.81,3.81,0,0,1,.82,2.4,1.84,1.84,0,0,0-1.57,1.77v.27l1.23.2a.92.92,0,0,0,.28.66l-2,14.52Zm9.54-13.95a1,1,0,0,0,.31.69l-2,14.5h-.18a1,1,0,0,0-.48,0,1,1,0,0,0-.42.23,2.19,2.19,0,0,0-.74,1.23l-2.89-.45c0-1-.45-1.83-1.16-2h-.17l2-14.52a.86.86,0,0,0,.3-.23.76.76,0,0,0,.17-.32l1.21.17v-.27a1.91,1.91,0,0,0-1.09-2.18c.66-1.85,2-3,3.21-2.83s2.16,1.71,2.3,3.69c-.75-.09-1.51.67-1.65,1.75v.3Zm4.08-30.39a1,1,0,0,0,.08.38.87.87,0,0,0,.23.31l-2,14.5h-.18c-.72-.12-1.41.53-1.64,1.47l-2.89-.45a2.14,2.14,0,0,0-.37-1.38,1.1,1.1,0,0,0-.33-.35,1.16,1.16,0,0,0-.47-.2h-.18l2-14.49a1,1,0,0,0,.3-.24.87.87,0,0,0,.17-.33l1.2.19v-.27a1.85,1.85,0,0,0-1.08-2.18c.65-1.85,1.94-3,3.18-2.85h.13c1.26.2,2.16,1.71,2.3,3.69a1.13,1.13,0,0,0-.48.05,1.15,1.15,0,0,0-.42.23,2.36,2.36,0,0,0-.75,1.47v.3Zm4.08-30.41a1,1,0,0,0,.28.69l-2,14.5h-.19c-.71-.1-1.4.55-1.63,1.51l-2.9-.45a2.31,2.31,0,0,0-.36-1.42,1.37,1.37,0,0,0-.34-.34,1.44,1.44,0,0,0-.46-.19h-.18l2-14.5a.89.89,0,0,0,.29-.22.93.93,0,0,0,.18-.32l1.2.17v-.27a2.29,2.29,0,0,0-.35-1.65,1,1,0,0,0-.31-.35,1.14,1.14,0,0,0-.44-.18c.67-1.85,1.94-3,3.22-2.83s2.16,1.73,2.3,3.69a1.15,1.15,0,0,0-.89.27,2.28,2.28,0,0,0-.53.67,2.09,2.09,0,0,0-.23.81v.27Zm4.08-30.57a1,1,0,0,0,.28.69l-2,14.5h-.18a1.85,1.85,0,0,0-1.67,1.67l-2.88-.45a2.23,2.23,0,0,0-.34-1.55,1.07,1.07,0,0,0-.34-.36,1.25,1.25,0,0,0-.46-.19h-.18l2-14.52a.91.91,0,0,0,.28-.23.83.83,0,0,0,.17-.32l1.2.19v-.29a2.29,2.29,0,0,0-.35-1.63,1.07,1.07,0,0,0-.32-.35,1.4,1.4,0,0,0-.43-.2c.67-1.85,2-3,3.2-2.83h.12c1.25.2,2.16,1.73,2.3,3.69a1.24,1.24,0,0,0-.47.05,1.08,1.08,0,0,0-.42.23,2.32,2.32,0,0,0-.78,1.47v.3Zm4.08-30.41a1,1,0,0,0,.28.69l-2,14.5h-.16a1.77,1.77,0,0,0-1.63,1.51l-2.9-.45a2.25,2.25,0,0,0-.36-1.4,1.26,1.26,0,0,0-.34-.35,1.34,1.34,0,0,0-.46-.2h0l2-14.49a1,1,0,0,0,.45-.57l1.22.19v-.27a2.35,2.35,0,0,0-.35-1.67,1.2,1.2,0,0,0-.75-.53c.67-1.85,2-3,3.2-2.83s2.16,1.73,2.33,3.69c-.78-.12-1.52.65-1.68,1.75v.3Zm4.62-32.61c-.77-.12-1.51.65-1.67,1.77v.27l1.23.18a.76.76,0,0,0,.06.37,1,1,0,0,0,.22.32l-2,14.5h-.18a1,1,0,0,0-.48,0,1.1,1.1,0,0,0-.42.24,2.07,2.07,0,0,0-.71,1.2l-2.92-.45a1.68,1.68,0,0,0-.2-1.18,1.77,1.77,0,0,0-.94-.78h-.14l2-14.5a1,1,0,0,0,.29-.24.87.87,0,0,0,.17-.33l1.21.19v-.27c.16-1.12-.35-2.08-1.12-2.2h-.23c.7-2,2-3.28,3.51-3.07h.1c1.41.22,2.41,2,2.55,3.93Z" transform="translate(-86.51 -208.96)"/><path class="cls-8" d="M870.4,512l-.23,1.77-2-.34.24-1.77a7.05,7.05,0,0,0-1-5.28,7.46,7.46,0,0,0-4.48-3.14,7,7,0,0,0-2.73.31,7.24,7.24,0,0,0-2.4,1.33,6.75,6.75,0,0,0-1.67,2.13,6.57,6.57,0,0,0-.69,2.6l-.25,1.77-2.27-.36.25-1.77a7.63,7.63,0,0,0-1.48-5.55,8,8,0,0,0-5-3A7.53,7.53,0,0,0,841,502a7.12,7.12,0,0,0-1.94,2.15,6.89,6.89,0,0,0-.93,2.71l-.25,1.79-2.23-.36.25-1.77a7.55,7.55,0,0,0-1.38-5.41,8,8,0,0,0-4.77-3.09l-5.4,40.37h6.82l3.52-24.2h.18l2.26.37h.2l-3,23.89h14.56L852,517h.19l2.25.36h.2l-2.62,21h12.29l2.76-19.09h.19l2.27.36h.18l-2.33,18.67h3.07c0-.4,3.38-25,4.4-32.58a7.83,7.83,0,0,0-3.1,2.54A7.57,7.57,0,0,0,870.4,512Z" transform="translate(-86.51 -208.96)"/><path class="cls-8" d="M824.7,255.45a3.08,3.08,0,0,0-.35,1.06,2.87,2.87,0,0,0,2.24,3.3l1.17.2-1,7.35-.85-.14c-.87-.14-1.7.77-2,2v.28l1.07.18a1.54,1.54,0,0,0,.34,1l-4.22,31.86a2,2,0,0,0-1.77,1.75l-11.3-1.81a1.8,1.8,0,0,0-.61.05,1.66,1.66,0,0,0-.54.29,1.43,1.43,0,0,0-.38.47,1.34,1.34,0,0,0-.17.59,1.78,1.78,0,0,0,.28,1.23,1.47,1.47,0,0,0,.43.43,1.43,1.43,0,0,0,.56.22l.81.14-.73,5.58a6.28,6.28,0,0,1,.71,2.61c-.77-.12-1.49.67-1.64,1.77v.25l1.19.2a1,1,0,0,0,.27.69l-2,14.5h-.18a1.06,1.06,0,0,0-.47,0,1.22,1.22,0,0,0-.42.23,2.18,2.18,0,0,0-.69,1.22h-.38a1.4,1.4,0,0,0-.61.05,1.59,1.59,0,0,0-.55.28,1.53,1.53,0,0,0-.39.48,1.34,1.34,0,0,0-.17.58,1.93,1.93,0,0,0,.29,1.24,1.47,1.47,0,0,0,.43.43,1.41,1.41,0,0,0,.57.22h.53l-.75,5.68V342a5.73,5.73,0,0,1,.67,2.46,1,1,0,0,0-.39.06,1.08,1.08,0,0,0-.34.21,2.17,2.17,0,0,0-.73,1.48v.27l1.16.2a1,1,0,0,0,.28.67l-2,14.51H802a1.24,1.24,0,0,0-.47.05,1.08,1.08,0,0,0-.42.23,2.31,2.31,0,0,0-.7,1.24H800a1.4,1.4,0,0,0-.61.05,1.44,1.44,0,0,0-.55.28,1.5,1.5,0,0,0-.38.48,1.69,1.69,0,0,0-.17.58,1.66,1.66,0,0,0,1.27,2h.56l-.76,5.66v.1a5.61,5.61,0,0,1,.68,2.44,1.1,1.1,0,0,0-.73.29,2.23,2.23,0,0,0-.74,1.47V377l1.17.2a1.07,1.07,0,0,0,.28.68l-2,14.5h-.18a1.13,1.13,0,0,0-.48,0,1.11,1.11,0,0,0-.41.23,2.32,2.32,0,0,0-.72,1.37h-.37a1.4,1.4,0,0,0-1.11.32,1.64,1.64,0,0,0-.6,1.1,1.79,1.79,0,0,0,.28,1.23,1.47,1.47,0,0,0,.43.43,1.6,1.6,0,0,0,.56.22H796l-.76,5.68a5.61,5.61,0,0,1,.68,2.43c-.7,0-1.33.75-1.47,1.77v.28l1.17.19a1,1,0,0,0,.3.67l-2,14.5h-.17c-.7-.12-1.37.55-1.59,1.51h-.38a1.58,1.58,0,0,0-.61.05,1.42,1.42,0,0,0-.54.29,1.43,1.43,0,0,0-.38.47,1.34,1.34,0,0,0-.17.59,1.64,1.64,0,0,0,1.27,2l.53.1-.73,5.66a5.74,5.74,0,0,1,.67,2.43c-.69,0-1.32.77-1.46,1.77v.29l1.17.18a1,1,0,0,0,.29.69l-2,14.49h-.18a1.25,1.25,0,0,0-.47,0,1.32,1.32,0,0,0-.42.23,2.15,2.15,0,0,0-.67,1.22h-.4a1.59,1.59,0,0,0-.61.06,1.51,1.51,0,0,0-.92.77,1.34,1.34,0,0,0-.17.58,1.59,1.59,0,0,0,.22,1.24,1.69,1.69,0,0,0,1,.73h.55l-.75,5.65v.1a5.82,5.82,0,0,1,.67,2.44c-.69,0-1.33.77-1.47,1.77v.27l1.19.2a.89.89,0,0,0,.07.36,1,1,0,0,0,.21.31l-2,14.49h-.18c-.69-.09-1.37.55-1.59,1.52h-.37a1.55,1.55,0,0,0-.61,0,1.61,1.61,0,0,0-.55.29,1.43,1.43,0,0,0-.38.47,1.74,1.74,0,0,0-.17.59,1.82,1.82,0,0,0,.28,1.24,1.44,1.44,0,0,0,.43.42,1.62,1.62,0,0,0,.56.23L829.4,496l.44-3.3-3.49-.57c0-1-.44-1.83-1.13-2H825l2-14.5a1,1,0,0,0,.29-.24,1,1,0,0,0,.17-.33l1.17.2V475a2,2,0,0,0-.11-1.22,2,2,0,0,0-.82-.92,4.24,4.24,0,0,1,1.84-2.08,4.33,4.33,0,0,1,2.75-.53h.18a.76.76,0,0,1,.3,0l1.05-8.12-3.45-.57a2.23,2.23,0,0,0-.36-1.37,1,1,0,0,0-.33-.35,1.14,1.14,0,0,0-.44-.18h.14l2-14.5a.94.94,0,0,0,.44-.57l1.19.2v-.29a2.07,2.07,0,0,0-.11-1.23,2,2,0,0,0-.82-.92,4.23,4.23,0,0,1,1.85-2.07,4.36,4.36,0,0,1,2.74-.52h.18a1.13,1.13,0,0,1,.26,0l1.07-8.09-3.45-.55a2.22,2.22,0,0,0-.34-1.42,1.1,1.1,0,0,0-.33-.35,1.23,1.23,0,0,0-.46-.18h-.16l2-14.5a.8.8,0,0,0,.29-.23.84.84,0,0,0,.16-.33l1.19.19V414a2.28,2.28,0,0,0-.32-1.65,1.1,1.1,0,0,0-.59-.49,4.23,4.23,0,0,1,1.85-2.09,4.39,4.39,0,0,1,2.75-.53h.39l1.07-8.11-3.39-.55a2.4,2.4,0,0,0-.33-1.55,1.23,1.23,0,0,0-.33-.35,1.25,1.25,0,0,0-.45-.18h-.19l2-14.5a.92.92,0,0,0,.45-.55l1.17.18v-.28a1.9,1.9,0,0,0-.11-1.22,2,2,0,0,0-.82-.92,4.37,4.37,0,0,1,1.87-2.07,4.46,4.46,0,0,1,2.75-.54h.38l1-8.09-3.37-.53c0-1-.42-1.83-1.13-2h-.16l2-14.49A1,1,0,0,0,844,353l1.17.18v-.27a2.07,2.07,0,0,0-.11-1.23,2,2,0,0,0-.83-.91,4.37,4.37,0,0,1,4.62-2.62h.34l1.07-8.07-3.35-.55a1.76,1.76,0,0,0-.19-1.19,1.71,1.71,0,0,0-.94-.77h-.18l2-14.52a.82.82,0,0,0,.29-.23.76.76,0,0,0,.17-.32l1.17.19v-.29a1.89,1.89,0,0,0-1.11-2.18,4.64,4.64,0,0,1,4.91-2.83h.3l7.41-56.49ZM826.53,317a4.53,4.53,0,0,1,2-2.25,4.6,4.6,0,0,1,2.93-.58h.16a5,5,0,0,1,2.67,1.5,4.83,4.83,0,0,1,1.29,2.76c-.77-.14-1.48.65-1.64,1.75v.27l1.17.2a1,1,0,0,0,.28.67l-2,14.5h-.15a1,1,0,0,0-.48,0,1,1,0,0,0-.42.23,2.28,2.28,0,0,0-.69,1.2l-6.12-1a1.89,1.89,0,0,0-1.13-2h-.18l2-14.49a1.13,1.13,0,0,0,.29-.24,1.29,1.29,0,0,0,.17-.33l1.16.19v-.27C827.78,318.12,827.28,317.14,826.53,317Zm4.32,34a1,1,0,0,0,.29.67l-2,14.5H829c-.69-.12-1.36.54-1.58,1.49l-6.13-1a2.35,2.35,0,0,0-.33-1.39,1.29,1.29,0,0,0-.34-.36,1.25,1.25,0,0,0-.46-.19H820l2-14.5a.89.89,0,0,0,.45-.57l1.17.2v-.28a2,2,0,0,0-1-2.16,4.38,4.38,0,0,1,4.62-2.61h.16a4.73,4.73,0,0,1,2.5,1.37,4.64,4.64,0,0,1,1.24,2.56c-.71,0-1.34.73-1.46,1.77v.27Zm-4,30.39a1.06,1.06,0,0,0,.3.69l-2,14.49H825c-.73-.12-1.43.61-1.6,1.65l-6.11-1c0-1.06-.4-2-1.13-2.1H816l2-14.5a1,1,0,0,0,.46-.57l1.17.2v-.28a2.52,2.52,0,0,0-.32-1.67,1.39,1.39,0,0,0-.63-.49,4.4,4.4,0,0,1,1.86-2.07,4.49,4.49,0,0,1,2.76-.54h.15a4.67,4.67,0,0,1,3.75,3.93c-.71,0-1.33.74-1.47,1.77v.27Zm-4,30.56a.94.94,0,0,0,.3.69l-2,14.5h-.17c-.7-.12-1.37.55-1.59,1.49l-6.1-1a2.32,2.32,0,0,0-.36-1.4,1.14,1.14,0,0,0-.34-.35,1.22,1.22,0,0,0-.45-.2h-.16l2-14.51a.92.92,0,0,0,.29-.23.9.9,0,0,0,.17-.32l1.17.19v-.29a2,2,0,0,0-.12-1.23,2,2,0,0,0-.83-.91,4.28,4.28,0,0,1,1.86-2.08,4.39,4.39,0,0,1,2.75-.53h.16a4.62,4.62,0,0,1,2.51,1.37,4.68,4.68,0,0,1,1.24,2.55c-.72,0-1.33.73-1.47,1.77v.28Zm-4,30.43a1,1,0,0,0,.29.67l-2,14.5h-.18c-.67-.12-1.35.53-1.56,1.47l-6.13-1a1.88,1.88,0,0,0-1.15-2h-.16l2-14.49a.81.81,0,0,0,.28-.24.87.87,0,0,0,.17-.33l1.17.19V441a2.38,2.38,0,0,0-.31-1.65,1.33,1.33,0,0,0-.64-.51,4.33,4.33,0,0,1,1.86-2.08,4.42,4.42,0,0,1,2.76-.51h.16a4.66,4.66,0,0,1,2.5,1.37,4.58,4.58,0,0,1,1.24,2.55c-.71,0-1.32.75-1.46,1.77v.28Zm-16.32-4.52a1.1,1.1,0,0,0-.33-.35,1.34,1.34,0,0,0-.46-.2,3.77,3.77,0,0,1,1.42-2,3.83,3.83,0,0,1,2.37-.71h.14a4.06,4.06,0,0,1,2.09,1.42,3.91,3.91,0,0,1,.8,2.39c-.75-.09-1.45.67-1.59,1.75v.3l1.17.17a1,1,0,0,0,.28.69l-2,14.5h-.18a1.15,1.15,0,0,0-.89.27,2.18,2.18,0,0,0-.69,1.22l-4.09-.67a2.64,2.64,0,0,0-.35-1.37A1.46,1.46,0,0,0,800,455a1.25,1.25,0,0,0-.46-.19h-.16l2-14.5a.81.81,0,0,0,.28-.24.87.87,0,0,0,.17-.33l1.17.2v-.28a2.53,2.53,0,0,0-.55-1.69Zm4-30.42a1.26,1.26,0,0,0-.34-.35,1.09,1.09,0,0,0-.45-.18,3.71,3.71,0,0,1,3.78-2.71h.14a3.92,3.92,0,0,1,2.89,3.79c-.73-.1-1.44.68-1.6,1.76v.26l1.17.2a.94.94,0,0,0,.28.66l-2,14.52h-.18a.93.93,0,0,0-.47,0,1,1,0,0,0-.42.25,2.15,2.15,0,0,0-.69,1.23l-4.1-.66c0-1-.42-1.83-1.11-2h-.18l2-14.52a.9.9,0,0,0,.44-.55l1.17.2v-.27a2.72,2.72,0,0,0-.46-1.69Zm3.25-31.1a3.73,3.73,0,0,1,1.4-2,3.82,3.82,0,0,1,2.36-.71h.14a4,4,0,0,1,2.11,1.42,3.9,3.9,0,0,1,.81,2.39,1.81,1.81,0,0,0-1.61,1.75v.27l1.19.2a1.06,1.06,0,0,0,.28.69l-2,14.5h-.18a1.11,1.11,0,0,0-.48,0,1.14,1.14,0,0,0-.41.24,2.2,2.2,0,0,0-.74,1.38l-4-.65a2.51,2.51,0,0,0-.34-1.56,1,1,0,0,0-.34-.35,1.22,1.22,0,0,0-.45-.2h-.18l2-14.49a1,1,0,0,0,.46-.57l1.17.19v-.27c-.1-1.14-.62-2.12-1.37-2.24Zm4.81-29.88a1.1,1.1,0,0,0-.33-.35,1.3,1.3,0,0,0-.46-.18,3.65,3.65,0,0,1,1.35-2,3.69,3.69,0,0,1,2.28-.75h.14a4,4,0,0,1,2.11,1.42,3.91,3.91,0,0,1,.8,2.39,1.38,1.38,0,0,0-.45,0,1.2,1.2,0,0,0-.4.22,2.26,2.26,0,0,0-.75,1.49v.28l1.18.19a1,1,0,0,0,.28.67l-2,14.5h-.16A1.71,1.71,0,0,0,816.7,366l-4.11-.67c0-1-.43-1.83-1.13-2h-.17l2-14.5a.81.81,0,0,0,.28-.24.87.87,0,0,0,.17-.33l1.17.2v-.28a2.57,2.57,0,0,0-.35-1.69Zm3.23-30.92h-.29a3.9,3.9,0,0,1,1.45-2.17,4,4,0,0,1,2.51-.79h.14a4.39,4.39,0,0,1,2.26,1.54,4.31,4.31,0,0,1,.87,2.58h-.24c-.75-.12-1.48.67-1.62,1.75v.27l1.17.2a1,1,0,0,0,.3.69l-2,14.5h-.17a1.06,1.06,0,0,0-.47,0,1.27,1.27,0,0,0-.41.23,2.18,2.18,0,0,0-.69,1.22l-4.1-.67a1.87,1.87,0,0,0-1.13-2h-.18l2-14.5a.91.91,0,0,0,.28-.23,1,1,0,0,0,.18-.32l1.17.18v-.28c.09-1.18-.4-2.1-1.15-2.28ZM810,317.25a.81.81,0,0,0,.28-.24.8.8,0,0,0,.17-.33l1.17.2v-.28a2.52,2.52,0,0,0-.31-1.65,1.38,1.38,0,0,0-.8-.55H810c.69-2,2-3.29,3.41-3.08h.11c1.37.24,2.32,2,2.46,3.93-.75-.12-1.48.67-1.62,1.75v.27l1.17.2a1,1,0,0,0,.29.69l-2,14.49h-.16c-.71-.09-1.36.55-1.58,1.5l-2.78-.45a2.36,2.36,0,0,0-.33-1.38,1.26,1.26,0,0,0-.34-.35,1.23,1.23,0,0,0-.46-.18h-.16Zm-4,30.39a1,1,0,0,0,.44-.57l1.17.2V347c.16-1.1-.34-2.08-1.09-2.2h-.2c.65-1.82,2-3,3.11-2.82h.1c1.23.19,2.12,1.72,2.24,3.73-.67,0-1.29.76-1.43,1.75v.29l1.19.18a1,1,0,0,0,.28.66l-2,14.52h-.16c-.71-.12-1.39.53-1.59,1.51l-2.75-.45a2.44,2.44,0,0,0-.36-1.39,1.22,1.22,0,0,0-.32-.36,1.27,1.27,0,0,0-.45-.19H804Zm-4,30.41a1,1,0,0,0,.44-.57l1.19.2v-.28c.15-1.12-.34-2.08-1.1-2.2h-.19c.63-1.85,1.86-3,3.11-2.83s2.1,1.75,2.24,3.74c-.68,0-1.29.76-1.43,1.74v.28l1.19.2a1,1,0,0,0,.28.68l-2,14.5h-.18a1.11,1.11,0,0,0-.48,0,1.44,1.44,0,0,0-.42.23,2.26,2.26,0,0,0-.73,1.38l-2.73-.43c0-1-.38-2-1.11-2.1H800Zm-4,30.55a1.23,1.23,0,0,0,.28-.23,1,1,0,0,0,.15-.32l1.19.19V408a1.89,1.89,0,0,0-1.11-2.18h-.2c.64-1.85,2-3,3.11-2.83s2.13,1.73,2.26,3.71a1.83,1.83,0,0,0-1.42,1.77v.27l1.19.2a1,1,0,0,0,.27.67l-2,14.5h-.16c-.69-.12-1.36.55-1.58,1.51l-2.76-.45c0-1-.43-1.83-1.13-2h-.49Zm-4,30.42a.77.77,0,0,0,.28-.23.88.88,0,0,0,.16-.32l1.19.18v-.27a1.9,1.9,0,0,0-1.13-2.2h-.18c.63-1.85,1.88-3,3.11-2.83s2.12,1.71,2.26,3.71c-.69,0-1.31.77-1.43,1.75v.29l1.17.18a1,1,0,0,0,.28.69l-2,14.49h-.18c-.69-.09-1.35.55-1.58,1.48l-2.76-.43a1.89,1.89,0,0,0-1.13-2H792Zm-.29,45.79c-.72-.11-1.37.53-1.59,1.52l-2.76-.46a2.26,2.26,0,0,0-.35-1.39,1.15,1.15,0,0,0-.78-.55h-.57l2-14.5a1,1,0,0,0,.29-.24.94.94,0,0,0,.17-.33l1.17.2v-.27a2.43,2.43,0,0,0-.34-1.67,1,1,0,0,0-.33-.35,1.16,1.16,0,0,0-.44-.19h-.2c.65-1.82,2-3,3.11-2.82s2.12,1.72,2.26,3.71a1.22,1.22,0,0,0-.69.29,2.34,2.34,0,0,0-.74,1.48v.29l1.17.18a.9.9,0,0,0,.08.36,1,1,0,0,0,.22.31l-2,14.51Zm8.75,1.42c-.69-.12-1.36.55-1.58,1.51l-4.08-.67a2.34,2.34,0,0,0-.36-1.39,1.13,1.13,0,0,0-.33-.36,1.16,1.16,0,0,0-.44-.19h-.18l2-14.5a1,1,0,0,0,.46-.57l1.17.2V470a2.45,2.45,0,0,0-.34-1.67,1.07,1.07,0,0,0-.33-.34,1,1,0,0,0-.44-.19,3.62,3.62,0,0,1,1.4-2,3.75,3.75,0,0,1,2.36-.7H802a4.11,4.11,0,0,1,2.09,1.43,4,4,0,0,1,.82,2.38,1.79,1.79,0,0,0-1.6,1.75v.28l1.17.19a.94.94,0,0,0,.07.37,1,1,0,0,0,.23.3l-2,14.5ZM813.37,488a.93.93,0,0,0-.47,0,1,1,0,0,0-.4.24,2.08,2.08,0,0,0-.7,1.22l-6.12-1a2.32,2.32,0,0,0-.36-1.4,1,1,0,0,0-.33-.35,1,1,0,0,0-.44-.2h-.18l2-14.49a1,1,0,0,0,.44-.57l1.19.19v-.29a2.33,2.33,0,0,0-.32-1.65,1.27,1.27,0,0,0-.63-.49,4.33,4.33,0,0,1,1.86-2.08,4.46,4.46,0,0,1,2.75-.54h.16a4.67,4.67,0,0,1,3.75,3.93c-.7,0-1.33.75-1.47,1.77v.28l1.19.17a1,1,0,0,0,.28.69l-2,14.5Zm12.52-13.44a.94.94,0,0,0,.07.37,1,1,0,0,0,.21.32l-2,14.49H824a1.12,1.12,0,0,0-.48,0,1.09,1.09,0,0,0-.41.22,2.31,2.31,0,0,0-.7,1.24l-5.94-1a2.43,2.43,0,0,0-.36-1.42,1,1,0,0,0-.33-.35,1.14,1.14,0,0,0-.44-.18h-.18l2-14.5a.89.89,0,0,0,.29-.22.87.87,0,0,0,.17-.33l1.17.18v-.27a2.6,2.6,0,0,0-.32-1.66,1.42,1.42,0,0,0-.65-.51,4.23,4.23,0,0,1,1.85-2.07,4.36,4.36,0,0,1,2.74-.52h.18a4.73,4.73,0,0,1,2.5,1.37,4.63,4.63,0,0,1,1.23,2.56,1,1,0,0,0-.42.06,1,1,0,0,0-.35.22,2.27,2.27,0,0,0-.76,1.47v.29Zm4-30.37a.94.94,0,0,0,.07.37,1.29,1.29,0,0,0,.22.3l-2,14.5H828c-.69-.12-1.34.53-1.58,1.47l-5.95-1a1.89,1.89,0,0,0-1.13-2h-.18l2-14.52a.92.92,0,0,0,.45-.55l1.17.2v-.29a2,2,0,0,0-1-2.16,4.31,4.31,0,0,1,1.85-2.08,4.38,4.38,0,0,1,2.75-.52h.18a4.7,4.7,0,0,1,2.48,1.39,4.65,4.65,0,0,1,1.24,2.54,1.25,1.25,0,0,0-.79.28,2.31,2.31,0,0,0-.73,1.49v.27Zm4-30.43a1,1,0,0,0,.08.38.84.84,0,0,0,.22.31l-2,14.5H832a1,1,0,0,0-.48,0,1.21,1.21,0,0,0-.42.22,2.29,2.29,0,0,0-.69,1.24l-5.94-1c0-1-.44-1.85-1.13-2h-.18l2-14.49a.91.91,0,0,0,.28-.23,1.14,1.14,0,0,0,.18-.32l1.16.17v-.27a2,2,0,0,0-1-2.16,4.28,4.28,0,0,1,1.86-2.08,4.35,4.35,0,0,1,2.74-.52h.16a4.74,4.74,0,0,1,3.75,3.93,1.17,1.17,0,0,0-.8.28,2.31,2.31,0,0,0-.73,1.49v.28Zm4-30.56a1,1,0,0,0,.28.68l-2,14.5h-.18c-.73-.12-1.45.61-1.62,1.65l-5.95-1c.1-1.06-.38-2-1.11-2.1H827l2-14.52a.79.79,0,0,0,.28-.23.74.74,0,0,0,.16-.32l1.19.18v-.28a2,2,0,0,0-.12-1.24,2,2,0,0,0-.85-.92,4.34,4.34,0,0,1,4.6-2.59h.15a4.67,4.67,0,0,1,3.75,3.93,1.08,1.08,0,0,0-.79.27,2.39,2.39,0,0,0-.74,1.49V383Zm4-30.41a.8.8,0,0,0,.08.37.87.87,0,0,0,.22.32l-2,14.49h-.18c-.69-.11-1.36.55-1.58,1.5l-5.95-1c0-1-.43-1.82-1.13-2H831l2-14.5a.89.89,0,0,0,.29-.22.84.84,0,0,0,.16-.33l1.17.18v-.28a1.9,1.9,0,0,0-.13-1.24,2,2,0,0,0-.86-.92,4.38,4.38,0,0,1,4.62-2.59h.16a4.73,4.73,0,0,1,2.5,1.37,4.64,4.64,0,0,1,1.24,2.56,1.83,1.83,0,0,0-1.54,1.75v.29Zm4.5-32.59a1.3,1.3,0,0,0-.48,0,1.21,1.21,0,0,0-.42.22,2.46,2.46,0,0,0-.73,1.5v.27l1.19.2a1,1,0,0,0,.28.67l-2,14.49H844c-.7-.11-1.37.53-1.59,1.48l-5.94-1a1.76,1.76,0,0,0-1.11-2h-.2l2-14.5a1,1,0,0,0,.46-.57l1.16.2V321a2.49,2.49,0,0,0-.31-1.65,1.26,1.26,0,0,0-.34-.35,1.25,1.25,0,0,0-.46-.19h-.11a4.58,4.58,0,0,1,2-2.24,4.64,4.64,0,0,1,2.94-.58h.18a5,5,0,0,1,2.67,1.5,4.89,4.89,0,0,1,1.29,2.76Zm.73-30-2.38,18.11-18.63-3,2.38-18.13a9.45,9.45,0,0,1,1-3.67,9.66,9.66,0,0,1,9.63-5.11,10.34,10.34,0,0,1,6.24,4.38,10.18,10.18,0,0,1,1.51,7.42Z" transform="translate(-86.51 -208.96)"/><path class="cls-8" d="M822.65,500.06a7.17,7.17,0,0,0-2.45,4.6l-.21,1.76-1.92-.34.24-1.75a7.91,7.91,0,0,0-1.19-5.22A7.55,7.55,0,0,0,815,497a7.42,7.42,0,0,0-2.75-1.11A6.82,6.82,0,0,0,807,497.2a7.31,7.31,0,0,0-1.83,2.12,7.46,7.46,0,0,0-.87,2.69l-.21,1.73-2.12-.36.21-1.75A8.31,8.31,0,0,0,801,496a6,6,0,0,0-1.64-1.76,5.74,5.74,0,0,0-2.18-.95,5.27,5.27,0,0,0-2.37.16,5.43,5.43,0,0,0-2.09,1.15,7.76,7.76,0,0,0-2.55,5l-.23,1.76L788,501l.23-1.75a8.15,8.15,0,0,0-.3-4,7.93,7.93,0,0,0-2.15-3.32c-1.19,9.25-5.86,45.94-5.94,46.49h.56c.34-1.63,1.38-2.79,2.45-2.62h.32l4-29h.19l2.1.35h.19l-3.44,29.14h.32a2.28,2.28,0,0,1,1.1.73,2.4,2.4,0,0,1,.51,1.24H797L801.14,509h.19l2.08.34h.2l-3.41,28.84h13.4l3.65-26.58h.17l2.11.36h.19l-3.08,26.16h7l4.78-39.45h-.25a6.7,6.7,0,0,0-5.49,1.38Z" transform="translate(-86.51 -208.96)"/><path class="cls-9" d="M1062.64,449a84.75,84.75,0,0,0-15.64,7.4,37.18,37.18,0,0,0-11.62,13.27,14.54,14.54,0,0,0,2.53,17.78c.26.29.49.7.79,1.07s.45.68-.32.68H1037c-7.63,0-15.24.36-22.88.37-2.56,0-3.1.73-3.12,3.28V506.4c0,2.93-4.11,4.58-8,4.82-4.72.27-7.29-5.86-7.19-9.45a24.5,24.5,0,0,0-.38-6.28,66,66,0,0,1-2.53-14.76V462a6.85,6.85,0,0,1,1.37-4.29,4.67,4.67,0,0,0,1.3-2.89c.16-1.78-1-3.1-2-3s-2.09-2.83-2.45-6.61a47.8,47.8,0,0,1-.29-6.87,19.07,19.07,0,0,1,1.36-6.23c.18-.41,2.57-6.63,1.38-6.4l-1.4.29c-.77.16-1.42-3.41-1.44-8v-8.31a13.32,13.32,0,0,0-2.22-8.53,2.88,2.88,0,0,1-.7-1.88,2.92,2.92,0,0,1,.7-1.89,7.5,7.5,0,0,0,1.3-2.91,7.74,7.74,0,0,0,0-3.18c-.81-3.43-6.74-3.23-7.36.36A9.41,9.41,0,0,0,984,398a2.57,2.57,0,0,1,.33,1.08,2.36,2.36,0,0,1-.18,1.12,17.73,17.73,0,0,0-2.67,11.71c.18,4.08,0,8.16,0,12.24v1c0,.32-.19,1-.35,1.08s-.24.1-.32,0l-2-.45c-.36,0,2,10.95,2,11.55a48.41,48.41,0,0,1-.16,7.52c-.33,4.15-1.87,7.39-3.44,7.2a2.25,2.25,0,0,0-1.17.17,2.28,2.28,0,0,0-.9.76,2.12,2.12,0,0,0-.35,1.12,2.05,2.05,0,0,0,.29,1.13,8.26,8.26,0,0,0,2.35,2.87,6.45,6.45,0,0,1,2.16,4.11c.18,11.17.83,21.47-1.76,32.38a51.48,51.48,0,0,0-1.05,7,11.89,11.89,0,0,1-3.76,8.25c-.83.57-1.1,1.43-1.1,3.3v25.37h81.9c0-.47.32-4.21.32-4.7,0-16.43,6.44-29.74,14.23-29.74h.58V448A18.3,18.3,0,0,0,1062.64,449Z" transform="translate(-86.51 -208.96)"/><path class="cls-9" d="M1161,509.55c-.43-.12.22-12.2,0-13.18-.92-5.31-2.35-9.21-2.37-14.75V462.75a5.9,5.9,0,0,1,1.59-4.15,3.12,3.12,0,0,0,1-1.37,3.06,3.06,0,0,0,.14-1.72,3.43,3.43,0,0,0-3.29-3.2c-1.49.12-2.78-3-2.68-7.16a39.56,39.56,0,0,1,.78-7.44,31,31,0,0,1,2.19-5.72c1.36-3.11.79-5.9.28-5.72l-.94.21h-.26c-.13,0-.27-.53-.29-1.08s0-.65,0-1c0-4.11-.12-8.23,0-12.34a18.05,18.05,0,0,0-2.62-11.8,2.43,2.43,0,0,1-.18-1.13,2.61,2.61,0,0,1,.33-1.09,9.45,9.45,0,0,0,1.53-6.35c-.59-3.62-6.46-3.82-7.27-.34a7.67,7.67,0,0,0,0,3.2,7.59,7.59,0,0,0,1.28,2.94,2.86,2.86,0,0,1,0,3.77,13.69,13.69,0,0,0-2.2,8.62c.1,2.77.12,5.55.1,8.36,0,4.62-.66,8.24-1.43,8.06s-1.43,1.32-.84,3.17c.29.95.7,1.81,1.18,3.31a18,18,0,0,1,.23,5.13v7.32c0,4.05-.78,7.22-2,7.08s-2.21,1.22-2,3a4.7,4.7,0,0,0,1.3,2.89,7,7,0,0,1,1.37,4.31c0,6.9.13,13.76,0,20.75,0,5.66-2.74,10.68-2.88,16.23-.14,6.39,0,11.36-7.58,11.8-3.19.2-10.48-.63-10.48-5.31,0-.16-.16-5.53-.16-5.9v-6.91c0-3.6-.33-4.31-3.91-4.31h-22c-.43,0-.85.09-1.27.16-.71.12-.94-.29-.47-.73a10.32,10.32,0,0,0,.8-.78c4.9-5.41,6-11.49,2.66-17.92a44.12,44.12,0,0,0-6.79-9.37c-3.92-4.22-10-7.86-15.79-10.91a20.52,20.52,0,0,0-9.18-2v56.43c7.48.63,15.37,18.67,13.28,34.68h81.49V514.07C1164.07,510.57,1164.53,510.57,1161,509.55Z" transform="translate(-86.51 -208.96)"/><path class="cls-5" d="M1168,532.4H517.08v4H1168Z" transform="translate(-86.51 -208.96)"/><path class="cls-1" d="M1136.19,558.68h-1018c-8.4,0-16.46-2.35-22.4-6.52s-9.28-9.82-9.28-15.72H1168a16.57,16.57,0,0,1-2.43,8.53,23.58,23.58,0,0,1-6.9,7.23,34.9,34.9,0,0,1-10.32,4.81A43.81,43.81,0,0,1,1136.19,558.68Z" transform="translate(-86.51 -208.96)"/></svg>