<?xml version="1.0" encoding="utf-8"?>
<!-- Generator: Adobe Illustrator 25.2.0, SVG Export Plug-In . SVG Version: 6.00 Build 0)  -->
<svg version="1.1" id="Layer_1" xmlns="http://www.w3.org/2000/svg" xmlns:xlink="http://www.w3.org/1999/xlink" x="0px" y="0px"
	 viewBox="0 0 915.5 314.3" style="enable-background:new 0 0 915.5 314.3;" xml:space="preserve">
<style type="text/css">
	.st0{fill:#26576C;}
	.st1{opacity:0.29;fill:#3C586B;enable-background:new    ;}
	.st2{fill:#6FB699;}
	.st3{opacity:0.29;fill:#6FB699;enable-background:new    ;}
	.st4{fill:#E9D27A;}
	.st5{fill:#DEB161;}
	.st6{fill:#FFFFFF;}
	.st7{opacity:0.52;}
	.st8{opacity:0.5;fill:#FFFFFF;enable-background:new    ;}
	.st9{opacity:0.33;fill:#FFFFFF;enable-background:new    ;}
	.st10{opacity:0.4;fill:#FFFFFF;enable-background:new    ;}
</style>
<g id="Object">
	<path class="st0" d="M252.9,91.9v160.8h40.4V91.9H252.9z M256.5,106.7v-8.4h3.1v8.4H256.5z M280.7,106.7v-8.4h3v8.4H280.7z
		 M277.7,98.3v8.4h-3.1v-8.4H277.7z M268.6,98.3h3.1v8.4h-3.1V98.3z M265.6,106.7h-3.1v-8.4h3.1V106.7z M286.7,106.7v-8.4h3v8.4
		H286.7z"/>
	<path class="st0" d="M259.5,80.4v67.6h27.2V80.4H259.5z M265.6,106.7h-3.1v-8.4h3.1V106.7z M268.6,106.7v-8.4h3.1v8.4H268.6z
		 M274.6,106.7v-8.4h3.1v8.4H274.6z M265.6,83.1h1.2v7.1h-1.2V83.1z M269,83.1h1.3v7.1H269V83.1z M276,83.1h1.3v7.1H276V83.1z
		 M280.8,83.1v7.1h-1.3v-7.1H280.8z M263.3,83.1v7.1H262v-7.1H263.3z M283.7,106.7h-3v-8.4h3V106.7z M283,90.2v-7.1h1.3v7.1H283z"/>
	<path class="st0" d="M265.6,73.1v10h1.2v7.1h-1.2v20.3h15.1V90.2h-1.2v-7.1h1.2v-10H265.6z M271.6,106.7h-3.1v-8.4h3.1V106.7z
		 M277.7,106.7h-3.1v-8.4h3.1V106.7z M269,83.1h1.3v7.1H269V83.1z M277.3,90.2H276v-7.1h1.3V90.2z"/>
	<path class="st0" d="M268,66.8v25.5h10.3V66.8H268z M270.3,83.1v7.1H269v-7.1H270.3z M276,90.2v-7.1h1.3v7.1H276z"/>
	<polygon class="st0" points="272.5,81.2 271.3,81.2 271.3,55.6 271.7,55.6 272.1,55.6 272.5,55.6 	"/>
	<polygon class="st0" points="274.9,72.4 273.8,72.4 273.8,46.8 274.2,46.8 274.6,46.8 274.9,46.8 	"/>
	<rect x="251.9" y="91.5" class="st0" width="42.6" height="1.7"/>
	<rect x="258.5" y="79.5" class="st0" width="29.2" height="1.7"/>
	<rect x="264.5" y="72.4" class="st0" width="16.8" height="1.3"/>
	<rect x="265.5" y="83.1" class="st1" width="0" height="7.1"/>
	<rect x="286.7" y="98.3" class="st0" width="0" height="8.4"/>
	<rect x="256.5" y="111.4" class="st0" width="3.1" height="8.4"/>
	<rect x="262.5" y="111.4" class="st0" width="3.1" height="8.4"/>
	<rect x="268.6" y="111.4" class="st0" width="3.1" height="8.4"/>
	<rect x="274.6" y="111.4" class="st1" width="3.1" height="8.4"/>
	<rect x="280.7" y="111.4" class="st0" width="3" height="8.4"/>
	<rect x="286.7" y="111.4" class="st0" width="3" height="8.4"/>
	<rect x="256.5" y="124.5" class="st0" width="3.1" height="8.4"/>
	<rect x="262.5" y="124.5" class="st0" width="3.1" height="8.4"/>
	<rect x="268.6" y="124.5" class="st0" width="3.1" height="8.4"/>
	<rect x="274.6" y="124.5" class="st0" width="3.1" height="8.4"/>
	<rect x="280.7" y="124.5" class="st1" width="3" height="8.4"/>
	<rect x="286.7" y="124.5" class="st1" width="3" height="8.4"/>
	<rect x="256.5" y="137.6" class="st1" width="3.1" height="8.4"/>
	<rect x="262.5" y="137.6" class="st0" width="3.1" height="8.4"/>
	<rect x="268.6" y="137.6" class="st0" width="3.1" height="8.4"/>
	<rect x="274.6" y="137.6" class="st0" width="3.1" height="8.4"/>
	<rect x="280.7" y="137.6" class="st0" width="3" height="8.4"/>
	<rect x="286.7" y="137.6" class="st0" width="3" height="8.4"/>
	<rect x="256.5" y="150.7" class="st0" width="3.1" height="8.4"/>
	<rect x="262.5" y="150.7" class="st1" width="3.1" height="8.4"/>
	<rect x="268.6" y="150.7" class="st0" width="3.1" height="8.4"/>
	<rect x="274.6" y="150.7" class="st1" width="3.1" height="8.4"/>
	<rect x="280.7" y="150.7" class="st0" width="3" height="8.4"/>
	<rect x="286.7" y="150.7" class="st0" width="3" height="8.4"/>
	<rect x="256.5" y="163.8" class="st0" width="3.1" height="8.4"/>
	<rect x="262.5" y="163.8" class="st0" width="3.1" height="8.4"/>
	<rect x="268.6" y="163.8" class="st0" width="3.1" height="8.4"/>
	<rect x="274.6" y="163.8" class="st0" width="3.1" height="8.4"/>
	<rect x="280.7" y="163.8" class="st0" width="3" height="8.4"/>
	<rect x="286.7" y="163.8" class="st1" width="3" height="8.4"/>
	<rect x="256.5" y="176.9" class="st0" width="3.1" height="8.4"/>
	<rect x="262.5" y="176.9" class="st1" width="3.1" height="8.4"/>
	<rect x="268.6" y="176.9" class="st1" width="3.1" height="8.4"/>
	<rect x="274.6" y="176.9" class="st0" width="3.1" height="8.4"/>
	<rect x="280.7" y="176.9" class="st0" width="3" height="8.4"/>
	<rect x="286.7" y="176.9" class="st0" width="3" height="8.4"/>
	<rect x="256.5" y="190" class="st0" width="3.1" height="8.4"/>
	<rect x="262.5" y="190" class="st0" width="3.1" height="8.4"/>
	<rect x="268.6" y="190" class="st0" width="3.1" height="8.4"/>
	<rect x="274.6" y="190" class="st0" width="3.1" height="8.4"/>
	<rect x="280.7" y="190" class="st1" width="3" height="8.4"/>
	<rect x="286.7" y="190" class="st0" width="3" height="8.4"/>
	<rect x="256.5" y="203.1" class="st0" width="3.1" height="8.4"/>
	<rect x="262.5" y="203.1" class="st1" width="3.1" height="8.4"/>
	<rect x="268.6" y="203.1" class="st0" width="3.1" height="8.4"/>
	<rect x="274.6" y="203.1" class="st0" width="3.1" height="8.4"/>
	<rect x="280.7" y="203.1" class="st0" width="3" height="8.4"/>
	<rect x="286.7" y="203.1" class="st0" width="3" height="8.4"/>
	<rect x="256.5" y="216.2" class="st0" width="3.1" height="8.4"/>
	<rect x="262.5" y="216.2" class="st0" width="3.1" height="8.4"/>
	<rect x="268.6" y="216.2" class="st0" width="3.1" height="8.4"/>
	<rect x="274.6" y="216.2" class="st1" width="3.1" height="8.4"/>
	<rect x="280.7" y="216.2" class="st0" width="3" height="8.4"/>
	<rect x="286.7" y="216.2" class="st1" width="3" height="8.4"/>
	<rect x="256.5" y="229.3" class="st1" width="3.1" height="8.4"/>
	<rect x="262.5" y="229.3" class="st0" width="3.1" height="8.4"/>
	<rect x="268.6" y="229.3" class="st1" width="3.1" height="8.4"/>
	<rect x="274.6" y="229.3" class="st0" width="3.1" height="8.4"/>
	<rect x="280.7" y="229.3" class="st0" width="3" height="8.4"/>
	<rect x="286.7" y="229.3" class="st0" width="3" height="8.4"/>
	<path class="st0" d="M198.4,107.6v9.5H179v5.2H177V117h-4.9v5.2h-1.9V117h-6.4v5.2h-1.9V117H157v5.2H155V117h-17.2v-9.5h-2.2v133.7
		h23.8V196h10.8v-3.8h13.3v3.8h5.9v18.6h11.2v-107H198.4z M155,127.7h1.9V140H155V127.7z M157.4,168h-5.1v-11.4h5.1V168z
		 M161.8,127.7h1.9V140h-1.9V127.7z M168.1,168h-5.6v-11.4h5.6V168z M172.1,140h-1.9v-12.3h1.9V140z M179,140H177v-12.3h1.9V140z
		 M187,140H185v-7.5h1.9V140z M187,127.1H185v-7.4h1.9V127.1z M193.8,140h-1.9v-7.5h1.9V140z M193.8,127.1h-1.9v-7.4h1.9V127.1z"/>
	<path class="st0" d="M189.4,214.6V196h-5.9v-3.8h-13.3v3.8h-10.8v45.4h-23.8v0.2h64.9v-26.9H189.4z M172.1,203.1v-2.3h2.3v2.3
		H172.1z M167.1,200.8h2.3v2.3h-2.3V200.8z M162.5,200.8h2.3v2.3h-2.3V200.8z M162.5,206.1h2.3v2.3h-2.3V206.1z"/>
	<polygon class="st0" points="200.6,106.1 200.6,107.6 198.4,107.6 198.4,117 179,117 179,114.8 177,114.8 177,117 172.1,117 
		172.1,114.8 170.2,114.8 170.2,117 163.8,117 163.8,114.8 161.8,114.8 161.8,117 157,117 157,114.8 155,114.8 155,117 137.8,117 
		137.8,107.6 135.6,107.6 135.6,106.1 	"/>
	<rect x="133.8" y="103.7" class="st0" width="68.6" height="3.8"/>
	<polygon class="st0" points="198.4,98.8 198.4,117 179,117 179,114.8 177,114.8 177,117 172.1,117 172.1,114.8 170.2,114.8 
		170.2,117 163.8,117 163.8,114.8 161.8,114.8 161.8,117 157,117 157,114.8 155,114.8 155,117 137.8,117 137.8,98.8 	"/>
	<rect x="142.4" y="91.4" class="st0" width="24" height="19.9"/>
	<polygon class="st0" points="156.3,97 142.4,97 142.4,86.5 152.4,86.5 	"/>
	<rect x="148" y="77.9" class="st0" width="1.4" height="23.3"/>
	<path class="st0" d="M149.9,76.7c0,0.7-0.5,1.2-1.2,1.2s-1.2-0.5-1.2-1.2c0-0.7,0.5-1.2,1.2-1.2S149.9,76,149.9,76.7L149.9,76.7z"
		/>
	<polygon class="st0" points="738.3,243.8 667.3,243.8 658.4,44.6 738.3,61.2 	"/>
	<path class="st0" d="M428.2,130V63.5H417V45.6h-4V19.5h-22V0.2h-2v19.2h-4.3V-4.6h-2v24.1H369v44h-7.2V130h-6.1v121.3h76.8V130
		H428.2z M373,24.4h3v8.1h-3V24.4z"/>
	<rect x="124" y="241.3" class="st0" width="755.5" height="20.2"/>
	<polygon class="st0" points="544.8,256.6 507.2,256.6 521.9,181.3 544.8,181.3 	"/>
	<rect x="111.8" y="259.5" class="st0" width="774.2" height="31.9"/>
	<polygon class="st0" points="514,117.2 514,83.8 501.9,83.8 501.9,71.1 495.5,71.1 495.5,60.4 493.2,60.4 493.2,42.1 492.6,42.1 
		492.6,60.4 490.3,60.4 490.3,71.1 483.9,71.1 483.9,83.8 471.9,83.8 471.9,117.2 469.4,117.2 469.4,177.8 450.8,177.8 450.8,246.9 
		469.4,246.9 488,246.9 516.4,246.9 516.4,117.2 	"/>
	<polygon class="st0" points="583.4,155.5 524.9,155.5 524.9,156.6 527.6,156.6 527.6,255.4 580.8,255.4 580.8,156.6 583.4,156.6 	
		"/>
	<rect x="265" y="180.2" class="st0" width="51.8" height="82.3"/>
	<rect x="168.1" y="222.3" class="st0" width="89.1" height="40.2"/>
	<rect x="215.9" y="132.6" class="st0" width="19.6" height="98.6"/>
	<rect x="220.2" y="106.3" class="st0" width="1" height="53.6"/>
	<rect x="223.5" y="110.4" class="st0" width="1" height="53.6"/>
	<rect x="217.4" y="126.5" class="st0" width="12" height="13.2"/>
	<rect x="253.7" y="194.9" class="st0" width="34" height="67.6"/>
	<rect x="325.2" y="123.4" class="st0" width="63.9" height="139.1"/>
	<rect x="331.5" y="118.6" class="st0" width="51.4" height="23.2"/>
	<rect x="320.3" y="126.3" class="st0" width="73.8" height="1.6"/>
	<rect x="313.7" y="192.2" class="st0" width="30.1" height="70.3"/>
	<rect x="382.9" y="231.2" class="st0" width="359.9" height="31.3"/>
	<path class="st0" d="M676.3,204.2c0-0.1-0.1-0.3-0.2-0.4c-0.7-1.5-2.2-2.5-3.9-2.5c-0.5,0-0.9,0.1-1.4,0.2l-1-3h-0.5l1.1,3.1
		c-1.1,0.5-1.8,1.4-2.2,2.5c-0.4,1-0.4,2.2,0.2,3.3c1,2.2,3.6,3.1,5.7,2.1C676.1,208.6,677.1,206.3,676.3,204.2z M629.5,200.8
		l0.9-2.2h-0.5l-0.8,2.1c-0.4-0.1-0.9-0.2-1.3-0.2c-2.4,0-4.3,1.9-4.3,4.3c0,2.4,1.9,4.3,4.3,4.3s4.3-1.9,4.3-4.3
		C632.1,203.1,631.1,201.5,629.5,200.8z M632.3,195.2v1.5c1.9,0.7,3.8,1.3,5.7,1.8h8.2C641.4,198.1,636.7,197,632.3,195.2z
		 M676.3,204.2c0-0.1-0.1-0.3-0.2-0.4c-0.7-1.5-2.2-2.5-3.9-2.5c-0.5,0-0.9,0.1-1.4,0.2l-1-3h-0.5l1.1,3.1c-1.1,0.5-1.8,1.4-2.2,2.5
		c-0.4,1-0.4,2.2,0.2,3.3c1,2.2,3.6,3.1,5.7,2.1C676.1,208.6,677.1,206.3,676.3,204.2z M629.5,200.8l0.9-2.2h-0.5l-0.8,2.1
		c-0.4-0.1-0.9-0.2-1.3-0.2c-2.4,0-4.3,1.9-4.3,4.3c0,2.4,1.9,4.3,4.3,4.3s4.3-1.9,4.3-4.3C632.1,203.1,631.1,201.5,629.5,200.8z
		 M632.3,195.2v1.5c1.9,0.7,3.8,1.3,5.7,1.8h8.2C641.4,198.1,636.7,197,632.3,195.2z M676.3,204.2c0-0.1-0.1-0.3-0.2-0.4
		c-0.7-1.5-2.2-2.5-3.9-2.5c-0.5,0-0.9,0.1-1.4,0.2l-1-3h-0.5l1.1,3.1c-1.1,0.5-1.8,1.4-2.2,2.5c-0.4,1-0.4,2.2,0.2,3.3
		c1,2.2,3.6,3.1,5.7,2.1C676.1,208.6,677.1,206.3,676.3,204.2z M629.5,200.8l0.9-2.2h-0.5l-0.8,2.1c-0.4-0.1-0.9-0.2-1.3-0.2
		c-2.4,0-4.3,1.9-4.3,4.3c0,2.4,1.9,4.3,4.3,4.3s4.3-1.9,4.3-4.3C632.1,203.1,631.1,201.5,629.5,200.8z M632.3,195.2v1.5
		c1.9,0.7,3.8,1.3,5.7,1.8h8.2C641.4,198.1,636.7,197,632.3,195.2z M676.3,204.2c0-0.1-0.1-0.3-0.2-0.4c-0.7-1.5-2.2-2.5-3.9-2.5
		c-0.5,0-0.9,0.1-1.4,0.2l-1-3h-0.5l1.1,3.1c-1.1,0.5-1.8,1.4-2.2,2.5c-0.4,1-0.4,2.2,0.2,3.3c1,2.2,3.6,3.1,5.7,2.1
		C676.1,208.6,677.1,206.3,676.3,204.2z M629.5,200.8l0.9-2.2h-0.5l-0.8,2.1c-0.4-0.1-0.9-0.2-1.3-0.2c-2.4,0-4.3,1.9-4.3,4.3
		c0,2.4,1.9,4.3,4.3,4.3s4.3-1.9,4.3-4.3C632.1,203.1,631.1,201.5,629.5,200.8z M632.3,195.2v1.5c1.9,0.7,3.8,1.3,5.7,1.8h8.2
		C641.4,198.1,636.7,197,632.3,195.2z M676.3,204.2c0-0.1-0.1-0.3-0.2-0.4c-0.7-1.5-2.2-2.5-3.9-2.5c-0.5,0-0.9,0.1-1.4,0.2l-1-3
		h-0.5l1.1,3.1c-1.1,0.5-1.8,1.4-2.2,2.5c-0.4,1-0.4,2.2,0.2,3.3c1,2.2,3.6,3.1,5.7,2.1C676.1,208.6,677.1,206.3,676.3,204.2z
		 M629.5,200.8l0.9-2.2h-0.5l-0.8,2.1c-0.4-0.1-0.9-0.2-1.3-0.2c-2.4,0-4.3,1.9-4.3,4.3c0,2.4,1.9,4.3,4.3,4.3s4.3-1.9,4.3-4.3
		C632.1,203.1,631.1,201.5,629.5,200.8z M632.3,195.2v1.5c1.9,0.7,3.8,1.3,5.7,1.8h8.2C641.4,198.1,636.7,197,632.3,195.2z
		 M676.3,204.2c0-0.1-0.1-0.3-0.2-0.4c-0.7-1.5-2.2-2.5-3.9-2.5c-0.5,0-0.9,0.1-1.4,0.2l-1-3h-0.5l1.1,3.1c-1.1,0.5-1.8,1.4-2.2,2.5
		c-0.4,1-0.4,2.2,0.2,3.3c1,2.2,3.6,3.1,5.7,2.1C676.1,208.6,677.1,206.3,676.3,204.2z M629.5,200.8l0.9-2.2h-0.5l-0.8,2.1
		c-0.4-0.1-0.9-0.2-1.3-0.2c-2.4,0-4.3,1.9-4.3,4.3c0,2.4,1.9,4.3,4.3,4.3s4.3-1.9,4.3-4.3C632.1,203.1,631.1,201.5,629.5,200.8z
		 M632.3,195.2v1.5c1.9,0.7,3.8,1.3,5.7,1.8h8.2C641.4,198.1,636.7,197,632.3,195.2z M676.3,204.2c0-0.1-0.1-0.3-0.2-0.4
		c-0.7-1.5-2.2-2.5-3.9-2.5c-0.5,0-0.9,0.1-1.4,0.2l-1-3h-0.5l1.1,3.1c-1.1,0.5-1.8,1.4-2.2,2.5c-0.4,1-0.4,2.2,0.2,3.3
		c1,2.2,3.6,3.1,5.7,2.1C676.1,208.6,677.1,206.3,676.3,204.2z M629.5,200.8l0.9-2.2h-0.5l-0.8,2.1c-0.4-0.1-0.9-0.2-1.3-0.2
		c-2.4,0-4.3,1.9-4.3,4.3c0,2.4,1.9,4.3,4.3,4.3s4.3-1.9,4.3-4.3C632.1,203.1,631.1,201.5,629.5,200.8z M632.3,195.2v1.5
		c1.9,0.7,3.8,1.3,5.7,1.8h8.2C641.4,198.1,636.7,197,632.3,195.2z M676.3,204.2c0-0.1-0.1-0.3-0.2-0.4c-0.7-1.5-2.2-2.5-3.9-2.5
		c-0.5,0-0.9,0.1-1.4,0.2l-1-3h-0.5l1.1,3.1c-1.1,0.5-1.8,1.4-2.2,2.5c-0.4,1-0.4,2.2,0.2,3.3c1,2.2,3.6,3.1,5.7,2.1
		C676.1,208.6,677.1,206.3,676.3,204.2z M629.5,200.8l0.9-2.2h-0.5l-0.8,2.1c-0.4-0.1-0.9-0.2-1.3-0.2c-2.4,0-4.3,1.9-4.3,4.3
		c0,2.4,1.9,4.3,4.3,4.3s4.3-1.9,4.3-4.3C632.1,203.1,631.1,201.5,629.5,200.8z M632.3,195.2v1.5c1.9,0.7,3.8,1.3,5.7,1.8h8.2
		C641.4,198.1,636.7,197,632.3,195.2z M676.3,204.2c0-0.1-0.1-0.3-0.2-0.4c-0.7-1.5-2.2-2.5-3.9-2.5c-0.5,0-0.9,0.1-1.4,0.2l-1-3
		h-0.5l1.1,3.1c-1.1,0.5-1.8,1.4-2.2,2.5c-0.4,1-0.4,2.2,0.2,3.3c1,2.2,3.6,3.1,5.7,2.1C676.1,208.6,677.1,206.3,676.3,204.2z
		 M629.5,200.8l0.9-2.2h-0.5l-0.8,2.1c-0.4-0.1-0.9-0.2-1.3-0.2c-2.4,0-4.3,1.9-4.3,4.3c0,2.4,1.9,4.3,4.3,4.3s4.3-1.9,4.3-4.3
		C632.1,203.1,631.1,201.5,629.5,200.8z M632.3,195.2v1.5c1.9,0.7,3.8,1.3,5.7,1.8h8.2C641.4,198.1,636.7,197,632.3,195.2z
		 M676.3,204.2c0-0.1-0.1-0.3-0.2-0.4c-0.7-1.5-2.2-2.5-3.9-2.5c-0.5,0-0.9,0.1-1.4,0.2l-1-3h-0.5l1.1,3.1c-1.1,0.5-1.8,1.4-2.2,2.5
		c-0.4,1-0.4,2.2,0.2,3.3c1,2.2,3.6,3.1,5.7,2.1C676.1,208.6,677.1,206.3,676.3,204.2z M629.5,200.8l0.9-2.2h-0.5l-0.8,2.1
		c-0.4-0.1-0.9-0.2-1.3-0.2c-2.4,0-4.3,1.9-4.3,4.3c0,2.4,1.9,4.3,4.3,4.3s4.3-1.9,4.3-4.3C632.1,203.1,631.1,201.5,629.5,200.8z
		 M632.3,195.2v1.5c1.9,0.7,3.8,1.3,5.7,1.8h8.2C641.4,198.1,636.7,197,632.3,195.2z M676.3,204.2c0-0.1-0.1-0.3-0.2-0.4
		c-0.7-1.5-2.2-2.5-3.9-2.5c-0.5,0-0.9,0.1-1.4,0.2l-1-3h-0.5l1.1,3.1c-1.1,0.5-1.8,1.4-2.2,2.5c-0.4,1-0.4,2.2,0.2,3.3
		c1,2.2,3.6,3.1,5.7,2.1C676.1,208.6,677.1,206.3,676.3,204.2z M629.5,200.8l0.9-2.2h-0.5l-0.8,2.1c-0.4-0.1-0.9-0.2-1.3-0.2
		c-2.4,0-4.3,1.9-4.3,4.3c0,2.4,1.9,4.3,4.3,4.3s4.3-1.9,4.3-4.3C632.1,203.1,631.1,201.5,629.5,200.8z M632.3,195.2v1.5
		c1.9,0.7,3.8,1.3,5.7,1.8h8.2C641.4,198.1,636.7,197,632.3,195.2z M676.3,204.2c0-0.1-0.1-0.3-0.2-0.4c-0.7-1.5-2.2-2.5-3.9-2.5
		c-0.5,0-0.9,0.1-1.4,0.2l-1-3h-0.5l1.1,3.1c-1.1,0.5-1.8,1.4-2.2,2.5c-0.4,1-0.4,2.2,0.2,3.3c1,2.2,3.6,3.1,5.7,2.1
		C676.1,208.6,677.1,206.3,676.3,204.2z M629.5,200.8l0.9-2.2h-0.5l-0.8,2.1c-0.4-0.1-0.9-0.2-1.3-0.2c-2.4,0-4.3,1.9-4.3,4.3
		c0,2.4,1.9,4.3,4.3,4.3s4.3-1.9,4.3-4.3C632.1,203.1,631.1,201.5,629.5,200.8z M632.3,195.2v1.5c1.9,0.7,3.8,1.3,5.7,1.8h8.2
		C641.4,198.1,636.7,197,632.3,195.2z M676.3,204.2c0-0.1-0.1-0.3-0.2-0.4c-0.7-1.5-2.2-2.5-3.9-2.5c-0.5,0-0.9,0.1-1.4,0.2l-1-3
		h-0.5l1.1,3.1c-1.1,0.5-1.8,1.4-2.2,2.5c-0.4,1-0.4,2.2,0.2,3.3c1,2.2,3.6,3.1,5.7,2.1C676.1,208.6,677.1,206.3,676.3,204.2z
		 M629.5,200.8l0.9-2.2h-0.5l-0.8,2.1c-0.4-0.1-0.9-0.2-1.3-0.2c-2.4,0-4.3,1.9-4.3,4.3c0,2.4,1.9,4.3,4.3,4.3s4.3-1.9,4.3-4.3
		C632.1,203.1,631.1,201.5,629.5,200.8z M632.3,195.2v1.5c1.9,0.7,3.8,1.3,5.7,1.8h8.2C641.4,198.1,636.7,197,632.3,195.2z
		 M676.3,204.2c0-0.1-0.1-0.3-0.2-0.4c-0.7-1.5-2.2-2.5-3.9-2.5c-0.5,0-0.9,0.1-1.4,0.2l-1-3h-0.5l1.1,3.1c-1.1,0.5-1.8,1.4-2.2,2.5
		c-0.4,1-0.4,2.2,0.2,3.3c1,2.2,3.6,3.1,5.7,2.1C676.1,208.6,677.1,206.3,676.3,204.2z M629.5,200.8l0.9-2.2h-0.5l-0.8,2.1
		c-0.4-0.1-0.9-0.2-1.3-0.2c-2.4,0-4.3,1.9-4.3,4.3c0,2.4,1.9,4.3,4.3,4.3s4.3-1.9,4.3-4.3C632.1,203.1,631.1,201.5,629.5,200.8z
		 M632.3,195.2v1.5c1.9,0.7,3.8,1.3,5.7,1.8h8.2C641.4,198.1,636.7,197,632.3,195.2z M676.3,204.2c0-0.1-0.1-0.3-0.2-0.4
		c-0.7-1.5-2.2-2.5-3.9-2.5c-0.5,0-0.9,0.1-1.4,0.2l-1-3h-0.5l1.1,3.1c-1.1,0.5-1.8,1.4-2.2,2.5c-0.4,1-0.4,2.2,0.2,3.3
		c1,2.2,3.6,3.1,5.7,2.1C676.1,208.6,677.1,206.3,676.3,204.2z M629.5,200.8l0.9-2.2h-0.5l-0.8,2.1c-0.4-0.1-0.9-0.2-1.3-0.2
		c-2.4,0-4.3,1.9-4.3,4.3c0,2.4,1.9,4.3,4.3,4.3s4.3-1.9,4.3-4.3C632.1,203.1,631.1,201.5,629.5,200.8z M632.3,195.2v1.5
		c1.9,0.7,3.8,1.3,5.7,1.8h8.2C641.4,198.1,636.7,197,632.3,195.2z M676.3,204.2c0-0.1-0.1-0.3-0.2-0.4c-0.7-1.5-2.2-2.5-3.9-2.5
		c-0.5,0-0.9,0.1-1.4,0.2l-1-3h-0.5l1.1,3.1c-1.1,0.5-1.8,1.4-2.2,2.5c-0.4,1-0.4,2.2,0.2,3.3c1,2.2,3.6,3.1,5.7,2.1
		C676.1,208.6,677.1,206.3,676.3,204.2z M629.5,200.8l0.9-2.2h-0.5l-0.8,2.1c-0.4-0.1-0.9-0.2-1.3-0.2c-2.4,0-4.3,1.9-4.3,4.3
		c0,2.4,1.9,4.3,4.3,4.3s4.3-1.9,4.3-4.3C632.1,203.1,631.1,201.5,629.5,200.8z M632.3,195.2v1.5c1.9,0.7,3.8,1.3,5.7,1.8h8.2
		C641.4,198.1,636.7,197,632.3,195.2z M676.3,204.2c0-0.1-0.1-0.3-0.2-0.4c-0.7-1.5-2.2-2.5-3.9-2.5c-0.5,0-0.9,0.1-1.4,0.2l-1-3
		h-0.5l1.1,3.1c-1.1,0.5-1.8,1.4-2.2,2.5c-0.4,1-0.4,2.2,0.2,3.3c1,2.2,3.6,3.1,5.7,2.1C676.1,208.6,677.1,206.3,676.3,204.2z
		 M629.5,200.8l0.9-2.2h-0.5l-0.8,2.1c-0.4-0.1-0.9-0.2-1.3-0.2c-2.4,0-4.3,1.9-4.3,4.3c0,2.4,1.9,4.3,4.3,4.3s4.3-1.9,4.3-4.3
		C632.1,203.1,631.1,201.5,629.5,200.8z M632.3,195.2v1.5c1.9,0.7,3.8,1.3,5.7,1.8h8.2C641.4,198.1,636.7,197,632.3,195.2z
		 M676.3,204.2c0-0.1-0.1-0.3-0.2-0.4c-0.7-1.5-2.2-2.5-3.9-2.5c-0.5,0-0.9,0.1-1.4,0.2l-1-3h-0.5l1.1,3.1c-1.1,0.5-1.8,1.4-2.2,2.5
		c-0.4,1-0.4,2.2,0.2,3.3c1,2.2,3.6,3.1,5.7,2.1C676.1,208.6,677.1,206.3,676.3,204.2z M629.5,200.8l0.9-2.2h-0.5l-0.8,2.1
		c-0.4-0.1-0.9-0.2-1.3-0.2c-2.4,0-4.3,1.9-4.3,4.3c0,2.4,1.9,4.3,4.3,4.3s4.3-1.9,4.3-4.3C632.1,203.1,631.1,201.5,629.5,200.8z
		 M632.3,195.2v1.5c1.9,0.7,3.8,1.3,5.7,1.8h8.2C641.4,198.1,636.7,197,632.3,195.2z M676.3,204.2c0-0.1-0.1-0.3-0.2-0.4
		c-0.7-1.5-2.2-2.5-3.9-2.5c-0.5,0-0.9,0.1-1.4,0.2l-1-3h-0.5l1.1,3.1c-1.1,0.5-1.8,1.4-2.2,2.5c-0.4,1-0.4,2.2,0.2,3.3
		c1,2.2,3.6,3.1,5.7,2.1C676.1,208.6,677.1,206.3,676.3,204.2z M629.5,200.8l0.9-2.2h-0.5l-0.8,2.1c-0.4-0.1-0.9-0.2-1.3-0.2
		c-2.4,0-4.3,1.9-4.3,4.3c0,2.4,1.9,4.3,4.3,4.3s4.3-1.9,4.3-4.3C632.1,203.1,631.1,201.5,629.5,200.8z M632.3,195.2v1.5
		c1.9,0.7,3.8,1.3,5.7,1.8h8.2C641.4,198.1,636.7,197,632.3,195.2z M676.3,204.2c0-0.1-0.1-0.3-0.2-0.4c-0.7-1.5-2.2-2.5-3.9-2.5
		c-0.5,0-0.9,0.1-1.4,0.2l-1-3h-0.5l1.1,3.1c-1.1,0.5-1.8,1.4-2.2,2.5c-0.4,1-0.4,2.2,0.2,3.3c1,2.2,3.6,3.1,5.7,2.1
		C676.1,208.6,677.1,206.3,676.3,204.2z M629.5,200.8l0.9-2.2h-0.5l-0.8,2.1c-0.4-0.1-0.9-0.2-1.3-0.2c-2.4,0-4.3,1.9-4.3,4.3
		c0,2.4,1.9,4.3,4.3,4.3s4.3-1.9,4.3-4.3C632.1,203.1,631.1,201.5,629.5,200.8z M632.3,195.2v1.5c1.9,0.7,3.8,1.3,5.7,1.8h8.2
		C641.4,198.1,636.7,197,632.3,195.2z M676.3,204.2c0-0.1-0.1-0.3-0.2-0.4c-0.7-1.5-2.2-2.5-3.9-2.5c-0.5,0-0.9,0.1-1.4,0.2l-1-3
		h-0.5l1.1,3.1c-1.1,0.5-1.8,1.4-2.2,2.5c-0.4,1-0.4,2.2,0.2,3.3c1,2.2,3.6,3.1,5.7,2.1C676.1,208.6,677.1,206.3,676.3,204.2z
		 M629.5,200.8l0.9-2.2h-0.5l-0.8,2.1c-0.4-0.1-0.9-0.2-1.3-0.2c-2.4,0-4.3,1.9-4.3,4.3c0,2.4,1.9,4.3,4.3,4.3s4.3-1.9,4.3-4.3
		C632.1,203.1,631.1,201.5,629.5,200.8z M632.3,195.2v1.5c1.9,0.7,3.8,1.3,5.7,1.8h8.2C641.4,198.1,636.7,197,632.3,195.2z
		 M676.3,204.2c0-0.1-0.1-0.3-0.2-0.4c-0.7-1.5-2.2-2.5-3.9-2.5c-0.5,0-0.9,0.1-1.4,0.2l-1-3h-0.5l1.1,3.1c-1.1,0.5-1.8,1.4-2.2,2.5
		c-0.4,1-0.4,2.2,0.2,3.3c1,2.2,3.6,3.1,5.7,2.1C676.1,208.6,677.1,206.3,676.3,204.2z M629.5,200.8l0.9-2.2h-0.5l-0.8,2.1
		c-0.4-0.1-0.9-0.2-1.3-0.2c-2.4,0-4.3,1.9-4.3,4.3c0,2.4,1.9,4.3,4.3,4.3s4.3-1.9,4.3-4.3C632.1,203.1,631.1,201.5,629.5,200.8z
		 M632.3,195.2v1.5c1.9,0.7,3.8,1.3,5.7,1.8h8.2C641.4,198.1,636.7,197,632.3,195.2z M676.3,204.2c0-0.1-0.1-0.3-0.2-0.4
		c-0.7-1.5-2.2-2.5-3.9-2.5c-0.5,0-0.9,0.1-1.4,0.2l-1-3h-0.5l1.1,3.1c-1.1,0.5-1.8,1.4-2.2,2.5c-0.4,1-0.4,2.2,0.2,3.3
		c1,2.2,3.6,3.1,5.7,2.1C676.1,208.6,677.1,206.3,676.3,204.2z M629.5,200.8l0.9-2.2h-0.5l-0.8,2.1c-0.4-0.1-0.9-0.2-1.3-0.2
		c-2.4,0-4.3,1.9-4.3,4.3c0,2.4,1.9,4.3,4.3,4.3s4.3-1.9,4.3-4.3C632.1,203.1,631.1,201.5,629.5,200.8z M632.3,195.2v1.5
		c1.9,0.7,3.8,1.3,5.7,1.8h8.2C641.4,198.1,636.7,197,632.3,195.2z M676.3,204.2c0-0.1-0.1-0.3-0.2-0.4c-0.7-1.5-2.2-2.5-3.9-2.5
		c-0.5,0-0.9,0.1-1.4,0.2l-1-3h-0.5l1.1,3.1c-1.1,0.5-1.8,1.4-2.2,2.5c-0.4,1-0.4,2.2,0.2,3.3c1,2.2,3.6,3.1,5.7,2.1
		C676.1,208.6,677.1,206.3,676.3,204.2z M629.5,200.8l0.9-2.2h-0.5l-0.8,2.1c-0.4-0.1-0.9-0.2-1.3-0.2c-2.4,0-4.3,1.9-4.3,4.3
		c0,2.4,1.9,4.3,4.3,4.3s4.3-1.9,4.3-4.3C632.1,203.1,631.1,201.5,629.5,200.8z M632.3,195.2v1.5c1.9,0.7,3.8,1.3,5.7,1.8h8.2
		C641.4,198.1,636.7,197,632.3,195.2z M676.3,204.2c0-0.1-0.1-0.3-0.2-0.4c-0.7-1.5-2.2-2.5-3.9-2.5c-0.5,0-0.9,0.1-1.4,0.2l-1-3
		h-0.5l1.1,3.1c-1.1,0.5-1.8,1.4-2.2,2.5c-0.4,1-0.4,2.2,0.2,3.3c1,2.2,3.6,3.1,5.7,2.1C676.1,208.6,677.1,206.3,676.3,204.2z
		 M629.5,200.8l0.9-2.2h-0.5l-0.8,2.1c-0.4-0.1-0.9-0.2-1.3-0.2c-2.4,0-4.3,1.9-4.3,4.3c0,2.4,1.9,4.3,4.3,4.3s4.3-1.9,4.3-4.3
		C632.1,203.1,631.1,201.5,629.5,200.8z M632.3,195.2v1.5c1.9,0.7,3.8,1.3,5.7,1.8h8.2C641.4,198.1,636.7,197,632.3,195.2z
		 M676.3,204.2c0-0.1-0.1-0.3-0.2-0.4c-0.7-1.5-2.2-2.5-3.9-2.5c-0.5,0-0.9,0.1-1.4,0.2l-1-3h-0.5l1.1,3.1c-1.1,0.5-1.8,1.4-2.2,2.5
		c-0.4,1-0.4,2.2,0.2,3.3c1,2.2,3.6,3.1,5.7,2.1C676.1,208.6,677.1,206.3,676.3,204.2z M629.5,200.8l0.9-2.2h-0.5l-0.8,2.1
		c-0.4-0.1-0.9-0.2-1.3-0.2c-2.4,0-4.3,1.9-4.3,4.3c0,2.4,1.9,4.3,4.3,4.3s4.3-1.9,4.3-4.3C632.1,203.1,631.1,201.5,629.5,200.8z
		 M632.3,195.2v1.5c1.9,0.7,3.8,1.3,5.7,1.8h8.2C641.4,198.1,636.7,197,632.3,195.2z M676.3,204.2c0-0.1-0.1-0.3-0.2-0.4
		c-0.7-1.5-2.2-2.5-3.9-2.5c-0.5,0-0.9,0.1-1.4,0.2l-1-3h-0.5l1.1,3.1c-1.1,0.5-1.8,1.4-2.2,2.5c-0.4,1-0.4,2.2,0.2,3.3
		c1,2.2,3.6,3.1,5.7,2.1C676.1,208.6,677.1,206.3,676.3,204.2z M629.5,200.8l0.9-2.2h-0.5l-0.8,2.1c-0.4-0.1-0.9-0.2-1.3-0.2
		c-2.4,0-4.3,1.9-4.3,4.3c0,2.4,1.9,4.3,4.3,4.3s4.3-1.9,4.3-4.3C632.1,203.1,631.1,201.5,629.5,200.8z M632.3,195.2v1.5
		c1.9,0.7,3.8,1.3,5.7,1.8h8.2C641.4,198.1,636.7,197,632.3,195.2z M676.3,204.2c0-0.1-0.1-0.3-0.2-0.4c-0.7-1.5-2.2-2.5-3.9-2.5
		c-0.5,0-0.9,0.1-1.4,0.2l-1-3h-0.5l1.1,3.1c-1.1,0.5-1.8,1.4-2.2,2.5c-0.4,1-0.4,2.2,0.2,3.3c1,2.2,3.6,3.1,5.7,2.1
		C676.1,208.6,677.1,206.3,676.3,204.2z M629.5,200.8l0.9-2.2h-0.5l-0.8,2.1c-0.4-0.1-0.9-0.2-1.3-0.2c-2.4,0-4.3,1.9-4.3,4.3
		c0,2.4,1.9,4.3,4.3,4.3s4.3-1.9,4.3-4.3C632.1,203.1,631.1,201.5,629.5,200.8z M632.3,195.2v1.5c1.9,0.7,3.8,1.3,5.7,1.8h8.2
		C641.4,198.1,636.7,197,632.3,195.2z M676.3,204.2c0-0.1-0.1-0.3-0.2-0.4c-0.7-1.5-2.2-2.5-3.9-2.5c-0.5,0-0.9,0.1-1.4,0.2l-1-3
		h-0.5l1.1,3.1c-1.1,0.5-1.8,1.4-2.2,2.5c-0.4,1-0.4,2.2,0.2,3.3c1,2.2,3.6,3.1,5.7,2.1C676.1,208.6,677.1,206.3,676.3,204.2z
		 M629.5,200.8l0.9-2.2h-0.5l-0.8,2.1c-0.4-0.1-0.9-0.2-1.3-0.2c-2.4,0-4.3,1.9-4.3,4.3c0,2.4,1.9,4.3,4.3,4.3s4.3-1.9,4.3-4.3
		C632.1,203.1,631.1,201.5,629.5,200.8z M632.3,195.2v1.5c1.9,0.7,3.8,1.3,5.7,1.8h8.2C641.4,198.1,636.7,197,632.3,195.2z
		 M714,144.7L714,144.7c-2.3,0-4.1,1.7-4.3,4l-5.1-0.2v-1.5c0-6.2-1.1-12.4-3.2-18.2l4.2-1.6c0.9,2.2,3.5,3.2,5.7,2.2
		c2.2-1,3.2-3.5,2.2-5.7s-3.5-3.2-5.7-2.2c-1.6,0.7-2.6,2.2-2.6,4c0,0.4,0.1,0.9,0.2,1.3l-4.2,1.6c-2.4-6.5-6.2-12.5-10.9-17.6
		l3.3-3.1c1.7,1.6,4.4,1.6,6.1-0.2c1.6-1.7,1.6-4.5-0.2-6.1c-1.7-1.6-4.5-1.6-6.1,0.2c-1.5,1.6-1.6,4.1-0.2,5.7l-3.3,3.1
		c-0.3-0.4-0.7-0.7-1-1.1c-4.9-4.9-10.8-8.9-17.2-11.5l1.8-4.4c2.3,0.7,4.7-0.5,5.4-2.8c0.7-2.3-0.5-4.7-2.8-5.4
		c-2.3-0.7-4.7,0.6-5.4,2.8c-0.7,2.1,0.4,4.4,2.4,5.2l-1.8,4.4c-3.5-1.4-7.1-2.5-10.8-3.1c-2.4-0.4-4.8-0.7-7.3-0.8l0.2-6.1h0.1
		c2.4-0.2,4.1-2.2,4-4.6s-2.2-4.1-4.6-4s-4.2,2.2-4,4.6c0.2,2.1,1.9,3.8,4,4l-0.2,6.1h-1.5c-6,0-11.9,1-17.5,2.9l-1.8-5
		c2.2-0.9,3.3-3.4,2.4-5.6c-0.9-2.2-3.4-3.3-5.7-2.4c-2.2,0.9-3.3,3.4-2.4,5.6c0.7,1.6,2.2,2.7,4,2.7c0.4,0,0.8-0.1,1.2-0.2l1.7,5
		c-6.8,2.4-13,6.2-18.3,11.2l-3.2-3.5c1.6-1.8,1.5-4.5-0.2-6.2c-1.8-1.6-4.5-1.5-6.2,0.2c-1.6,1.8-1.5,4.5,0.2,6.2
		c1.6,1.5,4.1,1.6,5.8,0.1l3.2,3.4l-1.1,1c-4.4,4.4-8,9.5-10.6,15.1l-4-1.8c0.1-0.4,0.2-0.9,0.2-1.4c0-2.4-2-4.3-4.3-4.3
		c-2.4,0-4.3,1.9-4.3,4.3c0,2.4,2,4.3,4.3,4.3c1.7,0,3.2-1,3.9-2.5l4,1.8c-1.7,3.6-2.9,7.4-3.7,11.3c-0.2,1.1-0.4,2.2-0.6,3.3
		c-0.1,0.3-0.1,0.6-0.1,0.9c0,0,0,0,0,0c-0.1,0.5-0.1,1-0.2,1.5c-0.1,1-0.2,2.1-0.2,3.1l-5.1-0.2c-0.1-1.2-0.6-2.2-1.4-2.9
		c-0.8-0.8-1.9-1.2-3.1-1.1c-1,0.1-2,0.5-2.7,1.1c-0.9,0.8-1.5,2.1-1.4,3.4c0,0.6,0.2,1.1,0.4,1.6c0.5,1,1.4,1.8,2.4,2.2
		c0.5,0.2,1.1,0.3,1.7,0.2c2.2-0.1,3.9-1.9,4-4l5.1,0.2v1.5c0,0.9,0,1.9,0.1,2.8c0.1,2.5,0.4,4.9,0.9,7.3c0.3,1.6,0.7,3.1,1.1,4.7
		c0.1,0.5,0.3,1,0.5,1.5c0.2,0.6,0.4,1.3,0.7,1.9l-4.2,1.6c-0.9-2.2-3.5-3.2-5.7-2.2c-2.2,1-3.2,3.5-2.2,5.7
		c0.7,1.7,2.4,2.7,4.1,2.6c0.5,0,1-0.1,1.5-0.4c1-0.4,1.7-1.1,2.1-2c0.3-0.6,0.5-1.3,0.5-1.9c0-0.2,0-0.5-0.1-0.7
		c0-0.2-0.1-0.4-0.1-0.6l1-0.3l3.3-1.2c0.6,1.5,1.2,3,1.9,4.4c2.3,4.8,5.4,9.3,9,13.2l-3.3,3.1c-1.6-1.5-4-1.7-5.7-0.4
		c-0.2,0.1-0.4,0.3-0.6,0.5c-1.7,1.8-1.7,4.6,0,6.3c0.2,0.2,0.3,0.3,0.5,0.4c1.8,1.3,4.2,1.1,5.8-0.5c1.6-1.6,1.7-4.2,0.3-5.9
		l3.3-3.1l1,1.1c3.3,3.3,7.1,6.2,11.2,8.6l-1,1.8l-1.9,3.6l-5.2,9.5l-12.5,23.1l-0.9,1.7l-4.6,8.4h-4.7v1.4h-2.3v2.7h119.1v-2.7
		h-2.3v-1.4H704l-5.5-10.1l-12.9-23.8l-3.1-5.6l-1.7-3.2l-1.9-3.6l-1-1.8c1.6-0.9,3.1-1.9,4.6-3c1.8-1.3,3.5-2.7,5.1-4.2l4.2,4.5
		c-1.8,1.6-2,4.3-0.4,6.1c1.6,1.8,4.3,2,6.1,0.4c1.8-1.6,2-4.3,0.4-6.1c-0.8-1-2-1.5-3.3-1.5c-0.9,0-1.7,0.3-2.5,0.8l-4.3-4.5
		c0.4-0.3,0.7-0.7,1.1-1c4.4-4.4,8-9.5,10.6-15.1l4.7,2.2c-0.1,0.3-0.1,0.7-0.1,1.1c0,2.4,1.9,4.3,4.3,4.3c2.4,0,4.3-1.9,4.3-4.3
		c0-2.4-1.9-4.3-4.3-4.3c-1.8,0-3.4,1.1-4.1,2.8l-4.6-2.2c2.9-6.3,4.5-13.2,4.7-20.1l5.1,0.2c0.1,2.4,2,4.3,4.4,4.2
		c2.4-0.1,4.3-2.1,4.2-4.4C718.3,146.6,716.3,144.7,714,144.7z M689.4,111.7c4.6,5,8.2,10.8,10.6,17.1l-14,5.2
		c-1.7-4.5-4.2-8.6-7.5-12.1L689.4,111.7z M668.4,196c-1.1,0.4-2.1,0.7-3.2,1c-2.8,0.8-5.6,1.3-8.5,1.6c-1.5,0.2-2.9,0.2-4.4,0.2
		c-0.3,0-0.6,0-0.9,0H650l0-0.3l0.1-3.6l0.3-11.1h1c4.1,0,8.1-0.7,12-2l1.2,3.5l0,0.1v0.1l0,0l3.4,9.5L668.4,196z M650.5,149.8
		c0.2,0,0.4,0.1,0.6,0.1l-1.1,33.3c-4.2-0.2-8.3-1-12.1-2.6L650.5,149.8z M637.4,180.4c-1.2-0.5-2.4-1.1-3.5-1.7l15.9-29.3
		c0.1,0.1,0.2,0.1,0.3,0.2L637.4,180.4z M651.5,149.9c0.2,0,0.4,0,0.6-0.1l11.1,31.4c-3.8,1.3-7.8,2-11.8,2h-0.9L651.5,149.9z
		 M652.6,149.7c0.2-0.1,0.3-0.2,0.5-0.2l10.9,20.1l5,9.2c-1.4,0.8-2.9,1.5-4.5,2.1c-0.3,0.1-0.5,0.2-0.8,0.3L652.6,149.7z
		 M653.6,145.2l8.9-8.3l15.4-14.5c3.2,3.4,5.7,7.4,7.3,11.8l-22.5,8.3l-8.7,3.2C653.9,145.6,653.8,145.4,653.6,145.2L653.6,145.2z
		 M662.5,136.3l-9.1,8.6c-0.2-0.2-0.4-0.3-0.6-0.4l9.1-22.3l3.5-8.5c4.6,1.9,8.8,4.8,12.3,8.5L662.5,136.3z M661.8,121l-9.5,23.2
		c-0.2,0-0.4-0.1-0.5-0.1l1.1-33.3c2.9,0.1,5.8,0.6,8.6,1.4c1.2,0.3,2.4,0.7,3.5,1.2L661.8,121z M651.2,144.1c-0.2,0-0.4,0-0.6,0.1
		l-11.1-31.4c3.8-1.3,7.8-2,11.8-2h0.9L651.2,144.1z M650.2,144.4c-0.2,0.1-0.4,0.2-0.6,0.4l-22.8-24.3c3.6-3.3,7.7-5.8,12.3-7.5
		L650.2,144.4z M649.2,145.1c-0.2,0.1-0.3,0.3-0.4,0.5l-30.2-14c1.9-4.1,4.6-7.8,7.8-10.9L649.2,145.1z M648.7,146
		c-0.1,0.2-0.1,0.4-0.2,0.7l-33.3-1.1c0.2-4.7,1.3-9.3,3.2-13.5L648.7,146z M648.5,147.2c0,0.2,0,0.4,0.1,0.6l-31.2,11.5
		c-1.4-3.9-2.1-8.1-2.1-12.3c0-0.3,0-0.6,0-0.9L648.5,147.2z M648.8,148.2c0.1,0.2,0.2,0.3,0.3,0.5l-0.2,0.4l-24,22.5
		c-3.2-3.4-5.7-7.5-7.3-11.8L648.8,148.2z M648.1,150.4L633,178.2c-2.9-1.7-5.6-3.8-7.9-6.3L648.1,150.4z M633.5,179.3
		c1.2,0.7,2.4,1.2,3.6,1.8l-4.9,11.9l-0.8,2c-1.6-0.7-3.2-1.4-4.8-2.3c-0.1,0-0.2-0.1-0.3-0.2l0.3-0.5l3.5-6.5L633.5,179.3z
		 M631.9,195l0.4-0.9l5.3-12.9c3.9,1.6,8.1,2.5,12.4,2.6l-0.4,11.2l-0.1,3.6l0,0.2c-1.1,0-2.2-0.1-3.3-0.2
		c-4.8-0.5-9.5-1.6-13.9-3.4C632.1,195.2,632,195.1,631.9,195L631.9,195z M665.1,185.4l-0.6-1.6v-0.1l0,0l-0.7-2
		c0.2-0.1,0.4-0.2,0.6-0.2c1.6-0.6,3.2-1.4,4.8-2.2l3.3,6.1l3.8,7.1c-1.8,1-3.6,1.8-5.4,2.6c-0.7,0.3-1.4,0.6-2.1,0.8l-0.3-0.8
		L665.1,185.4z M663.9,167.4L663.9,167.4L663.9,167.4l-8.6-15.9l8.3,8.9l12.4,13.2c-1.9,1.8-4,3.3-6.2,4.6L663.9,167.4z
		 M663.5,159.6l-9.2-9.8l-0.6-1.1c0.1-0.1,0.1-0.2,0.2-0.3l9.3,4.3l21,9.7c-1.9,4.1-4.6,7.8-7.8,10.9L663.5,159.6z M663.2,152.2
		l-9-4.2c0.1-0.2,0.1-0.4,0.2-0.7l8.7,0.3l24.6,0.8c-0.2,4.7-1.3,9.3-3.2,13.5L663.2,152.2z M687.6,147.9l-24.6-0.8l-8.7-0.3
		c0-0.2,0-0.4-0.1-0.6l8.6-3.2l22.7-8.3c1.4,3.9,2.2,8.1,2.2,12.3C687.6,147.3,687.6,147.6,687.6,147.9z M688,110.4l1,1l-10.9,10.2
		c-3.5-3.7-7.8-6.7-12.5-8.6l5.7-13.8C677.6,101.7,683.2,105.5,688,110.4z M653.3,95.2c2.5,0.1,5,0.3,7.4,0.8
		c3.5,0.6,6.9,1.6,10.2,2.9l-5.7,13.8c-1.2-0.5-2.5-0.9-3.8-1.3c-2.8-0.8-5.7-1.2-8.6-1.4L653.3,95.2z M651.4,95.2h1.5l-0.5,14.9h-1
		c-4.1,0-8.1,0.7-12,2l-5-14.1C639.8,96.1,645.6,95.1,651.4,95.2z M633.9,98.2l5,14.1c-4.6,1.7-8.9,4.3-12.5,7.6L616.1,109
		C621.2,104.2,627.3,100.5,633.9,98.2z M614.7,110.4l1-1l10.2,10.9c-3.3,3.2-6,6.9-8,11.1l-13.6-6.3
		C606.9,119.6,610.4,114.6,614.7,110.4z M599.9,140.4C599.9,140.4,599.9,140.4,599.9,140.4c0-0.3,0.1-0.6,0.1-0.9
		c0.2-1.1,0.4-2.2,0.6-3.3c0.8-3.7,2-7.3,3.5-10.7l13.6,6.3c-2,4.4-3.1,9.1-3.3,13.8l-11.1-0.4l-3.8-0.1c0-1.1,0.1-2.1,0.2-3.2
		C599.8,141.4,599.9,140.9,599.9,140.4z M602.2,163.2c-0.2-0.5-0.3-1-0.5-1.5c-1.4-4.8-2.1-9.7-2.2-14.7v-1.5l3.8,0.1l11.1,0.4v1
		c0,4.3,0.8,8.5,2.2,12.5l-13.3,4.9l-0.7,0.2C602.5,164.3,602.3,163.8,602.2,163.2z M613.4,182.3c-4.3-4.6-7.7-9.9-10-15.7
		c-0.2-0.5-0.4-1-0.6-1.5l0.6-0.2l13.4-5c1.7,4.5,4.2,8.6,7.5,12.1L613.4,182.3z M614.7,183.7l-1-1l10.9-10.2
		c2.4,2.5,5.1,4.7,8.1,6.4l-3.5,6.5l-2.4,4.5l-1.2,2.1C621.5,189.7,617.9,186.9,614.7,183.7z M679.7,198.6l2.9,5.3l3.1,5.6
		l11.8,21.7l5.5,10.1h-103l3.5-6.5l2-3.6l11.4-21.1l6.3-11.5l1.9-3.6l0.7-1.3c0.3,0.2,0.7,0.4,1,0.5c0.5,0.3,1,0.5,1.6,0.8
		c0.9,0.4,1.8,0.8,2.7,1.2l-0.2,0.6l-0.7,1.8l-0.8,2.1c-0.4-0.1-0.9-0.2-1.3-0.2c-2.4,0-4.3,1.9-4.3,4.3c0,2.4,1.9,4.3,4.3,4.3
		s4.3-1.9,4.3-4.3c0-1.7-1-3.3-2.6-4l0.9-2.2l0.7-1.8l0.2-0.4c0.3,0.1,0.6,0.2,0.9,0.4c1.9,0.7,3.8,1.3,5.7,1.8
		c3.7,1,7.5,1.5,11.4,1.7l-0.2,4.5c-2.4,0.1-4.3,2.2-4.1,4.6c0.1,2.4,2.2,4.3,4.6,4.1c2.4-0.1,4.3-2.2,4.1-4.6
		c-0.1-2.2-1.9-4-4.1-4.1l0.2-4.5h1.5c0.3,0,0.6,0,1,0c4.2-0.1,8.3-0.6,12.3-1.6c0.2,0,0.4-0.1,0.6-0.2c1.2-0.3,2.4-0.7,3.6-1.1
		l0.5,1.3l1.1,3.1c-1.1,0.5-1.8,1.4-2.2,2.5c-0.4,1-0.4,2.2,0.2,3.3c1,2.2,3.6,3.1,5.7,2.1c2-1,3-3.3,2.2-5.4c0-0.1-0.1-0.3-0.2-0.4
		c-0.7-1.5-2.2-2.5-3.9-2.5c-0.5,0-0.9,0.1-1.4,0.2l-1-3l-0.5-1.4c1.7-0.6,3.4-1.3,5.1-2.1c0.9-0.4,1.8-0.9,2.6-1.4l0.7,1.4
		L679.7,198.6z M682.6,188.4c-1.7,1.3-3.5,2.5-5.4,3.5h0l-3.6-6.6l-3.6-6.6c2.3-1.3,4.4-2.9,6.4-4.7l10.3,10.9
		C685.4,186.2,684,187.4,682.6,188.4z M688,183.7L688,183.7l-1,1l-10.2-10.9c3.3-3.2,6-6.9,8-11.1l13.6,6.3
		C695.8,174.4,692.3,179.4,688,183.7z M698.6,168.5L698.6,168.5l-13.6-6.3c2-4.4,3.1-9,3.3-13.8l14.9,0.5
		C702.9,155.7,701.4,162.4,698.6,168.5z M703.2,148.5l-14.9-0.5v-1c0-4.3-0.7-8.5-2.2-12.5l14-5.2c2.1,5.7,3.1,11.7,3.1,17.7V148.5z
		 M632.3,195.2v1.5c1.9,0.7,3.8,1.3,5.7,1.8h8.2C641.4,198.1,636.7,197,632.3,195.2z M629.5,200.8l0.9-2.2h-0.5l-0.8,2.1
		c-0.4-0.1-0.9-0.2-1.3-0.2c-2.4,0-4.3,1.9-4.3,4.3c0,2.4,1.9,4.3,4.3,4.3s4.3-1.9,4.3-4.3C632.1,203.1,631.1,201.5,629.5,200.8z
		 M676.3,204.2c0-0.1-0.1-0.3-0.2-0.4c-0.7-1.5-2.2-2.5-3.9-2.5c-0.5,0-0.9,0.1-1.4,0.2l-1-3h-0.5l1.1,3.1c-1.1,0.5-1.8,1.4-2.2,2.5
		c-0.4,1-0.4,2.2,0.2,3.3c1,2.2,3.6,3.1,5.7,2.1C676.1,208.6,677.1,206.3,676.3,204.2z M632.3,195.2v1.5c1.9,0.7,3.8,1.3,5.7,1.8
		h8.2C641.4,198.1,636.7,197,632.3,195.2z M629.5,200.8l0.9-2.2h-0.5l-0.8,2.1c-0.4-0.1-0.9-0.2-1.3-0.2c-2.4,0-4.3,1.9-4.3,4.3
		c0,2.4,1.9,4.3,4.3,4.3s4.3-1.9,4.3-4.3C632.1,203.1,631.1,201.5,629.5,200.8z M676.3,204.2c0-0.1-0.1-0.3-0.2-0.4
		c-0.7-1.5-2.2-2.5-3.9-2.5c-0.5,0-0.9,0.1-1.4,0.2l-1-3h-0.5l1.1,3.1c-1.1,0.5-1.8,1.4-2.2,2.5c-0.4,1-0.4,2.2,0.2,3.3
		c1,2.2,3.6,3.1,5.7,2.1C676.1,208.6,677.1,206.3,676.3,204.2z M632.3,195.2v1.5c1.9,0.7,3.8,1.3,5.7,1.8h8.2
		C641.4,198.1,636.7,197,632.3,195.2z M629.5,200.8l0.9-2.2h-0.5l-0.8,2.1c-0.4-0.1-0.9-0.2-1.3-0.2c-2.4,0-4.3,1.9-4.3,4.3
		c0,2.4,1.9,4.3,4.3,4.3s4.3-1.9,4.3-4.3C632.1,203.1,631.1,201.5,629.5,200.8z M676.3,204.2c0-0.1-0.1-0.3-0.2-0.4
		c-0.7-1.5-2.2-2.5-3.9-2.5c-0.5,0-0.9,0.1-1.4,0.2l-1-3h-0.5l1.1,3.1c-1.1,0.5-1.8,1.4-2.2,2.5c-0.4,1-0.4,2.2,0.2,3.3
		c1,2.2,3.6,3.1,5.7,2.1C676.1,208.6,677.1,206.3,676.3,204.2z M632.3,195.2v1.5c1.9,0.7,3.8,1.3,5.7,1.8h8.2
		C641.4,198.1,636.7,197,632.3,195.2z M629.5,200.8l0.9-2.2h-0.5l-0.8,2.1c-0.4-0.1-0.9-0.2-1.3-0.2c-2.4,0-4.3,1.9-4.3,4.3
		c0,2.4,1.9,4.3,4.3,4.3s4.3-1.9,4.3-4.3C632.1,203.1,631.1,201.5,629.5,200.8z M676.3,204.2c0-0.1-0.1-0.3-0.2-0.4
		c-0.7-1.5-2.2-2.5-3.9-2.5c-0.5,0-0.9,0.1-1.4,0.2l-1-3h-0.5l1.1,3.1c-1.1,0.5-1.8,1.4-2.2,2.5c-0.4,1-0.4,2.2,0.2,3.3
		c1,2.2,3.6,3.1,5.7,2.1C676.1,208.6,677.1,206.3,676.3,204.2z M632.3,195.2v1.5c1.9,0.7,3.8,1.3,5.7,1.8h8.2
		C641.4,198.1,636.7,197,632.3,195.2z M629.5,200.8l0.9-2.2h-0.5l-0.8,2.1c-0.4-0.1-0.9-0.2-1.3-0.2c-2.4,0-4.3,1.9-4.3,4.3
		c0,2.4,1.9,4.3,4.3,4.3s4.3-1.9,4.3-4.3C632.1,203.1,631.1,201.5,629.5,200.8z M676.3,204.2c0-0.1-0.1-0.3-0.2-0.4
		c-0.7-1.5-2.2-2.5-3.9-2.5c-0.5,0-0.9,0.1-1.4,0.2l-1-3h-0.5l1.1,3.1c-1.1,0.5-1.8,1.4-2.2,2.5c-0.4,1-0.4,2.2,0.2,3.3
		c1,2.2,3.6,3.1,5.7,2.1C676.1,208.6,677.1,206.3,676.3,204.2z M632.3,195.2v1.5c1.9,0.7,3.8,1.3,5.7,1.8h8.2
		C641.4,198.1,636.7,197,632.3,195.2z M629.5,200.8l0.9-2.2h-0.5l-0.8,2.1c-0.4-0.1-0.9-0.2-1.3-0.2c-2.4,0-4.3,1.9-4.3,4.3
		c0,2.4,1.9,4.3,4.3,4.3s4.3-1.9,4.3-4.3C632.1,203.1,631.1,201.5,629.5,200.8z M676.3,204.2c0-0.1-0.1-0.3-0.2-0.4
		c-0.7-1.5-2.2-2.5-3.9-2.5c-0.5,0-0.9,0.1-1.4,0.2l-1-3h-0.5l1.1,3.1c-1.1,0.5-1.8,1.4-2.2,2.5c-0.4,1-0.4,2.2,0.2,3.3
		c1,2.2,3.6,3.1,5.7,2.1C676.1,208.6,677.1,206.3,676.3,204.2z M632.3,195.2v1.5c1.9,0.7,3.8,1.3,5.7,1.8h8.2
		C641.4,198.1,636.7,197,632.3,195.2z M629.5,200.8l0.9-2.2h-0.5l-0.8,2.1c-0.4-0.1-0.9-0.2-1.3-0.2c-2.4,0-4.3,1.9-4.3,4.3
		c0,2.4,1.9,4.3,4.3,4.3s4.3-1.9,4.3-4.3C632.1,203.1,631.1,201.5,629.5,200.8z M676.3,204.2c0-0.1-0.1-0.3-0.2-0.4
		c-0.7-1.5-2.2-2.5-3.9-2.5c-0.5,0-0.9,0.1-1.4,0.2l-1-3h-0.5l1.1,3.1c-1.1,0.5-1.8,1.4-2.2,2.5c-0.4,1-0.4,2.2,0.2,3.3
		c1,2.2,3.6,3.1,5.7,2.1C676.1,208.6,677.1,206.3,676.3,204.2z M632.3,195.2v1.5c1.9,0.7,3.8,1.3,5.7,1.8h8.2
		C641.4,198.1,636.7,197,632.3,195.2z M629.5,200.8l0.9-2.2h-0.5l-0.8,2.1c-0.4-0.1-0.9-0.2-1.3-0.2c-2.4,0-4.3,1.9-4.3,4.3
		c0,2.4,1.9,4.3,4.3,4.3s4.3-1.9,4.3-4.3C632.1,203.1,631.1,201.5,629.5,200.8z M676.3,204.2c0-0.1-0.1-0.3-0.2-0.4
		c-0.7-1.5-2.2-2.5-3.9-2.5c-0.5,0-0.9,0.1-1.4,0.2l-1-3h-0.5l1.1,3.1c-1.1,0.5-1.8,1.4-2.2,2.5c-0.4,1-0.4,2.2,0.2,3.3
		c1,2.2,3.6,3.1,5.7,2.1C676.1,208.6,677.1,206.3,676.3,204.2z M632.3,195.2v1.5c1.9,0.7,3.8,1.3,5.7,1.8h8.2
		C641.4,198.1,636.7,197,632.3,195.2z M629.5,200.8l0.9-2.2h-0.5l-0.8,2.1c-0.4-0.1-0.9-0.2-1.3-0.2c-2.4,0-4.3,1.9-4.3,4.3
		c0,2.4,1.9,4.3,4.3,4.3s4.3-1.9,4.3-4.3C632.1,203.1,631.1,201.5,629.5,200.8z M676.3,204.2c0-0.1-0.1-0.3-0.2-0.4
		c-0.7-1.5-2.2-2.5-3.9-2.5c-0.5,0-0.9,0.1-1.4,0.2l-1-3h-0.5l1.1,3.1c-1.1,0.5-1.8,1.4-2.2,2.5c-0.4,1-0.4,2.2,0.2,3.3
		c1,2.2,3.6,3.1,5.7,2.1C676.1,208.6,677.1,206.3,676.3,204.2z M632.3,195.2v1.5c1.9,0.7,3.8,1.3,5.7,1.8h8.2
		C641.4,198.1,636.7,197,632.3,195.2z M629.5,200.8l0.9-2.2h-0.5l-0.8,2.1c-0.4-0.1-0.9-0.2-1.3-0.2c-2.4,0-4.3,1.9-4.3,4.3
		c0,2.4,1.9,4.3,4.3,4.3s4.3-1.9,4.3-4.3C632.1,203.1,631.1,201.5,629.5,200.8z M676.3,204.2c0-0.1-0.1-0.3-0.2-0.4
		c-0.7-1.5-2.2-2.5-3.9-2.5c-0.5,0-0.9,0.1-1.4,0.2l-1-3h-0.5l1.1,3.1c-1.1,0.5-1.8,1.4-2.2,2.5c-0.4,1-0.4,2.2,0.2,3.3
		c1,2.2,3.6,3.1,5.7,2.1C676.1,208.6,677.1,206.3,676.3,204.2z M632.3,195.2v1.5c1.9,0.7,3.8,1.3,5.7,1.8h8.2
		C641.4,198.1,636.7,197,632.3,195.2z M629.5,200.8l0.9-2.2h-0.5l-0.8,2.1c-0.4-0.1-0.9-0.2-1.3-0.2c-2.4,0-4.3,1.9-4.3,4.3
		c0,2.4,1.9,4.3,4.3,4.3s4.3-1.9,4.3-4.3C632.1,203.1,631.1,201.5,629.5,200.8z M676.3,204.2c0-0.1-0.1-0.3-0.2-0.4
		c-0.7-1.5-2.2-2.5-3.9-2.5c-0.5,0-0.9,0.1-1.4,0.2l-1-3h-0.5l1.1,3.1c-1.1,0.5-1.8,1.4-2.2,2.5c-0.4,1-0.4,2.2,0.2,3.3
		c1,2.2,3.6,3.1,5.7,2.1C676.1,208.6,677.1,206.3,676.3,204.2z M632.3,195.2v1.5c1.9,0.7,3.8,1.3,5.7,1.8h8.2
		C641.4,198.1,636.7,197,632.3,195.2z M629.5,200.8l0.9-2.2h-0.5l-0.8,2.1c-0.4-0.1-0.9-0.2-1.3-0.2c-2.4,0-4.3,1.9-4.3,4.3
		c0,2.4,1.9,4.3,4.3,4.3s4.3-1.9,4.3-4.3C632.1,203.1,631.1,201.5,629.5,200.8z M676.3,204.2c0-0.1-0.1-0.3-0.2-0.4
		c-0.7-1.5-2.2-2.5-3.9-2.5c-0.5,0-0.9,0.1-1.4,0.2l-1-3h-0.5l1.1,3.1c-1.1,0.5-1.8,1.4-2.2,2.5c-0.4,1-0.4,2.2,0.2,3.3
		c1,2.2,3.6,3.1,5.7,2.1C676.1,208.6,677.1,206.3,676.3,204.2z M632.3,195.2v1.5c1.9,0.7,3.8,1.3,5.7,1.8h8.2
		C641.4,198.1,636.7,197,632.3,195.2z M629.5,200.8l0.9-2.2h-0.5l-0.8,2.1c-0.4-0.1-0.9-0.2-1.3-0.2c-2.4,0-4.3,1.9-4.3,4.3
		c0,2.4,1.9,4.3,4.3,4.3s4.3-1.9,4.3-4.3C632.1,203.1,631.1,201.5,629.5,200.8z M676.3,204.2c0-0.1-0.1-0.3-0.2-0.4
		c-0.7-1.5-2.2-2.5-3.9-2.5c-0.5,0-0.9,0.1-1.4,0.2l-1-3h-0.5l1.1,3.1c-1.1,0.5-1.8,1.4-2.2,2.5c-0.4,1-0.4,2.2,0.2,3.3
		c1,2.2,3.6,3.1,5.7,2.1C676.1,208.6,677.1,206.3,676.3,204.2z M632.3,195.2v1.5c1.9,0.7,3.8,1.3,5.7,1.8h8.2
		C641.4,198.1,636.7,197,632.3,195.2z M629.5,200.8l0.9-2.2h-0.5l-0.8,2.1c-0.4-0.1-0.9-0.2-1.3-0.2c-2.4,0-4.3,1.9-4.3,4.3
		c0,2.4,1.9,4.3,4.3,4.3s4.3-1.9,4.3-4.3C632.1,203.1,631.1,201.5,629.5,200.8z M676.3,204.2c0-0.1-0.1-0.3-0.2-0.4
		c-0.7-1.5-2.2-2.5-3.9-2.5c-0.5,0-0.9,0.1-1.4,0.2l-1-3h-0.5l1.1,3.1c-1.1,0.5-1.8,1.4-2.2,2.5c-0.4,1-0.4,2.2,0.2,3.3
		c1,2.2,3.6,3.1,5.7,2.1C676.1,208.6,677.1,206.3,676.3,204.2z M632.3,195.2v1.5c1.9,0.7,3.8,1.3,5.7,1.8h8.2
		C641.4,198.1,636.7,197,632.3,195.2z M629.5,200.8l0.9-2.2h-0.5l-0.8,2.1c-0.4-0.1-0.9-0.2-1.3-0.2c-2.4,0-4.3,1.9-4.3,4.3
		c0,2.4,1.9,4.3,4.3,4.3s4.3-1.9,4.3-4.3C632.1,203.1,631.1,201.5,629.5,200.8z M676.3,204.2c0-0.1-0.1-0.3-0.2-0.4
		c-0.7-1.5-2.2-2.5-3.9-2.5c-0.5,0-0.9,0.1-1.4,0.2l-1-3h-0.5l1.1,3.1c-1.1,0.5-1.8,1.4-2.2,2.5c-0.4,1-0.4,2.2,0.2,3.3
		c1,2.2,3.6,3.1,5.7,2.1C676.1,208.6,677.1,206.3,676.3,204.2z M632.3,195.2v1.5c1.9,0.7,3.8,1.3,5.7,1.8h8.2
		C641.4,198.1,636.7,197,632.3,195.2z M629.5,200.8l0.9-2.2h-0.5l-0.8,2.1c-0.4-0.1-0.9-0.2-1.3-0.2c-2.4,0-4.3,1.9-4.3,4.3
		c0,2.4,1.9,4.3,4.3,4.3s4.3-1.9,4.3-4.3C632.1,203.1,631.1,201.5,629.5,200.8z M676.3,204.2c0-0.1-0.1-0.3-0.2-0.4
		c-0.7-1.5-2.2-2.5-3.9-2.5c-0.5,0-0.9,0.1-1.4,0.2l-1-3h-0.5l1.1,3.1c-1.1,0.5-1.8,1.4-2.2,2.5c-0.4,1-0.4,2.2,0.2,3.3
		c1,2.2,3.6,3.1,5.7,2.1C676.1,208.6,677.1,206.3,676.3,204.2z M632.3,195.2v1.5c1.9,0.7,3.8,1.3,5.7,1.8h8.2
		C641.4,198.1,636.7,197,632.3,195.2z M629.5,200.8l0.9-2.2h-0.5l-0.8,2.1c-0.4-0.1-0.9-0.2-1.3-0.2c-2.4,0-4.3,1.9-4.3,4.3
		c0,2.4,1.9,4.3,4.3,4.3s4.3-1.9,4.3-4.3C632.1,203.1,631.1,201.5,629.5,200.8z M676.3,204.2c0-0.1-0.1-0.3-0.2-0.4
		c-0.7-1.5-2.2-2.5-3.9-2.5c-0.5,0-0.9,0.1-1.4,0.2l-1-3h-0.5l1.1,3.1c-1.1,0.5-1.8,1.4-2.2,2.5c-0.4,1-0.4,2.2,0.2,3.3
		c1,2.2,3.6,3.1,5.7,2.1C676.1,208.6,677.1,206.3,676.3,204.2z M632.3,195.2v1.5c1.9,0.7,3.8,1.3,5.7,1.8h8.2
		C641.4,198.1,636.7,197,632.3,195.2z M629.5,200.8l0.9-2.2h-0.5l-0.8,2.1c-0.4-0.1-0.9-0.2-1.3-0.2c-2.4,0-4.3,1.9-4.3,4.3
		c0,2.4,1.9,4.3,4.3,4.3s4.3-1.9,4.3-4.3C632.1,203.1,631.1,201.5,629.5,200.8z M676.3,204.2c0-0.1-0.1-0.3-0.2-0.4
		c-0.7-1.5-2.2-2.5-3.9-2.5c-0.5,0-0.9,0.1-1.4,0.2l-1-3h-0.5l1.1,3.1c-1.1,0.5-1.8,1.4-2.2,2.5c-0.4,1-0.4,2.2,0.2,3.3
		c1,2.2,3.6,3.1,5.7,2.1C676.1,208.6,677.1,206.3,676.3,204.2z M632.3,195.2v1.5c1.9,0.7,3.8,1.3,5.7,1.8h8.2
		C641.4,198.1,636.7,197,632.3,195.2z M629.5,200.8l0.9-2.2h-0.5l-0.8,2.1c-0.4-0.1-0.9-0.2-1.3-0.2c-2.4,0-4.3,1.9-4.3,4.3
		c0,2.4,1.9,4.3,4.3,4.3s4.3-1.9,4.3-4.3C632.1,203.1,631.1,201.5,629.5,200.8z M676.3,204.2c0-0.1-0.1-0.3-0.2-0.4
		c-0.7-1.5-2.2-2.5-3.9-2.5c-0.5,0-0.9,0.1-1.4,0.2l-1-3h-0.5l1.1,3.1c-1.1,0.5-1.8,1.4-2.2,2.5c-0.4,1-0.4,2.2,0.2,3.3
		c1,2.2,3.6,3.1,5.7,2.1C676.1,208.6,677.1,206.3,676.3,204.2z M632.3,195.2v1.5c1.9,0.7,3.8,1.3,5.7,1.8h8.2
		C641.4,198.1,636.7,197,632.3,195.2z M629.5,200.8l0.9-2.2h-0.5l-0.8,2.1c-0.4-0.1-0.9-0.2-1.3-0.2c-2.4,0-4.3,1.9-4.3,4.3
		c0,2.4,1.9,4.3,4.3,4.3s4.3-1.9,4.3-4.3C632.1,203.1,631.1,201.5,629.5,200.8z M676.3,204.2c0-0.1-0.1-0.3-0.2-0.4
		c-0.7-1.5-2.2-2.5-3.9-2.5c-0.5,0-0.9,0.1-1.4,0.2l-1-3h-0.5l1.1,3.1c-1.1,0.5-1.8,1.4-2.2,2.5c-0.4,1-0.4,2.2,0.2,3.3
		c1,2.2,3.6,3.1,5.7,2.1C676.1,208.6,677.1,206.3,676.3,204.2z M632.3,195.2v1.5c1.9,0.7,3.8,1.3,5.7,1.8h8.2
		C641.4,198.1,636.7,197,632.3,195.2z M629.5,200.8l0.9-2.2h-0.5l-0.8,2.1c-0.4-0.1-0.9-0.2-1.3-0.2c-2.4,0-4.3,1.9-4.3,4.3
		c0,2.4,1.9,4.3,4.3,4.3s4.3-1.9,4.3-4.3C632.1,203.1,631.1,201.5,629.5,200.8z M676.3,204.2c0-0.1-0.1-0.3-0.2-0.4
		c-0.7-1.5-2.2-2.5-3.9-2.5c-0.5,0-0.9,0.1-1.4,0.2l-1-3h-0.5l1.1,3.1c-1.1,0.5-1.8,1.4-2.2,2.5c-0.4,1-0.4,2.2,0.2,3.3
		c1,2.2,3.6,3.1,5.7,2.1C676.1,208.6,677.1,206.3,676.3,204.2z M632.3,195.2v1.5c1.9,0.7,3.8,1.3,5.7,1.8h8.2
		C641.4,198.1,636.7,197,632.3,195.2z M629.5,200.8l0.9-2.2h-0.5l-0.8,2.1c-0.4-0.1-0.9-0.2-1.3-0.2c-2.4,0-4.3,1.9-4.3,4.3
		c0,2.4,1.9,4.3,4.3,4.3s4.3-1.9,4.3-4.3C632.1,203.1,631.1,201.5,629.5,200.8z M676.3,204.2c0-0.1-0.1-0.3-0.2-0.4
		c-0.7-1.5-2.2-2.5-3.9-2.5c-0.5,0-0.9,0.1-1.4,0.2l-1-3h-0.5l1.1,3.1c-1.1,0.5-1.8,1.4-2.2,2.5c-0.4,1-0.4,2.2,0.2,3.3
		c1,2.2,3.6,3.1,5.7,2.1C676.1,208.6,677.1,206.3,676.3,204.2z M632.3,195.2v1.5c1.9,0.7,3.8,1.3,5.7,1.8h8.2
		C641.4,198.1,636.7,197,632.3,195.2z M629.5,200.8l0.9-2.2h-0.5l-0.8,2.1c-0.4-0.1-0.9-0.2-1.3-0.2c-2.4,0-4.3,1.9-4.3,4.3
		c0,2.4,1.9,4.3,4.3,4.3s4.3-1.9,4.3-4.3C632.1,203.1,631.1,201.5,629.5,200.8z M676.3,204.2c0-0.1-0.1-0.3-0.2-0.4
		c-0.7-1.5-2.2-2.5-3.9-2.5c-0.5,0-0.9,0.1-1.4,0.2l-1-3h-0.5l1.1,3.1c-1.1,0.5-1.8,1.4-2.2,2.5c-0.4,1-0.4,2.2,0.2,3.3
		c1,2.2,3.6,3.1,5.7,2.1C676.1,208.6,677.1,206.3,676.3,204.2z M632.3,195.2v1.5c1.9,0.7,3.8,1.3,5.7,1.8h8.2
		C641.4,198.1,636.7,197,632.3,195.2z M629.5,200.8l0.9-2.2h-0.5l-0.8,2.1c-0.4-0.1-0.9-0.2-1.3-0.2c-2.4,0-4.3,1.9-4.3,4.3
		c0,2.4,1.9,4.3,4.3,4.3s4.3-1.9,4.3-4.3C632.1,203.1,631.1,201.5,629.5,200.8z M676.3,204.2c0-0.1-0.1-0.3-0.2-0.4
		c-0.7-1.5-2.2-2.5-3.9-2.5c-0.5,0-0.9,0.1-1.4,0.2l-1-3h-0.5l1.1,3.1c-1.1,0.5-1.8,1.4-2.2,2.5c-0.4,1-0.4,2.2,0.2,3.3
		c1,2.2,3.6,3.1,5.7,2.1C676.1,208.6,677.1,206.3,676.3,204.2z M632.3,195.2v1.5c1.9,0.7,3.8,1.3,5.7,1.8h8.2
		C641.4,198.1,636.7,197,632.3,195.2z M629.5,200.8l0.9-2.2h-0.5l-0.8,2.1c-0.4-0.1-0.9-0.2-1.3-0.2c-2.4,0-4.3,1.9-4.3,4.3
		c0,2.4,1.9,4.3,4.3,4.3s4.3-1.9,4.3-4.3C632.1,203.1,631.1,201.5,629.5,200.8z M676.3,204.2c0-0.1-0.1-0.3-0.2-0.4
		c-0.7-1.5-2.2-2.5-3.9-2.5c-0.5,0-0.9,0.1-1.4,0.2l-1-3h-0.5l1.1,3.1c-1.1,0.5-1.8,1.4-2.2,2.5c-0.4,1-0.4,2.2,0.2,3.3
		c1,2.2,3.6,3.1,5.7,2.1C676.1,208.6,677.1,206.3,676.3,204.2z M632.3,195.2v1.5c1.9,0.7,3.8,1.3,5.7,1.8h8.2
		C641.4,198.1,636.7,197,632.3,195.2z M629.5,200.8l0.9-2.2h-0.5l-0.8,2.1c-0.4-0.1-0.9-0.2-1.3-0.2c-2.4,0-4.3,1.9-4.3,4.3
		c0,2.4,1.9,4.3,4.3,4.3s4.3-1.9,4.3-4.3C632.1,203.1,631.1,201.5,629.5,200.8z M676.3,204.2c0-0.1-0.1-0.3-0.2-0.4
		c-0.7-1.5-2.2-2.5-3.9-2.5c-0.5,0-0.9,0.1-1.4,0.2l-1-3h-0.5l1.1,3.1c-1.1,0.5-1.8,1.4-2.2,2.5c-0.4,1-0.4,2.2,0.2,3.3
		c1,2.2,3.6,3.1,5.7,2.1C676.1,208.6,677.1,206.3,676.3,204.2z M632.3,195.2v1.5c1.9,0.7,3.8,1.3,5.7,1.8h8.2
		C641.4,198.1,636.7,197,632.3,195.2z M629.5,200.8l0.9-2.2h-0.5l-0.8,2.1c-0.4-0.1-0.9-0.2-1.3-0.2c-2.4,0-4.3,1.9-4.3,4.3
		c0,2.4,1.9,4.3,4.3,4.3s4.3-1.9,4.3-4.3C632.1,203.1,631.1,201.5,629.5,200.8z M676.3,204.2c0-0.1-0.1-0.3-0.2-0.4
		c-0.7-1.5-2.2-2.5-3.9-2.5c-0.5,0-0.9,0.1-1.4,0.2l-1-3h-0.5l1.1,3.1c-1.1,0.5-1.8,1.4-2.2,2.5c-0.4,1-0.4,2.2,0.2,3.3
		c1,2.2,3.6,3.1,5.7,2.1C676.1,208.6,677.1,206.3,676.3,204.2z M632.3,195.2v1.5c1.9,0.7,3.8,1.3,5.7,1.8h8.2
		C641.4,198.1,636.7,197,632.3,195.2z M629.5,200.8l0.9-2.2h-0.5l-0.8,2.1c-0.4-0.1-0.9-0.2-1.3-0.2c-2.4,0-4.3,1.9-4.3,4.3
		c0,2.4,1.9,4.3,4.3,4.3s4.3-1.9,4.3-4.3C632.1,203.1,631.1,201.5,629.5,200.8z M676.3,204.2c0-0.1-0.1-0.3-0.2-0.4
		c-0.7-1.5-2.2-2.5-3.9-2.5c-0.5,0-0.9,0.1-1.4,0.2l-1-3h-0.5l1.1,3.1c-1.1,0.5-1.8,1.4-2.2,2.5c-0.4,1-0.4,2.2,0.2,3.3
		c1,2.2,3.6,3.1,5.7,2.1C676.1,208.6,677.1,206.3,676.3,204.2z"/>
	<rect x="724.4" y="181.1" class="st0" width="55.6" height="81.4"/>
	<rect x="771.9" y="212.7" class="st0" width="55.6" height="49.3"/>
	<rect x="556.4" y="205.5" class="st0" width="31.2" height="41.4"/>
	<rect x="752.2" y="103.6" class="st0" width="39.3" height="158.9"/>
	<polygon class="st0" points="856.2,262.5 804.4,262.5 804.4,169.7 843.7,169.7 	"/>
	<rect x="833.5" y="241.3" class="st0" width="45.4" height="21.2"/>
	<rect x="781.4" y="70.5" class="st0" width="1.4" height="43.2"/>
	<rect x="785.9" y="79.7" class="st0" width="1.4" height="43.2"/>
	<rect x="777.2" y="85.7" class="st0" width="1.4" height="43.2"/>
	<rect x="806.4" y="162.2" class="st0" width="18.5" height="14.6"/>
	<rect x="808.5" y="157" class="st0" width="14.5" height="8.2"/>
	<rect x="832.4" y="166.5" class="st0" width="3.6" height="5.9"/>
	<rect x="837.2" y="161.1" class="st0" width="5.1" height="11.3"/>
	<rect x="556.2" y="139.5" class="st2" width="47.1" height="151.9"/>
	<rect x="552.7" y="140.4" class="st2" width="54.2" height="1.5"/>
	<rect x="554.2" y="161.7" class="st2" width="51.2" height="1.5"/>
	<rect x="554.2" y="182.4" class="st2" width="51.2" height="1.5"/>
	<rect x="554.2" y="203" class="st2" width="51.2" height="1.5"/>
	<rect x="554.2" y="223.7" class="st2" width="51.2" height="1.5"/>
	<rect x="554.2" y="244.4" class="st2" width="51.2" height="1.5"/>
	<rect x="554.2" y="265" class="st2" width="51.2" height="1.5"/>
	<rect x="550.9" y="136.2" class="st2" width="57.7" height="4.2"/>
	<rect x="560.5" y="146.9" class="st3" width="4.9" height="12.1"/>
	<rect x="571.4" y="146.9" class="st2" width="4.9" height="12.1"/>
	<rect x="582.4" y="146.9" class="st2" width="4.9" height="12.1"/>
	<rect x="593.3" y="146.9" class="st2" width="4.9" height="12.1"/>
	<rect x="560.5" y="166.7" class="st2" width="4.9" height="12.1"/>
	<rect x="571.4" y="166.7" class="st3" width="4.9" height="12.1"/>
	<rect x="582.4" y="166.7" class="st2" width="4.9" height="12.1"/>
	<rect x="593.3" y="166.7" class="st2" width="4.9" height="12.1"/>
	<rect x="560.5" y="187.4" class="st2" width="4.9" height="12.1"/>
	<rect x="571.4" y="187.4" class="st2" width="4.9" height="12.1"/>
	<rect x="582.4" y="187.4" class="st2" width="4.9" height="12.1"/>
	<rect x="593.3" y="187.4" class="st3" width="4.9" height="12.1"/>
	<rect x="560.5" y="208.1" class="st2" width="4.9" height="12.1"/>
	<rect x="571.4" y="208.1" class="st3" width="4.9" height="12.1"/>
	<rect x="582.4" y="208.1" class="st3" width="4.9" height="12.1"/>
	<rect x="593.3" y="208.1" class="st2" width="4.9" height="12.1"/>
	<rect x="560.5" y="228.7" class="st3" width="4.9" height="12.1"/>
	<rect x="571.4" y="228.7" class="st2" width="4.9" height="12.1"/>
	<rect x="582.4" y="228.7" class="st2" width="4.9" height="12.1"/>
	<rect x="593.3" y="228.7" class="st2" width="4.9" height="12.1"/>
	<rect x="560.5" y="249.4" class="st2" width="4.9" height="12.1"/>
	<rect x="571.4" y="249.4" class="st2" width="4.9" height="12.1"/>
	<rect x="582.4" y="249.4" class="st3" width="4.9" height="12.1"/>
	<rect x="593.3" y="249.4" class="st2" width="4.9" height="12.1"/>
	<rect x="560.5" y="270" class="st2" width="4.9" height="12.1"/>
	<rect x="571.4" y="270" class="st3" width="4.9" height="12.1"/>
	<rect x="582.4" y="270" class="st2" width="4.9" height="12.1"/>
	<rect x="593.3" y="270" class="st3" width="4.9" height="12.1"/>
	<rect x="559.2" y="130.4" class="st2" width="16" height="7.9"/>
	<rect x="558.1" y="130.2" class="st2" width="18.2" height="1.4"/>
	<path class="st2" d="M486.4,132.4l-60,14.7v144.3h62.8V131.7L486.4,132.4z M436,163.1h-3.7v-9.3h3.7V163.1z M451.8,163.1h-3.7v-9.3
		h3.7V163.1z M483.1,163.1h-3.7v-9.3h3.7V163.1z"/>
	<rect x="423.2" y="144.5" class="st2" width="5.5" height="146.9"/>
	<rect x="438.9" y="140.4" class="st2" width="5.5" height="151"/>
	<rect x="454.5" y="136.1" class="st2" width="5.5" height="155.3"/>
	<rect x="470.2" y="132.6" class="st2" width="5.5" height="158.8"/>
	<rect x="486.4" y="128.8" class="st2" width="5.1" height="162.5"/>
	<rect x="430.1" y="156.8" class="st3" width="7.3" height="11.1"/>
	<rect x="445.8" y="156.8" class="st3" width="7.3" height="11.1"/>
	<rect x="461.5" y="156.8" class="st2" width="6.5" height="11.1"/>
	<rect x="477.2" y="156.8" class="st3" width="7.3" height="11.1"/>
	<rect x="430.1" y="176.3" class="st2" width="7.3" height="11.1"/>
	<rect x="445.8" y="176.3" class="st2" width="7.3" height="11.1"/>
	<rect x="461.5" y="176.3" class="st3" width="7.3" height="11.1"/>
	<rect x="477.2" y="176.3" class="st3" width="7.3" height="11.1"/>
	<rect x="430.1" y="195.7" class="st3" width="7.3" height="11.1"/>
	<rect x="445.8" y="195.7" class="st3" width="7.3" height="11.1"/>
	<rect x="461.5" y="195.7" class="st3" width="7.3" height="11.1"/>
	<rect x="477.2" y="195.7" class="st2" width="7.3" height="11.1"/>
	<rect x="430.1" y="215.1" class="st3" width="7.3" height="11.1"/>
	<rect x="445.8" y="215.1" class="st2" width="7.3" height="11.1"/>
	<rect x="461.5" y="215.1" class="st3" width="7.3" height="11.1"/>
	<rect x="477.2" y="215.1" class="st3" width="7.3" height="11.1"/>
	<rect x="430.1" y="234.5" class="st3" width="7.3" height="11.1"/>
	<rect x="445.8" y="234.5" class="st3" width="7.3" height="11.1"/>
	<rect x="461.5" y="234.5" class="st2" width="7.3" height="11.1"/>
	<rect x="477.2" y="234.5" class="st3" width="7.3" height="11.1"/>
	<rect x="430.1" y="253.9" class="st2" width="7.3" height="11.1"/>
	<rect x="445.8" y="253.9" class="st2" width="7.3" height="11.1"/>
	<rect x="461.5" y="253.9" class="st3" width="7.3" height="11.1"/>
	<rect x="477.2" y="253.9" class="st3" width="7.3" height="12.6"/>
	<rect x="430.1" y="273.3" class="st3" width="7.3" height="11.1"/>
	<rect x="445.8" y="273.3" class="st2" width="7.3" height="11.1"/>
	<rect x="461.5" y="273.3" class="st3" width="7.3" height="11.1"/>
	<rect x="477.2" y="273.3" class="st2" width="7.3" height="11.1"/>
	<polygon class="st4" points="246.9,154 246.9,155.5 245.4,155.5 245.4,159.7 271.6,159.7 271.6,291.4 228.5,291.4 228.5,166.6 
		228.5,159.7 228.5,155.5 227,155.5 227,154 	"/>
	<rect x="320.3" y="213.8" class="st2" width="36.9" height="77.6"/>
	<path class="st4" d="M159.4,196v95.4h30V196H159.4z M172.1,200.8h2.3v2.3h-2.3V200.8z M167.1,200.8h2.3v2.3h-2.3V200.8z
		 M162.5,200.8h2.3v2.3h-2.3V200.8z M162.5,206.1h2.3v2.3h-2.3V206.1z"/>
	<rect x="183.5" y="215.8" class="st4" width="32.7" height="75.5"/>
	<path class="st4" d="M170.2,192.1v11.4h13.3v-11.4H170.2z M174.4,203.1h-2.3v-2.3h2.3V203.1z"/>
	<rect x="185.7" y="214.6" class="st4" width="34.9" height="2.8"/>
	<rect x="212.6" y="248.2" class="st4" width="36.7" height="43.1"/>
	<rect x="124" y="262.5" class="st4" width="46.2" height="28.9"/>
	<polygon class="st2" points="328.7,242.4 301.4,242.4 289.8,285.1 328.7,285.1 	"/>
	<rect x="341.4" y="180.3" class="st2" width="0.8" height="47.4"/>
	<rect x="345.2" y="196.3" class="st2" width="1" height="28"/>
	<rect x="339.7" y="201.2" class="st2" width="13.8" height="13.8"/>
	<rect x="337.4" y="200.2" class="st2" width="18.3" height="1.2"/>
	<rect x="350.5" y="251.3" class="st2" width="44.7" height="40"/>
	<rect x="386.7" y="207.3" class="st2" width="28.7" height="77.2"/>
	<rect x="498.9" y="221.8" class="st2" width="45.9" height="69.6"/>
	<rect x="616.8" y="198.6" class="st5" width="68.9" height="92.8"/>
	<rect x="615" y="195" class="st5" width="74.7" height="3.6"/>
	<rect x="652.3" y="185.4" class="st5" width="30.3" height="18.8"/>
	<rect x="637.3" y="185.4" class="st5" width="5.1" height="11.4"/>
	<rect x="626.7" y="185.4" class="st5" width="5.6" height="11.4"/>
	<rect x="733" y="155.9" class="st5" width="54.5" height="135.5"/>
	<rect x="731.4" y="153.6" class="st5" width="57.6" height="3.8"/>
	<rect x="734.8" y="148.7" class="st5" width="50.8" height="18.2"/>
	<rect x="761.6" y="141.2" class="st5" width="20.1" height="19.9"/>
	<polygon class="st5" points="770.1,146.8 781.7,146.8 781.7,136.4 773.4,136.4 	"/>
	<rect x="775.9" y="127.7" class="st5" width="1.1" height="23.3"/>
	<path class="st5" d="M775.5,126.5c0.1,0.5,0.6,0.9,1.2,0.8c0.5-0.1,0.9-0.6,0.8-1.2c-0.1-0.5-0.5-0.8-1-0.8
		C775.9,125.3,775.4,125.8,775.5,126.5z"/>
	<rect x="710.5" y="208.2" class="st5" width="27.8" height="83.2"/>
	<rect x="834.1" y="194.9" class="st5" width="34.8" height="96.5"/>
	<rect x="832.4" y="193.1" class="st5" width="38.1" height="3.2"/>
	<rect x="863.5" y="179.5" class="st5" width="0.8" height="19.4"/>
	<rect x="858.4" y="182" class="st5" width="0.8" height="15.6"/>
	<path class="st0" d="M111.8,291.4H886l0,0l0,0c0,10.1-6.9,18.3-15.5,18.3H127.3C118.7,309.7,111.8,301.5,111.8,291.4L111.8,291.4
		L111.8,291.4z"/>
	<rect x="111.8" y="285.6" class="st6" width="774.2" height="5.8"/>
	<g class="st7">
		<rect x="167.1" y="206.1" class="st6" width="2.3" height="2.3"/>
		<rect x="162.5" y="211.3" class="st6" width="2.3" height="2.3"/>
	</g>
	<rect x="328.7" y="132.6" class="st8" width="1.5" height="8.6"/>
	<rect x="334.1" y="132.6" class="st8" width="1.5" height="8.6"/>
	<rect x="339.4" y="132.6" class="st8" width="1.5" height="8.6"/>
	<rect x="344.7" y="132.6" class="st8" width="1.5" height="8.6"/>
	<rect x="350.1" y="132.6" class="st8" width="1.5" height="8.6"/>
	<rect x="355.4" y="132.6" class="st8" width="1.5" height="8.6"/>
	<rect x="360.8" y="132.6" class="st8" width="1.5" height="8.6"/>
	<rect x="366.1" y="132.6" class="st8" width="1.5" height="8.6"/>
	<rect x="371.4" y="132.6" class="st8" width="1.5" height="8.6"/>
	<rect x="376.8" y="132.6" class="st8" width="1.5" height="8.6"/>
	<rect x="382.1" y="132.6" class="st8" width="1.5" height="8.6"/>
	<rect x="328.7" y="144.5" class="st8" width="1.5" height="8.6"/>
	<rect x="334.1" y="144.5" class="st8" width="1.5" height="8.6"/>
	<rect x="339.4" y="144.5" class="st8" width="1.5" height="8.6"/>
	<rect x="344.7" y="144.5" class="st8" width="1.5" height="8.6"/>
	<rect x="350.1" y="144.5" class="st8" width="1.5" height="8.6"/>
	<rect x="355.4" y="144.5" class="st8" width="1.5" height="8.6"/>
	<rect x="360.8" y="144.5" class="st8" width="1.5" height="8.6"/>
	<rect x="366.1" y="144.5" class="st8" width="1.5" height="8.6"/>
	<rect x="371.4" y="144.5" class="st8" width="1.5" height="8.6"/>
	<rect x="376.8" y="144.5" class="st8" width="1.5" height="8.6"/>
	<rect x="382.1" y="144.5" class="st8" width="1.5" height="8.6"/>
	<rect x="328.7" y="156.4" class="st8" width="1.5" height="8.6"/>
	<rect x="334.1" y="156.4" class="st8" width="1.5" height="8.6"/>
	<rect x="339.4" y="156.4" class="st8" width="1.5" height="8.6"/>
	<rect x="344.7" y="156.4" class="st8" width="1.5" height="8.6"/>
	<rect x="350.1" y="156.4" class="st8" width="1.5" height="8.6"/>
	<rect x="355.4" y="156.4" class="st8" width="1.5" height="8.6"/>
	<rect x="360.8" y="156.4" class="st8" width="1.5" height="8.6"/>
	<rect x="366.1" y="156.4" class="st8" width="1.5" height="8.6"/>
	<rect x="371.4" y="156.4" class="st8" width="1.5" height="8.6"/>
	<rect x="376.8" y="156.4" class="st8" width="1.5" height="8.6"/>
	<rect x="382.1" y="156.4" class="st8" width="1.5" height="8.6"/>
	<rect x="344.7" y="168.4" class="st8" width="1.5" height="8.6"/>
	<rect x="350.1" y="168.4" class="st8" width="1.5" height="8.6"/>
	<rect x="355.4" y="168.4" class="st8" width="1.5" height="8.6"/>
	<rect x="360.8" y="168.4" class="st8" width="1.5" height="8.6"/>
	<rect x="366.1" y="168.4" class="st8" width="1.5" height="8.6"/>
	<rect x="371.4" y="168.4" class="st8" width="1.5" height="8.6"/>
	<rect x="376.8" y="168.4" class="st8" width="1.5" height="8.6"/>
	<rect x="382.1" y="168.4" class="st8" width="1.5" height="8.6"/>
	<rect x="350.1" y="181" class="st8" width="1.5" height="8.6"/>
	<rect x="355.4" y="181" class="st8" width="1.5" height="8.6"/>
	<rect x="360.8" y="181" class="st8" width="1.5" height="8.6"/>
	<rect x="366.1" y="181" class="st8" width="1.5" height="8.6"/>
	<rect x="371.4" y="181" class="st8" width="1.5" height="8.6"/>
	<rect x="376.8" y="181" class="st8" width="1.5" height="8.6"/>
	<rect x="382.1" y="181" class="st8" width="1.5" height="8.6"/>
	<rect x="431.9" y="171.6" class="st9" width="3.7" height="9.3"/>
	<rect x="431.9" y="189.4" class="st9" width="3.7" height="9.3"/>
	<rect x="431.9" y="207.1" class="st9" width="3.7" height="9.3"/>
	<rect x="431.9" y="223.9" class="st9" width="3.7" height="9.3"/>
	<rect x="431.9" y="241.6" class="st9" width="3.7" height="9.3"/>
	<rect x="447.6" y="171.6" class="st9" width="3.7" height="9.3"/>
	<rect x="447.6" y="189.4" class="st9" width="3.7" height="9.3"/>
	<rect x="447.6" y="207.1" class="st9" width="3.7" height="9.3"/>
	<rect x="447.6" y="223.9" class="st9" width="3.7" height="9.3"/>
	<rect x="447.6" y="241.6" class="st9" width="3.7" height="9.3"/>
	<rect x="463.8" y="153.9" class="st9" width="3.7" height="9.3"/>
	<rect x="463.3" y="171.6" class="st9" width="3.7" height="9.3"/>
	<rect x="463.3" y="189.4" class="st9" width="3.7" height="9.3"/>
	<rect x="463.3" y="207.1" class="st9" width="3.7" height="9.3"/>
	<rect x="463.3" y="223.9" class="st9" width="3.7" height="9.3"/>
	<rect x="463.3" y="241.6" class="st9" width="3.7" height="9.3"/>
	<rect x="479" y="171.6" class="st9" width="3.7" height="9.3"/>
	<rect x="479" y="189.4" class="st9" width="3.7" height="9.3"/>
	<rect x="479" y="207.1" class="st9" width="3.7" height="9.3"/>
	<rect x="479" y="223.9" class="st9" width="3.7" height="9.3"/>
	<rect x="479" y="241.6" class="st9" width="3.7" height="9.3"/>
	<rect x="380.5" y="24.4" class="st8" width="3" height="8.1"/>
	<rect x="388" y="24.4" class="st8" width="3" height="8.1"/>
	<rect x="395.5" y="24.4" class="st8" width="3" height="8.1"/>
	<rect x="373" y="37.9" class="st8" width="3" height="8.1"/>
	<rect x="380.5" y="37.9" class="st8" width="3" height="8.1"/>
	<rect x="388" y="37.9" class="st8" width="3" height="8.1"/>
	<rect x="395.5" y="37.9" class="st8" width="3" height="8.1"/>
	<rect x="373" y="51.5" class="st8" width="3" height="8.1"/>
	<rect x="380.5" y="51.5" class="st8" width="3" height="8.1"/>
	<rect x="404.1" y="24.4" class="st8" width="3" height="8.1"/>
	<rect x="185" y="106.7" class="st10" width="1.9" height="7.4"/>
	<rect x="191.9" y="106.7" class="st10" width="1.9" height="7.4"/>
	<rect x="531.6" y="163.8" class="st8" width="3" height="11.6"/>
	<rect x="540.8" y="163.8" class="st8" width="3" height="11.6"/>
	<rect x="549.4" y="163.8" class="st8" width="3" height="11.6"/>
	<rect x="738.3" y="166.2" class="st9" width="2.3" height="6.5"/>
	<rect x="745.5" y="166.2" class="st9" width="2.3" height="6.5"/>
	<rect x="738.3" y="166.2" class="st9" width="2.3" height="6.5"/>
	<rect x="745.5" y="166.2" class="st9" width="2.3" height="6.5"/>
	<rect x="752.2" y="166.2" class="st9" width="2.3" height="6.5"/>
	<rect x="759.4" y="166.2" class="st9" width="2.3" height="6.5"/>
	<rect x="738.3" y="177.8" class="st9" width="2.3" height="6.5"/>
	<rect x="745.5" y="177.8" class="st9" width="2.3" height="6.5"/>
	<rect x="738.3" y="177.8" class="st9" width="2.3" height="6.5"/>
	<rect x="745.5" y="177.8" class="st9" width="2.3" height="6.5"/>
	<rect x="752.2" y="177.8" class="st9" width="2.3" height="6.5"/>
	<rect x="759.4" y="177.8" class="st9" width="2.3" height="6.5"/>
	<rect x="738.3" y="190.2" class="st9" width="2.3" height="6.5"/>
	<rect x="745.5" y="190.2" class="st9" width="2.3" height="6.5"/>
	<rect x="738.3" y="190.2" class="st9" width="2.3" height="6.5"/>
	<rect x="745.5" y="190.2" class="st9" width="2.3" height="6.5"/>
	<rect x="752.2" y="190.2" class="st9" width="2.3" height="6.5"/>
	<rect x="759.4" y="190.2" class="st9" width="2.3" height="6.5"/>
	<rect x="767.2" y="166.2" class="st9" width="2.3" height="6.5"/>
	<rect x="767.2" y="177.8" class="st9" width="2.3" height="6.5"/>
	<rect x="774.3" y="166.2" class="st9" width="2.3" height="6.5"/>
	<rect x="560.5" y="146.9" class="st9" width="2.5" height="10.1"/>
	<rect x="572.6" y="146.9" class="st9" width="2.5" height="10.1"/>
	<rect x="584.8" y="146.9" class="st9" width="2.5" height="10.1"/>
	<rect x="597" y="146.9" class="st9" width="2.5" height="10.1"/>
	<rect x="560.5" y="167.7" class="st9" width="2.5" height="10.1"/>
	<rect x="572.6" y="167.7" class="st9" width="2.5" height="10.1"/>
	<rect x="584.8" y="167.7" class="st9" width="2.5" height="10.1"/>
	<rect x="597" y="167.7" class="st9" width="2.5" height="10.1"/>
	<rect x="560.5" y="189.1" class="st9" width="2.5" height="10.1"/>
	<rect x="572.6" y="189.1" class="st9" width="2.5" height="10.1"/>
	<rect x="584.8" y="189.1" class="st9" width="2.5" height="10.1"/>
	<rect x="597" y="189.1" class="st9" width="2.5" height="10.1"/>
	<rect x="560.5" y="210.5" class="st9" width="2.5" height="10.1"/>
	<rect x="572.6" y="210.5" class="st9" width="2.5" height="10.1"/>
	<rect x="584.8" y="210.5" class="st9" width="2.5" height="10.1"/>
	<rect x="597" y="210.5" class="st9" width="2.5" height="10.1"/>
	<rect x="560.5" y="229.9" class="st9" width="2.5" height="10.1"/>
	<rect x="572.6" y="229.9" class="st9" width="2.5" height="10.1"/>
	<rect x="584.8" y="229.9" class="st9" width="2.5" height="10.1"/>
	<rect x="560.5" y="251.5" class="st9" width="2.5" height="10.1"/>
	<rect x="572.6" y="251.5" class="st9" width="2.5" height="10.1"/>
	<rect x="584.8" y="251.5" class="st9" width="2.5" height="10.1"/>
	<rect x="597" y="229.9" class="st9" width="2.5" height="10.1"/>
	<rect x="837.2" y="200.4" class="st9" width="2.5" height="5.8"/>
	<rect x="837.2" y="209.8" class="st9" width="2.5" height="5.8"/>
	<rect x="843.6" y="200.4" class="st9" width="2.5" height="5.8"/>
</g>
</svg>
