<svg xmlns="http://www.w3.org/2000/svg" viewBox="0 0 2948.61 473.7"><defs><style>.cls-1{fill:#3a383e;}.cls-2{fill:#f7d872;}.cls-3{fill:#00c29d;}.cls-4{fill:#f8aa61;}.cls-5{fill:#fff;}.cls-6{fill:#ff636f;}.cls-7{fill:#f2d375;}.cls-8{fill:#35b799;}.cls-9{fill:#f9a764;}</style></defs><g id="Layer_2" data-name="Layer 2"><g id="Layer_1-2" data-name="Layer 1"><path class="cls-1" d="M0,473.7c30.17-6.9,60.4-13.56,90.64-20.24q45.44-9.58,91-18.83c7.58-1.59,15.18-3,22.78-4.5l22.81-4.38L272.82,417l11.41-2.18,11.43-2,22.88-4.05,45.75-8.11q183.16-31.56,368-53.5t370.51-34q185.71-12,372-13.54t372.2,8q185.92,9.57,371,30.72,184.88,21.29,368,54.73c7.63,1.32,15.24,2.82,22.84,4.3l22.82,4.43,45.62,8.89c7.61,1.45,15.17,3.15,22.75,4.73l22.74,4.82,45.43,9.72c30.23,6.79,60.37,13.92,90.52,20.94q45.09,11.22,90,22.82c-30.52-5.28-61-10.86-91.39-16.3L2765.74,442l-45.81-7.18L2697,431.17c-7.63-1.18-15.25-2.49-22.9-3.53L2628.27,421l-22.92-3.35c-7.64-1.12-15.28-2.26-22.94-3.22q-183.57-25.38-368-41.66T1845,349.33q-184.89-7.21-370-5.68T1105.17,354.8q-184.85,9.58-369.31,26.64-184.46,16.88-368.39,40.48l-46,6-23,3L287,432.37,275.53,434l-91.88,12.7L91.82,460C61.24,464.62,30.65,469.27,0,473.7Z"/><path class="cls-1" d="M1283.64,301.16h-52.56v40.43h52.56Z"/><path class="cls-1" d="M933.92,293.07h34.36V260.73a31.46,31.46,0,0,1-10.09,22.86A35.5,35.5,0,0,1,933.92,293.07Z"/><path class="cls-1" d="M978.35,258.71H966.26v62.67h12.09Z"/><polygon class="cls-1" points="998.61 293.07 998.61 301.16 994.56 301.16 994.56 297.12 990.52 297.12 990.52 301.16 933.93 301.16 933.93 293.07 998.61 293.07"/><path class="cls-1" d="M1011.42,244.56V256.5H996v9.8H988.5v51h58.62V244.56Zm-20.9,28.3h4v6.06h-4Zm0,12.13h4v6.06h-4Zm4,18.19h-4v-6.06h4Zm8.09,0h-4v-6.06h4Zm0-12.13h-4V285h4Zm0-12.13h-4v-6.06h4Zm12.13,24.26h-4v-6.06h4Zm0-12.13h-4V285h4Zm0-12.13h-4v-6.06h4Zm8.09,24.26h-4.05v-6.06h4.05Zm0-12.13h-4.05V285h4.05Zm0-12.13h-4.05v-6.06h4.05Z"/><path class="cls-1" d="M988.5,264.77v52.56h54.58V264.77Zm2,14.15v-6.06h4v6.06Zm4,6.07v6.06h-4V285Zm0,18.19h-4v-6.06h4Zm8.09,0h-4v-6.06h4Zm0-12.13h-4V285h4Zm0-12.13h-4v-6.06h4Zm12.13,24.26h-4v-6.06h4Zm0-12.13h-4V285h4Zm0-12.13h-4v-6.06h4Zm8.09,24.26h-4v-6.06h4Zm0-12.13h-4V285h4Zm0-12.13h-4v-6.06h4Z"/><path class="cls-1" d="M1204.8,224.34h-16.17V323.4h16.17Z"/><path class="cls-1" d="M1053.19,218.28h-26.28V319.35h26.28Z"/><path class="cls-1" d="M1055.21,218.28h-32.34v6.06h32.34Z"/><path class="cls-1" d="M1053.19,228.39h-26.28v4h26.28Z"/><path class="cls-1" d="M1053.19,238.49h-26.28v2h26.28Z"/><path class="cls-1" d="M1053.19,246.58h-26.28v4h26.28Z"/><path class="cls-1" d="M1053.19,254.67h-26.28v4h26.28Z"/><path class="cls-1" d="M1053.19,262.75h-26.28v4.05h26.28Z"/><path class="cls-1" d="M1053.19,272.86h-26.28v2h26.28Z"/><path class="cls-1" d="M1053.19,281h-26.28v4h26.28Z"/><path class="cls-1" d="M1053.19,289h-26.28v4h26.28Z"/><path class="cls-1" d="M1053.19,297.12h-26.28v4h26.28Z"/><path class="cls-1" d="M1322,212.22h-48.51V339.57H1322Z"/><path class="cls-2" d="M1334.17,185.94h-24.25V323.4h24.25Z"/><path class="cls-3" d="M1338.22,192h-28.3v4h28.3Z"/><path class="cls-3" d="M1338.22,202.11h-28.3v4h28.3Z"/><path class="cls-3" d="M1338.22,210.19h-28.3v4.05h28.3Z"/><path class="cls-3" d="M1338.22,218.28h-28.3v4h28.3Z"/><path class="cls-3" d="M1338.22,226.37h-28.3v4h28.3Z"/><path class="cls-3" d="M1338.22,236.47h-28.3v4h28.3Z"/><path class="cls-3" d="M1338.22,244.56h-28.3v4h28.3Z"/><path class="cls-3" d="M1338.22,252.65h-28.3v4h28.3Z"/><path class="cls-3" d="M1338.22,262.75h-28.3v4.05h28.3Z"/><path class="cls-3" d="M1338.22,270.84h-28.3v4h28.3Z"/><path class="cls-3" d="M1338.22,278.92h-28.3V283h28.3Z"/><path class="cls-3" d="M1338.22,287h-28.3v4h28.3Z"/><path class="cls-3" d="M1338.22,297.12h-28.3v4h28.3Z"/><path class="cls-3" d="M1338.22,305.2h-28.3v4h28.3Z"/><path class="cls-3" d="M1338.22,313.29h-28.3v4h28.3Z"/><path class="cls-1" d="M1257.35,183.91H1204.8V327.44h52.55Z"/><path class="cls-1" d="M1253.35,192h-42.49v4h42.49Z"/><path class="cls-1" d="M1253.35,200.09h-42.49v4h42.49Z"/><path class="cls-1" d="M1253.35,208.17h-42.49v6.07h42.49Z"/><path class="cls-1" d="M1253.35,218.28h-42.49v4h42.49Z"/><path class="cls-1" d="M1253.35,226.37h-42.49v6.06h42.49Z"/><path class="cls-1" d="M1253.35,236.47h-42.49v4h42.49Z"/><path class="cls-1" d="M1253.35,244.56h-42.49v4h42.49Z"/><path class="cls-1" d="M1253.35,252.65h-42.49v6.06h42.49Z"/><path class="cls-1" d="M1253.35,262.75h-42.49v4.05h42.49Z"/><path class="cls-1" d="M1253.35,270.84h-42.49v6.06h42.49Z"/><path class="cls-1" d="M1253.35,281h-42.49v4h42.49Z"/><path class="cls-1" d="M1253.35,289h-42.49v4h42.49Z"/><path class="cls-1" d="M1253.35,297.12h-42.49v6.06h42.49Z"/><path class="cls-1" d="M1253.35,307.23h-42.49v4h42.49Z"/><path class="cls-1" d="M1253.35,315.31h-42.49v6.07h42.49Z"/><path class="cls-4" d="M1182.56,82.84h-4v44.47h4Z"/><path class="cls-4" d="M1188.63,131.36h-16.17v82.88h16.17Z"/><path class="cls-4" d="M1188.63,131.36h-16.17l6.37-26.28h3.42Z"/><path class="cls-4" d="M1192.67,145.51h-24.26v113.2h24.26Z"/><path class="cls-4" d="M1196.71,175.83h-32.36V325.42h32.34Z"/><path class="cls-2" d="M1174.48,179.87h-6.07v6.07h6.07Z"/><path class="cls-2" d="M1182.56,179.87h-4v6.07h4Z"/><path class="cls-2" d="M1190.65,179.87h-4v6.07h4Z"/><path class="cls-2" d="M1174.48,190h-6.07v6h6.07Z"/><path class="cls-2" d="M1182.56,190h-4v6h4Z"/><path class="cls-2" d="M1190.65,190h-4v6h4Z"/><path class="cls-2" d="M1174.48,202.11h-6.07v6.06h6.07Z"/><path class="cls-2" d="M1182.56,202.11h-4v6.06h4Z"/><path class="cls-2" d="M1190.65,202.11h-4v6.06h4Z"/><path class="cls-2" d="M1174.48,212.22h-6.07v6.06h6.07Z"/><path class="cls-2" d="M1182.56,212.22h-4v6.06h4Z"/><path class="cls-2" d="M1190.65,212.22h-4v6.06h4Z"/><path class="cls-2" d="M1174.48,224.34h-6.07v6.07h6.07Z"/><path class="cls-2" d="M1182.56,224.34h-4v6.07h4Z"/><path class="cls-2" d="M1190.65,224.34h-4v6.07h4Z"/><path class="cls-2" d="M1174.48,234.45h-6.07v6.07h6.07Z"/><path class="cls-2" d="M1182.56,234.45h-4v6.07h4Z"/><path class="cls-2" d="M1190.65,234.45h-4v6.07h4Z"/><path class="cls-2" d="M1174.48,244.56h-6.07v6.06h6.07Z"/><path class="cls-2" d="M1182.56,244.56h-4v6.06h4Z"/><path class="cls-2" d="M1190.65,244.56h-4v6.06h4Z"/><path class="cls-2" d="M1174.48,256.69h-6.07v6.06h6.07Z"/><path class="cls-2" d="M1182.56,256.69h-4v6.06h4Z"/><path class="cls-2" d="M1190.65,256.69h-4v6.06h4Z"/><path class="cls-2" d="M1174.48,266.8h-6.07v6.06h6.07Z"/><path class="cls-2" d="M1182.56,266.8h-4v6.06h4Z"/><path class="cls-2" d="M1190.65,266.8h-4v6.06h4Z"/><path class="cls-2" d="M1174.48,278.92h-6.07V285h6.07Z"/><path class="cls-2" d="M1182.56,278.92h-4V285h4Z"/><path class="cls-2" d="M1190.65,278.92h-4V285h4Z"/><path class="cls-2" d="M1174.48,289h-6.07v6.07h6.07Z"/><path class="cls-2" d="M1182.56,289h-4v6.07h4Z"/><path class="cls-2" d="M1190.65,289h-4v6.07h4Z"/><path class="cls-2" d="M1174.48,301.16h-6.07v6.07h6.07Z"/><path class="cls-2" d="M1182.56,301.16h-4v6.07h4Z"/><path class="cls-2" d="M1190.65,301.16h-4v6.07h4Z"/><path class="cls-2" d="M1174.48,311.27h-6.07v6.06h6.07Z"/><path class="cls-2" d="M1182.56,311.27h-4v6.06h4Z"/><path class="cls-2" d="M1190.65,311.27h-4v6.06h4Z"/><path class="cls-5" d="M1051.44,259.27l-2.3-4.52,9.33-8.17h17.93l9.13,8.17-13.57,8Z"/><path class="cls-2" d="M1085.53,254.67h-36.39v76.81h36.39Z"/><path class="cls-5" d="M1059.25,260.73h-4v6.07h4Z"/><path class="cls-5" d="M1065.35,260.73h-2v6.07h2Z"/><path class="cls-5" d="M1073.4,260.73h-4v6.07h4Z"/><path class="cls-5" d="M1059.25,270.84h-4v8.08h4Z"/><path class="cls-5" d="M1065.35,270.84h-2v8.08h2Z"/><path class="cls-5" d="M1073.4,270.84h-4v8.08h4Z"/><path class="cls-5" d="M1059.25,283h-4v8.08h4Z"/><path class="cls-5" d="M1065.35,283h-2v8.08h2Z"/><path class="cls-5" d="M1073.4,283h-4v8.08h4Z"/><path class="cls-5" d="M1059.25,295.1h-4v8.08h4Z"/><path class="cls-5" d="M1065.35,295.1h-2v8.08h2Z"/><path class="cls-5" d="M1073.4,295.1h-4v8.08h4Z"/><path class="cls-4" d="M1126,211.22h-46.49v113.2H1126Z"/><path class="cls-4" d="M1204.8,289h-38.45v46.5h38.41Z"/><path class="cls-4" d="M1126,211.22h-30.32v114.2H1126Z"/><path class="cls-1" d="M1012.76,315.31H935.94v10.11h76.82Z"/><path class="cls-1" d="M1174.48,200.09H1126V329.46h48.52Z"/><path class="cls-1" d="M1144.15,168.76V315.31h-36.38v-8.08H1126v-5.05h-18.19v-4H1126v-4h-18.19v-4.05H1126v-4h-18.19v-4H1126v-4.05h-18.19V272H1126v-4h-18.19v-4H1126v-4h-18.19v-4H1126v-4h-18.19v-4H1126v-4h-18.19V237.9H1126v-4h-18.19v-4H1126v-4h-18.19v-4.05H1126v-4h-18.19v-4H1126v-4h-18.19v-6.06H1126v-4h-18.19v-4H1126v-4h-18.19v-4H1126v-4h-18.19v-4H1126v-4h-18.19v-6.07h6.06v-11.6a22.39,22.39,0,0,1,24.26,0v11.6Z"/><path class="cls-6" d="M1160.35,307.23H1006.69v28.3h153.66Z"/><path class="cls-2" d="M1235.12,303.18h60.65v-7.72l-30.33-2.39-30.32,2.39Z"/><path class="cls-1" d="M1236.87,86.88h-5.79v28.3h10.11V91Z"/><path class="cls-1" d="M1241.19,116l-4.32-4.85-5.79,4.85v11.32h10.11Z"/><path class="cls-6" d="M1244,149.55l-10.91-7v-17.3h12.13Z"/><path class="cls-1" d="M1241.85,127.31l13.5-1.13-6.77-4.93-7.38,2.84Z"/><path class="cls-2" d="M1237.14,78.8h-6.06V95h6.06Z"/><path class="cls-2" d="M1241.19,82.84H1227V76.78h7Z"/><path class="cls-2" d="M1241.19,76.78h-8.09v6.06h8.09Z"/><path class="cls-1" d="M1233.1,86.88H1227V93h6.06Z"/><path class="cls-1" d="M1259.35,127.31l-14.45,8.6-3.74,8.68V188h18.19Z"/><path class="cls-6" d="M1273.24,119.23l-5.78,18.19,20.22-2.52Z"/><path class="cls-6" d="M1296.07,149.55,1263.42,155l13.84,35,24.57-26.15Z"/><path class="cls-1" d="M1279.78,228.37h-32.53l2.4-5.74-2.4-2.26v-89h36.39l-3.86,64.7Z"/><path class="cls-1" d="M1287.68,139.44h-16.17v14.15h16.17Z"/><path class="cls-1" d="M1247.25,99l11.1,10.12L1269.49,99Z"/><path class="cls-1" d="M1263.42,99l10.11,10.11L1283.64,99Z"/><path class="cls-1" d="M1279.59,163.7h4.05V196l-4.05,2.05Z"/><path class="cls-1" d="M1273.53,196h-4v32.35h4Z"/><path class="cls-1" d="M1275.55,196h8.09v32.84l-8.09,3.55Z"/><path class="cls-1" d="M1257.35,103.06h16.17V86.88Z"/><path class="cls-6" d="M1273.53,103.06h-16.18v26.27h16.17Z"/><path class="cls-1" d="M1259.35,105.08v10.39a5.66,5.66,0,0,0,.46,2.22,5.83,5.83,0,0,0,1.32,1.87,6.13,6.13,0,0,0,2,1.25,6.46,6.46,0,0,0,2.33.44,6.21,6.21,0,0,0,4.27-1.7,5.6,5.6,0,0,0,1.77-4.08V105.18Z"/><path class="cls-1" d="M1257.35,86.88v16.18h16.17Z"/><path class="cls-5" d="M1227,72.73h14.15V58.58Z"/><path class="cls-1" d="M1259.35,149.55h-18.16v18.19Z"/><path class="cls-1" d="M1259.35,188h-18.16v14.15Z"/><path class="cls-1" d="M1291.72,155.61h-16.17v16.18Z"/><path class="cls-1" d="M1283.64,196h-14.15v16.18Z"/><path class="cls-1" d="M1273.53,212.22h-16.18v16.17Z"/><path class="cls-1" d="M1255.35,163.7h-8.1v8.09Z"/><path class="cls-1" d="M1269.49,165.72h8.08l-1.1-10.11Z"/><path class="cls-1" d="M1255.35,220.3h-8.1v8.09Z"/><path class="cls-1" d="M1283.64,133.38h-36.39l13-6.07h23.44Z"/><path class="cls-1" d="M1283.64,147.53a10.11,10.11,0,1,0-10.11-10.11h0A10.11,10.11,0,0,0,1283.64,147.53Z"/><path class="cls-1" d="M1293.74,137.42a10.11,10.11,0,0,0-10.1-10.11v10.11Z"/><path class="cls-6" d="M1304.27,147.93,1286,166.25l3.56,3.55,18.3-18.33Z"/><path class="cls-1" d="M1294.43,137.91l-18.31,18.32,10.05,10L1304.48,148Z"/><path class="cls-1" d="M1283.64,228.39h-36.39v8.08h36.39Z"/><path class="cls-1" d="M1287.68,232.43h-46.49v8.09h46.49Z"/><path class="cls-1" d="M1241.19,127.31v16.17l18.16-16.17Z"/><path class="cls-1" d="M1241.79,115.69l-13.54,13.54,6.31,6.3L1248.09,122Z"/><path class="cls-2" d="M1287.68,252.65h-46.49v40.42h46.49Z"/><path class="cls-2" d="M1287.68,241.19l-23.26,1.35-23.23-1.35v-2.7h46.49Z"/><path class="cls-2" d="M1287.68,242.54h-46.49v4h46.49Z"/><path class="cls-2" d="M1295.77,246.58h-60.65v6.07h60.65Z"/><path class="cls-2" d="M1287.68,252.65h-46.49v2h46.49Z"/><path class="cls-2" d="M1287.68,281h-46.49v4h46.49Z"/><path class="cls-2" d="M1287.68,285h-46.49v2h46.49Z"/><path class="cls-2" d="M1255.35,258.71h-6.07v20.21h6.07Z"/><path class="cls-2" d="M1269.49,258.71h-8.09v20.21h8.09Z"/><path class="cls-2" d="M1281.62,258.71h-6.07v20.21h6.07Z"/><path class="cls-2" d="M1289.17,291.05l6.6,4.05h-60.65l6.62-4.05Z"/><path class="cls-2" d="M1305.87,301.16H1225v18.19h80.86Z"/><path class="cls-2" d="M1348.35,301.16h-42.48v18.19h42.48Z"/><path class="cls-2" d="M1358.43,317.33h-186v6.07h186Z"/><path class="cls-2" d="M1225,301.16h-44.47v18.19H1225Z"/><path class="cls-1" d="M1349.35,115.18l-11.11,24.27,11.11,24.25,11.12-24.25Z"/><path class="cls-2" d="M1360.45,137.42h-22.23v91h22.23Z"/><path class="cls-2" d="M1364.5,171.79h-34.37V329.46h34.37Z"/><path class="cls-2" d="M1334.17,171.79h-4v169.8h4Z"/><path class="cls-2" d="M1342.26,171.79h-4v169.8h4Z"/><path class="cls-2" d="M1350.35,171.79h-4v169.8h4Z"/><path class="cls-2" d="M1358.43,171.79h-2v169.8h2Z"/><path class="cls-2" d="M1366.52,171.79h-2v169.8h2Z"/><path class="cls-2" d="M1366.52,169.76h-36.39v4.05h36.39Z"/><path class="cls-6" d="M1241.25,134.39l10-8.87-2.15-4.27-16,14.15Z"/><path class="cls-1" d="M1880,329.26l-.62-48.57-11-.16h-2.92l-4-8.45.25-3.95c1.61-3.6-.33-4.23-.33-4.23s0-14.95-5.31-24.34c-6.57-11.47-12.47-13.82-12.47-13.82l-1.45-21.4s-1.5-5.09-3.91-6.79a10.13,10.13,0,0,0-4,8.1c-.2,5.59.21,20.48.21,20.48a48.59,48.59,0,0,0-8.6,9.34v-3.08c0-2-.29-4.3-1.09-4.95a16.55,16.55,0,0,1-2.93-4.11l-.8-7.57s1.36-6.08-.34-7.55-2.42-2.17-2.42-2.17l-.37-1.87c-1.23-6.33-4.59-21.73-9.34-28.27-8-11.12-18.06-19.34-20.56-25.15s-2.15-22.44-2.15-22.44-.14-13.41-5.49-17.78l-.16-8.94s-.68-.38-1.07-.56V202.15h4l.12,10.89h-4.14v19.23l11.2,7.39.15,13.53,18.78,12.37v4.9l-22.16-16.06V241.64l-8.15-5.75.1,43.85a7.41,7.41,0,0,1,1.78,1,10.2,10.2,0,0,1,3.51,6.58,7.47,7.47,0,0,1,.12.95l.31,30V321H1779v8.31l36.62.2,11.18-.12ZM1849.7,268c3.8,0,3.91,4,3.91,4v8.63h-7.72V272S1845.89,268.05,1849.7,268Zm-34.23-48.58a66.43,66.43,0,0,0-7.26-2.68l-.11-10.91a63.92,63.92,0,0,1,7.27,2.69Zm-14-15.24.12,10.88a80.9,80.9,0,0,0-9.17-1.42l-.11-10.91a85.51,85.51,0,0,1,9.16,1.43Zm-6.31,116.54v-6.16l-.22-20.27s0-5.79,4.68-7.25a6.84,6.84,0,0,1,2.24-.33,7.52,7.52,0,0,1,2.31.29c4.75,1.38,5,7.13,5,7.13l.12,13,.14,13.39Zm38.4-52.62c3.91,0,3.91,3.95,3.91,3.95v8.59h-7.82V272.1a4,4,0,0,1,1.16-2.77,3.89,3.89,0,0,1,2.75-1.14Zm-7.21,24.64v-5.93h.12l.27,33.72v-2.66Z"/><path class="cls-1" d="M1773.35,288.06a5,5,0,0,1,0-.95,10.34,10.34,0,0,1,3.59-6.59,7.87,7.87,0,0,1,1.82-1v-43.7l-8.15,5.63v12.78l-22.63,16v-4.9L1767.2,253l.16-13.53,11.46-7.38v-19h-4.21V202.16h4.11V101l-1.1.54-.16,9c-5.47,4.33-5.61,17.78-5.61,17.78s.34,16.61-2.2,22.44-12.78,14-21,25.14c-4.83,6.56-8.29,21.95-9.54,28.27-.36,1.82-.38,2-.38,2s-.76.73-2.48,2.18-.34,7.56-.34,7.56l-.82,7.54a17.08,17.08,0,0,1-3,4.11c-.82.68-1.08,3-1.12,5v3.1a48.46,48.46,0,0,0-8.79-9.36s.42-14.87.22-20.46a10.2,10.2,0,0,0-4.09-8.12c-2.45,1.7-4,6.79-4,6.79l-1.48,21.39s-6,2.38-12.72,13.83c-5.49,9.27-5.43,24.27-5.43,24.27s-2,.63-.36,4.22l.26,4-4.12,8.46h-2.79l-11.23.13-.64,48.59h54.25l11.42.12,37.43-.21V321H1773v-2.65Zm-62.91-7.48h-8v-8.64s.2-4.06,4-3.95,3.82,4.13,3.82,4.13Zm16.55.14h-8v-8.6s.16-4.07,4-3.95,3.83,4.11,3.83,4.11Zm3.54,11.94-.28,25.13v2.76l.28-33.81h.12Zm34.85-90.08-.12,10.88a87.56,87.56,0,0,0-9.37,1.42L1756,204a90.54,90.54,0,0,1,9.39-1.42Zm-16.16,3.1-.12,10.9a67.48,67.48,0,0,0-7.41,2.67l.12-10.91a65.18,65.18,0,0,1,7.41-2.62Zm13.3,108.77v6.16l-14.5-.16.14-13.39.14-13s.22-5.75,5.08-7.13a8.52,8.52,0,0,1,2.35-.3,7.9,7.9,0,0,1,2.32.34c4.81,1.46,4.75,7.24,4.75,7.24Z"/><path class="cls-1" d="M1930.85,119.08c-.18.81.28,2-1.4,1.12s-4.17,2.45-5.59,1.15a4.41,4.41,0,0,0-2.17-.88,4.22,4.22,0,0,0-2.29.38,5.7,5.7,0,0,0-1.7,2.3,15.14,15.14,0,0,0,2.15,4.56,5.29,5.29,0,0,0,2.63,1.15s2-2.77,3.84-2.3,2.3,4.07,1.55,4.9a3.24,3.24,0,0,0,0,3.58c.6,1.13-.17,5.21-.32,7.19s-3.38,5.69-2.78,7.29,2.15,3.6,2.63,4.72a14.59,14.59,0,0,1-.63,7.35c-.75,1.29-2.91,3.6-4,3.6s-2.63-3.6-2.16-4.43-2.46,1.78-2.46,3.1a9.75,9.75,0,0,1-.8,3.14s-.76.15-1.69,1.79a6.8,6.8,0,0,0,0,5.52,6.17,6.17,0,0,1,0,2.67,5.64,5.64,0,0,1-1.12,2.4c-.91,1.31-2.14,0-3.37,1.78s-2.62,4.39-3.85,4.88-1.08,4.58-.46,6.18,2.61,5.7,2.14,6.84a4.55,4.55,0,0,0,1,3.6,11.16,11.16,0,0,1,1.3,3.34,26.33,26.33,0,0,0,1.87,3.76v38.46s-4,5.38-3.84,6.82.31,5.93-1.24,6.7a18.2,18.2,0,0,0-5.82,7.66,39.13,39.13,0,0,0,0,5.93c-.16,2-.63,3.95.17,5.06s2.91,3.75,2.28,3.95-2.59.83-2.76,1.6a90.41,90.41,0,0,0-2,10.45c.15,1.32-1.08,4.07-1.08,5.37a43.34,43.34,0,0,0-.17,4.41c.15,1.78-.79,5.51-.64,6a7.52,7.52,0,0,1,.23,1.83v15.47h34.18V115.18C1930.85,115.28,1931,118.27,1930.85,119.08Z"/><path class="cls-1" d="M1970.94,313.67s-1.19-9.27-1.45-11.86a34.22,34.22,0,0,0-.74-6.13,10.15,10.15,0,0,0-1.22-2.47,31.62,31.62,0,0,0-1.23-7.1,23.87,23.87,0,0,0-5.18-2.88,40.83,40.83,0,0,0,4.7-8.09c.5-2.19-.24-7.81-2-8.77s-3.41-1.23-3.41-3.21-.26-3.18-1.5-3.63a28.92,28.92,0,0,1-3.7-2.73,19.53,19.53,0,0,1-2.46-2.91V211s2.46-3.66,2.2-5.4a19.23,19.23,0,0,1,0-5.14c.24-.71,3.44-7.91,3.21-9s4.2,1,4.2,1,.5-3.44-.74-4.39-6.41-4-4.22-4.9a8,8,0,0,1,5.46.47s0-3.14-2.23-3.95-1.24-3.7-3.73-4.41-5.44,1-7.65.25-2.71-2.68-4.41-4.66a35.52,35.52,0,0,0-3.7-3.66s6-3.26,5.66-6-4-7-4.93-10.91-.34-8.16-1.47-9.88a24.21,24.21,0,0,0-2.63-3.26l.15-3.26s4.45,2.45,6,3.08,2.79,4.09,3.29,3.75a5.85,5.85,0,0,0,.11-2.53,6,6,0,0,0-.94-2.37c-1-.81-4.43-2.59-6-4a7.3,7.3,0,0,1-2.32-4.71,4.85,4.85,0,0,0-.27-2,5,5,0,0,0-1-1.76,15,15,0,0,1-2.29-1.42c-.74-.68,1-2.53,1-3.84a2.59,2.59,0,0,0-.16-1.1,2.72,2.72,0,0,0-2.65-1.76h-.1V329.46H1971Z"/><path class="cls-1" d="M1528.24,156.59l-2.22-1-6,18-12,3.6.6,2.66,13-3.85v-.4l.31.13Z"/><path class="cls-1" d="M1604.41,259.69l-.66,2.11h-1.7v2.92h-2.61v-7.59h-1.16v-4.07h-.48l-.42-3-.58-3.91-.58,3.91-.44,3h-.6v4.07h-1.12v7.59h-3.81V261.8h-1.68l-.64-2.11-.7-2.27-.69,2.27-.64,2.11h-1.68v2.92h-2.6v-7.24h-1.13v-4.23h-.72l-.46-3.07-.58-3.91-.58,3.91-.44,3.07h-.58v4.23H1576v7.18h-3.83v-2.91h-1.68l-.66-2.12-.68-2.27-.68,2.27-.64,2.12h-1.69v2.91h-2.56v-7.59h-1.14V253h-.58l-.45-3-.58-3.91-.58,3.91-.44,3h-.58v4.07h-1.14v7.59h-3.87v-2.91h-1.68l-.64-2.12-.7-2.27-.68,2.27-.64,2.12h-.62l-.18-60.68h2.6V141.4h-2.6V129.93h-.53l-12.7-21.53h-.14V87.2h-.14L1518.94,51V40.39h-.34V51.1L1502,87.2h-.14v21.69L1488.89,130h-.54v11.47h-2.6V201.3h2.6V323.4h116.7V257.64Zm-84.63-67.8h-1.12c-10.38-.64-18.63-10.21-18.63-22s8.25-21.32,18.63-22h1.12c10.88,0,19.73,9.78,19.73,22S1530.66,191.89,1519.78,191.89Z"/><path class="cls-1" d="M1751.67,250.52V240.08h-.25a5.92,5.92,0,0,0-1.53-2.46,6.06,6.06,0,0,0-2.53-1.45l-.81-3.17-1.2-4.77-1.23,4.77-.81,3.22a6,6,0,0,0-4,3.4h-.69V222.16h-2v-9.78h-1.27l-.87-4.22-1.62-8.07-1.64,8.07-.85,4.22H1729v9.78h-2v17.41h-4.1v8.33l-4.9,3v13.41h-3.22v-2.93h-1.7l-.63-2.15-.69-2.31-.68,2.31-.65,2.15h-1.68v2.93H1706v-7.66h-1.13v-4.11h-.59l-.44-3-.59-3.91-.6,3.91-.41,3h-.59v4.11h-.95v7.66h-3.56v-2.93h-1.7l-.65-2.15-.67-2.31-.7,2.31-.63,2.15H1691v2.93h-2.69v-8.09h-1.12v-3.91h-.59l-.44-2.85-.57-3.76-.58,3.76-.45,2.85H1684v3.91H1683v8.09h-3.64v-2.93h-1.68l-.65-2.15-.67-2.31-.69,2.31-.64,2.15h-1.7v2.93h-2.74v-8.09h-1.2v-3.91h-.59l-.44-2.85-.57-3.76-.59,3.76-.44,2.85h-.57v3.91H1665v8.09h-3.65v-2.93h-1.69l-.63-2.15-.68-2.23-.67,2.31-.65,2.15h-1.8v2.93h-2.68v-7.66h-1.15v-4.11h-.59l-.44-3-.57-3.91-.12.75v.89l-.43,3-.44,3h-.57v4.06h-1.13V265h-3.65V262h-1.66l-.64-2.11-.69-2.26-.67,2.26-.63,2.11h-1.66v2.92h-2.65V257.1h-1.13v-3.9h-.59l-.44-2.89-.57-3.78-.55,3.78-.46,2.89h-.57v3.91h-1v7.82h-3.67V262h-1.66l-.64-2.11-.67-2.26-.69,2.26-.63,2.11h-1.68v2.92h-2.61v-7.25h-1.13v-4.23h-.57l-.44-3.06-.57-3.91-.57,3.91-.44,3.06H1613v4.23h-1.24v7.17H1608v-2.91h-1.69l-.64-2.11-.69-2.27V323.4h147V264.5l.53-.26V252.32Z"/><path class="cls-1" d="M1418.35,257.79s7.58-28.1,8-35.47h9V0H1435V12.72a1.18,1.18,0,0,0-.55.41,1.19,1.19,0,0,0-.23.65V25.56h-.89a2,2,0,0,0-2.11,1.82,1.75,1.75,0,0,0,.24.89h-1a2.82,2.82,0,0,0-2,.68,2.76,2.76,0,0,0-.94,1.89v1.8a2.45,2.45,0,0,0,.31,1.18,2.72,2.72,0,0,0-1.39.91,2.59,2.59,0,0,0-.59,1.55s1.33,10.38,3,10.38h.4c.39,57.18-11.21,133.19-14.23,152.07h-2.4a2.85,2.85,0,0,0-1.08.14,3,3,0,0,0-.94.54,2.76,2.76,0,0,0-.94,1.89s1.31,5,3,5h1c-3.1,16-9.93,34-17.7,51h-7.08v14.77a583.16,583.16,0,0,1-30.41,53.37h32.34c.56-22.24,20.21-40.11,44.46-40.22v-27.5Z"/><path class="cls-7" d="M1609.82,306.38l.53-4.38a1.86,1.86,0,0,0,.27-.79,2,2,0,0,0-1.21-2l-.59-3.79-5.26-.57c-2.45-4.55-4.91-20.07-4.91-20.07l.16-2.09a7,7,0,0,1,1.68-4l-3.38-1.53-.48-2.64-6.29-2L1585.2,244l.94-1.52-.62-2,1.22-3.42L1584,236l-.46-4-3.23-1.32c-.78-5.12-7.85-22.73-7.85-22.73l-1.54-2.45.92-3.42c-19.83-8-44.85-8.74-63.72-7.67v42c2.54,0,4.61,2.59,4.61,5.79v9.45a6.06,6.06,0,0,1-.24,1.8c-1.49,0-3,.12-4.45.18v13.83a7.08,7.08,0,0,1,2.38,5.5v10.85a7.63,7.63,0,0,1-1.1,4H1508v41.74h105.12C1611.84,322.84,1609.82,306.38,1609.82,306.38ZM1563.12,245a4.44,4.44,0,0,1,0-1.92,4.28,4.28,0,0,1,.85-1.72,4.52,4.52,0,0,1,1.52-1.19,4.46,4.46,0,0,1,3.78,0,4.39,4.39,0,0,1,1.51,1.19,4.18,4.18,0,0,1,.86,3.64v12.57c-2.81-.55-5.67-1-8.54-1.48Zm-13.46-32.32h4.15v6.43h-4.15Zm-.4,30.11a4.24,4.24,0,0,1,.06-1.94,4.34,4.34,0,0,1,.88-1.72,4.53,4.53,0,0,1,5.36-1.18,4.4,4.4,0,0,1,2.42,2.9,4.24,4.24,0,0,1,.06,1.94v12.6c-2.91-.37-5.83-.67-8.78-.94Zm-28.54-32.38h4.15v6.44h-4.15Zm2,111.14h-10.84v-12.2c0-4.86,2.41-8.83,5.41-8.83s5.43,4,5.43,8.83Zm4-37a7.47,7.47,0,0,1-.7,3.22h-9.5a7.91,7.91,0,0,1-.66-3.18V273.67c0-3.68,2.44-6.64,5.43-6.64s5.43,3,5.43,6.64Zm1.38-31.41v.24h-9.68V241.45a4.78,4.78,0,0,1,1-4.16,5,5,0,0,1,3.85-1.82,5.13,5.13,0,0,1,4.76,3.82,4.64,4.64,0,0,1,0,2.16Zm11.78,68.45H1529V310.21c0-4.43,2.43-8,5.43-8s5.43,3.57,5.43,8Zm2.76-36.47a7.71,7.71,0,0,1-.58,3c-3.26,0-6.51-.2-9.77-.26a7.83,7.83,0,0,1-.5-2.75V274.2c0-3.67,2.44-6.64,5.44-6.64s5.41,3,5.41,6.64Zm1.16-32.65a6.79,6.79,0,0,1-.18,1.56q-4.5-.28-9-.47a6.61,6.61,0,0,1,0-1.09V243c0-3.2,2-5.79,4.61-5.79s4.62,2.59,4.62,5.79Zm12.46,69.18H1545.4v-11.4c0-4.88,2.44-8.83,5.43-8.83s5.42,3.95,5.42,8.83ZM1558.8,286a7.78,7.78,0,0,1-.5,2.83c-3.23-.18-6.51-.34-9.78-.46a8.65,8.65,0,0,1-.34-2.37V275.17c0-3.68,2.38-6.66,5.31-6.66s5.31,3,5.31,6.66Zm12.92,35.58h-10.84V309.72c0-4.88,2.42-8.84,5.41-8.84s5.43,4,5.43,8.84Zm1.86-34.47a8.16,8.16,0,0,1-.46,2.68c-3.27-.27-6.59-.51-10-.71a7.93,7.93,0,0,1-.24-2V276.26c0-3.68,2.37-6.64,5.31-6.64s5.31,3,5.31,6.64Zm1.6-39.39c0-3,1.88-5.38,4.17-5.38s4.15,2.41,4.15,5.38v12.61c-2.73-.76-5.51-1.41-8.32-2Zm.76,73.86-.68-10c-.32-4.67,1.32-8.62,3.65-8.86s4.49,3.32,4.81,7.91l.76,10.87Zm9.41-30.58c-2.87-.33-5.83-.63-8.8-.89a9.43,9.43,0,0,1-.14-1.19l-.6-10.81c-.2-3.67,1.69-6.81,4.25-7s4.77,2.59,5,6.26l.6,10.81a9.74,9.74,0,0,1-.34,2.79Zm2.82,30.6-.66-9.89c-.32-4.56,1-8.42,2.87-8.61s3.68,3.34,4,7.9l.72,10.6Zm6.91-29.35c-2.24-.34-4.54-.64-6.85-.91a1.71,1.71,0,0,1,0-.32l-.56-10.18c-.2-3.46,1.2-6.38,3.11-6.54s3.62,2.51,3.82,5.93l.54,10.18a10.58,10.58,0,0,1-.12,1.78Zm2.11,29.35-.84-9.2c-.41-4.56.78-8.45,2.68-8.71s3.76,3.22,4.17,7.77l.92,10.12Z"/><path class="cls-7" d="M1500.94,288.29a7.66,7.66,0,0,1-1.13-4.06V273.51c0-3.61,2.37-6.56,5.27-6.56a4.48,4.48,0,0,1,2.94,1.13V254.42l-4.08.13a6.42,6.42,0,0,1-.31-2.09v-9.27a5.28,5.28,0,0,1,4.39-5.75V196a226.58,226.58,0,0,0-27.1,3.09l.15,2.61-1,.94-.31,3.18-3.59.57L1465,209.18l-4.19-4.66c-57.3,22.07-47.52,43.77-47.52,43.77l-1.28,9.15a13.4,13.4,0,0,0-2.59,5.7,13.57,13.57,0,0,0,.28,6.27l-1.33,9.08c-5.15,3.28-2.46,9.52-2.46,9.52l-2.61,14.51c-2.4,1.31-.39,3.9-.39,3.9l-1.94,23H1508V288.29Zm-8.45-75.87h4v6.37h-4Zm-3,30.79c0-3.16,1.94-5.72,4.49-5.72s4.48,2.56,4.48,5.72v9.33a6.79,6.79,0,0,1-.43,2.4c-2.69.18-5.3.36-7.88.57a7.37,7.37,0,0,1-.66-3Zm-14.32,1.41c0-3.17,1.93-5.72,4.47-5.72s4.49,2.55,4.49,5.72v9.31a7,7,0,0,1-.33,2.13q-4.12.38-8,.82a6.82,6.82,0,0,1-.64-2.95Zm-8.64-26.77,3.87-.37v6.38l-3.87.38Zm-3.87,29.28c0-3.16,1.94-5.72,4.47-5.72s4.47,2.56,4.47,5.72v9.34a6.61,6.61,0,0,1,0,.89c-3,.38-5.92.75-8.59,1.12a7.92,7.92,0,0,1-.29-2Zm-.72,21.26a6.07,6.07,0,0,1,3.78,2.47,6.17,6.17,0,0,1,1.06,4.41l-.67,10.4a6.94,6.94,0,0,1-1.22,3.63l-7.75.35a7.25,7.25,0,0,1-1.49-5l.66-10.41c.19-3.55,2.77-6.19,5.61-5.9Zm-11-20.61c.23-3.14,2.42-5.47,4.88-5.19a5.44,5.44,0,0,1,4,6.18l-.66,9.3a5.59,5.59,0,0,1-.13,1c-3.12.47-5.81.92-8.23,1.31a7.09,7.09,0,0,1-.56-3.28Zm-29-5-1.41.94.65-5.33,1.36-.84Zm10.67-6.91-1.57.45.29-5.23,1.72-.94Zm13.88-12,3-1.23-.76,6.37-2.82.86Zm13.55,85.9-1,11.91h-10.59a2,2,0,0,1,0-.35l1-12.63c.35-4.3,3-7.52,5.8-7.23s5.08,3.91,4.73,8.22Zm14.27,11.87h-10.57V309.53c0-4.12,2.35-7.46,5.25-7.46s5.27,3.34,5.27,7.46Zm-3.39-32.54a7.77,7.77,0,0,1-1.08-3.91V274.54c0-3.63,2.36-6.56,5.24-6.56s5.27,2.93,5.27,6.56v10.72a7.56,7.56,0,0,1-1,3.74Zm19.43,32.65h-10.5V308.59c0-4.8,2.37-8.72,5.27-8.72s5.25,3.9,5.25,8.72Zm4.7-37.42a7.51,7.51,0,0,1-1.2,4.17c-2.71,0-5.36.1-8,.18a7.57,7.57,0,0,1-1.31-4.35V273.61c0-3.61,2.34-6.56,5.26-6.56s5.25,2.95,5.25,6.56Zm.89,37.42V308.2c0-4.82,2.36-8.73,5.27-8.73s5.26,3.91,5.26,8.73v13.43Z"/><path class="cls-8" d="M1742.13,108.62l-11.46-1.8c0-1.12-.49-2.08-1.29-2.24l4.34-31.91a1.4,1.4,0,0,0,.5-.78l1.1.18v-.28a2.76,2.76,0,0,0-.39-2,1.27,1.27,0,0,0-.39-.41,1.42,1.42,0,0,0-.53-.2l-1-.16,1-7.37,1.22.2a2.78,2.78,0,0,0,2.78-1.43,2.52,2.52,0,0,0,.3-1,3.63,3.63,0,0,0,0-1.14l-36.84-5.77L1693.92,109a5.18,5.18,0,0,1,2.66,1.5,4.87,4.87,0,0,1,1.28,2.7h-.12c-.78-.12-1.53.67-1.68,1.75v.3l1.21.17a1,1,0,0,0,.08.38,1.16,1.16,0,0,0,.22.31l-2,14.5h-.22c-.71-.12-1.41.53-1.63,1.47l-2.86-.45-1.1,8.07a4.85,4.85,0,0,1,2.46,1.43,4.5,4.5,0,0,1,1.21,2.5c-.73,0-1.38.75-1.53,1.77v.27l1.21.2a1,1,0,0,0,.3.69l-2,14.5h-.18a1.78,1.78,0,0,0-1.63,1.51l-2.84-.45-1.07,8.09a4.93,4.93,0,0,1,2.44,1.43,4.56,4.56,0,0,1,1.18,2.5c-.73,0-1.38.75-1.52,1.77v.27l1.2.2a1.06,1.06,0,0,0,.3.69l-2,14.5h-.18a1.81,1.81,0,0,0-1.65,1.65l-2.79-.43-1.1,8.11a4.9,4.9,0,0,1,2.43,1.43,4.54,4.54,0,0,1,1.17,2.5c-.71,0-1.38.74-1.52,1.77v.27l1.2.2a1,1,0,0,0,.3.66l-2,14.52H1683c-.73-.11-1.43.53-1.65,1.51l-2.75-.43-1.1,8.1a4.9,4.9,0,0,1,2.4,1.44,4.58,4.58,0,0,1,1.17,2.49c-.74,0-1.39.74-1.53,1.78v.28l1.22.2a1,1,0,0,0,.29.66l-2,14.5h-.19c-.71-.12-1.39.51-1.61,1.47l-2.75-.43-1.23,8.18a4.69,4.69,0,0,1,2.39,1.44,4.54,4.54,0,0,1,1.14,2.48,1.25,1.25,0,0,0-.76.3,2.23,2.23,0,0,0-.78,1.47V268l1.23.19a1,1,0,0,0,.28.67l-2,14.52h-.19a1.78,1.78,0,0,0-1.63,1.51l-2.71-.43-.45,3.3,46.9,7.37a1.57,1.57,0,0,0,.61,0,1.44,1.44,0,0,0,.53-.29,1.68,1.68,0,0,0,.54-.84,1.85,1.85,0,0,0-.46-1.75,1.74,1.74,0,0,0-.82-.47h-.39a1.9,1.9,0,0,0-1.16-2h-.17l2-14.49a.89.89,0,0,0,.3-.24.87.87,0,0,0,.17-.33l1.2.19v-.27c.15-1.1-.36-2.08-1.14-2.2a5.91,5.91,0,0,1,1.23-2l.79-5.77.86.13a1.26,1.26,0,0,0,.61,0,1.29,1.29,0,0,0,.53-.28,1.65,1.65,0,0,0,.61-1.1,1,1,0,0,0,0-.24,1.62,1.62,0,0,0-.3-1,1.42,1.42,0,0,0-.44-.44,1.44,1.44,0,0,0-.58-.21h-.39a1.74,1.74,0,0,0-.21-1.18,1.79,1.79,0,0,0-.95-.78h-.19l2-14.5a.84.84,0,0,0,.3-.22.87.87,0,0,0,.17-.33l1.2.18v-.28a2.33,2.33,0,0,0-.32-1.65,1.29,1.29,0,0,0-.34-.36,1.44,1.44,0,0,0-.46-.19,5.45,5.45,0,0,1,1.23-2l.79-5.78.86.14a1.57,1.57,0,0,0,.61,0,1.44,1.44,0,0,0,.53-.29,1.63,1.63,0,0,0,.61-1.09,1,1,0,0,0,0-.24,1.79,1.79,0,0,0-.31-1,1.46,1.46,0,0,0-1-.65h-.39a2.37,2.37,0,0,0-.37-1.42,1.17,1.17,0,0,0-.81-.55h-.17l2-14.49a.89.89,0,0,0,.3-.24.87.87,0,0,0,.17-.33l1.2.19v-.27a2.23,2.23,0,0,0-.32-1.65,1,1,0,0,0-.35-.36,1.14,1.14,0,0,0-.47-.19,5.45,5.45,0,0,1,1.23-2l.77-5.77.88.14a1.52,1.52,0,0,0,.6-.05,1.38,1.38,0,0,0,.54-.27,1.77,1.77,0,0,0,.61-1.1v-.24a1.64,1.64,0,0,0-.33-1,1.6,1.6,0,0,0-.42-.44,1.67,1.67,0,0,0-.57-.23H1729a1.79,1.79,0,0,0-1.16-2.08h-.17l2-14.5a1.14,1.14,0,0,0,.3-.23.77.77,0,0,0,.36-.23l1.2.2V184a2.38,2.38,0,0,0-.32-1.65.93.93,0,0,0-.35-.36,1.14,1.14,0,0,0-.47-.19,5.56,5.56,0,0,1,1.22-2l.72-5.8.88.13a1.22,1.22,0,0,0,.6,0,1.55,1.55,0,0,0,.54-.28,1.65,1.65,0,0,0,.61-1.1,1.43,1.43,0,0,0,0-.65,1.65,1.65,0,0,0-.24-.6,1.77,1.77,0,0,0-1.09-.72h-.3a1.91,1.91,0,0,0-1.16-2H1732l2-14.5a1.09,1.09,0,0,0,.29-.23.92.92,0,0,0,.18-.32l1.2.18v-.28a1.81,1.81,0,0,0-1.14-2.2,5.56,5.56,0,0,1,1.22-2l.78-5.78.88.14a1.52,1.52,0,0,0,.6,0,1.73,1.73,0,0,0,.54-.28,1.61,1.61,0,0,0,.59-1.11.89.89,0,0,0,0-.23,1.88,1.88,0,0,0-.29-1,1.62,1.62,0,0,0-1-.63h-.38a2.24,2.24,0,0,0-.35-1.36,1.2,1.2,0,0,0-.35-.36,1.29,1.29,0,0,0-.47-.19h-.18l2-14.5a.84.84,0,0,0,.3-.22.87.87,0,0,0,.17-.33l1.2.18v-.27a2.4,2.4,0,0,0-.34-1.65,1.27,1.27,0,0,0-.8-.55h-.32a6,6,0,0,1,1.33-2.2l.77-5.68,1.11.18a1.57,1.57,0,0,0,.61,0,1.44,1.44,0,0,0,.55-.28,1.65,1.65,0,0,0,.59-1.08,1.13,1.13,0,0,0,0-.26,1.74,1.74,0,0,0,1-.88,1.68,1.68,0,0,0,.1-1.35,1.77,1.77,0,0,0-.92-1A1.88,1.88,0,0,0,1742.13,108.62ZM1726,114.05a4.34,4.34,0,0,1,2.33,1.53,4.13,4.13,0,0,1,.89,2.57h-.14a1.4,1.4,0,0,0-.5,0,1.2,1.2,0,0,0-.42.25,2.11,2.11,0,0,0-.75,1.47v.28l1.2.19a1,1,0,0,0,.28.69l-2,14.5h-.18a1.23,1.23,0,0,0-.92.27,2.27,2.27,0,0,0-.71,1.22l-4.38-.69a2.24,2.24,0,0,0-.37-1.33,1.17,1.17,0,0,0-.35-.35,1.28,1.28,0,0,0-.47-.18h-.18l2-14.5a.7.7,0,0,0,.28-.23.76.76,0,0,0,.17-.32l1.22.18v-.28a2.35,2.35,0,0,0-.35-1.65,1,1,0,0,0-.33-.35,1.23,1.23,0,0,0-.46-.18h-.23a3.93,3.93,0,0,1,1.55-2.21,4.16,4.16,0,0,1,2.66-.75Zm-1.57,36.69a1,1,0,0,0,.08.37.84.84,0,0,0,.22.3l-2,14.52h-.19c-.71-.1-1.41.55-1.63,1.51l-4.38-.68c0-1-.45-1.85-1.17-2h-.18l2-14.5a1,1,0,0,0,.47-.55l1.2.2v-.3a1.89,1.89,0,0,0-1.08-2.18,3.73,3.73,0,0,1,1.44-2,3.92,3.92,0,0,1,2.43-.71h.15a4.21,4.21,0,0,1,2.15,1.43,4,4,0,0,1,.85,2.38,1.84,1.84,0,0,0-1.57,1.77v.28Zm-4.1,30.42a.94.94,0,0,0,.31.66l-2,14.5h-.31c-.75-.12-1.47.63-1.65,1.65l-4.36-.69a1.79,1.79,0,0,0-1.16-2.08H1711l2-14.5a.66.66,0,0,0,.29-.23.92.92,0,0,0,.18-.32l1.2.18v-.27a2.31,2.31,0,0,0-.34-1.66,1.16,1.16,0,0,0-.76-.53,3.8,3.8,0,0,1,1.45-2,4,4,0,0,1,2.44-.72h.15a4.25,4.25,0,0,1,2.18,1.49,3.93,3.93,0,0,1,.82,2.44,1.09,1.09,0,0,0-.44.06,1.11,1.11,0,0,0-.38.22,2.26,2.26,0,0,0-.75,1.47v.28Zm-4.08,30.56a1.07,1.07,0,0,0,.31.67l-2,14.5h-.23a1.35,1.35,0,0,0-.49,0,1.18,1.18,0,0,0-.42.24,2.41,2.41,0,0,0-.72,1.24l-4.38-.69a1.9,1.9,0,0,0-1.16-2H1707l2-14.5a.89.89,0,0,0,.3-.24.87.87,0,0,0,.17-.33l1.2.2v-.28a2.41,2.41,0,0,0-.31-1.53,1.22,1.22,0,0,0-.76-.53,3.73,3.73,0,0,1,1.44-2,3.93,3.93,0,0,1,2.44-.71h.14a4,4,0,0,1,2.17,1.42,3.83,3.83,0,0,1,.83,2.39,1.38,1.38,0,0,0-.82.28,2.38,2.38,0,0,0-.75,1.49v.28Zm-4.08,30.41a1,1,0,0,0,.31.69l-2,14.5h-.15a1.29,1.29,0,0,0-.48,0,1.18,1.18,0,0,0-.42.24,2.12,2.12,0,0,0-.71,1.19l-4.41-.68a1.7,1.7,0,0,0-1.16-2H1703l2-14.5a.84.84,0,0,0,.3-.22.87.87,0,0,0,.17-.33l1.21.18V241a2.36,2.36,0,0,0-.35-1.66,1.08,1.08,0,0,0-.31-.33,1.25,1.25,0,0,0-.42-.2,3.72,3.72,0,0,1,1.43-2,4.08,4.08,0,0,1,2.44-.71h.14a4.3,4.3,0,0,1,2.19,1.48,3.94,3.94,0,0,1,.81,2.45,1.09,1.09,0,0,0-.44.06,1.07,1.07,0,0,0-.37.22,2.32,2.32,0,0,0-.76,1.47V242Zm-16.84-4.53a1.27,1.27,0,0,0-.67-.51,4.36,4.36,0,0,1,1.92-2.08,4.65,4.65,0,0,1,2.83-.52h.16a4.86,4.86,0,0,1,2.58,1.37,4.56,4.56,0,0,1,1.27,2.56,1.84,1.84,0,0,0-1.54,1.77v.27l1.2.2a1,1,0,0,0,.28.67l-2,14.5h-.16c-.71-.12-1.4.53-1.63,1.47l-6.24-1a2.25,2.25,0,0,0-.37-1.38,1.19,1.19,0,0,0-.33-.34,1,1,0,0,0-.46-.19H1692l2-14.5a.8.8,0,0,0,.29-.22.84.84,0,0,0,.16-.33l1.23.18v-.27a2.41,2.41,0,0,0-.53-1.67Zm4-30.43a1.22,1.22,0,0,0-.68-.5,4.5,4.5,0,0,1,1.92-2.08,4.68,4.68,0,0,1,2.84-.53h.16a4.86,4.86,0,0,1,2.58,1.37,4.56,4.56,0,0,1,1.27,2.56c-.73,0-1.4.75-1.55,1.77v.29l1.23.18a1,1,0,0,0,.28.69l-2,14.5h-.16a1,1,0,0,0-.49,0,1.26,1.26,0,0,0-.43.22,2.32,2.32,0,0,0-.73,1.24l-6.12-1a2.29,2.29,0,0,0-.36-1.42,1,1,0,0,0-.34-.35,1.06,1.06,0,0,0-.46-.2H1696l2-14.5a1,1,0,0,0,.45-.57l1.22.2v-.27a2.4,2.4,0,0,0-.42-1.58Zm4.08-30.55a1.14,1.14,0,0,0-.68-.51,4.34,4.34,0,0,1,1.91-2.08,4.69,4.69,0,0,1,2.82-.54h.19a4.88,4.88,0,0,1,2.57,1.38,4.54,4.54,0,0,1,1.28,2.55,1.83,1.83,0,0,0-1.55,1.77v.28l1.23.19a.94.94,0,0,0,.07.37.9.9,0,0,0,.21.3l-2,14.5h-.13a1.29,1.29,0,0,0-.48,0,1.13,1.13,0,0,0-.42.22,2.26,2.26,0,0,0-.75,1.4l-6.12-1c0-1-.39-2-1.14-2.11h-.35l2-14.49a1.37,1.37,0,0,0,.29-.24.84.84,0,0,0,.16-.33l1.22.19v-.27a2.15,2.15,0,0,0-.35-1.63Zm4.07-30.41a1.14,1.14,0,0,0-.67-.51,4.34,4.34,0,0,1,1.91-2.08,4.69,4.69,0,0,1,2.82-.54h.19a4.88,4.88,0,0,1,2.57,1.38,4.54,4.54,0,0,1,1.28,2.55,1.14,1.14,0,0,0-.78.28,2.26,2.26,0,0,0-.77,1.49v.27l1.22.18a.94.94,0,0,0,.07.37,1,1,0,0,0,.22.32l-2,14.5h-.21a1,1,0,0,0-.49,0,1.14,1.14,0,0,0-.41.24,2,2,0,0,0-.71,1.22l-6.25-1a1.89,1.89,0,0,0-1.16-2h-.18l2-14.49a1.06,1.06,0,0,0,.45-.55l1.2.17v-.27a2.21,2.21,0,0,0-.26-1.53Zm3.33-30.94h-.12a4.64,4.64,0,0,1,2-2.24,4.91,4.91,0,0,1,3-.59h.17a5.15,5.15,0,0,1,2.75,1.49,4.8,4.8,0,0,1,1.32,2.77h-.12c-.77-.14-1.53.65-1.67,1.75v.27l1.2.2a.9.9,0,0,0,.08.36,1.19,1.19,0,0,0,.23.31l-2,14.5h-.19c-.71-.12-1.38.53-1.63,1.47l-6.24-1a2.41,2.41,0,0,0-.34-1.38,1.17,1.17,0,0,0-.35-.35,1.28,1.28,0,0,0-.47-.18h-.1l2-14.5a.89.89,0,0,0,.29-.22,1.06,1.06,0,0,0,.18-.33l1.2.2v-.29c.13-1.15-.36-2.11-1.15-2.24Zm-1.06-30.06a6.8,6.8,0,0,1,.78-2.68,7.06,7.06,0,0,1,1.81-2.18,7.52,7.52,0,0,1,5.42-1.57,7,7,0,0,1,2.65,1,6.81,6.81,0,0,1,2,2,7.9,7.9,0,0,1,1.32,5.64l-2.4,17.94-14-2.2Zm-10.67,31.15a.66.66,0,0,0,.29-.23.74.74,0,0,0,.16-.32l1.2.2v-.29a1.86,1.86,0,0,0-1.12-2.2,4.73,4.73,0,0,1,2-2.26,4.84,4.84,0,0,1,3-.57h.16a5.18,5.18,0,0,1,2.76,1.49,4.86,4.86,0,0,1,1.32,2.77c-.77-.12-1.53.67-1.69,1.77V117l1.22.2a1,1,0,0,0,.29.67l-2,14.5h-.16a1.06,1.06,0,0,0-.5,0,1.18,1.18,0,0,0-.42.24,2.14,2.14,0,0,0-.72,1.2l-6.36-1a2.48,2.48,0,0,0-.36-1.38,1.17,1.17,0,0,0-.35-.35,1.28,1.28,0,0,0-.47-.18h-.16Zm-4.07,30.4a.92.92,0,0,0,.28-.24.84.84,0,0,0,.16-.33l1.23.19v-.27a2.28,2.28,0,0,0-.33-1.67,1.31,1.31,0,0,0-.57-.47,4.44,4.44,0,0,1,1.9-2.09,4.66,4.66,0,0,1,2.83-.53h.16a4.87,4.87,0,0,1,2.58,1.38,4.54,4.54,0,0,1,1.28,2.55c-.72,0-1.37.77-1.51,1.77v.3l1.2.17a.94.94,0,0,0,.29.69l-2,14.5h-.18c-.73-.14-1.4.53-1.63,1.49l-6.36-1a1.9,1.9,0,0,0-1.16-2H1693ZM1691,177.17a1,1,0,0,0,.29-.24,1.06,1.06,0,0,0,.18-.33l1.2.2v-.28a1.8,1.8,0,0,0-.1-1.21,2,2,0,0,0-.82-.93,4.41,4.41,0,0,1,1.9-2.08,4.57,4.57,0,0,1,2.83-.53h.16a4.86,4.86,0,0,1,2.58,1.37,4.54,4.54,0,0,1,1.28,2.55c-.71,0-1.37.75-1.51,1.75v.36l1.2.19a1.05,1.05,0,0,0,.29.67l-2,14.5h-.18c-.76-.12-1.49.61-1.68,1.65l-6.34-1a1.76,1.76,0,0,0-1.14-2.1h-.18Zm-4.08,30.57a1,1,0,0,0,.47-.57l1.2.19v-.29a1.87,1.87,0,0,0-.1-1.21,2,2,0,0,0-.82-.91,4.44,4.44,0,0,1,1.9-2.09,4.66,4.66,0,0,1,2.83-.53h.19a4.78,4.78,0,0,1,2.56,1.38,4.53,4.53,0,0,1,1.27,2.55c-.69,0-1.36.77-1.49,1.77v.28l1.2.19a1,1,0,0,0,.08.38,1.39,1.39,0,0,0,.23.31l-2,14.5h-.18c-.72-.1-1.41.55-1.63,1.51l-6.36-1c0-1-.43-1.83-1.17-2h-.18Zm-4.08,30.41a1.09,1.09,0,0,0,.29-.23,1,1,0,0,0,.18-.32l1.2.17v-.27a2,2,0,0,0-.09-1.22,1.93,1.93,0,0,0-.82-.92,4.29,4.29,0,0,1,1.9-2.09,4.66,4.66,0,0,1,2.83-.53h.18a4.9,4.9,0,0,1,2.57,1.37,4.48,4.48,0,0,1,1.26,2.56c-.69,0-1.34.75-1.49,1.77v.28l1.21.19a1.17,1.17,0,0,0,.08.37,1.11,1.11,0,0,0,.22.3l-2,14.5h-.47c-.72-.12-1.41.53-1.62,1.47l-6.38-1a2.18,2.18,0,0,0-.36-1.38,1.19,1.19,0,0,0-.8-.52h-.18Zm3.22,46.34a1.78,1.78,0,0,0-1.63,1.51l-6.36-1a2.35,2.35,0,0,0-.35-1.39,1.06,1.06,0,0,0-.34-.36,1.14,1.14,0,0,0-.47-.19h-.17l2-14.5a.89.89,0,0,0,.3-.24.87.87,0,0,0,.17-.33l1.21.19v-.27a1.93,1.93,0,0,0-.92-2.14,4.41,4.41,0,0,1,1.91-2.09,4.75,4.75,0,0,1,2.84-.53h.16a4.91,4.91,0,0,1,2.57,1.38,4.66,4.66,0,0,1,1.29,2.55,1.25,1.25,0,0,0-.74.28,2.22,2.22,0,0,0-.77,1.47v.3l1.22.17a.94.94,0,0,0,.29.69l-2,14.5Zm11.06,1.75c-.72-.12-1.41.55-1.64,1.49l-6.24-1a1.9,1.9,0,0,0-1.16-2h-.18l2-14.49a1,1,0,0,0,.29-.24,1.06,1.06,0,0,0,.18-.33l1.2.19v-.27a1.92,1.92,0,0,0-.13-1.25,2,2,0,0,0-.89-.91,4.41,4.41,0,0,1,1.92-2.08,4.74,4.74,0,0,1,2.83-.54h.16a4.86,4.86,0,0,1,2.58,1.37,4.57,4.57,0,0,1,1.28,2.56c-.74,0-1.39.73-1.53,1.77v.28l1.2.17a1,1,0,0,0,.08.38.9.9,0,0,0,.23.31l-2,14.5Zm9.19,1.43c-.73-.12-1.43.55-1.63,1.52l-4.41-.71a1.67,1.67,0,0,0-.19-1.2,1.79,1.79,0,0,0-1-.77h-.16l2-14.49a1,1,0,0,0,.29-.24,1.06,1.06,0,0,0,.18-.33l1.2.19v-.27a1.88,1.88,0,0,0-1.08-2.18,3.7,3.7,0,0,1,1.45-2,3.86,3.86,0,0,1,2.44-.7h.13a4.07,4.07,0,0,1,2.17,1.41,3.79,3.79,0,0,1,.82,2.4,1.85,1.85,0,0,0-1.57,1.77v.27l1.23.2a.91.91,0,0,0,.28.66l-2,14.52Zm9.54-13.95a1,1,0,0,0,.31.69l-2,14.5h-.18a1,1,0,0,0-.48,0,1,1,0,0,0-.42.23,2.19,2.19,0,0,0-.74,1.23l-2.89-.45a1.9,1.9,0,0,0-1.16-2h-.17l2-14.52a.87.87,0,0,0,.47-.55l1.21.17v-.27a1.91,1.91,0,0,0-1.09-2.18c.66-1.85,2-3,3.21-2.83s2.16,1.71,2.3,3.69c-.75-.09-1.51.67-1.65,1.75v.3Zm4.08-30.39a1,1,0,0,0,.08.38.9.9,0,0,0,.23.31l-2,14.5H1718c-.72-.12-1.41.53-1.64,1.47l-2.89-.45a2.11,2.11,0,0,0-.37-1.38,1,1,0,0,0-.33-.35,1.16,1.16,0,0,0-.47-.2h-.18l2-14.49a.89.89,0,0,0,.3-.24.87.87,0,0,0,.17-.33l1.2.19v-.27a1.84,1.84,0,0,0-1.08-2.18c.65-1.85,1.94-3,3.18-2.85h.13c1.26.2,2.16,1.71,2.3,3.69a1.13,1.13,0,0,0-.48.05,1.15,1.15,0,0,0-.42.23,2.38,2.38,0,0,0-.75,1.47v.3Zm4.08-30.41a1,1,0,0,0,.28.69l-2,14.5h-.19c-.71-.1-1.4.55-1.63,1.51l-2.9-.45a2.29,2.29,0,0,0-.36-1.42,1.22,1.22,0,0,0-.34-.34,1.44,1.44,0,0,0-.46-.19h-.18l2-14.5a.89.89,0,0,0,.29-.22.92.92,0,0,0,.18-.32l1.2.17v-.27a2.3,2.3,0,0,0-.35-1.65,1,1,0,0,0-.31-.35,1.14,1.14,0,0,0-.44-.18c.67-1.85,1.94-3,3.22-2.83s2.16,1.73,2.3,3.69a1.16,1.16,0,0,0-.89.27,2.66,2.66,0,0,0-.53.67,2.09,2.09,0,0,0-.23.81v.27Zm4.08-30.57a1,1,0,0,0,.28.69l-2,14.5h-.18a1.86,1.86,0,0,0-1.67,1.67l-2.88-.45a2.23,2.23,0,0,0-.34-1.55,1.06,1.06,0,0,0-.34-.36,1.25,1.25,0,0,0-.46-.19h-.18l2-14.52a.91.91,0,0,0,.28-.23.76.76,0,0,0,.17-.32l1.2.19v-.29a2.29,2.29,0,0,0-.35-1.63,1.07,1.07,0,0,0-.32-.35,1.3,1.3,0,0,0-.43-.2c.67-1.85,2-3,3.2-2.83h.12c1.25.2,2.16,1.73,2.3,3.69a1.24,1.24,0,0,0-.47.05,1,1,0,0,0-.42.23,2.34,2.34,0,0,0-.78,1.47v.3Zm4.08-30.41a1,1,0,0,0,.28.69l-2,14.5h-.16a1.78,1.78,0,0,0-1.63,1.51l-2.9-.45a2.24,2.24,0,0,0-.36-1.4,1.14,1.14,0,0,0-.34-.35,1.26,1.26,0,0,0-.46-.2h0l2-14.49a1,1,0,0,0,.45-.57l1.22.19v-.27a2.34,2.34,0,0,0-.35-1.67,1.2,1.2,0,0,0-.75-.53c.67-1.85,2-3,3.2-2.83s2.16,1.73,2.33,3.69c-.78-.12-1.52.65-1.68,1.75v.3Zm4.62-32.61c-.77-.12-1.51.65-1.67,1.77v.27l1.23.18a.78.78,0,0,0,.06.37,1,1,0,0,0,.22.32l-2,14.5h-.18a1,1,0,0,0-.48,0,1.18,1.18,0,0,0-.42.24,2.07,2.07,0,0,0-.71,1.2l-2.92-.45a1.69,1.69,0,0,0-.2-1.18,1.77,1.77,0,0,0-.94-.78h-.14l2-14.5a1,1,0,0,0,.29-.24.87.87,0,0,0,.17-.33l1.21.19v-.27c.16-1.12-.35-2.08-1.12-2.2h-.23c.7-2,2-3.28,3.51-3.07h.1c1.41.22,2.41,2,2.55,3.93Z"/><path class="cls-8" d="M1711.75,303l-.23,1.77-2-.34.24-1.77a7,7,0,0,0-1-5.28,7.42,7.42,0,0,0-4.48-3.14,7,7,0,0,0-2.73.31,7.45,7.45,0,0,0-2.4,1.33,6.7,6.7,0,0,0-2.36,4.73l-.25,1.77-2.27-.36.25-1.77a7.62,7.62,0,0,0-1.48-5.55,8,8,0,0,0-5-3,7.54,7.54,0,0,0-5.69,1.3,7.39,7.39,0,0,0-1.94,2.15,7.05,7.05,0,0,0-.93,2.71l-.25,1.79-2.23-.36.25-1.77a7.52,7.52,0,0,0-1.38-5.41,8,8,0,0,0-4.77-3.09l-5.4,40.37h6.82l3.52-24.2h.18l2.26.37h.2l-3,23.89h14.56l3.11-21.45h.19l2.25.36h.2l-2.62,21h12.29l2.76-19.09h.19l2.27.36h.18l-2.33,18.67h3.07c0-.4,3.38-25,4.4-32.58a7.89,7.89,0,0,0-3.1,2.54A7.64,7.64,0,0,0,1711.75,303Z"/><path class="cls-8" d="M1666.05,46.45a3.08,3.08,0,0,0-.35,1.06,2.88,2.88,0,0,0,2.24,3.3l1.17.2-1,7.35-.85-.14c-.87-.14-1.7.77-2,2v.28l1.07.18a1.57,1.57,0,0,0,.34,1l-4.22,31.86a2,2,0,0,0-1.77,1.75l-11.3-1.81a1.8,1.8,0,0,0-.61,0,1.66,1.66,0,0,0-.54.29,1.43,1.43,0,0,0-.38.47,1.34,1.34,0,0,0-.17.59,1.78,1.78,0,0,0,.28,1.23,1.47,1.47,0,0,0,.43.43,1.43,1.43,0,0,0,.56.22l.81.14-.73,5.58a6.13,6.13,0,0,1,.71,2.61c-.77-.12-1.49.67-1.64,1.77v.25l1.19.2a1,1,0,0,0,.27.69l-2,14.5h-.18a.94.94,0,0,0-.47,0,1.44,1.44,0,0,0-.42.23,2.18,2.18,0,0,0-.69,1.22h-.38a1.41,1.41,0,0,0-.61,0,1.68,1.68,0,0,0-.55.28,1.65,1.65,0,0,0-.39.48,1.34,1.34,0,0,0-.17.58,2,2,0,0,0,.29,1.24,1.47,1.47,0,0,0,1,.65h.53l-.75,5.68V133a5.59,5.59,0,0,1,.67,2.46.89.89,0,0,0-.39.06,1.2,1.2,0,0,0-.34.21,2.17,2.17,0,0,0-.73,1.48v.27l1.16.2a1,1,0,0,0,.28.67l-2,14.51h-.07a1.24,1.24,0,0,0-.47,0,1,1,0,0,0-.42.23,2.31,2.31,0,0,0-.7,1.24h-.41a1.41,1.41,0,0,0-.61.05,1.44,1.44,0,0,0-.55.28,1.61,1.61,0,0,0-.38.48,1.69,1.69,0,0,0-.17.58,1.65,1.65,0,0,0,1.24,2h.59l-.76,5.66v.1a5.52,5.52,0,0,1,.68,2.44,1.1,1.1,0,0,0-.73.29,2.25,2.25,0,0,0-.74,1.47V168l1.17.2a1.09,1.09,0,0,0,.28.68l-2,14.5h-.18a1.29,1.29,0,0,0-.48,0,1.11,1.11,0,0,0-.41.23,2.32,2.32,0,0,0-.72,1.37h-.37a1.4,1.4,0,0,0-1.11.32,1.68,1.68,0,0,0-.6,1.1,1.78,1.78,0,0,0,.28,1.23,1.47,1.47,0,0,0,.43.43,1.6,1.6,0,0,0,.56.22h.58l-.76,5.68a5.61,5.61,0,0,1,.68,2.43c-.7,0-1.33.75-1.47,1.77v.28l1.17.19a1,1,0,0,0,.3.67l-2,14.5h-.17c-.7-.12-1.37.55-1.59,1.51h-.38a1.5,1.5,0,0,0-1.15.34,1.43,1.43,0,0,0-.38.47,1.34,1.34,0,0,0-.17.59,1.64,1.64,0,0,0,1.2,2l.07,0,.53.1-.73,5.66a5.74,5.74,0,0,1,.67,2.43c-.69,0-1.32.77-1.46,1.77V229l1.17.18a1,1,0,0,0,.29.69l-2,14.49H1631a1.24,1.24,0,0,0-.47,0,1.44,1.44,0,0,0-.42.23,2.15,2.15,0,0,0-.67,1.22h-.4a1.59,1.59,0,0,0-.61.06,1.53,1.53,0,0,0-.92.77,1.34,1.34,0,0,0-.17.58,1.6,1.6,0,0,0,.22,1.24,1.72,1.72,0,0,0,1,.73h.55l-.75,5.65v.1a5.78,5.78,0,0,1,.67,2.44c-.69,0-1.33.77-1.47,1.77v.27l1.19.2a.89.89,0,0,0,.07.36,1,1,0,0,0,.21.31l-2,14.49h-.18c-.69-.09-1.37.55-1.59,1.52h-.37a1.57,1.57,0,0,0-.61,0,1.71,1.71,0,0,0-.55.29,1.43,1.43,0,0,0-.38.47,1.68,1.68,0,0,0-.17.59,1.82,1.82,0,0,0,.28,1.24,1.44,1.44,0,0,0,.43.42,1.62,1.62,0,0,0,.56.23l46.31,7.5.44-3.3-3.49-.57a1.91,1.91,0,0,0-1.13-2h-.22l2-14.5a1,1,0,0,0,.29-.24.87.87,0,0,0,.17-.33l1.17.2V266a2,2,0,0,0-.11-1.22,1.93,1.93,0,0,0-.82-.92,4.29,4.29,0,0,1,1.84-2.08,4.33,4.33,0,0,1,2.75-.53h.18a.76.76,0,0,1,.3,0l1.05-8.12-3.45-.57a2.23,2.23,0,0,0-.36-1.37,1,1,0,0,0-.33-.35,1.14,1.14,0,0,0-.44-.18h.14l2-14.5a.9.9,0,0,0,.44-.57l1.19.2v-.29a2.07,2.07,0,0,0-.11-1.23,1.93,1.93,0,0,0-.82-.92,4.24,4.24,0,0,1,1.85-2.07,4.36,4.36,0,0,1,2.74-.52h.44l1.07-8.09-3.45-.55a2.22,2.22,0,0,0-.34-1.42,1,1,0,0,0-.33-.35,1.23,1.23,0,0,0-.46-.18h-.16l2-14.5a.66.66,0,0,0,.29-.23.84.84,0,0,0,.16-.33l1.19.19V205a2.23,2.23,0,0,0-.32-1.65,1.1,1.1,0,0,0-.59-.49,4.24,4.24,0,0,1,1.85-2.09,4.4,4.4,0,0,1,2.75-.53h.39l1.07-8.11-3.39-.55a2.4,2.4,0,0,0-.33-1.55,1.1,1.1,0,0,0-.33-.35,1.18,1.18,0,0,0-.45-.18h-.19l2-14.5a.91.91,0,0,0,.45-.55l1.17.18v-.28a1.89,1.89,0,0,0-.11-1.22,1.93,1.93,0,0,0-.82-.92,4.38,4.38,0,0,1,1.87-2.07,4.47,4.47,0,0,1,2.75-.54h.38l1-8.09-3.37-.53c0-1-.42-1.83-1.13-2h-.16l2-14.49a.94.94,0,0,0,.43-.49l1.17.18v-.27a2.07,2.07,0,0,0-.11-1.23,2,2,0,0,0-.83-.91,4.37,4.37,0,0,1,4.62-2.62h.34l1.07-8.07-3.35-.55a1.76,1.76,0,0,0-.19-1.19,1.71,1.71,0,0,0-.94-.77H1687l2-14.52a.73.73,0,0,0,.29-.23.76.76,0,0,0,.17-.32l1.17.19v-.29a1.88,1.88,0,0,0-1.11-2.18,4.65,4.65,0,0,1,4.91-2.83h.3l7.41-56.49Zm1.83,61.55a4.53,4.53,0,0,1,2-2.25,4.62,4.62,0,0,1,2.93-.58h.16a5,5,0,0,1,2.67,1.5,4.8,4.8,0,0,1,1.29,2.76c-.77-.14-1.48.65-1.64,1.75v.27l1.17.2a1,1,0,0,0,.28.67l-2,14.5h-.15a1,1,0,0,0-.48,0,1,1,0,0,0-.42.23,2.28,2.28,0,0,0-.69,1.2l-6.12-1a1.88,1.88,0,0,0-1.13-2h-.18l2-14.49a1,1,0,0,0,.29-.24,1.29,1.29,0,0,0,.17-.33l1.16.19v-.27C1669.13,109.12,1668.63,108.14,1667.88,108Zm4.32,34a1,1,0,0,0,.29.67l-2,14.5h-.14c-.69-.12-1.36.54-1.58,1.49l-6.13-1a2.34,2.34,0,0,0-.33-1.39,1.29,1.29,0,0,0-.34-.36,1.25,1.25,0,0,0-.46-.19h-.16l2-14.5a.86.86,0,0,0,.45-.57l1.17.2v-.28a2,2,0,0,0-1-2.16,4.38,4.38,0,0,1,4.62-2.61h.16a4.73,4.73,0,0,1,2.5,1.37,4.61,4.61,0,0,1,1.24,2.56c-.71,0-1.34.73-1.46,1.77v.27Zm-4,30.39a1.06,1.06,0,0,0,.3.69l-2,14.49h-.15c-.73-.12-1.43.61-1.6,1.65l-6.11-1c0-1.06-.4-2-1.13-2.1h-.16l2-14.5a1,1,0,0,0,.46-.57l1.17.2V171a2.5,2.5,0,0,0-.32-1.67,1.34,1.34,0,0,0-.63-.49,4.4,4.4,0,0,1,1.86-2.07,4.51,4.51,0,0,1,2.76-.54h.15a4.66,4.66,0,0,1,3.75,3.93c-.71,0-1.33.74-1.47,1.77v.27Zm-4,30.56a1,1,0,0,0,.3.69l-2,14.5h-.17c-.7-.12-1.37.55-1.59,1.49l-6.1-1a2.32,2.32,0,0,0-.36-1.4,1,1,0,0,0-.34-.35,1.22,1.22,0,0,0-.45-.2h-.16l2-14.51a.92.92,0,0,0,.29-.23.76.76,0,0,0,.17-.32l1.17.19v-.29a2,2,0,0,0-.12-1.23,2,2,0,0,0-.83-.91,4.33,4.33,0,0,1,1.86-2.08,4.4,4.4,0,0,1,2.75-.53h.16a4.68,4.68,0,0,1,3.75,3.92c-.72,0-1.33.73-1.47,1.77v.28Zm-4,30.43a1,1,0,0,0,.29.67l-2,14.5h-.18c-.67-.12-1.35.53-1.56,1.47l-6.13-1a1.88,1.88,0,0,0-1.15-2h-.16l2-14.49a.81.81,0,0,0,.28-.24.87.87,0,0,0,.17-.33l1.17.19V232a2.38,2.38,0,0,0-.31-1.65,1.34,1.34,0,0,0-.64-.51,4.33,4.33,0,0,1,4.62-2.59h.16a4.6,4.6,0,0,1,2.5,1.37,4.52,4.52,0,0,1,1.24,2.55c-.71,0-1.32.75-1.46,1.77v.28Zm-16.32-4.52a1,1,0,0,0-.33-.35,1.26,1.26,0,0,0-.46-.2,3.79,3.79,0,0,1,1.42-2,3.87,3.87,0,0,1,2.37-.71h.14a4.1,4.1,0,0,1,2.09,1.42,3.85,3.85,0,0,1,.8,2.39c-.75-.09-1.45.67-1.59,1.75v.3l1.17.17a1,1,0,0,0,.28.69l-2,14.5h-.18a1.16,1.16,0,0,0-.89.27,2.18,2.18,0,0,0-.69,1.22l-4.09-.67a2.64,2.64,0,0,0-.35-1.37,1.13,1.13,0,0,0-.22-.27,1.25,1.25,0,0,0-.46-.19h-.16l2-14.5a.81.81,0,0,0,.28-.24.87.87,0,0,0,.17-.33l1.17.2v-.28a2.53,2.53,0,0,0-.55-1.69Zm4-30.42a1.14,1.14,0,0,0-.34-.35,1.18,1.18,0,0,0-.45-.18,3.71,3.71,0,0,1,3.78-2.71h.14a3.92,3.92,0,0,1,2.89,3.79c-.73-.1-1.44.68-1.6,1.76V201l1.17.2a1,1,0,0,0,.28.66l-2,14.52h-.18a.94.94,0,0,0-.47,0,1,1,0,0,0-.42.25,2.17,2.17,0,0,0-.69,1.23l-4.1-.66c0-1-.42-1.83-1.11-2h-.18l2-14.52a.86.86,0,0,0,.44-.55l1.17.2v-.27a2.68,2.68,0,0,0-.46-1.69Zm3.25-31.1a3.74,3.74,0,0,1,1.4-2,3.84,3.84,0,0,1,2.36-.71h.14a4,4,0,0,1,2.11,1.42,3.9,3.9,0,0,1,.81,2.39,1.82,1.82,0,0,0-1.61,1.75v.27l1.19.2a1.09,1.09,0,0,0,.28.69l-2,14.5h-.18a1.29,1.29,0,0,0-.48,0,1.14,1.14,0,0,0-.41.24,2.22,2.22,0,0,0-.74,1.38l-4-.65a2.51,2.51,0,0,0-.34-1.56,1,1,0,0,0-.34-.35,1.22,1.22,0,0,0-.45-.2h-.18l2-14.49a1,1,0,0,0,.46-.57l1.17.19v-.27c-.1-1.14-.62-2.12-1.37-2.24Zm4.81-29.88a1,1,0,0,0-.33-.35,1.23,1.23,0,0,0-.46-.18,3.65,3.65,0,0,1,1.35-2,3.69,3.69,0,0,1,2.28-.75h.14a4,4,0,0,1,2.11,1.42,3.85,3.85,0,0,1,.8,2.39,1.69,1.69,0,0,0-.45,0,1.31,1.31,0,0,0-.4.22,2.26,2.26,0,0,0-.75,1.49V140l1.18.19a1,1,0,0,0,.28.67l-2,14.5h-.16a1.72,1.72,0,0,0-1.48,1.66l-4.11-.67c0-1-.43-1.83-1.13-2h-.17l2-14.5a.81.81,0,0,0,.28-.24.87.87,0,0,0,.17-.33l1.17.2v-.28a2.57,2.57,0,0,0-.35-1.69Zm3.23-30.92h-.29a3.9,3.9,0,0,1,1.45-2.17,4,4,0,0,1,2.51-.79h.14a4.39,4.39,0,0,1,2.26,1.54,4.29,4.29,0,0,1,.87,2.58h-.24c-.75-.12-1.48.67-1.62,1.75v.27l1.17.2a1,1,0,0,0,.3.69l-2,14.5h-.17a.94.94,0,0,0-.47,0,1.27,1.27,0,0,0-.41.23,2.18,2.18,0,0,0-.69,1.22l-4.1-.67a1.86,1.86,0,0,0-1.13-2h-.18l2-14.5a1,1,0,0,0,.46-.55l1.17.18v-.28c.09-1.18-.4-2.1-1.15-2.28Zm-7.82,1.71a.81.81,0,0,0,.28-.24.87.87,0,0,0,.17-.33l1.17.2v-.28a2.5,2.5,0,0,0-.31-1.65,1.38,1.38,0,0,0-.8-.55h-.51c.69-2,2-3.29,3.41-3.08h.11c1.37.24,2.32,2,2.46,3.93-.75-.12-1.48.67-1.62,1.75v.27l1.17.2a1,1,0,0,0,.29.69l-2,14.49H1655c-.71-.09-1.36.55-1.58,1.5l-2.78-.45a2.32,2.32,0,0,0-.33-1.38,1.14,1.14,0,0,0-.34-.35,1.23,1.23,0,0,0-.46-.18h-.16Zm-4,30.39a1,1,0,0,0,.44-.57l1.17.2V138c.16-1.1-.34-2.08-1.09-2.2h-.2c.65-1.82,2-3,3.11-2.82h.1c1.23.19,2.12,1.72,2.24,3.73-.67,0-1.29.76-1.43,1.75v.29l1.19.18a1,1,0,0,0,.28.66l-2,14.52H1651c-.71-.12-1.39.53-1.59,1.51l-2.75-.45a2.44,2.44,0,0,0-.36-1.39,1.22,1.22,0,0,0-.32-.36,1.2,1.2,0,0,0-.45-.19h-.18Zm-4,30.41a1,1,0,0,0,.44-.57l1.19.2v-.28c.15-1.12-.34-2.08-1.1-2.2h-.19c.63-1.85,1.86-3,3.11-2.83s2.1,1.75,2.24,3.74c-.68,0-1.29.76-1.43,1.74v.28l1.19.2a1.07,1.07,0,0,0,.28.68l-2,14.5h-.18a1.29,1.29,0,0,0-.48,0,1.44,1.44,0,0,0-.42.23,2.26,2.26,0,0,0-.73,1.38l-2.73-.43c0-1-.38-2-1.11-2.1h-.08Zm-4,30.55a.81.81,0,0,0,.43-.55l1.19.19V199a1.88,1.88,0,0,0-1.11-2.18h-.2c.64-1.85,2-3,3.11-2.83s2.13,1.73,2.26,3.71a1.84,1.84,0,0,0-1.42,1.77v.27l1.19.2a1,1,0,0,0,.27.67l-2,14.5h-.16c-.69-.12-1.36.55-1.58,1.51l-2.76-.45c0-1-.43-1.83-1.13-2H1637Zm-4,30.42a.7.7,0,0,0,.28-.23.74.74,0,0,0,.16-.32l1.19.18v-.27a1.89,1.89,0,0,0-1.13-2.2h-.18c.63-1.85,1.88-3,3.11-2.83s2.12,1.71,2.26,3.71c-.69,0-1.31.77-1.43,1.75v.29l1.17.18a1,1,0,0,0,.28.69l-2,14.49h-.18c-.69-.09-1.35.55-1.58,1.48l-2.76-.43a1.88,1.88,0,0,0-1.13-2h-.06Zm-.29,45.79c-.72-.11-1.37.53-1.59,1.52l-2.76-.46a2.2,2.2,0,0,0-.35-1.39,1.14,1.14,0,0,0-.78-.55H1629l2-14.5a1,1,0,0,0,.29-.24.87.87,0,0,0,.17-.33l1.17.2v-.27a2.45,2.45,0,0,0-.34-1.67,1,1,0,0,0-.33-.35,1.16,1.16,0,0,0-.44-.19h-.2c.65-1.82,2-3,3.11-2.82s2.12,1.72,2.26,3.71a1.21,1.21,0,0,0-.69.29,2.34,2.34,0,0,0-.74,1.48v.29l1.17.18a.9.9,0,0,0,.08.36,1.16,1.16,0,0,0,.22.31l-2,14.51Zm8.75,1.42c-.69-.12-1.36.55-1.58,1.51l-4.08-.67a2.27,2.27,0,0,0-.36-1.39,1,1,0,0,0-.33-.36,1.16,1.16,0,0,0-.44-.19h-.18l2-14.5a1,1,0,0,0,.46-.57l1.17.2V261a2.45,2.45,0,0,0-.34-1.67,1,1,0,0,0-.33-.34,1,1,0,0,0-.44-.19,3.62,3.62,0,0,1,1.4-2,3.77,3.77,0,0,1,2.36-.7h.23a4.11,4.11,0,0,1,2.09,1.43,3.94,3.94,0,0,1,.82,2.38,1.8,1.8,0,0,0-1.6,1.75v.28l1.17.19a.94.94,0,0,0,.07.37,1.14,1.14,0,0,0,.23.3l-2,14.5Zm10.91,1.77a.94.94,0,0,0-.47,0,1.1,1.1,0,0,0-.4.24,2.08,2.08,0,0,0-.7,1.22l-6.12-1a2.32,2.32,0,0,0-.36-1.4,1,1,0,0,0-.33-.35,1,1,0,0,0-.44-.2h-.18l2-14.49a1,1,0,0,0,.44-.57l1.19.19v-.29a2.33,2.33,0,0,0-.32-1.65,1.23,1.23,0,0,0-.63-.49,4.38,4.38,0,0,1,1.86-2.08,4.47,4.47,0,0,1,2.75-.54h.16a4.66,4.66,0,0,1,3.75,3.93c-.7,0-1.33.75-1.47,1.77v.28l1.19.17a1,1,0,0,0,.28.69l-2,14.5Zm12.52-13.44a.94.94,0,0,0,.07.37,1,1,0,0,0,.21.32l-2,14.49h-.17a1.29,1.29,0,0,0-.48,0,1.09,1.09,0,0,0-.41.22,2.31,2.31,0,0,0-.7,1.24l-5.94-1a2.38,2.38,0,0,0-.36-1.42,1,1,0,0,0-.33-.35,1.14,1.14,0,0,0-.44-.18h-.18l2-14.5a.89.89,0,0,0,.29-.22.87.87,0,0,0,.17-.33l1.17.18v-.27a2.6,2.6,0,0,0-.32-1.66,1.37,1.37,0,0,0-.65-.51,4.24,4.24,0,0,1,1.85-2.07,4.36,4.36,0,0,1,2.74-.52h.18a4.73,4.73,0,0,1,2.5,1.37,4.6,4.6,0,0,1,1.23,2.56,1,1,0,0,0-.42.06,1,1,0,0,0-.35.22,2.27,2.27,0,0,0-.76,1.47v.29Zm4-30.37a.94.94,0,0,0,.07.37,1.66,1.66,0,0,0,.22.3l-2,14.5h-.18c-.69-.12-1.34.53-1.58,1.47l-6-1a1.88,1.88,0,0,0-1.13-2h-.18l2-14.52a.91.91,0,0,0,.45-.55l1.17.2v-.29a2,2,0,0,0-1-2.16,4.31,4.31,0,0,1,1.85-2.08,4.39,4.39,0,0,1,2.75-.52h.18a4.7,4.7,0,0,1,2.48,1.39,4.65,4.65,0,0,1,1.24,2.54,1.27,1.27,0,0,0-.79.28,2.31,2.31,0,0,0-.73,1.49v.27Zm4-30.43a1,1,0,0,0,.08.38,1,1,0,0,0,.22.31l-2,14.5h-.19a1,1,0,0,0-.48,0,1.21,1.21,0,0,0-.42.22,2.36,2.36,0,0,0-.69,1.24l-5.94-1c0-1-.44-1.85-1.13-2h-.18l2-14.49a.91.91,0,0,0,.28-.23,1,1,0,0,0,.18-.32l1.16.17v-.27a2,2,0,0,0-1-2.16,4.34,4.34,0,0,1,4.6-2.6h.16a4.73,4.73,0,0,1,3.75,3.93,1.17,1.17,0,0,0-.8.28,2.31,2.31,0,0,0-.73,1.49v.28Zm4-30.56a1.07,1.07,0,0,0,.28.68l-2,14.5h-.18c-.73-.12-1.45.61-1.62,1.65l-6-1c.1-1.06-.38-2-1.11-2.1h-.31l2-14.52a.7.7,0,0,0,.28-.23.65.65,0,0,0,.16-.32l1.19.18v-.28a2,2,0,0,0-1-2.16,4.34,4.34,0,0,1,4.6-2.59h.15a4.66,4.66,0,0,1,3.75,3.93,1.09,1.09,0,0,0-.79.27,2.42,2.42,0,0,0-.74,1.49v.3Zm4-30.41a1,1,0,0,0,.08.37,1,1,0,0,0,.22.32l-2,14.49h-.18c-.69-.11-1.36.55-1.58,1.5l-6-1a1.91,1.91,0,0,0-1.13-2h-.35l2-14.5a.89.89,0,0,0,.29-.22.84.84,0,0,0,.16-.33l1.17.18v-.28a1.89,1.89,0,0,0-.13-1.24,2,2,0,0,0-.86-.92,4.39,4.39,0,0,1,4.62-2.59h.16a4.73,4.73,0,0,1,2.5,1.37,4.61,4.61,0,0,1,1.24,2.56,1.84,1.84,0,0,0-1.54,1.75v.29Zm4.5-32.59a1.29,1.29,0,0,0-.48,0,1.21,1.21,0,0,0-.42.22,2.46,2.46,0,0,0-.73,1.5v.27l1.19.2a1,1,0,0,0,.28.67l-2,14.49h-.23c-.7-.11-1.37.53-1.59,1.48l-5.94-1a1.75,1.75,0,0,0-1.11-2h-.2l2-14.5a1,1,0,0,0,.46-.57l1.16.2V112a2.5,2.5,0,0,0-.31-1.65,1.14,1.14,0,0,0-.34-.35,1.25,1.25,0,0,0-.46-.19h-.11a4.59,4.59,0,0,1,2-2.24,4.65,4.65,0,0,1,2.94-.58h.18a5,5,0,0,1,2.67,1.5,4.83,4.83,0,0,1,1.29,2.76Zm.73-30-2.38,18.11-18.63-3,2.38-18.13a9.39,9.39,0,0,1,1-3.67,9.68,9.68,0,0,1,9.63-5.11,10.33,10.33,0,0,1,6.24,4.38,10.17,10.17,0,0,1,1.51,7.42Z"/><path class="cls-8" d="M1664,291.06a7.18,7.18,0,0,0-2.45,4.6l-.21,1.76-1.92-.34.24-1.75a7.93,7.93,0,0,0-1.19-5.22,7.51,7.51,0,0,0-4.87-3.22,6.82,6.82,0,0,0-5.25,1.31,7.31,7.31,0,0,0-1.83,2.12,7.52,7.52,0,0,0-.87,2.69l-.21,1.73-2.12-.36.21-1.75a8.31,8.31,0,0,0-1.18-5.63,6,6,0,0,0-1.64-1.76,5.61,5.61,0,0,0-2.18-.95,5.28,5.28,0,0,0-2.37.16,5.5,5.5,0,0,0-2.09,1.15,7.79,7.79,0,0,0-2.55,5l-.23,1.76-1.94-.36.23-1.75a8.11,8.11,0,0,0-.3-4,7.86,7.86,0,0,0-2.15-3.32c-1.19,9.25-5.86,45.94-5.94,46.49h.56c.34-1.63,1.38-2.79,2.45-2.62h.32l4-29h.19l2.1.35h.19l-3.44,29.14h.32a2.23,2.23,0,0,1,1.1.73,2.39,2.39,0,0,1,.51,1.24h8.86l4.14-29.26h.19l2.08.34h.2l-3.41,28.84H1655l3.65-26.58h.17l2.11.36h.19L1658,329.12h7l4.78-39.45h-.25a6.71,6.71,0,0,0-5.49,1.38Z"/><path class="cls-9" d="M1904,240a85.36,85.36,0,0,0-15.64,7.4,37.3,37.3,0,0,0-11.62,13.27,14.55,14.55,0,0,0,2.53,17.78c.26.29.49.7.79,1.07s.45.68-.32.68h-1.38c-7.63,0-15.24.36-22.88.37-2.56,0-3.1.73-3.12,3.28V297.4c0,2.93-4.11,4.58-8,4.82-4.72.27-7.29-5.86-7.19-9.45a24.06,24.06,0,0,0-.38-6.28,66,66,0,0,1-2.53-14.76V253a6.89,6.89,0,0,1,1.37-4.29,4.62,4.62,0,0,0,1.3-2.89c.16-1.78-1-3.1-2-3s-2.09-2.83-2.45-6.61a47.8,47.8,0,0,1-.29-6.87,19.07,19.07,0,0,1,1.36-6.23c.18-.41,2.57-6.63,1.38-6.4l-1.4.29c-.77.16-1.42-3.41-1.44-8v-8.31a13.3,13.3,0,0,0-2.22-8.53,2.88,2.88,0,0,1-.7-1.88,2.92,2.92,0,0,1,.7-1.89,7.5,7.5,0,0,0,1.3-2.91,7.74,7.74,0,0,0,0-3.18c-.81-3.43-6.74-3.23-7.36.36a9.48,9.48,0,0,0,1.55,6.34,2.57,2.57,0,0,1,.33,1.08,2.38,2.38,0,0,1-.18,1.12,17.75,17.75,0,0,0-2.67,11.71c.18,4.08,0,8.16,0,12.24v1a1.92,1.92,0,0,1-.35,1.08c-.16.08-.24.1-.32,0l-2-.45c-.36,0,2,10.95,2,11.55a48.41,48.41,0,0,1-.16,7.52c-.33,4.15-1.87,7.39-3.44,7.2a2.24,2.24,0,0,0-1.17.17,2.28,2.28,0,0,0-.9.76,2.14,2.14,0,0,0-.06,2.25,8.38,8.38,0,0,0,2.35,2.87,6.4,6.4,0,0,1,2.16,4.11c.18,11.17.83,21.47-1.76,32.38a51.86,51.86,0,0,0-1,7,11.85,11.85,0,0,1-3.76,8.25c-.83.57-1.1,1.43-1.1,3.3v25.37h81.9c0-.47.32-4.21.32-4.7,0-16.43,6.44-29.74,14.23-29.74h.58V239A18.33,18.33,0,0,0,1904,240Z"/><path class="cls-9" d="M2002.35,300.55c-.43-.12.22-12.2,0-13.18-.92-5.31-2.35-9.21-2.37-14.75V253.75a5.9,5.9,0,0,1,1.59-4.15,3.15,3.15,0,0,0,1.14-3.09,3.42,3.42,0,0,0-3.29-3.2c-1.49.12-2.78-3-2.68-7.16a40.4,40.4,0,0,1,.78-7.44,31.68,31.68,0,0,1,2.19-5.72c1.36-3.11.79-5.9.28-5.72l-.94.21h-.26c-.13,0-.27-.53-.29-1.08s0-.65,0-1c0-4.11-.12-8.23,0-12.34a18,18,0,0,0-2.62-11.8,2.43,2.43,0,0,1-.18-1.13A2.61,2.61,0,0,1,1996,189a9.45,9.45,0,0,0,1.53-6.35c-.59-3.62-6.46-3.82-7.27-.34a7.84,7.84,0,0,0,0,3.2,7.59,7.59,0,0,0,1.28,2.94,2.85,2.85,0,0,1,0,3.77,13.75,13.75,0,0,0-2.2,8.62c.1,2.77.12,5.55.1,8.36,0,4.62-.66,8.24-1.43,8.06s-1.43,1.32-.84,3.17c.29.95.7,1.81,1.18,3.31a18,18,0,0,1,.23,5.13v7.32c0,4.05-.78,7.22-2,7.08s-2.21,1.22-2,3a4.75,4.75,0,0,0,1.3,2.89,7,7,0,0,1,1.37,4.31c0,6.9.13,13.76,0,20.75,0,5.66-2.74,10.68-2.88,16.23-.14,6.39,0,11.36-7.58,11.8-3.19.2-10.48-.63-10.48-5.31,0-.16-.16-5.53-.16-5.9v-6.91c0-3.6-.33-4.31-3.91-4.31h-22a7.74,7.74,0,0,0-1.27.16c-.71.12-.94-.29-.47-.73.28-.25.55-.51.8-.78,4.9-5.41,6-11.49,2.66-17.92a43.77,43.77,0,0,0-6.79-9.37c-3.92-4.22-10-7.86-15.79-10.91a20.49,20.49,0,0,0-9.18-2v56.43c7.48.63,15.37,18.67,13.28,34.68H2005V305.07C2005.42,301.57,2005.88,301.57,2002.35,300.55Z"/></g></g></svg>