<svg xmlns="http://www.w3.org/2000/svg" xmlns:xlink="http://www.w3.org/1999/xlink" width="182px" height="219px" viewBox="0 0 182 219" version="1.1"
                        class="inline-block h-40 md:h-48 w-auto -mr-8 -mt-4 mb-4">
                        <g id="Page-1" stroke="none" stroke-width="1" fill="none" fill-rule="evenodd">
                            <g id="whale" fill-rule="nonzero">
                                <g id="package-fish">
                                    <g id="Group">
                                        <path
                                            d="M149.117031,117.39486 L105.248833,87.1366612 C104.611852,86.6968512 104.54652,85.694157 105.100022,84.8959835 L135.04538,41.7113554 C135.598882,40.9131818 136.56252,40.6217851 137.197686,41.0597851 L181.067699,71.3179835 C181.702865,71.7577934 181.770011,72.7586777 181.216509,73.5586612 L151.271151,116.741479 C150.717649,117.541463 149.754012,117.83286 149.117031,117.39486"
                                            id="Shape" fill="#00C29D"></path>
                                        <path
                                            d="M156.748097,72.1179669 C155.416063,72.3659256 154.087659,72.6283636 152.693923,72.8980413 C153.116762,73.4192975 153.496047,73.8880661 153.882591,74.3676942 C151.525218,74.8147438 149.233175,75.249124 146.861284,75.6997934 C146.805026,75.3975372 146.734251,75.006595 146.619921,74.3785537 C148.307648,74.1052562 149.915525,73.846438 151.588734,73.5785702 C151.165895,73.0464545 150.802943,72.5885455 150.347438,72.0166116 C150.670466,71.9804132 150.861015,71.9767934 151.040677,71.9369752 C151.826468,71.7632231 152.610444,71.5786116 153.394421,71.3994298 C154.020513,71.3107438 154.646605,71.2202479 155.272697,71.1297521 L144.173624,63.5878264 C144.041147,63.7869174 143.925002,63.9552397 143.812487,64.123562 C142.358864,66.2809835 140.87076,68.416686 139.457062,70.6012562 C137.99618,72.8600331 137.462641,75.3703884 137.747558,78.0363967 C137.867332,79.1513058 138.351873,80.0779835 139.382657,80.6662066 C139.918011,80.9702727 140.411626,81.3467355 140.976017,81.7250083 L134.872978,90.6822893 C134.312217,90.3257355 132.047396,88.8379835 131.53019,88.5502066 C131.196274,89.0986116 130.969429,89.4424959 130.62281,89.9112645 C130.744399,90.0433884 131.316048,90.403562 131.457599,90.4994876 C134.101705,92.2804463 136.905509,94.1645702 139.553245,95.9364793 C139.702055,96.0360248 139.867198,96.1066116 140.00149,96.1808182 C140.331777,95.6939504 140.620324,95.2668099 140.943351,94.7889917 C139.596799,93.8840331 138.290171,93.0080331 136.952693,92.110314 L143.052102,83.1168347 C143.621937,83.5005372 144.155476,83.8208926 144.647276,84.1973554 C145.476622,84.8308264 146.396705,84.9846694 147.380305,84.7457603 C150.067965,84.0923802 152.258381,82.6444463 153.857184,80.4055785 C155.412434,78.2282479 157.152789,75.5604298 158.648151,73.3414711 L156.748097,72.1179669 L156.748097,72.1179669 Z"
                                            id="Shape" fill="#FFFFFF"></path>
                                        <path
                                            d="M109.669588,84.3385289 L41.4890477,71.8862975 C40.5018181,71.7071157 39.8847997,70.5541983 40.1134594,69.312595 L52.4356812,2.19904959 C52.664341,0.957446281 53.6497558,0.0995454545 54.6369853,0.278727273 L122.817526,12.7291488 C123.804756,12.9101405 124.419959,14.0630579 124.193114,15.3028512 L111.870892,82.4163967 C111.644047,83.658 110.656818,84.5177107 109.669588,84.3385289"
                                            id="Shape" fill="#F7D872"></path>
                                        <path
                                            d="M83.9399183,37.1250248 C87.5313287,34.426438 91.0900734,31.7513802 94.7286676,29.016595 C97.1822234,32.8119917 99.6103726,36.5657603 102.05304,40.3430579 C101.06944,40.9801488 100.102173,41.6063802 99.0605002,42.2814793 C98.0133836,40.6706529 96.973526,39.070686 95.8302271,37.3132562 C94.6488182,43.9393636 93.4946307,50.3989587 92.3349989,56.896562 C90.6527162,56.5997355 89.0629863,56.3173884 87.3934069,56.0187521 C88.5457797,49.5555372 89.6999671,43.0905124 90.8559694,36.6218678 C90.8051561,36.5874793 90.7561576,36.551281 90.7053443,36.5150826 C89.1773162,37.6589504 87.6474734,38.8028182 86.0813353,39.9738347 C85.3699493,39.0290579 84.6694519,38.0969504 83.9399183,37.1250248"
                                            id="Shape" fill="#FFFFFF"></path>
                                        <path
                                            d="M64.2207339,33.6047355 C67.8321067,30.8952893 71.356371,28.2546198 74.9677438,25.5451736 C77.4194849,29.324281 79.8258569,33.0346116 82.2794127,36.8209587 C81.2685913,37.4797686 80.294065,38.1132397 79.2850584,38.7720496 C78.2306827,37.1467438 77.1998989,35.5576364 76.0547852,33.7929669 C74.8697468,40.428124 73.7191888,46.8786694 72.5595571,53.3762727 C70.8718301,53.0758264 69.2839149,52.7934793 67.6052617,52.4966529 C68.761264,46.0261983 69.9136367,39.5611736 71.0678242,33.0979587 L70.9208286,33.0056529 C69.3946153,34.1513306 67.8702167,35.2951983 66.3204115,36.4589752 C65.5999517,35.478 64.9212314,34.558562 64.2207339,33.6047355"
                                            id="Shape" fill="#FFFFFF"></path>
                                        <path
                                            d="M97.7901681,61.4666033 C97.5742116,62.6756281 97.3800323,63.8538843 97.1295954,65.0194711 C97.1041888,65.1407355 96.7176448,65.283719 96.527095,65.2529504 C94.7704071,64.9669835 93.0209783,64.6448182 91.2697347,64.3335124 C88.5367058,63.8484545 85.8054917,63.3633967 83.0724629,62.8783388 C75.6954627,61.5679587 68.3184625,60.2575785 60.9396475,58.9471983 C60.7055434,58.9055702 60.4696246,58.8639421 60.1955958,58.8150744 C60.4333294,57.4847851 60.6583597,56.2268926 60.8924637,54.9147025 C73.1493541,57.0920331 85.4135035,59.2693636 97.7901681,61.4666033"
                                            id="Shape" fill="#FFFFFF"></path>
                                        <path
                                            d="M107.769534,182.312975 L30.8454791,151.205926 C29.7294016,150.755256 29.1940473,149.488314 29.6441079,148.377025 L54.0798539,88.2714793 C54.5317292,87.1601901 55.8020614,86.6244545 56.9163241,87.075124 L133.840379,118.180364 C134.956457,118.632843 135.493626,119.899785 135.041751,121.011074 L110.606005,181.11481 C110.154129,182.227909 108.885612,182.763645 107.769534,182.312975"
                                            id="Shape" fill="#F8AA61"></path>
                                        <polygon id="Shape" fill="#FFFFFF" points="77.3668568 115.601231 58.3681323 162.331488 80.2468813 171.180174 99.243791 124.448107"></polygon>
                                        <polygon id="Shape" fill="#26566C" points="127.038658 141.216992 45.7119947 108.330793 54.7168348 86.1810248 136.041684 119.069033"></polygon>
                                        <path
                                            d="M132.266982,133.322132 L47.4723121,99.0332479 C46.3562345,98.5825785 45.8190655,97.3156364 46.2709408,96.2043471 L54.5807278,75.7685702 C55.032603,74.6554711 56.3029352,74.1197355 57.4171979,74.570405 L142.211868,108.859289 C143.327946,109.309959 143.8633,110.576901 143.41324,111.69 L135.103453,132.125777 C134.651577,133.237066 133.381245,133.774612 132.266982,133.322132"
                                            id="Shape" fill="#F8AA61"></path>
                                        <polygon id="Shape" fill="#FFFFFF" points="110.753 96.1391901 88.876066 87.2905041 78.9311801 111.755157 100.808114 120.602033"></polygon>
                                        <path
                                            d="M0.127033214,166.452669 C0.127033214,169.106008 2.28296833,171.25619 4.94340678,171.25619 C7.60384524,171.25619 9.75978035,169.106008 9.75978035,166.452669 C9.75978035,163.799331 7.60384524,161.649149 4.94340678,161.649149 C2.28296833,161.649149 0.127033214,163.799331 0.127033214,166.452669"
                                            id="Shape" fill="#48CFD5"></path>
                                        <path
                                            d="M2.76025026,147.354421 C2.76025026,151.815868 6.38614114,155.432083 10.8577103,155.432083 C15.3310942,155.432083 18.956985,151.815868 18.956985,147.354421 C18.956985,142.894785 15.3310942,139.27857 10.8577103,139.27857 C6.38614114,139.27857 2.76025026,142.894785 2.76025026,147.354421"
                                            id="Shape" fill="#48CFD5"></path>
                                        <path
                                            d="M6.38251162,143.664 C6.38251162,144.909223 7.39333305,145.915537 8.64007331,145.915537 C9.88681357,145.915537 10.897635,144.909223 10.897635,143.664 C10.897635,142.420587 9.88681357,141.412463 8.64007331,141.412463 C7.39333305,141.412463 6.38251162,142.420587 6.38251162,143.664"
                                            id="Shape" fill="#FFFFFF"></path>
                                        <path
                                            d="M62.9594756,192.919091 C57.4680112,192.919091 53.0145897,197.376917 53.0145897,202.873636 C53.0145897,208.370355 57.4680112,212.826372 62.9594756,212.826372 L71.3727039,212.826372 L62.9594756,192.919091 L62.9594756,192.919091 Z"
                                            id="Shape" fill="#48CFD5"></path>
                                        <path
                                            d="M53.375727,172.930364 C46.3544198,172.930364 40.6633318,167.234554 40.6633318,160.210264 C40.6633318,153.182355 46.3544198,147.484736 53.375727,147.484736 L72.590408,147.484736 L63.5202365,168.338603 L53.375727,172.930364 L53.375727,172.930364 Z"
                                            id="Shape" fill="#26566C"></path>
                                        <path
                                            d="M50.8967646,160.210264 C46.2437194,160.210264 41.7358551,160.823826 37.4366882,161.956835 L42.9590034,191.639479 L68.5888617,186.15724 L88.0866453,183.762719 L88.2154933,175.661529 C78.6480775,166.123264 65.469289,160.210264 50.8967646,160.210264"
                                            id="Shape" fill="#48CFD5"></path>
                                        <path
                                            d="M88.2154933,182.240579 L7.95772347,182.240579 C17.565064,195.583289 33.2101116,204.279942 50.8967646,204.279942 C65.4674742,204.279942 78.6498923,198.366942 88.2154933,188.821438 L88.2154933,182.240579 L88.2154933,182.240579 Z"
                                            id="Shape" fill="#26566C"></path>
                                        <rect id="Rectangle-path" fill="#48CFD5" x="38.8340535" y="176.550198" width="49.3814398" height="5.68857025"></rect>
                                        <path
                                            d="M40.6633318,161.212959 C27.2540687,163.844579 15.6559362,171.542157 7.95772347,182.238769 L40.6633318,182.238769 L40.6633318,161.212959 L40.6633318,161.212959 Z"
                                            id="Shape" fill="#48CFD5"></path>
                                        <path
                                            d="M41.4091982,177.062405 C41.4091982,182.948256 36.6436379,187.706529 30.7674444,187.706529 C24.8985099,187.706529 20.1365792,182.948256 20.1365792,177.062405 C20.1365792,171.189223 24.8985099,166.418281 30.7674444,166.418281 C36.6436379,166.418281 41.4091982,171.189223 41.4091982,177.062405"
                                            id="Shape" fill="#FFFFFF"></path>
                                        <path
                                            d="M35.6800003,174.31314 C35.6800003,177.967364 32.7219412,180.922959 29.0724584,180.922959 C25.4284199,180.922959 22.4703608,177.967364 22.4703608,174.31314 C22.4703608,170.664347 25.4284199,167.701512 29.0724584,167.701512 C32.7219412,167.701512 35.6800003,170.664347 35.6800003,174.31314"
                                            id="Shape" fill="#26566C"></path>
                                        <path
                                            d="M104.829623,200.629339 C104.829623,210.659901 112.954304,218.79186 122.973595,218.79186 L122.973595,182.465008 C112.954304,182.465008 104.829623,190.600587 104.829623,200.629339"
                                            id="Shape" fill="#48CFD5"></path>
                                        <path
                                            d="M86.5713206,182.475868 C86.5713206,192.51005 94.6941872,200.640198 104.717108,200.640198 L104.717108,167.784769 C94.6941872,167.784769 86.5713206,172.450736 86.5713206,182.475868"
                                            id="Shape" fill="#F8AA61"></path>
                                        <rect id="Rectangle-path" fill="#F7D872" x="104.715293" y="182.240579" width="18.3726323" height="18.3923802"></rect>
                                        <path
                                            d="M86.5713206,182.240579 C86.5713206,172.12495 94.7685924,163.916975 104.882251,163.916975 C114.994095,163.916975 123.194996,172.12495 123.194996,182.240579 L86.5713206,182.240579 L86.5713206,182.240579 Z"
                                            id="Shape" fill="#00C29D"></path>
                                    </g>
                                </g>
                            </g>
                        </g>
                    </svg>