<svg xmlns="http://www.w3.org/2000/svg" viewBox="0 0 1036.09 541.34"><defs><style>.cls-1{fill:#fff;}.cls-2{fill:#9bb8cc;}.cls-3{fill:#3a383e;}.cls-4,.cls-5{fill:#9e1d22;}.cls-4{opacity:0.2;isolation:isolate;}.cls-6{fill:#479da3;}.cls-7{fill:#b72e41;}.cls-8{fill:#e1ecef;}.cls-9{fill:#f43d4f;}.cls-10{fill:#994f61;}.cls-11{fill:#7bbfba;}</style></defs><g id="Layer_2" data-name="Layer 2"><g id="Layer_1-2" data-name="Layer 1"><g id="Layer_2-2" data-name="Layer 2"><g id="Layer_1-2-2" data-name="Layer 1-2"><path class="cls-1" d="M500.12,72.53H241.21c1.24-4.56,8-20.21,42.7-14.2-5.61-5-9.32-12.69-7.77-20a11.66,11.66,0,0,1,3-6,13.93,13.93,0,0,1,5.24-3c13.65-4.91,37.56,13.91,37.56,13.91-29.27-46,50.52-65.31,51.06-7.1,0,0,11.7-20.91,24.5-15.13,5.21,3,2,11.94-.34,15.87,37.39-18.16,71.41-7,55.56,13.7C489.48,51.33,500.12,72.53,500.12,72.53Z"/><path class="cls-1" d="M97.75,231.67c7.11-12.51,18.78-15.75,38.88-8.89-4-9.17,8.09-27.23,27.51-8.1-5.83-30.71,40.23-34.26,38-4.55,11.51-14.36,41.93-6.19,30.1,11,17.77-4.41,25-.29,36.64,10.59Z"/><path class="cls-1" d="M220.35,72.53H138.74c-3.05-10.53-1.2-22.44,32.13-12.85C181.3,40.29,201.65,59.65,220.35,72.53Z"/><path class="cls-1" d="M956.81,168.43h-81.6c-3.05-10.53-1.2-22.44,32.13-12.85,8.07-15,21.12-12.31,33.34,4.47C962,143.42,976.51,159.91,956.81,168.43Z"/><rect class="cls-1" x="757.24" y="96.37" width="68.62" height="68.62"/><polygon class="cls-2" points="757.24 140.03 825.86 132.85 825.86 96.38 757.24 96.38 757.24 140.03"/><polygon class="cls-3" points="682.46 54.96 832.03 53.28 832.03 129.73 779.76 129.73 682.46 54.96"/><rect class="cls-1" x="396.91" y="96.38" width="68.62" height="68.62"/><polygon class="cls-2" points="465.52 140.03 396.91 132.85 396.91 96.38 465.52 96.38 465.52 140.03"/><polygon class="cls-3" points="540.31 54.96 390.74 53.28 390.74 129.73 443.01 129.73 540.31 54.96"/><polygon class="cls-1" points="845.28 507.82 376.68 507.82 376.68 191.08 610.98 10.07 845.28 191.08 845.28 507.82"/><polygon class="cls-4" points="610.73 10.07 376.42 191.08 376.42 217.48 423.72 180.86 423.72 170.85 576.52 46.46 576.52 62.55 601.06 43.55 845.03 222.88 845.03 191.08 610.73 10.07"/><polygon class="cls-5" points="423.72 507.82 576.52 507.21 576.52 62.55 423.72 180.86 423.72 507.82"/><polygon class="cls-5" points="423.72 170.85 423.72 180.86 576.52 62.55 576.52 46.46 423.72 170.85"/><polygon class="cls-3" points="611 2.03 340.62 202.56 358.22 221.86 611 26.58 863.79 221.86 880.94 198.6 611 2.03"/><rect class="cls-1" x="450.65" y="354.26" width="98.31" height="126.43"/><rect class="cls-3" x="457.05" y="359.97" width="39.08" height="114.02"/><rect class="cls-3" x="503.26" y="359.97" width="39.08" height="114.02"/><rect class="cls-2" x="450.65" y="479" width="98.31" height="1.7"/><rect class="cls-1" x="436.57" y="480.7" width="127.09" height="13.93"/><rect class="cls-1" x="430.37" y="494.24" width="139.5" height="13.58"/><rect class="cls-2" x="436.57" y="492.55" width="127.09" height="1.7"/><rect class="cls-1" x="450.65" y="174.23" width="98.31" height="86.06"/><rect class="cls-3" x="457.05" y="179.94" width="39.08" height="73.65"/><rect class="cls-3" x="503.26" y="179.94" width="39.08" height="73.65"/><polygon class="cls-5" points="555.89 268.29 443.72 273.55 443.72 266.73 555.89 266.73 555.89 268.29"/><polygon class="cls-6" points="446.7 260.3 450.65 260.3 450.65 174.23 448.52 174.23 446.7 260.3"/><rect class="cls-3" x="443.72" y="260.3" width="112.17" height="6.43"/><rect class="cls-3" x="668.98" y="174.23" width="60.5" height="42.54"/><rect class="cls-3" x="604.26" y="174.23" width="59.38" height="42.54"/><polygon class="cls-2" points="729.47 223.16 597.55 223.16 597.55 174.23 595.44 174.23 593.52 227.33 729.47 224.93 729.47 223.16"/><polygon class="cls-2" points="621.8 296.61 619.54 507.82 626.4 507.82 626.4 481.05 626.4 296.61 621.8 296.61"/><rect class="cls-5" x="40.6" y="295.14" width="336.08" height="212.68"/><polygon class="cls-7" points="376.68 299.37 40.6 311.31 40.6 295.14 376.68 295.14 376.68 299.37"/><polygon class="cls-3" points="376.68 295.14 35.4 295.14 35.4 272.93 376.68 277.19 376.68 295.14"/><rect class="cls-1" x="97.75" y="359.97" width="221.77" height="147.85"/><rect class="cls-8" x="97.75" y="370.33" width="221.77" height="2.51"/><rect class="cls-8" x="97.75" y="378.8" width="221.77" height="2.51"/><rect class="cls-8" x="97.75" y="387.27" width="221.77" height="2.51"/><rect class="cls-8" x="97.75" y="395.74" width="221.77" height="2.51"/><rect class="cls-8" x="97.75" y="404.21" width="221.77" height="2.51"/><rect class="cls-8" x="97.75" y="412.68" width="221.77" height="2.51"/><rect class="cls-8" x="97.75" y="421.15" width="221.77" height="2.51"/><rect class="cls-8" x="97.75" y="429.61" width="221.77" height="2.51"/><rect class="cls-8" x="97.75" y="438.08" width="221.77" height="2.51"/><rect class="cls-8" x="97.75" y="446.55" width="221.77" height="2.51"/><rect class="cls-8" x="97.75" y="455.02" width="221.77" height="2.51"/><rect class="cls-8" x="97.75" y="463.49" width="221.77" height="2.51"/><rect class="cls-8" x="97.75" y="471.96" width="221.77" height="2.51"/><rect class="cls-8" x="97.75" y="480.42" width="221.77" height="2.51"/><rect class="cls-8" x="97.75" y="488.89" width="221.77" height="2.51"/><rect class="cls-8" x="97.75" y="497.36" width="221.77" height="2.51"/><polygon class="cls-3" points="322.92 364.16 91.51 364.16 91.51 351.4 322.92 353.85 322.92 364.16"/><polygon class="cls-7" points="376.44 507.82 369.47 507.82 372.46 295.14 376.44 295.14 376.44 507.82"/><rect class="cls-5" x="626.4" y="295.14" width="315.47" height="212.68"/><rect class="cls-7" x="626.4" y="481.05" width="315.47" height="26.77"/><polygon class="cls-7" points="941.87 319.84 626.4 334.62 626.4 311.31 941.87 311.31 941.87 319.84"/><rect class="cls-1" x="702.31" y="354.26" width="163.35" height="102.92"/><rect class="cls-3" x="708.59" y="359.97" width="27.97" height="90.8"/><rect class="cls-3" x="740.95" y="359.97" width="87.12" height="90.8"/><rect class="cls-3" x="832.46" y="359.97" width="27.97" height="90.8"/><polygon class="cls-7" points="865.66 352.94 702.31 352.94 699.89 352.94 697.89 457.19 702.31 457.19 702.31 354.26 865.66 354.26 865.66 352.94"/><polygon class="cls-7" points="702.31 456.32 865.66 456.32 865.66 458.75 697.89 466.18 697.89 456.32 702.31 456.32"/><polygon class="cls-1" points="951.39 311.31 624.52 311.31 624.52 295.96 951.39 295.32 951.39 311.31"/><polygon class="cls-2" points="951.39 299.65 624.52 303.31 624.52 295.96 951.39 295.32 951.39 299.65"/><polygon class="cls-3" points="960.98 290.88 878.8 249.15 698.12 249.15 610.62 292.73 610.62 297.57 960.98 296.18 960.98 290.88"/><rect class="cls-1" x="630.75" y="306.62" width="11.69" height="11.52"/><rect class="cls-1" x="652.53" y="306.62" width="11.69" height="11.52"/><rect class="cls-1" x="674.31" y="306.62" width="11.69" height="11.52"/><rect class="cls-1" x="696.1" y="306.62" width="11.69" height="11.52"/><rect class="cls-1" x="717.88" y="306.62" width="11.69" height="11.52"/><rect class="cls-1" x="761.45" y="306.62" width="11.69" height="11.52"/><rect class="cls-1" x="739.67" y="306.62" width="11.69" height="11.52"/><rect class="cls-1" x="783.24" y="306.62" width="11.69" height="11.52"/><rect class="cls-1" x="805.02" y="306.62" width="11.69" height="11.52"/><rect class="cls-1" x="826.81" y="306.62" width="11.69" height="11.52"/><rect class="cls-1" x="848.59" y="306.62" width="11.69" height="11.52"/><rect class="cls-1" x="870.38" y="306.62" width="11.69" height="11.52"/><rect class="cls-1" x="913.94" y="306.62" width="11.69" height="11.52"/><rect class="cls-1" x="892.16" y="306.62" width="11.69" height="11.52"/><rect class="cls-1" x="935.73" y="306.62" width="11.69" height="11.52"/><rect class="cls-2" x="630.75" y="311.31" width="11.69" height="2.24"/><rect class="cls-2" x="652.53" y="311.31" width="11.69" height="2.24"/><rect class="cls-2" x="674.31" y="311.31" width="11.69" height="2.24"/><rect class="cls-2" x="696.1" y="311.31" width="11.69" height="2.24"/><rect class="cls-2" x="717.88" y="311.31" width="11.69" height="2.24"/><rect class="cls-2" x="761.45" y="311.31" width="11.69" height="2.24"/><rect class="cls-2" x="739.67" y="311.31" width="11.69" height="2.24"/><rect class="cls-2" x="783.24" y="311.31" width="11.69" height="2.24"/><rect class="cls-2" x="805.02" y="311.31" width="11.69" height="2.24"/><rect class="cls-2" x="826.81" y="311.31" width="11.69" height="2.24"/><rect class="cls-2" x="848.59" y="311.31" width="11.69" height="2.24"/><rect class="cls-2" x="870.38" y="311.31" width="11.69" height="2.24"/><rect class="cls-2" x="913.94" y="311.31" width="11.69" height="2.24"/><rect class="cls-2" x="892.16" y="311.31" width="11.69" height="2.24"/><rect class="cls-2" x="935.73" y="311.31" width="11.69" height="2.24"/><rect class="cls-3" x="28.33" y="428.34" width="3.78" height="79.48"/><path class="cls-3" d="M39.38,404.61H15a10.88,10.88,0,0,1,10.8,10.84v16l-2.24.95H48.66a1.55,1.55,0,0,0,1.55-1.55h0V415.45A10.89,10.89,0,0,0,39.38,404.61Z"/><path class="cls-1" d="M15.24,404.62A10.86,10.86,0,0,0,4.65,415.45v15.76a1.14,1.14,0,0,0,1.15,1.15H24.68a1.14,1.14,0,0,0,1.14-1.15V415.45A10.88,10.88,0,0,0,15.24,404.62Z"/><path class="cls-9" d="M35.08,401.11V397h-7v14.36a2.28,2.28,0,1,0,2.28-2.28h0v-7.42Z"/><polygon class="cls-6" points="446.92 480.7 450.65 480.7 450.65 354.26 448.52 354.26 446.92 480.7"/><polygon class="cls-10" points="969.04 506.4 971 478.05 955.31 459.88 956.27 459.1 965.52 467.02 966.88 459.1 968.34 459.48 968.09 469.35 971.85 473.01 973.28 444.04 965.6 434.53 966.46 433.8 974.41 440.16 974.93 425.02 977 425.02 978.37 443.64 980.39 462.15 990.75 450.91 991.72 451.56 987.94 457.5 994.52 457.41 994.52 458.51 987.33 459.61 980.26 470.68 981.87 506.4 969.04 506.4"/><path class="cls-6" d="M1036,403.85a22.62,22.62,0,0,0-1.62-10.38c-1.48-3.21-4.38-5.93-7.88-6.43A5.93,5.93,0,0,0,1021,389c3.94-4.91,7.55-10.28,9.1-16.38s.78-13.07-3.28-17.89c-3.9-4.63-10.43-6.63-16.43-5.75a25.71,25.71,0,0,0-15.35,9c.42-9.47,2.6-19,.87-28.34s-9.14-18.66-18.61-18.24c-6.42.29-11.82,4.89-15.92,9.84a65.94,65.94,0,0,0-14.78,36.5c-2.47-3.38-5-6.81-8.27-9.4s-7.53-4.27-11.66-3.59c-6.8,1.11-11.12,8-12.78,14.72a40.23,40.23,0,0,0,.73,21.76c3.7,11.58,12.39,20.77,20.82,29.53-3.87-1.73-8.75.6-10.63,4.4-2.54,5.16-.12,11.11,3.42,15.22a34.67,34.67,0,0,0,11,8c22.83,11.46,50.6,9.8,73.64-.17,8.55-3.7,14.52-9.82,19.06-18v-.09A36,36,0,0,0,1036,403.85Z"/><path class="cls-6" d="M962.71,452c-1.07-1.24-4.21-1.72-4.15.53-.93-7-10-4.33-5.78,2.33-7-7.27-13.21,2-4.15,6.18-7.7.16-3.4,11.14,3.35,6.35-2.73,1.65-1,5.25,2,4.78C961.77,470.8,969.77,458.31,962.71,452Z"/><path class="cls-11" d="M949,431.36a12.37,12.37,0,0,1-.8-5.78,6,6,0,0,1,3.16-4.68,3.33,3.33,0,0,1,3.25.12,24.37,24.37,0,0,1-7.46-7.26c-1.8-3-2.5-6.82-1.11-10a10.12,10.12,0,0,1,7.81-5.68,14.29,14.29,0,0,1,9.61,2.32c-1.74-5-4.43-9.7-5-14.93s1.89-11.38,7-12.67c3.46-.88,7.07.71,10,2.69a36.74,36.74,0,0,1,13.69,17.05,25.09,25.09,0,0,1,2.89-6.32,8.58,8.58,0,0,1,5.63-3.77c3.79-.5,7.2,2.49,9.15,5.78a22.45,22.45,0,0,1,3.09,11.69c-.12,6.75-3.28,13-6.36,19,1.78-1.54,4.75-1.08,6.36.64,2.17,2.34,1.83,5.89.61,8.64a19.27,19.27,0,0,1-4.56,6c-10.31,9.74-25.35,13.29-39.19,11.67a21.7,21.7,0,0,1-13-6.54h0A19.71,19.71,0,0,1,949,431.36Z"/><path class="cls-6" d="M923.18,407.61a8.1,8.1,0,0,1,.53,5.31,6.8,6.8,0,0,1-4.84-8.31l.09-.29A8.11,8.11,0,0,1,923.18,407.61Z"/><path class="cls-6" d="M915.33,412.63c3.72-.22,6.91,2.49,6.91,2.49s-2.85,3.06-6.57,3.28-6.92-2.49-6.92-2.49S911.6,412.85,915.33,412.63Z"/><path class="cls-6" d="M997,460.7a4.26,4.26,0,0,1-2-2,4.35,4.35,0,0,1,2.85,0,4.4,4.4,0,0,1,2,2A4.23,4.23,0,0,1,997,460.7Z"/><path class="cls-6" d="M998.64,456a5.9,5.9,0,0,1-3.72,1.25,5,5,0,0,1,5.18-4.81h.2A5.86,5.86,0,0,1,998.64,456Z"/><path class="cls-11" d="M996.61,378.05a8,8,0,0,1-4.93,2.05,6.76,6.76,0,0,1,6.53-7h.32A8.09,8.09,0,0,1,996.61,378.05Z"/><path class="cls-11" d="M950.83,393.46A5.71,5.71,0,0,1,953.5,396a4.69,4.69,0,0,1-6.27-2.2,2.29,2.29,0,0,1-.1-.23A5.59,5.59,0,0,1,950.83,393.46Z"/><path class="cls-11" d="M989.53,372c1.29,3.5-.38,7.34-.38,7.34s-3.76-1.84-5-5.34.38-7.34.38-7.34S988.24,368.49,989.53,372Z"/><path class="cls-11" d="M958.17,468a7.44,7.44,0,0,1-2,0,3.75,3.75,0,0,1-2.47-1.25,2.62,2.62,0,0,1-.5-2.38c.41-1.13,1.89-.86,2.57-1.71A2.29,2.29,0,0,0,956,461a4.63,4.63,0,0,1-.07-1.78,1.19,1.19,0,0,1,1.28-1c.44.1.71.52,1,.83a.88.88,0,0,0,.67.35c1.1,0,1.36-1.67,2.52-1.46s1.88,1.48,2.22,2.54a5.66,5.66,0,0,1-1,5.41A6.71,6.71,0,0,1,958.17,468Z"/><path class="cls-11" d="M957.22,507.64c-6.59-9.7-15.05-15.12-26.12-12.08-7.3-16.56-29.42-13.86-34.82,3.29-10.36-3-19.45,1.49-28.06,8.79Z"/><path class="cls-6" d="M407.66,494.61c-8.12-25.78-41.37-29.84-52.35-4.95-13.72-3.77-24.76,1.13-33.78,11.14-4.42-5.59-14.92-7.78-22.73-3.21-6.29-20-32-23.12-40.55-3.84-12.89-3.53-22.73,2.77-30.41,14.07h222C436.89,496.85,423.22,490.15,407.66,494.61Z"/><path class="cls-11" d="M352.35,507.64c-6.6-9.7-15.05-15.12-26.12-12.08-7.3-16.56-29.42-13.86-34.82,3.29-10.36-3-19.45,1.49-28.06,8.79Z"/><path class="cls-6" d="M397.13,472.71a6.79,6.79,0,0,1-4.31,1.26,5.68,5.68,0,0,1,6.07-5.29l.3,0A6.78,6.78,0,0,1,397.13,472.71Z"/><path class="cls-6" d="M391.75,467a9.33,9.33,0,0,1-1,6.11,7.85,7.85,0,0,1-2.95-10.7l.18-.3A9.4,9.4,0,0,1,391.75,467Z"/><path class="cls-11" d="M282.09,492.77a6.78,6.78,0,0,1-2.79,3.53,5.71,5.71,0,0,1,1.92-7.85l.25-.15A6.8,6.8,0,0,1,282.09,492.77Z"/><path class="cls-11" d="M274.41,491.21a9.36,9.36,0,0,1,2.72,5.55,7.85,7.85,0,0,1-8.59-7c0-.12,0-.24,0-.37A9.32,9.32,0,0,1,274.41,491.21Z"/><path class="cls-11" d="M74.77,507.64c-5-7.32-11.36-11.41-19.71-9.12C49.55,486,32.85,488.06,28.77,501c-7.82-2.24-14.68,1.12-21.18,6.63Z"/><path class="cls-6" d="M47,504.3s1.94-3.8,8-5.78l-1-1.91C50.47,498.35,47.78,501.31,47,504.3Z"/><path class="cls-6" d="M28.77,501s3.71,1.69,5.16,3.68a11.44,11.44,0,0,0-4.62-5.16Z"/><rect class="cls-3" x="2.02" y="506.15" width="1005.59" height="3.34"/></g></g><path class="cls-3" d="M1008.41,512.7A29.28,29.28,0,0,1,979,541.34H29.16C14.23,541.27,2,531,.21,511.48Z"/><path class="cls-1" d="M1008.41,506.16v6.54L.21,511.48c-.14-1.56-.21-3.2-.21-4.87V505.5Z"/></g></g></svg>