<svg xmlns="http://www.w3.org/2000/svg" viewBox="0 0 1081.49 349.68"><defs><style>.cls-1{fill:#3a383e;}.cls-2{fill:#f7d872;}.cls-3{fill:#00c29d;}.cls-4{fill:#f8aa61;}.cls-5{fill:#fff;}.cls-6{fill:#ff636f;}.cls-7{fill:#f2d375;}.cls-8{fill:#35b799;}.cls-9{fill:#f9a764;}</style></defs><g id="Layer_2" data-name="Layer 2"><g id="Layer_1-2" data-name="Layer 1"><path class="cls-1" d="M355.78,301.16H303.22v40.43h52.56Z"/><path class="cls-1" d="M6.06,293.07H40.42V260.73a31.5,31.5,0,0,1-10.09,22.86A35.52,35.52,0,0,1,6.06,293.07Z"/><path class="cls-1" d="M50.49,258.71H38.4v62.67H50.49Z"/><polygon class="cls-1" points="70.75 293.07 70.75 301.16 66.7 301.16 66.7 297.12 62.66 297.12 62.66 301.16 6.07 301.16 6.07 293.07 70.75 293.07"/><path class="cls-1" d="M83.56,244.56V256.5H68.12v9.8H60.64v51h58.62V244.56Zm-20.9,28.3h4v6.06h-4Zm0,12.13h4v6.06h-4Zm4,18.19h-4v-6.06h4Zm8.09,0h-4v-6.06h4Zm0-12.13h-4V285h4Zm0-12.13h-4v-6.06h4Zm12.13,24.26h-4v-6.06h4Zm0-12.13h-4V285h4Zm0-12.13h-4v-6.06h4ZM95,303.18h-4v-6.06h4Zm0-12.13h-4V285h4Zm0-12.13h-4v-6.06h4Z"/><path class="cls-1" d="M60.64,264.77v52.56h54.58V264.77Zm2,14.15v-6.06h4v6.06Zm4,6.07v6.06h-4V285Zm0,18.19h-4v-6.06h4Zm8.09,0h-4v-6.06h4Zm0-12.13h-4V285h4Zm0-12.13h-4v-6.06h4Zm12.13,24.26h-4v-6.06h4Zm0-12.13h-4V285h4Zm0-12.13h-4v-6.06h4ZM95,303.18h-4v-6.06h4Zm0-12.13h-4V285h4Zm0-12.13h-4v-6.06h4Z"/><path class="cls-1" d="M276.94,224.34H260.77V323.4h16.17Z"/><path class="cls-1" d="M125.33,218.28H99.05V319.35h26.28Z"/><path class="cls-1" d="M127.35,218.28H95v6.06h32.34Z"/><path class="cls-1" d="M125.33,228.39H99.05v4h26.28Z"/><path class="cls-1" d="M125.33,238.49H99.05v2h26.28Z"/><path class="cls-1" d="M125.33,246.58H99.05v4h26.28Z"/><path class="cls-1" d="M125.33,254.67H99.05v4h26.28Z"/><path class="cls-1" d="M125.33,262.75H99.05v4.05h26.28Z"/><path class="cls-1" d="M125.33,272.86H99.05v2h26.28Z"/><path class="cls-1" d="M125.33,281H99.05v4h26.28Z"/><path class="cls-1" d="M125.33,289H99.05v4h26.28Z"/><path class="cls-1" d="M125.33,297.12H99.05v4h26.28Z"/><path class="cls-1" d="M394.18,212.22H345.67V339.57h48.51Z"/><path class="cls-2" d="M406.31,185.94H382.06V323.4h24.25Z"/><path class="cls-3" d="M410.36,192h-28.3v4h28.3Z"/><path class="cls-3" d="M410.36,202.11h-28.3v4h28.3Z"/><path class="cls-3" d="M410.36,210.19h-28.3v4.05h28.3Z"/><path class="cls-3" d="M410.36,218.28h-28.3v4h28.3Z"/><path class="cls-3" d="M410.36,226.37h-28.3v4h28.3Z"/><path class="cls-3" d="M410.36,236.47h-28.3v4h28.3Z"/><path class="cls-3" d="M410.36,244.56h-28.3v4h28.3Z"/><path class="cls-3" d="M410.36,252.65h-28.3v4h28.3Z"/><path class="cls-3" d="M410.36,262.75h-28.3v4.05h28.3Z"/><path class="cls-3" d="M410.36,270.84h-28.3v4h28.3Z"/><path class="cls-3" d="M410.36,278.92h-28.3V283h28.3Z"/><path class="cls-3" d="M410.36,287h-28.3v4h28.3Z"/><path class="cls-3" d="M410.36,297.12h-28.3v4h28.3Z"/><path class="cls-3" d="M410.36,305.2h-28.3v4h28.3Z"/><path class="cls-3" d="M410.36,313.29h-28.3v4h28.3Z"/><path class="cls-1" d="M329.49,183.91H276.94V327.44h52.55Z"/><path class="cls-1" d="M325.49,192H283v4h42.49Z"/><path class="cls-1" d="M325.49,200.09H283v4h42.49Z"/><path class="cls-1" d="M325.49,208.17H283v6.07h42.49Z"/><path class="cls-1" d="M325.49,218.28H283v4h42.49Z"/><path class="cls-1" d="M325.49,226.37H283v6.06h42.49Z"/><path class="cls-1" d="M325.49,236.47H283v4h42.49Z"/><path class="cls-1" d="M325.49,244.56H283v4h42.49Z"/><path class="cls-1" d="M325.49,252.65H283v6.06h42.49Z"/><path class="cls-1" d="M325.49,262.75H283v4.05h42.49Z"/><path class="cls-1" d="M325.49,270.84H283v6.06h42.49Z"/><path class="cls-1" d="M325.49,281H283v4h42.49Z"/><path class="cls-1" d="M325.49,289H283v4h42.49Z"/><path class="cls-1" d="M325.49,297.12H283v6.06h42.49Z"/><path class="cls-1" d="M325.49,307.23H283v4h42.49Z"/><path class="cls-1" d="M325.49,315.31H283v6.07h42.49Z"/><path class="cls-4" d="M254.7,82.84h-4v44.47h4Z"/><path class="cls-4" d="M260.77,131.36H244.6v82.88h16.17Z"/><path class="cls-4" d="M260.77,131.36H244.6L251,105.08h3.42Z"/><path class="cls-4" d="M264.81,145.51H240.55v113.2h24.26Z"/><path class="cls-4" d="M268.85,175.83H236.49V325.42h32.34Z"/><path class="cls-2" d="M246.62,179.87h-6.07v6.07h6.07Z"/><path class="cls-2" d="M254.7,179.87h-4v6.07h4Z"/><path class="cls-2" d="M262.79,179.87h-4v6.07h4Z"/><path class="cls-2" d="M246.62,190h-6.07v6h6.07Z"/><path class="cls-2" d="M254.7,190h-4v6h4Z"/><path class="cls-2" d="M262.79,190h-4v6h4Z"/><path class="cls-2" d="M246.62,202.11h-6.07v6.06h6.07Z"/><path class="cls-2" d="M254.7,202.11h-4v6.06h4Z"/><path class="cls-2" d="M262.79,202.11h-4v6.06h4Z"/><path class="cls-2" d="M246.62,212.22h-6.07v6.06h6.07Z"/><path class="cls-2" d="M254.7,212.22h-4v6.06h4Z"/><path class="cls-2" d="M262.79,212.22h-4v6.06h4Z"/><path class="cls-2" d="M246.62,224.34h-6.07v6.07h6.07Z"/><path class="cls-2" d="M254.7,224.34h-4v6.07h4Z"/><path class="cls-2" d="M262.79,224.34h-4v6.07h4Z"/><path class="cls-2" d="M246.62,234.45h-6.07v6.07h6.07Z"/><path class="cls-2" d="M254.7,234.45h-4v6.07h4Z"/><path class="cls-2" d="M262.79,234.45h-4v6.07h4Z"/><path class="cls-2" d="M246.62,244.56h-6.07v6.06h6.07Z"/><path class="cls-2" d="M254.7,244.56h-4v6.06h4Z"/><path class="cls-2" d="M262.79,244.56h-4v6.06h4Z"/><path class="cls-2" d="M246.62,256.69h-6.07v6.06h6.07Z"/><path class="cls-2" d="M254.7,256.69h-4v6.06h4Z"/><path class="cls-2" d="M262.79,256.69h-4v6.06h4Z"/><path class="cls-2" d="M246.62,266.8h-6.07v6.06h6.07Z"/><path class="cls-2" d="M254.7,266.8h-4v6.06h4Z"/><path class="cls-2" d="M262.79,266.8h-4v6.06h4Z"/><path class="cls-2" d="M246.62,278.92h-6.07V285h6.07Z"/><path class="cls-2" d="M254.7,278.92h-4V285h4Z"/><path class="cls-2" d="M262.79,278.92h-4V285h4Z"/><path class="cls-2" d="M246.62,289h-6.07v6.07h6.07Z"/><path class="cls-2" d="M254.7,289h-4v6.07h4Z"/><path class="cls-2" d="M262.79,289h-4v6.07h4Z"/><path class="cls-2" d="M246.62,301.16h-6.07v6.07h6.07Z"/><path class="cls-2" d="M254.7,301.16h-4v6.07h4Z"/><path class="cls-2" d="M262.79,301.16h-4v6.07h4Z"/><path class="cls-2" d="M246.62,311.27h-6.07v6.06h6.07Z"/><path class="cls-2" d="M254.7,311.27h-4v6.06h4Z"/><path class="cls-2" d="M262.79,311.27h-4v6.06h4Z"/><path class="cls-5" d="M123.58,259.27l-2.3-4.52,9.33-8.17h17.93l9.13,8.17-13.57,8Z"/><path class="cls-2" d="M157.67,254.67H121.28v76.81h36.39Z"/><path class="cls-5" d="M131.39,260.73h-4v6.07h4Z"/><path class="cls-5" d="M137.49,260.73h-2v6.07h2Z"/><path class="cls-5" d="M145.54,260.73h-4v6.07h4Z"/><path class="cls-5" d="M131.39,270.84h-4v8.08h4Z"/><path class="cls-5" d="M137.49,270.84h-2v8.08h2Z"/><path class="cls-5" d="M145.54,270.84h-4v8.08h4Z"/><path class="cls-5" d="M131.39,283h-4v8.08h4Z"/><path class="cls-5" d="M137.49,283h-2v8.08h2Z"/><path class="cls-5" d="M145.54,283h-4v8.08h4Z"/><path class="cls-5" d="M131.39,295.1h-4v8.08h4Z"/><path class="cls-5" d="M137.49,295.1h-2v8.08h2Z"/><path class="cls-5" d="M145.54,295.1h-4v8.08h4Z"/><path class="cls-4" d="M198.1,211.22H151.61v113.2H198.1Z"/><path class="cls-4" d="M276.94,289H238.49v46.5H276.9Z"/><path class="cls-4" d="M198.1,211.22H167.78v114.2H198.1Z"/><path class="cls-1" d="M84.9,315.31H8.08v10.11H84.9Z"/><path class="cls-1" d="M246.62,200.09H198.1V329.46h48.52Z"/><path class="cls-1" d="M216.29,168.76V315.31H179.91v-8.08H198.1v-5.05H179.91v-4H198.1v-4H179.91v-4.05H198.1v-4H179.91v-4H198.1v-4.05H179.91V272H198.1v-4H179.91v-4H198.1v-4H179.91v-4H198.1v-4H179.91v-4H198.1v-4H179.91V237.9H198.1v-4H179.91v-4H198.1v-4H179.91v-4.05H198.1v-4H179.91v-4H198.1v-4H179.91v-6.06H198.1v-4H179.91v-4H198.1v-4H179.91v-4H198.1v-4H179.91v-4H198.1v-4H179.91v-6.07H186v-11.6a22.39,22.39,0,0,1,24.26,0v11.6Z"/><path class="cls-6" d="M232.49,307.23H78.83v28.3H232.49Z"/><path class="cls-2" d="M307.26,303.18h60.65v-7.72l-30.33-2.39-30.32,2.39Z"/><path class="cls-1" d="M309,86.88h-5.79v28.3h10.11V91Z"/><path class="cls-1" d="M313.33,116,309,111.15,303.22,116v11.32h10.11Z"/><path class="cls-6" d="M316.15,149.55l-10.91-7v-17.3h12.13Z"/><path class="cls-1" d="M314,127.31l13.5-1.13-6.77-4.93-7.38,2.84Z"/><path class="cls-2" d="M309.28,78.8h-6.06V95h6.06Z"/><path class="cls-2" d="M313.33,82.84H299.18V76.78h7.05Z"/><path class="cls-2" d="M313.33,76.78h-8.09v6.06h8.09Z"/><path class="cls-1" d="M305.24,86.88h-6.06V93h6.06Z"/><path class="cls-1" d="M331.49,127.31,317,135.91l-3.74,8.68V188h18.19Z"/><path class="cls-6" d="M345.38,119.23l-5.78,18.19,20.22-2.52Z"/><path class="cls-6" d="M368.21,149.55,335.56,155l13.84,35L374,163.85Z"/><path class="cls-1" d="M351.92,228.37H319.39l2.4-5.74-2.4-2.26v-89h36.39l-3.86,64.7Z"/><path class="cls-1" d="M359.82,139.44H343.65v14.15h16.17Z"/><path class="cls-1" d="M319.39,99l11.1,10.12L341.63,99Z"/><path class="cls-1" d="M335.56,99l10.11,10.11L355.78,99Z"/><path class="cls-1" d="M351.73,163.7h4V196l-4,2.05Z"/><path class="cls-1" d="M345.67,196h-4v32.35h4Z"/><path class="cls-1" d="M347.69,196h8.09v32.84l-8.09,3.55Z"/><path class="cls-1" d="M329.49,103.06h16.17V86.88Z"/><path class="cls-6" d="M345.67,103.06H329.49v26.27h16.17Z"/><path class="cls-1" d="M331.49,105.08v10.39a5.66,5.66,0,0,0,.46,2.22,5.83,5.83,0,0,0,1.32,1.87,6.13,6.13,0,0,0,2,1.25,6.39,6.39,0,0,0,2.33.44,6.23,6.23,0,0,0,4.27-1.7,5.68,5.68,0,0,0,1.77-4.08V105.18Z"/><path class="cls-1" d="M329.49,86.88v16.18h16.17Z"/><path class="cls-5" d="M299.18,72.73h14.15V58.58Z"/><path class="cls-1" d="M331.49,149.55H313.33v18.19Z"/><path class="cls-1" d="M331.49,188H313.33v14.15Z"/><path class="cls-1" d="M363.86,155.61H347.69v16.18Z"/><path class="cls-1" d="M355.78,196H341.63v16.18Z"/><path class="cls-1" d="M345.67,212.22H329.49v16.17Z"/><path class="cls-1" d="M327.49,163.7h-8.1v8.09Z"/><path class="cls-1" d="M341.63,165.72h8.08l-1.1-10.11Z"/><path class="cls-1" d="M327.49,220.3h-8.1v8.09Z"/><path class="cls-1" d="M355.78,133.38H319.39l13-6.07h23.44Z"/><path class="cls-1" d="M355.78,147.53a10.11,10.11,0,1,0-10.11-10.11h0A10.11,10.11,0,0,0,355.78,147.53Z"/><path class="cls-1" d="M365.88,137.42a10.11,10.11,0,0,0-10.1-10.11v10.11Z"/><path class="cls-6" d="M376.41,147.93,358.1,166.25l3.56,3.55L380,151.47Z"/><path class="cls-1" d="M366.57,137.91l-18.31,18.32,10.05,10L376.62,148Z"/><path class="cls-1" d="M355.78,228.39H319.39v8.08h36.39Z"/><path class="cls-1" d="M359.82,232.43H313.33v8.09h46.49Z"/><path class="cls-1" d="M313.33,127.31v16.17l18.16-16.17Z"/><path class="cls-1" d="M313.93,115.69l-13.54,13.54,6.31,6.3L320.23,122Z"/><path class="cls-2" d="M359.82,252.65H313.33v40.42h46.49Z"/><path class="cls-2" d="M359.82,241.19l-23.26,1.35-23.23-1.35v-2.7h46.49Z"/><path class="cls-2" d="M359.82,242.54H313.33v4h46.49Z"/><path class="cls-2" d="M367.91,246.58H307.26v6.07h60.65Z"/><path class="cls-2" d="M359.82,252.65H313.33v2h46.49Z"/><path class="cls-2" d="M359.82,281H313.33v4h46.49Z"/><path class="cls-2" d="M359.82,285H313.33v2h46.49Z"/><path class="cls-2" d="M327.49,258.71h-6.07v20.21h6.07Z"/><path class="cls-2" d="M341.63,258.71h-8.09v20.21h8.09Z"/><path class="cls-2" d="M353.76,258.71h-6.07v20.21h6.07Z"/><path class="cls-2" d="M361.31,291.05l6.6,4.05H307.26l6.62-4.05Z"/><path class="cls-2" d="M378,301.16H297.15v18.19H378Z"/><path class="cls-2" d="M420.49,301.16H378v18.19h42.48Z"/><path class="cls-2" d="M430.57,317.33h-186v6.07h186Z"/><path class="cls-2" d="M297.15,301.16H252.68v18.19h44.47Z"/><path class="cls-1" d="M421.49,115.18l-11.11,24.27,11.11,24.25,11.12-24.25Z"/><path class="cls-2" d="M432.59,137.42H410.36v91h22.23Z"/><path class="cls-2" d="M436.64,171.79H402.27V329.46h34.37Z"/><path class="cls-2" d="M406.31,171.79h-4v169.8h4Z"/><path class="cls-2" d="M414.4,171.79h-4v169.8h4Z"/><path class="cls-2" d="M422.49,171.79h-4v169.8h4Z"/><path class="cls-2" d="M430.57,171.79h-2v169.8h2Z"/><path class="cls-2" d="M438.66,171.79h-2v169.8h2Z"/><path class="cls-5" d="M675.17,323.4H0v4H675.17Z"/><path class="cls-2" d="M438.66,169.76H402.27v4.05h36.39Z"/><path class="cls-6" d="M313.39,134.39l10-8.87-2.15-4.27-16,14.15Z"/><path class="cls-1" d="M952.11,329.26l-.62-48.57-11-.16h-2.92l-4-8.45.25-3.95c1.61-3.6-.33-4.23-.33-4.23s0-14.95-5.31-24.34c-6.57-11.47-12.47-13.82-12.47-13.82l-1.45-21.4s-1.5-5.09-3.91-6.79a10.13,10.13,0,0,0-4,8.1c-.2,5.59.21,20.48.21,20.48a48.59,48.59,0,0,0-8.6,9.34v-3.08c0-2-.29-4.3-1.09-4.95a16.55,16.55,0,0,1-2.93-4.11l-.8-7.57s1.36-6.08-.34-7.55-2.42-2.17-2.42-2.17l-.37-1.87c-1.23-6.33-4.59-21.73-9.34-28.27-8-11.12-18.06-19.34-20.56-25.15S858,128.31,858,128.31s-.14-13.41-5.49-17.78l-.16-8.94s-.68-.38-1.07-.56V202.15h4l.12,10.89h-4.14v19.23l11.2,7.39.15,13.53,18.78,12.37v4.9L859.19,254.4V241.64L851,235.89l.1,43.85a7.41,7.41,0,0,1,1.78,1,10.2,10.2,0,0,1,3.51,6.58,7.47,7.47,0,0,1,.12.95l.31,30V321h-5.74v8.31l36.62.2,11.18-.12ZM921.84,268c3.8,0,3.91,4,3.91,4v8.63H918V272S918,268.05,921.84,268Zm-34.23-48.58a67.2,67.2,0,0,0-7.26-2.68l-.11-10.91a64.64,64.64,0,0,1,7.27,2.69Zm-14-15.24.12,10.88a81.25,81.25,0,0,0-9.17-1.42l-.11-10.91a85.9,85.9,0,0,1,9.16,1.43ZM867.3,320.72v-6.16l-.22-20.27s0-5.79,4.68-7.25a6.8,6.8,0,0,1,2.24-.33,7.52,7.52,0,0,1,2.31.29c4.75,1.38,5,7.13,5,7.13l.12,13,.14,13.39Zm38.4-52.62c3.91,0,3.91,3.95,3.91,3.95v8.59h-7.82V272.1a4,4,0,0,1,1.16-2.77,3.89,3.89,0,0,1,2.75-1.14Zm-7.21,24.64v-5.93h.12l.27,33.72v-2.66Z"/><path class="cls-1" d="M845.49,288.06a5,5,0,0,1,0-.95,10.3,10.3,0,0,1,3.59-6.59,7.87,7.87,0,0,1,1.82-1v-43.7l-8.15,5.63v12.78l-22.63,16v-4.9L839.34,253l.16-13.53L851,232.09v-19h-4.21V202.16h4.11V101l-1.1.54-.16,9c-5.47,4.33-5.61,17.78-5.61,17.78s.34,16.61-2.2,22.44-12.78,14-21,25.14c-4.83,6.56-8.29,21.95-9.54,28.27-.36,1.82-.38,2-.38,2s-.76.73-2.48,2.18-.34,7.56-.34,7.56l-.82,7.54a17.08,17.08,0,0,1-3,4.11c-.82.68-1.08,3-1.12,5v3.1a48.46,48.46,0,0,0-8.79-9.36s.42-14.87.22-20.46a10,10,0,0,0-1.09-4.54,10.08,10.08,0,0,0-3-3.58c-2.45,1.7-4,6.79-4,6.79L785,225.9s-6,2.38-12.72,13.83C766.76,249,766.82,264,766.82,264s-2,.63-.36,4.22l.26,4-4.12,8.46h-2.79l-11.23.13-.64,48.59h54.25l11.42.12,37.43-.21V321h-5.87v-2.65Zm-62.91-7.48h-8v-8.64s.2-4.06,4-3.95,3.82,4.13,3.82,4.13Zm16.55.14h-8v-8.6s.16-4.07,4-3.95,3.83,4.11,3.83,4.11Zm3.54,11.94-.28,25.13v2.76l.28-33.81h.12Zm34.85-90.08-.12,10.88a87.18,87.18,0,0,0-9.37,1.42l.12-10.88a90.13,90.13,0,0,1,9.39-1.42Zm-16.16,3.1-.12,10.9a67.48,67.48,0,0,0-7.41,2.67l.12-10.91a64.51,64.51,0,0,1,7.41-2.62Zm13.3,108.77v6.16l-14.5-.16.14-13.39.14-13s.22-5.75,5.08-7.13a8.52,8.52,0,0,1,2.35-.3,7.9,7.9,0,0,1,2.32.34c4.81,1.46,4.75,7.24,4.75,7.24Z"/><path class="cls-1" d="M1003,119.08c-.18.81.28,2-1.4,1.12s-4.17,2.45-5.59,1.15a4.41,4.41,0,0,0-2.17-.88,4.2,4.2,0,0,0-2.29.38,5.7,5.7,0,0,0-1.7,2.3,14.9,14.9,0,0,0,2.15,4.56,5.21,5.21,0,0,0,2.63,1.15s2-2.77,3.84-2.3,2.3,4.07,1.55,4.9a3.24,3.24,0,0,0,0,3.58c.6,1.13-.17,5.21-.32,7.19s-3.38,5.69-2.78,7.29,2.15,3.6,2.63,4.72a14.7,14.7,0,0,1-.63,7.35c-.75,1.29-2.91,3.6-4,3.6s-2.63-3.6-2.16-4.43-2.46,1.78-2.46,3.1a9.75,9.75,0,0,1-.8,3.14s-.76.15-1.69,1.79a6.72,6.72,0,0,0,0,5.52,6.17,6.17,0,0,1,.05,2.67,5.76,5.76,0,0,1-1.12,2.4c-.91,1.31-2.14,0-3.37,1.78s-2.62,4.39-3.85,4.88-1.08,4.58-.46,6.18,2.61,5.7,2.14,6.84a4.51,4.51,0,0,0,1,3.6,11.16,11.16,0,0,1,1.3,3.34,26.33,26.33,0,0,0,1.87,3.76v38.46s-4,5.38-3.84,6.82.31,5.93-1.24,6.7a18.12,18.12,0,0,0-5.82,7.66,39.13,39.13,0,0,0,0,5.93c-.16,2-.63,3.95.17,5.06s2.91,3.75,2.28,3.95-2.59.83-2.76,1.6a90.41,90.41,0,0,0-2,10.45c.15,1.32-1.08,4.07-1.08,5.37a43.34,43.34,0,0,0-.17,4.41c.15,1.78-.79,5.51-.64,6a8,8,0,0,1,.23,1.83v15.47h34.18V115.18C1003,115.28,1003.13,118.27,1003,119.08Z"/><path class="cls-1" d="M1043.08,313.67s-1.19-9.27-1.45-11.86a34.22,34.22,0,0,0-.74-6.13,10.92,10.92,0,0,0-1.22-2.47,31.62,31.62,0,0,0-1.23-7.1,23.87,23.87,0,0,0-5.18-2.88,40.83,40.83,0,0,0,4.7-8.09c.5-2.19-.24-7.81-2-8.77s-3.41-1.23-3.41-3.21-.26-3.18-1.5-3.63a28.24,28.24,0,0,1-3.7-2.73,19,19,0,0,1-2.46-2.91V211s2.46-3.66,2.2-5.4a19.23,19.23,0,0,1,0-5.14c.24-.71,3.44-7.91,3.21-9s4.2,1,4.2,1,.5-3.44-.74-4.39-6.41-4-4.22-4.9a8,8,0,0,1,5.46.47s0-3.14-2.23-3.95-1.24-3.7-3.73-4.41-5.44,1-7.65.25-2.71-2.68-4.41-4.66a35.52,35.52,0,0,0-3.7-3.66s6-3.26,5.66-6-4-7-4.93-10.91-.34-8.16-1.47-9.88a24.21,24.21,0,0,0-2.63-3.26l.15-3.26s4.45,2.45,6,3.08,2.79,4.09,3.29,3.75a5.85,5.85,0,0,0,.11-2.53,6,6,0,0,0-.94-2.37c-1-.81-4.43-2.59-6-4a7.3,7.3,0,0,1-2.32-4.71,4.85,4.85,0,0,0-.27-2,5,5,0,0,0-1-1.76,14.57,14.57,0,0,1-2.29-1.42c-.74-.68,1-2.53,1-3.84a2.59,2.59,0,0,0-.16-1.1,2.72,2.72,0,0,0-2.65-1.76h-.1V329.46h38.39Z"/><path class="cls-1" d="M600.38,156.59l-2.22-1-6,18-12,3.6.6,2.66,13-3.85v-.4l.31.13Z"/><path class="cls-1" d="M676.55,259.69l-.66,2.11h-1.7v2.92h-2.61v-7.59h-1.16v-4.07h-.48l-.42-3-.58-3.91-.58,3.91-.44,3h-.6v4.07H666.2v7.59h-3.81V261.8h-1.68l-.64-2.11-.7-2.27-.69,2.27L658,261.8h-1.68v2.92h-2.6v-7.24h-1.13v-4.23h-.72l-.46-3.07-.58-3.91-.58,3.91-.44,3.07h-.58v4.23h-1.14v7.18H644.3v-2.91h-1.68l-.66-2.12-.68-2.27-.68,2.27-.64,2.12h-1.69v2.91h-2.56v-7.59h-1.14V253H634l-.45-3-.58-3.91-.58,3.91-.44,3h-.58v4.07h-1.14v7.59h-3.87v-2.91h-1.68l-.64-2.12-.7-2.27-.68,2.27-.64,2.12h-.62l-.18-60.68h2.6V141.4h-2.6V129.93h-.53L608,108.4h-.14V87.2h-.14L591.08,51V40.39h-.34V51.1L574.11,87.2H574v21.69L561,130h-.54v11.47h-2.6V201.3h2.6V323.4h116.7V257.64Zm-84.63-67.8H590.8c-10.38-.64-18.63-10.21-18.63-22s8.25-21.32,18.63-22h1.12c10.88,0,19.73,9.78,19.73,22S602.8,191.89,591.92,191.89Z"/><path class="cls-1" d="M823.81,250.52V240.08h-.25a5.92,5.92,0,0,0-1.53-2.46,6.06,6.06,0,0,0-2.53-1.45l-.81-3.17-1.2-4.77L816.26,233l-.81,3.22a6,6,0,0,0-4,3.4h-.69V222.16h-2v-9.78h-1.27l-.87-4.22L805,200.09l-1.64,8.07-.85,4.22h-1.37v9.78h-2v17.41H795v8.33l-4.9,3v13.41h-3.22v-2.93h-1.7l-.63-2.15-.69-2.31-.68,2.31-.65,2.15h-1.68v2.93h-2.8v-7.66H777v-4.11h-.59l-.44-3-.59-3.91-.6,3.91-.41,3h-.59v4.11h-1v7.66h-3.56v-2.93h-1.7l-.65-2.15-.67-2.31-.7,2.31-.63,2.15h-1.7v2.93h-2.69v-8.09h-1.12v-3.91h-.59l-.44-2.85-.57-3.76-.58,3.76-.45,2.85h-.57v3.91H755.1v8.09h-3.64v-2.93h-1.68l-.65-2.15-.67-2.31-.69,2.31-.64,2.15h-1.7v2.93h-2.74v-8.09h-1.2v-3.91h-.59l-.44-2.85-.57-3.76-.59,3.76-.44,2.85h-.57v3.91h-1.15v8.09h-3.65v-2.93H731.8l-.63-2.15-.68-2.23-.67,2.31-.65,2.15h-1.8v2.93h-2.68v-7.66h-1.15v-4.11H723l-.44-3-.57-3.91-.12.75v.89l-.43,3-.44,3h-.57v4.06h-1.13V265H715.6V262h-1.66l-.64-2.11-.69-2.26-.67,2.26-.63,2.11h-1.66v2.92H707V257.1h-1.13v-3.9h-.59l-.44-2.89-.57-3.78-.55,3.78-.46,2.89h-.57v3.91h-1v7.82H698V262h-1.66l-.64-2.11-.67-2.26-.69,2.26-.63,2.11h-1.68v2.92h-2.61v-7.25h-1.13v-4.23h-.57l-.44-3.06-.57-3.91-.57,3.91-.44,3.06h-.59v4.23h-1.24v7.17h-3.71v-2.91h-1.69l-.64-2.11-.69-2.27V323.4h147V264.5l.53-.26V252.32Z"/><path class="cls-1" d="M524.39,257.79s-7.58-28.1-7.95-35.47h-9V0h.32V12.72a1.18,1.18,0,0,1,.55.41,1.19,1.19,0,0,1,.23.65V25.56h.89a2,2,0,0,1,2.11,1.82,1.75,1.75,0,0,1-.24.89h.95a2.81,2.81,0,0,1,2,.68,2.76,2.76,0,0,1,.94,1.89v1.8a2.34,2.34,0,0,1-.31,1.18,2.72,2.72,0,0,1,1.39.91,2.59,2.59,0,0,1,.59,1.55s-1.33,10.38-3,10.38h-.4c-.39,57.18,11.21,133.19,14.23,152.07h2.4a2.82,2.82,0,0,1,1.08.14,2.77,2.77,0,0,1,1.88,2.43s-1.31,5-3,5h-1c3.1,16,9.93,34,17.7,51h7.08v14.77a587.88,587.88,0,0,0,30.41,53.37H551.9c-.56-22.24-20.21-40.11-44.46-40.22v-27.5Z"/><path class="cls-1" d="M490.49,257.79s7.58-28.1,7.95-35.47h9V0h-.32V12.72a1.18,1.18,0,0,0-.55.41,1.19,1.19,0,0,0-.23.65V25.56h-.89a2,2,0,0,0-2.11,1.82,1.75,1.75,0,0,0,.24.89h-.95a2.81,2.81,0,0,0-2,.68,2.76,2.76,0,0,0-.94,1.89v1.8a2.34,2.34,0,0,0,.31,1.18,2.72,2.72,0,0,0-1.39.91,2.59,2.59,0,0,0-.59,1.55s1.33,10.38,3,10.38h.4c.39,57.18-11.21,133.19-14.23,152.07h-2.4a2.82,2.82,0,0,0-1.08.14,2.77,2.77,0,0,0-1.88,2.43s1.31,5,3,5h1c-3.1,16-9.93,34-17.7,51h-7.08v14.77a587.88,587.88,0,0,1-30.41,53.37H463c.56-22.24,20.21-40.11,44.46-40.22v-27.5Z"/><path class="cls-7" d="M682,306.38l.53-4.38a1.86,1.86,0,0,0,.27-.79,2,2,0,0,0-1.21-2l-.59-3.79-5.26-.57c-2.45-4.55-4.91-20.07-4.91-20.07l.16-2.09a7,7,0,0,1,1.68-4l-3.38-1.53-.48-2.64-6.29-2L657.34,244l.94-1.52-.62-2,1.22-3.42L656.12,236l-.46-4-3.23-1.32c-.78-5.12-7.85-22.73-7.85-22.73L643,205.5l.92-3.42c-19.83-8-44.85-8.74-63.72-7.67v42c2.54,0,4.61,2.59,4.61,5.79v9.45a6.06,6.06,0,0,1-.24,1.8c-1.49,0-3,.12-4.45.18v13.83a7.08,7.08,0,0,1,2.38,5.5v10.85a7.63,7.63,0,0,1-1.1,4h-1.28v41.74H685.28C684,322.84,682,306.38,682,306.38ZM635.26,245a4.15,4.15,0,0,1,0-1.92,4.28,4.28,0,0,1,.85-1.72,4.39,4.39,0,0,1,6.81,0,4.18,4.18,0,0,1,.86,3.64v12.57c-2.81-.55-5.67-1-8.54-1.48ZM621.8,212.68H626v6.43H621.8Zm-.4,30.11a4.24,4.24,0,0,1,.06-1.94,4.34,4.34,0,0,1,.88-1.72A4.53,4.53,0,0,1,627.7,238a4.44,4.44,0,0,1,1.54,1.18,4.34,4.34,0,0,1,.88,1.72,4.24,4.24,0,0,1,.06,1.94v12.6c-2.91-.37-5.83-.67-8.78-.94Zm-28.54-32.38H597v6.44h-4.15Zm2,111.14H584v-12.2c0-4.86,2.41-8.83,5.41-8.83s5.43,4,5.43,8.83Zm4-37a7.62,7.62,0,0,1-.7,3.22h-9.5a7.75,7.75,0,0,1-.66-3.18V273.67c0-3.68,2.44-6.64,5.43-6.64s5.43,3,5.43,6.64Zm1.38-31.41v.24h-9.68V241.45a4.92,4.92,0,0,1,0-2.16,4.84,4.84,0,0,1,1-2,5,5,0,0,1,1.71-1.34,5.1,5.1,0,0,1,2.14-.48,4.9,4.9,0,0,1,4.76,6ZM612,321.59H601.15V310.21c0-4.43,2.43-8,5.43-8s5.43,3.57,5.43,8Zm2.76-36.47a7.71,7.71,0,0,1-.58,3c-3.26,0-6.51-.2-9.77-.26a7.83,7.83,0,0,1-.5-2.75V274.2c0-3.67,2.44-6.64,5.44-6.64s5.41,3,5.41,6.64Zm1.16-32.65a6.79,6.79,0,0,1-.18,1.56q-4.5-.28-9-.47a6.61,6.61,0,0,1,0-1.09V243c0-3.2,2-5.79,4.61-5.79S616,239.8,616,243Zm12.46,69.18H617.54v-11.4c0-4.88,2.44-8.83,5.43-8.83s5.42,3.95,5.42,8.83ZM630.94,286a7.78,7.78,0,0,1-.5,2.83c-3.23-.18-6.51-.34-9.78-.46a8.28,8.28,0,0,1-.34-2.37V275.17c0-3.68,2.38-6.66,5.31-6.66s5.31,3,5.31,6.66Zm12.92,35.58H633V309.72c0-4.88,2.42-8.84,5.41-8.84s5.43,4,5.43,8.84Zm1.86-34.47a8.43,8.43,0,0,1-.46,2.68c-3.27-.27-6.59-.51-10-.71a7.5,7.5,0,0,1-.24-2V276.26c0-3.68,2.37-6.64,5.31-6.64s5.31,3,5.31,6.64Zm1.6-39.39c0-3,1.88-5.38,4.17-5.38s4.15,2.41,4.15,5.38v12.61c-2.73-.76-5.51-1.41-8.32-2Zm.76,73.86-.68-10c-.32-4.67,1.32-8.62,3.65-8.86s4.49,3.32,4.81,7.91l.76,10.87ZM657.49,291c-2.87-.33-5.83-.63-8.8-.89a9.43,9.43,0,0,1-.14-1.19l-.6-10.81c-.2-3.67,1.69-6.81,4.25-7s4.77,2.59,5,6.26l.6,10.81a9.74,9.74,0,0,1-.34,2.79Zm2.82,30.6-.66-9.89c-.32-4.56,1-8.42,2.87-8.61s3.68,3.34,4,7.9l.72,10.6Zm6.91-29.35c-2.24-.34-4.54-.64-6.85-.91a1.71,1.71,0,0,1,0-.32l-.56-10.18c-.2-3.46,1.2-6.38,3.11-6.54s3.62,2.51,3.82,5.93l.54,10.18a10.58,10.58,0,0,1-.12,1.78Zm2.11,29.35-.84-9.2c-.41-4.56.78-8.45,2.68-8.71s3.76,3.22,4.17,7.77l.92,10.12Z"/><path class="cls-7" d="M573.08,288.29a7.66,7.66,0,0,1-1.13-4.06V273.51c0-3.61,2.37-6.56,5.27-6.56a4.5,4.5,0,0,1,2.94,1.13V254.42l-4.08.13a6.42,6.42,0,0,1-.31-2.09v-9.27a5.26,5.26,0,0,1,1.06-3.75,5.19,5.19,0,0,1,3.33-2V196a226.12,226.12,0,0,0-27.1,3.09l.15,2.61-1,.94-.31,3.18-3.59.57-11.22,2.79-4.19-4.66c-57.3,22.07-47.52,43.77-47.52,43.77l-1.28,9.15a13.4,13.4,0,0,0-2.59,5.7,13.57,13.57,0,0,0,.28,6.27l-1.33,9.08C475.31,281.77,478,288,478,288l-2.61,14.51c-2.4,1.31-.39,3.9-.39,3.9l-1.94,23h107.1V288.29Zm-8.45-75.87h4v6.37h-4Zm-3,30.79c0-3.16,1.94-5.72,4.49-5.72s4.48,2.56,4.48,5.72v9.33a7,7,0,0,1-.43,2.4c-2.69.18-5.3.36-7.88.57a7.21,7.21,0,0,1-.66-3Zm-14.32,1.41c0-3.17,1.93-5.72,4.47-5.72s4.49,2.55,4.49,5.72v9.31a7,7,0,0,1-.33,2.13q-4.12.38-8,.82a6.82,6.82,0,0,1-.64-2.95Zm-8.64-26.77,3.87-.37v6.38l-3.87.38Zm-3.87,29.28c0-3.16,1.94-5.72,4.47-5.72s4.47,2.56,4.47,5.72v9.34a6.61,6.61,0,0,1,0,.89c-3,.38-5.92.75-8.59,1.12a7.5,7.5,0,0,1-.29-2Zm-.72,21.26a6.09,6.09,0,0,1,3.78,2.47,6.17,6.17,0,0,1,1.06,4.41l-.67,10.4A6.94,6.94,0,0,1,537,289.3l-7.75.35a7.25,7.25,0,0,1-1.49-5l.66-10.41c.19-3.55,2.77-6.19,5.61-5.9Zm-11-20.61c.23-3.14,2.42-5.47,4.88-5.19a5.45,5.45,0,0,1,4,6.18l-.66,9.3a6.67,6.67,0,0,1-.13,1c-3.12.47-5.81.92-8.23,1.31a7,7,0,0,1-.56-3.28Zm-29-5-1.41.94.65-5.33,1.36-.84Zm10.67-6.91-1.57.45.29-5.23,1.72-.94Zm13.88-12,3-1.23-.76,6.37-2.82.86Zm13.55,85.9-1,11.91H520.59a2,2,0,0,1,0-.35l1-12.63c.35-4.3,3-7.52,5.8-7.23s5.08,3.91,4.73,8.22Zm14.27,11.87H535.88V309.53c0-4.12,2.35-7.46,5.25-7.46s5.27,3.34,5.27,7.46Zm-3.39-32.54a7.67,7.67,0,0,1-1.08-3.91V274.54c0-3.63,2.36-6.56,5.24-6.56s5.27,2.93,5.27,6.56v10.72a7.67,7.67,0,0,1-1,3.74Zm19.43,32.65H552V308.59c0-4.8,2.37-8.72,5.27-8.72s5.25,3.9,5.25,8.72Zm4.7-37.42a7.51,7.51,0,0,1-1.2,4.17c-2.71,0-5.36.1-8,.18a7.57,7.57,0,0,1-1.31-4.35V273.61c0-3.61,2.34-6.56,5.26-6.56s5.25,2.95,5.25,6.56Zm.89,37.42V308.2c0-4.82,2.36-8.73,5.27-8.73s5.26,3.91,5.26,8.73v13.43Z"/><path class="cls-8" d="M814.27,108.62l-11.46-1.8c0-1.12-.49-2.08-1.29-2.24l4.34-31.91a1.45,1.45,0,0,0,.5-.78l1.1.18v-.28a2.76,2.76,0,0,0-.39-2,1.38,1.38,0,0,0-.39-.41,1.42,1.42,0,0,0-.53-.2l-1-.16,1-7.37,1.22.2a2.79,2.79,0,0,0,2.78-1.43,2.52,2.52,0,0,0,.3-1,3.63,3.63,0,0,0,0-1.14l-36.84-5.77L766.06,109a5.22,5.22,0,0,1,2.66,1.5,4.94,4.94,0,0,1,1.28,2.7h-.12c-.78-.12-1.53.67-1.68,1.75v.3l1.21.17a.84.84,0,0,0,.08.38,1,1,0,0,0,.22.31l-2,14.5h-.22c-.71-.12-1.41.53-1.63,1.47l-2.86-.45-1.1,8.07a4.89,4.89,0,0,1,2.46,1.43,4.56,4.56,0,0,1,1.21,2.5c-.73,0-1.38.75-1.53,1.77v.27l1.21.2a1,1,0,0,0,.3.69l-2,14.5h-.18a1.78,1.78,0,0,0-1.63,1.51l-2.84-.45-1.07,8.09a5,5,0,0,1,2.44,1.43,4.63,4.63,0,0,1,1.18,2.5c-.73,0-1.38.75-1.52,1.77v.27l1.2.2a1.06,1.06,0,0,0,.3.69l-2,14.5h-.18a1.8,1.8,0,0,0-1.65,1.65l-2.79-.43-1.1,8.11a5,5,0,0,1,2.43,1.43,4.54,4.54,0,0,1,1.17,2.5c-.71,0-1.38.74-1.52,1.77v.27l1.2.2a1,1,0,0,0,.3.66l-2,14.52h-.17c-.73-.11-1.43.53-1.65,1.51l-2.75-.43-1.1,8.1a5,5,0,0,1,2.4,1.44,4.65,4.65,0,0,1,1.17,2.49c-.74,0-1.39.74-1.53,1.78v.28l1.22.2a1,1,0,0,0,.29.66l-2,14.5H751c-.71-.12-1.39.51-1.61,1.47l-2.75-.43L745.39,262a4.73,4.73,0,0,1,2.39,1.44,4.62,4.62,0,0,1,1.14,2.48,1.25,1.25,0,0,0-.76.3,2.23,2.23,0,0,0-.78,1.47V268l1.23.19a1,1,0,0,0,.28.67l-2,14.52h-.19a1.78,1.78,0,0,0-1.63,1.51l-2.71-.43-.45,3.3,46.9,7.37a1.57,1.57,0,0,0,.61,0,1.62,1.62,0,0,0,.53-.29,1.68,1.68,0,0,0,.54-.84,1.83,1.83,0,0,0,0-.93,1.64,1.64,0,0,0-.46-.82,1.74,1.74,0,0,0-.82-.47h-.39a1.9,1.9,0,0,0-1.16-2h-.17l2-14.49a1,1,0,0,0,.3-.24.87.87,0,0,0,.17-.33l1.2.19v-.27c.15-1.1-.36-2.08-1.14-2.2a5.91,5.91,0,0,1,1.23-2l.79-5.77.86.13a1.26,1.26,0,0,0,.61,0,1.29,1.29,0,0,0,.53-.28,1.65,1.65,0,0,0,.61-1.1,1,1,0,0,0,0-.24,1.62,1.62,0,0,0-.3-1,1.54,1.54,0,0,0-.44-.44,1.5,1.5,0,0,0-.58-.21h-.39a1.74,1.74,0,0,0-.21-1.18,1.83,1.83,0,0,0-1-.78h-.19l2-14.5a.84.84,0,0,0,.3-.22.87.87,0,0,0,.17-.33l1.2.18v-.28a2.33,2.33,0,0,0-.32-1.65,1.29,1.29,0,0,0-.34-.36,1.54,1.54,0,0,0-.46-.19,5.45,5.45,0,0,1,1.23-2l.79-5.78.86.14a1.57,1.57,0,0,0,.61,0,1.44,1.44,0,0,0,.53-.29,1.63,1.63,0,0,0,.61-1.09,1,1,0,0,0,0-.24,1.79,1.79,0,0,0-.31-1,1.47,1.47,0,0,0-.43-.43,1.52,1.52,0,0,0-.58-.22h-.39a2.37,2.37,0,0,0-.37-1.42,1.17,1.17,0,0,0-.81-.55h-.17l2-14.49a1,1,0,0,0,.3-.24.87.87,0,0,0,.17-.33l1.2.19v-.27a2.28,2.28,0,0,0-.32-1.65,1.1,1.1,0,0,0-.35-.36,1.14,1.14,0,0,0-.47-.19,5.45,5.45,0,0,1,1.23-2l.77-5.77.88.14a1.52,1.52,0,0,0,.6-.05,1.38,1.38,0,0,0,.54-.27,1.77,1.77,0,0,0,.61-1.1v-.24a1.71,1.71,0,0,0-.33-1,1.6,1.6,0,0,0-.42-.44,1.67,1.67,0,0,0-.57-.23h-.39A1.79,1.79,0,0,0,800,199h-.17l2-14.5a1.33,1.33,0,0,0,.3-.23.77.77,0,0,0,.36-.23l1.2.2V184a2.44,2.44,0,0,0-.32-1.65A1.1,1.1,0,0,0,803,182a1.14,1.14,0,0,0-.47-.19,5.42,5.42,0,0,1,1.22-2l.72-5.8.88.13a1.22,1.22,0,0,0,.6,0,1.55,1.55,0,0,0,.54-.28,1.65,1.65,0,0,0,.61-1.1,1.43,1.43,0,0,0,0-.65,1.65,1.65,0,0,0-.24-.6,1.77,1.77,0,0,0-1.09-.72h-.3a1.91,1.91,0,0,0-1.16-2h-.17l2-14.5a1.09,1.09,0,0,0,.29-.23.92.92,0,0,0,.18-.32l1.2.18v-.28a1.81,1.81,0,0,0-1.14-2.2,5.42,5.42,0,0,1,1.22-2l.78-5.78.88.14a1.51,1.51,0,0,0,.6,0,1.73,1.73,0,0,0,.54-.28,1.61,1.61,0,0,0,.59-1.11.89.89,0,0,0,0-.23,1.88,1.88,0,0,0-.29-1,1.62,1.62,0,0,0-1-.63h-.38a2.24,2.24,0,0,0-.35-1.36,1.2,1.2,0,0,0-.35-.36,1.29,1.29,0,0,0-.47-.19h-.18l2-14.5a.93.93,0,0,0,.3-.22.87.87,0,0,0,.17-.33l1.2.18v-.27a2.4,2.4,0,0,0-.34-1.65,1.27,1.27,0,0,0-.8-.55h-.32a6,6,0,0,1,1.33-2.2l.77-5.68,1.11.18a1.57,1.57,0,0,0,.61,0,1.44,1.44,0,0,0,.55-.28,1.65,1.65,0,0,0,.59-1.08,1.13,1.13,0,0,0,0-.26,1.74,1.74,0,0,0,1-.88,1.72,1.72,0,0,0,.1-1.35,1.77,1.77,0,0,0-.92-1A1.88,1.88,0,0,0,814.27,108.62Zm-16.11,5.43a4.38,4.38,0,0,1,2.33,1.53,4.13,4.13,0,0,1,.89,2.57h-.14a1.4,1.4,0,0,0-.5,0,1.12,1.12,0,0,0-.42.25,2.11,2.11,0,0,0-.75,1.47v.28l1.2.19a1,1,0,0,0,.28.69l-2,14.5h-.18a1.23,1.23,0,0,0-.92.27,2.21,2.21,0,0,0-.71,1.22l-4.38-.69a2.24,2.24,0,0,0-.37-1.33,1.17,1.17,0,0,0-.35-.35,1.28,1.28,0,0,0-.47-.18h-.18l2-14.5a.7.7,0,0,0,.28-.23.76.76,0,0,0,.17-.32l1.22.18v-.28a2.35,2.35,0,0,0-.35-1.65,1,1,0,0,0-.33-.35,1.3,1.3,0,0,0-.46-.18h-.23a3.93,3.93,0,0,1,1.55-2.21,4.14,4.14,0,0,1,2.66-.75Zm-1.57,36.69a.8.8,0,0,0,.08.37.84.84,0,0,0,.22.3l-2,14.52h-.19c-.71-.1-1.41.55-1.63,1.51l-4.38-.68c0-1-.45-1.85-1.17-2h-.18l2-14.5a1,1,0,0,0,.47-.55l1.2.2v-.3a1.9,1.9,0,0,0-1.08-2.18,3.63,3.63,0,0,1,1.44-2,3.9,3.9,0,0,1,2.43-.71H794a4.21,4.21,0,0,1,2.15,1.43,4,4,0,0,1,.85,2.38,1.83,1.83,0,0,0-1.57,1.77v.28Zm-4.1,30.42a.94.94,0,0,0,.31.66l-2,14.5h-.31c-.75-.12-1.47.63-1.65,1.65l-4.36-.69a1.79,1.79,0,0,0-1.16-2.08h-.19l2-14.5a.8.8,0,0,0,.29-.23.92.92,0,0,0,.18-.32l1.2.18v-.27a2.36,2.36,0,0,0-.34-1.66,1.16,1.16,0,0,0-.76-.53,3.75,3.75,0,0,1,1.45-2,4,4,0,0,1,2.44-.72h.15a4.25,4.25,0,0,1,2.18,1.49,4.05,4.05,0,0,1,.82,2.44,1.09,1.09,0,0,0-.44.06,1.11,1.11,0,0,0-.38.22,2.22,2.22,0,0,0-.75,1.47v.28Zm-4.08,30.56a1,1,0,0,0,.31.67l-2,14.5h-.23a1.35,1.35,0,0,0-.49,0,1.1,1.1,0,0,0-.42.24,2.28,2.28,0,0,0-.72,1.24l-4.38-.69a1.9,1.9,0,0,0-1.16-2h-.19l2-14.5a.89.89,0,0,0,.3-.24.87.87,0,0,0,.17-.33l1.2.2v-.28a2.41,2.41,0,0,0-.31-1.53,1.24,1.24,0,0,0-.76-.53,3.68,3.68,0,0,1,1.44-2,3.93,3.93,0,0,1,2.44-.71h.14a4,4,0,0,1,2.17,1.42,3.83,3.83,0,0,1,.83,2.39,1.33,1.33,0,0,0-.82.28,2.33,2.33,0,0,0-.75,1.49v.28Zm-4.08,30.41a1,1,0,0,0,.31.69l-2,14.5h-.15a1.29,1.29,0,0,0-.48,0,1.1,1.1,0,0,0-.42.24,2,2,0,0,0-.71,1.19l-4.41-.68a1.7,1.7,0,0,0-1.16-2h-.18l2-14.5a.84.84,0,0,0,.3-.22.87.87,0,0,0,.17-.33l1.21.18V241a2.36,2.36,0,0,0-.35-1.66,1.08,1.08,0,0,0-.31-.33,1.25,1.25,0,0,0-.42-.2,3.67,3.67,0,0,1,1.43-2,4.08,4.08,0,0,1,2.44-.71h.14a4.3,4.3,0,0,1,2.19,1.48,4,4,0,0,1,.81,2.45,1.09,1.09,0,0,0-.44.06,1.07,1.07,0,0,0-.37.22,2.27,2.27,0,0,0-.76,1.47V242Zm-16.84-4.53a1.31,1.31,0,0,0-.67-.51,4.36,4.36,0,0,1,1.92-2.08,4.64,4.64,0,0,1,2.83-.52h.16a4.86,4.86,0,0,1,2.58,1.37,4.62,4.62,0,0,1,1.27,2.56,1.84,1.84,0,0,0-1.54,1.77v.27l1.2.2a1,1,0,0,0,.28.67l-2,14.5h-.16c-.71-.12-1.4.53-1.63,1.47l-6.24-1a2.25,2.25,0,0,0-.37-1.38,1.33,1.33,0,0,0-.33-.34,1.1,1.1,0,0,0-.46-.19h-.19l2-14.5a.89.89,0,0,0,.29-.22.84.84,0,0,0,.16-.33l1.23.18v-.27a2.41,2.41,0,0,0-.53-1.67Zm4-30.43a1.22,1.22,0,0,0-.68-.5,4.5,4.5,0,0,1,1.92-2.08,4.68,4.68,0,0,1,2.84-.53h.16a4.86,4.86,0,0,1,2.58,1.37,4.62,4.62,0,0,1,1.27,2.56c-.73,0-1.4.75-1.55,1.77v.29l1.23.18a1,1,0,0,0,.28.69l-2,14.5h-.16a1,1,0,0,0-.49,0,1.17,1.17,0,0,0-.43.22,2.26,2.26,0,0,0-.73,1.24l-6.12-1a2.29,2.29,0,0,0-.36-1.42,1.14,1.14,0,0,0-.34-.35,1.12,1.12,0,0,0-.46-.2h-.35l2-14.5a1,1,0,0,0,.45-.57l1.22.2v-.27a2.4,2.4,0,0,0-.42-1.58Zm4.08-30.55a1.17,1.17,0,0,0-.68-.51A4.34,4.34,0,0,1,776.8,174a4.69,4.69,0,0,1,2.82-.54h.19a4.91,4.91,0,0,1,2.57,1.38,4.54,4.54,0,0,1,1.28,2.55,1.83,1.83,0,0,0-1.55,1.77v.28l1.23.19a.79.79,0,0,0,.07.37.9.9,0,0,0,.21.3l-2,14.5h-.13a1.29,1.29,0,0,0-.48,0,1.13,1.13,0,0,0-.42.22,2.26,2.26,0,0,0-.75,1.4l-6.12-1c0-1-.39-2-1.14-2.11h-.35l2-14.49a1.68,1.68,0,0,0,.29-.24,1,1,0,0,0,.16-.33l1.22.19v-.27a2.19,2.19,0,0,0-.35-1.63Zm4.07-30.41a1.14,1.14,0,0,0-.67-.51,4.34,4.34,0,0,1,1.91-2.08,4.69,4.69,0,0,1,2.82-.54h.19a4.91,4.91,0,0,1,2.57,1.38,4.54,4.54,0,0,1,1.28,2.55,1.1,1.1,0,0,0-.78.28,2.22,2.22,0,0,0-.77,1.49v.27l1.22.18a.94.94,0,0,0,.07.37.87.87,0,0,0,.22.32l-2,14.5h-.21a1,1,0,0,0-.49,0,1.14,1.14,0,0,0-.41.24,2,2,0,0,0-.71,1.22l-6.25-1a1.89,1.89,0,0,0-1.16-2h-.18l2-14.49a1.06,1.06,0,0,0,.45-.55l1.2.17v-.27a2.27,2.27,0,0,0-.26-1.53ZM783,115.27h-.12a4.59,4.59,0,0,1,2-2.24,4.89,4.89,0,0,1,3-.59H788a5.15,5.15,0,0,1,2.75,1.49,4.86,4.86,0,0,1,1.32,2.77H792c-.77-.14-1.53.65-1.67,1.75v.27l1.2.2a.9.9,0,0,0,.08.36,1,1,0,0,0,.23.31l-2,14.5h-.19c-.71-.12-1.38.53-1.63,1.47l-6.24-1a2.41,2.41,0,0,0-.34-1.38,1.17,1.17,0,0,0-.35-.35,1.28,1.28,0,0,0-.47-.18h-.1l2-14.5a.89.89,0,0,0,.29-.22,1.06,1.06,0,0,0,.18-.33l1.2.2v-.29c.13-1.15-.36-2.11-1.15-2.24Zm-1.06-30.06a6.64,6.64,0,0,1,.78-2.68,6.93,6.93,0,0,1,1.81-2.18,7.5,7.5,0,0,1,5.42-1.57,7.06,7.06,0,0,1,2.65,1,6.81,6.81,0,0,1,2,2,7.9,7.9,0,0,1,1.32,5.64l-2.4,17.94-14-2.2Zm-10.67,31.15a.8.8,0,0,0,.29-.23.88.88,0,0,0,.16-.32l1.2.2v-.29a1.88,1.88,0,0,0-1.12-2.2,4.68,4.68,0,0,1,2-2.26,4.81,4.81,0,0,1,3-.57h.16a5.18,5.18,0,0,1,2.76,1.49A4.93,4.93,0,0,1,781,115c-.77-.12-1.53.67-1.69,1.77V117l1.22.2a1,1,0,0,0,.29.67l-2,14.5h-.16a1.06,1.06,0,0,0-.5,0,1.1,1.1,0,0,0-.42.24,2.14,2.14,0,0,0-.72,1.2l-6.36-1a2.48,2.48,0,0,0-.36-1.38,1.17,1.17,0,0,0-.35-.35,1.28,1.28,0,0,0-.47-.18h-.16Zm-4.07,30.4a.92.92,0,0,0,.28-.24.84.84,0,0,0,.16-.33l1.23.19v-.27a2.28,2.28,0,0,0-.33-1.67,1.31,1.31,0,0,0-.57-.47,4.44,4.44,0,0,1,1.9-2.09,4.63,4.63,0,0,1,2.83-.53h.16a4.87,4.87,0,0,1,2.58,1.38,4.54,4.54,0,0,1,1.28,2.55c-.72,0-1.37.77-1.51,1.77v.3l1.2.17a.94.94,0,0,0,.29.69l-2,14.5h-.18c-.73-.14-1.4.53-1.63,1.49l-6.36-1a1.9,1.9,0,0,0-1.16-2h-.18Zm-4.08,30.41a1,1,0,0,0,.29-.24,1.06,1.06,0,0,0,.18-.33l1.2.2v-.28a1.87,1.87,0,0,0-.1-1.21,2,2,0,0,0-.82-.93,4.36,4.36,0,0,1,1.9-2.08,4.56,4.56,0,0,1,2.83-.53h.16a4.86,4.86,0,0,1,2.58,1.37,4.61,4.61,0,0,1,1.28,2.55c-.71,0-1.37.75-1.51,1.75v.36l1.2.19a1,1,0,0,0,.29.67l-2,14.5h-.18c-.76-.12-1.49.61-1.68,1.65l-6.34-1a1.76,1.76,0,0,0-1.14-2.1h-.18ZM759,207.74a1,1,0,0,0,.47-.57l1.2.19v-.29a1.93,1.93,0,0,0-.1-1.21,2,2,0,0,0-.82-.91,4.39,4.39,0,0,1,1.9-2.09,4.63,4.63,0,0,1,2.83-.53h.19a4.78,4.78,0,0,1,2.56,1.38,4.59,4.59,0,0,1,1.27,2.55c-.69,0-1.36.77-1.49,1.77v.28l1.2.19a1,1,0,0,0,.08.38,1.39,1.39,0,0,0,.23.31l-2,14.5h-.18c-.72-.1-1.41.55-1.63,1.51l-6.36-1c0-1-.43-1.83-1.17-2H757Zm-4.08,30.41a1.09,1.09,0,0,0,.29-.23,1,1,0,0,0,.18-.32l1.2.17v-.27a2,2,0,0,0-.09-1.22,2,2,0,0,0-.82-.92,4.29,4.29,0,0,1,1.9-2.09,4.63,4.63,0,0,1,2.83-.53h.18a4.9,4.9,0,0,1,2.57,1.37,4.54,4.54,0,0,1,1.26,2.56c-.69,0-1.34.75-1.49,1.77v.28l1.21.19a1,1,0,0,0,.08.37.93.93,0,0,0,.22.3l-2,14.5H762c-.72-.12-1.41.53-1.62,1.47l-6.38-1a2.18,2.18,0,0,0-.36-1.38,1.37,1.37,0,0,0-.34-.34,1.3,1.3,0,0,0-.46-.18h-.18Zm3.22,46.34a1.78,1.78,0,0,0-1.63,1.51l-6.36-1a2.35,2.35,0,0,0-.35-1.39,1.17,1.17,0,0,0-.34-.36,1.14,1.14,0,0,0-.47-.19h-.17l2-14.5a.89.89,0,0,0,.3-.24.87.87,0,0,0,.17-.33l1.21.19v-.27a1.93,1.93,0,0,0-.92-2.14,4.41,4.41,0,0,1,1.91-2.09,4.75,4.75,0,0,1,2.84-.53h.16a5,5,0,0,1,2.57,1.38,4.79,4.79,0,0,1,1.29,2.55,1.25,1.25,0,0,0-.74.28,2.18,2.18,0,0,0-.77,1.47v.3l1.22.17a.94.94,0,0,0,.29.69l-2,14.5Zm11.06,1.75c-.72-.12-1.41.55-1.64,1.49l-6.24-1a1.9,1.9,0,0,0-1.16-2H760l2-14.49a1,1,0,0,0,.29-.24,1.06,1.06,0,0,0,.18-.33l1.2.19v-.27a1.92,1.92,0,0,0-.13-1.25,2,2,0,0,0-.89-.91,4.36,4.36,0,0,1,1.92-2.08,4.71,4.71,0,0,1,2.83-.54h.16a4.86,4.86,0,0,1,2.58,1.37,4.64,4.64,0,0,1,1.28,2.56c-.74,0-1.39.73-1.53,1.77v.28l1.2.17a1,1,0,0,0,.08.38.79.79,0,0,0,.23.31l-2,14.5Zm9.19,1.43c-.73-.12-1.43.55-1.63,1.52l-4.41-.71a1.67,1.67,0,0,0-.19-1.2,1.83,1.83,0,0,0-1-.77H771L773,272a1,1,0,0,0,.29-.24,1.06,1.06,0,0,0,.18-.33l1.2.19v-.27a1.88,1.88,0,0,0-1.08-2.18,3.7,3.7,0,0,1,1.45-2,3.86,3.86,0,0,1,2.44-.7h.13a4.07,4.07,0,0,1,2.17,1.41,3.79,3.79,0,0,1,.82,2.4,1.84,1.84,0,0,0-1.57,1.77v.27l1.23.2a.91.91,0,0,0,.28.66l-2,14.52Zm9.54-13.95a1,1,0,0,0,.31.69l-2,14.5h-.18a1,1,0,0,0-.48,0,1,1,0,0,0-.42.23,2.19,2.19,0,0,0-.74,1.23l-2.89-.45a1.9,1.9,0,0,0-1.16-2h-.17l2-14.52a.87.87,0,0,0,.47-.55l1.21.17v-.27a1.91,1.91,0,0,0-1.09-2.18c.66-1.85,2-3,3.21-2.83s2.16,1.71,2.3,3.69c-.75-.09-1.51.67-1.65,1.75v.3ZM792,243.33a1,1,0,0,0,.08.38.79.79,0,0,0,.23.31l-2,14.5h-.18c-.72-.12-1.41.53-1.64,1.47l-2.89-.45a2.11,2.11,0,0,0-.37-1.38,1.1,1.1,0,0,0-.33-.35,1.16,1.16,0,0,0-.47-.2h-.18l2-14.49a1,1,0,0,0,.3-.24.87.87,0,0,0,.17-.33l1.2.19v-.27a1.85,1.85,0,0,0-1.08-2.18c.65-1.85,1.94-3,3.18-2.85h.13c1.26.2,2.16,1.71,2.3,3.69a1.11,1.11,0,0,0-.48.05,1.15,1.15,0,0,0-.42.23,2.33,2.33,0,0,0-.75,1.47v.3Zm4.08-30.41a1,1,0,0,0,.28.69l-2,14.5h-.19c-.71-.1-1.4.55-1.63,1.51l-2.9-.45a2.29,2.29,0,0,0-.36-1.42,1.37,1.37,0,0,0-.34-.34,1.54,1.54,0,0,0-.46-.19h-.18l2-14.5a.89.89,0,0,0,.29-.22.92.92,0,0,0,.18-.32l1.2.17v-.27a2.3,2.3,0,0,0-.35-1.65,1,1,0,0,0-.31-.35,1.14,1.14,0,0,0-.44-.18c.67-1.85,1.94-3,3.22-2.83s2.16,1.73,2.3,3.69a1.16,1.16,0,0,0-.89.27,2.28,2.28,0,0,0-.53.67,2.09,2.09,0,0,0-.23.81v.27Zm4.08-30.57a1,1,0,0,0,.28.69l-2,14.5h-.18a1.84,1.84,0,0,0-1.67,1.67l-2.88-.45a2.23,2.23,0,0,0-.34-1.55,1.06,1.06,0,0,0-.34-.36,1.32,1.32,0,0,0-.46-.19h-.18l2-14.52a1,1,0,0,0,.28-.23.76.76,0,0,0,.17-.32l1.2.19v-.29a2.29,2.29,0,0,0-.35-1.63,1.07,1.07,0,0,0-.32-.35,1.4,1.4,0,0,0-.43-.2c.67-1.85,2-3,3.2-2.83h.12c1.25.2,2.16,1.73,2.3,3.69a1.24,1.24,0,0,0-.47.05,1,1,0,0,0-.42.23,2.34,2.34,0,0,0-.78,1.47v.3Zm4.08-30.41a1,1,0,0,0,.28.69l-2,14.5h-.16a1.78,1.78,0,0,0-1.63,1.51l-2.9-.45a2.24,2.24,0,0,0-.36-1.4,1.14,1.14,0,0,0-.34-.35,1.34,1.34,0,0,0-.46-.2h0l2-14.49a1,1,0,0,0,.45-.57l1.22.19v-.27a2.34,2.34,0,0,0-.35-1.67,1.2,1.2,0,0,0-.75-.53c.67-1.85,2-3,3.2-2.83s2.16,1.73,2.33,3.69c-.78-.12-1.52.65-1.68,1.75v.3Zm4.62-32.61c-.77-.12-1.51.65-1.67,1.77v.27l1.23.18a.78.78,0,0,0,.06.37,1,1,0,0,0,.22.32l-2,14.5h-.18a1,1,0,0,0-.48,0,1.1,1.1,0,0,0-.42.24,2.07,2.07,0,0,0-.71,1.2l-2.92-.45a1.69,1.69,0,0,0-.2-1.18,1.77,1.77,0,0,0-.94-.78h-.14l2-14.5A1,1,0,0,0,803,121a.87.87,0,0,0,.17-.33l1.21.19v-.27c.16-1.12-.35-2.08-1.12-2.2h-.23c.7-2,2-3.28,3.51-3.07h.1c1.41.22,2.41,2,2.55,3.93Z"/><path class="cls-8" d="M783.89,303l-.23,1.77-2-.34.24-1.77a7,7,0,0,0-1-5.28,7.42,7.42,0,0,0-4.48-3.14,7,7,0,0,0-2.73.31,7.34,7.34,0,0,0-2.4,1.33,6.81,6.81,0,0,0-1.67,2.13,6.57,6.57,0,0,0-.69,2.6l-.25,1.77-2.27-.36.25-1.77a7.62,7.62,0,0,0-1.48-5.55,8,8,0,0,0-5-3,7.53,7.53,0,0,0-5.69,1.3,7.12,7.12,0,0,0-1.94,2.15,6.89,6.89,0,0,0-.93,2.71l-.25,1.79-2.23-.36.25-1.77a7.57,7.57,0,0,0-1.38-5.41,8,8,0,0,0-4.77-3.09l-5.4,40.37h6.82l3.52-24.2h.18l2.26.37h.2l-3,23.89h14.56L765.49,308h.19l2.25.36h.2l-2.62,21H777.8l2.76-19.09h.19l2.27.36h.18l-2.33,18.67h3.07c0-.4,3.38-25,4.4-32.58a7.82,7.82,0,0,0-3.1,2.54A7.54,7.54,0,0,0,783.89,303Z"/><path class="cls-8" d="M738.19,46.45a3.08,3.08,0,0,0-.35,1.06,2.88,2.88,0,0,0,2.24,3.3l1.17.2-1,7.35-.85-.14c-.87-.14-1.7.77-2,2v.28l1.07.18a1.52,1.52,0,0,0,.34,1l-4.22,31.86a2,2,0,0,0-1.77,1.75l-11.3-1.81a1.8,1.8,0,0,0-.61,0,1.57,1.57,0,0,0-.54.29,1.43,1.43,0,0,0-.38.47,1.34,1.34,0,0,0-.17.59,1.78,1.78,0,0,0,.28,1.23,1.47,1.47,0,0,0,.43.43,1.43,1.43,0,0,0,.56.22l.81.14-.73,5.58a6.28,6.28,0,0,1,.71,2.61c-.77-.12-1.49.67-1.64,1.77v.25l1.19.2a1,1,0,0,0,.27.69l-2,14.5h-.18a.94.94,0,0,0-.47,0,1.32,1.32,0,0,0-.42.23,2.18,2.18,0,0,0-.69,1.22h-.38a1.41,1.41,0,0,0-.61,0,1.59,1.59,0,0,0-.55.28,1.65,1.65,0,0,0-.39.48,1.34,1.34,0,0,0-.17.58,1.94,1.94,0,0,0,.29,1.24,1.47,1.47,0,0,0,1,.65h.53l-.75,5.68V133a5.73,5.73,0,0,1,.67,2.46.89.89,0,0,0-.39.06,1.08,1.08,0,0,0-.34.21,2.17,2.17,0,0,0-.73,1.48v.27l1.16.2a1,1,0,0,0,.28.67l-2,14.51h-.07a1.24,1.24,0,0,0-.47,0,1,1,0,0,0-.42.23,2.31,2.31,0,0,0-.7,1.24h-.41a1.41,1.41,0,0,0-.61.05,1.44,1.44,0,0,0-.55.28,1.47,1.47,0,0,0-.38.48,1.69,1.69,0,0,0-.17.58,1.65,1.65,0,0,0,1.24,2h.59l-.76,5.66v.1a5.65,5.65,0,0,1,.68,2.44,1.1,1.1,0,0,0-.73.29,2.25,2.25,0,0,0-.74,1.47V168l1.17.2a1.09,1.09,0,0,0,.28.68l-2,14.5h-.18a1.29,1.29,0,0,0-.48,0,1.11,1.11,0,0,0-.41.23,2.32,2.32,0,0,0-.72,1.37h-.37a1.4,1.4,0,0,0-1.11.32,1.64,1.64,0,0,0-.6,1.1,1.78,1.78,0,0,0,.28,1.23,1.47,1.47,0,0,0,.43.43,1.6,1.6,0,0,0,.56.22h.58l-.76,5.68a5.61,5.61,0,0,1,.68,2.43c-.7,0-1.33.75-1.47,1.77v.28l1.17.19a1,1,0,0,0,.3.67l-2,14.5h-.17c-.7-.12-1.37.55-1.59,1.51h-.38a1.5,1.5,0,0,0-1.15.34,1.43,1.43,0,0,0-.38.47,1.34,1.34,0,0,0-.17.59,1.63,1.63,0,0,0,1.2,2l.07,0,.53.1-.73,5.66a5.74,5.74,0,0,1,.67,2.43c-.69,0-1.32.77-1.46,1.77V229l1.17.18a1,1,0,0,0,.29.69l-2,14.49h-.18a1.24,1.24,0,0,0-.47,0,1.32,1.32,0,0,0-.42.23,2.15,2.15,0,0,0-.67,1.22h-.4a1.57,1.57,0,0,0-.61.06,1.53,1.53,0,0,0-.92.77,1.34,1.34,0,0,0-.17.58,1.6,1.6,0,0,0,.22,1.24,1.72,1.72,0,0,0,1,.73h.55l-.75,5.65v.1a5.78,5.78,0,0,1,.67,2.44c-.69,0-1.33.77-1.47,1.77v.27l1.19.2a.89.89,0,0,0,.07.36,1,1,0,0,0,.21.31l-2,14.49H699c-.69-.09-1.37.55-1.59,1.52H697a1.57,1.57,0,0,0-.61,0,1.61,1.61,0,0,0-.55.29,1.43,1.43,0,0,0-.38.47,1.68,1.68,0,0,0-.17.59,1.82,1.82,0,0,0,.28,1.24,1.44,1.44,0,0,0,.43.42,1.62,1.62,0,0,0,.56.23l46.31,7.5.44-3.3-3.49-.57a1.91,1.91,0,0,0-1.13-2h-.22l2-14.5a1,1,0,0,0,.29-.24,1,1,0,0,0,.17-.33l1.17.2V266a2,2,0,0,0-.11-1.22,2,2,0,0,0-.82-.92,4.24,4.24,0,0,1,1.84-2.08,4.32,4.32,0,0,1,2.75-.53H746a.76.76,0,0,1,.3,0l1-8.12-3.45-.57a2.23,2.23,0,0,0-.36-1.37,1,1,0,0,0-.33-.35,1.14,1.14,0,0,0-.44-.18h.14l2-14.5a.94.94,0,0,0,.44-.57l1.19.2v-.29a2.07,2.07,0,0,0-.11-1.23,2,2,0,0,0-.82-.92,4.24,4.24,0,0,1,1.85-2.07,4.35,4.35,0,0,1,2.74-.52h.44l1.07-8.09-3.45-.55a2.22,2.22,0,0,0-.34-1.42,1.1,1.1,0,0,0-.33-.35,1.3,1.3,0,0,0-.46-.18h-.16l2-14.5a.8.8,0,0,0,.29-.23.84.84,0,0,0,.16-.33l1.19.19V205a2.28,2.28,0,0,0-.32-1.65,1.1,1.1,0,0,0-.59-.49,4.19,4.19,0,0,1,1.85-2.09,4.39,4.39,0,0,1,2.75-.53h.39l1.07-8.11-3.39-.55A2.4,2.4,0,0,0,752,190a1.23,1.23,0,0,0-.33-.35,1.25,1.25,0,0,0-.45-.18H751l2-14.5a.91.91,0,0,0,.45-.55l1.17.18v-.28a1.89,1.89,0,0,0-.11-1.22,2,2,0,0,0-.82-.92,4.38,4.38,0,0,1,1.87-2.07,4.46,4.46,0,0,1,2.75-.54h.38l1-8.09-3.37-.53c0-1-.42-1.83-1.13-2h-.16l2-14.49a1,1,0,0,0,.43-.49l1.17.18v-.27a2.07,2.07,0,0,0-.11-1.23,2,2,0,0,0-.83-.91,4.37,4.37,0,0,1,4.62-2.62h.34l1.07-8.07-3.35-.55a1.76,1.76,0,0,0-.19-1.19,1.71,1.71,0,0,0-.94-.77h-.18l2-14.52a.8.8,0,0,0,.29-.23.76.76,0,0,0,.17-.32l1.17.19v-.29a1.9,1.9,0,0,0-1.11-2.18,4.64,4.64,0,0,1,4.91-2.83h.3l7.41-56.49ZM740,108a4.53,4.53,0,0,1,2-2.25,4.62,4.62,0,0,1,2.93-.58h.16a5,5,0,0,1,2.67,1.5,4.8,4.8,0,0,1,1.29,2.76c-.77-.14-1.48.65-1.64,1.75v.27l1.17.2a1,1,0,0,0,.28.67l-2,14.5h-.15a1,1,0,0,0-.48,0,1,1,0,0,0-.42.23,2.28,2.28,0,0,0-.69,1.2l-6.12-1a1.88,1.88,0,0,0-1.13-2h-.18l2-14.49a1,1,0,0,0,.29-.24,1.29,1.29,0,0,0,.17-.33l1.16.19v-.27C741.27,109.12,740.77,108.14,740,108Zm4.32,34a1,1,0,0,0,.29.67l-2,14.5h-.14c-.69-.12-1.36.54-1.58,1.49l-6.13-1a2.34,2.34,0,0,0-.33-1.39,1.29,1.29,0,0,0-.34-.36,1.32,1.32,0,0,0-.46-.19h-.16l2-14.5a.89.89,0,0,0,.45-.57l1.17.2v-.28a2,2,0,0,0-1-2.16,4.38,4.38,0,0,1,4.62-2.61h.16a4.77,4.77,0,0,1,2.5,1.37,4.68,4.68,0,0,1,1.24,2.56c-.71,0-1.34.73-1.46,1.77v.27Zm-4,30.39a1.06,1.06,0,0,0,.3.69l-2,14.49h-.15c-.73-.12-1.43.61-1.6,1.65l-6.11-1c0-1.06-.4-2-1.13-2.1h-.16l2-14.5a1,1,0,0,0,.46-.57l1.17.2V171a2.5,2.5,0,0,0-.32-1.67,1.44,1.44,0,0,0-.63-.49,4.4,4.4,0,0,1,1.86-2.07,4.51,4.51,0,0,1,2.76-.54h.15a4.66,4.66,0,0,1,3.75,3.93c-.71,0-1.33.74-1.47,1.77v.27Zm-4,30.56a1,1,0,0,0,.3.69l-2,14.5h-.17c-.7-.12-1.37.55-1.59,1.49l-6.1-1a2.32,2.32,0,0,0-.36-1.4,1.14,1.14,0,0,0-.34-.35,1.22,1.22,0,0,0-.45-.2h-.16l2-14.51a.92.92,0,0,0,.29-.23.76.76,0,0,0,.17-.32l1.17.19v-.29a2,2,0,0,0-.12-1.23,2,2,0,0,0-.83-.91A4.33,4.33,0,0,1,730,197.3a4.39,4.39,0,0,1,2.75-.53h.16a4.68,4.68,0,0,1,3.75,3.92c-.72,0-1.33.73-1.47,1.77v.28Zm-4,30.43a1,1,0,0,0,.29.67l-2,14.5h-.18c-.67-.12-1.35.53-1.56,1.47l-6.13-1a1.88,1.88,0,0,0-1.15-2h-.16l2-14.49a.81.81,0,0,0,.28-.24.87.87,0,0,0,.17-.33l1.17.19V232a2.38,2.38,0,0,0-.31-1.65,1.34,1.34,0,0,0-.64-.51,4.33,4.33,0,0,1,1.86-2.08,4.42,4.42,0,0,1,2.76-.51h.16a4.68,4.68,0,0,1,3.74,3.92c-.71,0-1.32.75-1.46,1.77v.28ZM716,228.86a1.1,1.1,0,0,0-.33-.35,1.34,1.34,0,0,0-.46-.2,3.79,3.79,0,0,1,1.42-2,3.85,3.85,0,0,1,2.37-.71h.14a4.1,4.1,0,0,1,2.09,1.42,4,4,0,0,1,.8,2.39c-.75-.09-1.45.67-1.59,1.75v.3l1.17.17a1,1,0,0,0,.28.69l-2,14.5h-.18a1.16,1.16,0,0,0-.89.27,2.18,2.18,0,0,0-.69,1.22l-4.09-.67a2.64,2.64,0,0,0-.35-1.37,1.44,1.44,0,0,0-.22-.27,1.32,1.32,0,0,0-.46-.19h-.16l2-14.5a.81.81,0,0,0,.28-.24.87.87,0,0,0,.17-.33l1.17.2v-.28a2.53,2.53,0,0,0-.55-1.69Zm4-30.42a1.14,1.14,0,0,0-.34-.35,1.18,1.18,0,0,0-.45-.18A3.71,3.71,0,0,1,723,195.2h.14A3.93,3.93,0,0,1,726,199c-.73-.1-1.44.68-1.6,1.76V201l1.17.2a.91.91,0,0,0,.28.66l-2,14.52h-.18a.94.94,0,0,0-.47,0,1,1,0,0,0-.42.25,2.17,2.17,0,0,0-.69,1.23l-4.1-.66c0-1-.42-1.83-1.11-2h-.18l2-14.52a.9.9,0,0,0,.44-.55l1.17.2v-.27a2.68,2.68,0,0,0-.46-1.69Zm3.25-31.1a3.74,3.74,0,0,1,1.4-2,3.84,3.84,0,0,1,2.36-.71h.14a4,4,0,0,1,2.11,1.42,3.9,3.9,0,0,1,.81,2.39,1.81,1.81,0,0,0-1.61,1.75v.27l1.19.2a1.09,1.09,0,0,0,.28.69l-2,14.5h-.18a1.29,1.29,0,0,0-.48,0,1.14,1.14,0,0,0-.41.24,2.17,2.17,0,0,0-.74,1.38l-4-.65a2.51,2.51,0,0,0-.34-1.56,1,1,0,0,0-.34-.35,1.22,1.22,0,0,0-.45-.2h-.18l2-14.49a1,1,0,0,0,.46-.57l1.17.19v-.27c-.1-1.14-.62-2.12-1.37-2.24Zm4.81-29.88a1.1,1.1,0,0,0-.33-.35,1.3,1.3,0,0,0-.46-.18,3.65,3.65,0,0,1,1.35-2,3.69,3.69,0,0,1,2.28-.75h.14A3.93,3.93,0,0,1,734,138a1.69,1.69,0,0,0-.45,0,1.2,1.2,0,0,0-.4.22,2.26,2.26,0,0,0-.75,1.49V140l1.18.19a1,1,0,0,0,.28.67l-2,14.5h-.16a1.72,1.72,0,0,0-1.48,1.66l-4.11-.67c0-1-.43-1.83-1.13-2h-.17l2-14.5a.81.81,0,0,0,.28-.24.87.87,0,0,0,.17-.33l1.17.2v-.28a2.57,2.57,0,0,0-.35-1.69Zm3.23-30.92H731a3.9,3.9,0,0,1,1.45-2.17,4,4,0,0,1,2.51-.79h.14a4.39,4.39,0,0,1,2.26,1.54,4.29,4.29,0,0,1,.87,2.58H738c-.75-.12-1.48.67-1.62,1.75v.27l1.17.2a1,1,0,0,0,.3.69l-2,14.5h-.17a.94.94,0,0,0-.47,0,1.27,1.27,0,0,0-.41.23,2.18,2.18,0,0,0-.69,1.22l-4.1-.67a1.86,1.86,0,0,0-1.13-2h-.18l2-14.5a1,1,0,0,0,.28-.23.92.92,0,0,0,.18-.32l1.17.18v-.28c.09-1.18-.4-2.1-1.15-2.28Zm-7.82,1.71a.81.81,0,0,0,.28-.24.87.87,0,0,0,.17-.33l1.17.2v-.28a2.5,2.5,0,0,0-.31-1.65,1.41,1.41,0,0,0-.8-.55h-.51c.69-2,2-3.29,3.41-3.08H727c1.37.24,2.32,2,2.46,3.93-.75-.12-1.48.67-1.62,1.75v.27l1.17.2a1,1,0,0,0,.29.69l-2,14.49h-.16c-.71-.09-1.36.55-1.58,1.5l-2.78-.45a2.4,2.4,0,0,0-.33-1.38,1.14,1.14,0,0,0-.34-.35,1.3,1.3,0,0,0-.46-.18h-.16Zm-4,30.39a1,1,0,0,0,.44-.57l1.17.2V138c.16-1.1-.34-2.08-1.09-2.2h-.2c.65-1.82,2-3,3.11-2.82h.1c1.23.19,2.12,1.72,2.24,3.73-.67,0-1.29.76-1.43,1.75v.29l1.19.18a1,1,0,0,0,.28.66l-2,14.52h-.16c-.71-.12-1.39.53-1.59,1.51l-2.75-.45a2.44,2.44,0,0,0-.36-1.39,1.22,1.22,0,0,0-.32-.36,1.27,1.27,0,0,0-.45-.19h-.18Zm-4,30.41a1,1,0,0,0,.44-.57l1.19.2v-.28c.15-1.12-.34-2.08-1.1-2.2h-.19c.63-1.85,1.86-3,3.11-2.83s2.1,1.75,2.24,3.74c-.68,0-1.29.76-1.43,1.74v.28l1.19.2a1,1,0,0,0,.28.68l-2,14.5H719a1.29,1.29,0,0,0-.48,0,1.44,1.44,0,0,0-.42.23,2.26,2.26,0,0,0-.73,1.38l-2.73-.43c0-1-.38-2-1.11-2.1h-.08Zm-4,30.55a1.23,1.23,0,0,0,.28-.23,1,1,0,0,0,.15-.32l1.19.19V199a1.9,1.9,0,0,0-1.11-2.18h-.2c.64-1.85,2-3,3.11-2.83s2.13,1.73,2.26,3.71a1.83,1.83,0,0,0-1.42,1.77v.27l1.19.2a1,1,0,0,0,.27.67l-2,14.5h-.16c-.69-.12-1.36.55-1.58,1.51l-2.76-.45c0-1-.43-1.83-1.13-2h-.49Zm-4,30.42a.7.7,0,0,0,.28-.23.88.88,0,0,0,.16-.32l1.19.18v-.27a1.89,1.89,0,0,0-1.13-2.2h-.18c.63-1.85,1.88-3,3.11-2.83s2.12,1.71,2.26,3.71c-.69,0-1.31.77-1.43,1.75v.29l1.17.18a1,1,0,0,0,.28.69l-2,14.49H711c-.69-.09-1.35.55-1.58,1.48l-2.76-.43a1.88,1.88,0,0,0-1.13-2h-.06Zm-.29,45.79c-.72-.11-1.37.53-1.59,1.52l-2.76-.46a2.26,2.26,0,0,0-.35-1.39,1.14,1.14,0,0,0-.78-.55h-.57l2-14.5a1,1,0,0,0,.29-.24.87.87,0,0,0,.17-.33l1.17.2v-.27a2.45,2.45,0,0,0-.34-1.67,1,1,0,0,0-.33-.35,1.16,1.16,0,0,0-.44-.19h-.2c.65-1.82,2-3,3.11-2.82s2.12,1.72,2.26,3.71a1.19,1.19,0,0,0-.69.29,2.34,2.34,0,0,0-.74,1.48v.29l1.17.18a.9.9,0,0,0,.08.36,1,1,0,0,0,.22.31l-2,14.51Zm8.75,1.42c-.69-.12-1.36.55-1.58,1.51l-4.08-.67a2.34,2.34,0,0,0-.36-1.39,1.14,1.14,0,0,0-.33-.36,1.16,1.16,0,0,0-.44-.19H709l2-14.5a1,1,0,0,0,.46-.57l1.17.2V261a2.45,2.45,0,0,0-.34-1.67,1.07,1.07,0,0,0-.33-.34,1,1,0,0,0-.44-.19,3.62,3.62,0,0,1,1.4-2,3.77,3.77,0,0,1,2.36-.7h.23a4.11,4.11,0,0,1,2.09,1.43,4,4,0,0,1,.82,2.38,1.8,1.8,0,0,0-1.6,1.75v.28l1.17.19a.94.94,0,0,0,.07.37,1.14,1.14,0,0,0,.23.3l-2,14.5ZM726.86,279a.94.94,0,0,0-.47,0,1,1,0,0,0-.4.24,2,2,0,0,0-.7,1.22l-6.12-1a2.32,2.32,0,0,0-.36-1.4,1,1,0,0,0-.33-.35,1,1,0,0,0-.44-.2h-.18l2-14.49a1,1,0,0,0,.44-.57l1.19.19v-.29a2.33,2.33,0,0,0-.32-1.65,1.23,1.23,0,0,0-.63-.49,4.33,4.33,0,0,1,1.86-2.08,4.46,4.46,0,0,1,2.75-.54h.16a4.66,4.66,0,0,1,3.75,3.93c-.7,0-1.33.75-1.47,1.77v.28l1.19.17a1,1,0,0,0,.28.69l-2,14.5Zm12.52-13.44a.94.94,0,0,0,.07.37,1,1,0,0,0,.21.32l-2,14.49h-.17a1.29,1.29,0,0,0-.48,0,1.09,1.09,0,0,0-.41.22,2.31,2.31,0,0,0-.7,1.24l-5.94-1a2.45,2.45,0,0,0-.36-1.42,1,1,0,0,0-.33-.35,1.14,1.14,0,0,0-.44-.18h-.18l2-14.5a.89.89,0,0,0,.29-.22.87.87,0,0,0,.17-.33l1.17.18v-.27a2.6,2.6,0,0,0-.32-1.66,1.42,1.42,0,0,0-.65-.51,4.24,4.24,0,0,1,1.85-2.07,4.35,4.35,0,0,1,2.74-.52h.18a4.77,4.77,0,0,1,2.5,1.37,4.6,4.6,0,0,1,1.23,2.56,1,1,0,0,0-.42.06,1,1,0,0,0-.35.22,2.27,2.27,0,0,0-.76,1.47v.29Zm4-30.37a.94.94,0,0,0,.07.37,1.29,1.29,0,0,0,.22.3l-2,14.5h-.18c-.69-.12-1.34.53-1.58,1.47l-5.95-1a1.88,1.88,0,0,0-1.13-2h-.18l2-14.52a.91.91,0,0,0,.45-.55l1.17.2v-.29a2,2,0,0,0-1-2.16,4.31,4.31,0,0,1,1.85-2.08,4.39,4.39,0,0,1,2.75-.52h.18a4.7,4.7,0,0,1,2.48,1.39,4.65,4.65,0,0,1,1.24,2.54,1.25,1.25,0,0,0-.79.28,2.31,2.31,0,0,0-.73,1.49v.27Zm4-30.43a1,1,0,0,0,.08.38.84.84,0,0,0,.22.31l-2,14.5h-.19a1,1,0,0,0-.48,0,1.13,1.13,0,0,0-.42.22,2.23,2.23,0,0,0-.69,1.24l-5.94-1c0-1-.44-1.85-1.13-2h-.18l2-14.49a1,1,0,0,0,.28-.23,1,1,0,0,0,.18-.32l1.16.17v-.27a2,2,0,0,0-1-2.16,4.34,4.34,0,0,1,4.6-2.6H744a4.73,4.73,0,0,1,3.75,3.93,1.17,1.17,0,0,0-.8.28,2.31,2.31,0,0,0-.73,1.49v.28Zm4-30.56a1,1,0,0,0,.28.68l-2,14.5h-.18c-.73-.12-1.45.61-1.62,1.65l-6-1c.1-1.06-.38-2-1.11-2.1h-.31l2-14.52a.7.7,0,0,0,.28-.23.74.74,0,0,0,.16-.32l1.19.18v-.28a2,2,0,0,0-.12-1.24,2,2,0,0,0-.85-.92,4.34,4.34,0,0,1,4.6-2.59h.15a4.66,4.66,0,0,1,3.75,3.93,1.09,1.09,0,0,0-.79.27,2.37,2.37,0,0,0-.74,1.49v.3Zm4-30.41a.8.8,0,0,0,.08.37.87.87,0,0,0,.22.32l-2,14.49h-.18c-.69-.11-1.36.55-1.58,1.5l-5.95-1a1.91,1.91,0,0,0-1.13-2h-.35l2-14.5a.89.89,0,0,0,.29-.22.84.84,0,0,0,.16-.33l1.17.18v-.28a1.89,1.89,0,0,0-.13-1.24,2,2,0,0,0-.86-.92,4.38,4.38,0,0,1,4.62-2.59h.16a4.77,4.77,0,0,1,2.5,1.37,4.68,4.68,0,0,1,1.24,2.56,1.83,1.83,0,0,0-1.54,1.75v.29Zm4.5-32.59a1.29,1.29,0,0,0-.48,0,1.13,1.13,0,0,0-.42.22,2.46,2.46,0,0,0-.73,1.5v.27l1.19.2a1,1,0,0,0,.28.67l-2,14.49h-.23c-.7-.11-1.37.53-1.59,1.48L750,129a1.76,1.76,0,0,0-1.11-2h-.2l2-14.5a1,1,0,0,0,.46-.57l1.16.2V112a2.5,2.5,0,0,0-.31-1.65,1.14,1.14,0,0,0-.34-.35,1.32,1.32,0,0,0-.46-.19h-.11A4.72,4.72,0,0,1,756,107h.18a5,5,0,0,1,4,4.26Zm.73-30-2.38,18.11-18.63-3L742,78.18a9.39,9.39,0,0,1,1-3.67,9.67,9.67,0,0,1,9.63-5.11,10.35,10.35,0,0,1,6.24,4.38,10.17,10.17,0,0,1,1.51,7.42Z"/><path class="cls-8" d="M736.14,291.06a7.18,7.18,0,0,0-2.45,4.6l-.21,1.76-1.92-.34.24-1.75a7.93,7.93,0,0,0-1.19-5.22,7.51,7.51,0,0,0-4.87-3.22,6.8,6.8,0,0,0-5.25,1.31,7.31,7.31,0,0,0-1.83,2.12,7.52,7.52,0,0,0-.87,2.69l-.21,1.73-2.12-.36.21-1.75a8.31,8.31,0,0,0-1.18-5.63,6,6,0,0,0-1.64-1.76,5.61,5.61,0,0,0-2.18-.95,5.28,5.28,0,0,0-2.37.16,5.43,5.43,0,0,0-2.09,1.15,7.79,7.79,0,0,0-2.55,5l-.23,1.76-1.94-.36.23-1.75a8.23,8.23,0,0,0-.3-4,7.86,7.86,0,0,0-2.15-3.32c-1.19,9.25-5.86,45.94-5.94,46.49h.56c.34-1.63,1.38-2.79,2.45-2.62h.32l4-29h.19l2.1.35h.19l-3.44,29.14H700a2.28,2.28,0,0,1,1.1.73,2.47,2.47,0,0,1,.51,1.24h8.86L714.63,300h.19l2.08.34h.2l-3.41,28.84h13.4l3.65-26.58h.17L733,303h.19l-3.08,26.16h7l4.78-39.45h-.25a6.71,6.71,0,0,0-5.49,1.38Z"/><path class="cls-9" d="M976.13,240a85.36,85.36,0,0,0-15.64,7.4,37.2,37.2,0,0,0-11.62,13.27,14.55,14.55,0,0,0,2.53,17.78c.26.29.49.7.79,1.07s.45.68-.32.68h-1.38c-7.63,0-15.24.36-22.88.37-2.56,0-3.1.73-3.12,3.28V297.4c0,2.93-4.11,4.58-8,4.82-4.72.27-7.29-5.86-7.19-9.45a24.5,24.5,0,0,0-.38-6.28,66,66,0,0,1-2.53-14.76V253a6.83,6.83,0,0,1,1.37-4.29,4.62,4.62,0,0,0,1.3-2.89c.16-1.78-1-3.1-2-3s-2.09-2.83-2.45-6.61a47.8,47.8,0,0,1-.29-6.87,19.07,19.07,0,0,1,1.36-6.23c.18-.41,2.57-6.63,1.38-6.4l-1.4.29c-.77.16-1.42-3.41-1.44-8v-8.31a13.3,13.3,0,0,0-2.22-8.53,2.88,2.88,0,0,1-.7-1.88,2.92,2.92,0,0,1,.7-1.89,7.5,7.5,0,0,0,1.3-2.91,7.74,7.74,0,0,0,0-3.18c-.81-3.43-6.74-3.23-7.36.36a9.37,9.37,0,0,0,1.55,6.34,2.57,2.57,0,0,1,.33,1.08,2.38,2.38,0,0,1-.18,1.12A17.69,17.69,0,0,0,895,202.91c.18,4.08,0,8.16,0,12.24v1a1.92,1.92,0,0,1-.35,1.08c-.16.08-.24.1-.32,0l-2-.45c-.36,0,2,10.95,2,11.55a48.41,48.41,0,0,1-.16,7.52c-.33,4.15-1.87,7.39-3.44,7.2a2.24,2.24,0,0,0-1.17.17,2.28,2.28,0,0,0-.9.76,2.14,2.14,0,0,0-.06,2.25,8.38,8.38,0,0,0,2.35,2.87,6.4,6.4,0,0,1,2.16,4.11c.18,11.17.83,21.47-1.76,32.38a51.86,51.86,0,0,0-1.05,7,11.89,11.89,0,0,1-3.76,8.25c-.83.57-1.1,1.43-1.1,3.3v25.37h81.9c0-.47.32-4.21.32-4.7,0-16.43,6.44-29.74,14.23-29.74h.58V239A18.29,18.29,0,0,0,976.13,240Z"/><path class="cls-9" d="M1074.49,300.55c-.43-.12.22-12.2,0-13.18-.92-5.31-2.35-9.21-2.37-14.75V253.75a5.9,5.9,0,0,1,1.59-4.15,3.17,3.17,0,0,0,1-1.37,3.07,3.07,0,0,0,.14-1.72,3.44,3.44,0,0,0-3.29-3.2c-1.49.12-2.78-3-2.68-7.16a39.56,39.56,0,0,1,.78-7.44,31,31,0,0,1,2.19-5.72c1.36-3.11.79-5.9.28-5.72l-.94.21h-.26c-.13,0-.27-.53-.29-1.08s0-.65,0-1c0-4.11-.12-8.23,0-12.34a18.07,18.07,0,0,0-2.62-11.8,2.43,2.43,0,0,1-.18-1.13,2.61,2.61,0,0,1,.33-1.09,9.45,9.45,0,0,0,1.53-6.35c-.59-3.62-6.46-3.82-7.27-.34a7.51,7.51,0,0,0,0,3.2,7.59,7.59,0,0,0,1.28,2.94,2.85,2.85,0,0,1,0,3.77,13.69,13.69,0,0,0-2.2,8.62c.1,2.77.12,5.55.1,8.36,0,4.62-.66,8.24-1.43,8.06s-1.43,1.32-.84,3.17c.29.95.7,1.81,1.18,3.31a18,18,0,0,1,.23,5.13v7.32c0,4.05-.78,7.22-2,7.08s-2.21,1.22-2,3a4.75,4.75,0,0,0,1.3,2.89,7,7,0,0,1,1.37,4.31c0,6.9.13,13.76,0,20.75,0,5.66-2.74,10.68-2.88,16.23-.14,6.39,0,11.36-7.58,11.8-3.19.2-10.48-.63-10.48-5.31,0-.16-.16-5.53-.16-5.9v-6.91c0-3.6-.33-4.31-3.91-4.31h-22a7.74,7.74,0,0,0-1.27.16c-.71.12-.94-.29-.47-.73.28-.25.55-.51.8-.78,4.9-5.41,6-11.49,2.66-17.92a44.12,44.12,0,0,0-6.79-9.37c-3.92-4.22-10-7.86-15.79-10.91a20.52,20.52,0,0,0-9.18-2v56.43c7.48.63,15.37,18.67,13.28,34.68h81.49V305.07C1077.56,301.57,1078,301.57,1074.49,300.55Z"/><path class="cls-5" d="M1081.49,323.4H430.57v4h650.92Z"/><path class="cls-1" d="M1049.68,349.68H31.68c-8.4,0-16.46-2.35-22.4-6.52S0,333.34,0,327.44H1081.49a16.58,16.58,0,0,1-2.43,8.53,23.57,23.57,0,0,1-6.9,7.23,34.86,34.86,0,0,1-10.32,4.81A43.84,43.84,0,0,1,1049.68,349.68Z"/></g></g></svg>