<svg xmlns="http://www.w3.org/2000/svg" viewBox="0 0 1584.61 406.45"><defs><style>.cls-1{fill:#3a383e;}.cls-2{fill:#f8aa61;}.cls-3{fill:#f7d872;}.cls-4{fill:#fff;}.cls-5{fill:#ff636f;}.cls-6{fill:#f2d375;}.cls-7{fill:#35b799;}.cls-8{fill:#f9a764;}.cls-9{fill:#00c29d;}</style></defs><g id="Layer_2" data-name="Layer 2"><g id="Layer_1-2" data-name="Layer 1"><path class="cls-1" d="M516.8,235.34H500.63V334.4H516.8Z"/><path class="cls-1" d="M569.35,194.91H516.8V338.44h52.55Z"/><path class="cls-1" d="M565.35,203H522.86v4h42.49Z"/><path class="cls-1" d="M565.35,211.09H522.86v4h42.49Z"/><path class="cls-1" d="M565.35,219.17H522.86v6.07h42.49Z"/><path class="cls-1" d="M565.35,229.28H522.86v4h42.49Z"/><path class="cls-1" d="M565.35,237.37H522.86v6.06h42.49Z"/><path class="cls-1" d="M565.35,247.47H522.86v4h42.49Z"/><path class="cls-1" d="M565.35,255.56H522.86v4h42.49Z"/><path class="cls-1" d="M565.35,263.65H522.86v6.06h42.49Z"/><path class="cls-1" d="M565.35,273.75H522.86v4.05h42.49Z"/><path class="cls-1" d="M565.35,281.84H522.86v6.06h42.49Z"/><path class="cls-1" d="M565.35,292H522.86v4h42.49Z"/><path class="cls-1" d="M565.35,300H522.86v4h42.49Z"/><path class="cls-1" d="M565.35,308.12H522.86v6.06h42.49Z"/><path class="cls-1" d="M565.35,318.23H522.86v4h42.49Z"/><path class="cls-1" d="M565.35,326.31H522.86v6.07h42.49Z"/><path class="cls-2" d="M494.56,93.84h-4v44.47h4Z"/><path class="cls-2" d="M500.63,142.36H484.46v82.88h16.17Z"/><path class="cls-2" d="M500.63,142.36H484.46l6.37-26.28h3.42Z"/><path class="cls-2" d="M504.67,156.51H480.41v113.2h24.26Z"/><path class="cls-2" d="M508.71,186.83H476.35V336.42h32.34Z"/><path class="cls-3" d="M486.48,190.87h-6.07v6.07h6.07Z"/><path class="cls-3" d="M494.56,190.87h-4v6.07h4Z"/><path class="cls-3" d="M502.65,190.87h-4v6.07h4Z"/><path class="cls-3" d="M486.48,201h-6.07v6h6.07Z"/><path class="cls-3" d="M494.56,201h-4v6h4Z"/><path class="cls-3" d="M502.65,201h-4v6h4Z"/><path class="cls-3" d="M486.48,213.11h-6.07v6.06h6.07Z"/><path class="cls-3" d="M494.56,213.11h-4v6.06h4Z"/><path class="cls-3" d="M502.65,213.11h-4v6.06h4Z"/><path class="cls-3" d="M486.48,223.22h-6.07v6.06h6.07Z"/><path class="cls-3" d="M494.56,223.22h-4v6.06h4Z"/><path class="cls-3" d="M502.65,223.22h-4v6.06h4Z"/><path class="cls-3" d="M486.48,235.34h-6.07v6.07h6.07Z"/><path class="cls-3" d="M494.56,235.34h-4v6.07h4Z"/><path class="cls-3" d="M502.65,235.34h-4v6.07h4Z"/><path class="cls-3" d="M486.48,245.45h-6.07v6.07h6.07Z"/><path class="cls-3" d="M494.56,245.45h-4v6.07h4Z"/><path class="cls-3" d="M502.65,245.45h-4v6.07h4Z"/><path class="cls-3" d="M486.48,255.56h-6.07v6.06h6.07Z"/><path class="cls-3" d="M494.56,255.56h-4v6.06h4Z"/><path class="cls-3" d="M502.65,255.56h-4v6.06h4Z"/><path class="cls-3" d="M486.48,267.69h-6.07v6.06h6.07Z"/><path class="cls-3" d="M494.56,267.69h-4v6.06h4Z"/><path class="cls-3" d="M502.65,267.69h-4v6.06h4Z"/><path class="cls-3" d="M486.48,277.8h-6.07v6.06h6.07Z"/><path class="cls-3" d="M494.56,277.8h-4v6.06h4Z"/><path class="cls-3" d="M502.65,277.8h-4v6.06h4Z"/><path class="cls-3" d="M486.48,289.92h-6.07V296h6.07Z"/><path class="cls-3" d="M494.56,289.92h-4V296h4Z"/><path class="cls-3" d="M502.65,289.92h-4V296h4Z"/><path class="cls-3" d="M486.48,300h-6.07v6.07h6.07Z"/><path class="cls-3" d="M494.56,300h-4v6.07h4Z"/><path class="cls-3" d="M502.65,300h-4v6.07h4Z"/><path class="cls-3" d="M486.48,312.16h-6.07v6.07h6.07Z"/><path class="cls-3" d="M494.56,312.16h-4v6.07h4Z"/><path class="cls-3" d="M502.65,312.16h-4v6.07h4Z"/><path class="cls-3" d="M486.48,322.27h-6.07v6.06h6.07Z"/><path class="cls-3" d="M494.56,322.27h-4v6.06h4Z"/><path class="cls-3" d="M502.65,322.27h-4v6.06h4Z"/><path class="cls-4" d="M363.44,270.27l-2.3-4.52,9.33-8.17H388.4l9.13,8.17-13.57,8Z"/><path class="cls-3" d="M391.61,263.39l-36,5.42,11.43,75.95,36-5.42Z"/><path class="cls-4" d="M371.25,271.73h-4v6.07h4Z"/><path class="cls-4" d="M377.35,271.73h-2v6.07h2Z"/><path class="cls-4" d="M385.4,271.73h-4v6.07h4Z"/><path class="cls-4" d="M371.25,281.84h-4v8.08h4Z"/><path class="cls-4" d="M377.35,281.84h-2v8.08h2Z"/><path class="cls-4" d="M385.4,281.84h-4v8.08h4Z"/><path class="cls-4" d="M371.25,294h-4v8.08h4Z"/><path class="cls-4" d="M377.35,294h-2v8.08h2Z"/><path class="cls-4" d="M385.4,294h-4v8.08h4Z"/><path class="cls-4" d="M371.25,306.1h-4v8.08h4Z"/><path class="cls-4" d="M377.35,306.1h-2v8.08h2Z"/><path class="cls-4" d="M385.4,306.1h-4v8.08h4Z"/><path class="cls-2" d="M516.8,300H478.35v46.5h38.41Z"/><polygon class="cls-2" points="403.36 222.92 387.23 224.13 395.77 337.01 411.89 335.79 411.97 336.79 442.2 334.5 442.13 333.51 433.59 220.63 403.36 222.92"/><path class="cls-1" d="M360.22,251.3,334,253.63l-4,.35.53,6,4-.36.36,4,.35,4,.54,6.08.18,2,.36,4.05-15.43,1.37,1.06,11.9-15.38,1.36.73,8.24-7.45.66.13,1.53,2.38,26.66-10.11.9-3.05-34.22-12,1.07,1.14,12.81a31.57,31.57,0,0,1-7,12.69A35.53,35.53,0,0,1,248,336.36h0l.72,8.05,32.2-2.86,1.25,14.1L252,358.33l.9,10.07,76.52-6.8-.72-8.06,14.09-1.25.18,2L369.17,352l-1.62-18.16-.35-4-.36-4.11-.36-4-.35-4-.36-4-.54-6.11-.18-2-.53-6-.36-4-.36-4.06-.36-4-.36-4.08-.36-4-.54-6.07-.17-2-.54-6.08-.36-4-.36-4,2-.17-.54-6Zm-49.53,59.2,4-.35.54,6-4,.35Zm1.07,12.09,4-.35.53,6-4,.36Zm1.07,12.07,4-.35.54,6-4,.35Zm-10.2-23.45,4-.35.54,6-4,.35Zm1.07,12.1,4-.37.53,6-4,.35Zm1.43,16.09-.35-4,4-.35.54,6-4,.36ZM293,340.48l10.11-.9,1.26,14.1-10.11.9Zm36.41-1.21-4,.35-.53-6,4-.35Zm-1.08-12.08-4,.35-.54-6,4-.36Zm-1.07-12.08-4,.35-.54-6,4-.35Zm10.21,23.45-4,.35-.53-6,4-.36Zm-1.08-12.09-4,.36-.54-6,4-.35Zm-1.07-12.08-4,.36-.53-6,4-.36Z"/><path class="cls-1" d="M482.07,207.93l-48.27,4.91,13.1,128.71,48.27-4.92Z"/><path class="cls-1" d="M448.72,179.83l14.84,145.8-36.19,3.68-.82-8,18.1-1.84-.51-5L426,316.25l-.4-4,18.09-1.84-.4-4-18.1,1.84-.41-4,18.1-1.84-.41-4-18.09,1.84-.41-4,18.1-1.84-.41-4-18.1,1.84-.61-6,18.09-1.84-.4-4-18.1,1.84-.41-4,18.1-1.85-.41-4-18.09,1.85-.41-4,18.1-1.85-.41-4L421,266.3l-.41-4,18.1-1.84-.41-4-18.09,1.84-.62-6,18.1-1.84-.41-4-18.09,1.84-.41-4,18.1-1.84-.41-4-18.09,1.84-.41-4L436,234.49l-.4-4-18.1,1.84-.41-4,18.1-1.84-.41-4-18.1,1.84-.61-6,18.1-1.85-.41-4-18.09,1.85-.41-4,18.1-1.85-.41-4-18.09,1.85-.41-4,18.1-1.84-.41-4-18.09,1.84-.41-4,18.1-1.84-.41-4-18.1,1.84-.61-6,6-.61-1.18-11.54a22.38,22.38,0,0,1,24.14-2.46l1.17,11.54Z"/><path class="cls-5" d="M466.66,312l-153,14.59,2.68,28.17,153-14.59Z"/><path class="cls-1" d="M548.87,97.88h-5.79v28.3h10.11V102Z"/><path class="cls-1" d="M553.19,127l-4.32-4.85L543.08,127v11.32h10.11Z"/><path class="cls-5" d="M556,160.55l-10.91-7v-17.3h12.13Z"/><path class="cls-1" d="M553.85,138.31l13.5-1.13-6.77-4.93-7.38,2.84Z"/><path class="cls-3" d="M549.14,89.8h-6.06V106h6.06Z"/><path class="cls-3" d="M553.19,93.84H539V87.78h7.05Z"/><path class="cls-3" d="M553.19,87.78H545.1v6.06h8.09Z"/><path class="cls-1" d="M545.1,97.88H539V104h6.06Z"/><path class="cls-1" d="M571.35,138.31l-14.45,8.6-3.74,8.68V199h18.19Z"/><path class="cls-5" d="M585.24,130.23l-5.78,18.19,20.22-2.52Z"/><path class="cls-5" d="M608.07,160.55,575.42,166l13.84,35,27.35-28.65Z"/><path class="cls-1" d="M591.78,239.37H559.25l2.4-5.74-2.4-2.26v-89h36.39l-3.86,64.7Z"/><path class="cls-1" d="M599.68,150.44H583.51v14.15h16.17Z"/><path class="cls-1" d="M559.25,110l11.1,10.12L581.49,110Z"/><path class="cls-1" d="M575.42,110l10.11,10.11L595.64,110Z"/><path class="cls-1" d="M591.59,174.7h4V207l-4,2.05Z"/><path class="cls-1" d="M585.53,207h-4v32.35h4Z"/><path class="cls-1" d="M587.55,207h8.09v32.84l-8.09,3.55Z"/><path class="cls-1" d="M569.35,114.06h16.17V97.88Z"/><path class="cls-5" d="M585.53,114.06H569.35v26.27h16.17Z"/><path class="cls-1" d="M571.35,116.08v10.39a5.66,5.66,0,0,0,.46,2.22,5.83,5.83,0,0,0,1.32,1.87,6.13,6.13,0,0,0,2,1.25,6.46,6.46,0,0,0,2.33.44,6.21,6.21,0,0,0,4.27-1.7,5.6,5.6,0,0,0,1.77-4.08V116.18Z"/><path class="cls-1" d="M569.35,97.88v16.18h16.17Z"/><path class="cls-4" d="M539,83.73h14.15V69.58Z"/><path class="cls-1" d="M571.35,160.55H553.19v18.19Z"/><path class="cls-1" d="M571.35,199H553.19v14.15Z"/><path class="cls-1" d="M603.72,166.61H587.55v16.18Z"/><path class="cls-1" d="M595.64,207H581.49v16.18Z"/><path class="cls-1" d="M585.53,223.22H569.35v16.17Z"/><path class="cls-1" d="M567.35,174.7h-8.1v8.09Z"/><path class="cls-1" d="M581.49,176.72h8.08l-1.1-10.11Z"/><path class="cls-1" d="M567.35,231.3h-8.1v8.09Z"/><path class="cls-1" d="M595.64,144.38H559.25l13-6.07h23.44Z"/><path class="cls-1" d="M595.64,158.53a10.11,10.11,0,1,0-10.11-10.11h0A10.11,10.11,0,0,0,595.64,158.53Z"/><path class="cls-1" d="M605.74,148.42a10.11,10.11,0,0,0-10.1-10.11v10.11Z"/><path class="cls-5" d="M616.27,158.93,598,177.25l3.56,3.55,18.3-18.33Z"/><path class="cls-1" d="M606.43,148.91l-18.31,18.32,10,10L616.48,159Z"/><path class="cls-1" d="M595.64,239.39H559.25v8.08h36.39Z"/><path class="cls-1" d="M599.68,243.43H553.19v76.92h46.49Z"/><path class="cls-1" d="M553.19,138.31v16.17l18.16-16.17Z"/><path class="cls-1" d="M553.79,126.69l-13.54,13.54,6.31,6.3L560.09,133Z"/><path class="cls-1" d="M661.35,126.18l-11.11,24.27,11.11,24.25,11.12-24.25Z"/><path class="cls-5" d="M553.25,145.39l10-8.87-2.15-4.27-16,14.15Z"/><path class="cls-1" d="M1183.21,341.82l3.66-48.44-10.94-1.13L1173,292l-3.24-8.77.6-3.92c1.92-3.44,0-4.24,0-4.24s1.31-14.89-3.15-24.71c-5.53-12-11.2-14.87-11.2-14.87l.44-21.44s-1-5.2-3.29-7.11a10.13,10.13,0,0,0-4.7,7.71c-.69,5.56-1.6,20.42-1.6,20.42a48.58,48.58,0,0,0-9.39,8.55l.27-3.07c.18-2,.09-4.31-.65-5a16.4,16.4,0,0,1-2.55-4.35l-.13-7.61s1.89-5.94.33-7.55-2.22-2.38-2.22-2.38l-.21-1.89c-.66-6.41-2.65-22.05-6.81-29-7-11.79-16.28-20.86-18.26-26.87s-.16-22.54-.16-22.54,1-13.37-3.9-18.2l.63-8.92s-.65-.43-1-.65l-8.92,100.73,4,.35-.84,10.86-4.13-.37-1.69,19.16,10.5,8.35-1,13.49,17.61,14-.43,4.88-20.66-17.95,1.13-12.71-7.61-6.45L1087,283.59a7.15,7.15,0,0,1,1.68,1.15,10.17,10.17,0,0,1,2.92,6.86c0,.32,0,.64,0,1l-2.34,29.91-.24,2.72-5.72-.51-.73,8.28,36.46,3.43,11.14.87Zm-24.75-63.69c3.78.33,3.54,4.33,3.54,4.33l-.76,8.59-7.69-.68.76-8.59S1154.66,277.84,1158.46,278.13Zm-29.81-51.41a66.75,66.75,0,0,0-7-3.31l.85-10.88a63.18,63.18,0,0,1,7,3.32Zm-12.6-16.42-.84,10.85a82.25,82.25,0,0,0-9-2.22l.85-10.88a86.94,86.94,0,0,1,9,2.23Zm-16.57,115.53.55-6.13,1.56-20.21s.51-5.77,5.31-6.81a6.6,6.6,0,0,1,2.26-.13,7.38,7.38,0,0,1,2.27.49c4.61,1.79,4.35,7.54,4.35,7.54l-1,13-1,13.35Zm42.89-49c3.9.35,3.55,4.28,3.55,4.28l-.76,8.56-7.79-.69.76-8.51a4,4,0,0,1,1.4-2.65,3.86,3.86,0,0,1,2.84-.9ZM1133,300.71l.52-5.9h.12l-2.7,33.61.23-2.65Z"/><path class="cls-1" d="M1080.64,291.38a5,5,0,0,1,.08-.95,10.33,10.33,0,0,1,4.16-6.25,7.67,7.67,0,0,1,1.9-.83l3.85-43.53-8.61,4.89-1.13,12.73-24,13.94.43-4.88,20.23-10.59,1.36-13.46,12.06-6.34,1.68-18.93-4.2-.37,1-10.89,4.09.36,8.92-100.76-1.14.44-.95,9c-5.83,3.83-7.16,17.22-7.16,17.22s-1.12,16.57-4.17,22.16-14,12.81-23.13,23.19c-5.39,6.1-10.2,21.13-12,27.31-.52,1.78-.56,2-.56,2s-.82.66-2.66,2-1,7.5-1,7.5l-1.49,7.43a16.54,16.54,0,0,1-3.35,3.83c-.87.61-1.34,2.9-1.55,4.89l-.28,3.08a48.42,48.42,0,0,0-7.93-10.1s1.73-14.77,2-20.36a10,10,0,0,0-.69-4.62,10.14,10.14,0,0,0-2.67-3.83c-2.59,1.48-4.58,6.42-4.58,6.42l-3.36,21.17s-6.19,1.84-13.89,12.66c-6.29,8.75-7.55,23.69-7.55,23.69s-2,.45-.73,4.17l-.1,4-4.85,8.06-2.78-.24-11.2-.86L979.82,324l54,4.79,11.37,1.12,37.3,3.1.73-8.29-5.85-.52.24-2.64Zm-62-13-8-.71.77-8.6s.55-4,4.33-3.59,3.44,4.45,3.44,4.45Zm16.48,1.6-8-.71.76-8.57s.51-4,4.33-3.58,3.45,4.43,3.45,4.43Zm2.47,12.2-2.5,25-.24,2.75,3.26-33.65h.12Zm42.66-86.65-1.08,10.82a88,88,0,0,0-9.46.59l1.08-10.83a91,91,0,0,1,9.48-.58Zm-16.37,1.66L1062.79,218a68.83,68.83,0,0,0-7.62,2l1.08-10.85a64.86,64.86,0,0,1,7.61-2Zm3.65,109.52-.54,6.13-14.43-1.43,1.32-13.33,1.29-12.94s.72-5.7,5.69-6.65a8.48,8.48,0,0,1,2.36-.09,7.75,7.75,0,0,1,2.28.54c4.67,1.88,4.1,7.63,4.1,7.63Z"/><path class="cls-1" d="M1259.79,133.15c-.25.79.11,2-1.49,1s-4.36,2.08-5.67.66a4.4,4.4,0,0,0-2.08-1.06,4.26,4.26,0,0,0-2.32.18,5.69,5.69,0,0,0-1.89,2.15,14.78,14.78,0,0,0,1.75,4.72,5.27,5.27,0,0,0,2.52,1.38s2.23-2.59,4-2,1.94,4.25,1.12,5a3.25,3.25,0,0,0-.31,3.57c.5,1.18-.62,5.18-.94,7.14s-3.86,5.37-3.4,7,1.83,3.77,2.22,4.93a14.67,14.67,0,0,1-1.27,7.27c-.86,1.22-3.21,3.33-4.29,3.24s-2.31-3.82-1.77-4.6-2.61,1.56-2.72,2.87a9.78,9.78,0,0,1-1.07,3.06s-.77.08-1.84,1.64a6.78,6.78,0,0,0-.48,5.5,6,6,0,0,1-.18,2.66,5.89,5.89,0,0,1-1.32,2.3c-1,1.22-2.13-.19-3.51,1.48s-3,4.14-4.26,4.53-1.47,4.47-1,6.11,2.11,5.91,1.54,7a4.57,4.57,0,0,0,.68,3.68,11.09,11.09,0,0,1,1,3.44,26.12,26.12,0,0,0,1.54,3.9l-3.33,38.32s-4.45,5-4.41,6.46-.21,5.94-1.82,6.57a18.12,18.12,0,0,0-6.46,7.13,39,39,0,0,0-.51,5.91c-.33,2-1,3.88-.27,5s2.58,4,1.93,4.13-2.65.61-2.89,1.36a90.45,90.45,0,0,0-2.89,10.24c0,1.32-1.43,4-1.54,5.25a43,43,0,0,0-.55,4.38c0,1.79-1.27,5.42-1.16,5.92a8.17,8.17,0,0,1,.07,1.85l-1.34,15.41,34.06,2.95,18.52-213.48C1260.12,129.36,1260,132.35,1259.79,133.15Z"/><path class="cls-1" d="M1282.91,330.48s-.39-9.34-.42-12a33.52,33.52,0,0,0-.21-6.17,10.24,10.24,0,0,0-1-2.56,32,32,0,0,0-.61-7.18,23.68,23.68,0,0,0-4.91-3.32,41.52,41.52,0,0,0,5.38-7.65c.69-2.14.44-7.8-1.24-8.91s-3.29-1.52-3.12-3.5,0-3.19-1.18-3.74a28.43,28.43,0,0,1-3.45-3,19.16,19.16,0,0,1-2.19-3.11l3.7-42.73s2.77-3.44,2.66-5.19a19.16,19.16,0,0,1,.45-5.12c.3-.69,4.11-7.59,4-8.69s4.1,1.36,4.1,1.36.8-3.39-.36-4.44-6-4.54-3.78-5.25a8,8,0,0,1,5.4.94s.27-3.12-1.88-4.12-.91-3.8-3.33-4.72-5.51.53-7.65-.41-2.46-2.91-4-5a34.39,34.39,0,0,0-3.37-4s6.26-2.73,6.16-5.49-3.38-7.32-4-11.3.37-8.16-.61-10a24.53,24.53,0,0,0-2.34-3.47l.44-3.24s4.22,2.83,5.71,3.59,2.42,4.32,3,4a6,6,0,0,0,.33-2.51,6.12,6.12,0,0,0-.73-2.44c-.93-.9-4.19-3-5.64-4.46a7.24,7.24,0,0,1-1.9-4.89,4.92,4.92,0,0,0-.1-2,5.12,5.12,0,0,0-.84-1.84,13.47,13.47,0,0,1-2.16-1.61c-.68-.74,1.21-2.43,1.33-3.74a2.6,2.6,0,0,0-.07-1.11,2.63,2.63,0,0,0-1.4-1.69,2.56,2.56,0,0,0-1.09-.29h-.1l-18.51,213.37,38.24,3.32Z"/><path class="cls-1" d="M840.24,167.59l-2.22-1-6,18-12,3.6.6,2.66,13-3.85v-.4l.31.13Z"/><path class="cls-1" d="M916,262.65l-.66,2.11h-1.69v2.92H911v-7.59h-1.16V256h-.47l-.42-3-.58-3.91-.58,3.91-.44,3h-.59v4.07h-1.12v7.59h-3.8v-2.92h-1.67l-.64-2.11-.7-2.27-.68,2.27-.64,2.11h-1.68v2.92h-2.59v-7.24h-1.12v-4.23h-.72l-.46-3.07-.58-3.91-.57,3.91-.44,3.07h-.58v4.23h-1.14v7.18h-3.81v-2.91h-1.68l-.66-2.12-.67-2.27-.68,2.27-.64,2.12h-1.68v2.91H875.3V260h-1.14V256h-.58l-.45-3-.57-3.91L872,253l-.44,3H871V260h-1.13v7.59H866v-2.91H864.3l-.64-2.12-.7-2.27-.68,2.27-.63,2.12H861L860.85,204h2.59V144.38h-2.59V132.91h-.53l-12.65-21.52h-.14V90.19h-.14L830.83,54V43.39h-.34V54.1L813.92,90.19h-.14v21.69L800.88,133h-.54v11.47h-2.59v59.82h2.59V326.35H916.63V260.6Zm-84.33-67.79h-1.11c-10.35-.64-18.57-10.21-18.57-22s8.22-21.32,18.57-22h1.11c10.84,0,19.66,9.78,19.66,22S842.5,194.86,831.66,194.86Z"/><path class="cls-1" d="M1062.73,253.48V243h-.25a6,6,0,0,0-1.52-2.46,6.08,6.08,0,0,0-2.52-1.45l-.81-3.17-1.2-4.76-1.22,4.76-.81,3.22a6,6,0,0,0-4,3.4h-.68V225.13h-2v-9.78h-1.26l-.87-4.22-1.61-8.07-1.64,8.07-.84,4.22h-1.37v9.78h-2v17.4h-4.09v8.33l-4.88,3v13.41H1026v-2.93h-1.69l-.63-2.15-.69-2.31-.68,2.31-.64,2.15H1020v2.93h-2.79v-7.66h-1.12V255.5h-.59l-.44-3-.59-3.91-.6,3.91-.4,3h-.59v4.11h-1v7.66h-3.55v-2.93h-1.69l-.65-2.15-.67-2.31-.69,2.31-.63,2.15h-1.69v2.93h-2.69v-8.09h-1.11v-3.91h-.59l-.44-2.85-.57-3.76-.57,3.76-.45,2.85h-.57v3.91h-1.07v8.09h-3.62v-2.93H989l-.64-2.15-.67-2.31-.69,2.31-.64,2.15h-1.69v2.93H981.9v-8.09h-1.2v-3.91h-.59l-.43-2.85-.57-3.76-.59,3.76-.44,2.85h-.57v3.91h-1.14v8.09h-3.64v-2.93h-1.68l-.63-2.15-.68-2.23-.67,2.31-.64,2.15h-1.8v2.93H964v-7.66h-1.14v-4.11h-.59l-.44-3-.57-3.91-.12.75v.89l-.43,3-.43,2.95h-.57v4.06h-1.13v7.59H954.9v-3h-1.65l-.64-2.11-.69-2.26-.66,2.26-.63,2.11H949v2.92h-2.65v-7.82h-1.12v-3.9h-.59l-.44-2.89-.57-3.78-.54,3.78-.46,2.89H942v3.91h-1v7.82h-3.65V265h-1.66l-.64-2.11-.66-2.26-.69,2.26-.63,2.11h-1.67v2.92h-2.6v-7.25h-1.13V256.4h-.57l-.44-3.06-.56-3.91-.57,3.91-.44,3.06h-.59v4.23h-1.23v7.17h-3.7v-2.91h-1.68l-.64-2.11-.69-2.27v65.84h146.48V267.46l.53-.26V255.28Z"/><path class="cls-1" d="M730.35,257.79s7.58-28.1,7.95-35.47h9V0H747V12.72a1.18,1.18,0,0,0-.55.41,1.19,1.19,0,0,0-.23.65V25.56h-.89a2,2,0,0,0-2.11,1.82,1.75,1.75,0,0,0,.24.89h-1a2.82,2.82,0,0,0-2,.68,2.76,2.76,0,0,0-.94,1.89v1.8a2.45,2.45,0,0,0,.31,1.18,2.72,2.72,0,0,0-1.39.91,2.59,2.59,0,0,0-.59,1.55s1.33,10.38,3,10.38h.4c.39,57.18-11.21,133.19-14.23,152.07h-2.4a2.85,2.85,0,0,0-1.08.14,3,3,0,0,0-.94.54,2.76,2.76,0,0,0-.94,1.89s1.31,5,3,5h1c-3.1,16-9.93,34-17.7,51h-7.08v14.77a583.16,583.16,0,0,1-30.41,53.37h32.34c.56-22.24,20.21-40.11,44.46-40.22v-27.5Z"/><path class="cls-6" d="M921.82,303.38l.53-4.38a1.86,1.86,0,0,0,.27-.79,2,2,0,0,0-1.21-2l-.59-3.79-5.26-.57c-2.45-4.55-4.91-20.07-4.91-20.07l.16-2.09a7,7,0,0,1,1.68-4l-3.38-1.53-.48-2.64-6.29-2L897.2,241l.94-1.52-.62-2,1.22-3.42L896,233l-.46-4-3.23-1.32c-.78-5.12-7.85-22.73-7.85-22.73l-1.54-2.45.92-3.42c-19.83-8-44.85-8.74-63.72-7.67v42c2.54,0,4.61,2.59,4.61,5.79v9.45a6.06,6.06,0,0,1-.24,1.8c-1.49,0-3,.12-4.45.18v13.83a7.08,7.08,0,0,1,2.38,5.5v10.85a7.63,7.63,0,0,1-1.1,4H820v41.74H925.14C923.84,319.84,921.82,303.38,921.82,303.38ZM875.12,242a4.44,4.44,0,0,1,0-1.92,4.28,4.28,0,0,1,.85-1.72,4.52,4.52,0,0,1,1.52-1.19,4.46,4.46,0,0,1,3.78,0,4.39,4.39,0,0,1,1.51,1.19,4.18,4.18,0,0,1,.86,3.64v12.57c-2.81-.55-5.67-1-8.54-1.48Zm-13.46-32.32h4.15v6.43h-4.15Zm-.4,30.11a4.24,4.24,0,0,1,.06-1.94,4.34,4.34,0,0,1,.88-1.72,4.53,4.53,0,0,1,5.36-1.18,4.4,4.4,0,0,1,2.42,2.9,4.24,4.24,0,0,1,.06,1.94v12.6c-2.91-.37-5.83-.67-8.78-.94Zm-28.54-32.38h4.15v6.44h-4.15Zm2,111.14H823.88v-12.2c0-4.86,2.41-8.83,5.41-8.83s5.43,4,5.43,8.83Zm4-37a7.47,7.47,0,0,1-.7,3.22h-9.5a7.91,7.91,0,0,1-.66-3.18V270.67c0-3.68,2.44-6.64,5.43-6.64s5.43,3,5.43,6.64Zm1.38-31.41v.24h-9.68V238.45a4.78,4.78,0,0,1,1-4.16,5,5,0,0,1,3.85-1.82,5.13,5.13,0,0,1,4.76,3.82,4.64,4.64,0,0,1,0,2.16Zm11.78,68.45H841V307.21c0-4.43,2.43-8,5.43-8s5.43,3.57,5.43,8Zm2.76-36.47a7.71,7.71,0,0,1-.58,3c-3.26,0-6.51-.2-9.77-.26a7.83,7.83,0,0,1-.5-2.75V271.2c0-3.67,2.44-6.64,5.44-6.64s5.41,3,5.41,6.64Zm1.16-32.65a6.79,6.79,0,0,1-.18,1.56q-4.5-.28-9-.47a6.61,6.61,0,0,1,0-1.09V240c0-3.2,2-5.79,4.61-5.79s4.62,2.59,4.62,5.79Zm12.46,69.18H857.4v-11.4c0-4.88,2.44-8.83,5.43-8.83s5.42,3.95,5.42,8.83ZM870.8,283a7.78,7.78,0,0,1-.5,2.83c-3.23-.18-6.51-.34-9.78-.46a8.65,8.65,0,0,1-.34-2.37V272.17c0-3.68,2.38-6.66,5.31-6.66s5.31,3,5.31,6.66Zm12.92,35.58H872.88V306.72c0-4.88,2.42-8.84,5.41-8.84s5.43,4,5.43,8.84Zm1.86-34.47a8.16,8.16,0,0,1-.46,2.68c-3.27-.27-6.59-.51-10-.71a7.93,7.93,0,0,1-.24-2V273.26c0-3.68,2.37-6.64,5.31-6.64s5.31,3,5.31,6.64Zm1.6-39.39c0-3,1.88-5.38,4.17-5.38s4.15,2.41,4.15,5.38v12.61c-2.73-.76-5.51-1.41-8.32-2Zm.76,73.86-.68-10c-.32-4.67,1.32-8.62,3.65-8.86s4.49,3.32,4.81,7.91l.76,10.87ZM897.35,288c-2.87-.33-5.83-.63-8.8-.89a9.43,9.43,0,0,1-.14-1.19l-.6-10.81c-.2-3.67,1.69-6.81,4.25-7s4.77,2.59,5,6.26l.6,10.81a9.74,9.74,0,0,1-.34,2.79Zm2.82,30.6-.66-9.89c-.32-4.56,1-8.42,2.87-8.61s3.68,3.34,4,7.9l.72,10.6Zm6.91-29.35c-2.24-.34-4.54-.64-6.85-.91a1.71,1.71,0,0,1,0-.32l-.56-10.18c-.2-3.46,1.2-6.38,3.11-6.54s3.62,2.51,3.82,5.93l.54,10.18a10.58,10.58,0,0,1-.12,1.78Zm2.11,29.35-.84-9.2c-.41-4.56.78-8.45,2.68-8.71s3.76,3.22,4.17,7.77l.92,10.12Z"/><path class="cls-6" d="M812.94,285.29a7.66,7.66,0,0,1-1.13-4.06V270.51c0-3.61,2.37-6.56,5.27-6.56a4.48,4.48,0,0,1,2.94,1.13V251.42l-4.08.13a6.42,6.42,0,0,1-.31-2.09v-9.27a5.28,5.28,0,0,1,4.39-5.75V193a226.58,226.58,0,0,0-27.1,3.09l.15,2.61-1,.94-.31,3.18-3.59.57L777,206.18l-4.19-4.66c-57.3,22.07-47.52,43.77-47.52,43.77L724,254.44a13.4,13.4,0,0,0-2.59,5.7,13.57,13.57,0,0,0,.28,6.27l-1.33,9.08c-5.15,3.28-2.46,9.52-2.46,9.52l-2.61,14.51c-2.4,1.31-.39,3.9-.39,3.9l-1.94,23H820V285.29Zm-8.45-75.87h4v6.37h-4Zm-3,30.79c0-3.16,1.94-5.72,4.49-5.72s4.48,2.56,4.48,5.72v9.33a6.79,6.79,0,0,1-.43,2.4c-2.69.18-5.3.36-7.88.57a7.37,7.37,0,0,1-.66-3Zm-14.32,1.41c0-3.17,1.93-5.72,4.47-5.72s4.49,2.55,4.49,5.72v9.31a7,7,0,0,1-.33,2.13q-4.12.38-8,.82a6.82,6.82,0,0,1-.64-2.95Zm-8.64-26.77,3.87-.37v6.38l-3.87.38Zm-3.87,29.28c0-3.16,1.94-5.72,4.47-5.72s4.47,2.56,4.47,5.72v9.34a6.61,6.61,0,0,1,0,.89c-3,.38-5.92.75-8.59,1.12a7.92,7.92,0,0,1-.29-2Zm-.72,21.26a6.07,6.07,0,0,1,3.78,2.47,6.17,6.17,0,0,1,1.06,4.41l-.67,10.4a6.94,6.94,0,0,1-1.22,3.63l-7.75.35a7.25,7.25,0,0,1-1.49-5l.66-10.41c.19-3.55,2.77-6.19,5.61-5.9Zm-11-20.61c.23-3.14,2.42-5.47,4.88-5.19a5.44,5.44,0,0,1,4,6.18l-.66,9.3a5.59,5.59,0,0,1-.13,1c-3.12.47-5.81.92-8.23,1.31a7.09,7.09,0,0,1-.56-3.28Zm-29-5-1.41.94.65-5.33,1.36-.84Zm10.67-6.91-1.57.45.29-5.23,1.72-.94Zm13.88-12,3-1.23-.76,6.37-2.82.86ZM772,306.77l-1,11.91H760.45a2,2,0,0,1,0-.35l1-12.63c.35-4.3,3-7.52,5.8-7.23s5.08,3.91,4.73,8.22Zm14.27,11.87H775.74V306.53c0-4.12,2.35-7.46,5.25-7.46s5.27,3.34,5.27,7.46Zm-3.39-32.54a7.77,7.77,0,0,1-1.08-3.91V271.54c0-3.63,2.36-6.56,5.24-6.56s5.27,2.93,5.27,6.56v10.72a7.56,7.56,0,0,1-1,3.74Zm19.43,32.65h-10.5V305.59c0-4.8,2.37-8.72,5.27-8.72s5.25,3.9,5.25,8.72Zm4.7-37.42a7.51,7.51,0,0,1-1.2,4.17c-2.71,0-5.36.1-8,.18a7.57,7.57,0,0,1-1.31-4.35V270.61c0-3.61,2.34-6.56,5.26-6.56s5.25,2.95,5.25,6.56Zm.89,37.42V305.2c0-4.82,2.36-8.73,5.27-8.73s5.26,3.91,5.26,8.73v13.43Z"/><path class="cls-7" d="M1048.13,99.62l-11.46-1.8c0-1.12-.49-2.08-1.29-2.24l4.34-31.91a1.4,1.4,0,0,0,.5-.78l1.1.18v-.28a2.76,2.76,0,0,0-.39-2,1.27,1.27,0,0,0-.39-.41,1.42,1.42,0,0,0-.53-.2l-1-.16,1-7.37,1.22.2a2.78,2.78,0,0,0,2.78-1.43,2.52,2.52,0,0,0,.3-1,3.63,3.63,0,0,0,0-1.14l-36.84-5.77L999.92,100a5.18,5.18,0,0,1,2.66,1.5,4.87,4.87,0,0,1,1.28,2.7h-.12c-.78-.12-1.53.67-1.68,1.75v.3l1.21.17a1,1,0,0,0,.08.38,1.16,1.16,0,0,0,.22.31l-2,14.5h-.22c-.71-.12-1.41.53-1.63,1.47l-2.86-.45-1.1,8.07a4.85,4.85,0,0,1,2.46,1.43,4.5,4.5,0,0,1,1.21,2.5c-.73,0-1.38.75-1.53,1.77v.27l1.21.2a1,1,0,0,0,.3.69l-2,14.5h-.18a1.78,1.78,0,0,0-1.63,1.51l-2.84-.45-1.07,8.09a4.93,4.93,0,0,1,2.44,1.43,4.56,4.56,0,0,1,1.18,2.5c-.73,0-1.38.75-1.52,1.77v.27l1.2.2a1.06,1.06,0,0,0,.3.69l-2,14.5h-.18a1.81,1.81,0,0,0-1.65,1.65l-2.79-.43-1.1,8.11a4.9,4.9,0,0,1,2.43,1.43,4.54,4.54,0,0,1,1.17,2.5c-.71,0-1.38.74-1.52,1.77v.27l1.2.2a1,1,0,0,0,.3.66l-2,14.52H989c-.73-.11-1.43.53-1.65,1.51l-2.75-.43-1.1,8.1a4.9,4.9,0,0,1,2.4,1.44,4.58,4.58,0,0,1,1.17,2.49c-.74,0-1.39.74-1.53,1.78v.28l1.22.2a1,1,0,0,0,.29.66l-2,14.5h-.19c-.71-.12-1.39.51-1.61,1.47l-2.75-.43L979.25,253a4.69,4.69,0,0,1,2.39,1.44,4.54,4.54,0,0,1,1.14,2.48,1.25,1.25,0,0,0-.76.3,2.23,2.23,0,0,0-.78,1.47V259l1.23.19a1,1,0,0,0,.28.67l-2,14.52h-.19a1.78,1.78,0,0,0-1.63,1.51l-2.71-.43-.45,3.3,46.9,7.37a1.57,1.57,0,0,0,.61,0,1.44,1.44,0,0,0,.53-.29,1.68,1.68,0,0,0,.54-.84,1.85,1.85,0,0,0-.46-1.75,1.74,1.74,0,0,0-.82-.47h-.39a1.9,1.9,0,0,0-1.16-2h-.17l2-14.49a.89.89,0,0,0,.3-.24.87.87,0,0,0,.17-.33l1.2.19v-.27c.15-1.1-.36-2.08-1.14-2.2a5.91,5.91,0,0,1,1.23-2l.79-5.77.86.13a1.26,1.26,0,0,0,.61,0,1.29,1.29,0,0,0,.53-.28,1.65,1.65,0,0,0,.61-1.1,1,1,0,0,0,0-.24,1.62,1.62,0,0,0-.3-1,1.42,1.42,0,0,0-.44-.44,1.44,1.44,0,0,0-.58-.21h-.39a1.74,1.74,0,0,0-.21-1.18,1.79,1.79,0,0,0-.95-.78h-.19l2-14.5a.84.84,0,0,0,.3-.22.87.87,0,0,0,.17-.33l1.2.18v-.28a2.33,2.33,0,0,0-.32-1.65,1.29,1.29,0,0,0-.34-.36,1.44,1.44,0,0,0-.46-.19,5.45,5.45,0,0,1,1.23-2l.79-5.78.86.14a1.57,1.57,0,0,0,.61,0,1.44,1.44,0,0,0,.53-.29,1.63,1.63,0,0,0,.61-1.09,1,1,0,0,0,0-.24,1.79,1.79,0,0,0-.31-1,1.46,1.46,0,0,0-1-.65h-.39a2.37,2.37,0,0,0-.37-1.42,1.17,1.17,0,0,0-.81-.55h-.17l2-14.49a.89.89,0,0,0,.3-.24.87.87,0,0,0,.17-.33l1.2.19v-.27a2.23,2.23,0,0,0-.32-1.65,1,1,0,0,0-.35-.36,1.14,1.14,0,0,0-.47-.19,5.45,5.45,0,0,1,1.23-2l.77-5.77.88.14a1.52,1.52,0,0,0,.6-.05,1.38,1.38,0,0,0,.54-.27,1.77,1.77,0,0,0,.61-1.1v-.24a1.64,1.64,0,0,0-.33-1,1.6,1.6,0,0,0-.42-.44,1.67,1.67,0,0,0-.57-.23H1035a1.79,1.79,0,0,0-1.16-2.08h-.17l2-14.5a1.14,1.14,0,0,0,.3-.23.77.77,0,0,0,.36-.23l1.2.2V175a2.38,2.38,0,0,0-.32-1.65.93.93,0,0,0-.35-.36,1.14,1.14,0,0,0-.47-.19,5.56,5.56,0,0,1,1.22-2l.72-5.8.88.13a1.22,1.22,0,0,0,.6,0,1.55,1.55,0,0,0,.54-.28,1.65,1.65,0,0,0,.61-1.1,1.43,1.43,0,0,0,0-.65,1.65,1.65,0,0,0-.24-.6,1.77,1.77,0,0,0-1.09-.72h-.3a1.91,1.91,0,0,0-1.16-2H1038l2-14.5a1.09,1.09,0,0,0,.29-.23.92.92,0,0,0,.18-.32l1.2.18v-.28a1.81,1.81,0,0,0-1.14-2.2,5.56,5.56,0,0,1,1.22-2l.78-5.78.88.14a1.51,1.51,0,0,0,.6,0,1.73,1.73,0,0,0,.54-.28,1.61,1.61,0,0,0,.59-1.11.89.89,0,0,0,0-.23,1.88,1.88,0,0,0-.29-1,1.62,1.62,0,0,0-1-.63h-.38a2.24,2.24,0,0,0-.35-1.36,1.2,1.2,0,0,0-.35-.36,1.29,1.29,0,0,0-.47-.19h-.18l2-14.5a.84.84,0,0,0,.3-.22.87.87,0,0,0,.17-.33l1.2.18v-.27a2.4,2.4,0,0,0-.34-1.65,1.27,1.27,0,0,0-.8-.55h-.32a6,6,0,0,1,1.33-2.2l.77-5.68,1.11.18a1.57,1.57,0,0,0,.61,0,1.44,1.44,0,0,0,.55-.28,1.65,1.65,0,0,0,.59-1.08,1.13,1.13,0,0,0,0-.26,1.74,1.74,0,0,0,1-.88,1.68,1.68,0,0,0,.1-1.35,1.77,1.77,0,0,0-.92-1A1.88,1.88,0,0,0,1048.13,99.62ZM1032,105.05a4.34,4.34,0,0,1,2.33,1.53,4.13,4.13,0,0,1,.89,2.57h-.14a1.4,1.4,0,0,0-.5,0,1.2,1.2,0,0,0-.42.25,2.11,2.11,0,0,0-.75,1.47v.28l1.2.19a1,1,0,0,0,.28.69l-2,14.5h-.18a1.23,1.23,0,0,0-.92.27,2.27,2.27,0,0,0-.71,1.22l-4.38-.69a2.24,2.24,0,0,0-.37-1.33,1.17,1.17,0,0,0-.35-.35,1.28,1.28,0,0,0-.47-.18h-.18l2-14.5a.7.7,0,0,0,.28-.23.76.76,0,0,0,.17-.32l1.22.18v-.28a2.35,2.35,0,0,0-.35-1.65,1,1,0,0,0-.33-.35,1.23,1.23,0,0,0-.46-.18h-.23a3.93,3.93,0,0,1,1.55-2.21,4.16,4.16,0,0,1,2.66-.75Zm-1.57,36.69a1,1,0,0,0,.08.37.84.84,0,0,0,.22.3l-2,14.52h-.19c-.71-.1-1.41.55-1.63,1.51l-4.38-.68c0-1-.45-1.85-1.17-2h-.18l2-14.5a1,1,0,0,0,.47-.55l1.2.2v-.3a1.89,1.89,0,0,0-1.08-2.18,3.73,3.73,0,0,1,1.44-2,3.92,3.92,0,0,1,2.43-.71h.15a4.21,4.21,0,0,1,2.15,1.43,4,4,0,0,1,.85,2.38,1.84,1.84,0,0,0-1.57,1.77v.28Zm-4.1,30.42a.94.94,0,0,0,.31.66l-2,14.5h-.31c-.75-.12-1.47.63-1.65,1.65l-4.36-.69a1.79,1.79,0,0,0-1.16-2.08H1017l2-14.5a.66.66,0,0,0,.29-.23.92.92,0,0,0,.18-.32l1.2.18v-.27a2.31,2.31,0,0,0-.34-1.66,1.16,1.16,0,0,0-.76-.53,3.8,3.8,0,0,1,1.45-2,4,4,0,0,1,2.44-.72h.15a4.25,4.25,0,0,1,2.18,1.49,3.93,3.93,0,0,1,.82,2.44,1.09,1.09,0,0,0-.44.06,1.11,1.11,0,0,0-.38.22,2.26,2.26,0,0,0-.75,1.47v.28Zm-4.08,30.56a1.07,1.07,0,0,0,.31.67l-2,14.5h-.23a1.35,1.35,0,0,0-.49,0,1.18,1.18,0,0,0-.42.24,2.41,2.41,0,0,0-.72,1.24l-4.38-.69a1.9,1.9,0,0,0-1.16-2H1013l2-14.5a.89.89,0,0,0,.3-.24.87.87,0,0,0,.17-.33l1.2.2v-.28a2.41,2.41,0,0,0-.31-1.53,1.22,1.22,0,0,0-.76-.53,3.73,3.73,0,0,1,1.44-2,3.93,3.93,0,0,1,2.44-.71h.14a4,4,0,0,1,2.17,1.42,3.83,3.83,0,0,1,.83,2.39,1.38,1.38,0,0,0-.82.28,2.38,2.38,0,0,0-.75,1.49v.28Zm-4.08,30.41a1,1,0,0,0,.31.69l-2,14.5h-.15a1.29,1.29,0,0,0-.48,0,1.18,1.18,0,0,0-.42.24,2.12,2.12,0,0,0-.71,1.19l-4.41-.68a1.7,1.7,0,0,0-1.16-2H1009l2-14.5a.84.84,0,0,0,.3-.22.87.87,0,0,0,.17-.33l1.21.18V232a2.36,2.36,0,0,0-.35-1.66,1.08,1.08,0,0,0-.31-.33,1.25,1.25,0,0,0-.42-.2,3.72,3.72,0,0,1,1.43-2,4.08,4.08,0,0,1,2.44-.71h.14a4.3,4.3,0,0,1,2.19,1.48,3.94,3.94,0,0,1,.81,2.45,1.09,1.09,0,0,0-.44.06,1.07,1.07,0,0,0-.37.22,2.32,2.32,0,0,0-.76,1.47V233Zm-16.84-4.53a1.27,1.27,0,0,0-.67-.51,4.36,4.36,0,0,1,1.92-2.08,4.65,4.65,0,0,1,2.83-.52h.16a4.86,4.86,0,0,1,2.58,1.37,4.56,4.56,0,0,1,1.27,2.56,1.84,1.84,0,0,0-1.54,1.77v.27l1.2.2a1,1,0,0,0,.28.67l-2,14.5h-.16c-.71-.12-1.4.53-1.63,1.47l-6.24-1a2.25,2.25,0,0,0-.37-1.38,1.19,1.19,0,0,0-.33-.34,1,1,0,0,0-.46-.19H998l2-14.5a.8.8,0,0,0,.29-.22.84.84,0,0,0,.16-.33l1.23.18v-.27a2.41,2.41,0,0,0-.53-1.67Zm4-30.43a1.22,1.22,0,0,0-.68-.5,4.5,4.5,0,0,1,1.92-2.08,4.68,4.68,0,0,1,2.84-.53h.16a4.86,4.86,0,0,1,2.58,1.37,4.56,4.56,0,0,1,1.27,2.56c-.73,0-1.4.75-1.55,1.77v.29l1.23.18a1,1,0,0,0,.28.69l-2,14.5h-.16a1,1,0,0,0-.49,0,1.26,1.26,0,0,0-.43.22,2.32,2.32,0,0,0-.73,1.24l-6.12-1a2.29,2.29,0,0,0-.36-1.42,1,1,0,0,0-.34-.35,1.06,1.06,0,0,0-.46-.2H1002l2-14.5a1,1,0,0,0,.45-.57l1.22.2v-.27a2.4,2.4,0,0,0-.42-1.58Zm4.08-30.55a1.14,1.14,0,0,0-.68-.51,4.34,4.34,0,0,1,1.91-2.08,4.69,4.69,0,0,1,2.82-.54h.19a4.88,4.88,0,0,1,2.57,1.38,4.54,4.54,0,0,1,1.28,2.55,1.83,1.83,0,0,0-1.55,1.77v.28l1.23.19a.94.94,0,0,0,.07.37.9.9,0,0,0,.21.3l-2,14.5h-.13a1.29,1.29,0,0,0-.48,0,1.13,1.13,0,0,0-.42.22,2.26,2.26,0,0,0-.75,1.4l-6.12-1c0-1-.39-2-1.14-2.11h-.35l2-14.49a1.37,1.37,0,0,0,.29-.24.84.84,0,0,0,.16-.33l1.22.19v-.27a2.15,2.15,0,0,0-.35-1.63Zm4.07-30.41a1.14,1.14,0,0,0-.67-.51,4.34,4.34,0,0,1,1.91-2.08,4.69,4.69,0,0,1,2.82-.54h.19a4.88,4.88,0,0,1,2.57,1.38,4.54,4.54,0,0,1,1.28,2.55,1.14,1.14,0,0,0-.78.28,2.26,2.26,0,0,0-.77,1.49v.27l1.22.18a.94.94,0,0,0,.07.37,1,1,0,0,0,.22.32l-2,14.5h-.21a1,1,0,0,0-.49,0,1.14,1.14,0,0,0-.41.24,2,2,0,0,0-.71,1.22l-6.25-1a1.89,1.89,0,0,0-1.16-2h-.18l2-14.49a1.06,1.06,0,0,0,.45-.55l1.2.17v-.27a2.21,2.21,0,0,0-.26-1.53Zm3.33-30.94h-.12a4.64,4.64,0,0,1,2-2.24,4.91,4.91,0,0,1,3-.59h.17a5.15,5.15,0,0,1,2.75,1.49,4.8,4.8,0,0,1,1.32,2.77h-.12c-.77-.14-1.53.65-1.67,1.75v.27l1.2.2a.9.9,0,0,0,.08.36,1.19,1.19,0,0,0,.23.31l-2,14.5h-.19c-.71-.12-1.38.53-1.63,1.47l-6.24-1a2.41,2.41,0,0,0-.34-1.38,1.17,1.17,0,0,0-.35-.35,1.28,1.28,0,0,0-.47-.18h-.1l2-14.5a.89.89,0,0,0,.29-.22,1.06,1.06,0,0,0,.18-.33l1.2.2v-.29c.13-1.15-.36-2.11-1.15-2.24Zm-1.06-30.06a6.8,6.8,0,0,1,.78-2.68,7.06,7.06,0,0,1,1.81-2.18,7.52,7.52,0,0,1,5.42-1.57,7,7,0,0,1,2.65,1,6.81,6.81,0,0,1,2,2,7.9,7.9,0,0,1,1.32,5.64l-2.4,17.94-14-2.2Zm-10.67,31.15a.66.66,0,0,0,.29-.23.74.74,0,0,0,.16-.32l1.2.2v-.29a1.86,1.86,0,0,0-1.12-2.2,4.73,4.73,0,0,1,2-2.26,4.84,4.84,0,0,1,3-.57h.16a5.18,5.18,0,0,1,2.76,1.49,4.86,4.86,0,0,1,1.32,2.77c-.77-.12-1.53.67-1.69,1.77V108l1.22.2a1,1,0,0,0,.29.67l-2,14.5h-.16a1.06,1.06,0,0,0-.5,0,1.18,1.18,0,0,0-.42.24,2.14,2.14,0,0,0-.72,1.2l-6.36-1a2.48,2.48,0,0,0-.36-1.38,1.17,1.17,0,0,0-.35-.35,1.28,1.28,0,0,0-.47-.18h-.16Zm-4.07,30.4a.92.92,0,0,0,.28-.24.84.84,0,0,0,.16-.33l1.23.19v-.27a2.28,2.28,0,0,0-.33-1.67,1.31,1.31,0,0,0-.57-.47,4.44,4.44,0,0,1,1.9-2.09,4.66,4.66,0,0,1,2.83-.53h.16a4.87,4.87,0,0,1,2.58,1.38,4.54,4.54,0,0,1,1.28,2.55c-.72,0-1.37.77-1.51,1.77v.3l1.2.17a.94.94,0,0,0,.29.69l-2,14.5h-.18c-.73-.14-1.4.53-1.63,1.49l-6.36-1a1.9,1.9,0,0,0-1.16-2H999ZM997,168.17a1,1,0,0,0,.29-.24,1.06,1.06,0,0,0,.18-.33l1.2.2v-.28a1.8,1.8,0,0,0-.1-1.21,2,2,0,0,0-.82-.93,4.41,4.41,0,0,1,1.9-2.08,4.57,4.57,0,0,1,2.83-.53h.16a4.86,4.86,0,0,1,2.58,1.37,4.54,4.54,0,0,1,1.28,2.55c-.71,0-1.37.75-1.51,1.75v.36l1.2.19a1.05,1.05,0,0,0,.29.67l-2,14.5h-.18c-.76-.12-1.49.61-1.68,1.65l-6.34-1a1.76,1.76,0,0,0-1.14-2.1h-.18Zm-4.08,30.57a1,1,0,0,0,.47-.57l1.2.19v-.29a1.87,1.87,0,0,0-.1-1.21,2,2,0,0,0-.82-.91,4.44,4.44,0,0,1,1.9-2.09,4.66,4.66,0,0,1,2.83-.53h.19a4.78,4.78,0,0,1,2.56,1.38,4.53,4.53,0,0,1,1.27,2.55c-.69,0-1.36.77-1.49,1.77v.28l1.2.19a1,1,0,0,0,.08.38,1.39,1.39,0,0,0,.23.31l-2,14.5h-.18c-.72-.1-1.41.55-1.63,1.51l-6.36-1c0-1-.43-1.83-1.17-2h-.18Zm-4.08,30.41a1.09,1.09,0,0,0,.29-.23,1,1,0,0,0,.18-.32l1.2.17v-.27a2,2,0,0,0-.09-1.22,1.93,1.93,0,0,0-.82-.92,4.29,4.29,0,0,1,1.9-2.09,4.66,4.66,0,0,1,2.83-.53h.18a4.9,4.9,0,0,1,2.57,1.37,4.48,4.48,0,0,1,1.26,2.56c-.69,0-1.34.75-1.49,1.77v.28l1.21.19a1.17,1.17,0,0,0,.08.37,1.11,1.11,0,0,0,.22.3l-2,14.5h-.47c-.72-.12-1.41.53-1.62,1.47l-6.38-1a2.18,2.18,0,0,0-.36-1.38,1.19,1.19,0,0,0-.8-.52h-.18ZM992,275.49a1.78,1.78,0,0,0-1.63,1.51L984,276a2.35,2.35,0,0,0-.35-1.39,1.06,1.06,0,0,0-.34-.36,1.14,1.14,0,0,0-.47-.19h-.17l2-14.5a.89.89,0,0,0,.3-.24.87.87,0,0,0,.17-.33l1.21.19v-.27a1.93,1.93,0,0,0-.92-2.14,4.41,4.41,0,0,1,1.91-2.09,4.75,4.75,0,0,1,2.84-.53h.16a4.91,4.91,0,0,1,2.57,1.38,4.66,4.66,0,0,1,1.29,2.55,1.25,1.25,0,0,0-.74.28,2.22,2.22,0,0,0-.77,1.47v.3l1.22.17a.94.94,0,0,0,.29.69l-2,14.5Zm11.06,1.75c-.72-.12-1.41.55-1.64,1.49l-6.24-1a1.9,1.9,0,0,0-1.16-2h-.18l2-14.49a1,1,0,0,0,.29-.24,1.06,1.06,0,0,0,.18-.33l1.2.19v-.27a1.92,1.92,0,0,0-.13-1.25,2,2,0,0,0-.89-.91,4.41,4.41,0,0,1,1.92-2.08,4.74,4.74,0,0,1,2.83-.54h.16a4.86,4.86,0,0,1,2.58,1.37,4.57,4.57,0,0,1,1.28,2.56c-.74,0-1.39.73-1.53,1.77v.28l1.2.17a1,1,0,0,0,.08.38.9.9,0,0,0,.23.31l-2,14.5Zm9.19,1.43c-.73-.12-1.43.55-1.63,1.52l-4.41-.71a1.67,1.67,0,0,0-.19-1.2,1.79,1.79,0,0,0-1-.77h-.16l2-14.49a1,1,0,0,0,.29-.24,1.06,1.06,0,0,0,.18-.33l1.2.19v-.27a1.88,1.88,0,0,0-1.08-2.18,3.7,3.7,0,0,1,1.45-2,3.86,3.86,0,0,1,2.44-.7h.13a4.07,4.07,0,0,1,2.17,1.41,3.79,3.79,0,0,1,.82,2.4,1.85,1.85,0,0,0-1.57,1.77v.27l1.23.2a.91.91,0,0,0,.28.66l-2,14.52Zm9.54-13.95a1,1,0,0,0,.31.69l-2,14.5h-.18a1,1,0,0,0-.48,0,1,1,0,0,0-.42.23,2.19,2.19,0,0,0-.74,1.23l-2.89-.45a1.9,1.9,0,0,0-1.16-2h-.17l2-14.52a.87.87,0,0,0,.47-.55l1.21.17v-.27a1.91,1.91,0,0,0-1.09-2.18c.66-1.85,2-3,3.21-2.83s2.16,1.71,2.3,3.69c-.75-.09-1.51.67-1.65,1.75v.3Zm4.08-30.39a1,1,0,0,0,.08.38.9.9,0,0,0,.23.31l-2,14.5H1024c-.72-.12-1.41.53-1.64,1.47l-2.89-.45a2.11,2.11,0,0,0-.37-1.38,1,1,0,0,0-.33-.35,1.16,1.16,0,0,0-.47-.2h-.18l2-14.49a.89.89,0,0,0,.3-.24.87.87,0,0,0,.17-.33l1.2.19v-.27a1.84,1.84,0,0,0-1.08-2.18c.65-1.85,1.94-3,3.18-2.85h.13c1.26.2,2.16,1.71,2.3,3.69a1.13,1.13,0,0,0-.48.05,1.15,1.15,0,0,0-.42.23,2.38,2.38,0,0,0-.75,1.47v.3Zm4.08-30.41a1,1,0,0,0,.28.69l-2,14.5h-.19c-.71-.1-1.4.55-1.63,1.51l-2.9-.45a2.29,2.29,0,0,0-.36-1.42,1.22,1.22,0,0,0-.34-.34,1.44,1.44,0,0,0-.46-.19h-.18l2-14.5a.89.89,0,0,0,.29-.22.92.92,0,0,0,.18-.32l1.2.17v-.27a2.3,2.3,0,0,0-.35-1.65,1,1,0,0,0-.31-.35,1.14,1.14,0,0,0-.44-.18c.67-1.85,1.94-3,3.22-2.83s2.16,1.73,2.3,3.69a1.16,1.16,0,0,0-.89.27,2.66,2.66,0,0,0-.53.67,2.09,2.09,0,0,0-.23.81v.27Zm4.08-30.57a1,1,0,0,0,.28.69l-2,14.5h-.18a1.86,1.86,0,0,0-1.67,1.67l-2.88-.45a2.23,2.23,0,0,0-.34-1.55,1.06,1.06,0,0,0-.34-.36,1.25,1.25,0,0,0-.46-.19h-.18l2-14.52a.91.91,0,0,0,.28-.23.76.76,0,0,0,.17-.32l1.2.19v-.29a2.29,2.29,0,0,0-.35-1.63,1.07,1.07,0,0,0-.32-.35,1.3,1.3,0,0,0-.43-.2c.67-1.85,2-3,3.2-2.83h.12c1.25.2,2.16,1.73,2.3,3.69a1.24,1.24,0,0,0-.47.05,1,1,0,0,0-.42.23,2.34,2.34,0,0,0-.78,1.47v.3Zm4.08-30.41a1,1,0,0,0,.28.69l-2,14.5h-.16a1.78,1.78,0,0,0-1.63,1.51l-2.9-.45a2.24,2.24,0,0,0-.36-1.4,1.14,1.14,0,0,0-.34-.35,1.26,1.26,0,0,0-.46-.2h0l2-14.49a1,1,0,0,0,.45-.57l1.22.19v-.27a2.34,2.34,0,0,0-.35-1.67,1.2,1.2,0,0,0-.75-.53c.67-1.85,2-3,3.2-2.83s2.16,1.73,2.33,3.69c-.78-.12-1.52.65-1.68,1.75v.3Zm4.62-32.61c-.77-.12-1.51.65-1.67,1.77v.27l1.23.18a.78.78,0,0,0,.06.37,1,1,0,0,0,.22.32l-2,14.5h-.18a1,1,0,0,0-.48,0,1.18,1.18,0,0,0-.42.24,2.07,2.07,0,0,0-.71,1.2l-2.92-.45a1.69,1.69,0,0,0-.2-1.18,1.77,1.77,0,0,0-.94-.78h-.14l2-14.5a1,1,0,0,0,.29-.24.87.87,0,0,0,.17-.33l1.21.19v-.27c.16-1.12-.35-2.08-1.12-2.2h-.23c.7-2,2-3.28,3.51-3.07h.1c1.41.22,2.41,2,2.55,3.93Z"/><path class="cls-7" d="M1017.75,294l-.23,1.77-2-.34.24-1.77a7,7,0,0,0-1-5.28,7.42,7.42,0,0,0-4.48-3.14,7,7,0,0,0-2.73.31,7.45,7.45,0,0,0-2.4,1.33,6.7,6.7,0,0,0-2.36,4.73l-.25,1.77-2.27-.36.25-1.77A7.62,7.62,0,0,0,999,285.7a8,8,0,0,0-5-3,7.54,7.54,0,0,0-5.69,1.3,7.39,7.39,0,0,0-1.94,2.15,7.05,7.05,0,0,0-.93,2.71l-.25,1.79-2.23-.36.25-1.77a7.52,7.52,0,0,0-1.38-5.41A8,8,0,0,0,977.1,280l-5.4,40.37h6.82l3.52-24.2h.18l2.26.37h.2l-3,23.89h14.56L999.35,299h.19l2.25.36h.2l-2.62,21h12.29l2.76-19.09h.19l2.27.36h.18l-2.33,18.67h3.07c0-.4,3.38-25,4.4-32.58a7.89,7.89,0,0,0-3.1,2.54A7.64,7.64,0,0,0,1017.75,294Z"/><path class="cls-7" d="M972.05,37.45a3.08,3.08,0,0,0-.35,1.06,2.88,2.88,0,0,0,2.24,3.3l1.17.2-1,7.35-.85-.14c-.87-.14-1.7.77-2,2v.28l1.07.18a1.57,1.57,0,0,0,.34,1l-4.22,31.86a2,2,0,0,0-1.77,1.75l-11.3-1.81a1.8,1.8,0,0,0-.61,0,1.66,1.66,0,0,0-.54.29,1.43,1.43,0,0,0-.38.47,1.34,1.34,0,0,0-.17.59,1.78,1.78,0,0,0,.28,1.23,1.47,1.47,0,0,0,.43.43,1.43,1.43,0,0,0,.56.22l.81.14L955,93.48a6.13,6.13,0,0,1,.71,2.61c-.77-.12-1.49.67-1.64,1.77v.25l1.19.2a1,1,0,0,0,.27.69l-2,14.5h-.18a.94.94,0,0,0-.47,0,1.44,1.44,0,0,0-.42.23,2.18,2.18,0,0,0-.69,1.22h-.38a1.41,1.41,0,0,0-.61,0,1.68,1.68,0,0,0-.55.28,1.65,1.65,0,0,0-.39.48,1.34,1.34,0,0,0-.17.58,2,2,0,0,0,.29,1.24,1.47,1.47,0,0,0,1,.65h.53l-.75,5.68V124a5.59,5.59,0,0,1,.67,2.46.89.89,0,0,0-.39.06,1.2,1.2,0,0,0-.34.21,2.17,2.17,0,0,0-.73,1.48v.27l1.16.2a1,1,0,0,0,.28.67l-2,14.51h-.07a1.24,1.24,0,0,0-.47,0,1,1,0,0,0-.42.23,2.31,2.31,0,0,0-.7,1.24h-.41a1.41,1.41,0,0,0-.61.05,1.44,1.44,0,0,0-.55.28,1.47,1.47,0,0,0-.38.48,1.69,1.69,0,0,0-.17.58,1.65,1.65,0,0,0,1.24,2h.59l-.76,5.66v.1a5.52,5.52,0,0,1,.68,2.44,1.1,1.1,0,0,0-.73.29,2.25,2.25,0,0,0-.74,1.47V159l1.17.2a1.09,1.09,0,0,0,.28.68l-2,14.5h-.18a1.29,1.29,0,0,0-.48,0,1.11,1.11,0,0,0-.41.23,2.32,2.32,0,0,0-.72,1.37h-.37a1.4,1.4,0,0,0-1.11.32,1.68,1.68,0,0,0-.6,1.1,1.78,1.78,0,0,0,.28,1.23,1.47,1.47,0,0,0,.43.43,1.6,1.6,0,0,0,.56.22h.58l-.76,5.68a5.61,5.61,0,0,1,.68,2.43c-.7,0-1.33.75-1.47,1.77v.28l1.17.19a1,1,0,0,0,.3.67l-2,14.5h-.17c-.7-.12-1.37.55-1.59,1.51h-.38a1.5,1.5,0,0,0-1.15.34,1.43,1.43,0,0,0-.38.47,1.34,1.34,0,0,0-.17.59,1.64,1.64,0,0,0,1.2,2l.07,0,.53.1-.73,5.66a5.74,5.74,0,0,1,.67,2.43c-.69,0-1.32.77-1.46,1.77V220l1.17.18a1,1,0,0,0,.29.69l-2,14.49H937a1.24,1.24,0,0,0-.47,0,1.44,1.44,0,0,0-.42.23,2.15,2.15,0,0,0-.67,1.22H935a1.59,1.59,0,0,0-.61.06,1.53,1.53,0,0,0-.92.77,1.34,1.34,0,0,0-.17.58,1.6,1.6,0,0,0,.22,1.24,1.72,1.72,0,0,0,1,.73h.55l-.75,5.65v.1a5.78,5.78,0,0,1,.67,2.44c-.69,0-1.33.77-1.47,1.77v.27l1.19.2a.89.89,0,0,0,.07.36,1,1,0,0,0,.21.31l-2,14.49h-.18c-.69-.09-1.37.55-1.59,1.52h-.37a1.57,1.57,0,0,0-.61,0,1.71,1.71,0,0,0-.55.29,1.43,1.43,0,0,0-.38.47,1.68,1.68,0,0,0-.17.59,1.82,1.82,0,0,0,.28,1.24,1.44,1.44,0,0,0,.43.42,1.62,1.62,0,0,0,.56.23l46.31,7.5.44-3.3-3.49-.57a1.91,1.91,0,0,0-1.13-2h-.22l2-14.5a1,1,0,0,0,.29-.24.87.87,0,0,0,.17-.33l1.17.2V257a2,2,0,0,0-.11-1.22,1.93,1.93,0,0,0-.82-.92,4.29,4.29,0,0,1,1.84-2.08,4.33,4.33,0,0,1,2.75-.53h.18a.76.76,0,0,1,.3,0l1-8.12-3.45-.57a2.23,2.23,0,0,0-.36-1.37,1,1,0,0,0-.33-.35,1.14,1.14,0,0,0-.44-.18h.14l2-14.5a.9.9,0,0,0,.44-.57l1.19.2v-.29a2.07,2.07,0,0,0-.11-1.23,1.93,1.93,0,0,0-.82-.92,4.24,4.24,0,0,1,1.85-2.07,4.36,4.36,0,0,1,2.74-.52h.44l1.07-8.09-3.45-.55a2.22,2.22,0,0,0-.34-1.42,1,1,0,0,0-.33-.35,1.23,1.23,0,0,0-.46-.18h-.16l2-14.5a.66.66,0,0,0,.29-.23.84.84,0,0,0,.16-.33l1.19.19V196a2.23,2.23,0,0,0-.32-1.65,1.1,1.1,0,0,0-.59-.49,4.24,4.24,0,0,1,1.85-2.09,4.4,4.4,0,0,1,2.75-.53h.39l1.07-8.11-3.39-.55a2.4,2.4,0,0,0-.33-1.55,1.1,1.1,0,0,0-.33-.35,1.18,1.18,0,0,0-.45-.18h-.19l2-14.5a.91.91,0,0,0,.45-.55l1.17.18v-.28a1.89,1.89,0,0,0-.11-1.22,1.93,1.93,0,0,0-.82-.92,4.38,4.38,0,0,1,1.87-2.07,4.47,4.47,0,0,1,2.75-.54h.38l1-8.09-3.37-.53c0-1-.42-1.83-1.13-2h-.16l2-14.49a.94.94,0,0,0,.43-.49l1.17.18v-.27a2.07,2.07,0,0,0-.11-1.23,2,2,0,0,0-.83-.91,4.37,4.37,0,0,1,4.62-2.62h.34l1.07-8.07-3.35-.55a1.76,1.76,0,0,0-.19-1.19,1.71,1.71,0,0,0-.94-.77H993l2-14.52a.73.73,0,0,0,.29-.23.76.76,0,0,0,.17-.32l1.17.19v-.29a1.88,1.88,0,0,0-1.11-2.18,4.65,4.65,0,0,1,4.91-2.83h.3l7.41-56.49ZM973.88,99a4.53,4.53,0,0,1,2-2.25,4.62,4.62,0,0,1,2.93-.58H979a5,5,0,0,1,2.67,1.5,4.8,4.8,0,0,1,1.29,2.76c-.77-.14-1.48.65-1.64,1.75v.27l1.17.2a1,1,0,0,0,.28.67l-2,14.5h-.15a1,1,0,0,0-.48,0,1,1,0,0,0-.42.23,2.28,2.28,0,0,0-.69,1.2l-6.12-1a1.88,1.88,0,0,0-1.13-2h-.18l2-14.49a1,1,0,0,0,.29-.24,1.29,1.29,0,0,0,.17-.33l1.16.19v-.27C975.13,100.12,974.63,99.14,973.88,99Zm4.32,34a1,1,0,0,0,.29.67l-2,14.5h-.14c-.69-.12-1.36.54-1.58,1.49l-6.13-1a2.34,2.34,0,0,0-.33-1.39,1.29,1.29,0,0,0-.34-.36,1.25,1.25,0,0,0-.46-.19h-.16l2-14.5a.86.86,0,0,0,.45-.57l1.17.2v-.28a2,2,0,0,0-1-2.16,4.38,4.38,0,0,1,4.62-2.61h.16a4.73,4.73,0,0,1,2.5,1.37,4.61,4.61,0,0,1,1.24,2.56c-.71,0-1.34.73-1.46,1.77v.27Zm-4,30.39a1.06,1.06,0,0,0,.3.69l-2,14.49h-.15c-.73-.12-1.43.61-1.6,1.65l-6.11-1c0-1.06-.4-2-1.13-2.1h-.16l2-14.5a1,1,0,0,0,.46-.57l1.17.2V162a2.5,2.5,0,0,0-.32-1.67,1.34,1.34,0,0,0-.63-.49,4.4,4.4,0,0,1,1.86-2.07,4.51,4.51,0,0,1,2.76-.54h.15a4.66,4.66,0,0,1,3.75,3.93c-.71,0-1.33.74-1.47,1.77v.27Zm-4,30.56a1,1,0,0,0,.3.69l-2,14.5h-.17c-.7-.12-1.37.55-1.59,1.49l-6.1-1a2.32,2.32,0,0,0-.36-1.4,1,1,0,0,0-.34-.35,1.22,1.22,0,0,0-.45-.2h-.16l2-14.51a.92.92,0,0,0,.29-.23.76.76,0,0,0,.17-.32l1.17.19v-.29a2,2,0,0,0-.12-1.23,2,2,0,0,0-.83-.91,4.33,4.33,0,0,1,1.86-2.08,4.4,4.4,0,0,1,2.75-.53h.16a4.68,4.68,0,0,1,3.75,3.92c-.72,0-1.33.73-1.47,1.77v.28Zm-4,30.43a1,1,0,0,0,.29.67l-2,14.5h-.18c-.67-.12-1.35.53-1.56,1.47l-6.13-1a1.88,1.88,0,0,0-1.15-2h-.16l2-14.49a.81.81,0,0,0,.28-.24.87.87,0,0,0,.17-.33l1.17.19V223a2.38,2.38,0,0,0-.31-1.65,1.34,1.34,0,0,0-.64-.51,4.33,4.33,0,0,1,4.62-2.59h.16a4.6,4.6,0,0,1,2.5,1.37,4.52,4.52,0,0,1,1.24,2.55c-.71,0-1.32.75-1.46,1.77v.28Zm-16.32-4.52a1,1,0,0,0-.33-.35,1.26,1.26,0,0,0-.46-.2,3.79,3.79,0,0,1,1.42-2,3.87,3.87,0,0,1,2.37-.71H953a4.1,4.1,0,0,1,2.09,1.42,3.85,3.85,0,0,1,.8,2.39c-.75-.09-1.45.67-1.59,1.75v.3l1.17.17a1,1,0,0,0,.28.69l-2,14.5h-.18a1.16,1.16,0,0,0-.89.27,2.18,2.18,0,0,0-.69,1.22l-4.09-.67a2.64,2.64,0,0,0-.35-1.37,1.13,1.13,0,0,0-.22-.27,1.25,1.25,0,0,0-.46-.19h-.16l2-14.5a.81.81,0,0,0,.28-.24.87.87,0,0,0,.17-.33l1.17.2v-.28a2.53,2.53,0,0,0-.55-1.69Zm4-30.42a1.14,1.14,0,0,0-.34-.35,1.18,1.18,0,0,0-.45-.18,3.71,3.71,0,0,1,3.78-2.71H957A3.92,3.92,0,0,1,959.9,190c-.73-.1-1.44.68-1.6,1.76V192l1.17.2a1,1,0,0,0,.28.66l-2,14.52h-.18a.94.94,0,0,0-.47,0,1,1,0,0,0-.42.25,2.17,2.17,0,0,0-.69,1.23l-4.1-.66c0-1-.42-1.83-1.11-2h-.18l2-14.52a.86.86,0,0,0,.44-.55l1.17.2v-.27a2.68,2.68,0,0,0-.46-1.69Zm3.25-31.1a3.74,3.74,0,0,1,1.4-2,3.84,3.84,0,0,1,2.36-.71H961a4,4,0,0,1,2.11,1.42,3.9,3.9,0,0,1,.81,2.39,1.82,1.82,0,0,0-1.61,1.75v.27l1.19.2a1.09,1.09,0,0,0,.28.69l-2,14.5h-.18a1.29,1.29,0,0,0-.48,0,1.14,1.14,0,0,0-.41.24,2.22,2.22,0,0,0-.74,1.38l-4-.65a2.51,2.51,0,0,0-.34-1.56,1,1,0,0,0-.34-.35,1.22,1.22,0,0,0-.45-.2h-.18l2-14.49a1,1,0,0,0,.46-.57l1.17.19v-.27c-.1-1.14-.62-2.12-1.37-2.24Zm4.81-29.88a1,1,0,0,0-.33-.35,1.23,1.23,0,0,0-.46-.18,3.65,3.65,0,0,1,1.35-2,3.69,3.69,0,0,1,2.28-.75h.14A4,4,0,0,1,967,126.6a3.85,3.85,0,0,1,.8,2.39,1.7,1.7,0,0,0-.45,0,1.31,1.31,0,0,0-.4.22,2.26,2.26,0,0,0-.75,1.49V131l1.18.19a1,1,0,0,0,.28.67l-2,14.5h-.16a1.72,1.72,0,0,0-1.48,1.66l-4.11-.67c0-1-.43-1.83-1.13-2h-.17l2-14.5a.81.81,0,0,0,.28-.24.87.87,0,0,0,.17-.33l1.17.2v-.28a2.57,2.57,0,0,0-.35-1.69Zm3.23-30.92h-.29a3.9,3.9,0,0,1,1.45-2.17,4,4,0,0,1,2.51-.79H969a4.39,4.39,0,0,1,2.26,1.54,4.29,4.29,0,0,1,.87,2.58h-.24c-.75-.12-1.48.67-1.62,1.75v.27l1.17.2a1,1,0,0,0,.3.69l-2,14.5h-.17a.94.94,0,0,0-.47,0,1.27,1.27,0,0,0-.41.23,2.18,2.18,0,0,0-.69,1.22l-4.1-.67a1.86,1.86,0,0,0-1.13-2h-.18l2-14.5a1,1,0,0,0,.46-.55l1.17.18v-.28c.09-1.18-.4-2.1-1.15-2.28Zm-7.82,1.71a.81.81,0,0,0,.28-.24.87.87,0,0,0,.17-.33l1.17.2V98.6a2.5,2.5,0,0,0-.31-1.65,1.38,1.38,0,0,0-.8-.55h-.51c.69-2,2-3.29,3.41-3.08h.11c1.37.24,2.32,2,2.46,3.93-.75-.12-1.48.67-1.62,1.75v.27l1.17.2a1,1,0,0,0,.29.69l-2,14.49H961c-.71-.09-1.36.55-1.58,1.5l-2.78-.45a2.32,2.32,0,0,0-.33-1.38A1.14,1.14,0,0,0,956,114a1.23,1.23,0,0,0-.46-.18h-.16Zm-4,30.39a1,1,0,0,0,.44-.57l1.17.2V129c.16-1.1-.34-2.08-1.09-2.2h-.2c.65-1.82,2-3,3.11-2.82h.1c1.23.19,2.12,1.72,2.24,3.73-.67,0-1.29.76-1.43,1.75v.29l1.19.18a1,1,0,0,0,.28.66l-2,14.52H957c-.71-.12-1.39.53-1.59,1.51l-2.75-.45a2.44,2.44,0,0,0-.36-1.39,1.22,1.22,0,0,0-.32-.36,1.2,1.2,0,0,0-.45-.19h-.18Zm-4,30.41a1,1,0,0,0,.44-.57l1.19.2v-.28c.15-1.12-.34-2.08-1.1-2.2h-.19c.63-1.85,1.86-3,3.11-2.83s2.1,1.75,2.24,3.74c-.68,0-1.29.76-1.43,1.74v.28l1.19.2a1.07,1.07,0,0,0,.28.68l-2,14.5h-.18a1.29,1.29,0,0,0-.48,0,1.44,1.44,0,0,0-.42.23,2.26,2.26,0,0,0-.73,1.38l-2.73-.43c0-1-.38-2-1.11-2.1h-.08Zm-4,30.55a.81.81,0,0,0,.43-.55l1.19.19V190a1.88,1.88,0,0,0-1.11-2.18h-.2c.64-1.85,2-3,3.11-2.83s2.13,1.73,2.26,3.71a1.84,1.84,0,0,0-1.42,1.77v.27l1.19.2a1,1,0,0,0,.27.67l-2,14.5h-.16c-.69-.12-1.36.55-1.58,1.51l-2.76-.45c0-1-.43-1.83-1.13-2H943Zm-4,30.42a.7.7,0,0,0,.28-.23.74.74,0,0,0,.16-.32l1.19.18v-.27a1.89,1.89,0,0,0-1.13-2.2h-.18c.63-1.85,1.88-3,3.11-2.83s2.12,1.71,2.26,3.71c-.69,0-1.31.77-1.43,1.75v.29l1.17.18a1,1,0,0,0,.28.69l-2,14.49h-.18c-.69-.09-1.35.55-1.58,1.48l-2.76-.43a1.88,1.88,0,0,0-1.13-2h-.06Zm-.29,45.79c-.72-.11-1.37.53-1.59,1.52l-2.76-.46a2.2,2.2,0,0,0-.35-1.39,1.14,1.14,0,0,0-.78-.55H935l2-14.5a1,1,0,0,0,.29-.24.87.87,0,0,0,.17-.33l1.17.2v-.27a2.45,2.45,0,0,0-.34-1.67,1,1,0,0,0-.33-.35,1.16,1.16,0,0,0-.44-.19h-.2c.65-1.82,2-3,3.11-2.82s2.12,1.72,2.26,3.71a1.21,1.21,0,0,0-.69.29,2.34,2.34,0,0,0-.74,1.48v.29l1.17.18a.9.9,0,0,0,.08.36,1.16,1.16,0,0,0,.22.31l-2,14.51Zm8.75,1.42c-.69-.12-1.36.55-1.58,1.51l-4.08-.67a2.27,2.27,0,0,0-.36-1.39,1,1,0,0,0-.33-.36,1.16,1.16,0,0,0-.44-.19h-.18l2-14.5a1,1,0,0,0,.46-.57l1.17.2V252a2.45,2.45,0,0,0-.34-1.67,1,1,0,0,0-.33-.34,1,1,0,0,0-.44-.19,3.62,3.62,0,0,1,1.4-2,3.77,3.77,0,0,1,2.36-.7h.23a4.11,4.11,0,0,1,2.09,1.43,4,4,0,0,1,.82,2.38,1.8,1.8,0,0,0-1.6,1.75v.28l1.17.19a.94.94,0,0,0,.07.37,1.14,1.14,0,0,0,.23.3l-2,14.5ZM960.72,270a.94.94,0,0,0-.47,0,1.1,1.1,0,0,0-.4.24,2.08,2.08,0,0,0-.7,1.22l-6.12-1a2.32,2.32,0,0,0-.36-1.4,1,1,0,0,0-.33-.35,1,1,0,0,0-.44-.2h-.18l2-14.49a1,1,0,0,0,.44-.57l1.19.19v-.29a2.33,2.33,0,0,0-.32-1.65,1.23,1.23,0,0,0-.63-.49,4.38,4.38,0,0,1,1.86-2.08,4.47,4.47,0,0,1,2.75-.54h.16a4.66,4.66,0,0,1,3.75,3.93c-.7,0-1.33.75-1.47,1.77v.28l1.19.17a1,1,0,0,0,.28.69l-2,14.5Zm12.52-13.44a.94.94,0,0,0,.07.37,1,1,0,0,0,.21.32l-2,14.49h-.17a1.29,1.29,0,0,0-.48,0,1.09,1.09,0,0,0-.41.22,2.31,2.31,0,0,0-.7,1.24l-5.94-1a2.38,2.38,0,0,0-.36-1.42,1,1,0,0,0-.33-.35,1.14,1.14,0,0,0-.44-.18h-.18l2-14.5a.89.89,0,0,0,.29-.22.87.87,0,0,0,.17-.33l1.17.18v-.27a2.6,2.6,0,0,0-.32-1.66,1.37,1.37,0,0,0-.65-.51,4.24,4.24,0,0,1,1.85-2.07,4.36,4.36,0,0,1,2.74-.52h.18a4.73,4.73,0,0,1,2.5,1.37,4.6,4.6,0,0,1,1.23,2.56,1,1,0,0,0-.42.06,1,1,0,0,0-.35.22,2.27,2.27,0,0,0-.76,1.47v.29Zm4-30.37a.94.94,0,0,0,.07.37,1.66,1.66,0,0,0,.22.3l-2,14.5h-.18c-.69-.12-1.34.53-1.58,1.47l-5.95-1a1.88,1.88,0,0,0-1.13-2h-.18l2-14.52a.91.91,0,0,0,.45-.55l1.17.2v-.29a2,2,0,0,0-1-2.16,4.31,4.31,0,0,1,1.85-2.08,4.39,4.39,0,0,1,2.75-.52h.18a4.7,4.7,0,0,1,2.48,1.39,4.65,4.65,0,0,1,1.24,2.54,1.27,1.27,0,0,0-.79.28,2.31,2.31,0,0,0-.73,1.49v.27Zm4-30.43a1,1,0,0,0,.08.38,1,1,0,0,0,.22.31l-2,14.5h-.19a1,1,0,0,0-.48,0,1.21,1.21,0,0,0-.42.22,2.36,2.36,0,0,0-.69,1.24l-5.94-1c0-1-.44-1.85-1.13-2h-.18l2-14.49a.91.91,0,0,0,.28-.23,1,1,0,0,0,.18-.32l1.16.17v-.27a2,2,0,0,0-1-2.16,4.34,4.34,0,0,1,4.6-2.6h.16a4.73,4.73,0,0,1,3.75,3.93,1.17,1.17,0,0,0-.8.28,2.31,2.31,0,0,0-.73,1.49v.28Zm4-30.56a1.07,1.07,0,0,0,.28.68l-2,14.5h-.18c-.73-.12-1.45.61-1.62,1.65l-6-1c.1-1.06-.38-2-1.11-2.1h-.31l2-14.52a.7.7,0,0,0,.28-.23.65.65,0,0,0,.16-.32L978,164v-.28a2,2,0,0,0-1-2.16,4.34,4.34,0,0,1,4.6-2.59h.15a4.66,4.66,0,0,1,3.75,3.93,1.09,1.09,0,0,0-.79.27,2.42,2.42,0,0,0-.74,1.49v.3Zm4-30.41a1,1,0,0,0,.08.37,1,1,0,0,0,.22.32l-2,14.49h-.18c-.69-.11-1.36.55-1.58,1.5l-5.95-1a1.91,1.91,0,0,0-1.13-2h-.35l2-14.5a.89.89,0,0,0,.29-.22.84.84,0,0,0,.16-.33l1.17.18v-.28a1.89,1.89,0,0,0-.13-1.24,2,2,0,0,0-.86-.92,4.39,4.39,0,0,1,4.62-2.59h.16a4.73,4.73,0,0,1,2.5,1.37,4.61,4.61,0,0,1,1.24,2.56,1.84,1.84,0,0,0-1.54,1.75v.29Zm4.5-32.59a1.29,1.29,0,0,0-.48,0,1.21,1.21,0,0,0-.42.22,2.46,2.46,0,0,0-.73,1.5v.27l1.19.2a1,1,0,0,0,.28.67l-2,14.49h-.23c-.7-.11-1.37.53-1.59,1.48l-5.94-1a1.75,1.75,0,0,0-1.11-2h-.2l2-14.5A1,1,0,0,0,985,103l1.16.2V103a2.5,2.5,0,0,0-.31-1.65,1.14,1.14,0,0,0-.34-.35,1.25,1.25,0,0,0-.46-.19h-.11a4.59,4.59,0,0,1,2-2.24,4.65,4.65,0,0,1,2.94-.58H990a5,5,0,0,1,2.67,1.5,4.83,4.83,0,0,1,1.29,2.76Zm.73-30-2.38,18.11-18.63-3,2.38-18.13a9.39,9.39,0,0,1,1-3.67,9.68,9.68,0,0,1,9.63-5.11,10.33,10.33,0,0,1,6.24,4.38,10.17,10.17,0,0,1,1.51,7.42Z"/><path class="cls-7" d="M970,282.06a7.18,7.18,0,0,0-2.45,4.6l-.21,1.76-1.92-.34.24-1.75a7.93,7.93,0,0,0-1.19-5.22,7.51,7.51,0,0,0-4.87-3.22,6.82,6.82,0,0,0-5.25,1.31,7.31,7.31,0,0,0-1.83,2.12,7.52,7.52,0,0,0-.87,2.69l-.21,1.73-2.12-.36.21-1.75a8.31,8.31,0,0,0-1.18-5.63,6,6,0,0,0-1.64-1.76,5.61,5.61,0,0,0-2.18-.95,5.28,5.28,0,0,0-2.37.16,5.5,5.5,0,0,0-2.09,1.15,7.79,7.79,0,0,0-2.55,5l-.23,1.76-1.94-.36.23-1.75a8.11,8.11,0,0,0-.3-4,7.86,7.86,0,0,0-2.15-3.32c-1.19,9.25-5.86,45.94-5.94,46.49h.56c.34-1.63,1.38-2.79,2.45-2.62h.32l4-29h.19l2.1.35H937l-3.44,29.14h.32a2.23,2.23,0,0,1,1.1.73,2.39,2.39,0,0,1,.51,1.24h8.86L948.49,291h.19l2.08.34h.2l-3.41,28.84H961l3.65-26.58h.17l2.11.36h.19L964,320.12h7l4.78-39.45h-.25a6.71,6.71,0,0,0-5.49,1.38Z"/><path class="cls-8" d="M1252.76,262.48a84.55,84.55,0,0,0-16.4,5.5,37.33,37.33,0,0,0-13.11,11.8,14.56,14.56,0,0,0,.42,18c.22.32.4.75.65,1.16s.37.72-.39.63l-1.37-.16c-7.58-.9-15.18-1.44-22.77-2.33-2.54-.31-3.16.35-3.48,2.88l-1.6,13.46c-.35,2.91-4.63,4.06-8.52,3.84-4.72-.29-6.54-6.68-6-10.23a24.49,24.49,0,0,0,.36-6.28,66.31,66.31,0,0,1-.77-15l2.22-18.6a6.9,6.9,0,0,1,1.86-4.1,4.59,4.59,0,0,0,1.63-2.71c.37-1.75-.62-3.2-1.63-3.22s-1.74-3.05-1.65-6.85a47.68,47.68,0,0,1,.52-6.86,19.24,19.24,0,0,1,2.09-6c.23-.39,3.33-6.28,2.13-6.19l-1.43.12c-.78.07-1-3.56-.48-8.12l1-8.25a13.33,13.33,0,0,0-1.2-8.73,2.86,2.86,0,0,1-.47-1.95,2.89,2.89,0,0,1,.92-1.79,7.57,7.57,0,0,0,1.63-2.74,7.88,7.88,0,0,0,.38-3.16c-.4-3.5-6.32-4-7.36-.51a9.5,9.5,0,0,0,.79,6.48,2.49,2.49,0,0,1,.2,1.11,2.33,2.33,0,0,1-.31,1.09,17.75,17.75,0,0,0-4,11.31c-.3,4.08-1,8.11-1.45,12.16l-.11,1c0,.32-.31,1-.48,1s-.25.07-.32,0l-1.93-.69c-.36,0,.69,11.11.62,11.71a48.22,48.22,0,0,1-1,7.45c-.82,4.08-2.73,7.11-4.27,6.74a2.15,2.15,0,0,0-1.18,0,2.35,2.35,0,0,0-1,.65,2.08,2.08,0,0,0-.47,1.07,2,2,0,0,0,.15,1.16,8.21,8.21,0,0,0,2,3.12,6.4,6.4,0,0,1,1.66,4.34c-1.14,11.11-1.71,21.42-5.57,31.95a52.13,52.13,0,0,0-1.87,6.82,11.86,11.86,0,0,1-4.7,7.75c-.9.47-1.27,1.29-1.49,3.15l-3,25.19,81.33,9.67c0-.47.81-4.14.87-4.63,1.94-16.31,9.9-28.77,17.64-27.85l.58.07,6.62-55.68A18.3,18.3,0,0,0,1252.76,262.48Z"/><path class="cls-8" d="M1343.28,334.22c-.41-.17,1.66-12.09,1.56-13.09-.29-5.38-1.24-9.42-.61-14.93l2.23-18.73a5.9,5.9,0,0,1,2.07-3.94,3.12,3.12,0,0,0,1.15-1.24,3,3,0,0,0,.34-1.69,3.44,3.44,0,0,0-2.89-3.57c-1.49,0-2.4-3.3-1.81-7.42a39.75,39.75,0,0,1,1.65-7.3,30.78,30.78,0,0,1,2.85-5.42c1.72-2.93,1.48-5.77,1-5.65l-1,.1-.26,0c-.13,0-.21-.56-.16-1.11a9.54,9.54,0,0,1,.12-1c.48-4.08.85-8.19,1.45-12.25a18,18,0,0,0-1.21-12,2.44,2.44,0,0,1,0-1.14,2.54,2.54,0,0,1,.46-1,9.41,9.41,0,0,0,2.26-6.12c-.15-3.67-6-4.56-7.17-1.2a7.64,7.64,0,0,0-.38,3.18,7.55,7.55,0,0,0,.92,3.07,2.86,2.86,0,0,1-.44,3.74,13.78,13.78,0,0,0-3.21,8.3c-.22,2.77-.53,5.53-.88,8.32-.55,4.58-1.63,8.1-2.38,7.83s-1.57,1.14-1.2,3c.17,1,.48,1.88.78,3.43a18,18,0,0,1-.38,5.12l-.86,7.27c-.48,4-1.63,7.07-2.83,6.79s-2.33,1-2.34,2.74a4.78,4.78,0,0,0,1,3,6.93,6.93,0,0,1,.85,4.44c-.81,6.85-1.49,13.68-2.45,20.6-.66,5.62-4,10.29-4.77,15.78-.9,6.33-1.34,11.28-8.92,10.82-3.19-.18-10.33-1.86-9.78-6.51,0-.16.49-5.51.54-5.88l.81-6.86c.43-3.57.18-4.32-3.37-4.74l-21.85-2.6a7.82,7.82,0,0,0-1.28,0c-.72,0-.9-.4-.38-.78a10,10,0,0,0,.89-.68c5.5-4.79,7.31-10.7,4.76-17.48a44.26,44.26,0,0,0-5.64-10.1c-3.39-4.66-9-9-14.39-12.7a20.41,20.41,0,0,0-8.88-3.07l-6.66,56c7.35,1.51,13,20.36,9.09,36l80.92,9.62,2.87-24.18C1346.21,335.59,1346.67,335.65,1343.28,334.22Z"/><path class="cls-1" d="M642.54,213.5,594.09,216l6.69,127.18,48.45-2.55Z"/><path class="cls-3" d="M653.27,186.62l-24.22,1.27,7.22,137.27,24.22-1.27Z"/><path class="cls-9" d="M657.63,192.45l-28.26,1.49.21,4,28.26-1.49Z"/><path class="cls-9" d="M658.16,202.55,629.9,204l.21,4,28.26-1.49Z"/><path class="cls-9" d="M658.59,210.62l-28.26,1.49.21,4,28.26-1.49Z"/><path class="cls-9" d="M659,218.7l-28.26,1.48.21,4,28.26-1.49Z"/><path class="cls-9" d="M659.44,226.78l-28.26,1.48.21,4,28.26-1.49Z"/><path class="cls-9" d="M660,236.86l-28.26,1.49.21,4,28.26-1.48Z"/><path class="cls-9" d="M660.39,244.94l-28.26,1.49.21,4,28.26-1.48Z"/><path class="cls-9" d="M660.82,253l-28.26,1.49.21,4L661,257Z"/><path class="cls-9" d="M661.35,263.11l-28.26,1.48.21,4.05,28.26-1.49Z"/><path class="cls-9" d="M661.77,271.19l-28.26,1.48.21,4L662,275.18Z"/><path class="cls-9" d="M662.2,279.25l-28.26,1.49.21,4.08,28.26-1.49Z"/><path class="cls-9" d="M662.62,287.32l-28.26,1.49.21,4,28.26-1.48Z"/><path class="cls-9" d="M663.15,297.43l-28.26,1.49.21,4,28.26-1.49Z"/><path class="cls-9" d="M663.58,305.5,635.32,307l.21,4,28.26-1.49Z"/><path class="cls-9" d="M664,313.58l-28.26,1.48.21,4,28.26-1.49Z"/><rect class="cls-3" x="652.64" y="172.59" width="0.04" height="157.67" transform="translate(-12.31 34.63) rotate(-3.01)"/><path class="cls-3" d="M678.67,169.08l-1.7-32.3L654.77,138l1.7,32.29-8.08.43.21,4h0l6.69,127.17L621,303.69l-.3-5.69-4.58-.12,4.56-.24-6.8-3.7-1.49.08-.53-10,0-.64-1.46-27.67v-.3l0-.69,8.08-.43-.33-6.29-8.08.42-.31-5.85L563.24,245l.3,5.86-6.06.32.33,6.29,6.06-.32,0,.7,0,.3,1.45,27.66,0,.65L566,296.8l-5.86,4,4.55-.24-4.54.6.3,5.69-54.5,2.87.85,16.14-8.1.43.32,6.06,157.52-8.29,1,18.17,4-.21-.64-12.11,4.09-.22.64,12.11,4-.21-.64-12.11,4.09-.21.63,12.11,4-.21L677,329.09l6.07-.32.64,12.11,2-.11L685,328.66l6.06-.32.66,12.11,2-.1-9-171.59ZM579.44,283.61l-6.06.32-1.06-20.19,6.06-.31Zm14.12-.75-8.08.43-1.06-20.18,8.08-.43Zm6.06-.31-1.07-20.19,6.06-.31,1.07,20.18Z"/><path class="cls-1" d="M0,406.45c16.18-3.9,32.41-7.56,48.63-11.35Q73,389.73,97.44,384.59c16.3-3.41,32.65-6.55,49-9.82l6.13-1.21,6.14-1.14L171,370.17l24.57-4.52Q293.93,348.1,393.25,336a3534.39,3534.39,0,0,1,399.26-26.22,3183.74,3183.74,0,0,1,399.65,21.47q99.39,11.81,197.75,30.36c4.1.73,8.18,1.56,12.27,2.39l12.25,2.45,24.5,4.94c8.16,1.68,16.28,3.54,24.42,5.31l24.39,5.4c16.23,3.78,32.4,7.74,48.58,11.65l24.16,6.33,12.07,3.17,12.06,3.24c-16.44-2.65-32.81-5.56-49.21-8.29l-49.23-7.89-49.28-7.35c-16.46-2.22-32.87-4.65-49.33-6.8q-98.7-13-197.78-21.44-198.12-16.81-397-14.95c-132.47,1-264.9,7.91-397,19.61q-99.12,8.7-198,20.82c-16.47,2-33,4-49.44,6.15l-49.43,6.47-49.41,6.76C33,401.84,16.51,404.26,0,406.45Z"/></g></g></svg>